<svg width="24" height="29" viewBox="0 0 24 29" fill="none" xmlns="http://www.w3.org/2000/svg">
<path d="M10.4667 27.7002C9.26667 26.8335 7.98356 26.1335 6.61733 25.6002C5.25111 25.0668 3.82311 24.7002 2.33333 24.5002C1.66667 24.4113 1.11111 24.1277 0.666667 23.6495C0.222222 23.1713 0 22.6215 0 22.0002V12.6002C0 11.7557 0.288889 11.0615 0.866667 10.5175C1.44444 9.9735 2.12222 9.76772 2.9 9.90016C4.61111 10.1891 6.23911 10.7113 7.784 11.4668C9.32889 12.2224 10.7342 13.2002 12 14.4002C13.2667 13.2002 14.6724 12.2224 16.2173 11.4668C17.7622 10.7113 19.3898 10.1891 21.1 9.90016C21.8778 9.76683 22.5556 9.97261 23.1333 10.5175C23.7111 11.0624 24 11.7566 24 12.6002V22.0002C24 22.6224 23.7778 23.1726 23.3333 23.6508C22.8889 24.1291 22.3333 24.4122 21.6667 24.5002C20.1778 24.7002 18.7498 25.0668 17.3827 25.6002C16.0156 26.1335 14.7324 26.8335 13.5333 27.7002C13.0889 28.0335 12.5778 28.2002 12 28.2002C11.4222 28.2002 10.9111 28.0335 10.4667 27.7002ZM12 25.5335C13.4 24.4891 14.8889 23.6557 16.4667 23.0335C18.0444 22.4113 19.6667 22.0002 21.3333 21.8002V12.6002C19.7111 12.8891 18.1164 13.4726 16.5493 14.3508C14.9822 15.2291 13.4658 16.4011 12 17.8668C10.5333 16.4002 9.01644 15.2277 7.44933 14.3495C5.88222 13.4713 4.288 12.8882 2.66667 12.6002V21.8002C4.33333 22.0002 5.95556 22.4113 7.53333 23.0335C9.11111 23.6557 10.6 24.4891 12 25.5335ZM12 11.0002C10.5333 11.0002 9.27778 10.4779 8.23333 9.4335C7.18889 8.38905 6.66667 7.1335 6.66667 5.66683C6.66667 4.20016 7.18889 2.94461 8.23333 1.90016C9.27778 0.855718 10.5333 0.333496 12 0.333496C13.4667 0.333496 14.7222 0.855718 15.7667 1.90016C16.8111 2.94461 17.3333 4.20016 17.3333 5.66683C17.3333 7.1335 16.8111 8.38905 15.7667 9.4335C14.7222 10.4779 13.4667 11.0002 12 11.0002ZM12 8.3335C12.7333 8.3335 13.3613 8.07261 13.884 7.55083C14.4067 7.02905 14.6676 6.40105 14.6667 5.66683C14.6667 4.9335 14.4053 4.3055 13.8827 3.78283C13.36 3.26016 12.7324 2.99927 12 3.00016C11.2667 3.00016 10.6387 3.2615 10.116 3.78416C9.59333 4.30683 9.33245 4.93439 9.33333 5.66683C9.33333 6.40016 9.59467 7.02816 10.1173 7.55083C10.64 8.0735 11.2676 8.33438 12 8.3335Z" fill="white"/>
</svg>
