<svg width="31" height="24" viewBox="0 0 31 24" fill="none" xmlns="http://www.w3.org/2000/svg">
<path d="M24 17H23.979C23.7654 16.995 23.5589 16.9219 23.3898 16.7913C23.2207 16.6607 23.0978 16.4794 23.039 16.274L19.87 5.19L17.935 10.35C17.8638 10.5406 17.7361 10.7049 17.5691 10.8211C17.402 10.9372 17.2035 10.9996 17 11H13V9H16.307L19.064 1.649C19.1378 1.4519 19.2719 1.28312 19.4473 1.16669C19.6226 1.05025 19.8302 0.992107 20.0405 1.00053C20.2508 1.00895 20.4531 1.08351 20.6185 1.21359C20.784 1.34366 20.9042 1.52263 20.962 1.725L24.073 12.617L26.052 6.684C26.1182 6.48487 26.2453 6.31164 26.4155 6.18886C26.5857 6.06609 26.7902 6.00001 27 6H31V8H27.72L24.948 16.316C24.882 16.5152 24.7548 16.6885 24.5846 16.8113C24.4144 16.9341 24.2099 17.0001 24 17ZM14 24H12V17C11.9992 16.2046 11.6829 15.442 11.1204 14.8796C10.558 14.3171 9.79541 14.0008 9 14H5C4.20459 14.0008 3.44199 14.3171 2.87956 14.8796C2.31712 15.442 2.00079 16.2046 2 17V24H0V17C0.00158786 15.6744 0.528882 14.4036 1.46622 13.4662C2.40356 12.5289 3.67441 12.0016 5 12H9C10.3256 12.0016 11.5964 12.5289 12.5338 13.4662C13.4711 14.4036 13.9984 15.6744 14 17V24ZM7 2C7.59334 2 8.17336 2.17595 8.66671 2.50559C9.16006 2.83524 9.54458 3.30377 9.77164 3.85195C9.9987 4.40013 10.0581 5.00333 9.94236 5.58527C9.8266 6.16721 9.54088 6.70176 9.12132 7.12132C8.70176 7.54088 8.16721 7.8266 7.58527 7.94236C7.00333 8.05811 6.40013 7.9987 5.85195 7.77164C5.30377 7.54458 4.83524 7.16006 4.50559 6.66671C4.17595 6.17336 4 5.59334 4 5C4 4.20435 4.31607 3.44129 4.87868 2.87868C5.44129 2.31607 6.20435 2 7 2ZM7 0C6.01109 0 5.04439 0.293245 4.22215 0.842652C3.3999 1.39206 2.75904 2.17295 2.3806 3.08658C2.00216 4.00021 1.90315 5.00555 2.09607 5.97545C2.289 6.94536 2.7652 7.83627 3.46447 8.53553C4.16373 9.2348 5.05464 9.711 6.02455 9.90393C6.99445 10.0969 7.99979 9.99784 8.91342 9.6194C9.82705 9.24096 10.6079 8.6001 11.1573 7.77785C11.7068 6.95561 12 5.98891 12 5C12 3.67392 11.4732 2.40215 10.5355 1.46447C9.59785 0.526784 8.32608 0 7 0Z" fill="white"/>
</svg>
