<svg width="502" height="466" viewBox="0 0 502 466" fill="none" xmlns="http://www.w3.org/2000/svg">
<path d="M251 465.603C112.653 465.603 0.5 400.848 0.5 320.97C0.5 241.092 112.653 176.338 251 176.338C389.347 176.338 501.5 241.092 501.5 320.97C501.5 400.848 389.347 465.603 251 465.603Z" fill="#F5F5F5"/>
<path d="M431.706 412.474L435.113 410.466C435.677 410.094 436.146 409.595 436.483 409.009C436.82 408.424 437.016 407.767 437.055 407.092V154.596C437.014 153.923 436.818 153.269 436.481 152.685C436.144 152.101 435.675 151.604 435.113 151.233L278.448 60.7711C277.844 60.4676 277.177 60.3096 276.501 60.3096C275.825 60.3096 275.158 60.4676 274.554 60.7711L271.147 62.7456C270.582 63.1157 270.112 63.6124 269.773 64.1963C269.434 64.7801 269.235 65.4351 269.194 66.1089V318.649C269.234 319.324 269.431 319.981 269.77 320.567C270.109 321.153 270.581 321.652 271.147 322.023L427.811 412.474C428.415 412.777 429.082 412.935 429.759 412.935C430.435 412.935 431.102 412.777 431.706 412.474Z" fill="#37474F"/>
<path d="M269.216 65.7943C269.357 64.7962 270.171 64.4273 271.147 64.9915L427.811 155.442C428.387 155.797 428.862 156.294 429.189 156.885L436.491 152.676C436.16 152.086 435.686 151.59 435.113 151.233L278.449 60.7711C277.844 60.4676 277.177 60.3096 276.501 60.3096C275.825 60.3096 275.158 60.4676 274.554 60.7711L271.147 62.7456C270.625 63.0855 270.183 63.5337 269.85 64.0597C269.516 64.5857 269.3 65.1773 269.216 65.7943Z" fill="#455A64"/>
<path d="M428.158 412.636C428.194 412.645 428.231 412.645 428.267 412.636L428.473 412.712H428.549C428.668 412.712 428.788 412.777 428.907 412.81C429.679 412.959 430.477 412.899 431.218 412.636C431.367 412.582 431.512 412.517 431.652 412.441L435.113 410.466C435.677 410.094 436.146 409.595 436.483 409.009C436.82 408.423 437.016 407.767 437.055 407.092V154.596C437.031 153.919 436.837 153.258 436.491 152.676L429.189 156.885C429.542 157.465 429.74 158.127 429.764 158.805V411.356C429.781 411.719 429.678 412.077 429.471 412.376C429.339 412.527 429.168 412.638 428.976 412.697C428.785 412.757 428.58 412.762 428.386 412.712L428.158 412.636Z" fill="#263238"/>
<path d="M373.229 144.463C373.279 144.198 373.399 143.951 373.576 143.747L373.706 143.638C373.809 143.561 373.929 143.511 374.056 143.492C374.183 143.473 374.312 143.486 374.433 143.53C374.53 143.553 374.622 143.593 374.704 143.649C375.186 143.981 375.563 144.444 375.789 144.983C376.079 145.594 376.235 146.26 376.245 146.936C376.288 147.442 376.133 147.944 375.811 148.336C375.668 148.474 375.482 148.558 375.284 148.574C375.086 148.589 374.889 148.536 374.726 148.423C374.494 148.283 374.288 148.103 374.118 147.891C373.964 147.689 373.826 147.475 373.706 147.251C373.373 146.598 373.191 145.879 373.174 145.146C373.168 144.917 373.187 144.688 373.229 144.463ZM347.754 87.5363C348.32 87.2042 348.965 87.0317 349.621 87.0372C350.865 87.0953 352.075 87.4686 353.136 88.1222C356.097 89.9346 358.383 92.6668 359.645 95.9011C359.851 96.3568 360.047 96.8342 360.22 97.3007C360.394 97.7672 360.578 98.2446 360.73 98.7328C360.882 99.221 361.056 99.7092 361.197 100.197C361.251 100.36 361.294 100.534 361.349 100.686L361.631 101.673C361.626 101.72 361.626 101.767 361.631 101.814C361.793 102.411 361.945 103.029 362.119 103.637C362.206 103.973 362.282 104.288 362.369 104.613L362.618 105.579C362.965 106.87 363.312 108.107 363.703 109.289L363.953 110.005C364.072 110.342 364.191 110.678 364.321 111.003C364.452 111.329 364.528 111.502 364.625 111.73C364.788 112.132 364.962 112.511 365.146 112.88C365.33 113.249 365.374 113.347 365.493 113.575C368.238 118.847 371.59 120.909 373.532 123.621C375.236 125.986 375.702 127.874 378.002 131.617C378.729 132.811 379.641 134.188 380.834 135.837C384.143 140.394 385.326 142.651 385.727 144.018C385.731 144.054 385.731 144.09 385.727 144.126C385.727 144.235 385.727 144.333 385.803 144.43C385.807 144.463 385.807 144.495 385.803 144.528C385.807 144.615 385.807 144.701 385.803 144.788C385.841 145.054 385.859 145.322 385.857 145.591V155.724L382.212 157.829V147.685C382.221 147.155 382.144 146.628 381.984 146.123C381.583 144.756 380.411 142.51 377.091 137.953C375.898 136.293 374.986 134.915 374.259 133.722C371.981 129.99 371.493 128.091 369.789 125.748C367.847 123.024 364.495 120.974 361.75 115.69C361.354 114.878 361.003 114.045 360.698 113.195C358.94 108.855 358.148 103.007 355.989 98.0927C354.729 94.8627 352.442 92.1368 349.48 90.3354C347.255 89.0552 345.628 88.9467 344.38 89.5326L347.754 87.5363ZM331.773 100.49C332.076 100.318 332.401 100.186 332.739 100.1C334.117 99.7743 336.167 100.577 338.229 100.339C335.332 104.082 331.307 101.673 329.094 102.205C328.749 102.287 328.42 102.422 328.117 102.606L331.773 100.49ZM324.049 114.41C324.157 114.476 324.259 114.553 324.352 114.638L324.504 114.79L324.645 114.953C325.254 115.739 325.589 116.703 325.6 117.697C325.636 118.197 325.485 118.692 325.177 119.086C325.136 119.125 325.092 119.161 325.047 119.195C324.946 119.272 324.828 119.322 324.703 119.341C324.578 119.36 324.45 119.347 324.331 119.303C324.231 119.279 324.135 119.239 324.049 119.184C323.94 119.119 323.843 119.032 323.734 118.956C323.576 118.808 323.435 118.645 323.311 118.468C322.795 117.713 322.512 116.822 322.497 115.907C322.497 114.595 323.192 113.911 324.049 114.41ZM321.662 105.242C322.833 104.589 324.106 104.138 325.427 103.908C325.991 103.778 326.512 103.637 326.935 103.496C325.483 104.788 323.704 105.655 321.792 106.002C320.632 106.228 319.502 106.592 318.429 107.087L321.662 105.242Z" fill="#7209B7" fill-opacity="0.5"/>
<path d="M318.135 107.271L318.428 107.098C319.502 106.603 320.631 106.239 321.791 106.013C323.704 105.668 325.484 104.8 326.934 103.507C327.297 103.171 327.693 102.873 328.117 102.617C328.42 102.438 328.75 102.306 329.093 102.226C331.263 101.695 335.331 104.103 338.217 100.36L338.315 100.241C340.333 97.5177 341.071 91.4421 344.098 89.6628L344.401 89.4892C345.649 88.9033 347.277 89.0118 349.501 90.292C357.518 94.9247 357.79 105.926 360.675 113.162C363.561 120.399 367.662 122.666 369.887 125.78C372.111 128.894 372.263 131.205 377.199 137.997C382.135 144.788 382.32 146.459 382.32 147.761V157.894L316.66 119.922V109.788C316.62 109.268 316.74 108.749 317.004 108.299C317.268 107.849 317.662 107.491 318.135 107.271ZM374.704 148.423C375.561 148.922 376.244 148.26 376.244 146.936C376.253 146.312 376.118 145.694 375.851 145.13C375.584 144.566 375.192 144.071 374.704 143.682C373.847 143.182 373.163 143.855 373.163 145.179C373.154 145.801 373.289 146.418 373.556 146.98C373.823 147.542 374.216 148.036 374.704 148.423ZM349.501 117.893C349.912 118.206 350.392 118.416 350.901 118.507C351.409 118.598 351.933 118.566 352.427 118.414C352.921 118.263 353.372 117.996 353.742 117.635C354.112 117.275 354.391 116.831 354.556 116.341C355.123 115.058 355.394 113.664 355.348 112.262C355.348 107.282 352.734 101.738 349.501 99.872C349.064 99.6114 348.588 99.4245 348.09 99.3187C345.53 98.8088 343.653 101.261 343.653 105.503C343.653 110.483 346.268 116.027 349.501 117.893ZM324.048 119.173C324.905 119.672 325.6 119.01 325.6 117.697C325.606 117.073 325.47 116.454 325.201 115.89C324.932 115.326 324.538 114.831 324.048 114.443C323.191 113.954 322.497 114.616 322.497 115.94C322.49 116.562 322.627 117.177 322.896 117.737C323.165 118.298 323.559 118.789 324.048 119.173Z" fill="#7209B7" fill-opacity="0.5"/>
<path opacity="0.1" d="M318.135 107.271L318.428 107.098C319.502 106.603 320.631 106.239 321.791 106.013C323.704 105.668 325.484 104.8 326.934 103.507C327.297 103.171 327.693 102.873 328.117 102.617C328.42 102.438 328.75 102.306 329.093 102.226C331.263 101.695 335.331 104.103 338.217 100.36L338.315 100.241C340.333 97.5177 341.071 91.4421 344.098 89.6628L344.401 89.4892C345.649 88.9033 347.277 89.0118 349.501 90.292C357.518 94.9247 357.79 105.926 360.675 113.162C363.561 120.399 367.662 122.666 369.887 125.78C372.111 128.894 372.263 131.205 377.199 137.997C382.135 144.788 382.32 146.459 382.32 147.761V157.894L316.66 119.922V109.788C316.62 109.268 316.74 108.749 317.004 108.299C317.268 107.849 317.662 107.491 318.135 107.271ZM374.704 148.423C375.561 148.922 376.244 148.26 376.244 146.936C376.253 146.312 376.118 145.694 375.851 145.13C375.584 144.566 375.192 144.071 374.704 143.682C373.847 143.182 373.163 143.855 373.163 145.179C373.154 145.801 373.289 146.418 373.556 146.98C373.823 147.542 374.216 148.036 374.704 148.423ZM349.501 117.893C349.912 118.206 350.392 118.416 350.901 118.507C351.409 118.598 351.933 118.566 352.427 118.414C352.921 118.263 353.372 117.996 353.742 117.635C354.112 117.275 354.391 116.831 354.556 116.341C355.123 115.058 355.394 113.664 355.348 112.262C355.348 107.282 352.734 101.738 349.501 99.872C349.064 99.6114 348.588 99.4245 348.09 99.3187C345.53 98.8088 343.653 101.261 343.653 105.503C343.653 110.483 346.268 116.027 349.501 117.893ZM324.048 119.173C324.905 119.672 325.6 119.01 325.6 117.697C325.606 117.073 325.47 116.454 325.201 115.89C324.932 115.326 324.538 114.831 324.048 114.443C323.191 113.954 322.497 114.616 322.497 115.94C322.49 116.562 322.627 117.177 322.896 117.737C323.165 118.298 323.559 118.789 324.048 119.173Z" fill="black"/>
<path opacity="0.25" d="M382.092 146.166C382.253 146.671 382.329 147.199 382.32 147.728V157.872L385.966 155.768V145.634C385.968 145.366 385.949 145.097 385.911 144.832C385.916 144.745 385.916 144.658 385.911 144.571C385.915 144.539 385.915 144.506 385.911 144.474C385.911 144.376 385.911 144.278 385.836 144.17V144.061L382.092 146.166Z" fill="black"/>
<path opacity="0.25" d="M369.898 125.791C371.601 128.134 372.068 130.033 374.368 133.765L378.002 131.639C375.724 127.896 375.236 126.008 373.533 123.643L369.898 125.791Z" fill="black"/>
<path opacity="0.25" d="M355.967 98.0058C358.137 102.921 358.918 108.714 360.676 113.108C361.017 113.987 361.408 114.845 361.847 115.679L365.493 113.585C365.373 113.358 365.254 113.119 365.146 112.891C365.037 112.663 364.787 112.142 364.625 111.741C364.527 111.513 364.419 111.264 364.321 111.014C364.223 110.765 364.071 110.352 363.952 110.016L363.703 109.3C363.312 108.117 362.965 106.881 362.618 105.589L362.368 104.624C362.281 104.298 362.205 103.984 362.119 103.647C361.945 103.04 361.793 102.421 361.63 101.825C361.626 101.778 361.626 101.731 361.63 101.684L361.348 100.696C361.294 100.545 361.251 100.371 361.196 100.208C361.055 99.72 360.893 99.2318 360.73 98.7435C360.567 98.2553 360.404 97.7888 360.22 97.3114C360.035 96.8341 359.851 96.3675 359.645 95.9119L355.967 98.0058Z" fill="black"/>
<path d="M375.799 144.984C376.089 145.594 376.245 146.26 376.255 146.937C376.299 147.442 376.143 147.944 375.821 148.336C376.133 147.939 376.284 147.44 376.244 146.937C376.232 146.262 376.081 145.597 375.799 144.984ZM373.152 145.146C373.153 144.917 373.179 144.687 373.228 144.463C373.182 144.688 373.16 144.917 373.163 145.146C373.176 145.878 373.354 146.598 373.684 147.251C373.35 146.599 373.169 145.879 373.152 145.146ZM325.046 119.195C324.946 119.272 324.827 119.322 324.702 119.341C324.577 119.36 324.449 119.347 324.33 119.303C324.45 119.341 324.577 119.351 324.701 119.332C324.825 119.313 324.943 119.266 325.046 119.195Z" fill="#7209B7" fill-opacity="0.5"/>
<path d="M343.642 105.503C343.642 110.483 346.268 116.027 349.501 117.893C349.915 118.194 350.394 118.395 350.899 118.48C351.404 118.565 351.923 118.532 352.413 118.383C352.903 118.233 353.352 117.972 353.724 117.62C354.096 117.267 354.381 116.833 354.557 116.352C354.055 116.244 353.575 116.053 353.135 115.788C349.881 113.911 347.288 108.378 347.288 103.398C347.24 101.995 347.515 100.599 348.09 99.3186C345.508 98.8086 343.642 101.261 343.642 105.503Z" fill="#7209B7" fill-opacity="0.5"/>
<path opacity="0.3" d="M343.642 105.503C343.642 110.483 346.268 116.027 349.501 117.893C349.915 118.194 350.394 118.395 350.899 118.48C351.404 118.565 351.923 118.532 352.413 118.383C352.903 118.233 353.352 117.972 353.724 117.62C354.096 117.267 354.381 116.833 354.557 116.352C354.055 116.244 353.575 116.053 353.135 115.788C349.881 113.911 347.288 108.378 347.288 103.398C347.24 101.995 347.515 100.599 348.09 99.3186C345.508 98.8086 343.642 101.261 343.642 105.503Z" fill="black"/>
<path d="M373.717 147.251C373.826 147.479 373.961 147.693 374.118 147.891C374.288 148.103 374.494 148.283 374.726 148.423C374.889 148.536 375.086 148.59 375.284 148.574C375.482 148.558 375.668 148.474 375.811 148.336C376.133 147.944 376.288 147.442 376.245 146.936C376.235 146.26 376.079 145.594 375.789 144.984C375.562 144.444 375.186 143.981 374.704 143.649C374.622 143.594 374.53 143.553 374.433 143.53C374.284 143.478 374.124 143.471 373.972 143.51C373.819 143.548 373.682 143.631 373.576 143.747C373.399 143.951 373.279 144.198 373.229 144.463C373.179 144.687 373.154 144.916 373.153 145.146C373.169 145.883 373.363 146.605 373.717 147.251Z" fill="#37474F"/>
<path d="M322.497 115.907C322.512 116.822 322.795 117.713 323.311 118.468C323.435 118.645 323.577 118.808 323.734 118.956C323.843 119.032 323.94 119.119 324.049 119.184C324.135 119.239 324.231 119.279 324.331 119.303C324.478 119.353 324.636 119.358 324.786 119.32C324.936 119.281 325.072 119.2 325.177 119.086C325.486 118.692 325.636 118.197 325.6 117.698C325.589 116.703 325.254 115.739 324.645 114.953L324.504 114.79L324.353 114.638C324.259 114.553 324.157 114.476 324.049 114.41C323.192 113.911 322.497 114.595 322.497 115.907Z" fill="#37474F"/>
<path d="M417.646 179.061L281.313 100.349C280.951 100.167 280.552 100.072 280.147 100.072C279.742 100.072 279.342 100.167 278.98 100.349L277.668 101.109C277.328 101.333 277.045 101.632 276.842 101.985C276.638 102.337 276.52 102.732 276.496 103.138V311.119C276.519 311.524 276.637 311.917 276.841 312.268C277.044 312.619 277.328 312.916 277.668 313.137L414 391.849C414.361 392.036 414.761 392.134 415.167 392.134C415.573 392.134 415.973 392.036 416.333 391.849L417.646 391.09C417.986 390.869 418.27 390.572 418.474 390.221C418.677 389.87 418.795 389.476 418.817 389.072V181.09C418.796 180.683 418.679 180.288 418.475 179.935C418.271 179.582 417.987 179.283 417.646 179.061Z" fill="#F5F5F5"/>
<path d="M276.539 102.78C276.691 102.302 277.136 102.15 277.624 102.454L414 181.166C414.346 181.384 414.63 181.686 414.825 182.045L418.47 179.94C418.282 179.579 417.996 179.278 417.646 179.072L281.313 100.36C280.955 100.173 280.556 100.075 280.152 100.075C279.748 100.075 279.35 100.173 278.991 100.36L277.668 101.109C277.378 101.298 277.129 101.544 276.935 101.831C276.742 102.118 276.607 102.44 276.539 102.78Z" fill="#FAFAFA"/>
<path d="M414.272 392.022C414.412 392.075 414.557 392.112 414.705 392.131H414.933C415.168 392.158 415.404 392.158 415.639 392.131C415.787 392.113 415.933 392.076 416.073 392.022L416.333 391.892L417.646 391.133C417.987 390.914 418.272 390.617 418.476 390.266C418.68 389.915 418.797 389.52 418.817 389.115V181.09C418.806 180.683 418.686 180.286 418.47 179.94L414.825 182.045C415.03 182.394 415.146 182.789 415.161 183.195V391.176C415.161 391.816 414.792 392.131 414.272 392.022Z" fill="#E0E0E0"/>
<path d="M360.416 131.292L360.6 131.595C361.035 132.306 361.35 133.083 361.533 133.895C361.533 133.96 361.533 133.993 361.533 134.026C361.536 134.044 361.536 134.062 361.533 134.08L363.757 146.6L364.452 150.603C364.452 150.766 364.528 150.929 364.571 151.102C364.613 151.264 364.664 151.423 364.723 151.58C364.723 151.688 364.799 151.797 364.842 151.905L361.197 154.01C361.023 153.591 360.895 153.155 360.817 152.708L360.101 148.705L357.931 136.185C357.766 135.181 357.377 134.228 356.792 133.396L360.416 131.292Z" fill="#7209B7" fill-opacity="0.5"/>
<path d="M385.521 171.684C385.89 172.27 386.237 172.855 386.606 173.441C386.758 173.723 386.91 174.005 387.051 174.288C387.192 174.57 387.398 175.014 387.55 175.373C387.702 175.731 387.897 176.175 388.049 176.588C388.201 177 388.353 177.412 388.494 177.824C388.635 178.237 388.808 178.79 388.939 179.278C389.025 179.593 389.112 179.908 389.199 180.244C389.402 181.011 389.586 181.792 389.752 182.587C389.752 182.859 389.872 183.141 389.915 183.412C389.958 183.683 390.056 184.085 390.11 184.41C390.11 184.41 390.11 184.41 390.11 184.464C390.11 184.725 390.11 184.898 389.98 184.974C389.963 184.982 389.945 184.986 389.926 184.986C389.907 184.986 389.889 184.982 389.872 184.974L386.736 182.522L386.226 182.121L385.977 181.936L385.706 181.719L385.489 181.557L385.304 181.405C384.388 178.088 382.861 174.971 380.802 172.215L384.447 170.111C384.805 170.631 385.174 171.163 385.521 171.684Z" fill="#7209B7" fill-opacity="0.5"/>
<path d="M346.072 103.745C346.246 104.027 346.398 104.309 346.55 104.591C346.649 104.747 346.736 104.91 346.81 105.08C346.94 105.307 347.049 105.546 347.168 105.785C347.287 106.023 347.363 106.165 347.45 106.36C347.634 106.729 347.797 107.098 347.949 107.445C348.101 107.792 348.296 108.248 348.448 108.649C348.6 109.007 348.719 109.365 348.839 109.734C349.034 110.276 349.197 110.819 349.349 111.372C349.435 111.665 349.501 111.947 349.576 112.229C349.575 112.251 349.575 112.273 349.576 112.294C349.576 112.446 349.652 112.587 349.674 112.739C349.761 113.076 349.826 113.423 349.88 113.759C349.934 114.095 349.989 114.291 350.065 114.562C350.141 114.833 350.206 115.126 350.293 115.408C350.379 115.69 350.466 115.94 350.553 116.211C350.553 116.211 350.553 116.211 350.553 116.287C350.661 116.58 350.781 116.884 350.911 117.187C351.041 117.491 351.15 117.784 351.301 118.099C351.339 118.18 351.371 118.263 351.399 118.348C351.508 118.576 351.627 118.804 351.735 119.043L352.31 120.128C352.441 120.388 352.571 120.627 352.712 120.876L349.056 122.981C347.742 120.764 346.783 118.355 346.213 115.842C345.523 112.29 344.224 108.883 342.373 105.774L346.072 103.745Z" fill="#7209B7" fill-opacity="0.5"/>
<path d="M324.385 111.861C324.566 111.751 324.77 111.684 324.981 111.665C324.628 112.23 324.151 112.709 323.588 113.066C323.025 113.422 322.389 113.648 321.727 113.727C321.413 113.731 321.103 113.797 320.815 113.922L324.385 111.861Z" fill="#7209B7" fill-opacity="0.5"/>
<path opacity="0.4" d="M324.385 111.861C324.566 111.751 324.77 111.684 324.981 111.665C324.628 112.23 324.151 112.709 323.588 113.066C323.025 113.422 322.389 113.648 321.727 113.727C321.413 113.731 321.103 113.797 320.815 113.922L324.385 111.861Z" fill="white"/>
<path d="M310.791 127.711C311.363 127.431 311.995 127.295 312.632 127.314C313.269 127.333 313.892 127.507 314.447 127.82C318.689 129.686 320.523 130.532 322.714 131.444C323.137 134.264 321.477 134.525 320.653 134.188C317.572 132.973 315.999 132.225 310.791 129.935C310.241 129.627 309.624 129.455 308.994 129.434C308.363 129.413 307.737 129.544 307.167 129.816L310.791 127.711Z" fill="#7209B7" fill-opacity="0.5"/>
<path opacity="0.4" d="M310.791 127.711C311.363 127.431 311.995 127.295 312.632 127.314C313.269 127.333 313.892 127.507 314.447 127.82C318.689 129.686 320.523 130.532 322.714 131.444C323.137 134.264 321.477 134.525 320.653 134.188C317.572 132.973 315.999 132.225 310.791 129.935C310.241 129.627 309.624 129.455 308.994 129.434C308.363 129.413 307.737 129.544 307.167 129.816L310.791 127.711Z" fill="white"/>
<path d="M361.218 154.01C362.004 155.729 363.108 157.282 364.473 158.589L375.887 167.171C377.711 168.657 379.357 170.35 380.791 172.215L384.436 170.111C383.006 168.239 381.36 166.542 379.532 165.055L368.097 156.484C366.756 155.169 365.671 153.616 364.896 151.906L361.218 154.01Z" fill="#7209B7" fill-opacity="0.5"/>
<path opacity="0.4" d="M361.218 154.01C362.004 155.729 363.108 157.282 364.473 158.589L375.887 167.171C377.711 168.657 379.357 170.35 380.791 172.215L384.436 170.111C383.006 168.239 381.36 166.542 379.532 165.055L368.097 156.484C366.756 155.169 365.671 153.616 364.896 151.906L361.218 154.01Z" fill="white"/>
<path d="M349.11 123.068C350.684 125.979 352.624 128.677 354.882 131.096C355.593 131.792 356.226 132.564 356.77 133.396L360.415 131.292C359.88 130.452 359.246 129.68 358.527 128.992C356.273 126.571 354.337 123.873 352.766 120.963L349.11 123.068Z" fill="#7209B7" fill-opacity="0.5"/>
<path opacity="0.4" d="M349.11 123.068C350.684 125.979 352.624 128.677 354.882 131.096C355.593 131.792 356.226 132.564 356.77 133.396L360.415 131.292C359.88 130.452 359.246 129.68 358.527 128.992C356.273 126.571 354.337 123.873 352.766 120.963L349.11 123.068Z" fill="white"/>
<path d="M328.518 96.129C329.864 95.4238 331.654 95.5431 333.759 96.6497C336.883 98.288 340.03 101.76 342.438 105.861L346.083 103.691C343.697 99.5899 340.55 96.0964 337.404 94.4799C336.382 93.9027 335.236 93.579 334.062 93.536C333.36 93.527 332.668 93.7028 332.055 94.0459L328.518 96.129Z" fill="#7209B7" fill-opacity="0.5"/>
<path opacity="0.4" d="M328.518 96.129C329.864 95.4238 331.654 95.5431 333.759 96.6497C336.883 98.288 340.03 101.76 342.438 105.861L346.083 103.691C343.697 99.5899 340.55 96.0964 337.404 94.4799C336.382 93.9027 335.236 93.579 334.062 93.536C333.36 93.527 332.668 93.7028 332.055 94.0459L328.518 96.129Z" fill="white"/>
<path opacity="0.15" d="M380.758 172.215C382.818 174.971 384.345 178.088 385.26 181.405L385.445 181.557L385.662 181.719L385.933 181.936L386.183 182.121L386.692 182.522L389.785 184.996C389.802 185.004 389.82 185.008 389.839 185.008C389.858 185.008 389.876 185.004 389.893 184.996C390.012 184.92 390.067 184.746 390.023 184.486C390.023 184.486 390.023 184.486 390.023 184.432C390.023 184.106 389.904 183.77 389.828 183.434C389.752 183.097 389.719 182.88 389.665 182.609C389.499 181.821 389.314 181.04 389.112 180.266C389.025 179.929 388.938 179.615 388.852 179.3C388.721 178.812 388.569 178.334 388.407 177.846C388.244 177.358 388.125 177.022 387.962 176.609C387.799 176.197 387.647 175.796 387.463 175.394C387.278 174.993 387.137 174.646 386.964 174.309C386.79 173.973 386.671 173.745 386.519 173.463C386.204 172.877 385.857 172.291 385.434 171.705C385.011 171.12 384.718 170.621 384.349 170.132L380.758 172.215Z" fill="black"/>
<path opacity="0.15" d="M356.77 133.396C357.355 134.228 357.744 135.181 357.909 136.185L360.079 148.705L360.795 152.708C360.873 153.155 361.001 153.591 361.175 154.01L364.82 151.905C364.82 151.797 364.734 151.688 364.701 151.58C364.642 151.423 364.591 151.264 364.549 151.102C364.549 150.929 364.462 150.766 364.43 150.603L363.735 146.6L361.511 134.08C361.514 134.062 361.514 134.044 361.511 134.026C361.511 134.026 361.511 133.96 361.511 133.895C361.328 133.083 361.013 132.306 360.578 131.595L360.394 131.292L356.77 133.396Z" fill="black"/>
<path opacity="0.15" d="M342.428 105.861C344.279 108.97 345.579 112.376 346.268 115.929C346.838 118.442 347.797 120.851 349.111 123.068L352.767 120.963C352.626 120.713 352.496 120.475 352.366 120.214L351.791 119.129C351.682 118.891 351.563 118.663 351.454 118.435C351.427 118.35 351.394 118.267 351.357 118.185C351.216 117.882 351.085 117.567 350.966 117.274C350.847 116.981 350.717 116.667 350.608 116.374C350.608 116.374 350.608 116.319 350.608 116.298C350.521 116.026 350.424 115.766 350.348 115.495C350.272 115.224 350.185 114.931 350.12 114.649C350.055 114.366 349.99 114.106 349.935 113.846C349.881 113.585 349.816 113.162 349.729 112.826C349.729 112.674 349.664 112.533 349.632 112.381C349.63 112.359 349.63 112.338 349.632 112.316C349.556 112.034 349.491 111.752 349.404 111.459C349.252 110.906 349.089 110.374 348.894 109.821C348.775 109.452 348.655 109.094 348.503 108.736C348.351 108.334 348.178 107.933 348.004 107.531C347.831 107.13 347.69 106.794 347.505 106.446C347.418 106.251 347.321 106.067 347.223 105.871C347.125 105.676 346.995 105.394 346.865 105.166C346.791 104.997 346.704 104.834 346.605 104.678C346.453 104.396 346.301 104.114 346.127 103.832L342.428 105.861Z" fill="black"/>
<path d="M389.817 184.996L386.736 182.522C387.962 183.51 389.632 184.801 389.817 184.996Z" fill="#7209B7" fill-opacity="0.5"/>
<path d="M307.156 129.838C307.727 129.566 308.354 129.434 308.986 129.453C309.618 129.472 310.237 129.641 310.791 129.946C315.987 132.246 317.561 132.995 320.642 134.221C321.466 134.546 323.126 134.286 322.703 131.465C322.707 131.404 322.707 131.342 322.703 131.281L321.998 127.277L320.023 116.363C320.023 116.363 319.579 114.638 320.718 113.998H320.805C321.084 113.86 321.393 113.793 321.705 113.802C322.369 113.721 323.006 113.491 323.569 113.131C324.132 112.77 324.608 112.288 324.96 111.719C325.569 110.813 325.991 109.795 326.202 108.724C326.412 107.653 326.407 106.55 326.186 105.481C325.35 100.794 326.262 97.5176 328.356 96.3025L328.518 96.194C329.864 95.4888 331.654 95.6082 333.759 96.7148C339.303 99.6224 344.901 108.248 346.268 115.994C347.125 120.876 352.04 128.395 354.882 131.183C357.725 133.971 357.909 136.271 357.909 136.271L360.079 148.792L360.795 152.795C361.316 155.789 364.386 158.686 364.386 158.686L375.887 167.17C380.449 170.8 383.743 175.784 385.293 181.405C385.293 181.405 389.633 184.724 389.85 184.996L388.385 184.16L309.489 138.799C309.489 138.799 308.577 138.311 308.404 138.181C308.23 138.051 305.03 135.056 305.03 135.056C305.084 132.474 305.832 130.63 307.156 129.838ZM329.94 106.826C330.786 111.589 334.214 116.895 337.621 118.685C339.975 119.911 341.7 119.151 342.275 116.981C342.528 115.765 342.528 114.509 342.275 113.293C341.44 108.53 337.99 103.224 334.583 101.445C334.268 101.274 333.937 101.132 333.596 101.022C330.808 100.176 329.234 102.552 329.961 106.826H329.94Z" fill="#7209B7" fill-opacity="0.5"/>
<path d="M389.806 185.007L309.434 138.81L308.349 138.192C308.154 138.073 304.975 135.056 304.975 135.056L385.26 181.405C385.26 181.405 390.121 185.18 389.806 185.007Z" fill="#7209B7" fill-opacity="0.5"/>
<path opacity="0.3" d="M389.806 185.007L309.434 138.81L308.349 138.192C308.154 138.073 304.975 135.056 304.975 135.056L385.26 181.405C385.26 181.405 390.121 185.18 389.806 185.007Z" fill="black"/>
<path d="M333.574 101.022C333.916 101.132 334.246 101.274 334.561 101.445C337.968 103.225 341.418 108.53 342.254 113.293C342.506 114.509 342.506 115.765 342.254 116.981C341.679 119.151 339.954 119.911 337.599 118.685C334.193 116.895 330.764 111.589 329.918 106.826C329.234 102.552 330.808 100.176 333.574 101.022ZM342.037 116.895C342.277 115.721 342.277 114.51 342.037 113.336C341.201 108.627 337.805 103.387 334.442 101.641C334.162 101.493 333.872 101.366 333.574 101.261C333.352 102.407 333.352 103.586 333.574 104.733C334.41 109.495 337.849 114.801 341.266 116.591C341.515 116.722 341.772 116.834 342.037 116.927V116.895Z" fill="#7209B7" fill-opacity="0.5"/>
<path opacity="0.4" d="M333.574 101.022C333.916 101.132 334.246 101.274 334.561 101.445C337.968 103.225 341.418 108.53 342.254 113.293C342.506 114.509 342.506 115.765 342.254 116.981C341.679 119.151 339.954 119.911 337.599 118.685C334.193 116.895 330.764 111.589 329.918 106.826C329.234 102.552 330.808 100.176 333.574 101.022ZM342.037 116.895C342.277 115.721 342.277 114.51 342.037 113.336C341.201 108.627 337.805 103.387 334.442 101.641C334.162 101.493 333.872 101.366 333.574 101.261C333.352 102.407 333.352 103.586 333.574 104.733C334.41 109.495 337.849 114.801 341.266 116.591C341.515 116.722 341.772 116.834 342.037 116.927V116.895Z" fill="black"/>
<path d="M396.858 246.305C397.03 246.306 397.198 246.261 397.347 246.175C397.525 246.06 397.668 245.898 397.76 245.706C397.852 245.515 397.889 245.301 397.867 245.09V240.457C397.851 240.041 397.734 239.635 397.526 239.274C397.318 238.913 397.026 238.608 396.674 238.385L392.627 236.053C392.459 235.942 392.264 235.879 392.063 235.873C391.862 235.867 391.663 235.916 391.489 236.017C391.314 236.117 391.171 236.264 391.075 236.44C390.979 236.617 390.934 236.817 390.946 237.018V241.694C390.96 242.111 391.076 242.518 391.284 242.879C391.492 243.24 391.786 243.545 392.139 243.766L396.186 246.11C396.389 246.233 396.621 246.3 396.858 246.305ZM391.955 236.823C392.019 236.841 392.081 236.866 392.139 236.899L396.186 239.231C396.389 239.368 396.558 239.55 396.681 239.763C396.803 239.975 396.875 240.213 396.891 240.457V245.133C396.909 245.197 396.909 245.265 396.891 245.329C396.826 245.318 396.764 245.296 396.707 245.264L392.66 242.92C392.456 242.783 392.287 242.601 392.165 242.389C392.043 242.176 391.971 241.939 391.955 241.694V237.018C391.949 236.971 391.949 236.924 391.955 236.877V236.823Z" fill="#455A64"/>
<path d="M387.506 235.38L371.558 226.169C371.026 225.865 370.603 226.104 370.603 226.711V227.959C370.622 228.288 370.718 228.608 370.884 228.893C371.05 229.177 371.281 229.419 371.558 229.597L387.506 238.808C388.027 239.112 388.461 238.874 388.461 238.266V237.018C388.442 236.689 388.346 236.37 388.18 236.085C388.014 235.8 387.783 235.559 387.506 235.38Z" fill="#E0E0E0"/>
<path d="M357.334 223.489C357.506 223.491 357.674 223.446 357.822 223.359C358.003 223.245 358.148 223.084 358.242 222.892C358.336 222.7 358.375 222.486 358.354 222.274V217.598C358.336 217.181 358.217 216.775 358.007 216.414C357.797 216.053 357.503 215.748 357.15 215.526L353.103 213.193C352.935 213.073 352.737 213.003 352.532 212.992C352.326 212.98 352.122 213.028 351.942 213.128C351.767 213.233 351.625 213.386 351.533 213.568C351.441 213.751 351.402 213.955 351.421 214.159V218.835C351.436 219.251 351.552 219.658 351.76 220.019C351.968 220.381 352.261 220.685 352.615 220.907L356.661 223.25C356.86 223.389 357.093 223.471 357.334 223.489ZM352.441 214.007C352.5 214.028 352.558 214.054 352.615 214.083L356.661 216.415C356.866 216.552 357.037 216.733 357.161 216.946C357.285 217.158 357.359 217.396 357.377 217.641V222.317C357.399 222.381 357.399 222.449 357.377 222.513C357.313 222.5 357.251 222.478 357.193 222.448L353.146 220.104C352.942 219.968 352.772 219.787 352.649 219.574C352.527 219.361 352.456 219.123 352.441 218.878V214.202C352.422 214.138 352.422 214.07 352.441 214.007Z" fill="#455A64"/>
<path d="M347.982 212.564L332.033 203.353C331.502 203.049 331.079 203.288 331.079 203.895V205.143C331.098 205.472 331.194 205.792 331.36 206.076C331.526 206.361 331.756 206.603 332.033 206.781L347.982 215.992C348.513 216.296 348.937 216.057 348.937 215.45V214.202C348.912 213.875 348.813 213.557 348.648 213.273C348.482 212.989 348.255 212.747 347.982 212.564Z" fill="#E0E0E0"/>
<path d="M317.821 200.673C317.992 200.674 318.161 200.629 318.309 200.543C318.486 200.426 318.628 200.264 318.72 200.073C318.811 199.882 318.849 199.669 318.83 199.458V194.782C318.813 194.366 318.695 193.96 318.488 193.599C318.28 193.239 317.988 192.933 317.637 192.71L313.59 190.377C313.421 190.262 313.224 190.198 313.02 190.19C312.816 190.182 312.614 190.232 312.437 190.334C312.26 190.436 312.116 190.586 312.021 190.766C311.925 190.947 311.882 191.15 311.897 191.354V196.019C311.914 196.436 312.032 196.843 312.242 197.205C312.452 197.566 312.747 197.87 313.102 198.091L317.148 200.435C317.347 200.574 317.579 200.656 317.821 200.673ZM317.148 193.6C317.35 193.738 317.518 193.92 317.64 194.132C317.762 194.345 317.835 194.581 317.854 194.825V199.502C317.875 199.565 317.875 199.634 317.854 199.697C317.791 199.69 317.732 199.667 317.68 199.632L313.633 197.288C313.428 197.152 313.257 196.971 313.133 196.758C313.009 196.546 312.935 196.308 312.917 196.062V191.397C312.897 191.33 312.897 191.258 312.917 191.191C312.917 191.191 312.982 191.191 313.102 191.267L317.148 193.6Z" fill="#455A64"/>
<path d="M308.458 189.748L292.509 180.537C291.989 180.233 291.555 180.472 291.555 181.079V182.327C291.579 182.654 291.678 182.972 291.844 183.256C292.009 183.54 292.237 183.782 292.509 183.965L308.458 193.176C308.989 193.48 309.413 193.241 309.413 192.634V191.386C309.394 191.057 309.297 190.737 309.131 190.453C308.965 190.168 308.735 189.926 308.458 189.748Z" fill="#E0E0E0"/>
<path d="M387.463 212.553V214.376C387.463 215.374 386.769 215.775 385.911 215.276L292.607 161.453C292.155 161.156 291.779 160.756 291.509 160.287C291.24 159.818 291.084 159.292 291.056 158.751V156.918C291.056 155.93 291.75 155.529 292.607 156.017L385.911 209.852C386.364 210.149 386.74 210.548 387.009 211.017C387.279 211.487 387.434 212.013 387.463 212.553Z" fill="#E0E0E0"/>
<path d="M394.569 198.319V200.142C394.569 201.14 393.874 201.541 393.007 201.042L299.757 147.219C299.301 146.924 298.922 146.526 298.65 146.056C298.379 145.586 298.222 145.059 298.194 144.517V142.684C298.194 141.696 298.889 141.295 299.757 141.783L393.007 195.65C393.458 195.941 393.834 196.335 394.106 196.798C394.377 197.262 394.536 197.783 394.569 198.319Z" fill="#455A64"/>
<path d="M387.463 223.587V225.42C387.463 226.408 386.769 226.809 385.911 226.321L292.607 172.497C292.155 172.2 291.779 171.801 291.509 171.332C291.24 170.863 291.084 170.336 291.056 169.796V167.962C291.056 166.975 291.75 166.574 292.607 167.062L385.911 220.896C386.362 221.192 386.738 221.59 387.007 222.057C387.277 222.524 387.433 223.048 387.463 223.587Z" fill="#E0E0E0"/>
<path d="M397.683 224.53C395.242 222.111 394.634 221.08 394.634 220.191C394.634 219.301 394.992 218.824 396.088 219.453C396.562 219.728 396.97 220.104 397.283 220.554C397.596 221.004 397.806 221.517 397.9 222.057L400.569 222.654C400.336 221.255 399.809 219.923 399.021 218.744C398.234 217.565 397.204 216.568 396.001 215.818C393.332 214.278 391.781 215.428 391.781 217.988C391.93 220.481 393.015 222.825 394.819 224.552V226.668L397.683 228.317V224.53Z" fill="#455A64"/>
<path d="M397.715 231.561C397.72 231.04 397.588 230.526 397.333 230.072C397.078 229.617 396.709 229.236 396.261 228.968C395.307 228.415 394.818 228.903 394.818 229.89C394.81 230.414 394.939 230.931 395.192 231.39C395.445 231.848 395.814 232.233 396.261 232.505C397.227 233.058 397.715 232.538 397.715 231.561Z" fill="#455A64"/>
<path d="M396.229 240.457L395.036 241.358L396.121 243.419C396.214 243.545 396.264 243.697 396.264 243.853C396.264 244.01 396.214 244.162 396.121 244.287C395.914 244.439 395.622 244.287 395.448 243.962L394.363 241.911L393.17 242.812C392.996 242.942 392.736 242.812 392.584 242.53C392.504 242.421 392.46 242.29 392.46 242.155C392.46 242.021 392.504 241.889 392.584 241.781L393.777 240.881L392.692 238.819C392.599 238.694 392.548 238.542 392.548 238.385C392.548 238.229 392.599 238.077 392.692 237.951C392.898 237.799 393.191 237.951 393.365 238.277L394.45 240.338L395.643 239.438C395.817 239.307 396.077 239.438 396.229 239.709C396.309 239.817 396.353 239.948 396.353 240.083C396.353 240.218 396.309 240.349 396.229 240.457Z" fill="#7209B7" fill-opacity="0.5"/>
<path d="M396.858 287.5C397.029 287.505 397.197 287.464 397.347 287.381C397.525 287.266 397.668 287.104 397.76 286.912C397.852 286.721 397.889 286.507 397.867 286.296V281.62C397.853 281.203 397.737 280.797 397.529 280.435C397.321 280.074 397.027 279.769 396.674 279.548L392.627 277.215C392.459 277.104 392.264 277.042 392.063 277.036C391.862 277.029 391.663 277.079 391.489 277.179C391.314 277.279 391.171 277.426 391.075 277.603C390.979 277.78 390.934 277.98 390.946 278.181V282.857C390.96 283.273 391.076 283.68 391.284 284.041C391.492 284.403 391.786 284.707 392.139 284.929L396.186 287.262C396.385 287.4 396.617 287.482 396.858 287.5ZM391.955 278.029C392.021 278.041 392.084 278.067 392.139 278.105L396.186 280.437C396.389 280.574 396.558 280.756 396.681 280.969C396.803 281.181 396.875 281.419 396.891 281.663V286.339C396.909 286.403 396.909 286.471 396.891 286.535C396.826 286.524 396.764 286.502 396.707 286.47L392.66 284.126C392.456 283.989 392.287 283.807 392.165 283.595C392.043 283.382 391.971 283.145 391.955 282.9V278.224C391.944 278.159 391.944 278.093 391.955 278.029Z" fill="#455A64"/>
<path d="M387.506 276.575L371.558 267.375C371.026 267.071 370.603 267.31 370.603 267.917V269.154C370.62 269.485 370.716 269.807 370.882 270.093C371.048 270.38 371.279 270.623 371.558 270.803L387.506 280.014C388.027 280.318 388.461 280.068 388.461 279.461V278.224C388.443 277.893 388.347 277.572 388.181 277.285C388.015 276.999 387.784 276.755 387.506 276.575Z" fill="#E0E0E0"/>
<path d="M357.334 264.684C357.505 264.69 357.674 264.648 357.822 264.565C358.003 264.451 358.148 264.289 358.242 264.098C358.336 263.906 358.375 263.692 358.354 263.48V258.804C358.337 258.386 358.219 257.979 358.009 257.618C357.799 257.257 357.504 256.952 357.15 256.732L353.103 254.399C352.935 254.279 352.737 254.209 352.532 254.198C352.326 254.186 352.122 254.233 351.942 254.334C351.767 254.439 351.625 254.592 351.533 254.774C351.441 254.956 351.402 255.161 351.421 255.365V260.041C351.436 260.457 351.552 260.864 351.76 261.225C351.968 261.587 352.261 261.891 352.615 262.113L356.661 264.445C356.86 264.584 357.093 264.666 357.334 264.684ZM352.441 255.213C352.503 255.228 352.561 255.254 352.615 255.289L356.661 257.621C356.866 257.758 357.037 257.939 357.161 258.151C357.285 258.364 357.359 258.602 357.377 258.847V263.523C357.399 263.587 357.399 263.655 357.377 263.718C357.313 263.706 357.251 263.684 357.193 263.653L353.146 261.31C352.943 261.173 352.774 260.991 352.651 260.779C352.529 260.566 352.457 260.329 352.441 260.084V255.408C352.422 255.344 352.422 255.276 352.441 255.213Z" fill="#455A64"/>
<path d="M347.982 253.759L332.033 244.558C331.502 244.255 331.079 244.493 331.079 245.101V246.338C331.096 246.669 331.191 246.991 331.357 247.277C331.523 247.564 331.755 247.807 332.033 247.987L347.982 257.198C348.513 257.502 348.937 257.198 348.937 256.645V255.408C348.913 255.078 348.815 254.759 348.65 254.473C348.484 254.187 348.256 253.943 347.982 253.759Z" fill="#E0E0E0"/>
<path d="M317.821 241.868C317.992 241.873 318.16 241.832 318.309 241.749C318.486 241.632 318.628 241.469 318.72 241.278C318.811 241.087 318.849 240.875 318.83 240.664V235.988C318.813 235.572 318.695 235.166 318.488 234.805C318.28 234.444 317.988 234.139 317.637 233.916L313.59 231.583C313.422 231.469 313.225 231.404 313.023 231.396C312.82 231.388 312.619 231.437 312.442 231.538C312.266 231.639 312.122 231.787 312.025 231.965C311.929 232.144 311.885 232.346 311.897 232.549V237.225C311.914 237.642 312.032 238.049 312.242 238.41C312.452 238.772 312.747 239.076 313.102 239.297L317.148 241.63C317.347 241.769 317.579 241.851 317.821 241.868ZM317.148 234.805C317.35 234.944 317.518 235.126 317.64 235.338C317.762 235.55 317.835 235.787 317.854 236.031V240.707C317.875 240.771 317.875 240.839 317.854 240.903C317.793 240.889 317.735 240.867 317.68 240.837L313.633 238.494C313.428 238.358 313.257 238.176 313.133 237.964C313.009 237.751 312.935 237.513 312.917 237.268V232.592C312.898 232.528 312.898 232.46 312.917 232.397C312.982 232.413 313.044 232.438 313.102 232.473L317.148 234.805Z" fill="#455A64"/>
<path d="M308.458 230.943L292.509 221.743C291.989 221.439 291.555 221.677 291.555 222.285V223.522C291.578 223.851 291.676 224.171 291.841 224.457C292.007 224.743 292.235 224.987 292.509 225.171L308.458 234.382C308.989 234.686 309.413 234.436 309.413 233.829V232.592C309.395 232.261 309.3 231.939 309.134 231.652C308.968 231.366 308.736 231.123 308.458 230.943Z" fill="#E0E0E0"/>
<path d="M387.463 253.748V255.581C387.463 256.569 386.769 256.97 385.911 256.482L292.607 202.658C292.155 202.361 291.779 201.962 291.509 201.493C291.24 201.023 291.084 200.497 291.056 199.957V198.123C291.056 197.136 291.75 196.735 292.607 197.223L385.911 251.057C386.362 251.353 386.738 251.751 387.007 252.218C387.277 252.685 387.433 253.209 387.463 253.748Z" fill="#E0E0E0"/>
<path d="M387.463 264.793V266.626C387.463 267.613 386.769 268.015 385.911 267.527L292.607 213.692C292.154 213.399 291.777 213.002 291.507 212.534C291.237 212.066 291.083 211.541 291.056 211.002V209.168C291.056 208.17 291.75 207.769 292.607 208.268L385.911 262.102C386.362 262.398 386.738 262.796 387.007 263.263C387.277 263.73 387.433 264.254 387.463 264.793Z" fill="#E0E0E0"/>
<path d="M397.683 265.736C395.242 263.317 394.634 262.286 394.634 261.397C394.634 260.507 394.992 260.03 396.088 260.659C396.562 260.934 396.97 261.31 397.283 261.76C397.596 262.21 397.806 262.723 397.9 263.263L400.569 263.859C400.336 262.461 399.809 261.128 399.021 259.95C398.234 258.771 397.204 257.774 396.001 257.024C393.332 255.484 391.781 256.634 391.781 259.249C391.93 261.741 393.015 264.086 394.819 265.812V267.928L397.683 269.577V265.736Z" fill="#455A64"/>
<path d="M397.715 272.767C397.72 272.246 397.588 271.732 397.333 271.277C397.078 270.823 396.709 270.442 396.261 270.174C395.307 269.621 394.818 270.109 394.818 271.096C394.811 271.62 394.941 272.136 395.194 272.595C395.447 273.053 395.815 273.438 396.261 273.711C397.227 274.264 397.715 273.765 397.715 272.767Z" fill="#455A64"/>
<path d="M356.705 258.804L355.512 259.704L356.597 261.766C356.69 261.891 356.74 262.043 356.74 262.199C356.74 262.356 356.69 262.508 356.597 262.633C356.401 262.785 356.097 262.633 355.924 262.308L354.839 260.257L353.646 261.158C353.472 261.288 353.212 261.158 353.071 260.876C352.99 260.768 352.947 260.636 352.947 260.502C352.947 260.367 352.99 260.236 353.071 260.127L354.264 259.227L353.179 257.165C353.092 257.035 353.049 256.879 353.059 256.722C353.069 256.565 353.13 256.416 353.233 256.297C353.429 256.156 353.732 256.297 353.906 256.623L354.991 258.684L356.184 257.784C356.347 257.654 356.607 257.784 356.759 258.055C356.834 258.168 356.869 258.303 356.859 258.439C356.849 258.574 356.795 258.702 356.705 258.804Z" fill="#7209B7" fill-opacity="0.5"/>
<path d="M396.858 328.706C397.03 328.707 397.198 328.662 397.347 328.576C397.522 328.47 397.663 328.318 397.755 328.135C397.848 327.953 397.886 327.748 397.867 327.545V322.869C397.853 322.452 397.737 322.046 397.529 321.684C397.321 321.323 397.027 321.018 396.674 320.797L392.627 318.464C392.459 318.353 392.264 318.291 392.063 318.285C391.862 318.278 391.663 318.328 391.488 318.428C391.314 318.528 391.171 318.675 391.075 318.852C390.979 319.029 390.934 319.229 390.945 319.43V324.106C390.96 324.522 391.076 324.929 391.284 325.29C391.492 325.652 391.786 325.956 392.139 326.178L396.186 328.511C396.389 328.633 396.621 328.701 396.858 328.706ZM391.954 319.234C392.021 319.246 392.083 319.272 392.139 319.31L396.186 321.643C396.389 321.78 396.558 321.962 396.681 322.174C396.803 322.387 396.875 322.624 396.891 322.869V327.545C396.907 327.609 396.907 327.676 396.891 327.74C396.825 327.728 396.762 327.702 396.706 327.664L392.66 325.332C392.456 325.195 392.287 325.013 392.165 324.801C392.043 324.588 391.971 324.35 391.954 324.106V319.43C391.944 319.365 391.944 319.299 391.954 319.234Z" fill="#455A64"/>
<path d="M387.506 317.781L371.558 308.57C371.026 308.266 370.603 308.515 370.603 309.123V310.36C370.62 310.691 370.716 311.013 370.882 311.299C371.048 311.586 371.279 311.829 371.558 312.009L387.506 321.22C388.027 321.524 388.461 321.274 388.461 320.667V319.43C388.443 319.099 388.347 318.778 388.181 318.491C388.015 318.204 387.784 317.961 387.506 317.781Z" fill="#E0E0E0"/>
<path d="M357.334 305.89C357.505 305.892 357.674 305.847 357.822 305.76C357.999 305.656 358.143 305.504 358.237 305.321C358.331 305.139 358.372 304.933 358.354 304.729V300.053C358.337 299.635 358.219 299.228 358.009 298.867C357.799 298.506 357.504 298.202 357.149 297.981L353.103 295.648C352.933 295.533 352.737 295.466 352.533 295.452C352.328 295.439 352.125 295.48 351.942 295.572C351.765 295.689 351.623 295.851 351.531 296.043C351.44 296.234 351.402 296.446 351.421 296.657V301.333C351.435 301.75 351.552 302.156 351.76 302.518C351.968 302.879 352.261 303.184 352.614 303.405L356.661 305.738C356.869 305.846 357.1 305.898 357.334 305.89ZM352.441 296.418C352.503 296.434 352.561 296.459 352.614 296.494L356.661 298.827C356.866 298.963 357.037 299.145 357.161 299.357C357.285 299.569 357.359 299.807 357.377 300.053V304.729C357.397 304.793 357.397 304.861 357.377 304.924C357.312 304.91 357.249 304.884 357.193 304.848L353.103 302.516C352.899 302.379 352.73 302.197 352.608 301.984C352.486 301.772 352.414 301.534 352.397 301.29V296.614C352.389 296.545 352.405 296.477 352.441 296.418Z" fill="#455A64"/>
<path d="M347.982 294.965L332.033 285.754C331.502 285.461 331.079 285.699 331.079 286.307V287.544C331.096 287.875 331.191 288.197 331.357 288.483C331.523 288.77 331.755 289.013 332.033 289.193L347.982 298.404C348.513 298.708 348.937 298.458 348.937 297.851V296.614C348.913 296.284 348.815 295.965 348.65 295.679C348.484 295.393 348.256 295.149 347.982 294.965Z" fill="#E0E0E0"/>
<path d="M317.821 283.074C317.993 283.075 318.161 283.03 318.309 282.944C318.484 282.838 318.626 282.686 318.718 282.503C318.811 282.321 318.849 282.116 318.83 281.913V277.237C318.816 276.82 318.7 276.413 318.492 276.052C318.283 275.691 317.99 275.386 317.637 275.165L313.59 272.832C313.424 272.714 313.229 272.644 313.026 272.632C312.822 272.62 312.62 272.665 312.441 272.762C312.262 272.859 312.114 273.005 312.014 273.182C311.914 273.36 311.866 273.562 311.876 273.765V278.441C311.892 278.859 312.011 279.266 312.221 279.627C312.43 279.988 312.726 280.292 313.08 280.513L317.127 282.846C317.333 282.985 317.573 283.064 317.821 283.074ZM317.149 276.011C317.35 276.15 317.518 276.332 317.64 276.544C317.762 276.756 317.835 276.993 317.854 277.237V281.913C317.873 281.977 317.873 282.045 317.854 282.108C317.792 282.093 317.733 282.067 317.68 282.032L313.633 279.7C313.429 279.563 313.258 279.382 313.134 279.17C313.009 278.957 312.936 278.719 312.917 278.474V273.765C312.898 273.701 312.898 273.633 312.917 273.57C312.981 273.584 313.043 273.606 313.102 273.635L317.149 276.011Z" fill="#455A64"/>
<path d="M308.458 272.148L292.509 262.937C291.989 262.644 291.555 262.937 291.555 263.491V264.727C291.578 265.057 291.676 265.377 291.841 265.662C292.007 265.948 292.235 266.192 292.509 266.377L308.458 275.588C308.989 275.891 309.413 275.642 309.413 275.034V273.765C309.39 273.44 309.292 273.124 309.127 272.844C308.961 272.563 308.732 272.325 308.458 272.148Z" fill="#E0E0E0"/>
<path d="M387.463 294.954V296.787C387.463 297.775 386.769 298.176 385.911 297.688L292.607 243.853C292.154 243.56 291.777 243.163 291.507 242.695C291.237 242.227 291.083 241.702 291.056 241.163V239.329C291.056 238.342 291.75 237.93 292.607 238.429L385.911 292.263C386.362 292.559 386.738 292.957 387.007 293.424C387.277 293.891 387.433 294.415 387.463 294.954Z" fill="#E0E0E0"/>
<path d="M387.463 305.998V307.832C387.463 308.819 386.769 309.22 385.911 308.721L292.607 254.898C292.155 254.603 291.779 254.206 291.509 253.738C291.24 253.271 291.084 252.746 291.056 252.207V250.374C291.056 249.376 291.75 248.974 292.607 249.473L385.911 303.308C386.364 303.602 386.74 304 387.009 304.467C387.279 304.935 387.434 305.459 387.463 305.998Z" fill="#E0E0E0"/>
<path d="M397.683 306.942C395.242 304.523 394.634 303.492 394.634 302.602C394.634 301.713 394.992 301.225 396.088 301.865C396.562 302.14 396.97 302.516 397.283 302.966C397.596 303.416 397.806 303.929 397.9 304.468L400.569 305.054C400.335 303.658 399.807 302.327 399.019 301.151C398.232 299.974 397.203 298.979 396.001 298.23C393.332 296.69 391.781 297.84 391.781 300.4C391.93 302.893 393.015 305.237 394.819 306.964V309.079L397.683 310.729V306.942Z" fill="#455A64"/>
<path d="M397.715 313.973C397.72 313.45 397.589 312.934 397.334 312.478C397.079 312.021 396.709 311.639 396.261 311.369C395.307 310.826 394.818 311.315 394.818 312.302C394.812 312.825 394.942 313.341 395.195 313.8C395.448 314.258 395.815 314.643 396.261 314.916C397.227 315.47 397.715 314.992 397.715 313.973Z" fill="#455A64"/>
<path d="M317.181 277.193L315.998 278.094L317.083 280.155C317.178 280.28 317.23 280.432 317.23 280.589C317.23 280.746 317.178 280.898 317.083 281.023C316.888 281.175 316.584 281.023 316.41 280.698L315.325 278.636L314.132 279.537C313.958 279.667 313.709 279.537 313.557 279.266C313.475 279.158 313.431 279.026 313.431 278.891C313.431 278.756 313.475 278.625 313.557 278.517L314.75 277.616L313.665 275.555C313.583 275.423 313.544 275.268 313.554 275.112C313.563 274.957 313.621 274.808 313.72 274.687C313.915 274.535 314.219 274.687 314.392 275.013L315.477 277.074L316.671 276.163C316.844 276.032 317.105 276.163 317.246 276.445C317.319 276.559 317.352 276.695 317.34 276.83C317.328 276.965 317.272 277.093 317.181 277.193Z" fill="#7209B7" fill-opacity="0.5"/>
<path d="M396.858 369.912C397.03 369.912 397.198 369.867 397.347 369.782C397.522 369.676 397.663 369.524 397.755 369.341C397.848 369.159 397.886 368.954 397.867 368.751V364.075C397.853 363.658 397.737 363.251 397.529 362.89C397.321 362.529 397.027 362.224 396.674 362.003L392.627 359.659C392.456 359.549 392.259 359.485 392.055 359.474C391.852 359.463 391.649 359.504 391.466 359.594C391.288 359.709 391.145 359.871 391.053 360.063C390.961 360.254 390.924 360.468 390.945 360.679V365.355C390.963 365.771 391.08 366.177 391.288 366.538C391.496 366.898 391.788 367.204 392.139 367.427L396.186 369.76C396.393 369.868 396.625 369.92 396.858 369.912ZM391.954 360.44C392.019 360.451 392.082 360.473 392.139 360.505L396.186 362.849C396.389 362.986 396.558 363.167 396.681 363.38C396.803 363.592 396.875 363.83 396.891 364.075V368.751C396.907 368.815 396.907 368.882 396.891 368.946C396.827 368.928 396.765 368.903 396.706 368.87L392.66 366.538C392.456 366.401 392.287 366.219 392.165 366.006C392.043 365.794 391.971 365.556 391.954 365.312V360.636C391.943 360.571 391.943 360.505 391.954 360.44Z" fill="#455A64"/>
<path d="M387.506 358.986L371.558 349.775C371.026 349.471 370.603 349.721 370.603 350.329V351.565C370.62 351.896 370.716 352.218 370.882 352.505C371.048 352.791 371.279 353.035 371.558 353.214L387.506 362.426C388.027 362.729 388.461 362.426 388.461 361.872V360.635C388.443 360.305 388.347 359.983 388.181 359.697C388.015 359.41 387.784 359.167 387.506 358.986Z" fill="#E0E0E0"/>
<path d="M357.334 347.095C357.506 347.097 357.674 347.052 357.822 346.965C358.008 346.857 358.158 346.697 358.253 346.504C358.348 346.31 358.383 346.093 358.354 345.88V341.204C358.337 340.787 358.219 340.38 358.009 340.019C357.799 339.657 357.504 339.353 357.15 339.132L353.103 336.789C352.934 336.677 352.738 336.615 352.536 336.609C352.334 336.603 352.134 336.653 351.959 336.755C351.784 336.856 351.641 337.005 351.546 337.183C351.451 337.362 351.408 337.563 351.421 337.765V342.441C351.436 342.858 351.552 343.265 351.76 343.626C351.968 343.987 352.261 344.292 352.615 344.513L356.661 346.846C356.859 346.988 357.092 347.074 357.334 347.095ZM352.441 337.624C352.502 337.638 352.56 337.66 352.615 337.689L356.661 340.033C356.866 340.169 357.037 340.35 357.161 340.563C357.285 340.775 357.359 341.013 357.377 341.258V345.935C357.397 345.998 357.397 346.066 357.377 346.13C357.314 346.11 357.252 346.084 357.193 346.054L353.146 343.721C352.943 343.584 352.774 343.403 352.651 343.19C352.529 342.978 352.457 342.74 352.441 342.495V337.776C352.428 337.726 352.428 337.674 352.441 337.624Z" fill="#455A64"/>
<path d="M347.982 336.17L332.033 326.959C331.502 326.655 331.079 326.959 331.079 327.512V328.749C331.096 329.08 331.191 329.402 331.357 329.689C331.523 329.975 331.755 330.219 332.033 330.398L347.982 339.609C348.513 339.913 348.937 339.664 348.937 339.056V337.776C348.907 337.454 348.806 337.143 348.641 336.865C348.476 336.587 348.25 336.35 347.982 336.17Z" fill="#E0E0E0"/>
<path d="M317.821 324.279C317.993 324.28 318.161 324.235 318.309 324.149C318.484 324.044 318.626 323.891 318.718 323.709C318.811 323.526 318.849 323.322 318.83 323.118V318.442C318.816 318.026 318.7 317.619 318.492 317.258C318.283 316.896 317.99 316.592 317.637 316.37L313.59 314.027C313.416 313.917 313.218 313.853 313.013 313.842C312.808 313.83 312.603 313.872 312.418 313.962C312.241 314.078 312.1 314.241 312.008 314.432C311.916 314.623 311.878 314.835 311.898 315.046V319.723C311.916 320.14 312.035 320.546 312.245 320.907C312.454 321.268 312.749 321.572 313.102 321.795L317.149 324.127C317.356 324.236 317.588 324.288 317.821 324.279ZM317.149 317.216C317.35 317.355 317.518 317.537 317.64 317.749C317.762 317.961 317.835 318.198 317.854 318.442V323.118C317.873 323.182 317.873 323.25 317.854 323.314C317.794 323.292 317.736 323.267 317.68 323.238L313.633 320.905C313.429 320.769 313.258 320.587 313.134 320.375C313.009 320.162 312.936 319.925 312.917 319.679V314.992C312.896 314.929 312.896 314.86 312.917 314.797C312.981 314.811 313.043 314.833 313.102 314.862L317.149 317.216Z" fill="#455A64"/>
<path d="M308.458 313.354L292.509 304.143C291.989 303.839 291.555 304.089 291.555 304.696V305.933C291.578 306.263 291.676 306.582 291.841 306.868C292.007 307.154 292.235 307.398 292.509 307.582L308.458 316.793C308.989 317.097 309.413 316.793 309.413 316.24V314.992C309.394 314.664 309.297 314.344 309.131 314.059C308.965 313.774 308.735 313.533 308.458 313.354Z" fill="#E0E0E0"/>
<path d="M387.463 336.159V337.993C387.463 338.98 386.769 339.382 385.911 338.882L292.607 285.059C292.155 284.764 291.779 284.367 291.509 283.899C291.24 283.432 291.084 282.907 291.056 282.368V280.535C291.056 279.537 291.75 279.135 292.607 279.634L385.911 333.469C386.364 333.763 386.74 334.161 387.009 334.628C387.279 335.096 387.434 335.62 387.463 336.159Z" fill="#E0E0E0"/>
<path d="M387.463 347.204V349.037C387.463 350.025 386.769 350.426 385.911 349.927L292.607 296.103C292.156 295.807 291.781 295.41 291.512 294.943C291.242 294.475 291.086 293.951 291.056 293.413V291.579C291.056 290.581 291.75 290.18 292.607 290.679L385.911 344.513C386.364 344.808 386.74 345.205 387.009 345.673C387.279 346.14 387.434 346.665 387.463 347.204Z" fill="#E0E0E0"/>
<path d="M397.683 348.148C395.242 345.729 394.634 344.698 394.634 343.808C394.634 342.919 394.992 342.43 396.088 343.071C396.561 343.345 396.968 343.719 397.28 344.167C397.593 344.615 397.805 345.126 397.9 345.664L400.569 346.26C400.335 344.864 399.807 343.533 399.019 342.357C398.232 341.18 397.203 340.185 396.001 339.436C393.332 337.895 391.781 339.045 391.781 341.66C391.93 344.153 393.015 346.497 394.819 348.224V350.34L397.683 351.989V348.148Z" fill="#455A64"/>
<path d="M397.715 355.135C397.72 354.612 397.589 354.097 397.334 353.64C397.079 353.183 396.709 352.801 396.261 352.531C395.307 351.989 394.818 352.466 394.818 353.464C394.811 353.986 394.94 354.501 395.193 354.958C395.447 355.415 395.815 355.797 396.261 356.068C397.227 356.675 397.715 356.22 397.715 355.135Z" fill="#455A64"/>
<path d="M317.181 318.573L315.998 319.473L317.083 321.535C317.178 321.659 317.23 321.812 317.23 321.969C317.23 322.125 317.178 322.278 317.083 322.402C316.888 322.554 316.584 322.403 316.41 322.077L315.325 320.016L314.132 320.927C313.958 321.057 313.709 320.927 313.557 320.645C313.475 320.537 313.431 320.406 313.431 320.271C313.431 320.135 313.475 320.004 313.557 319.896L314.75 318.996L313.665 316.934C313.583 316.802 313.544 316.647 313.554 316.492C313.563 316.336 313.621 316.188 313.72 316.066C313.915 315.915 314.219 316.067 314.392 316.392L315.477 318.453L316.671 317.542C316.844 317.423 317.105 317.542 317.246 317.824C317.319 317.939 317.352 318.074 317.34 318.209C317.328 318.345 317.272 318.472 317.181 318.573Z" fill="#7209B7" fill-opacity="0.5"/>
<path d="M74.5467 169.069C75.55 168.585 76.6531 168.343 77.7669 168.364C78.8807 168.385 79.974 168.667 80.9587 169.188L179.839 226.277C180.793 226.91 181.584 227.758 182.15 228.753C182.715 229.749 183.039 230.863 183.094 232.006V260.214C183.137 261.342 182.871 262.461 182.326 263.449C181.78 264.438 180.975 265.259 179.997 265.823C179.019 266.388 177.906 266.676 176.777 266.654C175.648 266.633 174.546 266.305 173.59 265.704L74.7094 208.615C73.7559 207.982 72.9646 207.133 72.3992 206.138C71.8338 205.143 71.5103 204.029 71.4546 202.886V174.678C71.4942 173.566 71.7946 172.479 72.3318 171.505C72.8689 170.53 73.6276 169.696 74.5467 169.069Z" fill="#263238"/>
<path d="M71.4866 174.081C71.7578 172.41 73.114 171.824 74.7414 172.779L115.969 196.572L173.622 229.857C174.601 230.465 175.407 231.313 175.966 232.32L182.171 228.74C181.614 227.732 180.812 226.882 179.839 226.266L80.9581 169.188C80.0475 168.61 79.0015 168.281 77.9243 168.234C76.8471 168.186 75.7762 168.422 74.8182 168.916C73.8602 169.411 73.0485 170.149 72.464 171.055C71.8795 171.961 71.5425 173.004 71.4866 174.081Z" fill="#455A64"/>
<path d="M176.943 235.586V263.794C176.943 265.899 175.456 266.756 173.634 265.704L74.7531 208.615C73.7996 207.982 73.0082 207.134 72.4429 206.138C71.8775 205.143 71.5539 204.029 71.4983 202.886V174.678C71.4983 172.573 72.9738 171.716 74.7531 172.769L115.981 196.572L173.645 229.858C174.606 230.486 175.405 231.333 175.978 232.328C176.551 233.323 176.882 234.439 176.943 235.586Z" fill="#37474F"/>
<path d="M160.126 231.452L158.51 234.881C158.491 234.93 158.462 234.975 158.425 235.012C158.388 235.05 158.344 235.079 158.295 235.098C158.246 235.118 158.193 235.127 158.141 235.125C158.088 235.123 158.037 235.11 157.989 235.087L154.376 233.709C153.801 233.481 153.573 234.295 153.986 235.076L156.6 239.98C156.758 240.264 156.83 240.588 156.807 240.913L156.188 245.361C156.091 246.066 156.687 246.988 157.197 246.923L160.452 246.522C160.583 246.528 160.711 246.566 160.824 246.632C160.937 246.698 161.033 246.791 161.103 246.902L164.358 251.035C164.868 251.686 165.443 251.447 165.367 250.634L164.748 245.48C164.721 245.355 164.726 245.225 164.762 245.102C164.798 244.978 164.864 244.866 164.954 244.775L167.569 242.887C167.981 242.584 167.754 241.509 167.179 241.076L163.566 238.287C163.313 238.076 163.131 237.792 163.045 237.474L161.428 232.179C161.07 231.344 160.387 230.921 160.126 231.452Z" fill="#B4B4B4" fill-opacity="0.2"/>
<path d="M141.845 220.994L140.229 224.422C140.211 224.472 140.183 224.518 140.146 224.557C140.11 224.595 140.065 224.625 140.016 224.645C139.966 224.664 139.913 224.673 139.86 224.67C139.807 224.667 139.755 224.653 139.708 224.628L136.095 223.25C135.52 223.022 135.292 223.836 135.704 224.617L138.286 229.521C138.445 229.809 138.516 230.137 138.493 230.465L137.874 234.902C137.777 235.608 138.373 236.53 138.883 236.465L142.138 236.074C142.269 236.075 142.397 236.11 142.511 236.174C142.625 236.239 142.721 236.331 142.789 236.443L146.044 240.577C146.554 241.228 147.129 241 147.053 240.175L146.434 235.022C146.407 234.896 146.412 234.766 146.448 234.643C146.484 234.52 146.55 234.408 146.64 234.316L149.255 232.429C149.667 232.125 149.44 231.062 148.865 230.617L145.252 227.829C144.999 227.617 144.817 227.333 144.731 227.015L143.114 221.72C142.843 220.874 142.105 220.451 141.845 220.994Z" fill="#B4B4B4" fill-opacity="0.2"/>
<path d="M123.564 210.535L121.947 213.963C121.929 214.012 121.9 214.057 121.863 214.095C121.826 214.132 121.781 214.161 121.732 214.181C121.683 214.2 121.631 214.209 121.578 214.207C121.526 214.205 121.474 214.192 121.427 214.169L117.814 212.781C117.239 212.564 117.011 213.366 117.423 214.148L120.038 219.051C120.195 219.34 120.267 219.668 120.244 219.995L119.626 224.433C119.528 225.138 120.125 226.071 120.635 226.006L123.889 225.604C124.021 225.611 124.148 225.648 124.262 225.714C124.375 225.781 124.471 225.873 124.54 225.984L127.795 230.107C128.305 230.769 128.88 230.53 128.804 229.716L128.186 224.563C128.159 224.436 128.163 224.304 128.199 224.179C128.235 224.054 128.301 223.94 128.392 223.847L131.007 221.959C131.419 221.666 131.191 220.592 130.616 220.147L127.003 217.359C126.75 217.148 126.568 216.864 126.482 216.545L124.866 211.251C124.562 210.415 123.824 209.981 123.564 210.535Z" fill="#B4B4B4" fill-opacity="0.2"/>
<path d="M105.283 200.065L103.666 203.493C103.647 203.543 103.619 203.587 103.582 203.625C103.545 203.662 103.5 203.692 103.451 203.711C103.402 203.73 103.35 203.739 103.297 203.737C103.244 203.735 103.193 203.723 103.145 203.7L99.5326 202.311C98.9576 202.094 98.7297 202.897 99.142 203.678L101.757 208.582C101.914 208.87 101.985 209.198 101.963 209.526L101.344 213.963C101.247 214.668 101.843 215.601 102.353 215.536L105.608 215.135C105.739 215.141 105.867 215.179 105.98 215.245C106.094 215.311 106.189 215.403 106.259 215.514L109.514 219.637C110.024 220.299 110.599 220.06 110.523 219.247L109.905 214.093C109.877 213.968 109.882 213.838 109.918 213.714C109.954 213.591 110.02 213.479 110.111 213.388L112.725 211.5C113.138 211.196 112.91 210.122 112.335 209.677L108.722 206.9C108.473 206.685 108.293 206.402 108.201 206.086L106.585 200.792C106.281 199.989 105.543 199.523 105.283 200.065Z" fill="#B4B4B4" fill-opacity="0.2"/>
<path d="M87.0014 189.596L85.3848 193.024C85.3661 193.073 85.3373 193.118 85.3003 193.155C85.2632 193.193 85.2188 193.222 85.1698 193.242C85.1209 193.261 85.0684 193.27 85.0157 193.268C84.9631 193.266 84.9115 193.253 84.8641 193.23L81.2513 191.852C80.6762 191.624 80.4484 192.438 80.8607 193.219L83.4754 198.123C83.6329 198.408 83.7045 198.732 83.6815 199.056L83.0631 203.504C82.9655 204.21 83.5622 205.132 84.0721 205.067L87.3269 204.665C87.458 204.671 87.5856 204.709 87.699 204.775C87.8123 204.841 87.908 204.934 87.9778 205.045L91.2326 209.179C91.7426 209.83 92.3176 209.591 92.2416 208.777L91.6232 203.624C91.5961 203.498 91.6008 203.368 91.6368 203.245C91.6728 203.122 91.739 203.01 91.8293 202.918L94.4006 201.074C94.8129 200.77 94.5851 199.696 94.0101 199.262L90.3972 196.474C90.1442 196.263 89.9624 195.979 89.8765 195.66L88.2599 190.366C87.9996 189.476 87.2943 189.053 87.0014 189.596Z" fill="#B4B4B4" fill-opacity="0.2"/>
<path d="M162.85 213.41L168.274 210.286C168.382 210.238 168.473 210.158 168.535 210.058L169.533 208.322L166.278 206.467L166.376 206.749L162.85 213.41Z" fill="#7209B7" fill-opacity="0.7"/>
<path opacity="0.2" d="M162.85 213.41L168.274 210.286C168.382 210.238 168.473 210.158 168.535 210.058L169.533 208.322L166.278 206.467L166.376 206.749L162.85 213.41Z" fill="black"/>
<path d="M166.788 206.727L163.034 213.237C162.981 213.33 162.903 213.407 162.807 213.457C162.712 213.507 162.604 213.528 162.497 213.518C162.39 213.507 162.289 213.466 162.205 213.399C162.121 213.331 162.058 213.241 162.025 213.139L158.065 201.715L166.788 206.727Z" fill="#7209B7" fill-opacity="0.7"/>
<path d="M72.1052 116.016C72.1528 115.109 72.4145 114.226 72.869 113.439C73.3235 112.653 73.9577 111.985 74.7199 111.491C75.5315 111.085 76.4268 110.873 77.3346 110.873C78.2424 110.873 79.1377 111.085 79.9493 111.491L180.479 169.503C181.24 170 181.874 170.67 182.328 171.458C182.782 172.246 183.044 173.13 183.094 174.038V207.128C183.044 208.036 182.782 208.92 182.328 209.708C181.874 210.496 181.24 211.166 180.479 211.663C179.669 212.075 178.773 212.289 177.864 212.289C176.956 212.289 176.06 212.075 175.25 211.663L74.4704 153.489C72.1161 152.144 72.0944 150.799 72.0944 149.149L72.1052 116.016Z" fill="#7209B7" fill-opacity="0.7"/>
<path opacity="0.2" d="M183.138 207.118C183.088 208.026 182.826 208.909 182.372 209.697C181.918 210.485 181.284 211.155 180.523 211.653C179.787 212.028 178.98 212.242 178.155 212.281C177.33 212.32 176.507 212.184 175.738 211.88C176.964 212.347 177.908 211.642 177.908 210.145V177.043C177.878 176.134 177.613 175.248 177.138 174.472L182.378 171.445C182.844 172.228 183.105 173.116 183.138 174.027V207.118Z" fill="black"/>
<path opacity="0.4" d="M72.2248 115.278C72.5286 114.193 73.5485 113.813 74.7527 114.508L175.293 172.519C176.069 172.996 176.706 173.67 177.138 174.472L182.367 171.445C181.926 170.65 181.292 169.978 180.523 169.492L79.993 111.491C79.1828 111.08 78.287 110.865 77.3783 110.865C76.4696 110.865 75.5737 111.08 74.7636 111.491C74.1047 111.916 73.5396 112.471 73.103 113.122C72.6664 113.773 72.3675 114.507 72.2248 115.278Z" fill="white"/>
<path d="M170.834 177.629L80.5573 125.4C79.6785 124.901 78.9624 125.129 78.9624 125.921C79.0272 126.409 79.2051 126.875 79.482 127.282C79.7589 127.689 80.1272 128.025 80.5573 128.264L170.834 180.461C171.702 180.97 172.418 180.743 172.418 179.951C172.35 179.468 172.172 179.008 171.897 178.605C171.622 178.203 171.259 177.869 170.834 177.629Z" fill="white"/>
<path d="M170.834 192.395L93.4029 147.696C92.5241 147.186 91.8189 147.413 91.8189 148.205C91.8825 148.694 92.0587 149.161 92.3336 149.569C92.6085 149.978 92.9745 150.317 93.4029 150.56L170.834 195.248C171.702 195.758 172.418 195.519 172.418 194.727C172.346 194.245 172.166 193.784 171.892 193.381C171.618 192.977 171.256 192.64 170.834 192.395Z" fill="white"/>
<path d="M170.834 199.577L82.4016 148.455C81.5337 147.945 80.8176 148.184 80.8176 148.976C80.8883 149.46 81.0675 149.923 81.3418 150.329C81.616 150.734 81.9783 151.073 82.4016 151.319L170.834 202.43C171.702 202.94 172.418 202.713 172.418 201.921C172.353 201.434 172.176 200.969 171.901 200.563C171.627 200.156 171.261 199.819 170.834 199.577Z" fill="white"/>
<path d="M170.834 184.8L82.4016 133.678C81.5337 133.168 80.8176 133.407 80.8176 134.199C80.8837 134.685 81.0609 135.149 81.3357 135.556C81.6104 135.962 81.9752 136.3 82.4016 136.542L170.834 187.708C171.702 188.207 172.418 187.979 172.418 187.187C172.36 186.693 172.186 186.22 171.911 185.805C171.635 185.391 171.267 185.046 170.834 184.8Z" fill="white"/>
<path d="M74.5467 59.1542C75.55 58.6702 76.6531 58.4287 77.7669 58.4495C78.8807 58.4702 79.974 58.7525 80.9587 59.2736L179.839 116.352C180.791 116.987 181.581 117.835 182.146 118.83C182.711 119.825 183.036 120.938 183.094 122.08V150.289C183.137 151.417 182.871 152.536 182.326 153.524C181.78 154.512 180.975 155.333 179.997 155.898C179.019 156.463 177.906 156.75 176.777 156.729C175.648 156.708 174.546 156.379 173.59 155.778L74.7094 98.6892C73.7559 98.0562 72.9646 97.208 72.3992 96.2129C71.8338 95.2179 71.5103 94.1038 71.4546 92.9607V64.7525C71.4958 63.6424 71.7971 62.5576 72.3342 61.5852C72.8712 60.6129 73.6291 59.7802 74.5467 59.1542Z" fill="#263238"/>
<path d="M71.4866 64.1667C71.7578 62.4959 73.114 61.91 74.7414 62.8539L115.969 86.6465L173.622 119.932C174.599 120.547 175.405 121.398 175.966 122.406L182.171 118.826C181.617 117.816 180.814 116.964 179.839 116.352L80.9581 59.2737C80.0475 58.6961 79.0015 58.3671 77.9243 58.3195C76.8471 58.2719 75.7762 58.5072 74.8182 59.0021C73.8602 59.497 73.0485 60.2342 72.464 61.1403C71.8795 62.0465 71.5425 63.0899 71.4866 64.1667Z" fill="#455A64"/>
<path d="M176.943 125.672V153.88C176.943 155.985 175.456 156.842 173.634 155.789L74.7531 98.7002C73.7996 98.0672 73.0082 97.219 72.4429 96.2239C71.8775 95.2289 71.5539 94.1148 71.4983 92.9717V64.7635C71.4983 62.6587 72.9738 61.8016 74.7531 62.854L115.981 86.6466L173.645 119.943C174.606 120.572 175.405 121.418 175.978 122.413C176.551 123.409 176.882 124.525 176.943 125.672Z" fill="#37474F"/>
<path d="M160.126 121.549L158.51 124.977C158.491 125.027 158.462 125.071 158.425 125.109C158.388 125.146 158.344 125.176 158.295 125.195C158.246 125.214 158.193 125.223 158.141 125.221C158.088 125.219 158.037 125.206 157.989 125.183L154.376 123.795C153.801 123.578 153.573 124.391 153.986 125.162L156.6 130.066C156.758 130.354 156.829 130.682 156.807 131.01L156.188 135.447C156.091 136.152 156.687 137.085 157.197 137.02L160.452 136.619C160.583 136.625 160.711 136.662 160.824 136.729C160.937 136.795 161.033 136.887 161.103 136.998L164.358 141.121C164.868 141.783 165.443 141.544 165.367 140.731L164.748 135.577C164.721 135.452 164.726 135.321 164.762 135.198C164.798 135.075 164.864 134.963 164.954 134.872L167.569 132.984C167.981 132.68 167.754 131.606 167.179 131.161L163.566 128.384C163.315 128.17 163.134 127.887 163.045 127.57L161.428 122.276C161.07 121.43 160.387 121.006 160.126 121.549Z" fill="white"/>
<path d="M141.845 111.079L140.229 114.508C140.21 114.557 140.181 114.602 140.144 114.639C140.107 114.677 140.062 114.706 140.013 114.726C139.965 114.745 139.912 114.754 139.859 114.752C139.807 114.75 139.755 114.737 139.708 114.714L136.095 113.336C135.52 113.108 135.292 113.922 135.704 114.703L138.286 119.607C138.444 119.892 138.516 120.216 138.493 120.54L137.874 124.988C137.777 125.693 138.373 126.616 138.883 126.551L142.138 126.149C142.269 126.155 142.397 126.193 142.51 126.259C142.623 126.325 142.719 126.418 142.789 126.529L146.044 130.662C146.554 131.313 147.129 131.086 147.053 130.261L146.434 125.108C146.407 124.982 146.412 124.852 146.448 124.729C146.484 124.606 146.55 124.493 146.64 124.402L149.255 122.515C149.667 122.211 149.44 121.137 148.865 120.703L145.252 117.915C144.999 117.703 144.817 117.419 144.731 117.101L143.114 111.806C142.843 110.96 142.105 110.537 141.845 111.079Z" fill="white"/>
<path d="M123.564 100.61L121.947 104.049C121.929 104.098 121.9 104.143 121.863 104.18C121.826 104.218 121.781 104.247 121.732 104.266C121.683 104.286 121.631 104.295 121.578 104.293C121.526 104.291 121.474 104.278 121.427 104.255L117.814 102.866C117.239 102.649 117.011 103.452 117.423 104.233L120.038 109.137C120.196 109.425 120.268 109.753 120.244 110.081L119.626 114.518C119.528 115.224 120.125 116.146 120.635 116.092L123.889 115.69C124.02 115.691 124.149 115.726 124.263 115.79C124.377 115.855 124.472 115.947 124.54 116.059L127.795 120.193C128.305 120.844 128.88 120.616 128.804 119.791L128.186 114.638C128.16 114.512 128.165 114.382 128.201 114.259C128.237 114.136 128.302 114.024 128.392 113.933L131.007 112.045C131.419 111.752 131.191 110.678 130.616 110.233L127.003 107.445C126.75 107.233 126.568 106.949 126.482 106.631L124.866 101.336C124.562 100.501 123.824 100.067 123.564 100.61Z" fill="white"/>
<path d="M105.283 90.1512L103.666 93.5796C103.647 93.6288 103.618 93.6736 103.581 93.711C103.544 93.7485 103.5 93.7779 103.451 93.7973C103.402 93.8167 103.35 93.8256 103.297 93.8237C103.244 93.8217 103.193 93.8088 103.145 93.7857L99.5324 92.397C98.9574 92.18 98.7296 92.9829 99.1418 93.764L101.756 98.6679C101.914 98.9565 101.985 99.284 101.963 99.6118L101.344 104.049C101.247 104.754 101.843 105.687 102.353 105.622L105.608 105.221C105.739 105.227 105.867 105.265 105.98 105.331C106.093 105.397 106.189 105.49 106.259 105.601L109.514 109.723C110.024 110.385 110.599 110.147 110.523 109.333L109.904 104.179C109.867 104.05 109.864 103.914 109.894 103.783C109.925 103.652 109.988 103.531 110.078 103.431L112.693 101.543C113.105 101.25 112.877 100.176 112.302 99.7311L108.689 96.9537C108.438 96.7359 108.257 96.4492 108.168 96.1292L106.552 90.8347C106.281 90.0319 105.543 89.5979 105.283 90.1512Z" fill="white"/>
<path d="M87.002 79.6815L85.3854 83.1099C85.3666 83.1591 85.3378 83.2038 85.3008 83.2413C85.2638 83.2788 85.2193 83.3082 85.1704 83.3275C85.1214 83.3469 85.0689 83.3559 85.0163 83.3539C84.9636 83.3519 84.912 83.339 84.8646 83.316L81.2518 81.9273C80.6768 81.7103 80.449 82.524 80.8612 83.2943L83.4759 88.2416C83.6331 88.5302 83.7047 88.8576 83.6821 89.1855L83.0636 93.6229C82.966 94.3281 83.5627 95.2611 84.0726 95.196L87.3274 94.7946C87.4585 94.8007 87.5862 94.8384 87.6995 94.9045C87.8129 94.9707 87.9085 95.0632 87.9784 95.1743L91.2332 99.2971C91.7431 99.9589 92.3181 99.7202 92.2422 98.9065L91.6237 93.753C91.5967 93.6276 91.6013 93.4974 91.6373 93.3743C91.6733 93.2511 91.7395 93.1389 91.8299 93.0478L94.4446 91.1601C94.8568 90.8563 94.629 89.7822 94.054 89.3374L90.4412 86.5599C90.1882 86.3486 90.0064 86.0645 89.9204 85.7462L88.3039 80.4518C88.0001 79.5621 87.2949 79.139 87.002 79.6815Z" fill="#455A64"/>
<path d="M162.85 103.496L168.274 100.371C168.382 100.323 168.473 100.244 168.535 100.143L169.533 98.4072L166.278 96.552L166.376 96.8341L162.85 103.496Z" fill="#7209B7" fill-opacity="0.7"/>
<path opacity="0.2" d="M162.85 103.496L168.274 100.371C168.382 100.323 168.473 100.244 168.535 100.143L169.533 98.4072L166.278 96.552L166.376 96.8341L162.85 103.496Z" fill="black"/>
<path d="M166.788 96.8124L163.034 103.322C162.981 103.416 162.903 103.493 162.807 103.542C162.712 103.592 162.604 103.613 162.497 103.603C162.39 103.593 162.289 103.551 162.205 103.484C162.121 103.417 162.058 103.327 162.025 103.224L158.065 91.8L166.788 96.8124Z" fill="#7209B7" fill-opacity="0.7"/>
<path d="M72.1057 6.10116C72.155 5.19308 72.4174 4.30936 72.8717 3.5215C73.3259 2.73365 73.9593 2.0638 74.7204 1.56615C75.5305 1.1545 76.4264 0.939941 77.3351 0.939941C78.2438 0.939941 79.1397 1.1545 79.9498 1.56615L180.523 59.5775C181.284 60.0751 181.918 60.745 182.372 61.5328C182.826 62.3207 183.088 63.2044 183.138 64.1125V97.2029C183.088 98.111 182.826 98.9947 182.372 99.7826C181.918 100.57 181.284 101.24 180.523 101.738C179.713 102.15 178.817 102.364 177.908 102.364C177 102.364 176.104 102.15 175.294 101.738L74.5143 43.553C72.16 42.2186 72.1383 40.8732 72.1383 39.2133L72.1057 6.10116Z" fill="#7209B7" fill-opacity="0.7"/>
<path opacity="0.2" d="M183.138 97.2031C183.088 98.1112 182.826 98.9949 182.372 99.7827C181.918 100.571 181.284 101.24 180.523 101.738C179.787 102.114 178.98 102.328 178.154 102.365C177.329 102.403 176.505 102.263 175.738 101.955C176.964 102.422 177.908 101.727 177.908 100.23V67.1288C177.877 66.2163 177.611 65.3273 177.138 64.5466L182.378 61.5305C182.844 62.3138 183.105 63.2018 183.138 64.1127V97.2031Z" fill="black"/>
<path opacity="0.4" d="M72.2248 5.36341C72.5286 4.27847 73.5485 3.89875 74.7527 4.59311L175.293 62.6044C176.069 63.0817 176.706 63.7554 177.138 64.5573L182.367 61.5303C181.926 60.7351 181.292 60.0635 180.523 59.5775L79.993 1.56614C79.1813 1.15949 78.2861 0.947754 77.3783 0.947754C76.4705 0.947754 75.5752 1.15949 74.7636 1.56614C74.1035 1.99209 73.5376 2.54878 73.101 3.20187C72.6643 3.85497 72.3662 4.59061 72.2248 5.36341Z" fill="white"/>
<path d="M170.834 67.7037L80.5573 15.4859C79.6785 14.9868 78.9624 15.2147 78.9624 16.0067C79.0272 16.4946 79.2051 16.9606 79.482 17.3675C79.7589 17.7743 80.1272 18.1109 80.5573 18.3501L170.834 70.5679C171.702 71.0778 172.418 70.85 172.418 70.058C172.349 69.5714 172.171 69.1069 171.897 68.6991C171.622 68.2914 171.259 67.9511 170.834 67.7037Z" fill="white"/>
<path d="M170.834 82.4695L93.4029 37.7703C92.5241 37.2603 91.8189 37.4882 91.8189 38.2802C91.8817 38.7673 92.0576 39.233 92.3327 39.6399C92.6077 40.0469 92.9742 40.3838 93.4029 40.6236L170.834 85.3337C171.702 85.8328 172.418 85.6049 172.418 84.8129C172.352 84.3268 172.175 83.8625 171.9 83.456C171.626 83.0496 171.261 82.712 170.834 82.4695Z" fill="white"/>
<path d="M170.834 89.6517L82.4016 38.5405C81.5337 38.0306 80.8176 38.2693 80.8176 39.0504C80.8868 39.537 81.0652 40.0016 81.3396 40.4093C81.6139 40.817 81.977 41.1574 82.4016 41.4047L170.834 92.5159C171.702 93.0258 172.418 92.798 172.418 92.006C172.349 91.5194 172.171 91.0549 171.897 90.6471C171.622 90.2394 171.259 89.8991 170.834 89.6517Z" fill="white"/>
<path d="M170.834 74.9291L82.4016 23.8071C81.5337 23.2972 80.8176 23.5359 80.8176 24.3279C80.8883 24.8125 81.0675 25.2749 81.3418 25.6807C81.616 26.0864 81.9783 26.4251 82.4016 26.6713L170.834 77.7825C171.702 78.2924 172.418 78.0646 172.418 77.2726C172.353 76.7862 172.176 76.3215 171.901 75.915C171.627 75.5084 171.261 75.171 170.834 74.9291Z" fill="white"/>
<path d="M133.317 274.307L95.2905 266.854C95.0505 266.814 94.8042 266.85 94.5852 266.955C94.3661 267.061 94.1849 267.232 94.0663 267.444C93.9477 267.656 93.8974 267.9 93.9223 268.142C93.9473 268.384 94.0462 268.612 94.2056 268.796L119.994 298.002L133.317 274.307Z" fill="#FFA8A7"/>
<path d="M94.1844 268.796C94.025 268.612 93.9261 268.384 93.9011 268.142C93.8762 267.9 93.9265 267.656 94.0451 267.444C94.1637 267.232 94.3449 267.061 94.564 266.955C94.783 266.85 95.0293 266.814 95.2693 266.854L102.712 268.34C101.693 268.971 100.868 269.872 100.328 270.942C99.7885 272.012 99.5546 273.21 99.6524 274.405V275.078L94.1844 268.796Z" fill="#7209B7" fill-opacity="0.3"/>
<path d="M261.762 379.318L258.659 377.528L254.895 375.358L119.983 297.97C118.746 293.781 119.133 289.279 121.068 285.363C123.77 279.331 128.999 274.513 133.339 274.286L268.142 351.663L275.313 355.775C270.518 353.366 256.988 376.833 261.762 379.318Z" fill="#37474F"/>
<path d="M249.904 372.559L242.961 368.566C240.91 367.481 242.082 362.436 244.48 357.229C247.658 350.307 253.897 343.602 256.62 345.045L261.741 347.985L263.553 349.07C260.83 347.627 254.58 354.321 251.412 361.254C249.123 366.245 247.951 371.094 249.698 372.418C249.753 372.483 249.824 372.531 249.904 372.559Z" fill="#EBEBEB"/>
<path d="M248.179 371.55C243.417 369.022 257.054 345.511 261.828 348.05L268.782 352.021C264.019 349.504 250.338 372.993 255.145 375.521L248.179 371.55Z" fill="#7209B7" fill-opacity="0.3"/>
<path d="M261.762 379.318L254.895 375.39C250.197 372.938 263.173 350.155 268.142 351.663C268.241 351.682 268.337 351.718 268.424 351.771L275.313 355.775C270.518 353.366 256.988 376.833 261.762 379.318Z" fill="#EBEBEB"/>
<path opacity="0.15" d="M94.0105 267.516L95.2907 266.854L122.881 281.945L265.549 363.814C265.82 363.391 266.037 363.358 266.211 363.651C262.153 369.977 259.094 377.94 261.763 379.329L258.66 377.539L254.895 375.369L119.984 297.98L94.1949 268.774C94.0356 268.61 93.9321 268.401 93.899 268.175C93.8658 267.949 93.9049 267.718 94.0105 267.516Z" fill="black"/>
<path d="M290.915 395.993L261.762 379.318C259.723 378.233 260.851 373.264 263.205 368.089C266.363 361.156 272.579 354.386 275.313 355.775L304.585 372.494C310.4 375.846 305.051 388.453 298.574 394.095C296.166 396.254 293.432 397.198 290.915 395.993Z" fill="#F28F8F"/>
<path opacity="0.1" d="M289.179 386.956C290.849 380.381 296.166 373.937 301.059 372.559C301.777 372.305 302.546 372.226 303.301 372.33C304.056 372.434 304.775 372.717 305.398 373.155C309.738 377.224 304.672 388.789 298.542 394.127C296.187 396.21 293.551 397.143 291.034 396.047C288.886 394.767 288.007 391.404 289.179 386.956Z" fill="black"/>
</svg>
