<svg width="374" height="348" viewBox="0 0 374 348" fill="none" xmlns="http://www.w3.org/2000/svg">
<path d="M187 347.622C83.7227 347.622 0 299.282 0 239.653C0 180.023 83.7227 131.684 187 131.684C290.277 131.684 374 180.023 374 239.653C374 299.282 290.277 347.622 187 347.622Z" fill="#F5F5F5"/>
<path d="M321.899 307.961L324.442 306.462C324.863 306.184 325.213 305.812 325.465 305.375C325.716 304.937 325.863 304.447 325.891 303.944V115.453C325.861 114.951 325.715 114.463 325.463 114.027C325.211 113.591 324.862 113.22 324.442 112.943L207.491 45.4124C207.04 45.1858 206.542 45.0679 206.037 45.0679C205.532 45.0679 205.034 45.1858 204.583 45.4124L202.04 46.8864C201.618 47.1627 201.267 47.5335 201.014 47.9693C200.761 48.4052 200.613 48.8941 200.582 49.3971V237.92C200.612 238.424 200.759 238.915 201.012 239.352C201.265 239.789 201.617 240.162 202.04 240.439L318.991 307.961C319.442 308.187 319.94 308.305 320.445 308.305C320.95 308.305 321.447 308.187 321.899 307.961Z" fill="#37474F"/>
<path d="M200.599 49.1623C200.704 48.4171 201.311 48.1418 202.04 48.5629L318.991 116.085C319.421 116.35 319.775 116.721 320.02 117.162L325.47 114.02C325.224 113.58 324.87 113.209 324.442 112.943L207.491 45.4124C207.04 45.1858 206.542 45.0679 206.037 45.0679C205.532 45.0679 205.035 45.1858 204.583 45.4124L202.04 46.8864C201.651 47.1401 201.32 47.4747 201.072 47.8674C200.823 48.2601 200.662 48.7017 200.599 49.1623Z" fill="#455A64"/>
<path d="M319.25 308.082C319.277 308.089 319.305 308.089 319.331 308.082L319.485 308.139H319.542C319.631 308.139 319.72 308.188 319.809 308.212C320.385 308.324 320.981 308.279 321.534 308.082C321.646 308.042 321.754 307.993 321.858 307.937L324.442 306.463C324.863 306.185 325.213 305.812 325.465 305.375C325.717 304.938 325.863 304.448 325.892 303.944V115.454C325.874 114.948 325.729 114.455 325.47 114.02L320.02 117.162C320.283 117.596 320.431 118.089 320.449 118.596V307.127C320.462 307.398 320.385 307.665 320.23 307.888C320.132 308.001 320.004 308.084 319.861 308.128C319.718 308.172 319.565 308.176 319.42 308.139L319.25 308.082Z" fill="#263238"/>
<path d="M278.245 107.889C278.282 107.691 278.372 107.506 278.504 107.354L278.601 107.273C278.678 107.215 278.767 107.178 278.862 107.164C278.957 107.15 279.054 107.159 279.144 107.192C279.216 107.21 279.285 107.24 279.346 107.281C279.706 107.529 279.987 107.875 280.156 108.277C280.373 108.733 280.489 109.231 280.496 109.735C280.529 110.112 280.413 110.487 280.172 110.78C280.066 110.883 279.927 110.946 279.779 110.957C279.631 110.969 279.484 110.929 279.362 110.845C279.189 110.74 279.035 110.606 278.909 110.448C278.793 110.297 278.69 110.138 278.601 109.97C278.352 109.483 278.217 108.946 278.204 108.399C278.2 108.228 278.213 108.057 278.245 107.889ZM259.228 65.3927C259.65 65.1447 260.132 65.016 260.621 65.0201C261.55 65.0635 262.453 65.3422 263.245 65.83C265.456 67.183 267.162 69.2226 268.105 71.6371C268.258 71.9772 268.404 72.3336 268.534 72.6819C268.663 73.0301 268.801 73.3865 268.915 73.7509C269.028 74.1154 269.157 74.4799 269.263 74.8443C269.303 74.9658 269.336 75.0954 269.376 75.2088L269.587 75.9458C269.583 75.9808 269.583 76.0161 269.587 76.0511C269.708 76.4965 269.822 76.9582 269.951 77.4117C270.016 77.6628 270.073 77.8977 270.137 78.1406L270.324 78.8615C270.583 79.8253 270.842 80.7486 271.134 81.6314L271.32 82.1659C271.409 82.417 271.498 82.668 271.595 82.911C271.693 83.154 271.749 83.2836 271.822 83.4537C271.944 83.7533 272.073 84.0368 272.211 84.3122C272.349 84.5875 272.381 84.6604 272.47 84.8305C274.519 88.7667 277.022 90.3055 278.471 92.3303C279.743 94.0959 280.091 95.5051 281.808 98.2993C282.351 99.1902 283.031 100.219 283.922 101.45C286.392 104.851 287.275 106.536 287.575 107.557C287.578 107.583 287.578 107.611 287.575 107.638C287.575 107.719 287.575 107.791 287.632 107.864C287.634 107.889 287.634 107.913 287.632 107.937C287.635 108.002 287.635 108.067 287.632 108.132C287.66 108.33 287.673 108.53 287.672 108.731V116.295L284.951 117.867V110.294C284.958 109.899 284.9 109.505 284.781 109.128C284.481 108.107 283.606 106.431 281.128 103.029C280.237 101.79 279.557 100.761 279.014 99.8705C277.313 97.0844 276.949 95.6671 275.677 93.9177C274.228 91.8848 271.725 90.3541 269.676 86.4098C269.38 85.8036 269.118 85.1818 268.89 84.547C267.578 81.3074 266.987 76.942 265.375 73.2731C264.435 70.8618 262.727 68.8269 260.516 67.4822C258.855 66.5265 257.641 66.4456 256.709 66.8829L259.228 65.3927ZM247.298 75.063C247.524 74.9341 247.767 74.836 248.019 74.7714C249.047 74.5285 250.578 75.1278 252.117 74.9496C249.955 77.7438 246.95 75.9458 245.298 76.3427C245.041 76.4042 244.795 76.5053 244.569 76.6423L247.298 75.063ZM241.531 85.4541C241.612 85.5036 241.688 85.5605 241.758 85.6242L241.872 85.7376L241.977 85.8591C242.431 86.4463 242.681 87.1658 242.69 87.9082C242.717 88.2809 242.604 88.6504 242.374 88.9448C242.343 88.9738 242.311 89.0009 242.277 89.0258C242.202 89.0835 242.113 89.1211 242.02 89.1353C241.926 89.1494 241.831 89.1397 241.742 89.1068C241.667 89.0891 241.596 89.059 241.531 89.0177C241.45 88.9691 241.378 88.9043 241.297 88.8477C241.179 88.7374 241.073 88.6153 240.981 88.4832C240.595 87.9194 240.384 87.2547 240.373 86.5718C240.373 85.5918 240.892 85.0816 241.531 85.4541ZM239.75 78.6104C240.624 78.1228 241.574 77.786 242.56 77.6142C242.981 77.517 243.37 77.4117 243.686 77.3064C242.602 78.2708 241.274 78.9181 239.847 79.1773C238.981 79.3459 238.138 79.6178 237.336 79.9872L239.75 78.6104Z" fill="#7209B7" fill-opacity="0.5"/>
<path d="M237.117 80.1252L237.336 79.9956C238.138 79.6261 238.98 79.3542 239.847 79.1857C241.274 78.9281 242.603 78.2806 243.686 77.3148C243.957 77.0642 244.253 76.8417 244.569 76.6507C244.795 76.5169 245.041 76.4186 245.297 76.3591C246.917 75.9622 249.954 77.7602 252.109 74.966L252.182 74.8769C253.688 72.8441 254.239 68.3086 256.499 66.9803L256.725 66.8507C257.657 66.4134 258.872 66.4944 260.532 67.4501C266.517 70.9084 266.72 79.1209 268.874 84.523C271.028 89.9251 274.09 91.6178 275.75 93.9422C277.41 96.2667 277.524 97.9918 281.209 103.062C284.894 108.132 285.032 109.379 285.032 110.351V117.916L236.016 89.5687V82.0042C235.986 81.6161 236.076 81.2282 236.273 80.8924C236.47 80.5566 236.764 80.289 237.117 80.1252ZM279.346 110.845C279.986 111.218 280.496 110.724 280.496 109.735C280.503 109.27 280.402 108.808 280.203 108.387C280.004 107.966 279.71 107.596 279.346 107.306C278.706 106.933 278.196 107.435 278.196 108.423C278.19 108.888 278.29 109.348 278.489 109.768C278.689 110.188 278.982 110.556 279.346 110.845ZM260.532 88.0542C260.839 88.2878 261.197 88.445 261.577 88.5127C261.957 88.5804 262.347 88.5567 262.716 88.4435C263.085 88.3303 263.422 88.1309 263.698 87.8618C263.975 87.5927 264.183 87.2616 264.306 86.896C264.729 85.9382 264.931 84.8973 264.897 83.8507C264.897 80.1333 262.945 75.9946 260.532 74.6016C260.206 74.4071 259.85 74.2675 259.479 74.1885C257.568 73.8079 256.166 75.6383 256.166 78.805C256.166 82.5225 258.118 86.6611 260.532 88.0542ZM241.531 89.0099C242.171 89.3824 242.69 88.8884 242.69 87.9084C242.694 87.4419 242.593 86.9805 242.392 86.5594C242.191 86.1383 241.897 85.7687 241.531 85.4787C240.892 85.1142 240.373 85.6082 240.373 86.5963C240.368 87.0605 240.47 87.5195 240.671 87.938C240.872 88.3565 241.166 88.7232 241.531 89.0099Z" fill="#7209B7" fill-opacity="0.5"/>
<path opacity="0.1" d="M237.117 80.1252L237.336 79.9956C238.138 79.6261 238.98 79.3542 239.847 79.1857C241.274 78.9281 242.603 78.2806 243.686 77.3148C243.957 77.0642 244.253 76.8417 244.569 76.6507C244.795 76.5169 245.041 76.4186 245.297 76.3591C246.917 75.9622 249.954 77.7602 252.109 74.966L252.182 74.8769C253.688 72.8441 254.239 68.3086 256.499 66.9803L256.725 66.8507C257.657 66.4134 258.872 66.4944 260.532 67.4501C266.517 70.9084 266.72 79.1209 268.874 84.523C271.028 89.9251 274.09 91.6178 275.75 93.9422C277.41 96.2667 277.524 97.9918 281.209 103.062C284.894 108.132 285.032 109.379 285.032 110.351V117.916L236.016 89.5687V82.0042C235.986 81.6161 236.076 81.2282 236.273 80.8924C236.47 80.5566 236.764 80.289 237.117 80.1252ZM279.346 110.845C279.986 111.218 280.496 110.724 280.496 109.735C280.503 109.27 280.402 108.808 280.203 108.387C280.004 107.966 279.71 107.596 279.346 107.306C278.706 106.933 278.196 107.435 278.196 108.423C278.19 108.888 278.29 109.348 278.489 109.768C278.689 110.188 278.982 110.556 279.346 110.845ZM260.532 88.0542C260.839 88.2878 261.197 88.445 261.577 88.5127C261.957 88.5804 262.347 88.5567 262.716 88.4435C263.085 88.3303 263.422 88.1309 263.698 87.8618C263.975 87.5927 264.183 87.2616 264.306 86.896C264.729 85.9382 264.931 84.8973 264.897 83.8507C264.897 80.1333 262.945 75.9946 260.532 74.6016C260.206 74.4071 259.85 74.2675 259.479 74.1885C257.568 73.8079 256.166 75.6383 256.166 78.805C256.166 82.5225 258.118 86.6611 260.532 88.0542ZM241.531 89.0099C242.171 89.3824 242.69 88.8884 242.69 87.9084C242.694 87.4419 242.593 86.9805 242.392 86.5594C242.191 86.1383 241.897 85.7687 241.531 85.4787C240.892 85.1142 240.373 85.6082 240.373 86.5963C240.368 87.0605 240.47 87.5195 240.671 87.938C240.872 88.3565 241.166 88.7232 241.531 89.0099Z" fill="black"/>
<path opacity="0.25" d="M284.862 109.161C284.981 109.538 285.038 109.931 285.032 110.327V117.899L287.753 116.328V108.764C287.754 108.563 287.741 108.363 287.712 108.164C287.716 108.1 287.716 108.035 287.712 107.97C287.715 107.946 287.715 107.921 287.712 107.897C287.712 107.824 287.712 107.751 287.656 107.67V107.589L284.862 109.161Z" fill="black"/>
<path opacity="0.25" d="M275.758 93.9503C277.03 95.6997 277.378 97.117 279.095 99.9031L281.808 98.3157C280.107 95.5215 279.743 94.1123 278.471 92.3467L275.758 93.9503Z" fill="black"/>
<path opacity="0.25" d="M265.359 73.2086C266.979 76.8775 267.562 81.2024 268.874 84.4826C269.129 85.1385 269.421 85.7793 269.749 86.4021L272.47 84.8389C272.381 84.6689 272.292 84.4907 272.211 84.3206C272.13 84.1505 271.944 83.7618 271.822 83.4621C271.749 83.292 271.668 83.1057 271.595 82.9195C271.522 82.7332 271.409 82.4254 271.32 82.1743L271.134 81.6398C270.842 80.757 270.583 79.8337 270.324 78.8699L270.137 78.1491C270.073 77.9061 270.016 77.6712 269.951 77.4202C269.822 76.9666 269.708 76.505 269.587 76.0595C269.583 76.0245 269.583 75.9892 269.587 75.9542L269.376 75.2172C269.336 75.1038 269.303 74.9742 269.263 74.8527C269.157 74.4883 269.036 74.1238 268.914 73.7594C268.793 73.3949 268.671 73.0467 268.534 72.6903C268.396 72.3339 268.258 71.9857 268.105 71.6455L265.359 73.2086Z" fill="black"/>
<path d="M280.164 108.277C280.38 108.733 280.496 109.231 280.504 109.735C280.537 110.112 280.42 110.487 280.18 110.78C280.413 110.484 280.526 110.111 280.496 109.735C280.487 109.232 280.374 108.735 280.164 108.277ZM278.188 108.399C278.189 108.227 278.208 108.056 278.244 107.889C278.21 108.057 278.194 108.228 278.196 108.399C278.206 108.945 278.338 109.482 278.585 109.97C278.336 109.483 278.2 108.946 278.188 108.399ZM242.276 89.0259C242.201 89.0835 242.113 89.1212 242.02 89.1353C241.926 89.1495 241.831 89.1397 241.742 89.1069C241.831 89.1349 241.926 89.1422 242.019 89.1282C242.111 89.1142 242.199 89.0792 242.276 89.0259Z" fill="#7209B7" fill-opacity="0.5"/>
<path d="M256.158 78.8049C256.158 82.5224 258.118 86.661 260.532 88.054C260.841 88.2792 261.198 88.4294 261.576 88.4929C261.953 88.5563 262.34 88.5313 262.706 88.4198C263.072 88.3083 263.407 88.1134 263.684 87.8503C263.962 87.5873 264.175 87.2633 264.306 86.904C263.931 86.8235 263.573 86.6811 263.245 86.4828C260.815 85.0817 258.88 80.9511 258.88 77.2337C258.844 76.1861 259.049 75.1444 259.479 74.1884C257.551 73.8077 256.158 75.6381 256.158 78.8049Z" fill="#7209B7" fill-opacity="0.5"/>
<path opacity="0.3" d="M256.158 78.8049C256.158 82.5224 258.118 86.661 260.532 88.054C260.841 88.2792 261.198 88.4294 261.576 88.4929C261.953 88.5563 262.34 88.5313 262.706 88.4198C263.072 88.3083 263.407 88.1134 263.684 87.8503C263.962 87.5873 264.175 87.2633 264.306 86.904C263.931 86.8235 263.573 86.6811 263.245 86.4828C260.815 85.0817 258.88 80.9511 258.88 77.2337C258.844 76.1861 259.049 75.1444 259.479 74.1884C257.551 73.8077 256.158 75.6381 256.158 78.8049Z" fill="black"/>
<path d="M278.609 109.971C278.691 110.14 278.791 110.301 278.909 110.448C279.035 110.606 279.189 110.741 279.362 110.845C279.484 110.93 279.631 110.97 279.779 110.958C279.926 110.946 280.066 110.883 280.172 110.78C280.412 110.488 280.529 110.113 280.496 109.736C280.488 109.231 280.372 108.734 280.156 108.278C279.987 107.875 279.706 107.529 279.346 107.282C279.284 107.24 279.216 107.21 279.144 107.193C279.033 107.154 278.913 107.149 278.799 107.178C278.686 107.206 278.583 107.268 278.504 107.355C278.372 107.507 278.282 107.691 278.245 107.889C278.208 108.057 278.189 108.228 278.188 108.399C278.2 108.949 278.345 109.488 278.609 109.971Z" fill="#37474F"/>
<path d="M240.373 86.5718C240.384 87.2547 240.595 87.9194 240.981 88.4832C241.073 88.6153 241.179 88.7375 241.297 88.8477C241.378 88.9044 241.45 88.9692 241.531 89.0178C241.596 89.059 241.667 89.0891 241.742 89.1069C241.852 89.1437 241.97 89.1481 242.082 89.1193C242.194 89.0906 242.295 89.03 242.374 88.9449C242.604 88.6504 242.717 88.281 242.69 87.9082C242.681 87.1658 242.431 86.4463 241.977 85.8591L241.872 85.7376L241.758 85.6242C241.688 85.5605 241.612 85.5036 241.531 85.4542C240.892 85.0816 240.373 85.5918 240.373 86.5718Z" fill="#37474F"/>
<path d="M311.402 133.717L209.629 74.9578C209.359 74.8218 209.061 74.751 208.758 74.751C208.456 74.751 208.158 74.8218 207.888 74.9578L206.908 75.5248C206.654 75.6918 206.443 75.9157 206.291 76.1786C206.139 76.4415 206.051 76.7362 206.033 77.0393V232.299C206.05 232.601 206.139 232.895 206.291 233.157C206.442 233.418 206.654 233.641 206.908 233.805L308.681 292.564C308.95 292.704 309.249 292.777 309.552 292.777C309.855 292.777 310.153 292.704 310.422 292.564L311.402 291.997C311.657 291.833 311.868 291.611 312.02 291.349C312.172 291.087 312.26 290.793 312.277 290.491V135.231C312.261 134.928 312.173 134.632 312.021 134.369C311.869 134.106 311.657 133.882 311.402 133.717Z" fill="#F5F5F5"/>
<path d="M206.065 76.7723C206.179 76.416 206.511 76.3026 206.875 76.5294L308.681 135.288C308.939 135.451 309.151 135.677 309.297 135.944L312.018 134.373C311.877 134.104 311.664 133.879 311.402 133.725L209.629 74.9662C209.362 74.8264 209.064 74.7534 208.762 74.7534C208.461 74.7534 208.163 74.8264 207.896 74.9662L206.908 75.5251C206.692 75.6665 206.506 75.8497 206.361 76.0639C206.216 76.278 206.116 76.5189 206.065 76.7723Z" fill="#FAFAFA"/>
<path d="M308.883 292.694C308.988 292.733 309.097 292.761 309.207 292.775H309.378C309.552 292.795 309.729 292.795 309.904 292.775C310.015 292.762 310.124 292.734 310.228 292.694L310.422 292.597L311.402 292.03C311.657 291.867 311.87 291.645 312.022 291.383C312.174 291.121 312.262 290.826 312.277 290.524V135.232C312.269 134.927 312.179 134.631 312.018 134.373L309.297 135.944C309.45 136.205 309.536 136.5 309.548 136.803V292.062C309.548 292.54 309.272 292.775 308.883 292.694Z" fill="#E0E0E0"/>
<path d="M268.68 98.0566L268.817 98.2834C269.142 98.8137 269.377 99.3938 269.514 100C269.514 100.049 269.514 100.073 269.514 100.098C269.516 100.111 269.516 100.125 269.514 100.138L271.174 109.484L271.692 112.473C271.692 112.595 271.749 112.716 271.782 112.846C271.813 112.966 271.851 113.085 271.895 113.202C271.895 113.283 271.952 113.364 271.984 113.445L269.263 115.016C269.133 114.704 269.038 114.378 268.979 114.044L268.445 111.056L266.825 101.709C266.702 100.96 266.411 100.249 265.974 99.6279L268.68 98.0566Z" fill="#7209B7" fill-opacity="0.5"/>
<path d="M287.421 128.21C287.696 128.647 287.955 129.084 288.231 129.522C288.344 129.732 288.458 129.943 288.563 130.153C288.668 130.364 288.822 130.696 288.935 130.963C289.049 131.23 289.195 131.563 289.308 131.87C289.421 132.178 289.535 132.486 289.64 132.794C289.745 133.101 289.875 133.514 289.972 133.879C290.037 134.114 290.102 134.349 290.166 134.6C290.318 135.172 290.455 135.755 290.58 136.349C290.58 136.552 290.669 136.762 290.701 136.965C290.733 137.167 290.806 137.467 290.847 137.71C290.847 137.71 290.847 137.71 290.847 137.75C290.847 137.945 290.847 138.074 290.75 138.131C290.737 138.137 290.723 138.14 290.709 138.14C290.695 138.14 290.681 138.137 290.669 138.131L288.328 136.301L287.947 136.001L287.761 135.863L287.559 135.701L287.397 135.58L287.259 135.466C286.575 132.99 285.435 130.664 283.898 128.606L286.619 127.035C286.886 127.424 287.162 127.821 287.421 128.21Z" fill="#7209B7" fill-opacity="0.5"/>
<path d="M257.973 77.4927C258.102 77.7033 258.216 77.9138 258.329 78.1244C258.403 78.2405 258.468 78.3624 258.523 78.4889C258.62 78.6589 258.701 78.8371 258.791 79.0153C258.88 79.1935 258.936 79.2988 259.001 79.4446C259.139 79.7199 259.26 79.9953 259.374 80.2545C259.487 80.5136 259.633 80.8538 259.746 81.1535C259.86 81.4207 259.949 81.688 260.038 81.9634C260.184 82.3683 260.305 82.7733 260.418 83.1863C260.483 83.405 260.532 83.6156 260.589 83.8262C260.587 83.8423 260.587 83.8586 260.589 83.8748C260.589 83.9881 260.645 84.0934 260.661 84.2068C260.726 84.4579 260.775 84.7171 260.815 84.9681C260.856 85.2192 260.896 85.365 260.953 85.5675C261.01 85.7699 261.058 85.9886 261.123 86.1992C261.188 86.4098 261.253 86.5961 261.317 86.7985C261.317 86.7985 261.317 86.7985 261.317 86.8552C261.398 87.0739 261.488 87.3007 261.585 87.5274C261.682 87.7542 261.763 87.9729 261.876 88.2078C261.904 88.2684 261.928 88.3306 261.949 88.3941C262.03 88.5641 262.119 88.7342 262.2 88.9124L262.63 89.7223C262.727 89.9167 262.824 90.0949 262.929 90.2811L260.2 91.8524C259.219 90.1974 258.503 88.3993 258.078 86.5232C257.563 83.8712 256.593 81.3284 255.211 79.0072L257.973 77.4927Z" fill="#7209B7" fill-opacity="0.5"/>
<path d="M241.782 83.5511C241.918 83.4691 242.07 83.4192 242.228 83.4053C241.964 83.8271 241.608 84.1843 241.188 84.4506C240.767 84.717 240.292 84.8856 239.798 84.9441C239.564 84.9471 239.333 84.9966 239.118 85.0899L241.782 83.5511Z" fill="#7209B7" fill-opacity="0.5"/>
<path opacity="0.4" d="M241.782 83.5511C241.918 83.4691 242.07 83.4192 242.228 83.4053C241.964 83.8271 241.608 84.1843 241.188 84.4506C240.767 84.717 240.292 84.8856 239.798 84.9441C239.564 84.9471 239.333 84.9966 239.118 85.0899L241.782 83.5511Z" fill="white"/>
<path d="M231.634 95.3839C232.062 95.1749 232.534 95.0731 233.009 95.0872C233.485 95.1013 233.949 95.2309 234.364 95.4649C237.53 96.8579 238.899 97.4897 240.535 98.17C240.851 100.276 239.612 100.47 238.996 100.219C236.696 99.3119 235.522 98.7531 231.634 97.0442C231.224 96.8137 230.763 96.6854 230.293 96.6698C229.822 96.6543 229.354 96.7522 228.929 96.9551L231.634 95.3839Z" fill="#7209B7" fill-opacity="0.5"/>
<path opacity="0.4" d="M231.634 95.3839C232.062 95.1749 232.534 95.0731 233.009 95.0872C233.485 95.1013 233.949 95.2309 234.364 95.4649C237.53 96.8579 238.899 97.4897 240.535 98.17C240.851 100.276 239.612 100.47 238.996 100.219C236.696 99.3119 235.522 98.7531 231.634 97.0442C231.224 96.8137 230.763 96.6854 230.293 96.6698C229.822 96.6543 229.354 96.7522 228.929 96.9551L231.634 95.3839Z" fill="white"/>
<path d="M269.279 115.016C269.865 116.299 270.69 117.459 271.709 118.434L280.229 124.84C281.591 125.95 282.819 127.213 283.89 128.606L286.611 127.035C285.543 125.638 284.314 124.371 282.95 123.261L274.414 116.863C273.413 115.881 272.603 114.722 272.024 113.445L269.279 115.016Z" fill="#7209B7" fill-opacity="0.5"/>
<path opacity="0.4" d="M269.279 115.016C269.865 116.299 270.69 117.459 271.709 118.434L280.229 124.84C281.591 125.95 282.819 127.213 283.89 128.606L286.611 127.035C285.543 125.638 284.314 124.371 282.95 123.261L274.414 116.863C273.413 115.881 272.603 114.722 272.024 113.445L269.279 115.016Z" fill="white"/>
<path d="M260.24 91.9174C261.416 94.0905 262.863 96.1046 264.549 97.9107C265.08 98.4303 265.552 99.006 265.958 99.6277L268.68 98.0565C268.28 97.4299 267.807 96.8534 267.27 96.3395C265.588 94.5328 264.142 92.5188 262.97 90.3462L260.24 91.9174Z" fill="#7209B7" fill-opacity="0.5"/>
<path opacity="0.4" d="M260.24 91.9174C261.416 94.0905 262.863 96.1046 264.549 97.9107C265.08 98.4303 265.552 99.006 265.958 99.6277L268.68 98.0565C268.28 97.4299 267.807 96.8534 267.27 96.3395C265.588 94.5328 264.142 92.5188 262.97 90.3462L260.24 91.9174Z" fill="white"/>
<path d="M244.868 71.8075C245.873 71.2811 247.209 71.3702 248.78 72.1963C251.113 73.4192 253.461 76.0109 255.259 79.0724L257.981 77.4526C256.199 74.3911 253.85 71.7832 251.501 70.5765C250.738 70.1456 249.883 69.904 249.007 69.8718C248.483 69.8651 247.966 69.9964 247.509 70.2525L244.868 71.8075Z" fill="#7209B7" fill-opacity="0.5"/>
<path opacity="0.4" d="M244.868 71.8075C245.873 71.2811 247.209 71.3702 248.78 72.1963C251.113 73.4192 253.461 76.0109 255.259 79.0724L257.981 77.4526C256.199 74.3911 253.85 71.7832 251.501 70.5765C250.738 70.1456 249.883 69.904 249.007 69.8718C248.483 69.8651 247.966 69.9964 247.509 70.2525L244.868 71.8075Z" fill="white"/>
<path opacity="0.15" d="M283.865 128.606C285.403 130.664 286.543 132.99 287.227 135.466L287.364 135.58L287.526 135.701L287.729 135.863L287.915 136.001L288.296 136.3L290.604 138.147C290.617 138.153 290.63 138.156 290.644 138.156C290.658 138.156 290.672 138.153 290.685 138.147C290.774 138.09 290.814 137.961 290.782 137.766C290.782 137.766 290.782 137.766 290.782 137.726C290.782 137.483 290.693 137.232 290.636 136.981C290.58 136.73 290.555 136.568 290.515 136.365C290.391 135.777 290.253 135.194 290.102 134.616C290.037 134.365 289.972 134.13 289.907 133.895C289.81 133.531 289.697 133.174 289.575 132.81C289.454 132.445 289.365 132.194 289.243 131.886C289.122 131.579 289.008 131.279 288.871 130.979C288.733 130.68 288.628 130.42 288.498 130.169C288.368 129.918 288.279 129.748 288.166 129.538C287.931 129.1 287.672 128.663 287.356 128.226C287.04 127.788 286.822 127.416 286.546 127.051L283.865 128.606Z" fill="black"/>
<path opacity="0.15" d="M265.958 99.6279C266.395 100.249 266.686 100.96 266.809 101.709L268.429 111.056L268.963 114.044C269.022 114.378 269.117 114.704 269.247 115.016L271.968 113.445C271.968 113.364 271.903 113.283 271.879 113.202C271.835 113.085 271.797 112.966 271.765 112.846C271.765 112.716 271.701 112.595 271.676 112.473L271.158 109.484L269.498 100.138C269.5 100.125 269.5 100.111 269.498 100.098C269.498 100.098 269.498 100.049 269.498 100C269.361 99.3938 269.126 98.8137 268.801 98.2834L268.663 98.0566L265.958 99.6279Z" fill="black"/>
<path opacity="0.15" d="M255.251 79.0722C256.633 81.3933 257.603 83.9362 258.118 86.5881C258.544 88.4642 259.26 90.2623 260.24 91.9173L262.97 90.3461C262.864 90.1598 262.767 89.9816 262.67 89.7872L262.241 88.9773C262.16 88.7992 262.071 88.6291 261.99 88.459C261.969 88.3956 261.945 88.3334 261.917 88.2727C261.812 88.0459 261.714 87.8111 261.625 87.5924C261.536 87.3737 261.439 87.1388 261.358 86.9202C261.358 86.9202 261.358 86.8797 261.358 86.8635C261.293 86.661 261.22 86.4666 261.164 86.2641C261.107 86.0617 261.042 85.843 260.994 85.6324C260.945 85.4218 260.896 85.2275 260.856 85.0331C260.815 84.8387 260.767 84.5228 260.702 84.2718C260.702 84.1584 260.653 84.0531 260.629 83.9397C260.628 83.9235 260.628 83.9073 260.629 83.8911C260.572 83.6805 260.524 83.4699 260.459 83.2513C260.346 82.8382 260.224 82.4414 260.078 82.0283C259.989 81.7529 259.9 81.4857 259.787 81.2184C259.673 80.9187 259.544 80.6191 259.414 80.3194C259.285 80.0197 259.179 79.7687 259.042 79.5095C258.977 79.3637 258.904 79.226 258.831 79.0802C258.758 78.9345 258.661 78.7239 258.564 78.5538C258.509 78.4274 258.444 78.3055 258.369 78.1893C258.256 77.9788 258.143 77.7682 258.013 77.5576L255.251 79.0722Z" fill="black"/>
<path d="M290.628 138.147L288.328 136.3C289.243 137.037 290.49 138.001 290.628 138.147Z" fill="#7209B7" fill-opacity="0.5"/>
<path d="M228.921 96.9714C229.347 96.7685 229.816 96.67 230.288 96.6841C230.759 96.6982 231.221 96.8244 231.634 97.0524C235.514 98.7694 236.688 99.3282 238.988 100.243C239.604 100.486 240.843 100.292 240.527 98.1862C240.53 98.1404 240.53 98.0944 240.527 98.0486L240.001 95.06L238.527 86.9123C238.527 86.9123 238.195 85.6245 239.045 85.1467H239.11C239.319 85.044 239.549 84.9939 239.782 85.0009C240.278 84.94 240.753 84.7687 241.174 84.4995C241.594 84.2304 241.949 83.8703 242.212 83.4459C242.667 82.7696 242.982 82.0094 243.139 81.2097C243.296 80.41 243.292 79.587 243.127 78.7889C242.503 75.2901 243.184 72.8442 244.747 71.9371L244.868 71.8561C245.873 71.3296 247.209 71.4187 248.78 72.2448C252.919 74.4154 257.098 80.8542 258.118 86.6369C258.758 90.2815 262.427 95.8942 264.549 97.9757C266.671 100.057 266.809 101.774 266.809 101.774L268.429 111.12L268.963 114.109C269.352 116.344 271.644 118.507 271.644 118.507L280.229 124.84C283.635 127.55 286.094 131.27 287.251 135.466C287.251 135.466 290.49 137.945 290.652 138.147L289.559 137.524L230.662 103.661C230.662 103.661 229.982 103.297 229.853 103.2C229.723 103.102 227.334 100.867 227.334 100.867C227.374 98.9395 227.933 97.5626 228.921 96.9714ZM245.929 79.7932C246.561 83.3487 249.12 87.3092 251.663 88.6455C253.421 89.5607 254.709 88.9938 255.138 87.374C255.326 86.4657 255.326 85.5285 255.138 84.6203C254.514 81.0648 251.939 77.1043 249.396 75.776C249.16 75.648 248.914 75.5422 248.659 75.4602C246.577 74.8284 245.403 76.6022 245.945 79.7932H245.929Z" fill="#7209B7" fill-opacity="0.5"/>
<path d="M290.62 138.155L230.622 103.669L229.812 103.207C229.666 103.118 227.293 100.867 227.293 100.867L287.226 135.466C287.226 135.466 290.855 138.285 290.62 138.155Z" fill="#7209B7" fill-opacity="0.5"/>
<path opacity="0.3" d="M290.62 138.155L230.622 103.669L229.812 103.207C229.666 103.118 227.293 100.867 227.293 100.867L287.226 135.466C287.226 135.466 290.855 138.285 290.62 138.155Z" fill="black"/>
<path d="M248.642 75.4603C248.897 75.5423 249.144 75.6481 249.379 75.7761C251.923 77.1044 254.498 81.0648 255.122 84.6203C255.31 85.5286 255.31 86.4658 255.122 87.374C254.692 88.9939 253.405 89.5608 251.647 88.6456C249.104 87.3092 246.545 83.3488 245.913 79.7933C245.403 76.6022 246.577 74.8285 248.642 75.4603ZM254.96 87.3092C255.139 86.4328 255.139 85.5292 254.96 84.6527C254.336 81.1377 251.801 77.2259 249.29 75.9219C249.082 75.8116 248.865 75.7169 248.642 75.6384C248.476 76.4944 248.476 77.3742 248.642 78.2301C249.266 81.7857 251.833 85.7461 254.385 87.0825C254.57 87.1801 254.762 87.264 254.96 87.3335V87.3092Z" fill="#7209B7" fill-opacity="0.5"/>
<path opacity="0.4" d="M248.642 75.4603C248.897 75.5423 249.144 75.6481 249.379 75.7761C251.923 77.1044 254.498 81.0648 255.122 84.6203C255.31 85.5286 255.31 86.4658 255.122 87.374C254.692 88.9939 253.405 89.5608 251.647 88.6456C249.104 87.3092 246.545 83.3488 245.913 79.7933C245.403 76.6022 246.577 74.8285 248.642 75.4603ZM254.96 87.3092C255.139 86.4328 255.139 85.5292 254.96 84.6527C254.336 81.1377 251.801 77.2259 249.29 75.9219C249.082 75.8116 248.865 75.7169 248.642 75.6384C248.476 76.4944 248.476 77.3742 248.642 78.2301C249.266 81.7857 251.833 85.7461 254.385 87.0825C254.57 87.1801 254.762 87.264 254.96 87.3335V87.3092Z" fill="black"/>
<path d="M295.884 183.915C296.012 183.915 296.138 183.882 296.249 183.818C296.382 183.732 296.489 183.611 296.558 183.468C296.626 183.325 296.654 183.166 296.638 183.008V179.55C296.626 179.239 296.538 178.936 296.383 178.666C296.228 178.397 296.009 178.169 295.747 178.003L292.726 176.261C292.601 176.178 292.455 176.132 292.305 176.127C292.154 176.123 292.006 176.16 291.876 176.235C291.746 176.309 291.639 176.419 291.567 176.551C291.496 176.683 291.462 176.832 291.47 176.982V180.473C291.481 180.784 291.568 181.088 291.723 181.357C291.879 181.627 292.098 181.854 292.361 182.02L295.382 183.769C295.534 183.861 295.707 183.911 295.884 183.915ZM292.224 176.836C292.272 176.85 292.318 176.869 292.361 176.893L295.382 178.634C295.534 178.737 295.66 178.872 295.752 179.031C295.843 179.189 295.897 179.367 295.909 179.55V183.04C295.922 183.088 295.922 183.138 295.909 183.186C295.86 183.178 295.814 183.162 295.771 183.137L292.75 181.388C292.598 181.286 292.472 181.15 292.381 180.991C292.289 180.833 292.236 180.655 292.224 180.473V176.982C292.22 176.947 292.22 176.912 292.224 176.877V176.836Z" fill="#455A64"/>
<path d="M288.903 175.759L276.997 168.883C276.6 168.656 276.285 168.834 276.285 169.288V170.219C276.299 170.465 276.371 170.704 276.495 170.916C276.618 171.129 276.791 171.309 276.997 171.442L288.903 178.318C289.292 178.545 289.616 178.367 289.616 177.913V176.982C289.602 176.737 289.53 176.498 289.406 176.285C289.282 176.073 289.11 175.892 288.903 175.759Z" fill="#E0E0E0"/>
<path d="M266.379 166.882C266.507 166.884 266.633 166.85 266.744 166.785C266.879 166.7 266.987 166.58 267.057 166.437C267.127 166.294 267.156 166.134 267.141 165.975V162.485C267.127 162.173 267.038 161.87 266.882 161.601C266.725 161.331 266.505 161.104 266.242 160.938L263.221 159.196C263.096 159.107 262.948 159.055 262.794 159.046C262.641 159.038 262.488 159.073 262.354 159.148C262.223 159.226 262.118 159.34 262.049 159.476C261.98 159.613 261.951 159.765 261.965 159.917V163.408C261.976 163.719 262.063 164.023 262.218 164.292C262.374 164.562 262.593 164.789 262.856 164.955L265.877 166.704C266.026 166.807 266.199 166.869 266.379 166.882ZM262.727 159.804C262.771 159.82 262.814 159.839 262.856 159.861L265.877 161.602C266.03 161.704 266.158 161.839 266.25 161.998C266.343 162.156 266.398 162.334 266.412 162.517V166.008C266.428 166.055 266.428 166.106 266.412 166.154C266.364 166.144 266.317 166.128 266.274 166.105L263.253 164.356C263.1 164.254 262.973 164.119 262.882 163.96C262.791 163.801 262.738 163.623 262.727 163.44V159.95C262.712 159.902 262.712 159.851 262.727 159.804Z" fill="#455A64"/>
<path d="M259.398 158.727L247.492 151.851C247.095 151.624 246.78 151.802 246.78 152.256V153.187C246.794 153.433 246.866 153.671 246.99 153.884C247.113 154.096 247.286 154.277 247.492 154.41L259.398 161.286C259.795 161.513 260.111 161.335 260.111 160.881V159.95C260.092 159.705 260.018 159.468 259.895 159.256C259.772 159.045 259.602 158.863 259.398 158.727Z" fill="#E0E0E0"/>
<path d="M236.883 149.85C237.01 149.851 237.136 149.817 237.247 149.753C237.379 149.666 237.485 149.545 237.553 149.402C237.622 149.259 237.65 149.101 237.636 148.943V145.453C237.623 145.142 237.535 144.839 237.38 144.57C237.225 144.3 237.007 144.073 236.745 143.906L233.724 142.164C233.598 142.079 233.45 142.03 233.298 142.024C233.146 142.019 232.995 142.056 232.863 142.132C232.731 142.208 232.624 142.32 232.552 142.455C232.481 142.589 232.449 142.741 232.46 142.893V146.376C232.473 146.687 232.561 146.991 232.718 147.261C232.874 147.531 233.095 147.758 233.359 147.923L236.38 149.672C236.528 149.776 236.702 149.838 236.883 149.85ZM236.38 144.57C236.531 144.673 236.656 144.809 236.747 144.968C236.839 145.126 236.893 145.303 236.907 145.485V148.976C236.923 149.023 236.923 149.074 236.907 149.121C236.86 149.116 236.816 149.099 236.777 149.073L233.756 147.323C233.603 147.222 233.476 147.086 233.383 146.928C233.29 146.769 233.235 146.591 233.222 146.408V142.926C233.207 142.875 233.207 142.822 233.222 142.772C233.222 142.772 233.27 142.772 233.359 142.828L236.38 144.57Z" fill="#455A64"/>
<path d="M229.893 141.695L217.987 134.819C217.599 134.592 217.275 134.77 217.275 135.223V136.155C217.293 136.399 217.367 136.636 217.49 136.848C217.614 137.06 217.784 137.241 217.987 137.378L229.893 144.254C230.29 144.481 230.606 144.303 230.606 143.849V142.918C230.592 142.672 230.52 142.433 230.396 142.221C230.272 142.008 230.1 141.828 229.893 141.695Z" fill="#E0E0E0"/>
<path d="M288.871 158.719V160.079C288.871 160.825 288.352 161.124 287.712 160.752L218.06 120.572C217.723 120.35 217.442 120.052 217.241 119.702C217.039 119.352 216.923 118.959 216.902 118.555V117.187C216.902 116.45 217.42 116.15 218.06 116.514L287.712 156.702C288.05 156.924 288.331 157.222 288.532 157.572C288.733 157.923 288.849 158.315 288.871 158.719Z" fill="#E0E0E0"/>
<path d="M294.175 148.093V149.453C294.175 150.199 293.657 150.498 293.009 150.126L223.397 109.946C223.057 109.726 222.774 109.429 222.572 109.078C222.369 108.728 222.252 108.334 222.231 107.929V106.561C222.231 105.824 222.749 105.524 223.397 105.888L293.009 146.1C293.346 146.318 293.627 146.612 293.83 146.958C294.032 147.304 294.151 147.693 294.175 148.093Z" fill="#455A64"/>
<path d="M288.871 166.955V168.324C288.871 169.061 288.352 169.361 287.712 168.996L218.06 128.817C217.723 128.595 217.442 128.297 217.241 127.947C217.039 127.596 216.923 127.203 216.902 126.8V125.431C216.902 124.694 217.42 124.395 218.06 124.759L287.712 164.947C288.049 165.168 288.329 165.465 288.53 165.813C288.731 166.162 288.848 166.553 288.871 166.955Z" fill="#E0E0E0"/>
<path d="M296.5 167.66C294.678 165.854 294.224 165.085 294.224 164.421C294.224 163.756 294.491 163.4 295.309 163.87C295.663 164.075 295.967 164.356 296.201 164.692C296.435 165.028 296.592 165.411 296.662 165.814L298.654 166.259C298.481 165.215 298.087 164.22 297.499 163.341C296.911 162.461 296.143 161.716 295.245 161.157C293.252 160.007 292.094 160.865 292.094 162.776C292.205 164.637 293.015 166.387 294.362 167.676V169.256L296.5 170.487V167.66Z" fill="#455A64"/>
<path d="M296.524 172.909C296.527 172.519 296.429 172.136 296.239 171.797C296.048 171.457 295.773 171.173 295.439 170.973C294.726 170.56 294.362 170.924 294.362 171.661C294.356 172.052 294.452 172.438 294.641 172.781C294.83 173.123 295.105 173.41 295.439 173.613C296.16 174.026 296.524 173.637 296.524 172.909Z" fill="#455A64"/>
<path d="M295.415 179.55L294.524 180.222L295.334 181.761C295.403 181.855 295.441 181.968 295.441 182.085C295.441 182.202 295.403 182.315 295.334 182.409C295.18 182.522 294.961 182.409 294.832 182.166L294.022 180.635L293.131 181.307C293.001 181.405 292.807 181.307 292.693 181.097C292.634 181.016 292.601 180.918 292.601 180.817C292.601 180.717 292.634 180.619 292.693 180.538L293.584 179.866L292.774 178.327C292.705 178.233 292.667 178.12 292.667 178.003C292.667 177.886 292.705 177.773 292.774 177.679C292.928 177.566 293.147 177.679 293.277 177.922L294.086 179.461L294.977 178.789C295.107 178.691 295.301 178.789 295.415 178.991C295.475 179.072 295.507 179.17 295.507 179.27C295.507 179.371 295.475 179.469 295.415 179.55Z" fill="#7209B7" fill-opacity="0.5"/>
<path d="M295.884 214.667C296.012 214.671 296.138 214.64 296.249 214.578C296.382 214.492 296.489 214.371 296.558 214.228C296.626 214.085 296.654 213.926 296.638 213.768V210.278C296.627 209.967 296.54 209.663 296.385 209.393C296.229 209.123 296.01 208.896 295.747 208.731L292.726 206.989C292.601 206.906 292.455 206.86 292.305 206.855C292.154 206.851 292.006 206.888 291.876 206.963C291.746 207.037 291.639 207.147 291.567 207.279C291.496 207.411 291.462 207.56 291.47 207.71V211.201C291.481 211.512 291.568 211.816 291.723 212.085C291.879 212.355 292.098 212.582 292.361 212.748L295.382 214.489C295.531 214.592 295.704 214.654 295.884 214.667ZM292.224 207.597C292.273 207.606 292.32 207.625 292.361 207.653L295.382 209.395C295.534 209.497 295.66 209.633 295.752 209.791C295.843 209.95 295.897 210.127 295.909 210.31V213.801C295.922 213.848 295.922 213.899 295.909 213.946C295.86 213.938 295.814 213.922 295.771 213.898L292.75 212.148C292.598 212.046 292.472 211.911 292.381 211.752C292.289 211.593 292.236 211.416 292.224 211.233V207.743C292.216 207.694 292.216 207.645 292.224 207.597Z" fill="#455A64"/>
<path d="M288.903 206.511L276.997 199.643C276.6 199.416 276.285 199.595 276.285 200.048V200.971C276.298 201.218 276.369 201.459 276.493 201.673C276.617 201.887 276.79 202.068 276.997 202.203L288.903 209.079C289.292 209.305 289.616 209.119 289.616 208.666V207.742C289.602 207.496 289.53 207.255 289.407 207.042C289.283 206.828 289.11 206.646 288.903 206.511Z" fill="#E0E0E0"/>
<path d="M266.379 197.635C266.507 197.639 266.633 197.608 266.744 197.546C266.879 197.461 266.987 197.34 267.057 197.197C267.127 197.054 267.156 196.895 267.141 196.736V193.245C267.128 192.934 267.04 192.63 266.883 192.36C266.727 192.091 266.506 191.863 266.242 191.698L263.221 189.957C263.096 189.868 262.948 189.816 262.794 189.807C262.641 189.798 262.488 189.834 262.354 189.909C262.223 189.987 262.118 190.101 262.049 190.237C261.98 190.373 261.951 190.526 261.965 190.678V194.169C261.976 194.48 262.063 194.783 262.218 195.053C262.374 195.323 262.593 195.55 262.856 195.716L265.877 197.457C266.026 197.56 266.199 197.622 266.379 197.635ZM262.727 190.565C262.773 190.576 262.817 190.595 262.856 190.621L265.877 192.363C266.03 192.464 266.158 192.6 266.25 192.758C266.343 192.917 266.398 193.095 266.412 193.278V196.768C266.428 196.816 266.428 196.867 266.412 196.914C266.364 196.905 266.317 196.888 266.274 196.866L263.253 195.116C263.101 195.014 262.975 194.878 262.884 194.72C262.792 194.561 262.739 194.384 262.727 194.201V190.71C262.712 190.663 262.712 190.612 262.727 190.565Z" fill="#455A64"/>
<path d="M259.398 189.479L247.492 182.611C247.095 182.384 246.78 182.562 246.78 183.016V183.939C246.793 184.186 246.864 184.427 246.988 184.641C247.112 184.855 247.285 185.036 247.492 185.17L259.398 192.046C259.795 192.273 260.111 192.046 260.111 191.633V190.71C260.093 190.464 260.02 190.225 259.897 190.012C259.773 189.799 259.603 189.616 259.398 189.479Z" fill="#E0E0E0"/>
<path d="M236.883 180.603C237.01 180.606 237.136 180.575 237.247 180.514C237.379 180.426 237.485 180.305 237.553 180.162C237.622 180.02 237.65 179.861 237.636 179.704V176.213C237.623 175.902 237.535 175.599 237.38 175.33C237.225 175.061 237.007 174.833 236.745 174.666L233.724 172.925C233.599 172.84 233.452 172.791 233.3 172.785C233.149 172.779 232.999 172.816 232.867 172.891C232.736 172.966 232.628 173.077 232.556 173.21C232.484 173.343 232.451 173.494 232.46 173.645V177.136C232.473 177.448 232.561 177.752 232.718 178.021C232.874 178.291 233.095 178.518 233.359 178.683L236.38 180.424C236.528 180.528 236.702 180.59 236.883 180.603ZM236.38 175.33C236.531 175.434 236.656 175.57 236.747 175.728C236.839 175.886 236.893 176.063 236.907 176.245V179.736C236.923 179.783 236.923 179.835 236.907 179.882C236.862 179.871 236.818 179.855 236.777 179.833L233.756 178.084C233.603 177.982 233.476 177.847 233.383 177.688C233.29 177.529 233.235 177.352 233.222 177.169V173.678C233.207 173.63 233.207 173.58 233.222 173.532C233.27 173.544 233.317 173.563 233.359 173.589L236.38 175.33Z" fill="#455A64"/>
<path d="M229.893 172.447L217.987 165.579C217.599 165.352 217.275 165.53 217.275 165.984V166.907C217.292 167.153 217.365 167.392 217.489 167.605C217.612 167.818 217.783 168.001 217.987 168.138L229.893 175.014C230.29 175.241 230.606 175.055 230.606 174.601V173.678C230.593 173.431 230.521 173.191 230.398 172.977C230.274 172.763 230.101 172.581 229.893 172.447Z" fill="#E0E0E0"/>
<path d="M288.871 189.471V190.84C288.871 191.577 288.352 191.876 287.712 191.512L218.06 151.332C217.723 151.111 217.442 150.812 217.241 150.462C217.039 150.112 216.923 149.719 216.902 149.316V147.947C216.902 147.21 217.42 146.91 218.06 147.275L287.712 187.462C288.049 187.683 288.329 187.98 288.53 188.329C288.731 188.678 288.848 189.069 288.871 189.471Z" fill="#E0E0E0"/>
<path d="M288.871 197.716V199.084C288.871 199.821 288.352 200.121 287.712 199.757L218.06 159.569C217.722 159.35 217.44 159.054 217.239 158.704C217.038 158.355 216.922 157.963 216.902 157.56V156.192C216.902 155.447 217.42 155.147 218.06 155.519L287.712 195.707C288.049 195.928 288.329 196.225 288.53 196.574C288.731 196.923 288.848 197.314 288.871 197.716Z" fill="#E0E0E0"/>
<path d="M296.5 198.42C294.678 196.614 294.224 195.845 294.224 195.181C294.224 194.517 294.491 194.16 295.309 194.63C295.663 194.836 295.967 195.116 296.201 195.452C296.435 195.788 296.592 196.171 296.662 196.574L298.654 197.019C298.481 195.975 298.087 194.98 297.499 194.101C296.911 193.221 296.143 192.476 295.245 191.917C293.252 190.767 292.094 191.625 292.094 193.577C292.205 195.438 293.015 197.188 294.362 198.477V200.056L296.5 201.287V198.42Z" fill="#455A64"/>
<path d="M296.524 203.669C296.527 203.28 296.429 202.896 296.239 202.557C296.048 202.217 295.773 201.933 295.439 201.733C294.726 201.32 294.362 201.685 294.362 202.422C294.356 202.812 294.453 203.198 294.642 203.54C294.831 203.882 295.105 204.17 295.439 204.373C296.16 204.787 296.524 204.414 296.524 203.669Z" fill="#455A64"/>
<path d="M265.91 193.245L265.019 193.917L265.829 195.456C265.898 195.55 265.936 195.663 265.936 195.78C265.936 195.897 265.898 196.01 265.829 196.104C265.683 196.217 265.456 196.104 265.327 195.861L264.517 194.33L263.626 195.003C263.496 195.1 263.302 195.003 263.197 194.792C263.137 194.711 263.104 194.613 263.104 194.513C263.104 194.412 263.137 194.314 263.197 194.233L264.087 193.561L263.278 192.022C263.212 191.925 263.181 191.808 263.188 191.691C263.195 191.574 263.241 191.463 263.318 191.374C263.464 191.269 263.691 191.374 263.82 191.617L264.63 193.156L265.521 192.484C265.642 192.387 265.837 192.484 265.95 192.686C266.006 192.771 266.032 192.872 266.024 192.973C266.017 193.073 265.977 193.169 265.91 193.245Z" fill="#7209B7" fill-opacity="0.5"/>
<path d="M295.884 245.428C296.012 245.428 296.138 245.395 296.249 245.331C296.38 245.252 296.485 245.138 296.554 245.002C296.623 244.866 296.652 244.713 296.638 244.561V241.071C296.627 240.759 296.54 240.456 296.385 240.186C296.23 239.916 296.01 239.689 295.747 239.524L292.726 237.782C292.601 237.699 292.455 237.653 292.305 237.648C292.155 237.644 292.006 237.681 291.876 237.755C291.746 237.83 291.639 237.94 291.567 238.072C291.496 238.204 291.462 238.353 291.47 238.503V241.994C291.481 242.305 291.568 242.609 291.723 242.878C291.879 243.148 292.098 243.375 292.361 243.541L295.382 245.282C295.534 245.374 295.707 245.424 295.884 245.428ZM292.224 238.357C292.273 238.366 292.32 238.386 292.361 238.414L295.382 240.155C295.534 240.258 295.661 240.393 295.752 240.552C295.843 240.71 295.897 240.888 295.909 241.071V244.561C295.921 244.609 295.921 244.659 295.909 244.707C295.859 244.698 295.812 244.679 295.771 244.65L292.75 242.909C292.598 242.807 292.472 242.671 292.381 242.513C292.289 242.354 292.236 242.176 292.224 241.994V238.503C292.216 238.455 292.216 238.406 292.224 238.357Z" fill="#455A64"/>
<path d="M288.903 237.272L276.997 230.395C276.6 230.169 276.285 230.355 276.285 230.809V231.732C276.298 231.979 276.369 232.219 276.493 232.433C276.617 232.647 276.79 232.829 276.997 232.963L288.903 239.839C289.292 240.066 289.616 239.88 289.616 239.426V238.503C289.602 238.256 289.53 238.016 289.407 237.802C289.283 237.588 289.11 237.406 288.903 237.272Z" fill="#E0E0E0"/>
<path d="M266.379 228.395C266.507 228.397 266.633 228.363 266.744 228.298C266.876 228.221 266.983 228.107 267.054 227.971C267.124 227.835 267.154 227.682 267.141 227.529V224.038C267.128 223.727 267.04 223.423 266.883 223.153C266.727 222.883 266.506 222.656 266.242 222.491L263.221 220.75C263.094 220.664 262.947 220.614 262.795 220.604C262.643 220.594 262.491 220.625 262.354 220.693C262.222 220.78 262.116 220.902 262.048 221.044C261.979 221.187 261.951 221.346 261.965 221.503V224.994C261.976 225.305 262.063 225.609 262.218 225.878C262.374 226.148 262.593 226.375 262.856 226.541L265.877 228.282C266.032 228.362 266.205 228.402 266.379 228.395ZM262.727 221.325C262.773 221.336 262.817 221.356 262.856 221.382L265.877 223.123C266.03 223.225 266.158 223.36 266.25 223.519C266.343 223.677 266.398 223.855 266.412 224.038V227.529C266.426 227.576 266.426 227.627 266.412 227.675C266.363 227.664 266.316 227.645 266.274 227.618L263.221 225.877C263.069 225.774 262.943 225.639 262.851 225.48C262.76 225.321 262.706 225.144 262.694 224.961V221.471C262.688 221.42 262.7 221.368 262.727 221.325Z" fill="#455A64"/>
<path d="M259.398 220.239L247.492 213.363C247.095 213.144 246.78 213.323 246.78 213.776V214.699C246.793 214.946 246.864 215.187 246.988 215.401C247.112 215.615 247.285 215.796 247.492 215.931L259.398 222.807C259.795 223.033 260.111 222.847 260.111 222.394V221.47C260.093 221.224 260.02 220.986 259.897 220.772C259.773 220.559 259.603 220.377 259.398 220.239Z" fill="#E0E0E0"/>
<path d="M236.883 211.363C237.01 211.363 237.136 211.33 237.247 211.266C237.378 211.187 237.483 211.073 237.552 210.937C237.621 210.801 237.65 210.648 237.636 210.496V207.005C237.625 206.694 237.538 206.391 237.383 206.121C237.228 205.851 237.009 205.624 236.745 205.458L233.724 203.717C233.6 203.629 233.454 203.577 233.302 203.568C233.151 203.559 233 203.592 232.866 203.665C232.733 203.738 232.622 203.846 232.548 203.979C232.473 204.111 232.437 204.262 232.444 204.414V207.904C232.457 208.216 232.545 208.52 232.702 208.79C232.858 209.059 233.079 209.286 233.343 209.451L236.364 211.193C236.518 211.296 236.697 211.355 236.883 211.363ZM236.38 206.09C236.531 206.194 236.656 206.33 236.747 206.488C236.839 206.646 236.893 206.823 236.907 207.005V210.496C236.921 210.544 236.921 210.594 236.907 210.642C236.861 210.63 236.817 210.611 236.777 210.585L233.756 208.844C233.603 208.742 233.476 208.607 233.383 208.448C233.291 208.289 233.235 208.112 233.222 207.929V204.414C233.207 204.366 233.207 204.315 233.222 204.268C233.269 204.279 233.316 204.295 233.359 204.316L236.38 206.09Z" fill="#455A64"/>
<path d="M229.893 203.207L217.987 196.331C217.599 196.112 217.275 196.331 217.275 196.744V197.667C217.292 197.913 217.365 198.152 217.489 198.365C217.612 198.579 217.783 198.761 217.987 198.898L229.893 205.774C230.29 206.001 230.606 205.815 230.606 205.361V204.414C230.589 204.171 230.516 203.936 230.392 203.726C230.268 203.517 230.098 203.339 229.893 203.207Z" fill="#E0E0E0"/>
<path d="M288.871 220.231V221.6C288.871 222.337 288.352 222.637 287.712 222.272L218.06 182.085C217.722 181.866 217.44 181.569 217.239 181.22C217.038 180.871 216.922 180.479 216.902 180.076V178.707C216.902 177.97 217.42 177.663 218.06 178.035L287.712 218.223C288.049 218.444 288.329 218.741 288.53 219.089C288.731 219.438 288.848 219.829 288.871 220.231Z" fill="#E0E0E0"/>
<path d="M288.871 228.476V229.845C288.871 230.582 288.352 230.882 287.712 230.509L218.06 190.33C217.723 190.11 217.442 189.813 217.241 189.464C217.039 189.115 216.923 188.723 216.902 188.321V186.952C216.902 186.207 217.42 185.908 218.06 186.28L287.712 226.468C288.05 226.688 288.331 226.984 288.532 227.333C288.733 227.683 288.849 228.074 288.871 228.476Z" fill="#E0E0E0"/>
<path d="M296.5 229.181C294.678 227.375 294.224 226.605 294.224 225.941C294.224 225.277 294.491 224.913 295.309 225.39C295.663 225.596 295.967 225.877 296.201 226.212C296.435 226.548 296.592 226.931 296.662 227.334L298.654 227.772C298.48 226.729 298.085 225.736 297.498 224.857C296.91 223.979 296.142 223.236 295.245 222.677C293.252 221.527 292.094 222.386 292.094 224.297C292.205 226.158 293.015 227.908 294.362 229.197V230.776L296.5 232.007V229.181Z" fill="#455A64"/>
<path d="M296.524 234.429C296.528 234.039 296.43 233.654 296.24 233.313C296.049 232.972 295.773 232.687 295.439 232.485C294.726 232.08 294.362 232.445 294.362 233.182C294.357 233.573 294.454 233.958 294.643 234.3C294.832 234.642 295.106 234.929 295.439 235.134C296.16 235.547 296.524 235.19 296.524 234.429Z" fill="#455A64"/>
<path d="M236.405 206.973L235.522 207.645L236.332 209.184C236.403 209.277 236.441 209.391 236.441 209.508C236.441 209.625 236.403 209.739 236.332 209.832C236.186 209.946 235.959 209.832 235.83 209.589L235.02 208.05L234.129 208.723C233.999 208.82 233.813 208.723 233.7 208.52C233.639 208.44 233.605 208.342 233.605 208.241C233.605 208.14 233.639 208.042 233.7 207.961L234.591 207.289L233.781 205.75C233.719 205.651 233.69 205.536 233.697 205.42C233.704 205.304 233.748 205.193 233.821 205.102C233.967 204.989 234.194 205.102 234.323 205.345L235.133 206.884L236.024 206.204C236.154 206.107 236.348 206.204 236.453 206.414C236.508 206.5 236.532 206.601 236.524 206.702C236.515 206.803 236.473 206.898 236.405 206.973Z" fill="#7209B7" fill-opacity="0.5"/>
<path d="M295.884 276.188C296.012 276.189 296.138 276.155 296.249 276.091C296.38 276.012 296.485 275.898 296.554 275.762C296.623 275.626 296.652 275.473 296.638 275.322V271.831C296.627 271.52 296.54 271.216 296.385 270.947C296.23 270.677 296.01 270.449 295.747 270.284L292.726 268.535C292.598 268.453 292.451 268.405 292.299 268.396C292.147 268.388 291.996 268.419 291.859 268.486C291.726 268.572 291.619 268.693 291.55 268.836C291.482 268.979 291.454 269.138 291.47 269.296V272.787C291.483 273.097 291.571 273.4 291.726 273.669C291.881 273.939 292.099 274.167 292.361 274.334L295.382 276.075C295.537 276.155 295.71 276.194 295.884 276.188ZM292.224 269.118C292.272 269.126 292.319 269.142 292.361 269.166L295.382 270.916C295.534 271.018 295.661 271.154 295.752 271.312C295.843 271.471 295.897 271.648 295.909 271.831V275.322C295.921 275.369 295.921 275.42 295.909 275.467C295.861 275.454 295.815 275.435 295.771 275.411L292.75 273.669C292.598 273.567 292.472 273.432 292.381 273.273C292.289 273.114 292.236 272.937 292.224 272.754V269.263C292.215 269.215 292.215 269.166 292.224 269.118Z" fill="#455A64"/>
<path d="M288.903 268.032L276.997 261.156C276.6 260.929 276.285 261.116 276.285 261.569V262.493C276.298 262.739 276.369 262.98 276.493 263.194C276.617 263.408 276.79 263.589 276.997 263.724L288.903 270.6C289.292 270.827 289.616 270.6 289.616 270.187V269.263C289.602 269.017 289.53 268.777 289.407 268.563C289.283 268.349 289.11 268.167 288.903 268.032Z" fill="#E0E0E0"/>
<path d="M266.38 259.155C266.508 259.157 266.634 259.123 266.744 259.058C266.883 258.978 266.995 258.858 267.066 258.714C267.136 258.569 267.162 258.408 267.141 258.248V254.758C267.129 254.446 267.04 254.142 266.884 253.873C266.727 253.603 266.507 253.376 266.242 253.211L263.221 251.461C263.095 251.378 262.948 251.331 262.798 251.327C262.647 251.323 262.497 251.36 262.367 251.436C262.236 251.512 262.13 251.623 262.059 251.756C261.988 251.889 261.956 252.04 261.966 252.19V255.681C261.976 255.992 262.063 256.296 262.218 256.565C262.374 256.835 262.593 257.063 262.856 257.228L265.877 258.969C266.025 259.075 266.198 259.14 266.38 259.155ZM262.727 252.085C262.772 252.095 262.816 252.112 262.856 252.134L265.877 253.883C266.03 253.985 266.158 254.12 266.25 254.279C266.343 254.437 266.398 254.615 266.412 254.798V258.289C266.426 258.336 266.426 258.387 266.412 258.435C266.365 258.42 266.318 258.401 266.274 258.378L263.253 256.637C263.101 256.534 262.975 256.399 262.884 256.24C262.793 256.082 262.739 255.904 262.727 255.721V252.198C262.717 252.161 262.717 252.122 262.727 252.085Z" fill="#455A64"/>
<path d="M259.398 251L247.492 244.123C247.095 243.897 246.78 244.123 246.78 244.537V245.46C246.793 245.707 246.864 245.947 246.988 246.161C247.112 246.375 247.285 246.557 247.492 246.691L259.398 253.567C259.795 253.794 260.111 253.607 260.111 253.154V252.198C260.089 251.958 260.013 251.726 259.89 251.518C259.767 251.311 259.599 251.134 259.398 251Z" fill="#E0E0E0"/>
<path d="M236.883 242.123C237.01 242.124 237.136 242.09 237.247 242.026C237.378 241.947 237.483 241.833 237.552 241.697C237.621 241.561 237.65 241.408 237.636 241.257V237.766C237.625 237.455 237.538 237.151 237.383 236.881C237.228 236.612 237.009 236.384 236.745 236.219L233.724 234.47C233.594 234.387 233.446 234.34 233.293 234.331C233.14 234.323 232.987 234.354 232.849 234.421C232.717 234.508 232.611 234.63 232.543 234.772C232.474 234.915 232.446 235.073 232.46 235.231V238.722C232.474 239.033 232.563 239.336 232.72 239.606C232.876 239.875 233.096 240.102 233.359 240.268L236.38 242.01C236.535 242.091 236.708 242.13 236.883 242.123ZM236.38 236.851C236.531 236.954 236.656 237.09 236.747 237.249C236.839 237.407 236.893 237.584 236.907 237.766V241.257C236.921 241.304 236.921 241.355 236.907 241.402C236.862 241.386 236.819 241.367 236.777 241.346L233.756 239.604C233.603 239.503 233.476 239.367 233.383 239.209C233.291 239.05 233.235 238.872 233.222 238.689V235.19C233.206 235.143 233.206 235.092 233.222 235.045C233.269 235.055 233.316 235.072 233.359 235.093L236.38 236.851Z" fill="#455A64"/>
<path d="M229.893 233.967L217.987 227.091C217.599 226.864 217.275 227.051 217.275 227.504V228.428C217.292 228.674 217.365 228.912 217.489 229.126C217.612 229.339 217.783 229.521 217.987 229.659L229.893 236.535C230.29 236.762 230.606 236.535 230.606 236.122V235.19C230.592 234.945 230.52 234.706 230.396 234.494C230.272 234.281 230.1 234.101 229.893 233.967Z" fill="#E0E0E0"/>
<path d="M288.871 250.992V252.36C288.871 253.097 288.352 253.397 287.712 253.024L218.06 212.845C217.723 212.625 217.442 212.328 217.241 211.979C217.039 211.63 216.923 211.239 216.902 210.836V209.468C216.902 208.722 217.42 208.423 218.06 208.795L287.712 248.983C288.05 249.203 288.331 249.5 288.532 249.849C288.733 250.198 288.849 250.589 288.871 250.992Z" fill="#E0E0E0"/>
<path d="M288.871 259.237V260.605C288.871 261.342 288.352 261.642 287.712 261.27L218.06 221.09C217.724 220.869 217.443 220.572 217.242 220.223C217.041 219.875 216.925 219.483 216.902 219.081V217.713C216.902 216.968 217.42 216.668 218.06 217.04L287.712 257.228C288.05 257.448 288.331 257.745 288.532 258.094C288.733 258.443 288.849 258.834 288.871 259.237Z" fill="#E0E0E0"/>
<path d="M296.5 259.941C294.678 258.135 294.224 257.366 294.224 256.702C294.224 256.038 294.491 255.673 295.309 256.151C295.662 256.356 295.966 256.635 296.199 256.969C296.433 257.304 296.591 257.685 296.662 258.087L298.654 258.532C298.48 257.49 298.085 256.496 297.498 255.618C296.91 254.74 296.142 253.996 295.245 253.438C293.252 252.288 292.094 253.146 292.094 255.098C292.205 256.959 293.015 258.709 294.362 259.998V261.577L296.5 262.808V259.941Z" fill="#455A64"/>
<path d="M296.524 265.157C296.528 264.767 296.43 264.382 296.24 264.041C296.049 263.7 295.773 263.415 295.439 263.213C294.726 262.808 294.362 263.165 294.362 263.91C294.356 264.3 294.453 264.684 294.642 265.025C294.831 265.366 295.105 265.652 295.439 265.854C296.16 266.307 296.524 265.967 296.524 265.157Z" fill="#455A64"/>
<path d="M236.405 237.863L235.522 238.536L236.332 240.074C236.403 240.167 236.441 240.281 236.441 240.398C236.441 240.515 236.403 240.629 236.332 240.722C236.186 240.836 235.959 240.722 235.83 240.479L235.02 238.94L234.129 239.621C233.999 239.718 233.813 239.621 233.7 239.41C233.639 239.33 233.605 239.232 233.605 239.131C233.605 239.03 233.639 238.932 233.7 238.851L234.591 238.179L233.781 236.64C233.719 236.542 233.69 236.426 233.697 236.31C233.704 236.194 233.748 236.083 233.821 235.992C233.967 235.879 234.194 235.992 234.323 236.235L235.133 237.774L236.024 237.094C236.154 237.005 236.348 237.094 236.453 237.304C236.508 237.39 236.532 237.491 236.524 237.592C236.515 237.693 236.473 237.788 236.405 237.863Z" fill="#7209B7" fill-opacity="0.5"/>
<path d="M157.503 106.787L163.456 103.353L163.512 103.313C166.477 101.636 170.534 101.887 175.029 104.487C179.241 106.917 183.08 110.966 185.971 115.64C189.316 121.034 191.414 127.27 191.414 132.866C191.414 138.09 189.592 141.775 186.635 143.468L180.585 146.926C177.605 148.83 173.385 148.66 168.712 145.963C159.657 140.731 152.319 128.023 152.319 117.575C152.328 112.157 154.32 108.407 157.503 106.787Z" fill="#7209B7" fill-opacity="0.3"/>
<path opacity="0.1" d="M180.715 146.91L186.643 143.516C189.6 141.799 191.422 138.131 191.422 132.915C191.422 127.318 189.324 121.082 185.979 115.688L179.654 119.341C182.999 124.727 185.096 130.963 185.096 136.551C185.113 141.508 183.444 145.08 180.715 146.91Z" fill="black"/>
<path opacity="0.4" d="M157.624 106.722C160.54 105.305 164.436 105.661 168.72 108.132C173.005 110.602 176.771 114.611 179.67 119.308L185.995 115.656C183.104 110.966 179.257 106.925 175.054 104.503C170.559 101.903 166.501 101.66 163.537 103.329L163.48 103.369L157.624 106.722Z" fill="white"/>
<path d="M172.34 122.175C172.329 122.806 172.463 123.431 172.733 124.001C173.003 124.572 173.401 125.072 173.895 125.464C174.754 125.958 175.45 125.294 175.45 123.973C175.462 123.343 175.327 122.718 175.058 122.147C174.788 121.577 174.39 121.077 173.895 120.685C173.037 120.183 172.34 120.855 172.34 122.175Z" fill="#455A64"/>
<path d="M163.488 117.065C163.477 117.696 163.611 118.321 163.881 118.891C164.15 119.462 164.548 119.962 165.043 120.353C165.902 120.847 166.598 120.183 166.598 118.863C166.609 118.232 166.475 117.607 166.205 117.037C165.936 116.467 165.538 115.966 165.043 115.575C164.185 115.081 163.488 115.745 163.488 117.065Z" fill="#455A64"/>
<path d="M177.629 141.921C177.691 141.929 177.754 141.929 177.815 141.921C177.93 141.898 178.039 141.852 178.136 141.786C178.233 141.721 178.316 141.637 178.38 141.539C178.444 141.441 178.488 141.331 178.509 141.216C178.531 141.101 178.529 140.982 178.504 140.868C177.095 134.17 173.507 128.306 169.368 125.917C168.525 125.358 167.563 125.003 166.559 124.882C165.555 124.761 164.537 124.877 163.585 125.221C161.633 126.031 160.127 127.982 159.349 130.752C159.31 130.973 159.355 131.2 159.474 131.389C159.593 131.578 159.779 131.717 159.995 131.776C160.21 131.836 160.44 131.813 160.64 131.712C160.84 131.611 160.995 131.439 161.075 131.23C161.69 129.011 162.824 127.464 164.257 126.873C164.957 126.643 165.7 126.578 166.429 126.682C167.158 126.786 167.853 127.056 168.461 127.472C172.122 129.586 175.45 135.118 176.738 141.241C176.788 141.438 176.903 141.613 177.065 141.737C177.226 141.86 177.426 141.925 177.629 141.921Z" fill="#455A64"/>
<path d="M157.503 54.9694L163.456 51.5353H163.512C166.477 49.8588 170.534 50.1099 175.029 52.7097C179.241 55.1394 183.08 59.189 185.971 63.8622C189.316 69.2562 191.414 75.4925 191.414 81.0889C191.414 86.3129 189.592 89.998 186.635 91.6907L180.585 95.149C177.605 97.0523 173.385 96.8822 168.712 94.1852C159.657 88.9532 152.319 76.2457 152.319 65.8384C152.328 60.3391 154.32 56.5892 157.503 54.9694Z" fill="#7209B7" fill-opacity="0.3"/>
<path opacity="0.1" d="M180.715 95.076L186.643 91.6825C189.6 89.9655 191.422 86.2966 191.422 81.0808C191.422 75.4843 189.324 69.248 185.979 63.854L179.654 67.5067C182.999 72.8926 185.096 79.1289 185.096 84.7173C185.113 89.6901 183.444 93.2618 180.715 95.076Z" fill="black"/>
<path opacity="0.4" d="M157.624 54.9044C160.54 53.4871 164.436 53.8434 168.72 56.3137C173.005 58.7839 176.771 62.7929 179.67 67.4904L185.995 63.8377C183.104 59.1484 179.257 55.1069 175.054 52.6853C170.559 50.0855 166.501 49.8425 163.537 51.5109H163.48L157.624 54.9044Z" fill="white"/>
<path d="M172.438 87.5355C173.207 87.5376 173.969 87.3891 174.681 87.0981C176.795 86.2315 178.415 84.1177 179.249 81.1291C179.305 80.8872 179.266 80.6329 179.14 80.4192C179.013 80.2055 178.809 80.0489 178.57 79.982C178.33 79.9152 178.075 79.9433 177.856 80.0604C177.637 80.1775 177.471 80.3747 177.394 80.6108C176.722 83.0405 175.499 84.6603 173.952 85.3163C173.196 85.5688 172.391 85.6423 171.601 85.5313C170.811 85.4203 170.058 85.1277 169.4 84.6765C165.456 82.4007 161.86 76.4235 160.491 69.8147C160.437 69.5654 160.287 69.3476 160.073 69.2082C159.859 69.0688 159.599 69.019 159.349 69.0696C159.225 69.0956 159.108 69.1457 159.003 69.2172C158.899 69.2887 158.809 69.3801 158.74 69.4861C158.671 69.5922 158.623 69.7108 158.6 69.8353C158.577 69.9598 158.578 70.0876 158.604 70.2115C160.127 77.4359 163.998 83.7694 168.461 86.353C169.661 87.0857 171.032 87.4933 172.438 87.5355Z" fill="#455A64"/>
<path d="M172.616 71.4996C172.604 72.1811 172.749 72.8562 173.04 73.4727C173.33 74.0892 173.759 74.6306 174.292 75.0551C175.224 75.5896 175.969 74.8688 175.969 73.4353C175.982 72.7546 175.838 72.0801 175.547 71.4646C175.256 70.8492 174.827 70.3094 174.292 69.8879C173.369 69.3533 172.616 70.0741 172.616 71.4996Z" fill="#455A64"/>
<path d="M163.059 65.9842C163.047 66.6645 163.192 67.3384 163.483 67.9536C163.774 68.5688 164.202 69.1088 164.735 69.5316C165.659 70.0661 166.412 69.3453 166.412 67.9118C166.424 67.2314 166.278 66.5575 165.988 65.9423C165.697 65.3272 165.268 64.7872 164.735 64.3644C163.812 63.8298 163.059 64.5587 163.059 65.9842Z" fill="#455A64"/>
<path d="M55.276 126.257C56.025 125.896 56.8484 125.716 57.6799 125.731C58.5114 125.747 59.3276 125.958 60.0626 126.347L133.878 168.964C134.59 169.437 135.18 170.07 135.602 170.813C136.024 171.555 136.266 172.387 136.307 173.24V194.298C136.339 195.14 136.141 195.975 135.734 196.713C135.326 197.451 134.725 198.064 133.995 198.486C133.265 198.907 132.434 199.122 131.592 199.106C130.749 199.09 129.926 198.845 129.213 198.396L55.3975 155.779C54.6857 155.306 54.0949 154.673 53.6729 153.93C53.2508 153.187 53.0093 152.356 52.9678 151.502V130.445C52.9973 129.615 53.2216 128.803 53.6226 128.076C54.0235 127.348 54.5899 126.726 55.276 126.257Z" fill="#263238"/>
<path d="M52.9922 129.999C53.1946 128.752 54.207 128.315 55.4219 129.027L86.1984 146.789L129.237 171.637C129.968 172.09 130.57 172.723 130.986 173.475L135.619 170.803C135.203 170.05 134.604 169.415 133.878 168.956L60.0627 126.347C59.3829 125.916 58.6021 125.67 57.798 125.634C56.9938 125.599 56.1944 125.775 55.4792 126.144C54.7641 126.513 54.1581 127.064 53.7218 127.74C53.2854 128.417 53.0339 129.195 52.9922 129.999Z" fill="#455A64"/>
<path d="M131.715 175.913V196.97C131.715 198.542 130.606 199.181 129.245 198.396L55.43 155.778C54.7182 155.306 54.1274 154.673 53.7053 153.93C53.2833 153.187 53.0417 152.355 53.0002 151.502V130.444C53.0002 128.873 54.1017 128.233 55.43 129.019L86.2065 146.788L129.253 171.636C129.971 172.106 130.567 172.738 130.995 173.481C131.423 174.223 131.67 175.057 131.715 175.913Z" fill="#37474F"/>
<path d="M119.162 172.827L117.955 175.386C117.941 175.423 117.919 175.457 117.892 175.485C117.864 175.513 117.831 175.534 117.794 175.549C117.758 175.563 117.719 175.57 117.679 175.569C117.64 175.567 117.601 175.557 117.566 175.54L114.869 174.512C114.44 174.342 114.27 174.949 114.578 175.532L116.529 179.193C116.647 179.405 116.7 179.647 116.683 179.889L116.222 183.21C116.149 183.737 116.594 184.425 116.975 184.376L119.405 184.077C119.502 184.081 119.598 184.109 119.682 184.159C119.767 184.208 119.838 184.277 119.891 184.36L122.32 187.446C122.701 187.932 123.13 187.754 123.073 187.146L122.612 183.299C122.592 183.206 122.595 183.108 122.622 183.016C122.649 182.925 122.698 182.841 122.766 182.773L124.718 181.364C125.025 181.137 124.855 180.335 124.426 180.011L121.729 177.93C121.54 177.772 121.404 177.56 121.34 177.322L120.133 173.37C119.866 172.746 119.356 172.43 119.162 172.827Z" fill="#7209B7" fill-opacity="0.7"/>
<path d="M105.515 165.02L104.308 167.579C104.295 167.617 104.274 167.651 104.247 167.68C104.219 167.708 104.186 167.731 104.149 167.745C104.112 167.76 104.072 167.766 104.033 167.764C103.993 167.762 103.954 167.751 103.919 167.733L101.222 166.704C100.793 166.534 100.623 167.142 100.931 167.725L102.858 171.386C102.976 171.601 103.03 171.845 103.012 172.09L102.55 175.403C102.477 175.929 102.923 176.618 103.304 176.569L105.733 176.277C105.831 176.278 105.927 176.304 106.012 176.352C106.097 176.4 106.168 176.469 106.219 176.553L108.649 179.639C109.03 180.125 109.459 179.954 109.402 179.339L108.941 175.492C108.92 175.398 108.924 175.301 108.951 175.209C108.978 175.117 109.027 175.033 109.094 174.965L111.046 173.556C111.354 173.329 111.184 172.536 110.755 172.204L108.058 170.122C107.869 169.964 107.733 169.752 107.669 169.515L106.462 165.562C106.26 164.931 105.709 164.615 105.515 165.02Z" fill="#7209B7" fill-opacity="0.7"/>
<path d="M91.8677 157.212L90.6609 159.771C90.6469 159.808 90.6254 159.841 90.5977 159.869C90.5701 159.897 90.537 159.919 90.5004 159.934C90.4638 159.948 90.4247 159.955 90.3854 159.954C90.3461 159.952 90.3075 159.942 90.2721 159.925L87.5751 158.889C87.1459 158.727 86.9758 159.326 87.2836 159.909L89.2355 163.57C89.3528 163.785 89.4062 164.03 89.3893 164.274L88.9277 167.587C88.8548 168.113 89.3003 168.81 89.6809 168.761L92.1106 168.462C92.2085 168.466 92.3038 168.494 92.3884 168.544C92.473 168.593 92.5444 168.662 92.5966 168.745L95.0263 171.823C95.407 172.317 95.8362 172.139 95.7795 171.531L95.3179 167.684C95.2977 167.589 95.3012 167.491 95.328 167.398C95.3549 167.304 95.4042 167.219 95.4718 167.15L97.4236 165.74C97.7314 165.522 97.5613 164.72 97.1321 164.388L94.4351 162.306C94.2462 162.149 94.1105 161.937 94.0463 161.699L92.8396 157.747C92.6128 157.123 92.062 156.799 91.8677 157.212Z" fill="#7209B7" fill-opacity="0.7"/>
<path d="M78.2206 149.396L77.0138 151.956C76.9998 151.992 76.9783 152.026 76.9507 152.054C76.923 152.082 76.8899 152.104 76.8533 152.118C76.8167 152.133 76.7776 152.139 76.7383 152.138C76.699 152.136 76.6604 152.127 76.625 152.11L73.9281 151.073C73.4988 150.911 73.3287 151.51 73.6365 152.093L75.5884 155.754C75.7057 155.97 75.7591 156.214 75.7422 156.459L75.2806 159.771C75.2077 160.298 75.6532 160.994 76.0338 160.946L78.4636 160.646C78.5614 160.651 78.6567 160.679 78.7413 160.728C78.8259 160.777 78.8974 160.847 78.9495 160.929L81.3792 164.007C81.7599 164.501 82.1891 164.323 82.1324 163.716L81.6708 159.868C81.6506 159.775 81.654 159.678 81.6809 159.586C81.7078 159.494 81.7572 159.41 81.8247 159.342L83.7766 157.933C84.0843 157.706 83.9142 156.904 83.485 156.572L80.788 154.499C80.6025 154.338 80.4675 154.127 80.3992 153.891L79.1925 149.939C78.9657 149.34 78.4149 148.991 78.2206 149.396Z" fill="#7209B7" fill-opacity="0.7"/>
<path d="M64.5737 141.581L63.3669 144.14C63.3529 144.177 63.3314 144.21 63.3037 144.238C63.2761 144.266 63.2429 144.288 63.2064 144.303C63.1698 144.317 63.1306 144.324 63.0913 144.322C63.052 144.321 63.0135 144.311 62.9781 144.294L60.2811 143.265C59.8519 143.095 59.6818 143.703 59.9896 144.286L61.9415 147.947C62.059 148.159 62.1125 148.401 62.0953 148.643L61.6337 151.964C61.5608 152.49 62.0062 153.179 62.3869 153.13L64.8166 152.83C64.9145 152.835 65.0098 152.863 65.0944 152.913C65.179 152.962 65.2504 153.031 65.3026 153.114L67.7323 156.2C68.113 156.686 68.5422 156.507 68.4855 155.9L68.0239 152.053C68.0036 151.959 68.0071 151.862 68.034 151.77C68.0609 151.678 68.1103 151.594 68.1777 151.527L70.0972 150.15C70.405 149.923 70.2349 149.121 69.8057 148.797L67.1087 146.716C66.9198 146.558 66.7841 146.346 66.7199 146.108L65.5132 142.156C65.3188 141.492 64.7923 141.176 64.5737 141.581Z" fill="#7209B7" fill-opacity="0.7"/>
<path d="M121.195 159.358L125.244 157.026C125.325 156.99 125.392 156.931 125.439 156.856L126.184 155.56L123.754 154.175L123.827 154.385L121.195 159.358Z" fill="#7209B7" fill-opacity="0.7"/>
<path opacity="0.2" d="M121.195 159.358L125.244 157.026C125.325 156.99 125.392 156.931 125.439 156.856L126.184 155.56L123.754 154.175L123.827 154.385L121.195 159.358Z" fill="black"/>
<path d="M124.135 154.369L121.332 159.229C121.293 159.299 121.235 159.356 121.163 159.393C121.092 159.43 121.012 159.446 120.932 159.438C120.852 159.431 120.776 159.4 120.713 159.35C120.651 159.299 120.604 159.232 120.579 159.156L117.623 150.627L124.135 154.369Z" fill="#7209B7" fill-opacity="0.7"/>
<path d="M53.4538 86.6529C53.4893 85.9758 53.6847 85.3168 54.0239 84.7297C54.3632 84.1427 54.8367 83.6444 55.4057 83.2756C56.0115 82.972 56.6799 82.814 57.3575 82.814C58.0352 82.814 58.7036 82.972 59.3094 83.2756L134.356 126.581C134.924 126.953 135.397 127.453 135.736 128.041C136.075 128.629 136.271 129.289 136.307 129.967V154.669C136.271 155.347 136.075 156.007 135.736 156.595C135.397 157.183 134.924 157.683 134.356 158.055C133.751 158.362 133.082 158.522 132.404 158.522C131.725 158.522 131.057 158.362 130.452 158.055L55.2194 114.627C53.4619 113.623 53.4457 112.619 53.4457 111.388L53.4538 86.6529Z" fill="#7209B7" fill-opacity="0.7"/>
<path opacity="0.2" d="M136.34 154.661C136.303 155.339 136.107 155.999 135.768 156.587C135.429 157.175 134.956 157.675 134.388 158.046C133.839 158.326 133.236 158.486 132.62 158.516C132.005 158.545 131.39 158.443 130.816 158.217C131.731 158.565 132.436 158.038 132.436 156.921V132.21C132.414 131.532 132.215 130.87 131.861 130.291L135.773 128.031C136.121 128.616 136.316 129.279 136.34 129.959V154.661Z" fill="black"/>
<path opacity="0.4" d="M53.5427 86.1022C53.7695 85.2922 54.5308 85.0088 55.4298 85.5271L130.484 128.833C131.063 129.189 131.538 129.692 131.861 130.291L135.765 128.031C135.435 127.437 134.962 126.936 134.388 126.573L59.3417 83.2756C58.7369 82.9683 58.0682 82.8081 57.3898 82.8081C56.7115 82.8081 56.0427 82.9683 55.438 83.2756C54.9461 83.5926 54.5242 84.0069 54.1983 84.493C53.8724 84.9791 53.6493 85.5267 53.5427 86.1022Z" fill="white"/>
<path d="M127.156 132.648L59.763 93.6585C59.107 93.2859 58.5724 93.456 58.5724 94.0472C58.6208 94.4115 58.7536 94.7593 58.9603 95.0631C59.167 95.3668 59.4419 95.618 59.763 95.7966L127.156 134.761C127.803 135.142 128.338 134.972 128.338 134.381C128.287 134.021 128.154 133.677 127.949 133.376C127.744 133.076 127.472 132.826 127.156 132.648Z" fill="white"/>
<path d="M127.156 143.67L69.3523 110.302C68.6963 109.921 68.1699 110.092 68.1699 110.683C68.2174 111.047 68.3489 111.396 68.5541 111.701C68.7593 112.006 69.0326 112.259 69.3523 112.44L127.156 145.8C127.803 146.181 128.338 146.003 128.338 145.412C128.284 145.051 128.15 144.708 127.945 144.406C127.74 144.105 127.471 143.853 127.156 143.67Z" fill="white"/>
<path d="M127.156 149.032L61.1398 110.869C60.4919 110.488 59.9574 110.667 59.9574 111.258C60.0101 111.62 60.1439 111.965 60.3486 112.268C60.5534 112.571 60.8238 112.823 61.1398 113.007L127.156 151.162C127.803 151.543 128.338 151.373 128.338 150.781C128.289 150.418 128.157 150.071 127.952 149.768C127.747 149.464 127.474 149.213 127.156 149.032Z" fill="white"/>
<path d="M127.156 138.001L61.1398 99.8383C60.4919 99.4577 59.9574 99.6359 59.9574 100.227C60.0067 100.59 60.139 100.937 60.3441 101.24C60.5492 101.543 60.8215 101.795 61.1398 101.977L127.156 140.172C127.803 140.544 128.338 140.374 128.338 139.783C128.294 139.414 128.164 139.061 127.959 138.751C127.753 138.442 127.478 138.185 127.156 138.001Z" fill="white"/>
<path d="M55.276 44.2057C56.025 43.8444 56.8484 43.6642 57.6799 43.6796C58.5114 43.6951 59.3276 43.9058 60.0626 44.2948L133.878 86.9042C134.588 87.3781 135.178 88.0116 135.6 88.7541C136.022 89.4967 136.264 90.3276 136.307 91.1805V112.238C136.339 113.08 136.141 113.916 135.734 114.653C135.326 115.391 134.725 116.004 133.995 116.426C133.265 116.847 132.434 117.062 131.592 117.046C130.749 117.03 129.926 116.785 129.213 116.336L55.3975 73.7188C54.6857 73.2463 54.0949 72.6131 53.6729 71.8703C53.2508 71.1275 53.0093 70.2959 52.9678 69.4425V48.3849C52.9985 47.5562 53.2234 46.7464 53.6243 46.0205C54.0252 45.2946 54.591 44.673 55.276 44.2057Z" fill="#263238"/>
<path d="M52.9922 47.9471C53.1946 46.6998 54.207 46.2625 55.4219 46.9671L86.1984 64.7284L129.237 89.5765C129.966 90.0353 130.568 90.6703 130.986 91.4231L135.619 88.7504C135.206 87.9965 134.606 87.3609 133.878 86.9038L60.0627 44.2944C59.3829 43.8633 58.6021 43.6177 57.798 43.5821C56.9938 43.5466 56.1944 43.7223 55.4792 44.0917C54.7641 44.4612 54.1581 45.0115 53.7218 45.6879C53.2854 46.3643 53.0339 47.1432 52.9922 47.9471Z" fill="#455A64"/>
<path d="M131.715 93.861V114.919C131.715 116.49 130.606 117.13 129.245 116.344L55.43 73.7267C54.7182 73.2542 54.1274 72.6209 53.7053 71.8781C53.2833 71.1353 53.0417 70.3037 53.0002 69.4503V48.3927C53.0002 46.8215 54.1017 46.1816 55.43 46.9672L86.2065 64.7286L129.253 89.5847C129.971 90.0541 130.567 90.6858 130.995 91.4288C131.423 92.1717 131.67 93.0049 131.715 93.861Z" fill="#37474F"/>
<path d="M119.162 90.7834L117.955 93.3427C117.941 93.3795 117.919 93.4129 117.892 93.4409C117.864 93.4688 117.831 93.4908 117.794 93.5052C117.758 93.5197 117.719 93.5264 117.679 93.5249C117.64 93.5234 117.601 93.5138 117.566 93.4966L114.869 92.4599C114.44 92.2979 114.27 92.9054 114.578 93.4804L116.529 97.1412C116.647 97.3566 116.7 97.6011 116.683 97.8458L116.222 101.158C116.149 101.685 116.594 102.381 116.975 102.333L119.405 102.033C119.502 102.038 119.598 102.066 119.682 102.115C119.767 102.164 119.838 102.234 119.891 102.317L122.32 105.394C122.701 105.888 123.13 105.71 123.073 105.103L122.612 101.256C122.592 101.162 122.595 101.065 122.622 100.973C122.649 100.881 122.698 100.797 122.766 100.729L124.718 99.3199C125.025 99.0931 124.855 98.2913 124.426 97.9592L121.729 95.8858C121.542 95.7264 121.407 95.515 121.34 95.2784L120.133 91.326C119.866 90.6943 119.356 90.3785 119.162 90.7834Z" fill="white"/>
<path d="M105.515 82.968L104.308 85.5273C104.294 85.564 104.272 85.5974 104.245 85.6254C104.217 85.6534 104.184 85.6753 104.147 85.6898C104.111 85.7043 104.072 85.711 104.032 85.7095C103.993 85.708 103.954 85.6984 103.919 85.6812L101.222 84.6526C100.793 84.4825 100.623 85.0899 100.931 85.6731L102.858 89.3339C102.976 89.5463 103.029 89.7882 103.012 90.0304L102.55 93.351C102.477 93.8775 102.923 94.5659 103.304 94.5173L105.733 94.2176C105.831 94.2222 105.926 94.2503 106.011 94.2997C106.096 94.3491 106.167 94.4182 106.219 94.5011L108.649 97.5869C109.03 98.0728 109.459 97.9027 109.402 97.2872L108.941 93.4401C108.92 93.3465 108.924 93.2493 108.951 93.1574C108.978 93.0654 109.027 92.9817 109.094 92.9137L111.046 91.5044C111.354 91.2776 111.184 90.4758 110.755 90.1519L108.058 88.0704C107.869 87.9126 107.733 87.7006 107.669 87.463L106.462 83.5106C106.26 82.8789 105.709 82.563 105.515 82.968Z" fill="white"/>
<path d="M91.8677 75.1524L90.6609 77.7198C90.6469 77.7566 90.6254 77.79 90.5977 77.818C90.5701 77.846 90.537 77.8679 90.5004 77.8824C90.4638 77.8968 90.4247 77.9035 90.3854 77.9021C90.3461 77.9006 90.3075 77.8909 90.2721 77.8737L87.5751 76.837C87.1459 76.6751 86.9758 77.2744 87.2836 77.8575L89.2355 81.5183C89.3537 81.7334 89.4071 81.9781 89.3893 82.2229L88.9277 85.5355C88.8548 86.0619 89.3003 86.7503 89.6809 86.7098L92.1106 86.4102C92.2084 86.411 92.3043 86.4367 92.3893 86.4849C92.4743 86.5331 92.5456 86.6021 92.5966 86.6855L95.0263 89.7713C95.407 90.2572 95.8362 90.0872 95.7795 89.4716L95.3179 85.6246C95.2984 85.5309 95.3022 85.4339 95.3291 85.3421C95.3559 85.2503 95.4049 85.1665 95.4718 85.0981L97.4236 83.6889C97.7314 83.4702 97.5613 82.6684 97.1321 82.3363L94.4351 80.2549C94.2462 80.0971 94.1105 79.885 94.0463 79.6474L92.8396 75.6951C92.6128 75.0714 92.062 74.7475 91.8677 75.1524Z" fill="white"/>
<path d="M78.2206 67.3446L77.0138 69.9039C76.9998 69.9406 76.9783 69.9741 76.9507 70.002C76.923 70.03 76.8899 70.0519 76.8533 70.0664C76.8167 70.0809 76.7776 70.0876 76.7383 70.0861C76.699 70.0846 76.6604 70.075 76.625 70.0578L73.9281 69.0211C73.4988 68.8591 73.3287 69.4585 73.6365 70.0416L75.5884 73.7024C75.7057 73.9178 75.7591 74.1623 75.7422 74.407L75.2806 77.7195C75.2077 78.246 75.6532 78.9425 76.0338 78.8939L78.4636 78.5942C78.5614 78.5988 78.6567 78.627 78.7413 78.6763C78.8259 78.7257 78.8974 78.7948 78.9495 78.8777L81.3792 81.9554C81.7599 82.4494 82.1891 82.2712 82.1324 81.6638L81.6708 77.8167C81.6432 77.7202 81.6406 77.6183 81.6633 77.5205C81.6859 77.4228 81.7331 77.3324 81.8004 77.2579L83.7523 75.8486C84.06 75.63 83.8899 74.8282 83.4607 74.4961L80.7637 72.4227C80.5765 72.2601 80.4413 72.0461 80.3749 71.8072L79.1682 67.8548C78.9657 67.2555 78.4149 66.9315 78.2206 67.3446Z" fill="white"/>
<path d="M64.5737 59.5291L63.3669 62.0884C63.3529 62.1251 63.3314 62.1585 63.3038 62.1865C63.2762 62.2145 63.243 62.2364 63.2064 62.2509C63.1699 62.2654 63.1307 62.2721 63.0914 62.2706C63.0521 62.2691 63.0136 62.2594 62.9782 62.2423L60.2812 61.2056C59.8519 61.0436 59.6819 61.651 59.9896 62.2261L61.9415 65.9192C62.0589 66.1347 62.1123 66.3791 62.0954 66.6239L61.6338 69.9364C61.5609 70.4628 62.0063 71.1594 62.387 71.1108L64.8167 70.8111C64.9145 70.8157 65.0098 70.8438 65.0945 70.8932C65.1791 70.9425 65.2505 71.0116 65.3026 71.0946L67.7324 74.1722C68.113 74.6663 68.5423 74.4881 68.4856 73.8807L68.0239 70.0336C68.0037 69.94 68.0072 69.8428 68.0341 69.7508C68.0609 69.6589 68.1103 69.5751 68.1778 69.5071L70.1297 68.0979C70.4375 67.8711 70.2674 67.0693 69.8381 66.7373L67.1411 64.6639C66.9523 64.5061 66.8165 64.294 66.7524 64.0565L65.5456 60.1041C65.3188 59.44 64.7924 59.1241 64.5737 59.5291Z" fill="#455A64"/>
<path d="M121.195 77.3065L125.244 74.9739C125.325 74.9381 125.392 74.8788 125.439 74.8038L126.184 73.508L123.754 72.123L123.827 72.3336L121.195 77.3065Z" fill="#7209B7" fill-opacity="0.7"/>
<path opacity="0.2" d="M121.195 77.3065L125.244 74.9739C125.325 74.9381 125.392 74.8788 125.439 74.8038L126.184 73.508L123.754 72.123L123.827 72.3336L121.195 77.3065Z" fill="black"/>
<path d="M124.135 72.3175L121.332 77.1769C121.293 77.247 121.235 77.3042 121.163 77.3414C121.092 77.3787 121.012 77.3944 120.932 77.3867C120.852 77.379 120.776 77.3481 120.713 77.2979C120.651 77.2477 120.604 77.1803 120.579 77.104L117.623 68.5757L124.135 72.3175Z" fill="#7209B7" fill-opacity="0.7"/>
<path d="M53.454 4.60094C53.4908 3.92305 53.6866 3.26334 54.0257 2.6752C54.3648 2.08706 54.8376 1.58701 55.4058 1.21551C56.0106 0.908215 56.6794 0.748047 57.3577 0.748047C58.0361 0.748047 58.7049 0.908215 59.3096 1.21551L134.388 44.5214C134.956 44.8929 135.429 45.3929 135.768 45.9811C136.107 46.5692 136.303 47.2289 136.34 47.9068V72.609C136.303 73.2869 136.107 73.9466 135.768 74.5348C135.429 75.1229 134.956 75.623 134.388 75.9945C133.783 76.3018 133.115 76.4619 132.436 76.4619C131.758 76.4619 131.089 76.3018 130.484 75.9945L55.252 32.559C53.4945 31.5628 53.4783 30.5585 53.4783 29.3194L53.454 4.60094Z" fill="#7209B7" fill-opacity="0.7"/>
<path opacity="0.2" d="M136.34 72.6088C136.303 73.2867 136.107 73.9464 135.768 74.5346C135.429 75.1227 134.956 75.6228 134.388 75.9943C133.839 76.2748 133.236 76.4345 132.62 76.4624C132.004 76.4903 131.389 76.3859 130.816 76.1562C131.731 76.5045 132.436 75.9862 132.436 74.8685V50.1581C132.412 49.477 132.214 48.8133 131.861 48.2306L135.773 45.979C136.121 46.5637 136.316 47.2266 136.34 47.9066V72.6088Z" fill="black"/>
<path opacity="0.4" d="M53.5427 4.05022C53.7695 3.24031 54.5308 2.95685 55.4298 3.47519L130.484 46.781C131.063 47.1373 131.538 47.6402 131.861 48.2389L135.765 45.9792C135.435 45.3855 134.962 44.8842 134.388 44.5214L59.3417 1.21554C58.7358 0.911972 58.0675 0.753906 57.3898 0.753906C56.7121 0.753906 56.0438 0.911972 55.438 1.21554C54.9452 1.53351 54.5227 1.94908 54.1968 2.43662C53.8708 2.92416 53.6482 3.47332 53.5427 4.05022Z" fill="white"/>
<path d="M127.156 50.5877L59.763 11.6067C59.107 11.2342 58.5724 11.4043 58.5724 11.9955C58.6208 12.3597 58.7536 12.7076 58.9603 13.0113C59.167 13.3151 59.4419 13.5663 59.763 13.7449L127.156 52.7258C127.803 53.1065 128.338 52.9364 128.338 52.3452C128.286 51.982 128.153 51.6352 127.948 51.3308C127.744 51.0264 127.473 50.7723 127.156 50.5877Z" fill="white"/>
<path d="M127.156 61.6104L69.3523 28.2421C68.6963 27.8614 68.1699 28.0315 68.1699 28.6227C68.2167 28.9864 68.3481 29.334 68.5534 29.6378C68.7587 29.9416 69.0323 30.1931 69.3523 30.3722L127.156 63.7485C127.803 64.1211 128.338 63.951 128.338 63.3598C128.289 62.9969 128.156 62.6502 127.951 62.3468C127.746 62.0434 127.474 61.7914 127.156 61.6104Z" fill="white"/>
<path d="M127.156 66.9721L61.1398 28.8172C60.4919 28.4366 59.9574 28.6148 59.9574 29.1979C60.009 29.5611 60.1422 29.9079 60.347 30.2123C60.5518 30.5167 60.8228 30.7707 61.1398 30.9554L127.156 69.1102C127.803 69.4909 128.338 69.3208 128.338 68.7296C128.286 68.3664 128.153 68.0196 127.948 67.7152C127.744 67.4108 127.473 67.1567 127.156 66.9721Z" fill="white"/>
<path d="M127.156 55.9817L61.1398 17.8188C60.4919 17.4382 59.9574 17.6163 59.9574 18.2076C60.0101 18.5693 60.1439 18.9145 60.3486 19.2174C60.5534 19.5203 60.8238 19.7731 61.1398 19.957L127.156 58.1118C127.803 58.4925 128.338 58.3224 128.338 57.7312C128.289 57.3681 128.157 57.0212 127.952 56.7177C127.747 56.4142 127.474 56.1623 127.156 55.9817Z" fill="white"/>
<path d="M99.1494 204.818L70.7621 199.254C70.5829 199.225 70.3991 199.251 70.2355 199.33C70.072 199.409 69.9367 199.536 69.8482 199.695C69.7597 199.853 69.7221 200.035 69.7407 200.216C69.7593 200.397 69.8332 200.567 69.9522 200.704L89.2037 222.507L99.1494 204.818Z" fill="#FFA8A7"/>
<path d="M69.9359 200.704C69.8169 200.567 69.7431 200.397 69.7245 200.216C69.7059 200.035 69.7434 199.853 69.8319 199.695C69.9205 199.536 70.0557 199.409 70.2193 199.33C70.3828 199.251 70.5666 199.225 70.7458 199.254L76.3018 200.364C75.5412 200.835 74.9254 201.507 74.5224 202.306C74.1194 203.105 73.9448 204 74.0178 204.891V205.393L69.9359 200.704Z" fill="#7209B7" fill-opacity="0.3"/>
<path d="M195.035 283.21L192.718 281.873L189.908 280.253L89.1957 222.483C88.2719 219.355 88.5611 215.995 90.0056 213.071C92.0222 208.568 95.926 204.972 99.1656 204.802L199.797 262.565L205.15 265.635C201.571 263.837 191.471 281.355 195.035 283.21Z" fill="#37474F"/>
<path d="M186.182 278.164L180.999 275.183C179.468 274.373 180.343 270.607 182.133 266.72C184.506 261.553 189.163 256.547 191.196 257.625L195.018 259.819L196.371 260.629C194.338 259.552 189.673 264.549 187.308 269.725C185.599 273.45 184.724 277.07 186.028 278.059C186.069 278.107 186.122 278.143 186.182 278.164Z" fill="#EBEBEB"/>
<path d="M184.894 277.411C181.339 275.524 191.52 257.973 195.083 259.868L200.275 262.832C196.719 260.953 186.506 278.488 190.094 280.375L184.894 277.411Z" fill="#7209B7" fill-opacity="0.3"/>
<path d="M195.035 283.21L189.908 280.278C186.401 278.448 196.088 261.439 199.797 262.565C199.871 262.579 199.943 262.607 200.007 262.646L205.15 265.635C201.571 263.837 191.471 281.355 195.035 283.21Z" fill="#EBEBEB"/>
<path opacity="0.15" d="M69.8063 199.748L70.762 199.254L91.358 210.52L197.861 271.636C198.064 271.32 198.226 271.296 198.355 271.515C195.326 276.236 193.042 282.181 195.034 283.218L192.718 281.881L189.908 280.262L89.1955 222.491L69.944 200.688C69.825 200.566 69.7477 200.409 69.723 200.24C69.6983 200.072 69.7274 199.9 69.8063 199.748Z" fill="black"/>
<path d="M216.797 295.658L195.035 283.209C193.512 282.399 194.354 278.69 196.112 274.827C198.469 269.651 203.109 264.598 205.15 265.634L227.002 278.115C231.343 280.618 227.35 290.029 222.515 294.24C220.717 295.852 218.676 296.557 216.797 295.658Z" fill="#F28F8F"/>
<path opacity="0.1" d="M215.501 288.911C216.748 284.003 220.717 279.193 224.369 278.164C224.906 277.974 225.48 277.916 226.043 277.993C226.607 278.071 227.144 278.282 227.609 278.609C230.849 281.647 227.066 290.28 222.49 294.265C220.733 295.82 218.765 296.517 216.886 295.699C215.282 294.743 214.626 292.232 215.501 288.911Z" fill="black"/>
</svg>
