<svg width="374" height="347" viewBox="0 0 374 347" fill="none" xmlns="http://www.w3.org/2000/svg">
<path d="M187 346.874C83.7227 346.874 0 298.534 0 238.905C0 179.275 83.7227 130.936 187 130.936C290.277 130.936 374 179.275 374 238.905C374 298.534 290.277 346.874 187 346.874Z" fill="#F5F5F5"/>
<path d="M321.899 307.213L324.442 305.714C324.863 305.436 325.213 305.064 325.465 304.627C325.716 304.189 325.863 303.699 325.891 303.196V114.705C325.861 114.203 325.715 113.715 325.463 113.279C325.211 112.843 324.862 112.472 324.442 112.195L207.491 44.6643C207.04 44.4378 206.542 44.3198 206.037 44.3198C205.532 44.3198 205.034 44.4378 204.583 44.6643L202.04 46.1384C201.618 46.4146 201.267 46.7854 201.014 47.2213C200.761 47.6571 200.613 48.146 200.582 48.6491V237.172C200.612 237.676 200.759 238.167 201.012 238.604C201.265 239.041 201.617 239.413 202.04 239.691L318.991 307.213C319.442 307.439 319.94 307.557 320.445 307.557C320.95 307.557 321.447 307.439 321.899 307.213Z" fill="#37474F"/>
<path d="M200.599 48.4142C200.704 47.6691 201.311 47.3937 202.04 47.8149L318.991 115.337C319.421 115.602 319.775 115.973 320.02 116.414L325.47 113.272C325.224 112.832 324.87 112.461 324.442 112.195L207.491 44.6643C207.04 44.4378 206.542 44.3198 206.037 44.3198C205.532 44.3198 205.035 44.4378 204.583 44.6643L202.04 46.1384C201.651 46.3921 201.32 46.7266 201.072 47.1193C200.823 47.512 200.662 47.9536 200.599 48.4142Z" fill="#455A64"/>
<path d="M319.25 307.334C319.277 307.341 319.305 307.341 319.331 307.334L319.485 307.391H319.542C319.631 307.391 319.72 307.44 319.809 307.464C320.385 307.576 320.981 307.531 321.534 307.334C321.646 307.294 321.754 307.245 321.858 307.189L324.442 305.715C324.863 305.437 325.213 305.064 325.465 304.627C325.717 304.19 325.863 303.699 325.892 303.196V114.706C325.874 114.2 325.729 113.707 325.47 113.272L320.02 116.414C320.283 116.848 320.431 117.341 320.449 117.848V306.379C320.462 306.65 320.385 306.917 320.23 307.14C320.132 307.253 320.004 307.336 319.861 307.38C319.718 307.424 319.565 307.428 319.42 307.391L319.25 307.334Z" fill="#263238"/>
<path d="M278.245 107.141C278.282 106.943 278.372 106.758 278.504 106.606L278.601 106.525C278.678 106.467 278.767 106.43 278.862 106.416C278.957 106.402 279.054 106.411 279.144 106.444C279.216 106.461 279.285 106.492 279.346 106.533C279.706 106.781 279.987 107.127 280.156 107.529C280.373 107.985 280.489 108.482 280.496 108.987C280.529 109.364 280.413 109.739 280.172 110.032C280.066 110.135 279.927 110.198 279.779 110.209C279.631 110.221 279.484 110.181 279.362 110.097C279.189 109.992 279.035 109.858 278.909 109.7C278.793 109.549 278.69 109.39 278.601 109.222C278.352 108.735 278.217 108.198 278.204 107.651C278.2 107.48 278.213 107.309 278.245 107.141ZM259.228 64.6446C259.65 64.3967 260.132 64.2679 260.621 64.2721C261.55 64.3154 262.453 64.5941 263.245 65.082C265.456 66.435 267.162 68.4746 268.105 70.889C268.258 71.2292 268.404 71.5856 268.534 71.9338C268.663 72.2821 268.801 72.6384 268.915 73.0029C269.028 73.3674 269.157 73.7318 269.263 74.0963C269.303 74.2178 269.336 74.3473 269.376 74.4607L269.587 75.1977C269.583 75.2328 269.583 75.268 269.587 75.303C269.708 75.7485 269.822 76.2101 269.951 76.6637C270.016 76.9148 270.073 77.1496 270.137 77.3926L270.324 78.1134C270.583 79.0772 270.842 80.0005 271.134 80.8833L271.32 81.4179C271.409 81.6689 271.498 81.92 271.595 82.163C271.693 82.4059 271.749 82.5355 271.822 82.7056C271.944 83.0053 272.073 83.2888 272.211 83.5641C272.349 83.8395 272.381 83.9124 272.47 84.0825C274.519 88.0186 277.022 89.5574 278.471 91.5822C279.743 93.3478 280.091 94.7571 281.808 97.5512C282.351 98.4422 283.031 99.4707 283.922 100.702C286.392 104.103 287.275 105.788 287.575 106.809C287.578 106.835 287.578 106.863 287.575 106.89C287.575 106.97 287.575 107.043 287.632 107.116C287.634 107.14 287.634 107.165 287.632 107.189C287.635 107.254 287.635 107.319 287.632 107.384C287.66 107.582 287.673 107.782 287.672 107.983V115.547L284.951 117.119V109.546C284.958 109.151 284.9 108.757 284.781 108.38C284.481 107.359 283.606 105.683 281.128 102.281C280.237 101.042 279.557 100.013 279.014 99.1225C277.313 96.3364 276.949 94.9191 275.677 93.1696C274.228 91.1368 271.725 89.606 269.676 85.6618C269.38 85.0556 269.118 84.4337 268.89 83.799C267.578 80.5594 266.987 76.1939 265.375 72.5251C264.435 70.1138 262.727 68.0789 260.516 66.7342C258.855 65.7785 257.641 65.6975 256.709 66.1349L259.228 64.6446ZM247.298 74.3149C247.524 74.186 247.767 74.088 248.019 74.0234C249.047 73.7804 250.578 74.3797 252.117 74.2016C249.955 76.9958 246.95 75.1978 245.298 75.5946C245.041 75.6561 244.795 75.7572 244.569 75.8943L247.298 74.3149ZM241.531 84.7061C241.612 84.7555 241.688 84.8125 241.758 84.8762L241.872 84.9896L241.977 85.111C242.431 85.6982 242.681 86.4177 242.69 87.1601C242.717 87.5329 242.604 87.9024 242.374 88.1968C242.343 88.2258 242.311 88.2528 242.277 88.2778C242.202 88.3354 242.113 88.3731 242.02 88.3872C241.926 88.4014 241.831 88.3916 241.742 88.3588C241.667 88.341 241.596 88.3109 241.531 88.2697C241.45 88.2211 241.378 88.1563 241.297 88.0996C241.179 87.9894 241.073 87.8673 240.981 87.7351C240.595 87.1714 240.384 86.5067 240.373 85.8238C240.373 84.8438 240.892 84.3335 241.531 84.7061ZM239.75 77.8624C240.624 77.3748 241.574 77.038 242.56 76.8662C242.981 76.769 243.37 76.6637 243.686 76.5584C242.602 77.5228 241.274 78.1701 239.847 78.4293C238.981 78.5978 238.138 78.8698 237.336 79.2392L239.75 77.8624Z" fill="#7209B7" fill-opacity="0.5"/>
<path d="M237.117 79.3771L237.336 79.2475C238.138 78.8781 238.98 78.6062 239.847 78.4376C241.274 78.18 242.603 77.5325 243.686 76.5667C243.957 76.3162 244.253 76.0936 244.569 75.9026C244.795 75.7689 245.041 75.6705 245.297 75.611C246.917 75.2142 249.954 77.0122 252.109 74.218L252.182 74.1289C253.688 72.096 254.239 67.5605 256.499 66.2323L256.725 66.1027C257.657 65.6653 258.872 65.7463 260.532 66.702C266.517 70.1603 266.72 78.3728 268.874 83.7749C271.028 89.177 274.09 90.8697 275.75 93.1942C277.41 95.5186 277.524 97.2437 281.209 102.314C284.894 107.384 285.032 108.631 285.032 109.603V117.167L236.016 88.8207V81.2561C235.986 80.868 236.076 80.4801 236.273 80.1444C236.47 79.8086 236.764 79.5409 237.117 79.3771ZM279.346 110.097C279.986 110.47 280.496 109.975 280.496 108.987C280.503 108.522 280.402 108.06 280.203 107.639C280.004 107.218 279.71 106.848 279.346 106.558C278.706 106.185 278.196 106.687 278.196 107.675C278.19 108.14 278.29 108.6 278.489 109.02C278.689 109.44 278.982 109.808 279.346 110.097ZM260.532 87.3061C260.839 87.5398 261.197 87.697 261.577 87.7647C261.957 87.8324 262.347 87.8086 262.716 87.6955C263.085 87.5823 263.422 87.3829 263.698 87.1138C263.975 86.8447 264.183 86.5136 264.306 86.148C264.729 85.1901 264.931 84.1493 264.897 83.1027C264.897 79.3852 262.945 75.2466 260.532 73.8535C260.206 73.659 259.85 73.5195 259.479 73.4405C257.568 73.0598 256.166 74.8902 256.166 78.057C256.166 81.7744 258.118 85.9131 260.532 87.3061ZM241.531 88.2618C242.171 88.6344 242.69 88.1403 242.69 87.1603C242.694 86.6939 242.593 86.2325 242.392 85.8114C242.191 85.3903 241.897 85.0206 241.531 84.7306C240.892 84.3662 240.373 84.8602 240.373 85.8483C240.368 86.3124 240.47 86.7715 240.671 87.1899C240.872 87.6084 241.166 87.9751 241.531 88.2618Z" fill="#7209B7" fill-opacity="0.5"/>
<path opacity="0.1" d="M237.117 79.3771L237.336 79.2475C238.138 78.8781 238.98 78.6062 239.847 78.4376C241.274 78.18 242.603 77.5325 243.686 76.5667C243.957 76.3162 244.253 76.0936 244.569 75.9026C244.795 75.7689 245.041 75.6705 245.297 75.611C246.917 75.2142 249.954 77.0122 252.109 74.218L252.182 74.1289C253.688 72.096 254.239 67.5605 256.499 66.2323L256.725 66.1027C257.657 65.6653 258.872 65.7463 260.532 66.702C266.517 70.1603 266.72 78.3728 268.874 83.7749C271.028 89.177 274.09 90.8697 275.75 93.1942C277.41 95.5186 277.524 97.2437 281.209 102.314C284.894 107.384 285.032 108.631 285.032 109.603V117.167L236.016 88.8207V81.2561C235.986 80.868 236.076 80.4801 236.273 80.1444C236.47 79.8086 236.764 79.5409 237.117 79.3771ZM279.346 110.097C279.986 110.47 280.496 109.975 280.496 108.987C280.503 108.522 280.402 108.06 280.203 107.639C280.004 107.218 279.71 106.848 279.346 106.558C278.706 106.185 278.196 106.687 278.196 107.675C278.19 108.14 278.29 108.6 278.489 109.02C278.689 109.44 278.982 109.808 279.346 110.097ZM260.532 87.3061C260.839 87.5398 261.197 87.697 261.577 87.7647C261.957 87.8324 262.347 87.8086 262.716 87.6955C263.085 87.5823 263.422 87.3829 263.698 87.1138C263.975 86.8447 264.183 86.5136 264.306 86.148C264.729 85.1901 264.931 84.1493 264.897 83.1027C264.897 79.3852 262.945 75.2466 260.532 73.8535C260.206 73.659 259.85 73.5195 259.479 73.4405C257.568 73.0598 256.166 74.8902 256.166 78.057C256.166 81.7744 258.118 85.9131 260.532 87.3061ZM241.531 88.2618C242.171 88.6344 242.69 88.1403 242.69 87.1603C242.694 86.6939 242.593 86.2325 242.392 85.8114C242.191 85.3903 241.897 85.0206 241.531 84.7306C240.892 84.3662 240.373 84.8602 240.373 85.8483C240.368 86.3124 240.47 86.7715 240.671 87.1899C240.872 87.6084 241.166 87.9751 241.531 88.2618Z" fill="black"/>
<path opacity="0.25" d="M284.862 108.413C284.981 108.79 285.038 109.183 285.032 109.579V117.151L287.753 115.58V108.016C287.754 107.815 287.741 107.615 287.712 107.416C287.716 107.352 287.716 107.287 287.712 107.222C287.715 107.198 287.715 107.173 287.712 107.149C287.712 107.076 287.712 107.003 287.656 106.922V106.841L284.862 108.413Z" fill="black"/>
<path opacity="0.25" d="M275.758 93.2023C277.03 94.9517 277.378 96.369 279.095 99.1551L281.808 97.5677C280.107 94.7735 279.743 93.3642 278.471 91.5986L275.758 93.2023Z" fill="black"/>
<path opacity="0.25" d="M265.359 72.4606C266.979 76.1295 267.562 80.4544 268.874 83.7345C269.129 84.3904 269.421 85.0313 269.749 85.654L272.47 84.0909C272.381 83.9208 272.292 83.7426 272.211 83.5725C272.13 83.4025 271.944 83.0137 271.822 82.714C271.749 82.544 271.668 82.3577 271.595 82.1714C271.522 81.9851 271.409 81.6774 271.32 81.4263L271.134 80.8917C270.842 80.0089 270.583 79.0856 270.324 78.1219L270.137 77.401C270.073 77.1581 270.016 76.9232 269.951 76.6721C269.822 76.2186 269.708 75.7569 269.587 75.3115C269.583 75.2765 269.583 75.2412 269.587 75.2062L269.376 74.4692C269.336 74.3558 269.303 74.2262 269.263 74.1047C269.157 73.7402 269.036 73.3758 268.914 73.0113C268.793 72.6469 268.671 72.2986 268.534 71.9422C268.396 71.5859 268.258 71.2376 268.105 70.8975L265.359 72.4606Z" fill="black"/>
<path d="M280.164 107.529C280.38 107.985 280.496 108.483 280.504 108.987C280.537 109.364 280.42 109.739 280.18 110.032C280.413 109.736 280.526 109.363 280.496 108.987C280.487 108.484 280.374 107.987 280.164 107.529ZM278.188 107.651C278.189 107.479 278.208 107.308 278.244 107.141C278.21 107.309 278.194 107.48 278.196 107.651C278.206 108.197 278.338 108.734 278.585 109.222C278.336 108.735 278.2 108.198 278.188 107.651ZM242.276 88.2778C242.201 88.3355 242.113 88.3731 242.02 88.3873C241.926 88.4014 241.831 88.3917 241.742 88.3588C241.831 88.3869 241.926 88.3942 242.019 88.3802C242.111 88.3661 242.199 88.3311 242.276 88.2778Z" fill="#7209B7" fill-opacity="0.5"/>
<path d="M256.158 78.0568C256.158 81.7743 258.118 85.913 260.532 87.306C260.841 87.5311 261.198 87.6813 261.576 87.7448C261.953 87.8083 262.34 87.7833 262.706 87.6718C263.072 87.5603 263.407 87.3653 263.684 87.1023C263.962 86.8392 264.175 86.5153 264.306 86.1559C263.931 86.0754 263.573 85.9331 263.245 85.7348C260.815 84.3336 258.88 80.2031 258.88 76.4856C258.844 75.4381 259.049 74.3963 259.479 73.4403C257.551 73.0597 256.158 74.8901 256.158 78.0568Z" fill="#7209B7" fill-opacity="0.5"/>
<path opacity="0.3" d="M256.158 78.0568C256.158 81.7743 258.118 85.913 260.532 87.306C260.841 87.5311 261.198 87.6813 261.576 87.7448C261.953 87.8083 262.34 87.7833 262.706 87.6718C263.072 87.5603 263.407 87.3653 263.684 87.1023C263.962 86.8392 264.175 86.5153 264.306 86.1559C263.931 86.0754 263.573 85.9331 263.245 85.7348C260.815 84.3336 258.88 80.2031 258.88 76.4856C258.844 75.4381 259.049 74.3963 259.479 73.4403C257.551 73.0597 256.158 74.8901 256.158 78.0568Z" fill="black"/>
<path d="M278.609 109.222C278.691 109.392 278.791 109.553 278.909 109.7C279.035 109.858 279.189 109.993 279.362 110.097C279.484 110.182 279.631 110.222 279.779 110.21C279.926 110.198 280.066 110.135 280.172 110.032C280.412 109.74 280.529 109.365 280.496 108.988C280.488 108.483 280.372 107.986 280.156 107.53C279.987 107.127 279.706 106.781 279.346 106.534C279.284 106.492 279.216 106.462 279.144 106.444C279.033 106.406 278.913 106.401 278.799 106.429C278.686 106.458 278.583 106.52 278.504 106.606C278.372 106.759 278.282 106.943 278.245 107.141C278.208 107.309 278.189 107.48 278.188 107.651C278.2 108.201 278.345 108.74 278.609 109.222Z" fill="#37474F"/>
<path d="M240.373 85.8238C240.384 86.5067 240.595 87.1714 240.981 87.7352C241.073 87.8673 241.179 87.9894 241.297 88.0996C241.378 88.1563 241.45 88.2211 241.531 88.2697C241.596 88.3109 241.667 88.3411 241.742 88.3588C241.852 88.3957 241.97 88.4 242.082 88.3713C242.194 88.3425 242.295 88.2819 242.374 88.1968C242.604 87.9024 242.717 87.5329 242.69 87.1601C242.681 86.4177 242.431 85.6983 241.977 85.1111L241.872 84.9896L241.758 84.8762C241.688 84.8125 241.612 84.7555 241.531 84.7061C240.892 84.3335 240.373 84.8438 240.373 85.8238Z" fill="#37474F"/>
<path d="M311.402 132.969L209.629 74.2098C209.359 74.0738 209.061 74.0029 208.758 74.0029C208.456 74.0029 208.158 74.0738 207.888 74.2098L206.908 74.7767C206.654 74.9438 206.443 75.1676 206.291 75.4305C206.139 75.6935 206.051 75.9882 206.033 76.2913V231.551C206.05 231.853 206.139 232.147 206.291 232.409C206.442 232.67 206.654 232.893 206.908 233.057L308.681 291.816C308.95 291.956 309.249 292.029 309.552 292.029C309.855 292.029 310.153 291.956 310.422 291.816L311.402 291.249C311.657 291.085 311.868 290.863 312.02 290.601C312.172 290.339 312.26 290.045 312.277 289.743V134.483C312.261 134.18 312.173 133.884 312.021 133.621C311.869 133.358 311.657 133.134 311.402 132.969Z" fill="#F5F5F5"/>
<path d="M206.065 76.0243C206.179 75.6679 206.511 75.5545 206.875 75.7813L308.681 134.54C308.939 134.703 309.151 134.929 309.297 135.196L312.018 133.625C311.877 133.356 311.664 133.131 311.402 132.977L209.629 74.2182C209.362 74.0784 209.064 74.0054 208.762 74.0054C208.461 74.0054 208.163 74.0784 207.896 74.2182L206.908 74.777C206.692 74.9185 206.506 75.1017 206.361 75.3158C206.216 75.53 206.116 75.7708 206.065 76.0243Z" fill="#FAFAFA"/>
<path d="M308.883 291.946C308.988 291.985 309.097 292.013 309.207 292.027H309.378C309.552 292.047 309.729 292.047 309.904 292.027C310.015 292.014 310.124 291.986 310.228 291.946L310.422 291.849L311.402 291.282C311.657 291.119 311.87 290.897 312.022 290.635C312.174 290.373 312.262 290.078 312.277 289.776V134.484C312.269 134.179 312.179 133.883 312.018 133.625L309.297 135.196C309.45 135.457 309.536 135.752 309.548 136.055V291.314C309.548 291.792 309.272 292.027 308.883 291.946Z" fill="#E0E0E0"/>
<path d="M268.68 97.3086L268.817 97.5354C269.142 98.0656 269.377 98.6457 269.514 99.2524C269.514 99.301 269.514 99.3253 269.514 99.3496C269.516 99.363 269.516 99.3766 269.514 99.3901L271.174 108.736L271.692 111.725C271.692 111.846 271.749 111.968 271.782 112.098C271.813 112.218 271.851 112.337 271.895 112.454C271.895 112.535 271.952 112.616 271.984 112.697L269.263 114.268C269.133 113.956 269.038 113.63 268.979 113.296L268.445 110.308L266.825 100.961C266.702 100.212 266.411 99.5007 265.974 98.8798L268.68 97.3086Z" fill="#7209B7" fill-opacity="0.5"/>
<path d="M287.421 127.461C287.696 127.899 287.955 128.336 288.231 128.774C288.344 128.984 288.458 129.195 288.563 129.405C288.668 129.616 288.822 129.948 288.935 130.215C289.049 130.482 289.195 130.814 289.308 131.122C289.421 131.43 289.535 131.738 289.64 132.046C289.745 132.353 289.875 132.766 289.972 133.131C290.037 133.366 290.102 133.601 290.166 133.852C290.318 134.424 290.455 135.007 290.58 135.601C290.58 135.804 290.669 136.014 290.701 136.217C290.733 136.419 290.806 136.719 290.847 136.962C290.847 136.962 290.847 136.962 290.847 137.002C290.847 137.197 290.847 137.326 290.75 137.383C290.737 137.389 290.723 137.392 290.709 137.392C290.695 137.392 290.681 137.389 290.669 137.383L288.328 135.552L287.947 135.253L287.761 135.115L287.559 134.953L287.397 134.832L287.259 134.718C286.575 132.242 285.435 129.916 283.898 127.858L286.619 126.287C286.886 126.676 287.162 127.073 287.421 127.461Z" fill="#7209B7" fill-opacity="0.5"/>
<path d="M257.973 76.7446C258.102 76.9552 258.216 77.1658 258.329 77.3764C258.403 77.4925 258.468 77.6144 258.523 77.7408C258.62 77.9109 258.701 78.0891 258.791 78.2673C258.88 78.4454 258.936 78.5507 259.001 78.6965C259.139 78.9719 259.26 79.2472 259.374 79.5064C259.487 79.7656 259.633 80.1058 259.746 80.4054C259.86 80.6727 259.949 80.94 260.038 81.2153C260.184 81.6203 260.305 82.0252 260.418 82.4383C260.483 82.657 260.532 82.8675 260.589 83.0781C260.587 83.0943 260.587 83.1105 260.589 83.1267C260.589 83.2401 260.645 83.3454 260.661 83.4588C260.726 83.7099 260.775 83.969 260.815 84.2201C260.856 84.4712 260.896 84.6169 260.953 84.8194C261.01 85.0219 261.058 85.2406 261.123 85.4511C261.188 85.6617 261.253 85.848 261.317 86.0505C261.317 86.0505 261.317 86.0505 261.317 86.1072C261.398 86.3259 261.488 86.5526 261.585 86.7794C261.682 87.0062 261.763 87.2249 261.876 87.4597C261.904 87.5204 261.928 87.5826 261.949 87.646C262.03 87.8161 262.119 87.9862 262.2 88.1644L262.63 88.9743C262.727 89.1686 262.824 89.3468 262.929 89.5331L260.2 91.1043C259.219 89.4494 258.503 87.6512 258.078 85.7751C257.563 83.1232 256.593 80.5803 255.211 78.2592L257.973 76.7446Z" fill="#7209B7" fill-opacity="0.5"/>
<path d="M241.782 82.803C241.918 82.7211 242.07 82.6712 242.228 82.6572C241.964 83.0791 241.608 83.4363 241.188 83.7026C240.767 83.9689 240.292 84.1375 239.798 84.1961C239.564 84.1991 239.333 84.2486 239.118 84.3418L241.782 82.803Z" fill="#7209B7" fill-opacity="0.5"/>
<path opacity="0.4" d="M241.782 82.803C241.918 82.7211 242.07 82.6712 242.228 82.6572C241.964 83.0791 241.608 83.4363 241.188 83.7026C240.767 83.9689 240.292 84.1375 239.798 84.1961C239.564 84.1991 239.333 84.2486 239.118 84.3418L241.782 82.803Z" fill="white"/>
<path d="M231.634 94.6358C232.062 94.4269 232.534 94.3251 233.009 94.3392C233.485 94.3533 233.949 94.4829 234.364 94.7168C237.53 96.1099 238.899 96.7416 240.535 97.4219C240.851 99.5277 239.612 99.7221 238.996 99.471C236.696 98.5639 235.522 98.0051 231.634 96.2961C231.224 96.0657 230.763 95.9373 230.293 95.9218C229.822 95.9063 229.354 96.0041 228.929 96.2071L231.634 94.6358Z" fill="#7209B7" fill-opacity="0.5"/>
<path opacity="0.4" d="M231.634 94.6358C232.062 94.4269 232.534 94.3251 233.009 94.3392C233.485 94.3533 233.949 94.4829 234.364 94.7168C237.53 96.1099 238.899 96.7416 240.535 97.4219C240.851 99.5277 239.612 99.7221 238.996 99.471C236.696 98.5639 235.522 98.0051 231.634 96.2961C231.224 96.0657 230.763 95.9373 230.293 95.9218C229.822 95.9063 229.354 96.0041 228.929 96.2071L231.634 94.6358Z" fill="white"/>
<path d="M269.279 114.268C269.865 115.551 270.69 116.711 271.709 117.686L280.229 124.092C281.591 125.202 282.819 126.465 283.89 127.858L286.611 126.287C285.543 124.89 284.314 123.623 282.95 122.513L274.414 116.115C273.413 115.133 272.603 113.974 272.024 112.697L269.279 114.268Z" fill="#7209B7" fill-opacity="0.5"/>
<path opacity="0.4" d="M269.279 114.268C269.865 115.551 270.69 116.711 271.709 117.686L280.229 124.092C281.591 125.202 282.819 126.465 283.89 127.858L286.611 126.287C285.543 124.89 284.314 123.623 282.95 122.513L274.414 116.115C273.413 115.133 272.603 113.974 272.024 112.697L269.279 114.268Z" fill="white"/>
<path d="M260.24 91.1694C261.416 93.3425 262.863 95.3565 264.549 97.1627C265.08 97.6822 265.552 98.2579 265.958 98.8797L268.68 97.3085C268.28 96.6818 267.807 96.1054 267.27 95.5915C265.588 93.7848 264.142 91.7707 262.97 89.5981L260.24 91.1694Z" fill="#7209B7" fill-opacity="0.5"/>
<path opacity="0.4" d="M260.24 91.1694C261.416 93.3425 262.863 95.3565 264.549 97.1627C265.08 97.6822 265.552 98.2579 265.958 98.8797L268.68 97.3085C268.28 96.6818 267.807 96.1054 267.27 95.5915C265.588 93.7848 264.142 91.7707 262.97 89.5981L260.24 91.1694Z" fill="white"/>
<path d="M244.868 71.0595C245.873 70.533 247.209 70.6221 248.78 71.4482C251.113 72.6712 253.461 75.2629 255.259 78.3244L257.981 76.7045C256.199 73.6431 253.85 71.0352 251.501 69.8284C250.738 69.3975 249.883 69.1559 249.007 69.1238C248.483 69.1171 247.966 69.2483 247.509 69.5044L244.868 71.0595Z" fill="#7209B7" fill-opacity="0.5"/>
<path opacity="0.4" d="M244.868 71.0595C245.873 70.533 247.209 70.6221 248.78 71.4482C251.113 72.6712 253.461 75.2629 255.259 78.3244L257.981 76.7045C256.199 73.6431 253.85 71.0352 251.501 69.8284C250.738 69.3975 249.883 69.1559 249.007 69.1238C248.483 69.1171 247.966 69.2483 247.509 69.5044L244.868 71.0595Z" fill="white"/>
<path opacity="0.15" d="M283.865 127.858C285.403 129.916 286.543 132.242 287.227 134.718L287.364 134.832L287.526 134.953L287.729 135.115L287.915 135.253L288.296 135.552L290.604 137.399C290.617 137.405 290.63 137.408 290.644 137.408C290.658 137.408 290.672 137.405 290.685 137.399C290.774 137.342 290.814 137.213 290.782 137.018C290.782 137.018 290.782 137.018 290.782 136.978C290.782 136.735 290.693 136.484 290.636 136.233C290.58 135.982 290.555 135.82 290.515 135.617C290.391 135.029 290.253 134.446 290.102 133.868C290.037 133.617 289.972 133.382 289.907 133.147C289.81 132.782 289.697 132.426 289.575 132.062C289.454 131.697 289.365 131.446 289.243 131.138C289.122 130.831 289.008 130.531 288.871 130.231C288.733 129.932 288.628 129.672 288.498 129.421C288.368 129.17 288.279 129 288.166 128.79C287.931 128.352 287.672 127.915 287.356 127.478C287.04 127.04 286.822 126.668 286.546 126.303L283.865 127.858Z" fill="black"/>
<path opacity="0.15" d="M265.958 98.8798C266.395 99.5007 266.686 100.212 266.809 100.961L268.429 110.308L268.963 113.296C269.022 113.63 269.117 113.956 269.247 114.268L271.968 112.697C271.968 112.616 271.903 112.535 271.879 112.454C271.835 112.337 271.797 112.218 271.765 112.098C271.765 111.968 271.701 111.846 271.676 111.725L271.158 108.736L269.498 99.3901C269.5 99.3766 269.5 99.363 269.498 99.3496C269.498 99.3496 269.498 99.301 269.498 99.2524C269.361 98.6457 269.126 98.0656 268.801 97.5354L268.663 97.3086L265.958 98.8798Z" fill="black"/>
<path opacity="0.15" d="M255.251 78.3241C256.633 80.6453 257.603 83.1881 258.118 85.8401C258.544 87.7162 259.26 89.5143 260.24 91.1693L262.97 89.598C262.864 89.4118 262.767 89.2336 262.67 89.0392L262.241 88.2293C262.16 88.0511 262.071 87.881 261.99 87.711C261.969 87.6475 261.945 87.5853 261.917 87.5247C261.812 87.2979 261.714 87.063 261.625 86.8443C261.536 86.6257 261.439 86.3908 261.358 86.1721C261.358 86.1721 261.358 86.1316 261.358 86.1154C261.293 85.913 261.22 85.7186 261.164 85.5161C261.107 85.3136 261.042 85.0949 260.994 84.8844C260.945 84.6738 260.896 84.4794 260.856 84.285C260.815 84.0907 260.767 83.7748 260.702 83.5237C260.702 83.4103 260.653 83.305 260.629 83.1917C260.628 83.1755 260.628 83.1592 260.629 83.1431C260.572 82.9325 260.524 82.7219 260.459 82.5032C260.346 82.0902 260.224 81.6933 260.078 81.2803C259.989 81.0049 259.9 80.7376 259.787 80.4704C259.673 80.1707 259.544 79.871 259.414 79.5714C259.285 79.2717 259.179 79.0206 259.042 78.7614C258.977 78.6157 258.904 78.478 258.831 78.3322C258.758 78.1864 258.661 77.9758 258.564 77.8058C258.509 77.6793 258.444 77.5574 258.369 77.4413C258.256 77.2307 258.143 77.0201 258.013 76.8096L255.251 78.3241Z" fill="black"/>
<path d="M290.628 137.399L288.328 135.552C289.243 136.289 290.49 137.253 290.628 137.399Z" fill="#7209B7" fill-opacity="0.5"/>
<path d="M228.921 96.2233C229.347 96.0204 229.816 95.9219 230.288 95.936C230.759 95.9501 231.221 96.0764 231.634 96.3043C235.514 98.0213 236.688 98.5802 238.988 99.4954C239.604 99.7383 240.843 99.544 240.527 97.4382C240.53 97.3924 240.53 97.3463 240.527 97.3005L240.001 94.3119L238.527 86.1643C238.527 86.1643 238.195 84.8765 239.045 84.3987H239.11C239.319 84.2959 239.549 84.2459 239.782 84.2529C240.278 84.1919 240.753 84.0206 241.174 83.7515C241.594 83.4824 241.949 83.1223 242.212 82.6978C242.667 82.0216 242.982 81.2613 243.139 80.4616C243.296 79.662 243.292 78.8389 243.127 78.0409C242.503 74.5421 243.184 72.0961 244.747 71.189L244.868 71.108C245.873 70.5816 247.209 70.6707 248.78 71.4968C252.919 73.6673 257.098 80.1061 258.118 85.8889C258.758 89.5335 262.427 95.1462 264.549 97.2276C266.671 99.3091 266.809 101.026 266.809 101.026L268.429 110.372L268.963 113.361C269.352 115.596 271.644 117.759 271.644 117.759L280.229 124.092C283.635 126.802 286.094 130.522 287.251 134.718C287.251 134.718 290.49 137.197 290.652 137.399L289.559 136.776L230.662 102.913C230.662 102.913 229.982 102.549 229.853 102.452C229.723 102.354 227.334 100.119 227.334 100.119C227.374 98.1914 227.933 96.8146 228.921 96.2233ZM245.929 79.0452C246.561 82.6007 249.12 86.5611 251.663 87.8975C253.421 88.8127 254.709 88.2457 255.138 86.6259C255.326 85.7177 255.326 84.7804 255.138 83.8722C254.514 80.3167 251.939 76.3562 249.396 75.028C249.16 74.8999 248.914 74.7942 248.659 74.7121C246.577 74.0804 245.403 75.8541 245.945 79.0452H245.929Z" fill="#7209B7" fill-opacity="0.5"/>
<path d="M290.62 137.407L230.622 102.921L229.812 102.459C229.666 102.37 227.293 100.119 227.293 100.119L287.226 134.718C287.226 134.718 290.855 137.536 290.62 137.407Z" fill="#7209B7" fill-opacity="0.5"/>
<path opacity="0.3" d="M290.62 137.407L230.622 102.921L229.812 102.459C229.666 102.37 227.293 100.119 227.293 100.119L287.226 134.718C287.226 134.718 290.855 137.536 290.62 137.407Z" fill="black"/>
<path d="M248.642 74.7122C248.897 74.7943 249.144 74.9 249.379 75.0281C251.923 76.3563 254.498 80.3168 255.122 83.8723C255.31 84.7805 255.31 85.7178 255.122 86.626C254.692 88.2458 253.405 88.8127 251.647 87.8975C249.104 86.5612 246.545 82.6007 245.913 79.0452C245.403 75.8542 246.577 74.0805 248.642 74.7122ZM254.96 86.5612C255.139 85.6848 255.139 84.7811 254.96 83.9047C254.336 80.3897 251.801 76.4778 249.29 75.1739C249.082 75.0636 248.865 74.9688 248.642 74.8904C248.476 75.7463 248.476 76.6262 248.642 77.4821C249.266 81.0376 251.833 84.9981 254.385 86.3344C254.57 86.4321 254.762 86.516 254.96 86.5855V86.5612Z" fill="#7209B7" fill-opacity="0.5"/>
<path opacity="0.4" d="M248.642 74.7122C248.897 74.7943 249.144 74.9 249.379 75.0281C251.923 76.3563 254.498 80.3168 255.122 83.8723C255.31 84.7805 255.31 85.7178 255.122 86.626C254.692 88.2458 253.405 88.8127 251.647 87.8975C249.104 86.5612 246.545 82.6007 245.913 79.0452C245.403 75.8542 246.577 74.0805 248.642 74.7122ZM254.96 86.5612C255.139 85.6848 255.139 84.7811 254.96 83.9047C254.336 80.3897 251.801 76.4778 249.29 75.1739C249.082 75.0636 248.865 74.9688 248.642 74.8904C248.476 75.7463 248.476 76.6262 248.642 77.4821C249.266 81.0376 251.833 84.9981 254.385 86.3344C254.57 86.4321 254.762 86.516 254.96 86.5855V86.5612Z" fill="black"/>
<path d="M295.884 183.167C296.012 183.167 296.138 183.134 296.249 183.07C296.382 182.984 296.489 182.863 296.558 182.72C296.626 182.577 296.654 182.418 296.638 182.26V178.801C296.626 178.491 296.538 178.188 296.383 177.918C296.228 177.649 296.009 177.421 295.747 177.255L292.726 175.513C292.601 175.43 292.455 175.384 292.305 175.379C292.154 175.375 292.006 175.412 291.876 175.486C291.746 175.561 291.639 175.671 291.567 175.803C291.496 175.935 291.462 176.084 291.47 176.234V179.725C291.481 180.036 291.568 180.339 291.723 180.609C291.879 180.879 292.098 181.106 292.361 181.272L295.382 183.021C295.534 183.113 295.707 183.163 295.884 183.167ZM292.224 176.088C292.272 176.102 292.318 176.121 292.361 176.145L295.382 177.886C295.534 177.989 295.66 178.124 295.752 178.283C295.843 178.441 295.897 178.619 295.909 178.801V182.292C295.922 182.34 295.922 182.39 295.909 182.438C295.86 182.43 295.814 182.413 295.771 182.389L292.75 180.64C292.598 180.538 292.472 180.402 292.381 180.243C292.289 180.085 292.236 179.907 292.224 179.725V176.234C292.22 176.199 292.22 176.164 292.224 176.129V176.088Z" fill="#455A64"/>
<path d="M288.903 175.011L276.997 168.135C276.6 167.908 276.285 168.086 276.285 168.54V169.471C276.299 169.717 276.371 169.956 276.495 170.168C276.618 170.381 276.791 170.561 276.997 170.694L288.903 177.57C289.292 177.797 289.616 177.619 289.616 177.165V176.234C289.602 175.988 289.53 175.75 289.406 175.537C289.282 175.325 289.11 175.144 288.903 175.011Z" fill="#E0E0E0"/>
<path d="M266.379 166.134C266.507 166.136 266.633 166.102 266.744 166.037C266.879 165.952 266.987 165.832 267.057 165.689C267.127 165.546 267.156 165.386 267.141 165.227V161.737C267.127 161.425 267.038 161.122 266.882 160.852C266.725 160.583 266.505 160.356 266.242 160.19L263.221 158.448C263.096 158.359 262.948 158.307 262.794 158.298C262.641 158.29 262.488 158.325 262.354 158.4C262.223 158.478 262.118 158.592 262.049 158.728C261.98 158.865 261.951 159.017 261.965 159.169V162.66C261.976 162.971 262.063 163.275 262.218 163.544C262.374 163.814 262.593 164.041 262.856 164.207L265.877 165.956C266.026 166.059 266.199 166.121 266.379 166.134ZM262.727 159.056C262.771 159.072 262.814 159.091 262.856 159.112L265.877 160.854C266.03 160.956 266.158 161.091 266.25 161.25C266.343 161.408 266.398 161.586 266.412 161.769V165.26C266.428 165.307 266.428 165.358 266.412 165.405C266.364 165.396 266.317 165.38 266.274 165.357L263.253 163.607C263.1 163.506 262.973 163.371 262.882 163.212C262.791 163.053 262.738 162.875 262.727 162.692V159.202C262.712 159.154 262.712 159.103 262.727 159.056Z" fill="#455A64"/>
<path d="M259.398 157.979L247.492 151.103C247.095 150.876 246.78 151.054 246.78 151.508V152.439C246.794 152.685 246.866 152.923 246.99 153.136C247.113 153.348 247.286 153.529 247.492 153.662L259.398 160.538C259.795 160.765 260.111 160.587 260.111 160.133V159.202C260.092 158.957 260.018 158.72 259.895 158.508C259.772 158.296 259.602 158.115 259.398 157.979Z" fill="#E0E0E0"/>
<path d="M236.883 149.102C237.01 149.103 237.136 149.069 237.247 149.005C237.379 148.918 237.485 148.796 237.553 148.654C237.622 148.511 237.65 148.353 237.636 148.195V144.704C237.623 144.394 237.535 144.091 237.38 143.822C237.225 143.552 237.007 143.324 236.745 143.158L233.724 141.416C233.598 141.331 233.45 141.282 233.298 141.276C233.146 141.271 232.995 141.308 232.863 141.384C232.731 141.46 232.624 141.572 232.552 141.707C232.481 141.841 232.449 141.993 232.46 142.145V145.628C232.473 145.939 232.561 146.243 232.718 146.513C232.874 146.783 233.095 147.01 233.359 147.175L236.38 148.924C236.528 149.028 236.702 149.09 236.883 149.102ZM236.38 143.822C236.531 143.925 236.656 144.061 236.747 144.22C236.839 144.378 236.893 144.555 236.907 144.737V148.228C236.923 148.275 236.923 148.326 236.907 148.373C236.86 148.368 236.816 148.351 236.777 148.325L233.756 146.575C233.603 146.474 233.476 146.338 233.383 146.18C233.29 146.021 233.235 145.843 233.222 145.66V142.178C233.207 142.127 233.207 142.074 233.222 142.024C233.222 142.024 233.27 142.024 233.359 142.08L236.38 143.822Z" fill="#455A64"/>
<path d="M229.893 140.947L217.987 134.07C217.599 133.844 217.275 134.022 217.275 134.475V135.407C217.293 135.651 217.367 135.888 217.49 136.1C217.614 136.312 217.784 136.493 217.987 136.63L229.893 143.506C230.29 143.733 230.606 143.555 230.606 143.101V142.17C230.592 141.924 230.52 141.685 230.396 141.473C230.272 141.26 230.1 141.08 229.893 140.947Z" fill="#E0E0E0"/>
<path d="M288.871 157.971V159.331C288.871 160.077 288.352 160.376 287.712 160.004L218.06 119.824C217.723 119.602 217.442 119.304 217.241 118.954C217.039 118.604 216.923 118.211 216.902 117.807V116.439C216.902 115.702 217.42 115.402 218.06 115.766L287.712 155.954C288.05 156.176 288.331 156.474 288.532 156.824C288.733 157.175 288.849 157.567 288.871 157.971Z" fill="#E0E0E0"/>
<path d="M294.175 147.345V148.705C294.175 149.451 293.657 149.75 293.009 149.378L223.397 109.198C223.057 108.978 222.774 108.681 222.572 108.33C222.369 107.98 222.252 107.586 222.231 107.181V105.813C222.231 105.076 222.749 104.776 223.397 105.14L293.009 145.352C293.346 145.57 293.627 145.864 293.83 146.21C294.032 146.556 294.151 146.945 294.175 147.345Z" fill="#455A64"/>
<path d="M288.871 166.207V167.576C288.871 168.313 288.352 168.613 287.712 168.248L218.06 128.069C217.723 127.847 217.442 127.549 217.241 127.198C217.039 126.848 216.923 126.455 216.902 126.052V124.683C216.902 123.946 217.42 123.647 218.06 124.011L287.712 164.199C288.049 164.42 288.329 164.716 288.53 165.065C288.731 165.414 288.848 165.805 288.871 166.207Z" fill="#E0E0E0"/>
<path d="M296.5 166.912C294.678 165.106 294.224 164.337 294.224 163.673C294.224 163.008 294.491 162.652 295.309 163.122C295.663 163.327 295.967 163.608 296.201 163.944C296.435 164.28 296.592 164.663 296.662 165.066L298.654 165.511C298.481 164.467 298.087 163.472 297.499 162.593C296.911 161.713 296.143 160.968 295.245 160.409C293.252 159.259 292.094 160.117 292.094 162.028C292.205 163.889 293.015 165.639 294.362 166.928V168.508L296.5 169.739V166.912Z" fill="#455A64"/>
<path d="M296.524 172.161C296.527 171.771 296.429 171.388 296.239 171.048C296.048 170.709 295.773 170.425 295.439 170.225C294.726 169.812 294.362 170.176 294.362 170.913C294.356 171.304 294.452 171.69 294.641 172.032C294.83 172.375 295.105 172.662 295.439 172.865C296.16 173.278 296.524 172.889 296.524 172.161Z" fill="#455A64"/>
<path d="M295.415 178.802L294.524 179.474L295.334 181.013C295.403 181.106 295.441 181.22 295.441 181.337C295.441 181.454 295.403 181.567 295.334 181.661C295.18 181.774 294.961 181.661 294.832 181.418L294.022 179.887L293.131 180.559C293.001 180.656 292.807 180.559 292.693 180.349C292.634 180.268 292.601 180.17 292.601 180.069C292.601 179.969 292.634 179.871 292.693 179.79L293.584 179.118L292.774 177.579C292.705 177.485 292.667 177.372 292.667 177.255C292.667 177.138 292.705 177.025 292.774 176.931C292.928 176.818 293.147 176.931 293.277 177.174L294.086 178.713L294.977 178.04C295.107 177.943 295.301 178.04 295.415 178.243C295.475 178.324 295.507 178.422 295.507 178.522C295.507 178.623 295.475 178.721 295.415 178.802Z" fill="#7209B7" fill-opacity="0.5"/>
<path d="M295.884 213.919C296.012 213.923 296.138 213.892 296.249 213.83C296.382 213.744 296.489 213.623 296.558 213.48C296.626 213.337 296.654 213.178 296.638 213.02V209.53C296.627 209.218 296.54 208.915 296.385 208.645C296.229 208.375 296.01 208.148 295.747 207.983L292.726 206.241C292.601 206.158 292.455 206.112 292.305 206.107C292.154 206.103 292.006 206.14 291.876 206.214C291.746 206.289 291.639 206.399 291.567 206.531C291.496 206.663 291.462 206.812 291.47 206.962V210.453C291.481 210.764 291.568 211.068 291.723 211.337C291.879 211.607 292.098 211.834 292.361 212L295.382 213.741C295.531 213.844 295.704 213.906 295.884 213.919ZM292.224 206.849C292.273 206.858 292.32 206.877 292.361 206.905L295.382 208.647C295.534 208.749 295.66 208.885 295.752 209.043C295.843 209.202 295.897 209.379 295.909 209.562V213.053C295.922 213.1 295.922 213.151 295.909 213.198C295.86 213.19 295.814 213.174 295.771 213.15L292.75 211.4C292.598 211.298 292.472 211.163 292.381 211.004C292.289 210.845 292.236 210.668 292.224 210.485V206.994C292.216 206.946 292.216 206.897 292.224 206.849Z" fill="#455A64"/>
<path d="M288.903 205.763L276.997 198.895C276.6 198.668 276.285 198.847 276.285 199.3V200.223C276.298 200.47 276.369 200.711 276.493 200.925C276.617 201.139 276.79 201.32 276.997 201.454L288.903 208.331C289.292 208.557 289.616 208.371 289.616 207.918V206.994C289.602 206.747 289.53 206.507 289.407 206.293C289.283 206.08 289.11 205.898 288.903 205.763Z" fill="#E0E0E0"/>
<path d="M266.379 196.887C266.507 196.891 266.633 196.86 266.744 196.798C266.879 196.713 266.987 196.592 267.057 196.449C267.127 196.306 267.156 196.147 267.141 195.988V192.497C267.128 192.186 267.04 191.882 266.883 191.612C266.727 191.343 266.506 191.115 266.242 190.95L263.221 189.209C263.096 189.12 262.948 189.067 262.794 189.059C262.641 189.05 262.488 189.086 262.354 189.16C262.223 189.239 262.118 189.353 262.049 189.489C261.98 189.625 261.951 189.778 261.965 189.93V193.421C261.976 193.732 262.063 194.035 262.218 194.305C262.374 194.575 262.593 194.802 262.856 194.968L265.877 196.709C266.026 196.812 266.199 196.874 266.379 196.887ZM262.727 189.816C262.773 189.828 262.817 189.847 262.856 189.873L265.877 191.614C266.03 191.716 266.158 191.852 266.25 192.01C266.343 192.169 266.398 192.347 266.412 192.53V196.02C266.428 196.068 266.428 196.119 266.412 196.166C266.364 196.157 266.317 196.14 266.274 196.118L263.253 194.368C263.101 194.266 262.975 194.13 262.884 193.972C262.792 193.813 262.739 193.636 262.727 193.453V189.962C262.712 189.915 262.712 189.864 262.727 189.816Z" fill="#455A64"/>
<path d="M259.398 188.731L247.492 181.863C247.095 181.636 246.78 181.814 246.78 182.268V183.191C246.793 183.438 246.864 183.679 246.988 183.893C247.112 184.107 247.285 184.288 247.492 184.422L259.398 191.298C259.795 191.525 260.111 191.298 260.111 190.885V189.962C260.093 189.716 260.02 189.477 259.897 189.264C259.773 189.051 259.603 188.868 259.398 188.731Z" fill="#E0E0E0"/>
<path d="M236.883 179.855C237.01 179.858 237.136 179.827 237.247 179.765C237.379 179.678 237.485 179.557 237.553 179.414C237.622 179.272 237.65 179.113 237.636 178.956V175.465C237.623 175.154 237.535 174.851 237.38 174.582C237.225 174.313 237.007 174.085 236.745 173.918L233.724 172.177C233.599 172.091 233.452 172.043 233.3 172.037C233.149 172.031 232.999 172.068 232.867 172.143C232.736 172.218 232.628 172.329 232.556 172.462C232.484 172.595 232.451 172.746 232.46 172.897V176.388C232.473 176.7 232.561 177.004 232.718 177.273C232.874 177.543 233.095 177.77 233.359 177.935L236.38 179.676C236.528 179.78 236.702 179.842 236.883 179.855ZM236.38 174.582C236.531 174.686 236.656 174.822 236.747 174.98C236.839 175.138 236.893 175.315 236.907 175.497V178.988C236.923 179.035 236.923 179.086 236.907 179.134C236.862 179.123 236.818 179.107 236.777 179.085L233.756 177.336C233.603 177.234 233.476 177.099 233.383 176.94C233.29 176.781 233.235 176.604 233.222 176.421V172.93C233.207 172.882 233.207 172.832 233.222 172.784C233.27 172.796 233.317 172.815 233.359 172.841L236.38 174.582Z" fill="#455A64"/>
<path d="M229.893 171.699L217.987 164.831C217.599 164.604 217.275 164.782 217.275 165.236V166.159C217.292 166.405 217.365 166.644 217.489 166.857C217.612 167.07 217.783 167.253 217.987 167.39L229.893 174.266C230.29 174.493 230.606 174.307 230.606 173.853V172.93C230.593 172.683 230.521 172.443 230.398 172.229C230.274 172.015 230.101 171.833 229.893 171.699Z" fill="#E0E0E0"/>
<path d="M288.871 188.723V190.092C288.871 190.829 288.352 191.128 287.712 190.764L218.06 150.584C217.723 150.363 217.442 150.064 217.241 149.714C217.039 149.364 216.923 148.971 216.902 148.568V147.199C216.902 146.462 217.42 146.162 218.06 146.527L287.712 186.714C288.049 186.935 288.329 187.232 288.53 187.581C288.731 187.93 288.848 188.321 288.871 188.723Z" fill="#E0E0E0"/>
<path d="M288.871 196.968V198.336C288.871 199.073 288.352 199.373 287.712 199.009L218.06 158.821C217.722 158.602 217.44 158.306 217.239 157.956C217.038 157.607 216.922 157.215 216.902 156.812V155.444C216.902 154.698 217.42 154.399 218.06 154.771L287.712 194.959C288.049 195.18 288.329 195.477 288.53 195.826C288.731 196.175 288.848 196.566 288.871 196.968Z" fill="#E0E0E0"/>
<path d="M296.5 197.672C294.678 195.866 294.224 195.097 294.224 194.433C294.224 193.768 294.491 193.412 295.309 193.882C295.663 194.087 295.967 194.368 296.201 194.704C296.435 195.04 296.592 195.423 296.662 195.826L298.654 196.271C298.481 195.227 298.087 194.232 297.499 193.353C296.911 192.473 296.143 191.728 295.245 191.169C293.252 190.019 292.094 190.877 292.094 192.829C292.205 194.69 293.015 196.44 294.362 197.729V199.308L296.5 200.539V197.672Z" fill="#455A64"/>
<path d="M296.524 202.921C296.527 202.532 296.429 202.148 296.239 201.809C296.048 201.469 295.773 201.185 295.439 200.985C294.726 200.572 294.362 200.937 294.362 201.674C294.356 202.064 294.453 202.45 294.642 202.792C294.831 203.134 295.105 203.422 295.439 203.625C296.16 204.038 296.524 203.666 296.524 202.921Z" fill="#455A64"/>
<path d="M265.91 192.497L265.019 193.169L265.829 194.708C265.898 194.802 265.936 194.915 265.936 195.032C265.936 195.149 265.898 195.262 265.829 195.356C265.683 195.469 265.456 195.356 265.327 195.113L264.517 193.582L263.626 194.255C263.496 194.352 263.302 194.255 263.197 194.044C263.137 193.963 263.104 193.865 263.104 193.765C263.104 193.664 263.137 193.566 263.197 193.485L264.087 192.813L263.278 191.274C263.212 191.177 263.181 191.06 263.188 190.943C263.195 190.826 263.241 190.715 263.318 190.626C263.464 190.521 263.691 190.626 263.82 190.869L264.63 192.408L265.521 191.736C265.642 191.639 265.837 191.736 265.95 191.938C266.006 192.023 266.032 192.123 266.024 192.224C266.017 192.325 265.977 192.421 265.91 192.497Z" fill="#7209B7" fill-opacity="0.5"/>
<path d="M295.884 244.68C296.012 244.68 296.138 244.647 296.249 244.583C296.38 244.504 296.485 244.39 296.554 244.254C296.623 244.118 296.652 243.965 296.638 243.813V240.322C296.627 240.011 296.54 239.708 296.385 239.438C296.23 239.168 296.01 238.941 295.747 238.776L292.726 237.034C292.601 236.951 292.455 236.905 292.305 236.9C292.155 236.896 292.006 236.933 291.876 237.007C291.746 237.082 291.639 237.192 291.567 237.324C291.496 237.456 291.462 237.605 291.47 237.755V241.246C291.481 241.557 291.568 241.86 291.723 242.13C291.879 242.4 292.098 242.627 292.361 242.793L295.382 244.534C295.534 244.626 295.707 244.676 295.884 244.68ZM292.224 237.609C292.273 237.618 292.32 237.638 292.361 237.666L295.382 239.407C295.534 239.51 295.661 239.645 295.752 239.804C295.843 239.962 295.897 240.14 295.909 240.322V243.813C295.921 243.861 295.921 243.911 295.909 243.959C295.859 243.95 295.812 243.931 295.771 243.902L292.75 242.161C292.598 242.059 292.472 241.923 292.381 241.764C292.289 241.606 292.236 241.428 292.224 241.246V237.755C292.216 237.707 292.216 237.658 292.224 237.609Z" fill="#455A64"/>
<path d="M288.903 236.524L276.997 229.647C276.6 229.421 276.285 229.607 276.285 230.06V230.984C276.298 231.231 276.369 231.471 276.493 231.685C276.617 231.899 276.79 232.081 276.997 232.215L288.903 239.091C289.292 239.318 289.616 239.131 289.616 238.678V237.755C289.602 237.508 289.53 237.268 289.407 237.054C289.283 236.84 289.11 236.658 288.903 236.524Z" fill="#E0E0E0"/>
<path d="M266.379 227.647C266.507 227.649 266.633 227.615 266.744 227.55C266.876 227.473 266.983 227.359 267.054 227.223C267.124 227.087 267.154 226.933 267.141 226.781V223.29C267.128 222.978 267.04 222.675 266.883 222.405C266.727 222.135 266.506 221.908 266.242 221.743L263.221 220.002C263.094 219.916 262.947 219.866 262.795 219.856C262.643 219.846 262.491 219.877 262.354 219.945C262.222 220.032 262.116 220.154 262.048 220.296C261.979 220.439 261.951 220.598 261.965 220.755V224.246C261.976 224.557 262.063 224.86 262.218 225.13C262.374 225.4 262.593 225.627 262.856 225.793L265.877 227.534C266.032 227.614 266.205 227.653 266.379 227.647ZM262.727 220.577C262.773 220.588 262.817 220.608 262.856 220.634L265.877 222.375C266.03 222.477 266.158 222.612 266.25 222.771C266.343 222.929 266.398 223.107 266.412 223.29V226.781C266.426 226.828 266.426 226.879 266.412 226.927C266.363 226.916 266.316 226.897 266.274 226.87L263.221 225.129C263.069 225.026 262.943 224.891 262.851 224.732C262.76 224.573 262.706 224.396 262.694 224.213V220.723C262.688 220.672 262.7 220.62 262.727 220.577Z" fill="#455A64"/>
<path d="M259.398 219.491L247.492 212.615C247.095 212.396 246.78 212.575 246.78 213.028V213.951C246.793 214.198 246.864 214.439 246.988 214.653C247.112 214.867 247.285 215.048 247.492 215.182L259.398 222.059C259.795 222.285 260.111 222.099 260.111 221.646V220.722C260.093 220.476 260.02 220.238 259.897 220.024C259.773 219.811 259.603 219.629 259.398 219.491Z" fill="#E0E0E0"/>
<path d="M236.883 210.615C237.01 210.615 237.136 210.582 237.247 210.517C237.378 210.439 237.483 210.325 237.552 210.189C237.621 210.053 237.65 209.9 237.636 209.748V206.257C237.625 205.946 237.538 205.643 237.383 205.373C237.228 205.103 237.009 204.876 236.745 204.71L233.724 202.969C233.6 202.881 233.454 202.829 233.302 202.82C233.151 202.811 233 202.844 232.866 202.917C232.733 202.99 232.622 203.098 232.548 203.231C232.473 203.363 232.437 203.514 232.444 203.666V207.156C232.457 207.468 232.545 207.772 232.702 208.041C232.858 208.311 233.079 208.538 233.343 208.703L236.364 210.445C236.518 210.548 236.697 210.607 236.883 210.615ZM236.38 205.342C236.531 205.446 236.656 205.582 236.747 205.74C236.839 205.898 236.893 206.075 236.907 206.257V209.748C236.921 209.796 236.921 209.846 236.907 209.894C236.861 209.882 236.817 209.863 236.777 209.837L233.756 208.096C233.603 207.994 233.476 207.859 233.383 207.7C233.291 207.541 233.235 207.364 233.222 207.181V203.666C233.207 203.618 233.207 203.567 233.222 203.52C233.269 203.531 233.316 203.547 233.359 203.568L236.38 205.342Z" fill="#455A64"/>
<path d="M229.893 202.459L217.987 195.583C217.599 195.364 217.275 195.583 217.275 195.996V196.919C217.292 197.165 217.365 197.404 217.489 197.617C217.612 197.83 217.783 198.013 217.987 198.15L229.893 205.026C230.29 205.253 230.606 205.067 230.606 204.613V203.666C230.589 203.423 230.516 203.188 230.392 202.978C230.268 202.769 230.098 202.591 229.893 202.459Z" fill="#E0E0E0"/>
<path d="M288.871 219.483V220.852C288.871 221.589 288.352 221.889 287.712 221.524L218.06 181.337C217.722 181.118 217.44 180.821 217.239 180.472C217.038 180.123 216.922 179.731 216.902 179.328V177.959C216.902 177.222 217.42 176.914 218.06 177.287L287.712 217.475C288.049 217.696 288.329 217.993 288.53 218.341C288.731 218.69 288.848 219.081 288.871 219.483Z" fill="#E0E0E0"/>
<path d="M288.871 227.728V229.097C288.871 229.834 288.352 230.134 287.712 229.761L218.06 189.582C217.723 189.362 217.442 189.065 217.241 188.716C217.039 188.367 216.923 187.975 216.902 187.573V186.204C216.902 185.459 217.42 185.16 218.06 185.532L287.712 225.72C288.05 225.94 288.331 226.236 288.532 226.585C288.733 226.934 288.849 227.326 288.871 227.728Z" fill="#E0E0E0"/>
<path d="M296.5 228.433C294.678 226.627 294.224 225.857 294.224 225.193C294.224 224.529 294.491 224.164 295.309 224.642C295.663 224.848 295.967 225.129 296.201 225.464C296.435 225.8 296.592 226.183 296.662 226.586L298.654 227.023C298.48 225.981 298.085 224.988 297.498 224.109C296.91 223.231 296.142 222.488 295.245 221.929C293.252 220.779 292.094 221.638 292.094 223.549C292.205 225.41 293.015 227.16 294.362 228.449V230.028L296.5 231.259V228.433Z" fill="#455A64"/>
<path d="M296.524 233.681C296.528 233.291 296.43 232.906 296.24 232.565C296.049 232.224 295.773 231.939 295.439 231.737C294.726 231.332 294.362 231.697 294.362 232.434C294.357 232.825 294.454 233.21 294.643 233.552C294.832 233.894 295.106 234.181 295.439 234.386C296.16 234.799 296.524 234.442 296.524 233.681Z" fill="#455A64"/>
<path d="M236.405 206.225L235.522 206.897L236.332 208.436C236.403 208.529 236.441 208.643 236.441 208.76C236.441 208.877 236.403 208.991 236.332 209.084C236.186 209.197 235.959 209.084 235.83 208.841L235.02 207.302L234.129 207.975C233.999 208.072 233.813 207.975 233.7 207.772C233.639 207.692 233.605 207.594 233.605 207.493C233.605 207.392 233.639 207.294 233.7 207.213L234.591 206.541L233.781 205.002C233.719 204.903 233.69 204.788 233.697 204.672C233.704 204.556 233.748 204.445 233.821 204.354C233.967 204.241 234.194 204.354 234.323 204.597L235.133 206.136L236.024 205.456C236.154 205.359 236.348 205.456 236.453 205.666C236.508 205.752 236.532 205.853 236.524 205.954C236.515 206.055 236.473 206.15 236.405 206.225Z" fill="#7209B7" fill-opacity="0.5"/>
<path d="M295.884 275.44C296.012 275.441 296.138 275.407 296.249 275.343C296.38 275.264 296.485 275.15 296.554 275.014C296.623 274.878 296.652 274.725 296.638 274.574V271.083C296.627 270.772 296.54 270.468 296.385 270.198C296.23 269.929 296.01 269.701 295.747 269.536L292.726 267.787C292.598 267.704 292.451 267.657 292.299 267.648C292.147 267.64 291.996 267.671 291.859 267.738C291.726 267.824 291.619 267.945 291.55 268.088C291.482 268.231 291.454 268.39 291.47 268.548V272.039C291.483 272.349 291.571 272.652 291.726 272.921C291.881 273.191 292.099 273.419 292.361 273.585L295.382 275.327C295.537 275.407 295.71 275.446 295.884 275.44ZM292.224 268.37C292.272 268.378 292.319 268.394 292.361 268.418L295.382 270.168C295.534 270.27 295.661 270.406 295.752 270.564C295.843 270.723 295.897 270.9 295.909 271.083V274.574C295.921 274.621 295.921 274.672 295.909 274.719C295.861 274.706 295.815 274.687 295.771 274.663L292.75 272.921C292.598 272.819 292.472 272.683 292.381 272.525C292.289 272.366 292.236 272.189 292.224 272.006V268.515C292.215 268.467 292.215 268.418 292.224 268.37Z" fill="#455A64"/>
<path d="M288.903 267.284L276.997 260.408C276.6 260.181 276.285 260.368 276.285 260.821V261.745C276.298 261.991 276.369 262.232 276.493 262.446C276.617 262.66 276.79 262.841 276.997 262.976L288.903 269.852C289.292 270.078 289.616 269.852 289.616 269.439V268.515C289.602 268.269 289.53 268.028 289.407 267.815C289.283 267.601 289.11 267.419 288.903 267.284Z" fill="#E0E0E0"/>
<path d="M266.38 258.407C266.508 258.409 266.634 258.375 266.744 258.31C266.883 258.23 266.995 258.11 267.066 257.966C267.136 257.821 267.162 257.659 267.141 257.5V254.01C267.129 253.698 267.04 253.394 266.884 253.124C266.727 252.855 266.507 252.628 266.242 252.463L263.221 250.713C263.095 250.63 262.948 250.583 262.798 250.579C262.647 250.575 262.497 250.612 262.367 250.688C262.236 250.764 262.13 250.875 262.059 251.008C261.988 251.141 261.956 251.292 261.966 251.442V254.933C261.976 255.244 262.063 255.548 262.218 255.817C262.374 256.087 262.593 256.314 262.856 256.48L265.877 258.221C266.025 258.327 266.198 258.392 266.38 258.407ZM262.727 251.337C262.772 251.347 262.816 251.364 262.856 251.386L265.877 253.135C266.03 253.237 266.158 253.372 266.25 253.531C266.343 253.689 266.398 253.867 266.412 254.05V257.541C266.426 257.588 266.426 257.639 266.412 257.687C266.365 257.672 266.318 257.653 266.274 257.63L263.253 255.889C263.101 255.786 262.975 255.651 262.884 255.492C262.793 255.333 262.739 255.156 262.727 254.973V251.45C262.717 251.413 262.717 251.374 262.727 251.337Z" fill="#455A64"/>
<path d="M259.398 250.252L247.492 243.375C247.095 243.149 246.78 243.375 246.78 243.788V244.712C246.793 244.959 246.864 245.199 246.988 245.413C247.112 245.627 247.285 245.809 247.492 245.943L259.398 252.819C259.795 253.046 260.111 252.859 260.111 252.406V251.45C260.089 251.21 260.013 250.978 259.89 250.77C259.767 250.563 259.599 250.386 259.398 250.252Z" fill="#E0E0E0"/>
<path d="M236.883 241.375C237.01 241.376 237.136 241.342 237.247 241.278C237.378 241.199 237.483 241.085 237.552 240.949C237.621 240.813 237.65 240.66 237.636 240.509V237.018C237.625 236.707 237.538 236.403 237.383 236.133C237.228 235.864 237.009 235.636 236.745 235.471L233.724 233.721C233.594 233.639 233.446 233.592 233.293 233.583C233.14 233.575 232.987 233.606 232.849 233.673C232.717 233.76 232.611 233.881 232.543 234.024C232.474 234.167 232.446 234.325 232.46 234.483V237.973C232.474 238.285 232.563 238.588 232.72 238.858C232.876 239.127 233.096 239.354 233.359 239.52L236.38 241.262C236.535 241.343 236.708 241.382 236.883 241.375ZM236.38 236.103C236.531 236.206 236.656 236.342 236.747 236.5C236.839 236.659 236.893 236.836 236.907 237.018V240.509C236.921 240.556 236.921 240.607 236.907 240.654C236.862 240.638 236.819 240.619 236.777 240.598L233.756 238.856C233.603 238.754 233.476 238.619 233.383 238.461C233.291 238.302 233.235 238.124 233.222 237.941V234.442C233.206 234.395 233.206 234.344 233.222 234.297C233.269 234.307 233.316 234.324 233.359 234.345L236.38 236.103Z" fill="#455A64"/>
<path d="M229.893 233.219L217.987 226.343C217.599 226.116 217.275 226.303 217.275 226.756V227.68C217.292 227.925 217.365 228.164 217.489 228.378C217.612 228.591 217.783 228.773 217.987 228.911L229.893 235.787C230.29 236.014 230.606 235.787 230.606 235.374V234.442C230.592 234.197 230.52 233.958 230.396 233.746C230.272 233.533 230.1 233.353 229.893 233.219Z" fill="#E0E0E0"/>
<path d="M288.871 250.244V251.612C288.871 252.349 288.352 252.649 287.712 252.276L218.06 212.097C217.723 211.877 217.442 211.58 217.241 211.231C217.039 210.882 216.923 210.491 216.902 210.088V208.719C216.902 207.974 217.42 207.675 218.06 208.047L287.712 248.235C288.05 248.455 288.331 248.752 288.532 249.101C288.733 249.45 288.849 249.841 288.871 250.244Z" fill="#E0E0E0"/>
<path d="M288.871 258.489V259.857C288.871 260.594 288.352 260.894 287.712 260.522L218.06 220.342C217.724 220.121 217.443 219.824 217.242 219.475C217.041 219.127 216.925 218.735 216.902 218.333V216.965C216.902 216.22 217.42 215.92 218.06 216.292L287.712 256.48C288.05 256.7 288.331 256.997 288.532 257.346C288.733 257.695 288.849 258.086 288.871 258.489Z" fill="#E0E0E0"/>
<path d="M296.5 259.193C294.678 257.387 294.224 256.618 294.224 255.954C294.224 255.289 294.491 254.925 295.309 255.403C295.662 255.608 295.966 255.887 296.199 256.221C296.433 256.556 296.591 256.937 296.662 257.339L298.654 257.784C298.48 256.742 298.085 255.748 297.498 254.87C296.91 253.992 296.142 253.248 295.245 252.69C293.252 251.54 292.094 252.398 292.094 254.35C292.205 256.211 293.015 257.961 294.362 259.25V260.829L296.5 262.06V259.193Z" fill="#455A64"/>
<path d="M296.524 264.409C296.528 264.019 296.43 263.634 296.24 263.293C296.049 262.952 295.773 262.667 295.439 262.465C294.726 262.06 294.362 262.417 294.362 263.162C294.356 263.552 294.453 263.936 294.642 264.277C294.831 264.618 295.105 264.904 295.439 265.106C296.16 265.559 296.524 265.219 296.524 264.409Z" fill="#455A64"/>
<path d="M236.405 237.115L235.522 237.787L236.332 239.326C236.403 239.419 236.441 239.533 236.441 239.65C236.441 239.767 236.403 239.881 236.332 239.974C236.186 240.088 235.959 239.974 235.83 239.731L235.02 238.192L234.129 238.873C233.999 238.97 233.813 238.873 233.7 238.662C233.639 238.582 233.605 238.484 233.605 238.383C233.605 238.282 233.639 238.184 233.7 238.103L234.591 237.431L233.781 235.892C233.719 235.794 233.69 235.678 233.697 235.562C233.704 235.446 233.748 235.335 233.821 235.244C233.967 235.131 234.194 235.244 234.323 235.487L235.133 237.026L236.024 236.346C236.154 236.257 236.348 236.346 236.453 236.556C236.508 236.642 236.532 236.743 236.524 236.844C236.515 236.945 236.473 237.04 236.405 237.115Z" fill="#7209B7" fill-opacity="0.5"/>
<path d="M55.276 125.509C56.025 125.148 56.8484 124.968 57.6799 124.983C58.5114 124.999 59.3276 125.21 60.0626 125.599L133.878 168.216C134.59 168.688 135.18 169.322 135.602 170.064C136.024 170.807 136.266 171.639 136.307 172.492V193.55C136.339 194.392 136.141 195.227 135.734 195.965C135.326 196.703 134.725 197.316 133.995 197.737C133.265 198.159 132.434 198.374 131.592 198.358C130.749 198.342 129.926 198.097 129.213 197.648L55.3975 155.031C54.6857 154.558 54.0949 153.925 53.6729 153.182C53.2508 152.439 53.0093 151.608 52.9678 150.754V129.697C52.9973 128.867 53.2216 128.055 53.6226 127.328C54.0235 126.6 54.5899 125.978 55.276 125.509Z" fill="#263238"/>
<path d="M52.9922 129.251C53.1946 128.004 54.207 127.567 55.4219 128.279L86.1984 146.041L129.237 170.889C129.968 171.342 130.57 171.975 130.986 172.727L135.619 170.055C135.203 169.302 134.604 168.667 133.878 168.208L60.0627 125.599C59.3829 125.167 58.6021 124.922 57.798 124.886C56.9938 124.851 56.1944 125.026 55.4792 125.396C54.7641 125.765 54.1581 126.316 53.7218 126.992C53.2854 127.669 53.0339 128.447 52.9922 129.251Z" fill="#455A64"/>
<path d="M131.715 175.165V196.222C131.715 197.794 130.606 198.433 129.245 197.648L55.43 155.03C54.7182 154.558 54.1274 153.925 53.7053 153.182C53.2833 152.439 53.0417 151.607 53.0002 150.754V129.696C53.0002 128.125 54.1017 127.485 55.43 128.271L86.2065 146.04L129.253 170.888C129.971 171.358 130.567 171.99 130.995 172.732C131.423 173.475 131.67 174.309 131.715 175.165Z" fill="#37474F"/>
<path d="M119.162 172.079L117.955 174.638C117.941 174.675 117.919 174.709 117.892 174.736C117.864 174.764 117.831 174.786 117.794 174.801C117.758 174.815 117.719 174.822 117.679 174.821C117.64 174.819 117.601 174.809 117.566 174.792L114.869 173.764C114.44 173.594 114.27 174.201 114.578 174.784L116.529 178.445C116.647 178.657 116.7 178.899 116.683 179.141L116.222 182.462C116.149 182.989 116.594 183.677 116.975 183.628L119.405 183.329C119.502 183.333 119.598 183.361 119.682 183.411C119.767 183.46 119.838 183.529 119.891 183.612L122.32 186.698C122.701 187.184 123.13 187.006 123.073 186.398L122.612 182.551C122.592 182.458 122.595 182.36 122.622 182.268C122.649 182.176 122.698 182.093 122.766 182.025L124.718 180.615C125.025 180.389 124.855 179.587 124.426 179.263L121.729 177.181C121.54 177.024 121.404 176.812 121.34 176.574L120.133 172.622C119.866 171.998 119.356 171.682 119.162 172.079Z" fill="#B4B4B4" fill-opacity="0.2"/>
<path d="M105.515 164.272L104.308 166.831C104.295 166.869 104.274 166.903 104.247 166.932C104.219 166.96 104.186 166.983 104.149 166.997C104.112 167.012 104.072 167.018 104.033 167.016C103.993 167.014 103.954 167.003 103.919 166.985L101.222 165.956C100.793 165.786 100.623 166.394 100.931 166.977L102.858 170.638C102.976 170.853 103.03 171.097 103.012 171.342L102.55 174.655C102.477 175.181 102.923 175.87 103.304 175.821L105.733 175.529C105.831 175.53 105.927 175.556 106.012 175.604C106.097 175.652 106.168 175.721 106.219 175.805L108.649 178.891C109.03 179.377 109.459 179.206 109.402 178.591L108.941 174.744C108.92 174.65 108.924 174.553 108.951 174.461C108.978 174.369 109.027 174.285 109.094 174.217L111.046 172.808C111.354 172.581 111.184 171.788 110.755 171.456L108.058 169.374C107.869 169.216 107.733 169.004 107.669 168.767L106.462 164.814C106.26 164.183 105.709 163.867 105.515 164.272Z" fill="#B4B4B4" fill-opacity="0.2"/>
<path d="M91.8677 156.464L90.6609 159.023C90.6469 159.06 90.6254 159.093 90.5977 159.121C90.5701 159.149 90.537 159.171 90.5004 159.186C90.4638 159.2 90.4247 159.207 90.3854 159.206C90.3461 159.204 90.3075 159.194 90.2721 159.177L87.5751 158.14C87.1459 157.979 86.9758 158.578 87.2836 159.161L89.2355 162.822C89.3528 163.037 89.4062 163.282 89.3893 163.526L88.9277 166.839C88.8548 167.365 89.3003 168.062 89.6809 168.013L92.1106 167.714C92.2085 167.718 92.3038 167.746 92.3884 167.796C92.473 167.845 92.5444 167.914 92.5966 167.997L95.0263 171.075C95.407 171.569 95.8362 171.391 95.7795 170.783L95.3179 166.936C95.2977 166.841 95.3012 166.743 95.328 166.65C95.3549 166.556 95.4042 166.471 95.4718 166.402L97.4236 164.992C97.7314 164.774 97.5613 163.972 97.1321 163.64L94.4351 161.558C94.2462 161.401 94.1105 161.188 94.0463 160.951L92.8396 156.999C92.6128 156.375 92.062 156.051 91.8677 156.464Z" fill="#B4B4B4" fill-opacity="0.2"/>
<path d="M78.2206 148.648L77.0138 151.208C76.9998 151.244 76.9783 151.278 76.9507 151.306C76.923 151.334 76.8899 151.356 76.8533 151.37C76.8167 151.385 76.7776 151.391 76.7383 151.39C76.699 151.388 76.6604 151.379 76.625 151.361L73.9281 150.325C73.4988 150.163 73.3287 150.762 73.6365 151.345L75.5884 155.006C75.7057 155.221 75.7591 155.466 75.7422 155.711L75.2806 159.023C75.2077 159.55 75.6532 160.246 76.0338 160.198L78.4636 159.898C78.5614 159.902 78.6567 159.931 78.7413 159.98C78.8259 160.029 78.8974 160.098 78.9495 160.181L81.3792 163.259C81.7599 163.753 82.1891 163.575 82.1324 162.967L81.6708 159.12C81.6506 159.027 81.654 158.93 81.6809 158.838C81.7078 158.746 81.7572 158.662 81.8247 158.594L83.7766 157.185C84.0843 156.958 83.9142 156.156 83.485 155.824L80.788 153.751C80.6025 153.59 80.4675 153.379 80.3992 153.143L79.1925 149.191C78.9657 148.592 78.4149 148.243 78.2206 148.648Z" fill="#B4B4B4" fill-opacity="0.2"/>
<path d="M64.5737 140.833L63.3669 143.392C63.3529 143.429 63.3314 143.462 63.3037 143.49C63.2761 143.518 63.2429 143.54 63.2064 143.555C63.1698 143.569 63.1306 143.576 63.0913 143.574C63.052 143.573 63.0135 143.563 62.9781 143.546L60.2811 142.517C59.8519 142.347 59.6818 142.955 59.9896 143.538L61.9415 147.199C62.059 147.411 62.1125 147.653 62.0953 147.895L61.6337 151.216C61.5608 151.742 62.0062 152.431 62.3869 152.382L64.8166 152.082C64.9145 152.087 65.0098 152.115 65.0944 152.164C65.179 152.214 65.2504 152.283 65.3026 152.366L67.7323 155.452C68.113 155.938 68.5422 155.759 68.4855 155.152L68.0239 151.305C68.0036 151.211 68.0071 151.114 68.034 151.022C68.0609 150.93 68.1103 150.846 68.1777 150.778L70.0972 149.402C70.405 149.175 70.2349 148.373 69.8057 148.049L67.1087 145.968C66.9198 145.81 66.7841 145.598 66.7199 145.36L65.5132 141.408C65.3188 140.744 64.7923 140.428 64.5737 140.833Z" fill="#B4B4B4" fill-opacity="0.2"/>
<path d="M121.195 158.61L125.244 156.278C125.325 156.242 125.392 156.183 125.439 156.108L126.184 154.812L123.754 153.427L123.827 153.637L121.195 158.61Z" fill="#7209B7" fill-opacity="0.7"/>
<path opacity="0.2" d="M121.195 158.61L125.244 156.278C125.325 156.242 125.392 156.183 125.439 156.108L126.184 154.812L123.754 153.427L123.827 153.637L121.195 158.61Z" fill="black"/>
<path d="M124.135 153.621L121.332 158.481C121.293 158.551 121.235 158.608 121.163 158.645C121.092 158.682 121.012 158.698 120.932 158.69C120.852 158.683 120.776 158.652 120.713 158.602C120.651 158.551 120.604 158.484 120.579 158.408L117.623 149.879L124.135 153.621Z" fill="#7209B7" fill-opacity="0.7"/>
<path d="M53.4538 85.9049C53.4893 85.2278 53.6847 84.5687 54.0239 83.9817C54.3632 83.3947 54.8367 82.8963 55.4057 82.5275C56.0115 82.224 56.6799 82.0659 57.3575 82.0659C58.0352 82.0659 58.7036 82.224 59.3094 82.5275L134.356 125.833C134.924 126.205 135.397 126.705 135.736 127.293C136.075 127.881 136.271 128.541 136.307 129.219V153.921C136.271 154.599 136.075 155.259 135.736 155.847C135.397 156.435 134.924 156.935 134.356 157.306C133.751 157.614 133.082 157.774 132.404 157.774C131.725 157.774 131.057 157.614 130.452 157.306L55.2194 113.879C53.4619 112.875 53.4457 111.871 53.4457 110.64L53.4538 85.9049Z" fill="#7209B7" fill-opacity="0.7"/>
<path opacity="0.2" d="M136.34 153.913C136.303 154.591 136.107 155.251 135.768 155.839C135.429 156.427 134.956 156.927 134.388 157.298C133.839 157.578 133.236 157.738 132.62 157.768C132.005 157.797 131.39 157.695 130.816 157.469C131.731 157.817 132.436 157.29 132.436 156.173V131.462C132.414 130.784 132.215 130.122 131.861 129.543L135.773 127.283C136.121 127.868 136.316 128.531 136.34 129.211V153.913Z" fill="black"/>
<path opacity="0.4" d="M53.5427 85.3541C53.7695 84.5442 54.5308 84.2607 55.4298 84.7791L130.484 128.085C131.063 128.441 131.538 128.944 131.861 129.543L135.765 127.283C135.435 126.689 134.962 126.188 134.388 125.825L59.3417 82.5275C58.7369 82.2202 58.0682 82.0601 57.3898 82.0601C56.7115 82.0601 56.0427 82.2202 55.438 82.5275C54.9461 82.8446 54.5242 83.2589 54.1983 83.745C53.8724 84.2311 53.6493 84.7787 53.5427 85.3541Z" fill="white"/>
<path d="M127.156 131.899L59.763 92.9104C59.107 92.5379 58.5724 92.708 58.5724 93.2992C58.6208 93.6634 58.7536 94.0113 58.9603 94.315C59.167 94.6188 59.4419 94.87 59.763 95.0486L127.156 134.013C127.803 134.394 128.338 134.224 128.338 133.633C128.287 133.272 128.154 132.929 127.949 132.628C127.744 132.328 127.472 132.078 127.156 131.899Z" fill="white"/>
<path d="M127.156 142.922L69.3523 109.554C68.6963 109.173 68.1699 109.344 68.1699 109.935C68.2174 110.299 68.3489 110.648 68.5541 110.953C68.7593 111.258 69.0326 111.511 69.3523 111.692L127.156 145.052C127.803 145.433 128.338 145.255 128.338 144.664C128.284 144.303 128.15 143.96 127.945 143.658C127.74 143.357 127.471 143.105 127.156 142.922Z" fill="white"/>
<path d="M127.156 148.284L61.1398 110.121C60.4919 109.74 59.9574 109.919 59.9574 110.51C60.0101 110.872 60.1439 111.217 60.3486 111.52C60.5534 111.823 60.8238 112.075 61.1398 112.259L127.156 150.414C127.803 150.795 128.338 150.625 128.338 150.033C128.289 149.67 128.157 149.323 127.952 149.02C127.747 148.716 127.474 148.465 127.156 148.284Z" fill="white"/>
<path d="M127.156 137.253L61.1398 99.0903C60.4919 98.7096 59.9574 98.8878 59.9574 99.479C60.0067 99.8419 60.139 100.189 60.3441 100.492C60.5492 100.795 60.8215 101.047 61.1398 101.228L127.156 139.424C127.803 139.796 128.338 139.626 128.338 139.035C128.294 138.666 128.164 138.313 127.959 138.003C127.753 137.694 127.478 137.437 127.156 137.253Z" fill="white"/>
<path d="M55.276 43.4577C56.025 43.0963 56.8484 42.9161 57.6799 42.9316C58.5114 42.9471 59.3276 43.1578 60.0626 43.5468L133.878 86.1561C134.588 86.63 135.178 87.2636 135.6 88.0061C136.022 88.7486 136.264 89.5795 136.307 90.4324V111.49C136.339 112.332 136.141 113.167 135.734 113.905C135.326 114.643 134.725 115.256 133.995 115.678C133.265 116.099 132.434 116.314 131.592 116.298C130.749 116.282 129.926 116.037 129.213 115.588L55.3975 72.9708C54.6857 72.4983 54.0949 71.8651 53.6729 71.1223C53.2508 70.3794 53.0093 69.5478 52.9678 68.6945V47.6368C52.9985 46.8082 53.2234 45.9983 53.6243 45.2724C54.0252 44.5466 54.591 43.925 55.276 43.4577Z" fill="#263238"/>
<path d="M52.9922 47.1991C53.1946 45.9518 54.207 45.5144 55.4219 46.2191L86.1984 63.9804L129.237 88.8284C129.966 89.2872 130.568 89.9223 130.986 90.675L135.619 88.0023C135.206 87.2485 134.606 86.6128 133.878 86.1557L60.0627 43.5464C59.3829 43.1152 58.6021 42.8697 57.798 42.8341C56.9938 42.7985 56.1944 42.9742 55.4792 43.3437C54.7641 43.7131 54.1581 44.2634 53.7218 44.9399C53.2854 45.6163 53.0339 46.3952 52.9922 47.1991Z" fill="#455A64"/>
<path d="M131.715 93.113V114.171C131.715 115.742 130.606 116.382 129.245 115.596L55.43 72.9786C54.7182 72.5061 54.1274 71.8729 53.7053 71.1301C53.2833 70.3873 53.0417 69.5556 53.0002 68.7023V47.6446C53.0002 46.0734 54.1017 45.4336 55.43 46.2192L86.2065 63.9805L129.253 88.8366C129.971 89.306 130.567 89.9378 130.995 90.6807C131.423 91.4237 131.67 92.2569 131.715 93.113Z" fill="#37474F"/>
<path d="M119.162 90.0354L117.955 92.5947C117.941 92.6314 117.919 92.6648 117.892 92.6928C117.864 92.7208 117.831 92.7427 117.794 92.7572C117.758 92.7717 117.719 92.7784 117.679 92.7769C117.64 92.7754 117.601 92.7658 117.566 92.7486L114.869 91.7119C114.44 91.5499 114.27 92.1573 114.578 92.7324L116.529 96.3932C116.647 96.6086 116.7 96.853 116.683 97.0978L116.222 100.41C116.149 100.937 116.594 101.633 116.975 101.585L119.405 101.285C119.502 101.29 119.598 101.318 119.682 101.367C119.767 101.416 119.838 101.486 119.891 101.568L122.32 104.646C122.701 105.14 123.13 104.962 123.073 104.355L122.612 100.507C122.592 100.414 122.595 100.317 122.622 100.225C122.649 100.133 122.698 100.049 122.766 99.9811L124.718 98.5718C125.025 98.345 124.855 97.5432 124.426 97.2112L121.729 95.1378C121.542 94.9783 121.407 94.7669 121.34 94.5304L120.133 90.578C119.866 89.9463 119.356 89.6304 119.162 90.0354Z" fill="white"/>
<path d="M105.515 82.2199L104.308 84.7793C104.294 84.816 104.272 84.8494 104.245 84.8774C104.217 84.9054 104.184 84.9273 104.147 84.9417C104.111 84.9562 104.072 84.9629 104.032 84.9614C103.993 84.96 103.954 84.9503 103.919 84.9331L101.222 83.9045C100.793 83.7345 100.623 84.3419 100.931 84.925L102.858 88.5858C102.976 88.7982 103.029 89.0402 103.012 89.2823L102.55 92.603C102.477 93.1294 102.923 93.8178 103.304 93.7692L105.733 93.4696C105.831 93.4741 105.926 93.5023 106.011 93.5517C106.096 93.601 106.167 93.6701 106.219 93.753L108.649 96.8388C109.03 97.3247 109.459 97.1547 109.402 96.5391L108.941 92.6921C108.92 92.5984 108.924 92.5012 108.951 92.4093C108.978 92.3174 109.027 92.2336 109.094 92.1656L111.046 90.7564C111.354 90.5296 111.184 89.7278 110.755 89.4038L108.058 87.3224C107.869 87.1646 107.733 86.9525 107.669 86.7149L106.462 82.7626C106.26 82.1308 105.709 81.815 105.515 82.2199Z" fill="white"/>
<path d="M91.8677 74.4044L90.6609 76.9718C90.6469 77.0085 90.6254 77.042 90.5977 77.0699C90.5701 77.0979 90.537 77.1198 90.5004 77.1343C90.4638 77.1488 90.4247 77.1555 90.3854 77.154C90.3461 77.1525 90.3075 77.1429 90.2721 77.1257L87.5751 76.089C87.1459 75.927 86.9758 76.5263 87.2836 77.1095L89.2355 80.7703C89.3537 80.9854 89.4071 81.2301 89.3893 81.4749L88.9277 84.7874C88.8548 85.3139 89.3003 86.0023 89.6809 85.9618L92.1106 85.6621C92.2084 85.663 92.3043 85.6887 92.3893 85.7368C92.4743 85.785 92.5456 85.8541 92.5966 85.9375L95.0263 89.0233C95.407 89.5092 95.8362 89.3391 95.7795 88.7236L95.3179 84.8765C95.2984 84.7829 95.3022 84.6859 95.3291 84.5941C95.3559 84.5023 95.4049 84.4185 95.4718 84.3501L97.4236 82.9408C97.7314 82.7222 97.5613 81.9204 97.1321 81.5883L94.4351 79.5068C94.2462 79.349 94.1105 79.137 94.0463 78.8994L92.8396 74.947C92.6128 74.3234 92.062 73.9994 91.8677 74.4044Z" fill="white"/>
<path d="M78.2206 66.5965L77.0138 69.1559C76.9998 69.1926 76.9783 69.226 76.9507 69.254C76.923 69.282 76.8899 69.3039 76.8533 69.3184C76.8167 69.3328 76.7776 69.3395 76.7383 69.3381C76.699 69.3366 76.6604 69.3269 76.625 69.3097L73.9281 68.2731C73.4988 68.1111 73.3287 68.7104 73.6365 69.2935L75.5884 72.9543C75.7057 73.1698 75.7591 73.4142 75.7422 73.659L75.2806 76.9715C75.2077 77.4979 75.6532 78.1945 76.0338 78.1459L78.4636 77.8462C78.5614 77.8508 78.6567 77.8789 78.7413 77.9283C78.8259 77.9776 78.8974 78.0467 78.9495 78.1297L81.3792 81.2073C81.7599 81.7014 82.1891 81.5232 82.1324 80.9157L81.6708 77.0687C81.6432 76.9722 81.6406 76.8703 81.6633 76.7725C81.6859 76.6747 81.7331 76.5843 81.8004 76.5098L83.7523 75.1006C84.06 74.8819 83.8899 74.0801 83.4607 73.748L80.7637 71.6747C80.5765 71.5121 80.4413 71.298 80.3749 71.0591L79.1682 67.1068C78.9657 66.5075 78.4149 66.1835 78.2206 66.5965Z" fill="white"/>
<path d="M64.5737 58.781L63.3669 61.3403C63.3529 61.3771 63.3314 61.4105 63.3038 61.4385C63.2762 61.4664 63.243 61.4884 63.2064 61.5028C63.1699 61.5173 63.1307 61.524 63.0914 61.5225C63.0521 61.521 63.0136 61.5114 62.9782 61.4942L60.2812 60.4575C59.8519 60.2955 59.6819 60.903 59.9896 61.478L61.9415 65.1712C62.0589 65.3866 62.1123 65.6311 62.0954 65.8758L61.6338 69.1884C61.5609 69.7148 62.0063 70.4113 62.387 70.3627L64.8167 70.0631C64.9145 70.0676 65.0098 70.0958 65.0945 70.1451C65.1791 70.1945 65.2505 70.2636 65.3026 70.3465L67.7324 73.4242C68.113 73.9182 68.5423 73.74 68.4856 73.1326L68.0239 69.2855C68.0037 69.1919 68.0072 69.0947 68.0341 69.0028C68.0609 68.9109 68.1103 68.8271 68.1778 68.7591L70.1297 67.3499C70.4375 67.1231 70.2674 66.3213 69.8381 65.9892L67.1411 63.9158C66.9523 63.7581 66.8165 63.546 66.7524 63.3084L65.5456 59.3561C65.3188 58.6919 64.7924 58.3761 64.5737 58.781Z" fill="#455A64"/>
<path d="M121.195 76.5584L125.244 74.2259C125.325 74.19 125.392 74.1308 125.439 74.0558L126.184 72.7599L123.754 71.375L123.827 71.5856L121.195 76.5584Z" fill="#7209B7" fill-opacity="0.7"/>
<path opacity="0.2" d="M121.195 76.5584L125.244 74.2259C125.325 74.19 125.392 74.1308 125.439 74.0558L126.184 72.7599L123.754 71.375L123.827 71.5856L121.195 76.5584Z" fill="black"/>
<path d="M124.135 71.5694L121.332 76.4289C121.293 76.499 121.235 76.5561 121.163 76.5934C121.092 76.6307 121.012 76.6464 120.932 76.6386C120.852 76.6309 120.776 76.6001 120.713 76.5499C120.651 76.4997 120.604 76.4323 120.579 76.356L117.623 67.8276L124.135 71.5694Z" fill="#7209B7" fill-opacity="0.7"/>
<path d="M53.454 3.85289C53.4908 3.175 53.6866 2.51529 54.0257 1.92715C54.3648 1.33902 54.8376 0.838968 55.4058 0.467467C56.0106 0.160168 56.6794 0 57.3577 0C58.0361 0 58.7049 0.160168 59.3096 0.467467L134.388 43.7733C134.956 44.1448 135.429 44.6449 135.768 45.233C136.107 45.8212 136.303 46.4809 136.34 47.1588V71.861C136.303 72.5389 136.107 73.1986 135.768 73.7867C135.429 74.3749 134.956 74.8749 134.388 75.2464C133.783 75.5537 133.115 75.7139 132.436 75.7139C131.758 75.7139 131.089 75.5537 130.484 75.2464L55.252 31.811C53.4945 30.8148 53.4783 29.8105 53.4783 28.5713L53.454 3.85289Z" fill="#7209B7" fill-opacity="0.7"/>
<path opacity="0.2" d="M136.34 71.8608C136.303 72.5387 136.107 73.1984 135.768 73.7865C135.429 74.3747 134.956 74.8747 134.388 75.2462C133.839 75.5268 133.236 75.6864 132.62 75.7144C132.004 75.7423 131.389 75.6379 130.816 75.4082C131.731 75.7564 132.436 75.2381 132.436 74.1204V49.4101C132.412 48.729 132.214 48.0653 131.861 47.4825L135.773 45.231C136.121 45.8157 136.316 46.4786 136.34 47.1585V71.8608Z" fill="black"/>
<path opacity="0.4" d="M53.5427 3.30218C53.7695 2.49227 54.5308 2.2088 55.4298 2.72714L130.484 46.033C131.063 46.3893 131.538 46.8922 131.861 47.4908L135.765 45.2312C135.435 44.6375 134.962 44.1362 134.388 43.7734L59.3417 0.467492C58.7358 0.163925 58.0675 0.00585938 57.3898 0.00585938C56.7121 0.00585938 56.0438 0.163925 55.438 0.467492C54.9452 0.785461 54.5227 1.20104 54.1968 1.68858C53.8708 2.17612 53.6482 2.72528 53.5427 3.30218Z" fill="white"/>
<path d="M127.156 49.8396L59.763 10.8587C59.107 10.4861 58.5724 10.6562 58.5724 11.2474C58.6208 11.6117 58.7536 11.9595 58.9603 12.2633C59.167 12.567 59.4419 12.8182 59.763 12.9968L127.156 51.9778C127.803 52.3584 128.338 52.1884 128.338 51.5971C128.286 51.2339 128.153 50.8871 127.948 50.5827C127.744 50.2784 127.473 50.0243 127.156 49.8396Z" fill="white"/>
<path d="M127.156 60.8623L69.3523 27.494C68.6963 27.1134 68.1699 27.2835 68.1699 27.8747C68.2167 28.2384 68.3481 28.586 68.5534 28.8898C68.7587 29.1936 69.0323 29.445 69.3523 29.6241L127.156 63.0005C127.803 63.373 128.338 63.2029 128.338 62.6117C128.289 62.2488 128.156 61.9022 127.951 61.5988C127.746 61.2954 127.474 61.0433 127.156 60.8623Z" fill="white"/>
<path d="M127.156 66.224L61.1398 28.0692C60.4919 27.6885 59.9574 27.8667 59.9574 28.4498C60.009 28.8131 60.1422 29.1599 60.347 29.4642C60.5518 29.7686 60.8228 30.0227 61.1398 30.2073L127.156 68.3622C127.803 68.7428 128.338 68.5728 128.338 67.9815C128.286 67.6183 128.153 67.2715 127.948 66.9671C127.744 66.6627 127.473 66.4087 127.156 66.224Z" fill="white"/>
<path d="M127.156 55.2337L61.1398 17.0708C60.4919 16.6901 59.9574 16.8683 59.9574 17.4595C60.0101 17.8213 60.1439 18.1665 60.3486 18.4694C60.5534 18.7723 60.8238 19.0251 61.1398 19.2089L127.156 57.3638C127.803 57.7444 128.338 57.5743 128.338 56.9831C128.289 56.62 128.157 56.2731 127.952 55.9696C127.747 55.6661 127.474 55.4142 127.156 55.2337Z" fill="white"/>
<path d="M99.1494 204.07L70.7621 198.506C70.5829 198.477 70.3991 198.503 70.2355 198.582C70.072 198.661 69.9367 198.788 69.8482 198.947C69.7597 199.105 69.7221 199.287 69.7407 199.468C69.7593 199.648 69.8332 199.819 69.9522 199.956L89.2037 221.759L99.1494 204.07Z" fill="#FFA8A7"/>
<path d="M69.9359 199.956C69.8169 199.819 69.7431 199.648 69.7245 199.468C69.7059 199.287 69.7434 199.105 69.8319 198.947C69.9205 198.788 70.0557 198.661 70.2193 198.582C70.3828 198.503 70.5666 198.477 70.7458 198.506L76.3018 199.616C75.5412 200.087 74.9254 200.759 74.5224 201.558C74.1194 202.357 73.9448 203.252 74.0178 204.143V204.645L69.9359 199.956Z" fill="#7209B7" fill-opacity="0.3"/>
<path d="M195.035 282.462L192.718 281.125L189.908 279.505L89.1957 221.735C88.2719 218.607 88.5611 215.247 90.0056 212.323C92.0222 207.82 95.926 204.224 99.1656 204.054L199.797 261.817L205.15 264.886C201.571 263.088 191.471 280.607 195.035 282.462Z" fill="#37474F"/>
<path d="M186.182 277.416L180.999 274.435C179.468 273.625 180.343 269.859 182.133 265.972C184.506 260.805 189.163 255.799 191.196 256.876L195.018 259.071L196.371 259.881C194.338 258.804 189.673 263.801 187.308 268.977C185.599 272.702 184.724 276.322 186.028 277.31C186.069 277.359 186.122 277.395 186.182 277.416Z" fill="#EBEBEB"/>
<path d="M184.894 276.663C181.339 274.775 191.52 257.225 195.083 259.12L200.275 262.084C196.719 260.205 186.506 277.74 190.094 279.627L184.894 276.663Z" fill="#7209B7" fill-opacity="0.3"/>
<path d="M195.035 282.462L189.908 279.53C186.401 277.699 196.088 260.691 199.797 261.817C199.871 261.831 199.943 261.859 200.007 261.898L205.15 264.887C201.571 263.089 191.471 280.607 195.035 282.462Z" fill="#EBEBEB"/>
<path opacity="0.15" d="M69.8063 199L70.762 198.506L91.358 209.772L197.861 270.888C198.064 270.572 198.226 270.548 198.355 270.766C195.326 275.488 193.042 281.433 195.034 282.47L192.718 281.133L189.908 279.513L89.1955 221.743L69.944 199.94C69.825 199.818 69.7477 199.661 69.723 199.492C69.6983 199.324 69.7274 199.152 69.8063 199Z" fill="black"/>
<path d="M216.797 294.91L195.035 282.461C193.512 281.651 194.354 277.942 196.112 274.079C198.469 268.903 203.109 263.85 205.15 264.886L227.002 277.367C231.343 279.87 227.35 289.281 222.515 293.492C220.717 295.104 218.676 295.809 216.797 294.91Z" fill="#F28F8F"/>
<path opacity="0.1" d="M215.501 288.163C216.748 283.255 220.717 278.445 224.369 277.416C224.906 277.226 225.48 277.168 226.043 277.245C226.607 277.323 227.144 277.534 227.609 277.861C230.849 280.899 227.066 289.532 222.49 293.517C220.733 295.072 218.765 295.768 216.886 294.95C215.282 293.995 214.626 291.484 215.501 288.163Z" fill="black"/>
</svg>
