<svg width="374" height="348" viewBox="0 0 374 348" fill="none" xmlns="http://www.w3.org/2000/svg">
<path d="M187 347.496C83.7227 347.496 0 299.156 0 239.527C0 179.897 83.7227 131.558 187 131.558C290.277 131.558 374 179.897 374 239.527C374 299.156 290.277 347.496 187 347.496Z" fill="#5B0792" fill-opacity="0.04"/>
<path d="M321.899 307.835L324.442 306.336C324.863 306.058 325.213 305.686 325.465 305.249C325.716 304.811 325.863 304.321 325.891 303.818V115.327C325.861 114.825 325.715 114.337 325.463 113.901C325.211 113.465 324.862 113.094 324.442 112.817L207.491 45.2864C207.04 45.0599 206.542 44.9419 206.037 44.9419C205.532 44.9419 205.034 45.0599 204.583 45.2864L202.04 46.7604C201.618 47.0367 201.267 47.4075 201.014 47.8433C200.761 48.2792 200.613 48.7681 200.582 49.2712V237.794C200.612 238.298 200.759 238.789 201.012 239.226C201.265 239.663 201.617 240.036 202.04 240.313L318.991 307.835C319.442 308.061 319.94 308.179 320.445 308.179C320.95 308.179 321.447 308.061 321.899 307.835Z" fill="#37474F"/>
<path d="M200.599 49.0363C200.704 48.2912 201.311 48.0158 202.04 48.437L318.991 115.959C319.421 116.224 319.775 116.595 320.02 117.036L325.47 113.894C325.224 113.454 324.87 113.083 324.442 112.817L207.491 45.2864C207.04 45.0599 206.542 44.9419 206.037 44.9419C205.532 44.9419 205.035 45.0599 204.583 45.2864L202.04 46.7604C201.651 47.0141 201.32 47.3487 201.072 47.7414C200.823 48.1341 200.662 48.5757 200.599 49.0363Z" fill="#455A64"/>
<path d="M319.25 307.956C319.277 307.963 319.305 307.963 319.331 307.956L319.485 308.013H319.542C319.631 308.013 319.72 308.062 319.809 308.086C320.385 308.198 320.981 308.153 321.534 307.956C321.646 307.916 321.754 307.867 321.858 307.811L324.442 306.337C324.863 306.059 325.213 305.686 325.465 305.249C325.717 304.812 325.863 304.322 325.892 303.818V115.328C325.874 114.822 325.729 114.329 325.47 113.894L320.02 117.036C320.283 117.47 320.431 117.963 320.449 118.47V307.001C320.462 307.272 320.385 307.539 320.23 307.762C320.132 307.875 320.004 307.958 319.861 308.002C319.718 308.046 319.565 308.05 319.42 308.013L319.25 307.956Z" fill="#263238"/>
<path d="M278.245 107.763C278.282 107.565 278.372 107.38 278.504 107.228L278.601 107.147C278.678 107.089 278.767 107.052 278.862 107.038C278.957 107.024 279.054 107.033 279.144 107.066C279.216 107.084 279.285 107.114 279.346 107.155C279.706 107.403 279.987 107.749 280.156 108.151C280.373 108.607 280.489 109.105 280.496 109.609C280.529 109.986 280.413 110.361 280.172 110.654C280.066 110.757 279.927 110.82 279.779 110.831C279.631 110.843 279.484 110.803 279.362 110.719C279.189 110.614 279.035 110.48 278.909 110.322C278.793 110.171 278.69 110.012 278.601 109.844C278.352 109.357 278.217 108.82 278.204 108.273C278.2 108.102 278.213 107.931 278.245 107.763ZM259.228 65.2667C259.65 65.0188 260.132 64.89 260.621 64.8941C261.55 64.9375 262.453 65.2162 263.245 65.704C265.456 67.057 267.162 69.0966 268.105 71.5111C268.258 71.8513 268.404 72.2076 268.534 72.5559C268.663 72.9041 268.801 73.2605 268.915 73.625C269.028 73.9894 269.157 74.3539 269.263 74.7183C269.303 74.8398 269.336 74.9694 269.376 75.0828L269.587 75.8198C269.583 75.8548 269.583 75.8901 269.587 75.9251C269.708 76.3706 269.822 76.8322 269.951 77.2858C270.016 77.5368 270.073 77.7717 270.137 78.0147L270.324 78.7355C270.583 79.6993 270.842 80.6226 271.134 81.5054L271.32 82.0399C271.409 82.291 271.498 82.5421 271.595 82.785C271.693 83.028 271.749 83.1576 271.822 83.3277C271.944 83.6273 272.073 83.9108 272.211 84.1862C272.349 84.4616 272.381 84.5345 272.47 84.7045C274.519 88.6407 277.022 90.1795 278.471 92.2043C279.743 93.9699 280.091 95.3791 281.808 98.1733C282.351 99.0642 283.031 100.093 283.922 101.324C286.392 104.725 287.275 106.41 287.575 107.431C287.578 107.457 287.578 107.485 287.575 107.512C287.575 107.593 287.575 107.665 287.632 107.738C287.634 107.763 287.634 107.787 287.632 107.811C287.635 107.876 287.635 107.941 287.632 108.006C287.66 108.204 287.673 108.404 287.672 108.605V116.17L284.951 117.741V110.168C284.958 109.773 284.9 109.379 284.781 109.002C284.481 107.981 283.606 106.305 281.128 102.903C280.237 101.664 279.557 100.635 279.014 99.7445C277.313 96.9585 276.949 95.5411 275.677 93.7917C274.228 91.7588 271.725 90.2281 269.676 86.2839C269.38 85.6777 269.118 85.0558 268.89 84.4211C267.578 81.1814 266.987 76.816 265.375 73.1471C264.435 70.7359 262.727 68.701 260.516 67.3563C258.855 66.4006 257.641 66.3196 256.709 66.7569L259.228 65.2667ZM247.298 74.937C247.524 74.8081 247.767 74.71 248.019 74.6455C249.047 74.4025 250.578 75.0018 252.117 74.8236C249.955 77.6178 246.95 75.8198 245.298 76.2167C245.041 76.2782 244.795 76.3793 244.569 76.5163L247.298 74.937ZM241.531 85.3282C241.612 85.3776 241.688 85.4345 241.758 85.4982L241.872 85.6116L241.977 85.7331C242.431 86.3203 242.681 87.0398 242.69 87.7822C242.717 88.155 242.604 88.5245 242.374 88.8189C242.343 88.8478 242.311 88.8749 242.277 88.8999C242.202 88.9575 242.113 88.9951 242.02 89.0093C241.926 89.0235 241.831 89.0137 241.742 88.9809C241.667 88.9631 241.596 88.933 241.531 88.8918C241.45 88.8432 241.378 88.7784 241.297 88.7217C241.179 88.6115 241.073 88.4893 240.981 88.3572C240.595 87.7934 240.384 87.1287 240.373 86.4458C240.373 85.4658 240.892 84.9556 241.531 85.3282ZM239.75 78.4844C240.624 77.9968 241.574 77.6601 242.56 77.4882C242.981 77.391 243.37 77.2858 243.686 77.1805C242.602 78.1449 241.274 78.7922 239.847 79.0514C238.981 79.2199 238.138 79.4918 237.336 79.8613L239.75 78.4844Z" fill="#7209B7" fill-opacity="0.7"/>
<path d="M237.117 79.9992L237.336 79.8696C238.138 79.5002 238.98 79.2283 239.847 79.0597C241.274 78.8021 242.603 78.1546 243.686 77.1888C243.957 76.9382 244.253 76.7157 244.569 76.5247C244.795 76.3909 245.041 76.2926 245.297 76.2331C246.917 75.8362 249.954 77.6342 252.109 74.8401L252.182 74.751C253.688 72.7181 254.239 68.1826 256.499 66.8544L256.725 66.7248C257.657 66.2874 258.872 66.3684 260.532 67.3241C266.517 70.7824 266.72 78.9949 268.874 84.397C271.028 89.7991 274.09 91.4918 275.75 93.8162C277.41 96.1407 277.524 97.8658 281.209 102.936C284.894 108.006 285.032 109.253 285.032 110.225V117.79L236.016 89.4427V81.8782C235.986 81.4901 236.076 81.1022 236.273 80.7664C236.47 80.4307 236.764 80.163 237.117 79.9992ZM279.346 110.719C279.986 111.092 280.496 110.598 280.496 109.609C280.503 109.144 280.402 108.682 280.203 108.261C280.004 107.84 279.71 107.47 279.346 107.18C278.706 106.807 278.196 107.309 278.196 108.297C278.19 108.762 278.29 109.222 278.489 109.642C278.689 110.062 278.982 110.43 279.346 110.719ZM260.532 87.9282C260.839 88.1619 261.197 88.319 261.577 88.3867C261.957 88.4544 262.347 88.4307 262.716 88.3175C263.085 88.2043 263.422 88.005 263.698 87.7359C263.975 87.4668 264.183 87.1357 264.306 86.77C264.729 85.8122 264.931 84.7714 264.897 83.7248C264.897 80.0073 262.945 75.8686 260.532 74.4756C260.206 74.2811 259.85 74.1415 259.479 74.0625C257.568 73.6819 256.166 75.5123 256.166 78.679C256.166 82.3965 258.118 86.5352 260.532 87.9282ZM241.531 88.8839C242.171 89.2564 242.69 88.7624 242.69 87.7824C242.694 87.3159 242.593 86.8545 242.392 86.4334C242.191 86.0123 241.897 85.6427 241.531 85.3527C240.892 84.9882 240.373 85.4823 240.373 86.4704C240.368 86.9345 240.47 87.3935 240.671 87.812C240.872 88.2305 241.166 88.5972 241.531 88.8839Z" fill="#7209B7" fill-opacity="0.7"/>
<path opacity="0.1" d="M237.117 79.9992L237.336 79.8696C238.138 79.5002 238.98 79.2283 239.847 79.0597C241.274 78.8021 242.603 78.1546 243.686 77.1888C243.957 76.9382 244.253 76.7157 244.569 76.5247C244.795 76.3909 245.041 76.2926 245.297 76.2331C246.917 75.8362 249.954 77.6342 252.109 74.8401L252.182 74.751C253.688 72.7181 254.239 68.1826 256.499 66.8544L256.725 66.7248C257.657 66.2874 258.872 66.3684 260.532 67.3241C266.517 70.7824 266.72 78.9949 268.874 84.397C271.028 89.7991 274.09 91.4918 275.75 93.8162C277.41 96.1407 277.524 97.8658 281.209 102.936C284.894 108.006 285.032 109.253 285.032 110.225V117.79L236.016 89.4427V81.8782C235.986 81.4901 236.076 81.1022 236.273 80.7664C236.47 80.4307 236.764 80.163 237.117 79.9992ZM279.346 110.719C279.986 111.092 280.496 110.598 280.496 109.609C280.503 109.144 280.402 108.682 280.203 108.261C280.004 107.84 279.71 107.47 279.346 107.18C278.706 106.807 278.196 107.309 278.196 108.297C278.19 108.762 278.29 109.222 278.489 109.642C278.689 110.062 278.982 110.43 279.346 110.719ZM260.532 87.9282C260.839 88.1619 261.197 88.319 261.577 88.3867C261.957 88.4544 262.347 88.4307 262.716 88.3175C263.085 88.2043 263.422 88.005 263.698 87.7359C263.975 87.4668 264.183 87.1357 264.306 86.77C264.729 85.8122 264.931 84.7714 264.897 83.7248C264.897 80.0073 262.945 75.8686 260.532 74.4756C260.206 74.2811 259.85 74.1415 259.479 74.0625C257.568 73.6819 256.166 75.5123 256.166 78.679C256.166 82.3965 258.118 86.5352 260.532 87.9282ZM241.531 88.8839C242.171 89.2564 242.69 88.7624 242.69 87.7824C242.694 87.3159 242.593 86.8545 242.392 86.4334C242.191 86.0123 241.897 85.6427 241.531 85.3527C240.892 84.9882 240.373 85.4823 240.373 86.4704C240.368 86.9345 240.47 87.3935 240.671 87.812C240.872 88.2305 241.166 88.5972 241.531 88.8839Z" fill="black"/>
<path opacity="0.25" d="M284.862 109.035C284.981 109.412 285.038 109.805 285.032 110.201V117.774L287.753 116.202V108.638C287.754 108.437 287.741 108.237 287.712 108.038C287.716 107.974 287.716 107.909 287.712 107.844C287.715 107.82 287.715 107.795 287.712 107.771C287.712 107.698 287.712 107.625 287.656 107.544V107.463L284.862 109.035Z" fill="black"/>
<path opacity="0.25" d="M275.758 93.8243C277.03 95.5737 277.378 96.9911 279.095 99.7772L281.808 98.1897C280.107 95.3955 279.743 93.9863 278.471 92.2207L275.758 93.8243Z" fill="black"/>
<path opacity="0.25" d="M265.359 73.0827C266.979 76.7515 267.562 81.0765 268.874 84.3566C269.129 85.0125 269.421 85.6533 269.749 86.2761L272.47 84.713C272.381 84.5429 272.292 84.3647 272.211 84.1946C272.13 84.0245 271.944 83.6358 271.822 83.3361C271.749 83.166 271.668 82.9798 271.595 82.7935C271.522 82.6072 271.409 82.2994 271.32 82.0484L271.134 81.5138C270.842 80.631 270.583 79.7077 270.324 78.7439L270.137 78.0231C270.073 77.7801 270.016 77.5453 269.951 77.2942C269.822 76.8406 269.708 76.379 269.587 75.9335C269.583 75.8985 269.583 75.8633 269.587 75.8282L269.376 75.0912C269.336 74.9778 269.303 74.8483 269.263 74.7268C269.157 74.3623 269.036 73.9979 268.914 73.6334C268.793 73.2689 268.671 72.9207 268.534 72.5643C268.396 72.208 268.258 71.8597 268.105 71.5195L265.359 73.0827Z" fill="black"/>
<path d="M280.164 108.151C280.38 108.607 280.496 109.105 280.504 109.609C280.537 109.986 280.42 110.361 280.18 110.654C280.413 110.358 280.526 109.985 280.496 109.609C280.487 109.106 280.374 108.609 280.164 108.151ZM278.188 108.273C278.189 108.101 278.208 107.93 278.244 107.763C278.21 107.931 278.194 108.102 278.196 108.273C278.206 108.819 278.338 109.356 278.585 109.844C278.336 109.357 278.2 108.82 278.188 108.273ZM242.276 88.8999C242.201 88.9575 242.113 88.9952 242.02 89.0093C241.926 89.0235 241.831 89.0137 241.742 88.9809C241.831 89.009 241.926 89.0163 242.019 89.0022C242.111 88.9882 242.199 88.9532 242.276 88.8999Z" fill="#7209B7" fill-opacity="0.7"/>
<path d="M256.158 78.6789C256.158 82.3964 258.118 86.535 260.532 87.9281C260.841 88.1532 261.198 88.3034 261.576 88.3669C261.953 88.4304 262.34 88.4054 262.706 88.2939C263.072 88.1824 263.407 87.9874 263.684 87.7243C263.962 87.4613 264.175 87.1373 264.306 86.778C263.931 86.6975 263.573 86.5552 263.245 86.3568C260.815 84.9557 258.88 80.8252 258.88 77.1077C258.844 76.0601 259.049 75.0184 259.479 74.0624C257.551 73.6818 256.158 75.5122 256.158 78.6789Z" fill="#7209B7" fill-opacity="0.7"/>
<path opacity="0.3" d="M256.158 78.6789C256.158 82.3964 258.118 86.535 260.532 87.9281C260.841 88.1532 261.198 88.3034 261.576 88.3669C261.953 88.4304 262.34 88.4054 262.706 88.2939C263.072 88.1824 263.407 87.9874 263.684 87.7243C263.962 87.4613 264.175 87.1373 264.306 86.778C263.931 86.6975 263.573 86.5552 263.245 86.3568C260.815 84.9557 258.88 80.8252 258.88 77.1077C258.844 76.0601 259.049 75.0184 259.479 74.0624C257.551 73.6818 256.158 75.5122 256.158 78.6789Z" fill="black"/>
<path d="M278.609 109.845C278.691 110.015 278.791 110.175 278.909 110.322C279.035 110.48 279.189 110.615 279.362 110.719C279.484 110.804 279.631 110.844 279.779 110.832C279.926 110.82 280.066 110.757 280.172 110.654C280.412 110.362 280.529 109.987 280.496 109.61C280.488 109.105 280.372 108.608 280.156 108.152C279.987 107.749 279.706 107.403 279.346 107.156C279.284 107.114 279.216 107.084 279.144 107.067C279.033 107.028 278.913 107.023 278.799 107.052C278.686 107.08 278.583 107.142 278.504 107.229C278.372 107.381 278.282 107.565 278.245 107.763C278.208 107.931 278.189 108.102 278.188 108.273C278.2 108.823 278.345 109.362 278.609 109.845Z" fill="#37474F"/>
<path d="M240.373 86.4459C240.384 87.1288 240.595 87.7935 240.981 88.3572C241.073 88.4894 241.179 88.6115 241.297 88.7217C241.378 88.7784 241.45 88.8432 241.531 88.8918C241.596 88.933 241.667 88.9631 241.742 88.9809C241.852 89.0177 241.97 89.0221 242.082 88.9933C242.194 88.9646 242.295 88.904 242.374 88.8189C242.604 88.5245 242.717 88.155 242.69 87.7822C242.681 87.0398 242.431 86.3203 241.977 85.7331L241.872 85.6116L241.758 85.4983C241.688 85.4346 241.612 85.3776 241.531 85.3282C240.892 84.9556 240.373 85.4659 240.373 86.4459Z" fill="#37474F"/>
<path d="M311.402 133.591L209.629 74.8319C209.359 74.6959 209.061 74.625 208.758 74.625C208.456 74.625 208.158 74.6959 207.888 74.8319L206.908 75.3988C206.654 75.5658 206.443 75.7897 206.291 76.0526C206.139 76.3155 206.051 76.6102 206.033 76.9133V232.173C206.05 232.475 206.139 232.769 206.291 233.031C206.442 233.292 206.654 233.515 206.908 233.679L308.681 292.438C308.95 292.578 309.249 292.651 309.552 292.651C309.855 292.651 310.153 292.578 310.422 292.438L311.402 291.871C311.657 291.707 311.868 291.485 312.02 291.223C312.172 290.961 312.26 290.667 312.277 290.365V135.105C312.261 134.802 312.173 134.506 312.021 134.243C311.869 133.98 311.657 133.756 311.402 133.591Z" fill="#F5F5F5"/>
<path d="M206.065 76.6464C206.179 76.29 206.511 76.1766 206.875 76.4034L308.681 135.162C308.939 135.325 309.151 135.551 309.297 135.818L312.018 134.247C311.877 133.978 311.664 133.753 311.402 133.599L209.629 74.8403C209.362 74.7005 209.064 74.6274 208.762 74.6274C208.461 74.6274 208.163 74.7005 207.896 74.8403L206.908 75.3991C206.692 75.5406 206.506 75.7237 206.361 75.9379C206.216 76.1521 206.116 76.3929 206.065 76.6464Z" fill="#FAFAFA"/>
<path d="M308.883 292.568C308.988 292.607 309.097 292.635 309.207 292.649H309.378C309.552 292.669 309.729 292.669 309.904 292.649C310.015 292.636 310.124 292.608 310.228 292.568L310.422 292.471L311.402 291.904C311.657 291.741 311.87 291.519 312.022 291.257C312.174 290.995 312.262 290.7 312.277 290.398V135.106C312.269 134.801 312.179 134.505 312.018 134.247L309.297 135.818C309.45 136.079 309.536 136.374 309.548 136.677V291.936C309.548 292.414 309.272 292.649 308.883 292.568Z" fill="#E0E0E0"/>
<path d="M268.68 97.9307L268.817 98.1575C269.142 98.6877 269.377 99.2678 269.514 99.8745C269.514 99.923 269.514 99.9473 269.514 99.9716C269.516 99.9851 269.516 99.9987 269.514 100.012L271.174 109.358L271.692 112.347C271.692 112.469 271.749 112.59 271.782 112.72C271.813 112.84 271.851 112.959 271.895 113.076C271.895 113.157 271.952 113.238 271.984 113.319L269.263 114.89C269.133 114.578 269.038 114.252 268.979 113.918L268.445 110.93L266.825 101.583C266.702 100.834 266.411 100.123 265.974 99.5019L268.68 97.9307Z" fill="#7209B7" fill-opacity="0.7"/>
<path d="M287.421 128.084C287.696 128.521 287.955 128.958 288.231 129.396C288.344 129.606 288.458 129.817 288.563 130.027C288.668 130.238 288.822 130.57 288.935 130.837C289.049 131.105 289.195 131.437 289.308 131.744C289.421 132.052 289.535 132.36 289.64 132.668C289.745 132.975 289.875 133.388 289.972 133.753C290.037 133.988 290.102 134.223 290.166 134.474C290.318 135.046 290.455 135.629 290.58 136.223C290.58 136.426 290.669 136.636 290.701 136.839C290.733 137.041 290.806 137.341 290.847 137.584C290.847 137.584 290.847 137.584 290.847 137.624C290.847 137.819 290.847 137.948 290.75 138.005C290.737 138.011 290.723 138.014 290.709 138.014C290.695 138.014 290.681 138.011 290.669 138.005L288.328 136.175L287.947 135.875L287.761 135.737L287.559 135.575L287.397 135.454L287.259 135.34C286.575 132.864 285.435 130.538 283.898 128.48L286.619 126.909C286.886 127.298 287.162 127.695 287.421 128.084Z" fill="#7209B7" fill-opacity="0.7"/>
<path d="M257.973 77.3667C258.102 77.5773 258.216 77.7879 258.329 77.9984C258.403 78.1146 258.468 78.2364 258.523 78.3629C258.62 78.533 258.701 78.7111 258.791 78.8893C258.88 79.0675 258.936 79.1728 259.001 79.3186C259.139 79.5939 259.26 79.8693 259.374 80.1285C259.487 80.3877 259.633 80.7278 259.746 81.0275C259.86 81.2948 259.949 81.562 260.038 81.8374C260.184 82.2424 260.305 82.6473 260.418 83.0604C260.483 83.279 260.532 83.4896 260.589 83.7002C260.587 83.7164 260.587 83.7326 260.589 83.7488C260.589 83.8622 260.645 83.9675 260.661 84.0809C260.726 84.3319 260.775 84.5911 260.815 84.8422C260.856 85.0932 260.896 85.239 260.953 85.4415C261.01 85.644 261.058 85.8626 261.123 86.0732C261.188 86.2838 261.253 86.4701 261.317 86.6726C261.317 86.6726 261.317 86.6726 261.317 86.7293C261.398 86.9479 261.488 87.1747 261.585 87.4015C261.682 87.6282 261.763 87.8469 261.876 88.0818C261.904 88.1425 261.928 88.2047 261.949 88.2681C262.03 88.4382 262.119 88.6082 262.2 88.7864L262.63 89.5963C262.727 89.7907 262.824 89.9689 262.929 90.1552L260.2 91.7264C259.219 90.0714 258.503 88.2733 258.078 86.3972C257.563 83.7452 256.593 81.2024 255.211 78.8812L257.973 77.3667Z" fill="#7209B7" fill-opacity="0.7"/>
<path d="M241.782 83.4251C241.918 83.3431 242.07 83.2932 242.228 83.2793C241.964 83.7011 241.608 84.0584 241.188 84.3247C240.767 84.591 240.292 84.7596 239.798 84.8181C239.564 84.8211 239.333 84.8707 239.118 84.9639L241.782 83.4251Z" fill="#7209B7" fill-opacity="0.7"/>
<path opacity="0.4" d="M241.782 83.4251C241.918 83.3431 242.07 83.2932 242.228 83.2793C241.964 83.7011 241.608 84.0584 241.188 84.3247C240.767 84.591 240.292 84.7596 239.798 84.8181C239.564 84.8211 239.333 84.8707 239.118 84.9639L241.782 83.4251Z" fill="white"/>
<path d="M231.634 95.2579C232.062 95.049 232.534 94.9471 233.009 94.9613C233.485 94.9754 233.949 95.105 234.364 95.3389C237.53 96.7319 238.899 97.3637 240.535 98.044C240.851 100.15 239.612 100.344 238.996 100.093C236.696 99.186 235.522 98.6271 231.634 96.9182C231.224 96.6878 230.763 96.5594 230.293 96.5439C229.822 96.5284 229.354 96.6262 228.929 96.8291L231.634 95.2579Z" fill="#7209B7" fill-opacity="0.7"/>
<path opacity="0.4" d="M231.634 95.2579C232.062 95.049 232.534 94.9471 233.009 94.9613C233.485 94.9754 233.949 95.105 234.364 95.3389C237.53 96.7319 238.899 97.3637 240.535 98.044C240.851 100.15 239.612 100.344 238.996 100.093C236.696 99.186 235.522 98.6271 231.634 96.9182C231.224 96.6878 230.763 96.5594 230.293 96.5439C229.822 96.5284 229.354 96.6262 228.929 96.8291L231.634 95.2579Z" fill="white"/>
<path d="M269.279 114.89C269.865 116.173 270.69 117.333 271.709 118.308L280.229 124.714C281.591 125.824 282.819 127.087 283.89 128.48L286.611 126.909C285.543 125.512 284.314 124.245 282.95 123.135L274.414 116.737C273.413 115.755 272.603 114.596 272.024 113.319L269.279 114.89Z" fill="#7209B7" fill-opacity="0.7"/>
<path opacity="0.4" d="M269.279 114.89C269.865 116.173 270.69 117.333 271.709 118.308L280.229 124.714C281.591 125.824 282.819 127.087 283.89 128.48L286.611 126.909C285.543 125.512 284.314 124.245 282.95 123.135L274.414 116.737C273.413 115.755 272.603 114.596 272.024 113.319L269.279 114.89Z" fill="white"/>
<path d="M260.24 91.7914C261.416 93.9645 262.863 95.9786 264.549 97.7848C265.08 98.3043 265.552 98.88 265.958 99.5018L268.68 97.9305C268.28 97.3039 267.807 96.7275 267.27 96.2135C265.588 94.4068 264.142 92.3928 262.97 90.2202L260.24 91.7914Z" fill="#7209B7" fill-opacity="0.7"/>
<path opacity="0.4" d="M260.24 91.7914C261.416 93.9645 262.863 95.9786 264.549 97.7848C265.08 98.3043 265.552 98.88 265.958 99.5018L268.68 97.9305C268.28 97.3039 267.807 96.7275 267.27 96.2135C265.588 94.4068 264.142 92.3928 262.97 90.2202L260.24 91.7914Z" fill="white"/>
<path d="M244.868 71.6815C245.873 71.1551 247.209 71.2442 248.78 72.0703C251.113 73.2933 253.461 75.885 255.259 78.9464L257.981 77.3266C256.199 74.2651 253.85 71.6572 251.501 70.4505C250.738 70.0196 249.883 69.778 249.007 69.7459C248.483 69.7391 247.966 69.8704 247.509 70.1265L244.868 71.6815Z" fill="#7209B7" fill-opacity="0.7"/>
<path opacity="0.4" d="M244.868 71.6815C245.873 71.1551 247.209 71.2442 248.78 72.0703C251.113 73.2933 253.461 75.885 255.259 78.9464L257.981 77.3266C256.199 74.2651 253.85 71.6572 251.501 70.4505C250.738 70.0196 249.883 69.778 249.007 69.7459C248.483 69.7391 247.966 69.8704 247.509 70.1265L244.868 71.6815Z" fill="white"/>
<path opacity="0.15" d="M283.865 128.48C285.403 130.538 286.543 132.864 287.227 135.34L287.364 135.454L287.526 135.575L287.729 135.737L287.915 135.875L288.296 136.174L290.604 138.021C290.617 138.027 290.63 138.03 290.644 138.03C290.658 138.03 290.672 138.027 290.685 138.021C290.774 137.964 290.814 137.835 290.782 137.64C290.782 137.64 290.782 137.64 290.782 137.6C290.782 137.357 290.693 137.106 290.636 136.855C290.58 136.604 290.555 136.442 290.515 136.239C290.391 135.651 290.253 135.068 290.102 134.49C290.037 134.239 289.972 134.004 289.907 133.769C289.81 133.405 289.697 133.048 289.575 132.684C289.454 132.319 289.365 132.068 289.243 131.76C289.122 131.453 289.008 131.153 288.871 130.853C288.733 130.554 288.628 130.295 288.498 130.043C288.368 129.792 288.279 129.622 288.166 129.412C287.931 128.974 287.672 128.537 287.356 128.1C287.04 127.662 286.822 127.29 286.546 126.925L283.865 128.48Z" fill="black"/>
<path opacity="0.15" d="M265.958 99.5019C266.395 100.123 266.686 100.834 266.809 101.583L268.429 110.93L268.963 113.918C269.022 114.252 269.117 114.578 269.247 114.89L271.968 113.319C271.968 113.238 271.903 113.157 271.879 113.076C271.835 112.959 271.797 112.84 271.765 112.72C271.765 112.59 271.701 112.469 271.676 112.347L271.158 109.358L269.498 100.012C269.5 99.9987 269.5 99.9851 269.498 99.9716C269.498 99.9716 269.498 99.923 269.498 99.8745C269.361 99.2678 269.126 98.6877 268.801 98.1575L268.663 97.9307L265.958 99.5019Z" fill="black"/>
<path opacity="0.15" d="M255.251 78.9462C256.633 81.2673 257.603 83.8102 258.118 86.4621C258.544 88.3383 259.26 90.1364 260.24 91.7913L262.97 90.2201C262.864 90.0338 262.767 89.8557 262.67 89.6613L262.241 88.8514C262.16 88.6732 262.071 88.5031 261.99 88.333C261.969 88.2696 261.945 88.2074 261.917 88.1467C261.812 87.92 261.714 87.6851 261.625 87.4664C261.536 87.2477 261.439 87.0129 261.358 86.7942C261.358 86.7942 261.358 86.7537 261.358 86.7375C261.293 86.535 261.22 86.3406 261.164 86.1382C261.107 85.9357 261.042 85.717 260.994 85.5064C260.945 85.2959 260.896 85.1015 260.856 84.9071C260.815 84.7127 260.767 84.3969 260.702 84.1458C260.702 84.0324 260.653 83.9271 260.629 83.8137C260.628 83.7976 260.628 83.7813 260.629 83.7651C260.572 83.5546 260.524 83.344 260.459 83.1253C260.346 82.7122 260.224 82.3154 260.078 81.9023C259.989 81.627 259.9 81.3597 259.787 81.0924C259.673 80.7928 259.544 80.4931 259.414 80.1934C259.285 79.8938 259.179 79.6427 259.042 79.3835C258.977 79.2377 258.904 79.1001 258.831 78.9543C258.758 78.8085 258.661 78.5979 258.564 78.4278C258.509 78.3014 258.444 78.1795 258.369 78.0634C258.256 77.8528 258.143 77.6422 258.013 77.4316L255.251 78.9462Z" fill="black"/>
<path d="M290.628 138.021L288.328 136.174C289.243 136.911 290.49 137.875 290.628 138.021Z" fill="#7209B7" fill-opacity="0.7"/>
<path d="M228.921 96.8454C229.347 96.6425 229.816 96.544 230.288 96.5581C230.759 96.5722 231.221 96.6984 231.634 96.9264C235.514 98.6434 236.688 99.2022 238.988 100.117C239.604 100.36 240.843 100.166 240.527 98.0603C240.53 98.0144 240.53 97.9684 240.527 97.9226L240.001 94.934L238.527 86.7863C238.527 86.7863 238.195 85.4986 239.045 85.0207H239.11C239.319 84.918 239.549 84.8679 239.782 84.8749C240.278 84.814 240.753 84.6427 241.174 84.3736C241.594 84.1044 241.949 83.7444 242.212 83.3199C242.667 82.6436 242.982 81.8834 243.139 81.0837C243.296 80.284 243.292 79.461 243.127 78.6629C242.503 75.1641 243.184 72.7182 244.747 71.8111L244.868 71.7301C245.873 71.2037 247.209 71.2928 248.78 72.1189C252.919 74.2894 257.098 80.7282 258.118 86.511C258.758 90.1555 262.427 95.7682 264.549 97.8497C266.671 99.9312 266.809 101.648 266.809 101.648L268.429 110.995L268.963 113.983C269.352 116.218 271.644 118.381 271.644 118.381L280.229 124.714C283.635 127.424 286.094 131.145 287.251 135.34C287.251 135.34 290.49 137.819 290.652 138.021L289.559 137.398L230.662 103.535C230.662 103.535 229.982 103.171 229.853 103.074C229.723 102.976 227.334 100.741 227.334 100.741C227.374 98.8135 227.933 97.4366 228.921 96.8454ZM245.929 79.6672C246.561 83.2227 249.12 87.1832 251.663 88.5195C253.421 89.4347 254.709 88.8678 255.138 87.248C255.326 86.3397 255.326 85.4025 255.138 84.4943C254.514 80.9388 251.939 76.9783 249.396 75.6501C249.16 75.522 248.914 75.4163 248.659 75.3342C246.577 74.7025 245.403 76.4762 245.945 79.6672H245.929Z" fill="#7209B7" fill-opacity="0.7"/>
<path d="M290.62 138.029L230.622 103.543L229.812 103.081C229.666 102.992 227.293 100.741 227.293 100.741L287.226 135.34C287.226 135.34 290.855 138.159 290.62 138.029Z" fill="#7209B7" fill-opacity="0.7"/>
<path opacity="0.3" d="M290.62 138.029L230.622 103.543L229.812 103.081C229.666 102.992 227.293 100.741 227.293 100.741L287.226 135.34C287.226 135.34 290.855 138.159 290.62 138.029Z" fill="black"/>
<path d="M248.642 75.3343C248.897 75.4163 249.144 75.5221 249.379 75.6501C251.923 76.9784 254.498 80.9389 255.122 84.4944C255.31 85.4026 255.31 86.3398 255.122 87.2481C254.692 88.8679 253.405 89.4348 251.647 88.5196C249.104 87.1833 246.545 83.2228 245.913 79.6673C245.403 76.4763 246.577 74.7026 248.642 75.3343ZM254.96 87.1833C255.139 86.3068 255.139 85.4032 254.96 84.5268C254.336 81.0118 251.801 77.0999 249.29 75.7959C249.082 75.6856 248.865 75.5909 248.642 75.5125C248.476 76.3684 248.476 77.2482 248.642 78.1042C249.266 81.6597 251.833 85.6201 254.385 86.9565C254.57 87.0541 254.762 87.138 254.96 87.2076V87.1833Z" fill="#7209B7" fill-opacity="0.7"/>
<path opacity="0.4" d="M248.642 75.3343C248.897 75.4163 249.144 75.5221 249.379 75.6501C251.923 76.9784 254.498 80.9389 255.122 84.4944C255.31 85.4026 255.31 86.3398 255.122 87.2481C254.692 88.8679 253.405 89.4348 251.647 88.5196C249.104 87.1833 246.545 83.2228 245.913 79.6673C245.403 76.4763 246.577 74.7026 248.642 75.3343ZM254.96 87.1833C255.139 86.3068 255.139 85.4032 254.96 84.5268C254.336 81.0118 251.801 77.0999 249.29 75.7959C249.082 75.6856 248.865 75.5909 248.642 75.5125C248.476 76.3684 248.476 77.2482 248.642 78.1042C249.266 81.6597 251.833 85.6201 254.385 86.9565C254.57 87.0541 254.762 87.138 254.96 87.2076V87.1833Z" fill="black"/>
<path d="M295.884 183.789C296.012 183.789 296.138 183.756 296.249 183.692C296.382 183.606 296.489 183.485 296.558 183.342C296.626 183.199 296.654 183.04 296.638 182.882V179.424C296.626 179.113 296.538 178.81 296.383 178.54C296.228 178.271 296.009 178.043 295.747 177.877L292.726 176.135C292.601 176.052 292.455 176.006 292.305 176.001C292.154 175.997 292.006 176.034 291.876 176.109C291.746 176.183 291.639 176.293 291.567 176.425C291.496 176.557 291.462 176.706 291.47 176.856V180.347C291.481 180.658 291.568 180.962 291.723 181.231C291.879 181.501 292.098 181.728 292.361 181.894L295.382 183.643C295.534 183.735 295.707 183.785 295.884 183.789ZM292.224 176.71C292.272 176.724 292.318 176.743 292.361 176.767L295.382 178.508C295.534 178.611 295.66 178.746 295.752 178.905C295.843 179.063 295.897 179.241 295.909 179.424V182.914C295.922 182.962 295.922 183.012 295.909 183.06C295.86 183.052 295.814 183.036 295.771 183.011L292.75 181.262C292.598 181.16 292.472 181.024 292.381 180.866C292.289 180.707 292.236 180.529 292.224 180.347V176.856C292.22 176.821 292.22 176.786 292.224 176.751V176.71Z" fill="#455A64"/>
<path d="M288.903 175.633L276.997 168.757C276.6 168.53 276.285 168.708 276.285 169.162V170.093C276.299 170.339 276.371 170.578 276.495 170.79C276.618 171.003 276.791 171.183 276.997 171.316L288.903 178.192C289.292 178.419 289.616 178.241 289.616 177.787V176.856C289.602 176.611 289.53 176.372 289.406 176.159C289.282 175.947 289.11 175.767 288.903 175.633Z" fill="#E0E0E0"/>
<path d="M266.379 166.756C266.507 166.758 266.633 166.724 266.744 166.659C266.879 166.574 266.987 166.454 267.057 166.311C267.127 166.168 267.156 166.008 267.141 165.849V162.359C267.127 162.047 267.038 161.744 266.882 161.475C266.725 161.205 266.505 160.978 266.242 160.812L263.221 159.07C263.096 158.981 262.948 158.929 262.794 158.92C262.641 158.912 262.488 158.947 262.354 159.022C262.223 159.1 262.118 159.214 262.049 159.351C261.98 159.487 261.951 159.639 261.965 159.791V163.282C261.976 163.593 262.063 163.897 262.218 164.166C262.374 164.436 262.593 164.664 262.856 164.829L265.877 166.578C266.026 166.681 266.199 166.743 266.379 166.756ZM262.727 159.678C262.771 159.694 262.814 159.713 262.856 159.735L265.877 161.476C266.03 161.578 266.158 161.713 266.25 161.872C266.343 162.03 266.398 162.208 266.412 162.391V165.882C266.428 165.929 266.428 165.98 266.412 166.028C266.364 166.018 266.317 166.002 266.274 165.979L263.253 164.23C263.1 164.128 262.973 163.993 262.882 163.834C262.791 163.675 262.738 163.497 262.727 163.314V159.824C262.712 159.776 262.712 159.725 262.727 159.678Z" fill="#455A64"/>
<path d="M259.398 158.601L247.492 151.725C247.095 151.498 246.78 151.676 246.78 152.13V153.061C246.794 153.307 246.866 153.545 246.99 153.758C247.113 153.97 247.286 154.151 247.492 154.284L259.398 161.16C259.795 161.387 260.111 161.209 260.111 160.755V159.824C260.092 159.579 260.018 159.342 259.895 159.13C259.772 158.919 259.602 158.738 259.398 158.601Z" fill="#E0E0E0"/>
<path d="M236.883 149.724C237.01 149.725 237.136 149.691 237.247 149.627C237.379 149.54 237.485 149.419 237.553 149.276C237.622 149.133 237.65 148.975 237.636 148.817V145.327C237.623 145.016 237.535 144.713 237.38 144.444C237.225 144.174 237.007 143.947 236.745 143.78L233.724 142.038C233.598 141.953 233.45 141.904 233.298 141.899C233.146 141.893 232.995 141.93 232.863 142.006C232.731 142.082 232.624 142.194 232.552 142.329C232.481 142.463 232.449 142.615 232.46 142.767V146.25C232.473 146.561 232.561 146.865 232.718 147.135C232.874 147.405 233.095 147.632 233.359 147.797L236.38 149.546C236.528 149.65 236.702 149.712 236.883 149.724ZM236.38 144.444C236.531 144.547 236.656 144.683 236.747 144.842C236.839 145 236.893 145.177 236.907 145.359V148.85C236.923 148.897 236.923 148.948 236.907 148.995C236.86 148.99 236.816 148.974 236.777 148.947L233.756 147.197C233.603 147.096 233.476 146.96 233.383 146.802C233.29 146.643 233.235 146.465 233.222 146.282V142.8C233.207 142.749 233.207 142.696 233.222 142.646C233.222 142.646 233.27 142.646 233.359 142.702L236.38 144.444Z" fill="#455A64"/>
<path d="M229.893 141.569L217.987 134.693C217.599 134.466 217.275 134.644 217.275 135.097V136.029C217.293 136.273 217.367 136.51 217.49 136.722C217.614 136.934 217.784 137.115 217.987 137.252L229.893 144.128C230.29 144.355 230.606 144.177 230.606 143.723V142.792C230.592 142.546 230.52 142.307 230.396 142.095C230.272 141.882 230.1 141.702 229.893 141.569Z" fill="#E0E0E0"/>
<path d="M288.871 158.593V159.953C288.871 160.699 288.352 160.998 287.712 160.626L218.06 120.446C217.723 120.224 217.442 119.926 217.241 119.576C217.039 119.226 216.923 118.833 216.902 118.429V117.061C216.902 116.324 217.42 116.024 218.06 116.388L287.712 156.576C288.05 156.798 288.331 157.096 288.532 157.446C288.733 157.797 288.849 158.189 288.871 158.593Z" fill="#E0E0E0"/>
<path d="M294.175 147.967V149.328C294.175 150.073 293.657 150.372 293.009 150L223.397 109.82C223.057 109.6 222.774 109.303 222.572 108.952C222.369 108.602 222.252 108.208 222.231 107.803V106.435C222.231 105.698 222.749 105.398 223.397 105.762L293.009 145.974C293.346 146.192 293.627 146.486 293.83 146.832C294.032 147.178 294.151 147.567 294.175 147.967Z" fill="#455A64"/>
<path d="M288.871 166.829V168.198C288.871 168.935 288.352 169.235 287.712 168.87L218.06 128.691C217.723 128.469 217.442 128.171 217.241 127.821C217.039 127.47 216.923 127.077 216.902 126.674V125.305C216.902 124.568 217.42 124.269 218.06 124.633L287.712 164.821C288.049 165.042 288.329 165.339 288.53 165.687C288.731 166.036 288.848 166.427 288.871 166.829Z" fill="#E0E0E0"/>
<path d="M296.5 167.534C294.678 165.728 294.224 164.959 294.224 164.295C294.224 163.63 294.491 163.274 295.309 163.744C295.663 163.95 295.967 164.23 296.201 164.566C296.435 164.902 296.592 165.285 296.662 165.688L298.654 166.133C298.481 165.089 298.087 164.094 297.499 163.215C296.911 162.335 296.143 161.59 295.245 161.031C293.252 159.881 292.094 160.739 292.094 162.651C292.205 164.511 293.015 166.261 294.362 167.55V169.13L296.5 170.361V167.534Z" fill="#455A64"/>
<path d="M296.524 172.783C296.527 172.393 296.429 172.01 296.239 171.671C296.048 171.331 295.773 171.047 295.439 170.847C294.726 170.434 294.362 170.798 294.362 171.535C294.356 171.926 294.452 172.312 294.641 172.655C294.83 172.997 295.105 173.284 295.439 173.487C296.16 173.9 296.524 173.512 296.524 172.783Z" fill="#455A64"/>
<path d="M295.415 179.424L294.524 180.096L295.334 181.635C295.403 181.729 295.441 181.842 295.441 181.959C295.441 182.076 295.403 182.189 295.334 182.283C295.18 182.396 294.961 182.283 294.832 182.04L294.022 180.509L293.131 181.181C293.001 181.279 292.807 181.181 292.693 180.971C292.634 180.89 292.601 180.792 292.601 180.691C292.601 180.591 292.634 180.493 292.693 180.412L293.584 179.74L292.774 178.201C292.705 178.107 292.667 177.994 292.667 177.877C292.667 177.76 292.705 177.647 292.774 177.553C292.928 177.44 293.147 177.553 293.277 177.796L294.086 179.335L294.977 178.663C295.107 178.565 295.301 178.663 295.415 178.865C295.475 178.946 295.507 179.044 295.507 179.144C295.507 179.245 295.475 179.343 295.415 179.424Z" fill="#7209B7" fill-opacity="0.7"/>
<path d="M295.884 214.541C296.012 214.545 296.138 214.514 296.249 214.452C296.382 214.366 296.489 214.245 296.558 214.102C296.626 213.959 296.654 213.8 296.638 213.642V210.152C296.627 209.841 296.54 209.537 296.385 209.267C296.229 208.998 296.01 208.77 295.747 208.605L292.726 206.863C292.601 206.781 292.455 206.734 292.305 206.729C292.154 206.725 292.006 206.762 291.876 206.837C291.746 206.911 291.639 207.021 291.567 207.153C291.496 207.285 291.462 207.434 291.47 207.584V211.075C291.481 211.386 291.568 211.69 291.723 211.959C291.879 212.229 292.098 212.456 292.361 212.622L295.382 214.363C295.531 214.466 295.704 214.528 295.884 214.541ZM292.224 207.471C292.273 207.48 292.32 207.499 292.361 207.527L295.382 209.269C295.534 209.371 295.66 209.507 295.752 209.665C295.843 209.824 295.897 210.001 295.909 210.184V213.675C295.922 213.722 295.922 213.773 295.909 213.82C295.86 213.812 295.814 213.796 295.771 213.772L292.75 212.022C292.598 211.92 292.472 211.785 292.381 211.626C292.289 211.467 292.236 211.29 292.224 211.107V207.617C292.216 207.568 292.216 207.519 292.224 207.471Z" fill="#455A64"/>
<path d="M288.903 206.385L276.997 199.517C276.6 199.29 276.285 199.469 276.285 199.922V200.846C276.298 201.092 276.369 201.333 276.493 201.547C276.617 201.761 276.79 201.942 276.997 202.077L288.903 208.953C289.292 209.179 289.616 208.993 289.616 208.54V207.616C289.602 207.37 289.53 207.129 289.407 206.916C289.283 206.702 289.11 206.52 288.903 206.385Z" fill="#E0E0E0"/>
<path d="M266.379 197.509C266.507 197.513 266.633 197.482 266.744 197.42C266.879 197.335 266.987 197.214 267.057 197.071C267.127 196.928 267.156 196.769 267.141 196.61V193.119C267.128 192.808 267.04 192.504 266.883 192.234C266.727 191.965 266.506 191.737 266.242 191.572L263.221 189.831C263.096 189.742 262.948 189.69 262.794 189.681C262.641 189.672 262.488 189.708 262.354 189.783C262.223 189.861 262.118 189.975 262.049 190.111C261.98 190.247 261.951 190.4 261.965 190.552V194.043C261.976 194.354 262.063 194.657 262.218 194.927C262.374 195.197 262.593 195.424 262.856 195.59L265.877 197.331C266.026 197.434 266.199 197.496 266.379 197.509ZM262.727 190.439C262.773 190.45 262.817 190.469 262.856 190.495L265.877 192.237C266.03 192.338 266.158 192.474 266.25 192.632C266.343 192.791 266.398 192.969 266.412 193.152V196.642C266.428 196.69 266.428 196.741 266.412 196.788C266.364 196.779 266.317 196.762 266.274 196.74L263.253 194.99C263.101 194.888 262.975 194.752 262.884 194.594C262.792 194.435 262.739 194.258 262.727 194.075V190.584C262.712 190.537 262.712 190.486 262.727 190.439Z" fill="#455A64"/>
<path d="M259.398 189.353L247.492 182.485C247.095 182.258 246.78 182.436 246.78 182.89V183.813C246.793 184.06 246.864 184.301 246.988 184.515C247.112 184.729 247.285 184.91 247.492 185.044L259.398 191.92C259.795 192.147 260.111 191.92 260.111 191.507V190.584C260.093 190.338 260.02 190.1 259.897 189.886C259.773 189.673 259.603 189.49 259.398 189.353Z" fill="#E0E0E0"/>
<path d="M236.883 180.477C237.01 180.48 237.136 180.449 237.247 180.388C237.379 180.3 237.485 180.179 237.553 180.036C237.622 179.894 237.65 179.735 237.636 179.578V176.087C237.623 175.776 237.535 175.473 237.38 175.204C237.225 174.935 237.007 174.707 236.745 174.54L233.724 172.799C233.599 172.714 233.452 172.665 233.3 172.659C233.149 172.653 232.999 172.69 232.867 172.765C232.736 172.84 232.628 172.951 232.556 173.084C232.484 173.217 232.451 173.368 232.46 173.519V177.01C232.473 177.322 232.561 177.626 232.718 177.895C232.874 178.165 233.095 178.392 233.359 178.557L236.38 180.298C236.528 180.402 236.702 180.464 236.883 180.477ZM236.38 175.204C236.531 175.308 236.656 175.444 236.747 175.602C236.839 175.76 236.893 175.937 236.907 176.119V179.61C236.923 179.657 236.923 179.709 236.907 179.756C236.862 179.745 236.818 179.729 236.777 179.707L233.756 177.958C233.603 177.856 233.476 177.721 233.383 177.562C233.29 177.403 233.235 177.226 233.222 177.043V173.552C233.207 173.504 233.207 173.454 233.222 173.406C233.27 173.418 233.317 173.437 233.359 173.463L236.38 175.204Z" fill="#455A64"/>
<path d="M229.893 172.321L217.987 165.453C217.599 165.226 217.275 165.404 217.275 165.858V166.781C217.292 167.027 217.365 167.266 217.489 167.479C217.612 167.692 217.783 167.875 217.987 168.012L229.893 174.888C230.29 175.115 230.606 174.929 230.606 174.475V173.552C230.593 173.305 230.521 173.065 230.398 172.851C230.274 172.637 230.101 172.455 229.893 172.321Z" fill="#E0E0E0"/>
<path d="M288.871 189.345V190.714C288.871 191.451 288.352 191.75 287.712 191.386L218.06 151.206C217.723 150.985 217.442 150.687 217.241 150.336C217.039 149.986 216.923 149.593 216.902 149.19V147.821C216.902 147.084 217.42 146.784 218.06 147.149L287.712 187.336C288.049 187.557 288.329 187.854 288.53 188.203C288.731 188.552 288.848 188.943 288.871 189.345Z" fill="#E0E0E0"/>
<path d="M288.871 197.59V198.958C288.871 199.696 288.352 199.995 287.712 199.631L218.06 159.443C217.722 159.224 217.44 158.928 217.239 158.578C217.038 158.229 216.922 157.837 216.902 157.434V156.066C216.902 155.321 217.42 155.021 218.06 155.393L287.712 195.581C288.049 195.802 288.329 196.099 288.53 196.448C288.731 196.797 288.848 197.188 288.871 197.59Z" fill="#E0E0E0"/>
<path d="M296.5 198.294C294.678 196.488 294.224 195.719 294.224 195.055C294.224 194.391 294.491 194.034 295.309 194.504C295.663 194.71 295.967 194.99 296.201 195.326C296.435 195.662 296.592 196.045 296.662 196.448L298.654 196.893C298.481 195.849 298.087 194.854 297.499 193.975C296.911 193.095 296.143 192.35 295.245 191.791C293.252 190.641 292.094 191.499 292.094 193.451C292.205 195.312 293.015 197.062 294.362 198.351V199.93L296.5 201.161V198.294Z" fill="#455A64"/>
<path d="M296.524 203.543C296.527 203.154 296.429 202.77 296.239 202.431C296.048 202.091 295.773 201.807 295.439 201.607C294.726 201.194 294.362 201.559 294.362 202.296C294.356 202.686 294.453 203.072 294.642 203.414C294.831 203.756 295.105 204.044 295.439 204.247C296.16 204.661 296.524 204.288 296.524 203.543Z" fill="#455A64"/>
<path d="M265.91 193.119L265.019 193.791L265.829 195.33C265.898 195.424 265.936 195.537 265.936 195.654C265.936 195.771 265.898 195.884 265.829 195.978C265.683 196.091 265.456 195.978 265.327 195.735L264.517 194.204L263.626 194.877C263.496 194.974 263.302 194.877 263.197 194.666C263.137 194.585 263.104 194.487 263.104 194.387C263.104 194.286 263.137 194.188 263.197 194.107L264.087 193.435L263.278 191.896C263.212 191.799 263.181 191.682 263.188 191.565C263.195 191.448 263.241 191.337 263.318 191.248C263.464 191.143 263.691 191.248 263.82 191.491L264.63 193.03L265.521 192.358C265.642 192.261 265.837 192.358 265.95 192.56C266.006 192.645 266.032 192.746 266.024 192.847C266.017 192.948 265.977 193.043 265.91 193.119Z" fill="#7209B7" fill-opacity="0.7"/>
<path d="M295.884 245.302C296.012 245.302 296.138 245.269 296.249 245.205C296.38 245.126 296.485 245.012 296.554 244.876C296.623 244.74 296.652 244.587 296.638 244.435V240.945C296.627 240.634 296.54 240.33 296.385 240.06C296.23 239.79 296.01 239.563 295.747 239.398L292.726 237.656C292.601 237.573 292.455 237.527 292.305 237.522C292.155 237.518 292.006 237.555 291.876 237.63C291.746 237.704 291.639 237.814 291.567 237.946C291.496 238.078 291.462 238.227 291.47 238.377V241.868C291.481 242.179 291.568 242.483 291.723 242.752C291.879 243.022 292.098 243.249 292.361 243.415L295.382 245.156C295.534 245.248 295.707 245.298 295.884 245.302ZM292.224 238.231C292.273 238.24 292.32 238.26 292.361 238.288L295.382 240.029C295.534 240.132 295.661 240.267 295.752 240.426C295.843 240.584 295.897 240.762 295.909 240.945V244.435C295.921 244.483 295.921 244.533 295.909 244.581C295.859 244.572 295.812 244.553 295.771 244.524L292.75 242.783C292.598 242.681 292.472 242.545 292.381 242.387C292.289 242.228 292.236 242.05 292.224 241.868V238.377C292.216 238.329 292.216 238.28 292.224 238.231Z" fill="#455A64"/>
<path d="M288.903 237.146L276.997 230.269C276.6 230.043 276.285 230.229 276.285 230.683V231.606C276.298 231.853 276.369 232.093 276.493 232.307C276.617 232.521 276.79 232.703 276.997 232.837L288.903 239.713C289.292 239.94 289.616 239.754 289.616 239.3V238.377C289.602 238.13 289.53 237.89 289.407 237.676C289.283 237.462 289.11 237.28 288.903 237.146Z" fill="#E0E0E0"/>
<path d="M266.379 228.269C266.507 228.271 266.633 228.237 266.744 228.172C266.876 228.095 266.983 227.981 267.054 227.845C267.124 227.709 267.154 227.556 267.141 227.403V223.912C267.128 223.601 267.04 223.297 266.883 223.027C266.727 222.757 266.506 222.53 266.242 222.365L263.221 220.624C263.094 220.538 262.947 220.488 262.795 220.478C262.643 220.468 262.491 220.499 262.354 220.567C262.222 220.654 262.116 220.776 262.048 220.918C261.979 221.061 261.951 221.22 261.965 221.377V224.868C261.976 225.179 262.063 225.483 262.218 225.752C262.374 226.022 262.593 226.249 262.856 226.415L265.877 228.156C266.032 228.237 266.205 228.276 266.379 228.269ZM262.727 221.199C262.773 221.21 262.817 221.23 262.856 221.256L265.877 222.997C266.03 223.099 266.158 223.234 266.25 223.393C266.343 223.551 266.398 223.729 266.412 223.912V227.403C266.426 227.45 266.426 227.501 266.412 227.549C266.363 227.538 266.316 227.519 266.274 227.492L263.221 225.751C263.069 225.648 262.943 225.513 262.851 225.354C262.76 225.195 262.706 225.018 262.694 224.835V221.345C262.688 221.294 262.7 221.243 262.727 221.199Z" fill="#455A64"/>
<path d="M259.398 220.113L247.492 213.237C247.095 213.018 246.78 213.197 246.78 213.65V214.573C246.793 214.82 246.864 215.061 246.988 215.275C247.112 215.489 247.285 215.67 247.492 215.805L259.398 222.681C259.795 222.907 260.111 222.721 260.111 222.268V221.344C260.093 221.098 260.02 220.86 259.897 220.646C259.773 220.433 259.603 220.251 259.398 220.113Z" fill="#E0E0E0"/>
<path d="M236.883 211.237C237.01 211.237 237.136 211.204 237.247 211.14C237.378 211.061 237.483 210.947 237.552 210.811C237.621 210.675 237.65 210.522 237.636 210.37V206.879C237.625 206.568 237.538 206.265 237.383 205.995C237.228 205.725 237.009 205.498 236.745 205.332L233.724 203.591C233.6 203.503 233.454 203.451 233.302 203.442C233.151 203.433 233 203.466 232.866 203.539C232.733 203.612 232.622 203.72 232.548 203.853C232.473 203.985 232.437 204.136 232.444 204.288V207.778C232.457 208.09 232.545 208.394 232.702 208.664C232.858 208.933 233.079 209.16 233.343 209.325L236.364 211.067C236.518 211.17 236.697 211.229 236.883 211.237ZM236.38 205.964C236.531 206.068 236.656 206.204 236.747 206.362C236.839 206.52 236.893 206.697 236.907 206.879V210.37C236.921 210.418 236.921 210.468 236.907 210.516C236.861 210.504 236.817 210.485 236.777 210.459L233.756 208.718C233.603 208.616 233.476 208.481 233.383 208.322C233.291 208.164 233.235 207.986 233.222 207.803V204.288C233.207 204.24 233.207 204.189 233.222 204.142C233.269 204.153 233.316 204.169 233.359 204.191L236.38 205.964Z" fill="#455A64"/>
<path d="M229.893 203.081L217.987 196.205C217.599 195.986 217.275 196.205 217.275 196.618V197.541C217.292 197.787 217.365 198.026 217.489 198.239C217.612 198.453 217.783 198.635 217.987 198.772L229.893 205.648C230.29 205.875 230.606 205.689 230.606 205.235V204.288C230.589 204.045 230.516 203.81 230.392 203.6C230.268 203.391 230.098 203.213 229.893 203.081Z" fill="#E0E0E0"/>
<path d="M288.871 220.105V221.474C288.871 222.211 288.352 222.511 287.712 222.146L218.06 181.959C217.722 181.74 217.44 181.443 217.239 181.094C217.038 180.745 216.922 180.353 216.902 179.95V178.581C216.902 177.844 217.42 177.537 218.06 177.909L287.712 218.097C288.049 218.318 288.329 218.615 288.53 218.963C288.731 219.312 288.848 219.703 288.871 220.105Z" fill="#E0E0E0"/>
<path d="M288.871 228.35V229.719C288.871 230.456 288.352 230.756 287.712 230.383L218.06 190.204C217.723 189.984 217.442 189.687 217.241 189.338C217.039 188.989 216.923 188.598 216.902 188.195V186.826C216.902 186.081 217.42 185.782 218.06 186.154L287.712 226.342C288.05 226.562 288.331 226.858 288.532 227.208C288.733 227.557 288.849 227.948 288.871 228.35Z" fill="#E0E0E0"/>
<path d="M296.5 229.055C294.678 227.249 294.224 226.479 294.224 225.815C294.224 225.151 294.491 224.787 295.309 225.264C295.663 225.47 295.967 225.751 296.201 226.086C296.435 226.422 296.592 226.805 296.662 227.208L298.654 227.646C298.48 226.603 298.085 225.61 297.498 224.731C296.91 223.853 296.142 223.11 295.245 222.551C293.252 221.401 292.094 222.26 292.094 224.171C292.205 226.032 293.015 227.782 294.362 229.071V230.65L296.5 231.881V229.055Z" fill="#455A64"/>
<path d="M296.524 234.303C296.528 233.913 296.43 233.528 296.24 233.187C296.049 232.846 295.773 232.561 295.439 232.359C294.726 231.954 294.362 232.319 294.362 233.056C294.357 233.447 294.454 233.832 294.643 234.174C294.832 234.516 295.106 234.803 295.439 235.008C296.16 235.421 296.524 235.064 296.524 234.303Z" fill="#455A64"/>
<path d="M236.405 206.847L235.522 207.519L236.332 209.058C236.403 209.151 236.441 209.265 236.441 209.382C236.441 209.499 236.403 209.613 236.332 209.706C236.186 209.82 235.959 209.706 235.83 209.463L235.02 207.924L234.129 208.597C233.999 208.694 233.813 208.597 233.7 208.394C233.639 208.314 233.605 208.216 233.605 208.115C233.605 208.014 233.639 207.916 233.7 207.835L234.591 207.163L233.781 205.624C233.719 205.525 233.69 205.41 233.697 205.294C233.704 205.178 233.748 205.067 233.821 204.976C233.967 204.863 234.194 204.976 234.323 205.219L235.133 206.758L236.024 206.078C236.154 205.981 236.348 206.078 236.453 206.288C236.508 206.374 236.532 206.475 236.524 206.576C236.515 206.677 236.473 206.772 236.405 206.847Z" fill="#7209B7" fill-opacity="0.7"/>
<path d="M295.884 276.062C296.012 276.063 296.138 276.029 296.249 275.965C296.38 275.886 296.485 275.772 296.554 275.636C296.623 275.5 296.652 275.347 296.638 275.196V271.705C296.627 271.394 296.54 271.09 296.385 270.821C296.23 270.551 296.01 270.323 295.747 270.158L292.726 268.409C292.598 268.327 292.451 268.279 292.299 268.27C292.147 268.262 291.996 268.293 291.859 268.36C291.726 268.446 291.619 268.567 291.55 268.71C291.482 268.853 291.454 269.012 291.47 269.17V272.661C291.483 272.971 291.571 273.274 291.726 273.543C291.881 273.813 292.099 274.041 292.361 274.208L295.382 275.949C295.537 276.029 295.71 276.068 295.884 276.062ZM292.224 268.992C292.272 269 292.319 269.016 292.361 269.04L295.382 270.79C295.534 270.892 295.661 271.028 295.752 271.186C295.843 271.345 295.897 271.522 295.909 271.705V275.196C295.921 275.243 295.921 275.294 295.909 275.341C295.861 275.328 295.815 275.309 295.771 275.285L292.75 273.543C292.598 273.441 292.472 273.306 292.381 273.147C292.289 272.988 292.236 272.811 292.224 272.628V269.138C292.215 269.089 292.215 269.04 292.224 268.992Z" fill="#455A64"/>
<path d="M288.903 267.906L276.997 261.03C276.6 260.803 276.285 260.99 276.285 261.443V262.367C276.298 262.614 276.369 262.854 276.493 263.068C276.617 263.282 276.79 263.463 276.997 263.598L288.903 270.474C289.292 270.701 289.616 270.474 289.616 270.061V269.137C289.602 268.891 289.53 268.651 289.407 268.437C289.283 268.223 289.11 268.041 288.903 267.906Z" fill="#E0E0E0"/>
<path d="M266.38 259.03C266.508 259.031 266.634 258.997 266.744 258.932C266.883 258.852 266.995 258.732 267.066 258.588C267.136 258.444 267.162 258.282 267.141 258.122V254.632C267.129 254.32 267.04 254.016 266.884 253.747C266.727 253.477 266.507 253.25 266.242 253.085L263.221 251.335C263.095 251.252 262.948 251.205 262.798 251.201C262.647 251.197 262.497 251.234 262.367 251.31C262.236 251.386 262.13 251.497 262.059 251.63C261.988 251.763 261.956 251.914 261.966 252.064V255.555C261.976 255.866 262.063 256.17 262.218 256.439C262.374 256.709 262.593 256.937 262.856 257.102L265.877 258.843C266.025 258.949 266.198 259.014 266.38 259.03ZM262.727 251.959C262.772 251.969 262.816 251.986 262.856 252.008L265.877 253.757C266.03 253.859 266.158 253.994 266.25 254.153C266.343 254.311 266.398 254.489 266.412 254.672V258.163C266.426 258.21 266.426 258.261 266.412 258.309C266.365 258.294 266.318 258.275 266.274 258.252L263.253 256.511C263.101 256.408 262.975 256.273 262.884 256.114C262.793 255.956 262.739 255.778 262.727 255.596V252.072C262.717 252.035 262.717 251.996 262.727 251.959Z" fill="#455A64"/>
<path d="M259.398 250.874L247.492 243.997C247.095 243.771 246.78 243.997 246.78 244.411V245.334C246.793 245.581 246.864 245.821 246.988 246.035C247.112 246.249 247.285 246.431 247.492 246.565L259.398 253.441C259.795 253.668 260.111 253.482 260.111 253.028V252.072C260.089 251.832 260.013 251.6 259.89 251.392C259.767 251.185 259.599 251.008 259.398 250.874Z" fill="#E0E0E0"/>
<path d="M236.883 241.997C237.01 241.998 237.136 241.964 237.247 241.9C237.378 241.821 237.483 241.707 237.552 241.571C237.621 241.435 237.65 241.282 237.636 241.131V237.64C237.625 237.329 237.538 237.025 237.383 236.755C237.228 236.486 237.009 236.258 236.745 236.093L233.724 234.344C233.594 234.262 233.446 234.214 233.293 234.205C233.14 234.197 232.987 234.228 232.849 234.295C232.717 234.382 232.611 234.504 232.543 234.646C232.474 234.789 232.446 234.947 232.46 235.105V238.596C232.474 238.907 232.563 239.21 232.72 239.48C232.876 239.749 233.096 239.977 233.359 240.142L236.38 241.884C236.535 241.965 236.708 242.004 236.883 241.997ZM236.38 236.725C236.531 236.828 236.656 236.964 236.747 237.123C236.839 237.281 236.893 237.458 236.907 237.64V241.131C236.921 241.178 236.921 241.229 236.907 241.276C236.862 241.26 236.819 241.241 236.777 241.22L233.756 239.478C233.603 239.377 233.476 239.241 233.383 239.083C233.291 238.924 233.235 238.746 233.222 238.563V235.064C233.206 235.017 233.206 234.966 233.222 234.919C233.269 234.929 233.316 234.946 233.359 234.967L236.38 236.725Z" fill="#455A64"/>
<path d="M229.893 233.841L217.987 226.965C217.599 226.739 217.275 226.925 217.275 227.378V228.302C217.292 228.548 217.365 228.786 217.489 229C217.612 229.213 217.783 229.395 217.987 229.533L229.893 236.409C230.29 236.636 230.606 236.409 230.606 235.996V235.064C230.592 234.819 230.52 234.58 230.396 234.368C230.272 234.155 230.1 233.975 229.893 233.841Z" fill="#E0E0E0"/>
<path d="M288.871 250.866V252.234C288.871 252.971 288.352 253.271 287.712 252.898L218.06 212.719C217.723 212.499 217.442 212.202 217.241 211.853C217.039 211.504 216.923 211.113 216.902 210.71V209.342C216.902 208.596 217.42 208.297 218.06 208.669L287.712 248.857C288.05 249.077 288.331 249.374 288.532 249.723C288.733 250.072 288.849 250.463 288.871 250.866Z" fill="#E0E0E0"/>
<path d="M288.871 259.111V260.479C288.871 261.217 288.352 261.516 287.712 261.144L218.06 220.964C217.724 220.743 217.443 220.446 217.242 220.097C217.041 219.749 216.925 219.357 216.902 218.955V217.587C216.902 216.842 217.42 216.542 218.06 216.914L287.712 257.102C288.05 257.322 288.331 257.619 288.532 257.968C288.733 258.317 288.849 258.708 288.871 259.111Z" fill="#E0E0E0"/>
<path d="M296.5 259.815C294.678 258.009 294.224 257.24 294.224 256.576C294.224 255.912 294.491 255.547 295.309 256.025C295.662 256.23 295.966 256.509 296.199 256.843C296.433 257.178 296.591 257.559 296.662 257.961L298.654 258.406C298.48 257.364 298.085 256.37 297.498 255.492C296.91 254.614 296.142 253.87 295.245 253.312C293.252 252.162 292.094 253.02 292.094 254.972C292.205 256.833 293.015 258.583 294.362 259.872V261.451L296.5 262.682V259.815Z" fill="#455A64"/>
<path d="M296.524 265.031C296.528 264.641 296.43 264.256 296.24 263.915C296.049 263.574 295.773 263.289 295.439 263.087C294.726 262.682 294.362 263.039 294.362 263.784C294.356 264.174 294.453 264.558 294.642 264.899C294.831 265.24 295.105 265.526 295.439 265.728C296.16 266.181 296.524 265.841 296.524 265.031Z" fill="#455A64"/>
<path d="M236.405 237.737L235.522 238.41L236.332 239.948C236.403 240.041 236.441 240.155 236.441 240.272C236.441 240.389 236.403 240.503 236.332 240.596C236.186 240.71 235.959 240.596 235.83 240.353L235.02 238.815L234.129 239.495C233.999 239.592 233.813 239.495 233.7 239.284C233.639 239.204 233.605 239.106 233.605 239.005C233.605 238.904 233.639 238.806 233.7 238.725L234.591 238.053L233.781 236.514C233.719 236.416 233.69 236.3 233.697 236.184C233.704 236.068 233.748 235.957 233.821 235.866C233.967 235.753 234.194 235.866 234.323 236.109L235.133 237.648L236.024 236.968C236.154 236.879 236.348 236.968 236.453 237.178C236.508 237.264 236.532 237.365 236.524 237.466C236.515 237.567 236.473 237.662 236.405 237.737Z" fill="#7209B7" fill-opacity="0.7"/>
<path d="M157.503 106.661L163.456 103.227L163.512 103.187C166.477 101.51 170.534 101.761 175.029 104.361C179.241 106.791 183.08 110.84 185.971 115.514C189.316 120.908 191.414 127.144 191.414 132.74C191.414 137.964 189.592 141.649 186.635 143.342L180.585 146.8C177.605 148.704 173.385 148.534 168.712 145.837C159.657 140.605 152.319 127.897 152.319 117.449C152.328 112.031 154.32 108.281 157.503 106.661Z" fill="#7209B7" fill-opacity="0.3"/>
<path opacity="0.1" d="M180.715 146.784L186.643 143.391C189.6 141.673 191.422 138.005 191.422 132.789C191.422 127.192 189.324 120.956 185.979 115.562L179.654 119.215C182.999 124.601 185.096 130.837 185.096 136.425C185.113 141.382 183.444 144.954 180.715 146.784Z" fill="black"/>
<path opacity="0.4" d="M157.624 106.596C160.54 105.179 164.436 105.535 168.72 108.006C173.005 110.476 176.771 114.485 179.67 119.182L185.995 115.53C183.104 110.84 179.257 106.799 175.054 104.377C170.559 101.777 166.501 101.534 163.537 103.203L163.48 103.243L157.624 106.596Z" fill="white"/>
<path d="M172.34 122.049C172.329 122.68 172.463 123.305 172.733 123.875C173.003 124.446 173.401 124.946 173.895 125.338C174.754 125.832 175.45 125.168 175.45 123.847C175.462 123.217 175.327 122.592 175.058 122.021C174.788 121.451 174.39 120.951 173.895 120.559C173.037 120.057 172.34 120.729 172.34 122.049Z" fill="#455A64"/>
<path d="M163.488 116.939C163.477 117.57 163.611 118.195 163.881 118.765C164.15 119.336 164.548 119.836 165.043 120.227C165.902 120.721 166.598 120.057 166.598 118.737C166.609 118.106 166.475 117.481 166.205 116.911C165.936 116.341 165.538 115.84 165.043 115.449C164.185 114.955 163.488 115.619 163.488 116.939Z" fill="#455A64"/>
<path d="M177.629 141.795C177.691 141.803 177.754 141.803 177.815 141.795C177.93 141.772 178.039 141.726 178.136 141.66C178.233 141.595 178.316 141.511 178.38 141.413C178.444 141.315 178.488 141.205 178.509 141.09C178.531 140.975 178.529 140.856 178.504 140.742C177.095 134.044 173.507 128.18 169.368 125.791C168.525 125.232 167.563 124.877 166.559 124.756C165.555 124.636 164.537 124.751 163.585 125.095C161.633 125.905 160.127 127.856 159.349 130.626C159.31 130.847 159.355 131.074 159.474 131.263C159.593 131.452 159.779 131.591 159.995 131.65C160.21 131.71 160.44 131.687 160.64 131.586C160.84 131.485 160.995 131.313 161.075 131.104C161.69 128.885 162.824 127.338 164.257 126.747C164.957 126.517 165.7 126.452 166.429 126.556C167.158 126.66 167.853 126.93 168.461 127.346C172.122 129.46 175.45 134.992 176.738 141.115C176.788 141.312 176.903 141.487 177.065 141.611C177.226 141.734 177.426 141.799 177.629 141.795Z" fill="#455A64"/>
<path d="M157.503 54.8434L163.456 51.4094H163.512C166.477 49.7329 170.534 49.9839 175.029 52.5837C179.241 55.0135 183.08 59.063 185.971 63.7362C189.316 69.1302 191.414 75.3665 191.414 80.963C191.414 86.1869 189.592 89.872 186.635 91.5647L180.585 95.023C177.605 96.9263 173.385 96.7562 168.712 94.0592C159.657 88.8272 152.319 76.1197 152.319 65.7124C152.328 60.2131 154.32 56.4632 157.503 54.8434Z" fill="#7209B7" fill-opacity="0.3"/>
<path opacity="0.1" d="M180.715 94.95L186.643 91.5565C189.6 89.8395 191.422 86.1706 191.422 80.9548C191.422 75.3583 189.324 69.122 185.979 63.728L179.654 67.3807C182.999 72.7666 185.096 79.0029 185.096 84.5913C185.113 89.5641 183.444 93.1358 180.715 94.95Z" fill="black"/>
<path opacity="0.4" d="M157.624 54.7785C160.54 53.3611 164.436 53.7175 168.72 56.1877C173.005 58.6579 176.771 62.667 179.67 67.3644L185.995 63.7118C183.104 59.0224 179.257 54.9809 175.054 52.5593C170.559 49.9595 166.501 49.7165 163.537 51.3849H163.48L157.624 54.7785Z" fill="white"/>
<path d="M172.438 87.4095C173.207 87.4117 173.969 87.2631 174.681 86.9722C176.795 86.1056 178.415 83.9917 179.249 81.0031C179.305 80.7613 179.266 80.5069 179.14 80.2932C179.013 80.0795 178.809 79.9229 178.57 79.8561C178.33 79.7892 178.075 79.8173 177.856 79.9344C177.637 80.0516 177.471 80.2487 177.394 80.4848C176.722 82.9145 175.499 84.5343 173.952 85.1904C173.196 85.4428 172.391 85.5164 171.601 85.4054C170.811 85.2943 170.058 85.0017 169.4 84.5505C165.456 82.2747 161.86 76.2976 160.491 69.6887C160.437 69.4395 160.287 69.2217 160.073 69.0823C159.859 68.9429 159.599 68.893 159.349 68.9436C159.225 68.9696 159.108 69.0198 159.003 69.0912C158.899 69.1627 158.809 69.2541 158.74 69.3602C158.671 69.4662 158.623 69.5849 158.6 69.7093C158.577 69.8338 158.578 69.9616 158.604 70.0855C160.127 77.3099 163.998 83.6434 168.461 86.227C169.661 86.9598 171.032 87.3673 172.438 87.4095Z" fill="#455A64"/>
<path d="M172.616 71.3736C172.604 72.0551 172.749 72.7302 173.04 73.3467C173.33 73.9632 173.759 74.5046 174.292 74.9291C175.224 75.4636 175.969 74.7428 175.969 73.3093C175.982 72.6287 175.838 71.9541 175.547 71.3387C175.256 70.7232 174.827 70.1835 174.292 69.7619C173.369 69.2273 172.616 69.9482 172.616 71.3736Z" fill="#455A64"/>
<path d="M163.059 65.8582C163.047 66.5385 163.192 67.2124 163.483 67.8276C163.774 68.4428 164.202 68.9828 164.735 69.4056C165.659 69.9402 166.412 69.2193 166.412 67.7858C166.424 67.1055 166.278 66.4316 165.988 65.8164C165.697 65.2012 165.268 64.6612 164.735 64.2384C163.812 63.7039 163.059 64.4328 163.059 65.8582Z" fill="#455A64"/>
<path d="M145.322 200.692L188.247 225.475C188.679 225.695 189.156 225.809 189.64 225.809C190.125 225.809 190.602 225.695 191.033 225.475L193.309 224.155C193.717 223.889 194.056 223.53 194.298 223.107C194.54 222.685 194.679 222.211 194.702 221.725V172.159C194.679 171.672 194.54 171.198 194.298 170.776C194.056 170.354 193.717 169.995 193.309 169.729L150.384 144.946C149.954 144.726 149.478 144.611 148.995 144.611C148.512 144.611 148.036 144.726 147.606 144.946L145.33 146.274C144.921 146.539 144.582 146.897 144.34 147.32C144.097 147.743 143.959 148.217 143.937 148.704V198.278C143.962 198.761 144.101 199.231 144.341 199.65C144.582 200.07 144.918 200.426 145.322 200.692Z" fill="#455A64"/>
<path d="M188.482 225.58C188.891 225.744 189.329 225.819 189.769 225.801C190.209 225.783 190.64 225.672 191.034 225.475L193.309 224.146C193.717 223.881 194.055 223.522 194.296 223.1C194.537 222.677 194.674 222.203 194.694 221.717V172.15C194.682 171.664 194.543 171.189 194.289 170.773L189.236 173.713C189.485 174.128 189.624 174.599 189.64 175.082V224.649C189.64 225.467 189.146 225.839 188.482 225.58Z" fill="#263238"/>
<path d="M145.322 200.691L188.247 225.475C189.017 225.92 189.641 225.564 189.641 224.665V175.131C189.617 174.644 189.479 174.17 189.236 173.748C188.994 173.326 188.655 172.967 188.247 172.701L145.322 147.918C144.553 147.472 143.929 147.837 143.929 148.728V198.302C143.959 198.781 144.1 199.247 144.342 199.662C144.584 200.077 144.92 200.429 145.322 200.691Z" fill="#37474F"/>
<path fill-rule="evenodd" clip-rule="evenodd" d="M167.959 188.341L179.622 204.863C174.471 210.07 164.558 206.159 157.479 196.124C153.227 190.106 150.943 183.611 150.943 177.544L165.06 185.66C166.18 186.371 167.162 187.279 167.959 188.341Z" fill="#7209B7" fill-opacity="0.3"/>
<path opacity="0.3" fill-rule="evenodd" clip-rule="evenodd" d="M167.959 188.341L179.622 204.863C174.471 210.07 164.558 206.159 157.479 196.124C153.227 190.106 150.943 183.611 150.943 177.544L165.06 185.66C166.18 186.371 167.162 187.279 167.959 188.341Z" fill="black"/>
<path d="M180.213 204.441L168.55 187.919C167.693 186.782 166.634 185.813 165.424 185.06L151.308 176.913C151.197 176.849 151.071 176.815 150.943 176.815C150.815 176.815 150.689 176.849 150.578 176.913C150.468 176.977 150.376 177.069 150.312 177.18C150.248 177.291 150.214 177.416 150.214 177.544C150.214 183.797 152.522 190.373 156.88 196.545C161.569 203.186 167.595 207.414 172.997 207.884C174.298 208.034 175.616 207.889 176.853 207.458C178.09 207.028 179.214 206.323 180.14 205.397C180.252 205.284 180.324 205.137 180.344 204.979C180.365 204.821 180.333 204.661 180.254 204.522C180.249 204.492 180.235 204.463 180.213 204.441ZM151.704 178.824L164.663 186.324C165.693 186.966 166.598 187.79 167.336 188.753L178.634 204.749C177.867 205.378 176.981 205.845 176.029 206.123C175.077 206.402 174.079 206.485 173.094 206.369C168.186 205.964 162.419 201.866 158.054 195.67C157.309 194.625 156.637 193.564 156.021 192.503C153.527 188.346 152.048 183.66 151.704 178.824Z" fill="white"/>
<path fill-rule="evenodd" clip-rule="evenodd" d="M167.433 184.793L171.701 172.118C180.027 180.047 184.587 193.006 181.881 201.056C181.447 202.487 180.674 203.793 179.63 204.863L167.967 188.341C167.637 187.819 167.418 187.234 167.326 186.623C167.234 186.012 167.27 185.389 167.433 184.793Z" fill="#7209B7" fill-opacity="0.3"/>
<path d="M172.195 171.592C172.108 171.506 172 171.445 171.883 171.412C171.765 171.379 171.641 171.377 171.523 171.406C171.404 171.437 171.295 171.497 171.204 171.58C171.114 171.663 171.045 171.767 171.004 171.883L166.744 184.558C166.547 185.263 166.499 186.001 166.605 186.726C166.711 187.45 166.968 188.143 167.36 188.762L178.99 205.284C179.053 205.369 179.133 205.439 179.225 205.491C179.318 205.542 179.419 205.574 179.525 205.584C179.631 205.595 179.739 205.582 179.84 205.545C179.941 205.509 180.033 205.45 180.108 205.373C181.227 204.235 182.06 202.847 182.537 201.324C184.506 195.468 182.756 187.093 178.561 179.829C176.844 176.793 174.7 174.019 172.195 171.592ZM168.55 187.92C168.287 187.49 168.114 187.011 168.042 186.513C167.97 186.015 167.999 185.507 168.129 185.02L172.017 173.455C179.614 181.246 183.712 193.297 181.185 200.83C180.862 201.865 180.354 202.834 179.687 203.689L168.55 187.92Z" fill="white"/>
<path fill-rule="evenodd" clip-rule="evenodd" d="M165.635 185.052L153.972 168.53C158.086 164.367 165.035 165.768 171.693 172.118L167.433 184.793C167.084 185.846 166.274 185.959 165.635 185.052Z" fill="#7209B7" fill-opacity="0.3"/>
<path opacity="0.1" fill-rule="evenodd" clip-rule="evenodd" d="M165.635 185.052L153.972 168.53C158.086 164.367 165.035 165.768 171.693 172.118L167.433 184.793C167.084 185.846 166.274 185.959 165.635 185.052Z" fill="black"/>
<path d="M172.195 171.592C165.23 164.95 157.868 163.549 153.454 168.02C153.333 168.141 153.259 168.301 153.244 168.471C153.229 168.641 153.275 168.811 153.373 168.951L165.043 185.474C165.187 185.796 165.433 186.063 165.742 186.233C166.052 186.403 166.409 186.467 166.758 186.416C167.108 186.365 167.431 186.2 167.678 185.948C167.926 185.696 168.084 185.37 168.129 185.02L172.389 172.345C172.421 172.247 172.432 172.144 172.421 172.042C172.41 171.94 172.377 171.842 172.325 171.754C172.293 171.691 172.249 171.636 172.195 171.592ZM154.936 168.652C158.718 165.412 164.857 166.797 170.859 172.345L166.744 184.575C166.7 184.711 166.634 184.839 166.55 184.955C166.418 184.884 166.309 184.777 166.234 184.647L154.936 168.652Z" fill="white"/>
<path fill-rule="evenodd" clip-rule="evenodd" d="M165.06 185.66L150.943 177.561C150.943 173.511 151.915 170.636 153.972 168.546L165.635 185.069C166.275 185.959 166.032 186.243 165.06 185.66Z" fill="#7209B7" fill-opacity="0.3"/>
<path opacity="0.2" fill-rule="evenodd" clip-rule="evenodd" d="M165.06 185.66L150.943 177.561C150.943 173.511 151.915 170.636 153.972 168.546L165.635 185.069C166.275 185.959 166.032 186.243 165.06 185.66Z" fill="black"/>
<path d="M166.234 184.631L154.563 168.109C154.502 168.023 154.422 167.951 154.33 167.899C154.237 167.847 154.134 167.817 154.029 167.809C153.923 167.799 153.817 167.812 153.717 167.849C153.618 167.885 153.528 167.944 153.454 168.02C151.243 170.255 150.214 173.284 150.214 177.544C150.214 177.672 150.248 177.798 150.312 177.909C150.376 178.02 150.468 178.112 150.579 178.176L164.687 186.324C164.995 186.502 165.918 187.036 166.485 186.413C166.644 186.204 166.729 185.95 166.729 185.688C166.729 185.426 166.644 185.171 166.485 184.963L166.234 184.631ZM153.883 169.704L164.258 184.404L151.656 177.115C151.737 173.9 152.449 171.51 153.883 169.704Z" fill="white"/>
<path d="M55.276 126.132C56.025 125.77 56.8484 125.59 57.6799 125.605C58.5114 125.621 59.3276 125.832 60.0626 126.221L133.878 168.838C134.59 169.311 135.18 169.944 135.602 170.687C136.024 171.429 136.266 172.261 136.307 173.114V194.172C136.339 195.014 136.141 195.849 135.734 196.587C135.326 197.325 134.725 197.938 133.995 198.36C133.265 198.781 132.434 198.996 131.592 198.98C130.749 198.964 129.926 198.719 129.213 198.27L55.3975 155.653C54.6857 155.18 54.0949 154.547 53.6729 153.804C53.2508 153.061 53.0093 152.23 52.9678 151.376V130.319C52.9973 129.489 53.2216 128.677 53.6226 127.95C54.0235 127.222 54.5899 126.6 55.276 126.132Z" fill="#263238"/>
<path d="M52.9922 129.873C53.1946 128.626 54.207 128.189 55.4219 128.901L86.1984 146.663L129.237 171.511C129.968 171.964 130.57 172.597 130.986 173.349L135.619 170.677C135.203 169.924 134.604 169.289 133.878 168.83L60.0627 126.221C59.3829 125.79 58.6021 125.544 57.798 125.508C56.9938 125.473 56.1944 125.649 55.4792 126.018C54.7641 126.387 54.1581 126.938 53.7218 127.614C53.2854 128.291 53.0339 129.07 52.9922 129.873Z" fill="#455A64"/>
<path d="M131.715 175.787V196.844C131.715 198.416 130.606 199.055 129.245 198.27L55.43 155.652C54.7182 155.18 54.1274 154.547 53.7053 153.804C53.2833 153.061 53.0417 152.229 53.0002 151.376V130.318C53.0002 128.747 54.1017 128.107 55.43 128.893L86.2065 146.662L129.253 171.51C129.971 171.98 130.567 172.612 130.995 173.355C131.423 174.097 131.67 174.931 131.715 175.787Z" fill="#37474F"/>
<path d="M119.162 172.701L117.955 175.26C117.941 175.297 117.919 175.331 117.892 175.359C117.864 175.387 117.831 175.408 117.794 175.423C117.758 175.437 117.719 175.444 117.679 175.443C117.64 175.441 117.601 175.431 117.566 175.414L114.869 174.386C114.44 174.216 114.27 174.823 114.578 175.406L116.529 179.067C116.647 179.279 116.7 179.521 116.683 179.764L116.222 183.084C116.149 183.611 116.594 184.299 116.975 184.25L119.405 183.951C119.502 183.955 119.598 183.983 119.682 184.033C119.767 184.082 119.838 184.151 119.891 184.234L122.32 187.32C122.701 187.806 123.13 187.628 123.073 187.02L122.612 183.173C122.592 183.08 122.595 182.982 122.622 182.89C122.649 182.799 122.698 182.715 122.766 182.647L124.718 181.238C125.025 181.011 124.855 180.209 124.426 179.885L121.729 177.804C121.54 177.646 121.404 177.434 121.34 177.196L120.133 173.244C119.866 172.62 119.356 172.304 119.162 172.701Z" fill="white"/>
<path d="M105.515 164.894L104.308 167.453C104.295 167.491 104.274 167.525 104.247 167.554C104.219 167.582 104.186 167.605 104.149 167.619C104.112 167.634 104.072 167.64 104.033 167.638C103.993 167.636 103.954 167.625 103.919 167.607L101.222 166.578C100.793 166.408 100.623 167.016 100.931 167.599L102.858 171.26C102.976 171.475 103.03 171.719 103.012 171.964L102.55 175.277C102.477 175.803 102.923 176.492 103.304 176.443L105.733 176.151C105.831 176.152 105.927 176.178 106.012 176.226C106.097 176.274 106.168 176.343 106.219 176.427L108.649 179.513C109.03 179.999 109.459 179.828 109.402 179.213L108.941 175.366C108.92 175.272 108.924 175.175 108.951 175.083C108.978 174.991 109.027 174.907 109.094 174.839L111.046 173.43C111.354 173.203 111.184 172.41 110.755 172.078L108.058 169.996C107.869 169.838 107.733 169.626 107.669 169.389L106.462 165.436C106.26 164.805 105.709 164.489 105.515 164.894Z" fill="white"/>
<path d="M91.8677 157.086L90.6609 159.645C90.6469 159.682 90.6254 159.716 90.5977 159.743C90.5701 159.771 90.537 159.793 90.5004 159.808C90.4638 159.822 90.4247 159.829 90.3854 159.828C90.3461 159.826 90.3075 159.816 90.2721 159.799L87.5751 158.763C87.1459 158.601 86.9758 159.2 87.2836 159.783L89.2355 163.444C89.3528 163.659 89.4062 163.904 89.3893 164.148L88.9277 167.461C88.8548 167.987 89.3003 168.684 89.6809 168.635L92.1106 168.336C92.2085 168.34 92.3038 168.368 92.3884 168.418C92.473 168.467 92.5444 168.536 92.5966 168.619L95.0263 171.697C95.407 172.191 95.8362 172.013 95.7795 171.405L95.3179 167.558C95.2977 167.463 95.3012 167.365 95.328 167.272C95.3549 167.178 95.4042 167.093 95.4718 167.024L97.4236 165.614C97.7314 165.396 97.5613 164.594 97.1321 164.262L94.4351 162.18C94.2462 162.023 94.1105 161.811 94.0463 161.573L92.8396 157.621C92.6128 156.997 92.062 156.673 91.8677 157.086Z" fill="white"/>
<path d="M78.2206 149.27L77.0138 151.83C76.9998 151.866 76.9783 151.9 76.9507 151.928C76.923 151.956 76.8899 151.978 76.8533 151.992C76.8167 152.007 76.7776 152.013 76.7383 152.012C76.699 152.01 76.6604 152.001 76.625 151.984L73.9281 150.947C73.4988 150.785 73.3287 151.384 73.6365 151.967L75.5884 155.628C75.7057 155.844 75.7591 156.088 75.7422 156.333L75.2806 159.645C75.2077 160.172 75.6532 160.868 76.0338 160.82L78.4636 160.52C78.5614 160.525 78.6567 160.553 78.7413 160.602C78.8259 160.651 78.8974 160.721 78.9495 160.803L81.3792 163.881C81.7599 164.375 82.1891 164.197 82.1324 163.59L81.6708 159.742C81.6506 159.649 81.654 159.552 81.6809 159.46C81.7078 159.368 81.7572 159.284 81.8247 159.216L83.7766 157.807C84.0843 157.58 83.9142 156.778 83.485 156.446L80.788 154.373C80.6025 154.212 80.4675 154.001 80.3992 153.765L79.1925 149.813C78.9657 149.214 78.4149 148.865 78.2206 149.27Z" fill="white"/>
<path d="M64.5737 141.455L63.3669 144.014C63.3529 144.051 63.3314 144.084 63.3037 144.112C63.2761 144.14 63.2429 144.162 63.2064 144.177C63.1698 144.191 63.1306 144.198 63.0913 144.196C63.052 144.195 63.0135 144.185 62.9781 144.168L60.2811 143.139C59.8519 142.969 59.6818 143.577 59.9896 144.16L61.9415 147.821C62.059 148.033 62.1125 148.275 62.0953 148.517L61.6337 151.838C61.5608 152.364 62.0062 153.053 62.3869 153.004L64.8166 152.704C64.9145 152.709 65.0098 152.737 65.0944 152.787C65.179 152.836 65.2504 152.905 65.3026 152.988L67.7323 156.074C68.113 156.56 68.5422 156.381 68.4855 155.774L68.0239 151.927C68.0036 151.833 68.0071 151.736 68.034 151.644C68.0609 151.552 68.1103 151.469 68.1777 151.401L70.0972 150.024C70.405 149.797 70.2349 148.995 69.8057 148.671L67.1087 146.59C66.9198 146.432 66.7841 146.22 66.7199 145.982L65.5132 142.03C65.3188 141.366 64.7923 141.05 64.5737 141.455Z" fill="white"/>
<path d="M121.195 159.232L125.244 156.9C125.325 156.864 125.392 156.805 125.439 156.73L126.184 155.434L123.754 154.049L123.827 154.259L121.195 159.232Z" fill="#7209B7" fill-opacity="0.7"/>
<path opacity="0.2" d="M121.195 159.232L125.244 156.9C125.325 156.864 125.392 156.805 125.439 156.73L126.184 155.434L123.754 154.049L123.827 154.259L121.195 159.232Z" fill="black"/>
<path d="M124.135 154.243L121.332 159.103C121.293 159.173 121.235 159.23 121.163 159.267C121.092 159.304 121.012 159.32 120.932 159.312C120.852 159.305 120.776 159.274 120.713 159.224C120.651 159.173 120.604 159.106 120.579 159.03L117.623 150.501L124.135 154.243Z" fill="#7209B7" fill-opacity="0.7"/>
<path d="M53.4538 86.527C53.4893 85.8499 53.6847 85.1908 54.0239 84.6038C54.3632 84.0167 54.8367 83.5184 55.4057 83.1496C56.0115 82.8461 56.6799 82.688 57.3575 82.688C58.0352 82.688 58.7036 82.8461 59.3094 83.1496L134.356 126.455C134.924 126.827 135.397 127.327 135.736 127.915C136.075 128.503 136.271 129.163 136.307 129.841V154.543C136.271 155.221 136.075 155.881 135.736 156.469C135.397 157.057 134.924 157.557 134.356 157.929C133.751 158.236 133.082 158.396 132.404 158.396C131.725 158.396 131.057 158.236 130.452 157.929L55.2194 114.501C53.4619 113.497 53.4457 112.493 53.4457 111.262L53.4538 86.527Z" fill="#7209B7" fill-opacity="0.7"/>
<path opacity="0.2" d="M136.34 154.535C136.303 155.213 136.107 155.873 135.768 156.461C135.429 157.049 134.956 157.549 134.388 157.921C133.839 158.2 133.236 158.36 132.62 158.39C132.005 158.419 131.39 158.317 130.816 158.091C131.731 158.439 132.436 157.912 132.436 156.795V132.084C132.414 131.406 132.215 130.744 131.861 130.165L135.773 127.905C136.121 128.49 136.316 129.153 136.34 129.833V154.535Z" fill="black"/>
<path opacity="0.4" d="M53.5427 85.9762C53.7695 85.1663 54.5308 84.8828 55.4298 85.4012L130.484 128.707C131.063 129.063 131.538 129.566 131.861 130.165L135.765 127.905C135.435 127.312 134.962 126.81 134.388 126.447L59.3417 83.1496C58.7369 82.8423 58.0682 82.6821 57.3898 82.6821C56.7115 82.6821 56.0427 82.8423 55.438 83.1496C54.9461 83.4667 54.5242 83.881 54.1983 84.3671C53.8724 84.8531 53.6493 85.4007 53.5427 85.9762Z" fill="white"/>
<path d="M127.156 132.522L59.763 93.5325C59.107 93.16 58.5724 93.33 58.5724 93.9213C58.6208 94.2855 58.7536 94.6334 58.9603 94.9371C59.167 95.2408 59.4419 95.4921 59.763 95.6707L127.156 134.635C127.803 135.016 128.338 134.846 128.338 134.255C128.287 133.895 128.154 133.551 127.949 133.25C127.744 132.95 127.472 132.7 127.156 132.522Z" fill="white"/>
<path d="M127.156 143.544L69.3523 110.176C68.6963 109.796 68.1699 109.966 68.1699 110.557C68.2174 110.921 68.3489 111.27 68.5541 111.575C68.7593 111.88 69.0326 112.133 69.3523 112.314L127.156 145.675C127.803 146.055 128.338 145.877 128.338 145.286C128.284 144.925 128.15 144.582 127.945 144.28C127.74 143.979 127.471 143.727 127.156 143.544Z" fill="white"/>
<path d="M127.156 148.906L61.1398 110.743C60.4919 110.362 59.9574 110.541 59.9574 111.132C60.0101 111.494 60.1439 111.839 60.3486 112.142C60.5534 112.445 60.8238 112.697 61.1398 112.881L127.156 151.036C127.803 151.417 128.338 151.247 128.338 150.655C128.289 150.292 128.157 149.946 127.952 149.642C127.747 149.338 127.474 149.087 127.156 148.906Z" fill="white"/>
<path d="M127.156 137.875L61.1398 99.7124C60.4919 99.3317 59.9574 99.5099 59.9574 100.101C60.0067 100.464 60.139 100.811 60.3441 101.114C60.5492 101.417 60.8215 101.67 61.1398 101.851L127.156 140.046C127.803 140.418 128.338 140.248 128.338 139.657C128.294 139.288 128.164 138.935 127.959 138.625C127.753 138.316 127.478 138.059 127.156 137.875Z" fill="white"/>
<path d="M55.276 44.0798C56.025 43.7184 56.8484 43.5382 57.6799 43.5537C58.5114 43.5691 59.3276 43.7799 60.0626 44.1689L133.878 86.7782C134.588 87.2521 135.178 87.8856 135.6 88.6282C136.022 89.3707 136.264 90.2016 136.307 91.0545V112.112C136.339 112.954 136.141 113.79 135.734 114.527C135.326 115.265 134.725 115.878 133.995 116.3C133.265 116.721 132.434 116.936 131.592 116.92C130.749 116.904 129.926 116.659 129.213 116.21L55.3975 73.5929C54.6857 73.1204 54.0949 72.4872 53.6729 71.7443C53.2508 71.0015 53.0093 70.1699 52.9678 69.3165V48.2589C52.9985 47.4302 53.2234 46.6204 53.6243 45.8945C54.0252 45.1687 54.591 44.5471 55.276 44.0798Z" fill="#263238"/>
<path d="M52.9922 47.8211C53.1946 46.5739 54.207 46.1365 55.4219 46.8411L86.1984 64.6025L129.237 89.4505C129.966 89.9093 130.568 90.5444 130.986 91.2971L135.619 88.6244C135.206 87.8705 134.606 87.2349 133.878 86.7778L60.0627 44.1684C59.3829 43.7373 58.6021 43.4917 57.798 43.4562C56.9938 43.4206 56.1944 43.5963 55.4792 43.9657C54.7641 44.3352 54.1581 44.8855 53.7218 45.5619C53.2854 46.2384 53.0339 47.0173 52.9922 47.8211Z" fill="#455A64"/>
<path d="M131.715 93.735V114.793C131.715 116.364 130.606 117.004 129.245 116.218L55.43 73.6007C54.7182 73.1282 54.1274 72.495 53.7053 71.7521C53.2833 71.0093 53.0417 70.1777 53.0002 69.3244V48.2667C53.0002 46.6955 54.1017 46.0557 55.43 46.8413L86.2065 64.6026L129.253 89.4587C129.971 89.9281 130.567 90.5598 130.995 91.3028C131.423 92.0457 131.67 92.879 131.715 93.735Z" fill="#37474F"/>
<path d="M119.162 90.6574L117.955 93.2168C117.941 93.2535 117.919 93.2869 117.892 93.3149C117.864 93.3429 117.831 93.3648 117.794 93.3792C117.758 93.3937 117.719 93.4004 117.679 93.3989C117.64 93.3975 117.601 93.3878 117.566 93.3706L114.869 92.334C114.44 92.172 114.27 92.7794 114.578 93.3544L116.529 97.0152C116.647 97.2306 116.7 97.4751 116.683 97.7198L116.222 101.032C116.149 101.559 116.594 102.255 116.975 102.207L119.405 101.907C119.502 101.912 119.598 101.94 119.682 101.989C119.767 102.039 119.838 102.108 119.891 102.191L122.32 105.268C122.701 105.762 123.13 105.584 123.073 104.977L122.612 101.13C122.592 101.036 122.595 100.939 122.622 100.847C122.649 100.755 122.698 100.671 122.766 100.603L124.718 99.1939C125.025 98.9671 124.855 98.1653 124.426 97.8332L121.729 95.7599C121.542 95.6004 121.407 95.389 121.34 95.1524L120.133 91.2001C119.866 90.5683 119.356 90.2525 119.162 90.6574Z" fill="white"/>
<path d="M105.515 82.842L104.308 85.4013C104.294 85.4381 104.272 85.4715 104.245 85.4994C104.217 85.5274 104.184 85.5493 104.147 85.5638C104.111 85.5783 104.072 85.585 104.032 85.5835C103.993 85.582 103.954 85.5724 103.919 85.5552L101.222 84.5266C100.793 84.3565 100.623 84.964 100.931 85.5471L102.858 89.2079C102.976 89.4203 103.029 89.6622 103.012 89.9044L102.55 93.225C102.477 93.7515 102.923 94.4399 103.304 94.3913L105.733 94.0916C105.831 94.0962 105.926 94.1244 106.011 94.1737C106.096 94.2231 106.167 94.2922 106.219 94.3751L108.649 97.4609C109.03 97.9468 109.459 97.7767 109.402 97.1612L108.941 93.3141C108.92 93.2205 108.924 93.1233 108.951 93.0314C108.978 92.9394 109.027 92.8557 109.094 92.7877L111.046 91.3784C111.354 91.1517 111.184 90.3499 110.755 90.0259L108.058 87.9444C107.869 87.7867 107.733 87.5746 107.669 87.337L106.462 83.3846C106.26 82.7529 105.709 82.437 105.515 82.842Z" fill="white"/>
<path d="M91.8677 75.0265L90.6609 77.5939C90.6469 77.6306 90.6254 77.664 90.5977 77.692C90.5701 77.72 90.537 77.7419 90.5004 77.7564C90.4638 77.7708 90.4247 77.7776 90.3854 77.7761C90.3461 77.7746 90.3075 77.7649 90.2721 77.7478L87.5751 76.7111C87.1459 76.5491 86.9758 77.1484 87.2836 77.7316L89.2355 81.3923C89.3537 81.6074 89.4071 81.8522 89.3893 82.097L88.9277 85.4095C88.8548 85.9359 89.3003 86.6244 89.6809 86.5839L92.1106 86.2842C92.2084 86.285 92.3043 86.3107 92.3893 86.3589C92.4743 86.4071 92.5456 86.4762 92.5966 86.5596L95.0263 89.6453C95.407 90.1313 95.8362 89.9612 95.7795 89.3457L95.3179 85.4986C95.2984 85.4049 95.3022 85.3079 95.3291 85.2161C95.3559 85.1243 95.4049 85.0405 95.4718 84.9721L97.4236 83.5629C97.7314 83.3442 97.5613 82.5424 97.1321 82.2104L94.4351 80.1289C94.2462 79.9711 94.1105 79.759 94.0463 79.5215L92.8396 75.5691C92.6128 74.9455 92.062 74.6215 91.8677 75.0265Z" fill="white"/>
<path d="M78.2206 67.2186L77.0138 69.7779C76.9998 69.8147 76.9783 69.8481 76.9507 69.8761C76.923 69.904 76.8899 69.926 76.8533 69.9404C76.8167 69.9549 76.7776 69.9616 76.7383 69.9601C76.699 69.9586 76.6604 69.949 76.625 69.9318L73.9281 68.8951C73.4988 68.7331 73.3287 69.3325 73.6365 69.9156L75.5884 73.5764C75.7057 73.7918 75.7591 74.0363 75.7422 74.281L75.2806 77.5936C75.2077 78.12 75.6532 78.8165 76.0338 78.7679L78.4636 78.4683C78.5614 78.4728 78.6567 78.501 78.7413 78.5503C78.8259 78.5997 78.8974 78.6688 78.9495 78.7517L81.3792 81.8294C81.7599 82.3234 82.1891 82.1452 82.1324 81.5378L81.6708 77.6907C81.6432 77.5943 81.6406 77.4923 81.6633 77.3946C81.6859 77.2968 81.7331 77.2064 81.8004 77.1319L83.7523 75.7227C84.06 75.504 83.8899 74.7022 83.4607 74.3701L80.7637 72.2967C80.5765 72.1342 80.4413 71.9201 80.3749 71.6812L79.1682 67.7289C78.9657 67.1295 78.4149 66.8056 78.2206 67.2186Z" fill="white"/>
<path d="M64.5737 59.4031L63.3669 61.9624C63.3529 61.9991 63.3314 62.0326 63.3038 62.0605C63.2762 62.0885 63.243 62.1104 63.2064 62.1249C63.1699 62.1394 63.1307 62.1461 63.0914 62.1446C63.0521 62.1431 63.0136 62.1335 62.9782 62.1163L60.2812 61.0796C59.8519 60.9176 59.6819 61.5251 59.9896 62.1001L61.9415 65.7933C62.0589 66.0087 62.1123 66.2532 62.0954 66.4979L61.6338 69.8104C61.5609 70.3369 62.0063 71.0334 62.387 70.9848L64.8167 70.6851C64.9145 70.6897 65.0098 70.7178 65.0945 70.7672C65.1791 70.8166 65.2505 70.8857 65.3026 70.9686L67.7324 74.0463C68.113 74.5403 68.5423 74.3621 68.4856 73.7547L68.0239 69.9076C68.0037 69.814 68.0072 69.7168 68.0341 69.6249C68.0609 69.5329 68.1103 69.4492 68.1778 69.3812L70.1297 67.9719C70.4375 67.7452 70.2674 66.9433 69.8381 66.6113L67.1411 64.5379C66.9523 64.3801 66.8165 64.1681 66.7524 63.9305L65.5456 59.9781C65.3188 59.314 64.7924 58.9981 64.5737 59.4031Z" fill="white"/>
<path d="M121.195 77.1805L125.244 74.8479C125.325 74.8121 125.392 74.7528 125.439 74.6779L126.184 73.382L123.754 71.9971L123.827 72.2076L121.195 77.1805Z" fill="#7209B7" fill-opacity="0.7"/>
<path opacity="0.2" d="M121.195 77.1805L125.244 74.8479C125.325 74.8121 125.392 74.7528 125.439 74.6779L126.184 73.382L123.754 71.9971L123.827 72.2076L121.195 77.1805Z" fill="black"/>
<path d="M124.135 72.1915L121.332 77.0509C121.293 77.121 121.235 77.1782 121.163 77.2155C121.092 77.2527 121.012 77.2684 120.932 77.2607C120.852 77.253 120.776 77.2221 120.713 77.1719C120.651 77.1217 120.604 77.0544 120.579 76.9781L117.623 68.4497L124.135 72.1915Z" fill="#7209B7" fill-opacity="0.7"/>
<path d="M53.454 4.47496C53.4908 3.79707 53.6866 3.13736 54.0257 2.54922C54.3648 1.96109 54.8376 1.46104 55.4058 1.08954C56.0106 0.782238 56.6794 0.62207 57.3577 0.62207C58.0361 0.62207 58.7049 0.782238 59.3096 1.08954L134.388 44.3954C134.956 44.7669 135.429 45.2669 135.768 45.8551C136.107 46.4432 136.303 47.1029 136.34 47.7808V72.4831C136.303 73.1609 136.107 73.8206 135.768 74.4088C135.429 74.9969 134.956 75.497 134.388 75.8685C133.783 76.1758 133.115 76.3359 132.436 76.3359C131.758 76.3359 131.089 76.1758 130.484 75.8685L55.252 32.433C53.4945 31.4368 53.4783 30.4326 53.4783 29.1934L53.454 4.47496Z" fill="#7209B7" fill-opacity="0.7"/>
<path opacity="0.2" d="M136.34 72.4829C136.303 73.1607 136.107 73.8204 135.768 74.4086C135.429 74.9967 134.956 75.4968 134.388 75.8683C133.839 76.1489 133.236 76.3085 132.62 76.3364C132.004 76.3644 131.389 76.26 130.816 76.0303C131.731 76.3785 132.436 75.8602 132.436 74.7425V50.0322C132.412 49.351 132.214 48.6874 131.861 48.1046L135.773 45.853C136.121 46.4377 136.316 47.1007 136.34 47.7806V72.4829Z" fill="black"/>
<path opacity="0.4" d="M53.5427 3.92425C53.7695 3.11434 54.5308 2.83087 55.4298 3.34921L130.484 46.6551C131.063 47.0114 131.538 47.5142 131.861 48.1129L135.765 45.8533C135.435 45.2596 134.962 44.7583 134.388 44.3954L59.3417 1.08956C58.7358 0.785995 58.0675 0.62793 57.3898 0.62793C56.7121 0.62793 56.0438 0.785995 55.438 1.08956C54.9452 1.40753 54.5227 1.82311 54.1968 2.31065C53.8708 2.79819 53.6482 3.34735 53.5427 3.92425Z" fill="white"/>
<path d="M127.156 50.4617L59.763 11.4808C59.107 11.1082 58.5724 11.2783 58.5724 11.8695C58.6208 12.2337 58.7536 12.5816 58.9603 12.8853C59.167 13.1891 59.4419 13.4403 59.763 13.6189L127.156 52.5999C127.803 52.9805 128.338 52.8104 128.338 52.2192C128.286 51.856 128.153 51.5092 127.948 51.2048C127.744 50.9004 127.473 50.6464 127.156 50.4617Z" fill="white"/>
<path d="M127.156 61.4844L69.3523 28.1161C68.6963 27.7355 68.1699 27.9055 68.1699 28.4968C68.2167 28.8604 68.3481 29.2081 68.5534 29.5118C68.7587 29.8156 69.0323 30.0671 69.3523 30.2462L127.156 63.6225C127.803 63.9951 128.338 63.825 128.338 63.2338C128.289 62.8709 128.156 62.5243 127.951 62.2208C127.746 61.9174 127.474 61.6654 127.156 61.4844Z" fill="white"/>
<path d="M127.156 66.8461L61.1398 28.6913C60.4919 28.3106 59.9574 28.4888 59.9574 29.0719C60.009 29.4351 60.1422 29.7819 60.347 30.0863C60.5518 30.3907 60.8228 30.6447 61.1398 30.8294L127.156 68.9843C127.803 69.3649 128.338 69.1948 128.338 68.6036C128.286 68.2404 128.153 67.8936 127.948 67.5892C127.744 67.2848 127.473 67.0308 127.156 66.8461Z" fill="white"/>
<path d="M127.156 55.8558L61.1398 17.6928C60.4919 17.3122 59.9574 17.4904 59.9574 18.0816C60.0101 18.4434 60.1439 18.7886 60.3486 19.0915C60.5534 19.3944 60.8238 19.6471 61.1398 19.831L127.156 57.9858C127.803 58.3665 128.338 58.1964 128.338 57.6052C128.289 57.2421 128.157 56.8952 127.952 56.5917C127.747 56.2882 127.474 56.0363 127.156 55.8558Z" fill="white"/>
<path d="M99.1494 204.692L70.7621 199.128C70.5829 199.099 70.3991 199.125 70.2355 199.204C70.072 199.283 69.9367 199.41 69.8482 199.569C69.7597 199.727 69.7221 199.909 69.7407 200.09C69.7593 200.271 69.8332 200.441 69.9522 200.578L89.2037 222.381L99.1494 204.692Z" fill="#FFA8A7"/>
<path d="M69.9359 200.578C69.8169 200.441 69.7431 200.271 69.7245 200.09C69.7059 199.909 69.7434 199.727 69.8319 199.569C69.9205 199.41 70.0557 199.283 70.2193 199.204C70.3828 199.125 70.5666 199.099 70.7458 199.128L76.3018 200.238C75.5412 200.709 74.9254 201.381 74.5224 202.18C74.1194 202.979 73.9448 203.874 74.0178 204.765V205.267L69.9359 200.578Z" fill="#7209B7" fill-opacity="0.3"/>
<path d="M195.035 283.084L192.718 281.747L189.908 280.127L89.1957 222.357C88.2719 219.229 88.5611 215.869 90.0056 212.945C92.0222 208.442 95.926 204.846 99.1656 204.676L199.797 262.439L205.15 265.509C201.571 263.711 191.471 281.229 195.035 283.084Z" fill="#37474F"/>
<path d="M186.182 278.038L180.999 275.057C179.468 274.247 180.343 270.481 182.133 266.594C184.506 261.427 189.163 256.421 191.196 257.499L195.018 259.693L196.371 260.503C194.338 259.426 189.673 264.423 187.308 269.599C185.599 273.324 184.724 276.944 186.028 277.933C186.069 277.981 186.122 278.017 186.182 278.038Z" fill="#EBEBEB"/>
<path d="M184.894 277.285C181.339 275.398 191.52 257.847 195.083 259.742L200.275 262.706C196.719 260.827 186.506 278.362 190.094 280.249L184.894 277.285Z" fill="#7209B7" fill-opacity="0.3"/>
<path d="M195.035 283.084L189.908 280.152C186.401 278.322 196.088 261.313 199.797 262.439C199.871 262.453 199.943 262.481 200.007 262.52L205.15 265.509C201.571 263.711 191.471 281.229 195.035 283.084Z" fill="#EBEBEB"/>
<path opacity="0.15" d="M69.8063 199.622L70.762 199.128L91.358 210.394L197.861 271.51C198.064 271.194 198.226 271.17 198.355 271.389C195.326 276.11 193.042 282.055 195.034 283.092L192.718 281.755L189.908 280.136L89.1955 222.365L69.944 200.562C69.825 200.44 69.7477 200.283 69.723 200.115C69.6983 199.946 69.7274 199.774 69.8063 199.622Z" fill="black"/>
<path d="M216.797 295.532L195.035 283.083C193.512 282.273 194.354 278.564 196.112 274.701C198.469 269.525 203.109 264.472 205.15 265.508L227.002 277.989C231.343 280.492 227.35 289.903 222.515 294.114C220.717 295.726 218.676 296.431 216.797 295.532Z" fill="#F28F8F"/>
<path opacity="0.1" d="M215.501 288.786C216.748 283.877 220.717 279.067 224.369 278.038C224.906 277.848 225.48 277.79 226.043 277.867C226.607 277.945 227.144 278.156 227.609 278.483C230.849 281.521 227.066 290.154 222.49 294.139C220.733 295.694 218.765 296.391 216.886 295.573C215.282 294.617 214.626 292.106 215.501 288.786Z" fill="black"/>
</svg>
