<svg width="374" height="348" viewBox="0 0 374 348" fill="none" xmlns="http://www.w3.org/2000/svg">
<path d="M187 347.748C83.7227 347.748 0 299.408 0 239.779C0 180.149 83.7227 131.81 187 131.81C290.277 131.81 374 180.149 374 239.779C374 299.408 290.277 347.748 187 347.748Z" fill="#5B0792" fill-opacity="0.08"/>
<path d="M321.899 308.087L324.442 306.588C324.863 306.31 325.213 305.938 325.465 305.501C325.716 305.063 325.863 304.573 325.891 304.07V115.579C325.861 115.077 325.715 114.589 325.463 114.153C325.211 113.717 324.862 113.346 324.442 113.069L207.491 45.5384C207.04 45.3118 206.542 45.1938 206.037 45.1938C205.532 45.1938 205.034 45.3118 204.583 45.5384L202.04 47.0124C201.618 47.2886 201.267 47.6594 201.014 48.0953C200.761 48.5312 200.613 49.0201 200.582 49.5231V238.046C200.612 238.55 200.759 239.041 201.012 239.478C201.265 239.915 201.617 240.288 202.04 240.565L318.991 308.087C319.442 308.313 319.94 308.431 320.445 308.431C320.95 308.431 321.447 308.313 321.899 308.087Z" fill="#37474F"/>
<path d="M200.599 49.2882C200.704 48.5431 201.311 48.2678 202.04 48.6889L318.991 116.211C319.421 116.476 319.775 116.847 320.02 117.288L325.47 114.146C325.224 113.706 324.87 113.335 324.442 113.069L207.491 45.5384C207.04 45.3118 206.542 45.1938 206.037 45.1938C205.532 45.1938 205.035 45.3118 204.583 45.5384L202.04 47.0124C201.651 47.2661 201.32 47.6007 201.072 47.9934C200.823 48.386 200.662 48.8277 200.599 49.2882Z" fill="#455A64"/>
<path d="M319.25 308.208C319.277 308.215 319.305 308.215 319.331 308.208L319.485 308.265H319.542C319.631 308.265 319.72 308.314 319.809 308.338C320.385 308.45 320.981 308.405 321.534 308.208C321.646 308.168 321.754 308.119 321.858 308.063L324.442 306.589C324.863 306.311 325.213 305.938 325.465 305.501C325.717 305.064 325.863 304.574 325.892 304.07V115.58C325.874 115.074 325.729 114.581 325.47 114.146L320.02 117.288C320.283 117.722 320.431 118.215 320.449 118.722V307.253C320.462 307.524 320.385 307.791 320.23 308.014C320.132 308.127 320.004 308.21 319.861 308.254C319.718 308.298 319.565 308.302 319.42 308.265L319.25 308.208Z" fill="#263238"/>
<path d="M278.245 108.015C278.282 107.817 278.372 107.632 278.504 107.48L278.601 107.399C278.678 107.341 278.767 107.304 278.862 107.29C278.957 107.276 279.054 107.285 279.144 107.318C279.216 107.335 279.285 107.366 279.346 107.407C279.706 107.655 279.987 108.001 280.156 108.403C280.373 108.859 280.489 109.356 280.496 109.861C280.529 110.238 280.413 110.613 280.172 110.906C280.066 111.009 279.927 111.072 279.779 111.083C279.631 111.095 279.484 111.055 279.362 110.971C279.189 110.866 279.035 110.732 278.909 110.574C278.793 110.423 278.69 110.264 278.601 110.096C278.352 109.609 278.217 109.072 278.204 108.525C278.2 108.354 278.213 108.183 278.245 108.015ZM259.228 65.5187C259.65 65.2707 260.132 65.1419 260.621 65.1461C261.55 65.1894 262.453 65.4681 263.245 65.956C265.456 67.309 267.162 69.3486 268.105 71.7631C268.258 72.1032 268.404 72.4596 268.534 72.8078C268.663 73.1561 268.801 73.5125 268.915 73.8769C269.028 74.2414 269.157 74.6058 269.263 74.9703C269.303 75.0918 269.336 75.2214 269.376 75.3348L269.587 76.0718C269.583 76.1068 269.583 76.1421 269.587 76.1771C269.708 76.6225 269.822 77.0842 269.951 77.5377C270.016 77.7888 270.073 78.0237 270.137 78.2666L270.324 78.9875C270.583 79.9512 270.842 80.8745 271.134 81.7573L271.32 82.2919C271.409 82.5429 271.498 82.794 271.595 83.037C271.693 83.28 271.749 83.4095 271.822 83.5796C271.944 83.8793 272.073 84.1628 272.211 84.4381C272.349 84.7135 272.381 84.7864 272.47 84.9565C274.519 88.8926 277.022 90.4315 278.471 92.4562C279.743 94.2218 280.091 95.6311 281.808 98.4253C282.351 99.3162 283.031 100.345 283.922 101.576C286.392 104.977 287.275 106.662 287.575 107.683C287.578 107.709 287.578 107.737 287.575 107.764C287.575 107.845 287.575 107.917 287.632 107.99C287.634 108.015 287.634 108.039 287.632 108.063C287.635 108.128 287.635 108.193 287.632 108.258C287.66 108.456 287.673 108.656 287.672 108.857V116.421L284.951 117.993V110.42C284.958 110.025 284.9 109.631 284.781 109.254C284.481 108.233 283.606 106.557 281.128 103.155C280.237 101.916 279.557 100.887 279.014 99.9965C277.313 97.2104 276.949 95.7931 275.677 94.0437C274.228 92.0108 271.725 90.4801 269.676 86.5358C269.38 85.9296 269.118 85.3078 268.89 84.673C267.578 81.4334 266.987 77.068 265.375 73.3991C264.435 70.9878 262.727 68.9529 260.516 67.6082C258.855 66.6525 257.641 66.5715 256.709 67.0089L259.228 65.5187ZM247.298 75.189C247.524 75.06 247.767 74.962 248.019 74.8974C249.047 74.6544 250.578 75.2538 252.117 75.0756C249.955 77.8698 246.95 76.0718 245.298 76.4686C245.041 76.5302 244.795 76.6313 244.569 76.7683L247.298 75.189ZM241.531 85.5801C241.612 85.6295 241.688 85.6865 241.758 85.7502L241.872 85.8636L241.977 85.9851C242.431 86.5723 242.681 87.2917 242.69 88.0341C242.717 88.4069 242.604 88.7764 242.374 89.0708C242.343 89.0998 242.311 89.1268 242.277 89.1518C242.202 89.2094 242.113 89.2471 242.02 89.2613C241.926 89.2754 241.831 89.2656 241.742 89.2328C241.667 89.2151 241.596 89.1849 241.531 89.1437C241.45 89.0951 241.378 89.0303 241.297 88.9736C241.179 88.8634 241.073 88.7413 240.981 88.6092C240.595 88.0454 240.384 87.3807 240.373 86.6978C240.373 85.7178 240.892 85.2075 241.531 85.5801ZM239.75 78.7364C240.624 78.2488 241.574 77.912 242.56 77.7402C242.981 77.643 243.37 77.5377 243.686 77.4324C242.602 78.3968 241.274 79.0441 239.847 79.3033C238.981 79.4719 238.138 79.7438 237.336 80.1132L239.75 78.7364Z" fill="#7209B7" fill-opacity="0.7"/>
<path d="M237.117 80.2511L237.336 80.1216C238.138 79.7521 238.98 79.4802 239.847 79.3116C241.274 79.0541 242.603 78.4065 243.686 77.4408C243.957 77.1902 244.253 76.9677 244.569 76.7766C244.795 76.6429 245.041 76.5445 245.297 76.4851C246.917 76.0882 249.954 77.8862 252.109 75.092L252.182 75.0029C253.688 72.97 254.239 68.4346 256.499 67.1063L256.725 66.9767C257.657 66.5394 258.872 66.6204 260.532 67.5761C266.517 71.0344 266.72 79.2469 268.874 84.6489C271.028 90.051 274.09 91.7438 275.75 94.0682C277.41 96.3926 277.524 98.1177 281.209 103.188C284.894 108.258 285.032 109.505 285.032 110.477V118.042L236.016 89.6947V82.1301C235.986 81.742 236.076 81.3542 236.273 81.0184C236.47 80.6826 236.764 80.4149 237.117 80.2511ZM279.346 110.971C279.986 111.344 280.496 110.85 280.496 109.861C280.503 109.396 280.402 108.934 280.203 108.513C280.004 108.092 279.71 107.722 279.346 107.432C278.706 107.059 278.196 107.561 278.196 108.549C278.19 109.014 278.29 109.474 278.489 109.894C278.689 110.314 278.982 110.682 279.346 110.971ZM260.532 88.1802C260.839 88.4138 261.197 88.571 261.577 88.6387C261.957 88.7064 262.347 88.6827 262.716 88.5695C263.085 88.4563 263.422 88.2569 263.698 87.9878C263.975 87.7187 264.183 87.3876 264.306 87.022C264.729 86.0642 264.931 85.0233 264.897 83.9767C264.897 80.2592 262.945 76.1206 260.532 74.7276C260.206 74.533 259.85 74.3935 259.479 74.3145C257.568 73.9338 256.166 75.7642 256.166 78.931C256.166 82.6485 258.118 86.7871 260.532 88.1802ZM241.531 89.1358C242.171 89.5084 242.69 89.0144 242.69 88.0344C242.694 87.5679 242.593 87.1065 242.392 86.6854C242.191 86.2643 241.897 85.8946 241.531 85.6046C240.892 85.2402 240.373 85.7342 240.373 86.7223C240.368 87.1865 240.47 87.6455 240.671 88.064C240.872 88.4825 241.166 88.8492 241.531 89.1358Z" fill="#7209B7" fill-opacity="0.7"/>
<path opacity="0.1" d="M237.117 80.2511L237.336 80.1216C238.138 79.7521 238.98 79.4802 239.847 79.3116C241.274 79.0541 242.603 78.4065 243.686 77.4408C243.957 77.1902 244.253 76.9677 244.569 76.7766C244.795 76.6429 245.041 76.5445 245.297 76.4851C246.917 76.0882 249.954 77.8862 252.109 75.092L252.182 75.0029C253.688 72.97 254.239 68.4346 256.499 67.1063L256.725 66.9767C257.657 66.5394 258.872 66.6204 260.532 67.5761C266.517 71.0344 266.72 79.2469 268.874 84.6489C271.028 90.051 274.09 91.7438 275.75 94.0682C277.41 96.3926 277.524 98.1177 281.209 103.188C284.894 108.258 285.032 109.505 285.032 110.477V118.042L236.016 89.6947V82.1301C235.986 81.742 236.076 81.3542 236.273 81.0184C236.47 80.6826 236.764 80.4149 237.117 80.2511ZM279.346 110.971C279.986 111.344 280.496 110.85 280.496 109.861C280.503 109.396 280.402 108.934 280.203 108.513C280.004 108.092 279.71 107.722 279.346 107.432C278.706 107.059 278.196 107.561 278.196 108.549C278.19 109.014 278.29 109.474 278.489 109.894C278.689 110.314 278.982 110.682 279.346 110.971ZM260.532 88.1802C260.839 88.4138 261.197 88.571 261.577 88.6387C261.957 88.7064 262.347 88.6827 262.716 88.5695C263.085 88.4563 263.422 88.2569 263.698 87.9878C263.975 87.7187 264.183 87.3876 264.306 87.022C264.729 86.0642 264.931 85.0233 264.897 83.9767C264.897 80.2592 262.945 76.1206 260.532 74.7276C260.206 74.533 259.85 74.3935 259.479 74.3145C257.568 73.9338 256.166 75.7642 256.166 78.931C256.166 82.6485 258.118 86.7871 260.532 88.1802ZM241.531 89.1358C242.171 89.5084 242.69 89.0144 242.69 88.0344C242.694 87.5679 242.593 87.1065 242.392 86.6854C242.191 86.2643 241.897 85.8946 241.531 85.6046C240.892 85.2402 240.373 85.7342 240.373 86.7223C240.368 87.1865 240.47 87.6455 240.671 88.064C240.872 88.4825 241.166 88.8492 241.531 89.1358Z" fill="black"/>
<path opacity="0.25" d="M284.862 109.287C284.981 109.664 285.038 110.057 285.032 110.453V118.025L287.753 116.454V108.89C287.754 108.689 287.741 108.489 287.712 108.29C287.716 108.226 287.716 108.161 287.712 108.096C287.715 108.072 287.715 108.047 287.712 108.023C287.712 107.95 287.712 107.877 287.656 107.796V107.715L284.862 109.287Z" fill="black"/>
<path opacity="0.25" d="M275.758 94.0763C277.03 95.8257 277.378 97.243 279.095 100.029L281.808 98.4417C280.107 95.6475 279.743 94.2383 278.471 92.4727L275.758 94.0763Z" fill="black"/>
<path opacity="0.25" d="M265.359 73.3346C266.979 77.0035 267.562 81.3284 268.874 84.6085C269.129 85.2644 269.421 85.9053 269.749 86.528L272.47 84.9649C272.381 84.7948 272.292 84.6166 272.211 84.4466C272.13 84.2765 271.944 83.8877 271.822 83.5881C271.749 83.418 271.668 83.2317 271.595 83.0454C271.522 82.8591 271.409 82.5514 271.32 82.3003L271.134 81.7658C270.842 80.883 270.583 79.9597 270.324 78.9959L270.137 78.2751C270.073 78.0321 270.016 77.7972 269.951 77.5461C269.822 77.0926 269.708 76.6309 269.587 76.1855C269.583 76.1505 269.583 76.1152 269.587 76.0802L269.376 75.3432C269.336 75.2298 269.303 75.1002 269.263 74.9787C269.157 74.6143 269.036 74.2498 268.914 73.8853C268.793 73.5209 268.671 73.1726 268.534 72.8163C268.396 72.4599 268.258 72.1116 268.105 71.7715L265.359 73.3346Z" fill="black"/>
<path d="M280.164 108.403C280.38 108.859 280.496 109.357 280.504 109.861C280.537 110.238 280.42 110.613 280.18 110.906C280.413 110.61 280.526 110.237 280.496 109.861C280.487 109.358 280.374 108.861 280.164 108.403ZM278.188 108.525C278.189 108.353 278.208 108.182 278.244 108.015C278.21 108.183 278.194 108.354 278.196 108.525C278.206 109.071 278.338 109.608 278.585 110.096C278.336 109.609 278.2 109.072 278.188 108.525ZM242.276 89.1519C242.201 89.2095 242.113 89.2471 242.02 89.2613C241.926 89.2755 241.831 89.2657 241.742 89.2329C241.831 89.2609 241.926 89.2682 242.019 89.2542C242.111 89.2401 242.199 89.2051 242.276 89.1519Z" fill="#7209B7" fill-opacity="0.7"/>
<path d="M256.158 78.9309C256.158 82.6483 258.118 86.787 260.532 88.18C260.841 88.4051 261.198 88.5554 261.576 88.6188C261.953 88.6823 262.34 88.6573 262.706 88.5458C263.072 88.4343 263.407 88.2394 263.684 87.9763C263.962 87.7132 264.175 87.3893 264.306 87.03C263.931 86.9495 263.573 86.8071 263.245 86.6088C260.815 85.2077 258.88 81.0771 258.88 77.3596C258.844 76.3121 259.049 75.2703 259.479 74.3144C257.551 73.9337 256.158 75.7641 256.158 78.9309Z" fill="#7209B7" fill-opacity="0.7"/>
<path opacity="0.3" d="M256.158 78.9309C256.158 82.6483 258.118 86.787 260.532 88.18C260.841 88.4051 261.198 88.5554 261.576 88.6188C261.953 88.6823 262.34 88.6573 262.706 88.5458C263.072 88.4343 263.407 88.2394 263.684 87.9763C263.962 87.7132 264.175 87.3893 264.306 87.03C263.931 86.9495 263.573 86.8071 263.245 86.6088C260.815 85.2077 258.88 81.0771 258.88 77.3596C258.844 76.3121 259.049 75.2703 259.479 74.3144C257.551 73.9337 256.158 75.7641 256.158 78.9309Z" fill="black"/>
<path d="M278.609 110.096C278.691 110.266 278.791 110.427 278.909 110.574C279.035 110.732 279.189 110.867 279.362 110.971C279.484 111.056 279.631 111.096 279.779 111.084C279.926 111.072 280.066 111.009 280.172 110.906C280.412 110.614 280.529 110.239 280.496 109.862C280.488 109.357 280.372 108.86 280.156 108.404C279.987 108.001 279.706 107.655 279.346 107.408C279.284 107.366 279.216 107.336 279.144 107.319C279.033 107.28 278.913 107.275 278.799 107.303C278.686 107.332 278.583 107.394 278.504 107.48C278.372 107.633 278.282 107.817 278.245 108.015C278.208 108.183 278.189 108.354 278.188 108.525C278.2 109.075 278.345 109.614 278.609 110.096Z" fill="#37474F"/>
<path d="M240.373 86.6978C240.384 87.3807 240.595 88.0454 240.981 88.6092C241.073 88.7413 241.179 88.8634 241.297 88.9736C241.378 89.0303 241.45 89.0951 241.531 89.1437C241.596 89.185 241.667 89.2151 241.742 89.2328C241.852 89.2697 241.97 89.274 242.082 89.2453C242.194 89.2165 242.295 89.1559 242.374 89.0708C242.604 88.7764 242.717 88.4069 242.69 88.0342C242.681 87.2917 242.431 86.5723 241.977 85.9851L241.872 85.8636L241.758 85.7502C241.688 85.6865 241.612 85.6296 241.531 85.5801C240.892 85.2076 240.373 85.7178 240.373 86.6978Z" fill="#37474F"/>
<path d="M311.402 133.843L209.629 75.0838C209.359 74.9478 209.061 74.877 208.758 74.877C208.456 74.877 208.158 74.9478 207.888 75.0838L206.908 75.6508C206.654 75.8178 206.443 76.0416 206.291 76.3046C206.139 76.5675 206.051 76.8622 206.033 77.1653V232.425C206.05 232.727 206.139 233.021 206.291 233.283C206.442 233.544 206.654 233.767 206.908 233.931L308.681 292.69C308.95 292.83 309.249 292.903 309.552 292.903C309.855 292.903 310.153 292.83 310.422 292.69L311.402 292.123C311.657 291.959 311.868 291.737 312.02 291.475C312.172 291.213 312.26 290.919 312.277 290.617V135.357C312.261 135.054 312.173 134.758 312.021 134.495C311.869 134.232 311.657 134.008 311.402 133.843Z" fill="#F5F5F5"/>
<path d="M206.065 76.8983C206.179 76.5419 206.511 76.4286 206.875 76.6553L308.681 135.414C308.939 135.577 309.151 135.803 309.297 136.07L312.018 134.499C311.877 134.23 311.664 134.005 311.402 133.851L209.629 75.0922C209.362 74.9524 209.064 74.8794 208.762 74.8794C208.461 74.8794 208.163 74.9524 207.896 75.0922L206.908 75.651C206.692 75.7925 206.506 75.9757 206.361 76.1898C206.216 76.404 206.116 76.6449 206.065 76.8983Z" fill="#FAFAFA"/>
<path d="M308.883 292.82C308.988 292.859 309.097 292.887 309.207 292.901H309.378C309.552 292.921 309.729 292.921 309.904 292.901C310.015 292.888 310.124 292.86 310.228 292.82L310.422 292.723L311.402 292.156C311.657 291.993 311.87 291.771 312.022 291.509C312.174 291.247 312.262 290.952 312.277 290.65V135.358C312.269 135.053 312.179 134.757 312.018 134.499L309.297 136.07C309.45 136.331 309.536 136.626 309.548 136.929V292.188C309.548 292.666 309.272 292.901 308.883 292.82Z" fill="#E0E0E0"/>
<path d="M268.68 98.1826L268.817 98.4094C269.142 98.9397 269.377 99.5197 269.514 100.126C269.514 100.175 269.514 100.199 269.514 100.224C269.516 100.237 269.516 100.251 269.514 100.264L271.174 109.61L271.692 112.599C271.692 112.72 271.749 112.842 271.782 112.972C271.813 113.092 271.851 113.211 271.895 113.328C271.895 113.409 271.952 113.49 271.984 113.571L269.263 115.142C269.133 114.83 269.038 114.504 268.979 114.17L268.445 111.182L266.825 101.835C266.702 101.086 266.411 100.375 265.974 99.7538L268.68 98.1826Z" fill="#7209B7" fill-opacity="0.7"/>
<path d="M287.421 128.335C287.696 128.773 287.955 129.21 288.231 129.648C288.344 129.858 288.458 130.069 288.563 130.279C288.668 130.49 288.822 130.822 288.935 131.089C289.049 131.356 289.195 131.689 289.308 131.996C289.421 132.304 289.535 132.612 289.64 132.92C289.745 133.227 289.875 133.64 289.972 134.005C290.037 134.24 290.102 134.475 290.166 134.726C290.318 135.298 290.455 135.881 290.58 136.475C290.58 136.678 290.669 136.888 290.701 137.091C290.733 137.293 290.806 137.593 290.847 137.836C290.847 137.836 290.847 137.836 290.847 137.876C290.847 138.071 290.847 138.2 290.75 138.257C290.737 138.263 290.723 138.266 290.709 138.266C290.695 138.266 290.681 138.263 290.669 138.257L288.328 136.426L287.947 136.127L287.761 135.989L287.559 135.827L287.397 135.706L287.259 135.592C286.575 133.116 285.435 130.79 283.898 128.732L286.619 127.161C286.886 127.55 287.162 127.947 287.421 128.335Z" fill="#7209B7" fill-opacity="0.7"/>
<path d="M257.973 77.6187C258.102 77.8292 258.216 78.0398 258.329 78.2504C258.403 78.3665 258.468 78.4884 258.523 78.6148C258.62 78.7849 258.701 78.9631 258.791 79.1413C258.88 79.3195 258.936 79.4247 259.001 79.5705C259.139 79.8459 259.26 80.1213 259.374 80.3804C259.487 80.6396 259.633 80.9798 259.746 81.2794C259.86 81.5467 259.949 81.814 260.038 82.0894C260.184 82.4943 260.305 82.8993 260.418 83.3123C260.483 83.531 260.532 83.7416 260.589 83.9521C260.587 83.9683 260.587 83.9846 260.589 84.0007C260.589 84.1141 260.645 84.2194 260.661 84.3328C260.726 84.5839 260.775 84.843 260.815 85.0941C260.856 85.3452 260.896 85.491 260.953 85.6934C261.01 85.8959 261.058 86.1146 261.123 86.3252C261.188 86.5358 261.253 86.722 261.317 86.9245C261.317 86.9245 261.317 86.9245 261.317 86.9812C261.398 87.1999 261.488 87.4267 261.585 87.6534C261.682 87.8802 261.763 88.0989 261.876 88.3338C261.904 88.3944 261.928 88.4566 261.949 88.52C262.03 88.6901 262.119 88.8602 262.2 89.0384L262.63 89.8483C262.727 90.0427 262.824 90.2208 262.929 90.4071L260.2 91.9784C259.219 90.3234 258.503 88.5253 258.078 86.6491C257.563 83.9972 256.593 81.4543 255.211 79.1332L257.973 77.6187Z" fill="#7209B7" fill-opacity="0.7"/>
<path d="M241.782 83.677C241.918 83.5951 242.07 83.5452 242.228 83.5312C241.964 83.9531 241.608 84.3103 241.188 84.5766C240.767 84.8429 240.292 85.0116 239.798 85.0701C239.564 85.0731 239.333 85.1226 239.118 85.2159L241.782 83.677Z" fill="#7209B7" fill-opacity="0.7"/>
<path opacity="0.4" d="M241.782 83.677C241.918 83.5951 242.07 83.5452 242.228 83.5312C241.964 83.9531 241.608 84.3103 241.188 84.5766C240.767 84.8429 240.292 85.0116 239.798 85.0701C239.564 85.0731 239.333 85.1226 239.118 85.2159L241.782 83.677Z" fill="white"/>
<path d="M231.634 95.5099C232.062 95.3009 232.534 95.1991 233.009 95.2132C233.485 95.2273 233.949 95.3569 234.364 95.5908C237.53 96.9839 238.899 97.6156 240.535 98.296C240.851 100.402 239.612 100.596 238.996 100.345C236.696 99.4379 235.522 98.8791 231.634 97.1702C231.224 96.9397 230.763 96.8113 230.293 96.7958C229.822 96.7803 229.354 96.8782 228.929 97.0811L231.634 95.5099Z" fill="#7209B7" fill-opacity="0.7"/>
<path opacity="0.4" d="M231.634 95.5099C232.062 95.3009 232.534 95.1991 233.009 95.2132C233.485 95.2273 233.949 95.3569 234.364 95.5908C237.53 96.9839 238.899 97.6156 240.535 98.296C240.851 100.402 239.612 100.596 238.996 100.345C236.696 99.4379 235.522 98.8791 231.634 97.1702C231.224 96.9397 230.763 96.8113 230.293 96.7958C229.822 96.7803 229.354 96.8782 228.929 97.0811L231.634 95.5099Z" fill="white"/>
<path d="M269.279 115.142C269.865 116.425 270.69 117.585 271.709 118.56L280.229 124.966C281.591 126.076 282.819 127.339 283.89 128.732L286.611 127.161C285.543 125.764 284.314 124.497 282.95 123.387L274.414 116.989C273.413 116.007 272.603 114.848 272.024 113.571L269.279 115.142Z" fill="#7209B7" fill-opacity="0.7"/>
<path opacity="0.4" d="M269.279 115.142C269.865 116.425 270.69 117.585 271.709 118.56L280.229 124.966C281.591 126.076 282.819 127.339 283.89 128.732L286.611 127.161C285.543 125.764 284.314 124.497 282.95 123.387L274.414 116.989C273.413 116.007 272.603 114.848 272.024 113.571L269.279 115.142Z" fill="white"/>
<path d="M260.24 92.0434C261.416 94.2165 262.863 96.2306 264.549 98.0367C265.08 98.5562 265.552 99.132 265.958 99.7537L268.68 98.1825C268.28 97.5559 267.807 96.9794 267.27 96.4655C265.588 94.6588 264.142 92.6448 262.97 90.4722L260.24 92.0434Z" fill="#7209B7" fill-opacity="0.7"/>
<path opacity="0.4" d="M260.24 92.0434C261.416 94.2165 262.863 96.2306 264.549 98.0367C265.08 98.5562 265.552 99.132 265.958 99.7537L268.68 98.1825C268.28 97.5559 267.807 96.9794 267.27 96.4655C265.588 94.6588 264.142 92.6448 262.97 90.4722L260.24 92.0434Z" fill="white"/>
<path d="M244.868 71.9335C245.873 71.407 247.209 71.4961 248.78 72.3222C251.113 73.5452 253.461 76.1369 255.259 79.1984L257.981 77.5786C256.199 74.5171 253.85 71.9092 251.501 70.7024C250.738 70.2716 249.883 70.0299 249.007 69.9978C248.483 69.9911 247.966 70.1224 247.509 70.3785L244.868 71.9335Z" fill="#7209B7" fill-opacity="0.7"/>
<path opacity="0.4" d="M244.868 71.9335C245.873 71.407 247.209 71.4961 248.78 72.3222C251.113 73.5452 253.461 76.1369 255.259 79.1984L257.981 77.5786C256.199 74.5171 253.85 71.9092 251.501 70.7024C250.738 70.2716 249.883 70.0299 249.007 69.9978C248.483 69.9911 247.966 70.1224 247.509 70.3785L244.868 71.9335Z" fill="white"/>
<path opacity="0.15" d="M283.865 128.732C285.403 130.79 286.543 133.116 287.227 135.592L287.364 135.706L287.526 135.827L287.729 135.989L287.915 136.127L288.296 136.426L290.604 138.273C290.617 138.279 290.63 138.282 290.644 138.282C290.658 138.282 290.672 138.279 290.685 138.273C290.774 138.216 290.814 138.087 290.782 137.892C290.782 137.892 290.782 137.892 290.782 137.852C290.782 137.609 290.693 137.358 290.636 137.107C290.58 136.856 290.555 136.694 290.515 136.491C290.391 135.903 290.253 135.32 290.102 134.742C290.037 134.491 289.972 134.256 289.907 134.021C289.81 133.657 289.697 133.3 289.575 132.936C289.454 132.571 289.365 132.32 289.243 132.012C289.122 131.705 289.008 131.405 288.871 131.105C288.733 130.806 288.628 130.546 288.498 130.295C288.368 130.044 288.279 129.874 288.166 129.664C287.931 129.226 287.672 128.789 287.356 128.352C287.04 127.914 286.822 127.542 286.546 127.177L283.865 128.732Z" fill="black"/>
<path opacity="0.15" d="M265.958 99.7538C266.395 100.375 266.686 101.086 266.809 101.835L268.429 111.182L268.963 114.17C269.022 114.504 269.117 114.83 269.247 115.142L271.968 113.571C271.968 113.49 271.903 113.409 271.879 113.328C271.835 113.211 271.797 113.092 271.765 112.972C271.765 112.842 271.701 112.72 271.676 112.599L271.158 109.61L269.498 100.264C269.5 100.251 269.5 100.237 269.498 100.224C269.498 100.224 269.498 100.175 269.498 100.126C269.361 99.5197 269.126 98.9397 268.801 98.4094L268.663 98.1826L265.958 99.7538Z" fill="black"/>
<path opacity="0.15" d="M255.251 79.1981C256.633 81.5193 257.603 84.0621 258.118 86.7141C258.544 88.5902 259.26 90.3883 260.24 92.0433L262.97 90.4721C262.864 90.2858 262.767 90.1076 262.67 89.9132L262.241 89.1033C262.16 88.9251 262.071 88.7551 261.99 88.585C261.969 88.5216 261.945 88.4594 261.917 88.3987C261.812 88.1719 261.714 87.937 261.625 87.7184C261.536 87.4997 261.439 87.2648 261.358 87.0461C261.358 87.0461 261.358 87.0057 261.358 86.9895C261.293 86.787 261.22 86.5926 261.164 86.3901C261.107 86.1876 261.042 85.969 260.994 85.7584C260.945 85.5478 260.896 85.3534 260.856 85.1591C260.815 84.9647 260.767 84.6488 260.702 84.3977C260.702 84.2844 260.653 84.1791 260.629 84.0657C260.628 84.0495 260.628 84.0333 260.629 84.0171C260.572 83.8065 260.524 83.5959 260.459 83.3773C260.346 82.9642 260.224 82.5673 260.078 82.1543C259.989 81.8789 259.9 81.6117 259.787 81.3444C259.673 81.0447 259.544 80.745 259.414 80.4454C259.285 80.1457 259.179 79.8946 259.042 79.6355C258.977 79.4897 258.904 79.352 258.831 79.2062C258.758 79.0604 258.661 78.8499 258.564 78.6798C258.509 78.5533 258.444 78.4315 258.369 78.3153C258.256 78.1047 258.143 77.8942 258.013 77.6836L255.251 79.1981Z" fill="black"/>
<path d="M290.628 138.273L288.328 136.426C289.243 137.163 290.49 138.127 290.628 138.273Z" fill="#7209B7" fill-opacity="0.7"/>
<path d="M228.921 97.0973C229.347 96.8944 229.816 96.796 230.288 96.81C230.759 96.8241 231.221 96.9504 231.634 97.1783C235.514 98.8954 236.688 99.4542 238.988 100.369C239.604 100.612 240.843 100.418 240.527 98.3122C240.53 98.2664 240.53 98.2204 240.527 98.1745L240.001 95.186L238.527 87.0383C238.527 87.0383 238.195 85.7505 239.045 85.2727H239.11C239.319 85.1699 239.549 85.1199 239.782 85.1269C240.278 85.066 240.753 84.8946 241.174 84.6255C241.594 84.3564 241.949 83.9963 242.212 83.5719C242.667 82.8956 242.982 82.1353 243.139 81.3357C243.296 80.536 243.292 79.713 243.127 78.9149C242.503 75.4161 243.184 72.9701 244.747 72.0631L244.868 71.9821C245.873 71.4556 247.209 71.5447 248.78 72.3708C252.919 74.5414 257.098 80.9802 258.118 86.7629C258.758 90.4075 262.427 96.0202 264.549 98.1016C266.671 100.183 266.809 101.9 266.809 101.9L268.429 111.246L268.963 114.235C269.352 116.47 271.644 118.633 271.644 118.633L280.229 124.966C283.635 127.676 286.094 131.396 287.251 135.592C287.251 135.592 290.49 138.071 290.652 138.273L289.559 137.65L230.662 103.787C230.662 103.787 229.982 103.423 229.853 103.326C229.723 103.228 227.334 100.993 227.334 100.993C227.374 99.0654 227.933 97.6886 228.921 97.0973ZM245.929 79.9192C246.561 83.4747 249.12 87.4351 251.663 88.7715C253.421 89.6867 254.709 89.1197 255.138 87.4999C255.326 86.5917 255.326 85.6545 255.138 84.7462C254.514 81.1907 251.939 77.2303 249.396 75.902C249.16 75.774 248.914 75.6682 248.659 75.5862C246.577 74.9544 245.403 76.7281 245.945 79.9192H245.929Z" fill="#7209B7" fill-opacity="0.7"/>
<path d="M290.62 138.281L230.622 103.795L229.812 103.333C229.666 103.244 227.293 100.993 227.293 100.993L287.226 135.592C287.226 135.592 290.855 138.41 290.62 138.281Z" fill="#7209B7" fill-opacity="0.7"/>
<path opacity="0.3" d="M290.62 138.281L230.622 103.795L229.812 103.333C229.666 103.244 227.293 100.993 227.293 100.993L287.226 135.592C287.226 135.592 290.855 138.41 290.62 138.281Z" fill="black"/>
<path d="M248.642 75.5862C248.897 75.6683 249.144 75.774 249.379 75.9021C251.923 77.2304 254.498 81.1908 255.122 84.7463C255.31 85.6545 255.31 86.5918 255.122 87.5C254.692 89.1198 253.405 89.6868 251.647 88.7716C249.104 87.4352 246.545 83.4748 245.913 79.9193C245.403 76.7282 246.577 74.9545 248.642 75.5862ZM254.96 87.4352C255.139 86.5588 255.139 85.6552 254.96 84.7787C254.336 81.2637 251.801 77.3518 249.29 76.0479C249.082 75.9376 248.865 75.8429 248.642 75.7644C248.476 76.6204 248.476 77.5002 248.642 78.3561C249.266 81.9116 251.833 85.8721 254.385 87.2084C254.57 87.3061 254.762 87.39 254.96 87.4595V87.4352Z" fill="#7209B7" fill-opacity="0.7"/>
<path opacity="0.4" d="M248.642 75.5862C248.897 75.6683 249.144 75.774 249.379 75.9021C251.923 77.2304 254.498 81.1908 255.122 84.7463C255.31 85.6545 255.31 86.5918 255.122 87.5C254.692 89.1198 253.405 89.6868 251.647 88.7716C249.104 87.4352 246.545 83.4748 245.913 79.9193C245.403 76.7282 246.577 74.9545 248.642 75.5862ZM254.96 87.4352C255.139 86.5588 255.139 85.6552 254.96 84.7787C254.336 81.2637 251.801 77.3518 249.29 76.0479C249.082 75.9376 248.865 75.8429 248.642 75.7644C248.476 76.6204 248.476 77.5002 248.642 78.3561C249.266 81.9116 251.833 85.8721 254.385 87.2084C254.57 87.3061 254.762 87.39 254.96 87.4595V87.4352Z" fill="black"/>
<path d="M295.884 184.041C296.012 184.041 296.138 184.008 296.249 183.944C296.382 183.858 296.489 183.737 296.558 183.594C296.626 183.451 296.654 183.292 296.638 183.134V179.676C296.626 179.365 296.538 179.062 296.383 178.792C296.228 178.523 296.009 178.295 295.747 178.129L292.726 176.387C292.601 176.304 292.455 176.258 292.305 176.253C292.154 176.249 292.006 176.286 291.876 176.36C291.746 176.435 291.639 176.545 291.567 176.677C291.496 176.809 291.462 176.958 291.47 177.108V180.599C291.481 180.91 291.568 181.213 291.723 181.483C291.879 181.753 292.098 181.98 292.361 182.146L295.382 183.895C295.534 183.987 295.707 184.037 295.884 184.041ZM292.224 176.962C292.272 176.976 292.318 176.995 292.361 177.019L295.382 178.76C295.534 178.863 295.66 178.998 295.752 179.157C295.843 179.315 295.897 179.493 295.909 179.676V183.166C295.922 183.214 295.922 183.264 295.909 183.312C295.86 183.304 295.814 183.287 295.771 183.263L292.75 181.514C292.598 181.412 292.472 181.276 292.381 181.117C292.289 180.959 292.236 180.781 292.224 180.599V177.108C292.22 177.073 292.22 177.038 292.224 177.003V176.962Z" fill="#455A64"/>
<path d="M288.903 175.885L276.997 169.009C276.6 168.782 276.285 168.96 276.285 169.414V170.345C276.299 170.591 276.371 170.83 276.495 171.042C276.618 171.255 276.791 171.435 276.997 171.568L288.903 178.444C289.292 178.671 289.616 178.493 289.616 178.039V177.108C289.602 176.862 289.53 176.624 289.406 176.411C289.282 176.199 289.11 176.018 288.903 175.885Z" fill="#E0E0E0"/>
<path d="M266.379 167.008C266.507 167.01 266.633 166.976 266.744 166.911C266.879 166.826 266.987 166.706 267.057 166.563C267.127 166.42 267.156 166.26 267.141 166.101V162.611C267.127 162.299 267.038 161.996 266.882 161.727C266.725 161.457 266.505 161.23 266.242 161.064L263.221 159.322C263.096 159.233 262.948 159.181 262.794 159.172C262.641 159.164 262.488 159.199 262.354 159.274C262.223 159.352 262.118 159.466 262.049 159.602C261.98 159.739 261.951 159.891 261.965 160.043V163.534C261.976 163.845 262.063 164.149 262.218 164.418C262.374 164.688 262.593 164.915 262.856 165.081L265.877 166.83C266.026 166.933 266.199 166.995 266.379 167.008ZM262.727 159.93C262.771 159.946 262.814 159.965 262.856 159.986L265.877 161.728C266.03 161.83 266.158 161.965 266.25 162.124C266.343 162.282 266.398 162.46 266.412 162.643V166.134C266.428 166.181 266.428 166.232 266.412 166.279C266.364 166.27 266.317 166.254 266.274 166.231L263.253 164.481C263.1 164.38 262.973 164.245 262.882 164.086C262.791 163.927 262.738 163.749 262.727 163.566V160.076C262.712 160.028 262.712 159.977 262.727 159.93Z" fill="#455A64"/>
<path d="M259.398 158.853L247.492 151.977C247.095 151.75 246.78 151.928 246.78 152.382V153.313C246.794 153.559 246.866 153.797 246.99 154.01C247.113 154.222 247.286 154.403 247.492 154.536L259.398 161.412C259.795 161.639 260.111 161.461 260.111 161.007V160.076C260.092 159.831 260.018 159.594 259.895 159.382C259.772 159.171 259.602 158.989 259.398 158.853Z" fill="#E0E0E0"/>
<path d="M236.883 149.976C237.01 149.977 237.136 149.943 237.247 149.879C237.379 149.792 237.485 149.671 237.553 149.528C237.622 149.385 237.65 149.227 237.636 149.069V145.579C237.623 145.268 237.535 144.965 237.38 144.696C237.225 144.426 237.007 144.198 236.745 144.032L233.724 142.29C233.598 142.205 233.45 142.156 233.298 142.15C233.146 142.145 232.995 142.182 232.863 142.258C232.731 142.334 232.624 142.446 232.552 142.581C232.481 142.715 232.449 142.867 232.46 143.019V146.502C232.473 146.813 232.561 147.117 232.718 147.387C232.874 147.657 233.095 147.884 233.359 148.049L236.38 149.798C236.528 149.902 236.702 149.964 236.883 149.976ZM236.38 144.696C236.531 144.799 236.656 144.935 236.747 145.094C236.839 145.252 236.893 145.429 236.907 145.611V149.102C236.923 149.149 236.923 149.2 236.907 149.247C236.86 149.242 236.816 149.225 236.777 149.199L233.756 147.449C233.603 147.348 233.476 147.212 233.383 147.054C233.29 146.895 233.235 146.717 233.222 146.534V143.052C233.207 143.001 233.207 142.948 233.222 142.898C233.222 142.898 233.27 142.898 233.359 142.954L236.38 144.696Z" fill="#455A64"/>
<path d="M229.893 141.821L217.987 134.944C217.599 134.718 217.275 134.896 217.275 135.349V136.281C217.293 136.525 217.367 136.762 217.49 136.974C217.614 137.186 217.784 137.367 217.987 137.504L229.893 144.38C230.29 144.607 230.606 144.429 230.606 143.975V143.044C230.592 142.798 230.52 142.559 230.396 142.347C230.272 142.134 230.1 141.954 229.893 141.821Z" fill="#E0E0E0"/>
<path d="M288.871 158.845V160.205C288.871 160.951 288.352 161.25 287.712 160.878L218.06 120.698C217.723 120.476 217.442 120.178 217.241 119.828C217.039 119.478 216.923 119.085 216.902 118.681V117.313C216.902 116.576 217.42 116.276 218.06 116.64L287.712 156.828C288.05 157.05 288.331 157.348 288.532 157.698C288.733 158.049 288.849 158.441 288.871 158.845Z" fill="#E0E0E0"/>
<path d="M294.175 148.219V149.579C294.175 150.325 293.657 150.624 293.009 150.252L223.397 110.072C223.057 109.852 222.774 109.555 222.572 109.204C222.369 108.854 222.252 108.46 222.231 108.055V106.687C222.231 105.95 222.749 105.65 223.397 106.014L293.009 146.226C293.346 146.444 293.627 146.738 293.83 147.084C294.032 147.43 294.151 147.819 294.175 148.219Z" fill="#455A64"/>
<path d="M288.871 167.081V168.45C288.871 169.187 288.352 169.487 287.712 169.122L218.06 128.943C217.723 128.721 217.442 128.423 217.241 128.073C217.039 127.722 216.923 127.329 216.902 126.926V125.557C216.902 124.82 217.42 124.521 218.06 124.885L287.712 165.073C288.049 165.294 288.329 165.591 288.53 165.939C288.731 166.288 288.848 166.679 288.871 167.081Z" fill="#E0E0E0"/>
<path d="M296.5 167.786C294.678 165.98 294.224 165.211 294.224 164.547C294.224 163.882 294.491 163.526 295.309 163.996C295.663 164.201 295.967 164.482 296.201 164.818C296.435 165.154 296.592 165.537 296.662 165.94L298.654 166.385C298.481 165.341 298.087 164.346 297.499 163.467C296.911 162.587 296.143 161.842 295.245 161.283C293.252 160.133 292.094 160.991 292.094 162.902C292.205 164.763 293.015 166.513 294.362 167.802V169.382L296.5 170.613V167.786Z" fill="#455A64"/>
<path d="M296.524 173.035C296.527 172.645 296.429 172.262 296.239 171.923C296.048 171.583 295.773 171.299 295.439 171.099C294.726 170.686 294.362 171.05 294.362 171.787C294.356 172.178 294.452 172.564 294.641 172.906C294.83 173.249 295.105 173.536 295.439 173.739C296.16 174.152 296.524 173.763 296.524 173.035Z" fill="#455A64"/>
<path d="M295.415 179.676L294.524 180.348L295.334 181.887C295.403 181.98 295.441 182.094 295.441 182.211C295.441 182.328 295.403 182.441 295.334 182.535C295.18 182.648 294.961 182.535 294.832 182.292L294.022 180.761L293.131 181.433C293.001 181.531 292.807 181.433 292.693 181.223C292.634 181.142 292.601 181.044 292.601 180.943C292.601 180.843 292.634 180.745 292.693 180.664L293.584 179.992L292.774 178.453C292.705 178.359 292.667 178.246 292.667 178.129C292.667 178.012 292.705 177.899 292.774 177.805C292.928 177.692 293.147 177.805 293.277 178.048L294.086 179.587L294.977 178.914C295.107 178.817 295.301 178.914 295.415 179.117C295.475 179.198 295.507 179.296 295.507 179.396C295.507 179.497 295.475 179.595 295.415 179.676Z" fill="#7209B7" fill-opacity="0.7"/>
<path d="M295.884 214.793C296.012 214.797 296.138 214.766 296.249 214.704C296.382 214.618 296.489 214.497 296.558 214.354C296.626 214.211 296.654 214.052 296.638 213.894V210.404C296.627 210.092 296.54 209.789 296.385 209.519C296.229 209.249 296.01 209.022 295.747 208.857L292.726 207.115C292.601 207.032 292.455 206.986 292.305 206.981C292.154 206.977 292.006 207.014 291.876 207.089C291.746 207.163 291.639 207.273 291.567 207.405C291.496 207.537 291.462 207.686 291.47 207.836V211.327C291.481 211.638 291.568 211.942 291.723 212.211C291.879 212.481 292.098 212.708 292.361 212.874L295.382 214.615C295.531 214.718 295.704 214.78 295.884 214.793ZM292.224 207.723C292.273 207.732 292.32 207.751 292.361 207.779L295.382 209.521C295.534 209.623 295.66 209.759 295.752 209.917C295.843 210.076 295.897 210.253 295.909 210.436V213.927C295.922 213.974 295.922 214.025 295.909 214.072C295.86 214.064 295.814 214.048 295.771 214.024L292.75 212.274C292.598 212.172 292.472 212.037 292.381 211.878C292.289 211.719 292.236 211.542 292.224 211.359V207.869C292.216 207.82 292.216 207.771 292.224 207.723Z" fill="#455A64"/>
<path d="M288.903 206.637L276.997 199.769C276.6 199.542 276.285 199.721 276.285 200.174V201.097C276.298 201.344 276.369 201.585 276.493 201.799C276.617 202.013 276.79 202.194 276.997 202.329L288.903 209.205C289.292 209.431 289.616 209.245 289.616 208.792V207.868C289.602 207.621 289.53 207.381 289.407 207.168C289.283 206.954 289.11 206.772 288.903 206.637Z" fill="#E0E0E0"/>
<path d="M266.379 197.761C266.507 197.765 266.633 197.734 266.744 197.672C266.879 197.587 266.987 197.466 267.057 197.323C267.127 197.18 267.156 197.021 267.141 196.862V193.371C267.128 193.06 267.04 192.756 266.883 192.486C266.727 192.217 266.506 191.989 266.242 191.824L263.221 190.083C263.096 189.994 262.948 189.942 262.794 189.933C262.641 189.924 262.488 189.96 262.354 190.034C262.223 190.113 262.118 190.227 262.049 190.363C261.98 190.499 261.951 190.652 261.965 190.804V194.295C261.976 194.606 262.063 194.909 262.218 195.179C262.374 195.449 262.593 195.676 262.856 195.842L265.877 197.583C266.026 197.686 266.199 197.748 266.379 197.761ZM262.727 190.691C262.773 190.702 262.817 190.721 262.856 190.747L265.877 192.489C266.03 192.59 266.158 192.726 266.25 192.884C266.343 193.043 266.398 193.221 266.412 193.404V196.894C266.428 196.942 266.428 196.993 266.412 197.04C266.364 197.031 266.317 197.014 266.274 196.992L263.253 195.242C263.101 195.14 262.975 195.004 262.884 194.846C262.792 194.687 262.739 194.51 262.727 194.327V190.836C262.712 190.789 262.712 190.738 262.727 190.691Z" fill="#455A64"/>
<path d="M259.398 189.605L247.492 182.737C247.095 182.51 246.78 182.688 246.78 183.142V184.065C246.793 184.312 246.864 184.553 246.988 184.767C247.112 184.981 247.285 185.162 247.492 185.296L259.398 192.172C259.795 192.399 260.111 192.172 260.111 191.759V190.836C260.093 190.59 260.02 190.351 259.897 190.138C259.773 189.925 259.603 189.742 259.398 189.605Z" fill="#E0E0E0"/>
<path d="M236.883 180.729C237.01 180.732 237.136 180.701 237.247 180.639C237.379 180.552 237.485 180.431 237.553 180.288C237.622 180.146 237.65 179.987 237.636 179.83V176.339C237.623 176.028 237.535 175.725 237.38 175.456C237.225 175.187 237.007 174.959 236.745 174.792L233.724 173.051C233.599 172.965 233.452 172.917 233.3 172.911C233.149 172.905 232.999 172.942 232.867 173.017C232.736 173.092 232.628 173.203 232.556 173.336C232.484 173.469 232.451 173.62 232.46 173.771V177.262C232.473 177.574 232.561 177.878 232.718 178.147C232.874 178.417 233.095 178.644 233.359 178.809L236.38 180.55C236.528 180.654 236.702 180.716 236.883 180.729ZM236.38 175.456C236.531 175.56 236.656 175.696 236.747 175.854C236.839 176.012 236.893 176.189 236.907 176.371V179.862C236.923 179.909 236.923 179.96 236.907 180.008C236.862 179.997 236.818 179.981 236.777 179.959L233.756 178.21C233.603 178.108 233.476 177.973 233.383 177.814C233.29 177.655 233.235 177.478 233.222 177.295V173.804C233.207 173.756 233.207 173.706 233.222 173.658C233.27 173.67 233.317 173.689 233.359 173.715L236.38 175.456Z" fill="#455A64"/>
<path d="M229.893 172.573L217.987 165.705C217.599 165.478 217.275 165.656 217.275 166.11V167.033C217.292 167.279 217.365 167.518 217.489 167.731C217.612 167.944 217.783 168.127 217.987 168.264L229.893 175.14C230.29 175.367 230.606 175.181 230.606 174.727V173.804C230.593 173.557 230.521 173.317 230.398 173.103C230.274 172.889 230.101 172.707 229.893 172.573Z" fill="#E0E0E0"/>
<path d="M288.871 189.597V190.966C288.871 191.703 288.352 192.002 287.712 191.638L218.06 151.458C217.723 151.237 217.442 150.938 217.241 150.588C217.039 150.238 216.923 149.845 216.902 149.442V148.073C216.902 147.336 217.42 147.036 218.06 147.401L287.712 187.588C288.049 187.809 288.329 188.106 288.53 188.455C288.731 188.804 288.848 189.195 288.871 189.597Z" fill="#E0E0E0"/>
<path d="M288.871 197.842V199.21C288.871 199.947 288.352 200.247 287.712 199.883L218.06 159.695C217.722 159.476 217.44 159.18 217.239 158.83C217.038 158.481 216.922 158.089 216.902 157.686V156.318C216.902 155.573 217.42 155.273 218.06 155.645L287.712 195.833C288.049 196.054 288.329 196.351 288.53 196.7C288.731 197.049 288.848 197.44 288.871 197.842Z" fill="#E0E0E0"/>
<path d="M296.5 198.546C294.678 196.74 294.224 195.971 294.224 195.307C294.224 194.642 294.491 194.286 295.309 194.756C295.663 194.962 295.967 195.242 296.201 195.578C296.435 195.914 296.592 196.297 296.662 196.7L298.654 197.145C298.481 196.101 298.087 195.106 297.499 194.227C296.911 193.347 296.143 192.602 295.245 192.043C293.252 190.893 292.094 191.751 292.094 193.703C292.205 195.564 293.015 197.314 294.362 198.603V200.182L296.5 201.413V198.546Z" fill="#455A64"/>
<path d="M296.524 203.795C296.527 203.406 296.429 203.022 296.239 202.683C296.048 202.343 295.773 202.059 295.439 201.859C294.726 201.446 294.362 201.811 294.362 202.548C294.356 202.938 294.453 203.324 294.642 203.666C294.831 204.008 295.105 204.296 295.439 204.499C296.16 204.912 296.524 204.54 296.524 203.795Z" fill="#455A64"/>
<path d="M265.91 193.371L265.019 194.043L265.829 195.582C265.898 195.676 265.936 195.789 265.936 195.906C265.936 196.023 265.898 196.136 265.829 196.23C265.683 196.343 265.456 196.23 265.327 195.987L264.517 194.456L263.626 195.129C263.496 195.226 263.302 195.129 263.197 194.918C263.137 194.837 263.104 194.739 263.104 194.639C263.104 194.538 263.137 194.44 263.197 194.359L264.087 193.687L263.278 192.148C263.212 192.051 263.181 191.934 263.188 191.817C263.195 191.7 263.241 191.589 263.318 191.5C263.464 191.395 263.691 191.5 263.82 191.743L264.63 193.282L265.521 192.61C265.642 192.513 265.837 192.61 265.95 192.812C266.006 192.897 266.032 192.998 266.024 193.098C266.017 193.199 265.977 193.295 265.91 193.371Z" fill="#7209B7" fill-opacity="0.7"/>
<path d="M295.884 245.554C296.012 245.554 296.138 245.521 296.249 245.457C296.38 245.378 296.485 245.264 296.554 245.128C296.623 244.992 296.652 244.839 296.638 244.687V241.196C296.627 240.885 296.54 240.582 296.385 240.312C296.23 240.042 296.01 239.815 295.747 239.65L292.726 237.908C292.601 237.825 292.455 237.779 292.305 237.774C292.155 237.77 292.006 237.807 291.876 237.881C291.746 237.956 291.639 238.066 291.567 238.198C291.496 238.33 291.462 238.479 291.47 238.629V242.12C291.481 242.431 291.568 242.734 291.723 243.004C291.879 243.274 292.098 243.501 292.361 243.667L295.382 245.408C295.534 245.5 295.707 245.55 295.884 245.554ZM292.224 238.483C292.273 238.492 292.32 238.512 292.361 238.54L295.382 240.281C295.534 240.384 295.661 240.519 295.752 240.678C295.843 240.836 295.897 241.014 295.909 241.196V244.687C295.921 244.735 295.921 244.785 295.909 244.833C295.859 244.824 295.812 244.805 295.771 244.776L292.75 243.035C292.598 242.933 292.472 242.797 292.381 242.638C292.289 242.48 292.236 242.302 292.224 242.12V238.629C292.216 238.581 292.216 238.532 292.224 238.483Z" fill="#455A64"/>
<path d="M288.903 237.398L276.997 230.521C276.6 230.295 276.285 230.481 276.285 230.935V231.858C276.298 232.105 276.369 232.345 276.493 232.559C276.617 232.773 276.79 232.955 276.997 233.089L288.903 239.965C289.292 240.192 289.616 240.005 289.616 239.552V238.629C289.602 238.382 289.53 238.142 289.407 237.928C289.283 237.714 289.11 237.532 288.903 237.398Z" fill="#E0E0E0"/>
<path d="M266.379 228.521C266.507 228.523 266.633 228.489 266.744 228.424C266.876 228.347 266.983 228.233 267.054 228.097C267.124 227.961 267.154 227.807 267.141 227.655V224.164C267.128 223.852 267.04 223.549 266.883 223.279C266.727 223.009 266.506 222.782 266.242 222.617L263.221 220.876C263.094 220.79 262.947 220.74 262.795 220.73C262.643 220.72 262.491 220.751 262.354 220.819C262.222 220.906 262.116 221.028 262.048 221.17C261.979 221.313 261.951 221.472 261.965 221.629V225.12C261.976 225.431 262.063 225.734 262.218 226.004C262.374 226.274 262.593 226.501 262.856 226.667L265.877 228.408C266.032 228.488 266.205 228.528 266.379 228.521ZM262.727 221.451C262.773 221.462 262.817 221.482 262.856 221.508L265.877 223.249C266.03 223.351 266.158 223.486 266.25 223.645C266.343 223.803 266.398 223.981 266.412 224.164V227.655C266.426 227.702 266.426 227.753 266.412 227.801C266.363 227.79 266.316 227.771 266.274 227.744L263.221 226.003C263.069 225.9 262.943 225.765 262.851 225.606C262.76 225.447 262.706 225.27 262.694 225.087V221.597C262.688 221.546 262.7 221.494 262.727 221.451Z" fill="#455A64"/>
<path d="M259.398 220.365L247.492 213.489C247.095 213.27 246.78 213.449 246.78 213.902V214.825C246.793 215.072 246.864 215.313 246.988 215.527C247.112 215.741 247.285 215.922 247.492 216.057L259.398 222.933C259.795 223.159 260.111 222.973 260.111 222.52V221.596C260.093 221.35 260.02 221.112 259.897 220.898C259.773 220.685 259.603 220.503 259.398 220.365Z" fill="#E0E0E0"/>
<path d="M236.883 211.489C237.01 211.489 237.136 211.456 237.247 211.391C237.378 211.313 237.483 211.199 237.552 211.063C237.621 210.927 237.65 210.774 237.636 210.622V207.131C237.625 206.82 237.538 206.517 237.383 206.247C237.228 205.977 237.009 205.75 236.745 205.584L233.724 203.843C233.6 203.755 233.454 203.703 233.302 203.694C233.151 203.685 233 203.718 232.866 203.791C232.733 203.864 232.622 203.972 232.548 204.105C232.473 204.237 232.437 204.388 232.444 204.54V208.03C232.457 208.342 232.545 208.646 232.702 208.916C232.858 209.185 233.079 209.412 233.343 209.577L236.364 211.319C236.518 211.422 236.697 211.481 236.883 211.489ZM236.38 206.216C236.531 206.32 236.656 206.456 236.747 206.614C236.839 206.772 236.893 206.949 236.907 207.131V210.622C236.921 210.67 236.921 210.72 236.907 210.768C236.861 210.756 236.817 210.737 236.777 210.711L233.756 208.97C233.603 208.868 233.476 208.733 233.383 208.574C233.291 208.415 233.235 208.238 233.222 208.055V204.54C233.207 204.492 233.207 204.441 233.222 204.394C233.269 204.405 233.316 204.421 233.359 204.442L236.38 206.216Z" fill="#455A64"/>
<path d="M229.893 203.333L217.987 196.457C217.599 196.238 217.275 196.457 217.275 196.87V197.793C217.292 198.039 217.365 198.278 217.489 198.491C217.612 198.705 217.783 198.887 217.987 199.024L229.893 205.9C230.29 206.127 230.606 205.941 230.606 205.487V204.54C230.589 204.297 230.516 204.062 230.392 203.852C230.268 203.643 230.098 203.465 229.893 203.333Z" fill="#E0E0E0"/>
<path d="M288.871 220.357V221.726C288.871 222.463 288.352 222.763 287.712 222.398L218.06 182.211C217.722 181.992 217.44 181.695 217.239 181.346C217.038 180.997 216.922 180.605 216.902 180.202V178.833C216.902 178.096 217.42 177.788 218.06 178.161L287.712 218.349C288.049 218.57 288.329 218.867 288.53 219.215C288.731 219.564 288.848 219.955 288.871 220.357Z" fill="#E0E0E0"/>
<path d="M288.871 228.602V229.971C288.871 230.708 288.352 231.008 287.712 230.635L218.06 190.456C217.723 190.236 217.442 189.939 217.241 189.59C217.039 189.241 216.923 188.849 216.902 188.447V187.078C216.902 186.333 217.42 186.034 218.06 186.406L287.712 226.594C288.05 226.814 288.331 227.11 288.532 227.459C288.733 227.809 288.849 228.2 288.871 228.602Z" fill="#E0E0E0"/>
<path d="M296.5 229.307C294.678 227.501 294.224 226.731 294.224 226.067C294.224 225.403 294.491 225.039 295.309 225.516C295.663 225.722 295.967 226.003 296.201 226.338C296.435 226.674 296.592 227.057 296.662 227.46L298.654 227.897C298.48 226.855 298.085 225.862 297.498 224.983C296.91 224.105 296.142 223.362 295.245 222.803C293.252 221.653 292.094 222.512 292.094 224.423C292.205 226.284 293.015 228.034 294.362 229.323V230.902L296.5 232.133V229.307Z" fill="#455A64"/>
<path d="M296.524 234.555C296.528 234.165 296.43 233.78 296.24 233.439C296.049 233.098 295.773 232.813 295.439 232.611C294.726 232.206 294.362 232.571 294.362 233.308C294.357 233.699 294.454 234.084 294.643 234.426C294.832 234.768 295.106 235.055 295.439 235.26C296.16 235.673 296.524 235.316 296.524 234.555Z" fill="#455A64"/>
<path d="M236.405 207.099L235.522 207.771L236.332 209.31C236.403 209.403 236.441 209.517 236.441 209.634C236.441 209.751 236.403 209.865 236.332 209.958C236.186 210.072 235.959 209.958 235.83 209.715L235.02 208.176L234.129 208.849C233.999 208.946 233.813 208.849 233.7 208.646C233.639 208.566 233.605 208.468 233.605 208.367C233.605 208.266 233.639 208.168 233.7 208.087L234.591 207.415L233.781 205.876C233.719 205.777 233.69 205.662 233.697 205.546C233.704 205.43 233.748 205.319 233.821 205.228C233.967 205.115 234.194 205.228 234.323 205.471L235.133 207.01L236.024 206.33C236.154 206.233 236.348 206.33 236.453 206.54C236.508 206.626 236.532 206.727 236.524 206.828C236.515 206.929 236.473 207.024 236.405 207.099Z" fill="#7209B7" fill-opacity="0.7"/>
<path d="M295.884 276.314C296.012 276.315 296.138 276.281 296.249 276.217C296.38 276.138 296.485 276.024 296.554 275.888C296.623 275.752 296.652 275.599 296.638 275.448V271.957C296.627 271.646 296.54 271.342 296.385 271.072C296.23 270.803 296.01 270.575 295.747 270.41L292.726 268.661C292.598 268.578 292.451 268.531 292.299 268.522C292.147 268.514 291.996 268.545 291.859 268.612C291.726 268.698 291.619 268.819 291.55 268.962C291.482 269.105 291.454 269.264 291.47 269.422V272.913C291.483 273.223 291.571 273.526 291.726 273.795C291.881 274.065 292.099 274.293 292.361 274.459L295.382 276.201C295.537 276.281 295.71 276.32 295.884 276.314ZM292.224 269.244C292.272 269.252 292.319 269.268 292.361 269.292L295.382 271.042C295.534 271.144 295.661 271.28 295.752 271.438C295.843 271.597 295.897 271.774 295.909 271.957V275.448C295.921 275.495 295.921 275.546 295.909 275.593C295.861 275.58 295.815 275.561 295.771 275.537L292.75 273.795C292.598 273.693 292.472 273.557 292.381 273.399C292.289 273.24 292.236 273.063 292.224 272.88V269.389C292.215 269.341 292.215 269.292 292.224 269.244Z" fill="#455A64"/>
<path d="M288.903 268.158L276.997 261.282C276.6 261.055 276.285 261.242 276.285 261.695V262.619C276.298 262.865 276.369 263.106 276.493 263.32C276.617 263.534 276.79 263.715 276.997 263.85L288.903 270.726C289.292 270.953 289.616 270.726 289.616 270.313V269.389C289.602 269.143 289.53 268.902 289.407 268.689C289.283 268.475 289.11 268.293 288.903 268.158Z" fill="#E0E0E0"/>
<path d="M266.38 259.281C266.508 259.283 266.634 259.249 266.744 259.184C266.883 259.104 266.995 258.984 267.066 258.84C267.136 258.695 267.162 258.534 267.141 258.374V254.884C267.129 254.572 267.04 254.268 266.884 253.999C266.727 253.729 266.507 253.502 266.242 253.337L263.221 251.587C263.095 251.504 262.948 251.457 262.798 251.453C262.647 251.449 262.497 251.486 262.367 251.562C262.236 251.638 262.13 251.749 262.059 251.882C261.988 252.015 261.956 252.166 261.966 252.316V255.807C261.976 256.118 262.063 256.422 262.218 256.691C262.374 256.961 262.593 257.189 262.856 257.354L265.877 259.095C266.025 259.201 266.198 259.266 266.38 259.281ZM262.727 252.211C262.772 252.221 262.816 252.238 262.856 252.26L265.877 254.009C266.03 254.111 266.158 254.246 266.25 254.405C266.343 254.563 266.398 254.741 266.412 254.924V258.415C266.426 258.462 266.426 258.513 266.412 258.561C266.365 258.546 266.318 258.527 266.274 258.504L263.253 256.763C263.101 256.66 262.975 256.525 262.884 256.366C262.793 256.207 262.739 256.03 262.727 255.847V252.324C262.717 252.287 262.717 252.248 262.727 252.211Z" fill="#455A64"/>
<path d="M259.398 251.126L247.492 244.249C247.095 244.023 246.78 244.249 246.78 244.662V245.586C246.793 245.833 246.864 246.073 246.988 246.287C247.112 246.501 247.285 246.683 247.492 246.817L259.398 253.693C259.795 253.92 260.111 253.733 260.111 253.28V252.324C260.089 252.084 260.013 251.852 259.89 251.644C259.767 251.437 259.599 251.26 259.398 251.126Z" fill="#E0E0E0"/>
<path d="M236.883 242.249C237.01 242.25 237.136 242.216 237.247 242.152C237.378 242.073 237.483 241.959 237.552 241.823C237.621 241.687 237.65 241.534 237.636 241.383V237.892C237.625 237.581 237.538 237.277 237.383 237.007C237.228 236.738 237.009 236.51 236.745 236.345L233.724 234.595C233.594 234.513 233.446 234.466 233.293 234.457C233.14 234.449 232.987 234.48 232.849 234.547C232.717 234.634 232.611 234.756 232.543 234.898C232.474 235.041 232.446 235.199 232.46 235.357V238.848C232.474 239.159 232.563 239.462 232.72 239.732C232.876 240.001 233.096 240.228 233.359 240.394L236.38 242.136C236.535 242.217 236.708 242.256 236.883 242.249ZM236.38 236.977C236.531 237.08 236.656 237.216 236.747 237.374C236.839 237.533 236.893 237.71 236.907 237.892V241.383C236.921 241.43 236.921 241.481 236.907 241.528C236.862 241.512 236.819 241.493 236.777 241.472L233.756 239.73C233.603 239.629 233.476 239.493 233.383 239.335C233.291 239.176 233.235 238.998 233.222 238.815V235.316C233.206 235.269 233.206 235.218 233.222 235.171C233.269 235.181 233.316 235.198 233.359 235.219L236.38 236.977Z" fill="#455A64"/>
<path d="M229.893 234.093L217.987 227.217C217.599 226.99 217.275 227.177 217.275 227.63V228.554C217.292 228.799 217.365 229.038 217.489 229.252C217.612 229.465 217.783 229.647 217.987 229.785L229.893 236.661C230.29 236.888 230.606 236.661 230.606 236.248V235.316C230.592 235.071 230.52 234.832 230.396 234.62C230.272 234.407 230.1 234.227 229.893 234.093Z" fill="#E0E0E0"/>
<path d="M288.871 251.118V252.486C288.871 253.223 288.352 253.523 287.712 253.15L218.06 212.971C217.723 212.751 217.442 212.454 217.241 212.105C217.039 211.756 216.923 211.365 216.902 210.962V209.594C216.902 208.848 217.42 208.549 218.06 208.921L287.712 249.109C288.05 249.329 288.331 249.626 288.532 249.975C288.733 250.324 288.849 250.715 288.871 251.118Z" fill="#E0E0E0"/>
<path d="M288.871 259.363V260.731C288.871 261.468 288.352 261.768 287.712 261.396L218.06 221.216C217.724 220.995 217.443 220.698 217.242 220.349C217.041 220.001 216.925 219.609 216.902 219.207V217.839C216.902 217.094 217.42 216.794 218.06 217.166L287.712 257.354C288.05 257.574 288.331 257.871 288.532 258.22C288.733 258.569 288.849 258.96 288.871 259.363Z" fill="#E0E0E0"/>
<path d="M296.5 260.067C294.678 258.261 294.224 257.492 294.224 256.828C294.224 256.163 294.491 255.799 295.309 256.277C295.662 256.482 295.966 256.761 296.199 257.095C296.433 257.43 296.591 257.811 296.662 258.213L298.654 258.658C298.48 257.616 298.085 256.622 297.498 255.744C296.91 254.866 296.142 254.122 295.245 253.564C293.252 252.414 292.094 253.272 292.094 255.224C292.205 257.085 293.015 258.835 294.362 260.124V261.703L296.5 262.934V260.067Z" fill="#455A64"/>
<path d="M296.524 265.283C296.528 264.893 296.43 264.508 296.24 264.167C296.049 263.826 295.773 263.541 295.439 263.339C294.726 262.934 294.362 263.291 294.362 264.036C294.356 264.426 294.453 264.81 294.642 265.151C294.831 265.492 295.105 265.778 295.439 265.98C296.16 266.433 296.524 266.093 296.524 265.283Z" fill="#455A64"/>
<path d="M236.405 237.989L235.522 238.662L236.332 240.2C236.403 240.293 236.441 240.407 236.441 240.524C236.441 240.641 236.403 240.755 236.332 240.848C236.186 240.962 235.959 240.848 235.83 240.605L235.02 239.066L234.129 239.747C233.999 239.844 233.813 239.747 233.7 239.536C233.639 239.456 233.605 239.358 233.605 239.257C233.605 239.156 233.639 239.058 233.7 238.977L234.591 238.305L233.781 236.766C233.719 236.668 233.69 236.552 233.697 236.436C233.704 236.32 233.748 236.209 233.821 236.118C233.967 236.005 234.194 236.118 234.323 236.361L235.133 237.9L236.024 237.22C236.154 237.131 236.348 237.22 236.453 237.43C236.508 237.516 236.532 237.617 236.524 237.718C236.515 237.819 236.473 237.914 236.405 237.989Z" fill="#7209B7" fill-opacity="0.7"/>
<path d="M157.503 55.0953L163.456 51.6613H163.512C166.477 49.9848 170.534 50.2359 175.029 52.8357C179.241 55.2654 183.08 59.315 185.971 63.9881C189.316 69.3821 191.414 75.6184 191.414 81.2149C191.414 86.4388 189.592 90.1239 186.635 91.8166L180.585 95.275C177.605 97.1782 173.385 97.0082 168.712 94.3112C159.657 89.0791 152.319 76.3717 152.319 65.9643C152.328 60.465 154.32 56.7152 157.503 55.0953Z" fill="#7209B7" fill-opacity="0.3"/>
<path opacity="0.1" d="M180.715 95.202L186.643 91.8085C189.6 90.0915 191.422 86.4226 191.422 81.2068C191.422 75.6103 189.324 69.374 185.979 63.98L179.654 67.6327C182.999 73.0186 185.096 79.2549 185.096 84.8433C185.113 89.8161 183.444 93.3878 180.715 95.202Z" fill="black"/>
<path opacity="0.4" d="M157.624 55.0304C160.54 53.6131 164.436 53.9694 168.72 56.4396C173.005 58.9099 176.771 62.9189 179.67 67.6164L185.995 63.9637C183.104 59.2743 179.257 55.2329 175.054 52.8113C170.559 50.2114 166.501 49.9685 163.537 51.6369H163.48L157.624 55.0304Z" fill="white"/>
<path d="M172.438 87.6615C173.207 87.6636 173.969 87.515 174.681 87.2241C176.795 86.3575 178.415 84.2436 179.249 81.2551C179.305 81.0132 179.266 80.7589 179.14 80.5452C179.013 80.3315 178.809 80.1749 178.57 80.108C178.33 80.0412 178.075 80.0693 177.856 80.1864C177.637 80.3035 177.471 80.5007 177.394 80.7367C176.722 83.1665 175.499 84.7863 173.952 85.4423C173.196 85.6947 172.391 85.7683 171.601 85.6573C170.811 85.5463 170.058 85.2537 169.4 84.8025C165.456 82.5266 161.86 76.5495 160.491 69.9406C160.437 69.6914 160.287 69.4736 160.073 69.3342C159.859 69.1948 159.599 69.145 159.349 69.1955C159.225 69.2215 159.108 69.2717 159.003 69.3432C158.899 69.4147 158.809 69.5061 158.74 69.6121C158.671 69.7182 158.623 69.8368 158.6 69.9613C158.577 70.0857 158.578 70.2136 158.604 70.3375C160.127 77.5619 163.998 83.8954 168.461 86.479C169.661 87.2117 171.032 87.6193 172.438 87.6615Z" fill="#455A64"/>
<path d="M172.616 71.6256C172.604 72.3071 172.749 72.9821 173.04 73.5986C173.33 74.2151 173.759 74.7566 174.292 75.1811C175.224 75.7156 175.969 74.9948 175.969 73.5612C175.982 72.8806 175.838 72.2061 175.547 71.5906C175.256 70.9751 174.827 70.4354 174.292 70.0138C173.369 69.4793 172.616 70.2001 172.616 71.6256Z" fill="#455A64"/>
<path d="M163.059 66.1102C163.047 66.7905 163.192 67.4644 163.483 68.0796C163.774 68.6948 164.202 69.2347 164.735 69.6576C165.659 70.1921 166.412 69.4713 166.412 68.0377C166.424 67.3574 166.278 66.6835 165.988 66.0683C165.697 65.4531 165.268 64.9132 164.735 64.4903C163.812 63.9558 163.059 64.6847 163.059 66.1102Z" fill="#455A64"/>
<path d="M55.276 126.383C56.025 126.022 56.8484 125.842 57.6799 125.857C58.5114 125.873 59.3276 126.084 60.0626 126.473L133.878 169.09C134.59 169.562 135.18 170.196 135.602 170.939C136.024 171.681 136.266 172.513 136.307 173.366V194.424C136.339 195.266 136.141 196.101 135.734 196.839C135.326 197.577 134.725 198.19 133.995 198.612C133.265 199.033 132.434 199.248 131.592 199.232C130.749 199.216 129.926 198.971 129.213 198.522L55.3975 155.905C54.6857 155.432 54.0949 154.799 53.6729 154.056C53.2508 153.313 53.0093 152.482 52.9678 151.628V130.571C52.9973 129.741 53.2216 128.929 53.6226 128.202C54.0235 127.474 54.5899 126.852 55.276 126.383Z" fill="#263238"/>
<path d="M52.9922 130.125C53.1946 128.878 54.207 128.441 55.4219 129.153L86.1984 146.915L129.237 171.763C129.968 172.216 130.57 172.849 130.986 173.601L135.619 170.929C135.203 170.176 134.604 169.541 133.878 169.082L60.0627 126.473C59.3829 126.041 58.6021 125.796 57.798 125.76C56.9938 125.725 56.1944 125.9 55.4792 126.27C54.7641 126.639 54.1581 127.19 53.7218 127.866C53.2854 128.543 53.0339 129.321 52.9922 130.125Z" fill="#455A64"/>
<path d="M131.715 176.039V197.096C131.715 198.668 130.606 199.307 129.245 198.522L55.43 155.904C54.7182 155.432 54.1274 154.799 53.7053 154.056C53.2833 153.313 53.0417 152.481 53.0002 151.628V130.57C53.0002 128.999 54.1017 128.359 55.43 129.145L86.2065 146.914L129.253 171.762C129.971 172.232 130.567 172.864 130.995 173.606C131.423 174.349 131.67 175.183 131.715 176.039Z" fill="#37474F"/>
<path d="M119.162 172.953L117.955 175.512C117.941 175.549 117.919 175.583 117.892 175.611C117.864 175.638 117.831 175.66 117.794 175.675C117.758 175.689 117.719 175.696 117.679 175.695C117.64 175.693 117.601 175.683 117.566 175.666L114.869 174.638C114.44 174.468 114.27 175.075 114.578 175.658L116.529 179.319C116.647 179.531 116.7 179.773 116.683 180.015L116.222 183.336C116.149 183.863 116.594 184.551 116.975 184.502L119.405 184.203C119.502 184.207 119.598 184.235 119.682 184.285C119.767 184.334 119.838 184.403 119.891 184.486L122.32 187.572C122.701 188.058 123.13 187.88 123.073 187.272L122.612 183.425C122.592 183.332 122.595 183.234 122.622 183.142C122.649 183.051 122.698 182.967 122.766 182.899L124.718 181.489C125.025 181.263 124.855 180.461 124.426 180.137L121.729 178.055C121.54 177.898 121.404 177.686 121.34 177.448L120.133 173.496C119.866 172.872 119.356 172.556 119.162 172.953Z" fill="white"/>
<path d="M105.515 165.146L104.308 167.705C104.295 167.743 104.274 167.777 104.247 167.806C104.219 167.834 104.186 167.857 104.149 167.871C104.112 167.886 104.072 167.892 104.033 167.89C103.993 167.888 103.954 167.877 103.919 167.859L101.222 166.83C100.793 166.66 100.623 167.268 100.931 167.851L102.858 171.512C102.976 171.727 103.03 171.971 103.012 172.216L102.55 175.529C102.477 176.055 102.923 176.744 103.304 176.695L105.733 176.403C105.831 176.404 105.927 176.43 106.012 176.478C106.097 176.526 106.168 176.595 106.219 176.679L108.649 179.765C109.03 180.251 109.459 180.08 109.402 179.465L108.941 175.618C108.92 175.524 108.924 175.427 108.951 175.335C108.978 175.243 109.027 175.159 109.094 175.091L111.046 173.682C111.354 173.455 111.184 172.662 110.755 172.33L108.058 170.248C107.869 170.09 107.733 169.878 107.669 169.641L106.462 165.688C106.26 165.057 105.709 164.741 105.515 165.146Z" fill="white"/>
<path d="M91.8677 157.338L90.6609 159.897C90.6469 159.934 90.6254 159.967 90.5977 159.995C90.5701 160.023 90.537 160.045 90.5004 160.06C90.4638 160.074 90.4247 160.081 90.3854 160.08C90.3461 160.078 90.3075 160.068 90.2721 160.051L87.5751 159.015C87.1459 158.853 86.9758 159.452 87.2836 160.035L89.2355 163.696C89.3528 163.911 89.4062 164.156 89.3893 164.4L88.9277 167.713C88.8548 168.239 89.3003 168.936 89.6809 168.887L92.1106 168.588C92.2085 168.592 92.3038 168.62 92.3884 168.67C92.473 168.719 92.5444 168.788 92.5966 168.871L95.0263 171.949C95.407 172.443 95.8362 172.265 95.7795 171.657L95.3179 167.81C95.2977 167.715 95.3012 167.617 95.328 167.524C95.3549 167.43 95.4042 167.345 95.4718 167.276L97.4236 165.866C97.7314 165.648 97.5613 164.846 97.1321 164.514L94.4351 162.432C94.2462 162.275 94.1105 162.062 94.0463 161.825L92.8396 157.873C92.6128 157.249 92.062 156.925 91.8677 157.338Z" fill="white"/>
<path d="M78.2206 149.522L77.0138 152.082C76.9998 152.118 76.9783 152.152 76.9507 152.18C76.923 152.208 76.8899 152.23 76.8533 152.244C76.8167 152.259 76.7776 152.265 76.7383 152.264C76.699 152.262 76.6604 152.253 76.625 152.235L73.9281 151.199C73.4988 151.037 73.3287 151.636 73.6365 152.219L75.5884 155.88C75.7057 156.096 75.7591 156.34 75.7422 156.585L75.2806 159.897C75.2077 160.424 75.6532 161.12 76.0338 161.072L78.4636 160.772C78.5614 160.777 78.6567 160.805 78.7413 160.854C78.8259 160.903 78.8974 160.972 78.9495 161.055L81.3792 164.133C81.7599 164.627 82.1891 164.449 82.1324 163.842L81.6708 159.994C81.6506 159.901 81.654 159.804 81.6809 159.712C81.7078 159.62 81.7572 159.536 81.8247 159.468L83.7766 158.059C84.0843 157.832 83.9142 157.03 83.485 156.698L80.788 154.625C80.6025 154.464 80.4675 154.253 80.3992 154.017L79.1925 150.065C78.9657 149.466 78.4149 149.117 78.2206 149.522Z" fill="white"/>
<path d="M64.5737 141.707L63.3669 144.266C63.3529 144.303 63.3314 144.336 63.3037 144.364C63.2761 144.392 63.2429 144.414 63.2064 144.429C63.1698 144.443 63.1306 144.45 63.0913 144.448C63.052 144.447 63.0135 144.437 62.9781 144.42L60.2811 143.391C59.8519 143.221 59.6818 143.829 59.9896 144.412L61.9415 148.073C62.059 148.285 62.1125 148.527 62.0953 148.769L61.6337 152.09C61.5608 152.616 62.0062 153.305 62.3869 153.256L64.8166 152.956C64.9145 152.961 65.0098 152.989 65.0944 153.039C65.179 153.088 65.2504 153.157 65.3026 153.24L67.7323 156.326C68.113 156.812 68.5422 156.633 68.4855 156.026L68.0239 152.179C68.0036 152.085 68.0071 151.988 68.034 151.896C68.0609 151.804 68.1103 151.72 68.1777 151.652L70.0972 150.276C70.405 150.049 70.2349 149.247 69.8057 148.923L67.1087 146.842C66.9198 146.684 66.7841 146.472 66.7199 146.234L65.5132 142.282C65.3188 141.618 64.7923 141.302 64.5737 141.707Z" fill="white"/>
<path d="M121.195 159.484L125.244 157.152C125.325 157.116 125.392 157.057 125.439 156.982L126.184 155.686L123.754 154.301L123.827 154.511L121.195 159.484Z" fill="#7209B7" fill-opacity="0.7"/>
<path opacity="0.2" d="M121.195 159.484L125.244 157.152C125.325 157.116 125.392 157.057 125.439 156.982L126.184 155.686L123.754 154.301L123.827 154.511L121.195 159.484Z" fill="black"/>
<path d="M124.135 154.495L121.332 159.355C121.293 159.425 121.235 159.482 121.163 159.519C121.092 159.556 121.012 159.572 120.932 159.564C120.852 159.557 120.776 159.526 120.713 159.476C120.651 159.425 120.604 159.358 120.579 159.282L117.623 150.753L124.135 154.495Z" fill="#7209B7" fill-opacity="0.7"/>
<path d="M53.4538 86.7789C53.4893 86.1018 53.6847 85.4428 54.0239 84.8557C54.3632 84.2687 54.8367 83.7704 55.4057 83.4016C56.0115 83.098 56.6799 82.9399 57.3575 82.9399C58.0352 82.9399 58.7036 83.098 59.3094 83.4016L134.356 126.707C134.924 127.079 135.397 127.579 135.736 128.167C136.075 128.755 136.271 129.415 136.307 130.093V154.795C136.271 155.473 136.075 156.133 135.736 156.721C135.397 157.309 134.924 157.809 134.356 158.181C133.751 158.488 133.082 158.648 132.404 158.648C131.725 158.648 131.057 158.488 130.452 158.181L55.2194 114.753C53.4619 113.749 53.4457 112.745 53.4457 111.514L53.4538 86.7789Z" fill="#7209B7" fill-opacity="0.7"/>
<path opacity="0.2" d="M136.34 154.787C136.303 155.465 136.107 156.125 135.768 156.713C135.429 157.301 134.956 157.801 134.388 158.172C133.839 158.452 133.236 158.612 132.62 158.642C132.005 158.671 131.39 158.569 130.816 158.343C131.731 158.691 132.436 158.164 132.436 157.047V132.336C132.414 131.658 132.215 130.996 131.861 130.417L135.773 128.157C136.121 128.742 136.316 129.405 136.34 130.085V154.787Z" fill="black"/>
<path opacity="0.4" d="M53.5427 86.2281C53.7695 85.4182 54.5308 85.1348 55.4298 85.6531L130.484 128.959C131.063 129.315 131.538 129.818 131.861 130.417L135.765 128.157C135.435 127.563 134.962 127.062 134.388 126.699L59.3417 83.4015C58.7369 83.0942 58.0682 82.9341 57.3898 82.9341C56.7115 82.9341 56.0427 83.0942 55.438 83.4015C54.9461 83.7186 54.5242 84.1329 54.1983 84.619C53.8724 85.1051 53.6493 85.6527 53.5427 86.2281Z" fill="white"/>
<path d="M127.156 132.774L59.763 93.7845C59.107 93.4119 58.5724 93.582 58.5724 94.1732C58.6208 94.5374 58.7536 94.8853 58.9603 95.1891C59.167 95.4928 59.4419 95.744 59.763 95.9226L127.156 134.887C127.803 135.268 128.338 135.098 128.338 134.507C128.287 134.146 128.154 133.803 127.949 133.502C127.744 133.202 127.472 132.952 127.156 132.774Z" fill="white"/>
<path d="M127.156 143.796L69.3523 110.428C68.6963 110.047 68.1699 110.218 68.1699 110.809C68.2174 111.173 68.3489 111.522 68.5541 111.827C68.7593 112.132 69.0326 112.385 69.3523 112.566L127.156 145.926C127.803 146.307 128.338 146.129 128.338 145.538C128.284 145.177 128.15 144.834 127.945 144.532C127.74 144.231 127.471 143.979 127.156 143.796Z" fill="white"/>
<path d="M127.156 149.158L61.1398 110.995C60.4919 110.614 59.9574 110.793 59.9574 111.384C60.0101 111.746 60.1439 112.091 60.3486 112.394C60.5534 112.697 60.8238 112.949 61.1398 113.133L127.156 151.288C127.803 151.669 128.338 151.499 128.338 150.907C128.289 150.544 128.157 150.197 127.952 149.894C127.747 149.59 127.474 149.339 127.156 149.158Z" fill="white"/>
<path d="M127.156 138.127L61.1398 99.9643C60.4919 99.5837 59.9574 99.7618 59.9574 100.353C60.0067 100.716 60.139 101.063 60.3441 101.366C60.5492 101.669 60.8215 101.921 61.1398 102.102L127.156 140.298C127.803 140.67 128.338 140.5 128.338 139.909C128.294 139.54 128.164 139.187 127.959 138.877C127.753 138.568 127.478 138.311 127.156 138.127Z" fill="white"/>
<path d="M55.276 44.3317C56.025 43.9704 56.8484 43.7901 57.6799 43.8056C58.5114 43.8211 59.3276 44.0318 60.0626 44.4208L133.878 87.0301C134.588 87.5041 135.178 88.1376 135.6 88.8801C136.022 89.6226 136.264 90.4536 136.307 91.3065V112.364C136.339 113.206 136.141 114.041 135.734 114.779C135.326 115.517 134.725 116.13 133.995 116.552C133.265 116.973 132.434 117.188 131.592 117.172C130.749 117.156 129.926 116.911 129.213 116.462L55.3975 73.8448C54.6857 73.3723 54.0949 72.7391 53.6729 71.9963C53.2508 71.2535 53.0093 70.4218 52.9678 69.5685V48.5108C52.9985 47.6822 53.2234 46.8723 53.6243 46.1465C54.0252 45.4206 54.591 44.799 55.276 44.3317Z" fill="#263238"/>
<path d="M52.9922 48.0731C53.1946 46.8258 54.207 46.3885 55.4219 47.0931L86.1984 64.8544L129.237 89.7024C129.966 90.1612 130.568 90.7963 130.986 91.549L135.619 88.8763C135.206 88.1225 134.606 87.4868 133.878 87.0297L60.0627 44.4204C59.3829 43.9893 58.6021 43.7437 57.798 43.7081C56.9938 43.6726 56.1944 43.8482 55.4792 44.2177C54.7641 44.5871 54.1581 45.1375 53.7218 45.8139C53.2854 46.4903 53.0339 47.2692 52.9922 48.0731Z" fill="#455A64"/>
<path d="M131.715 93.987V115.045C131.715 116.616 130.606 117.256 129.245 116.47L55.43 73.8526C54.7182 73.3801 54.1274 72.7469 53.7053 72.0041C53.2833 71.2613 53.0417 70.4296 53.0002 69.5763V48.5187C53.0002 46.9474 54.1017 46.3076 55.43 47.0932L86.2065 64.8545L129.253 89.7107C129.971 90.18 130.567 90.8118 130.995 91.5547C131.423 92.2977 131.67 93.1309 131.715 93.987Z" fill="#37474F"/>
<path d="M119.162 90.9094L117.955 93.4687C117.941 93.5054 117.919 93.5389 117.892 93.5668C117.864 93.5948 117.831 93.6167 117.794 93.6312C117.758 93.6457 117.719 93.6524 117.679 93.6509C117.64 93.6494 117.601 93.6398 117.566 93.6226L114.869 92.5859C114.44 92.4239 114.27 93.0314 114.578 93.6064L116.529 97.2672C116.647 97.4826 116.7 97.7271 116.683 97.9718L116.222 101.284C116.149 101.811 116.594 102.507 116.975 102.459L119.405 102.159C119.502 102.164 119.598 102.192 119.682 102.241C119.767 102.29 119.838 102.36 119.891 102.443L122.32 105.52C122.701 106.014 123.13 105.836 123.073 105.229L122.612 101.382C122.592 101.288 122.595 101.191 122.622 101.099C122.649 101.007 122.698 100.923 122.766 100.855L124.718 99.4458C125.025 99.2191 124.855 98.4172 124.426 98.0852L121.729 96.0118C121.542 95.8524 121.407 95.6409 121.34 95.4044L120.133 91.452C119.866 90.8203 119.356 90.5044 119.162 90.9094Z" fill="#7209B7" fill-opacity="0.7"/>
<path d="M105.515 83.094L104.308 85.6533C104.294 85.69 104.272 85.7234 104.245 85.7514C104.217 85.7794 104.184 85.8013 104.147 85.8158C104.111 85.8302 104.072 85.837 104.032 85.8355C103.993 85.834 103.954 85.8243 103.919 85.8071L101.222 84.7786C100.793 84.6085 100.623 85.2159 100.931 85.7991L102.858 89.4598C102.976 89.6723 103.029 89.9142 103.012 90.1564L102.55 93.477C102.477 94.0034 102.923 94.6919 103.304 94.6433L105.733 94.3436C105.831 94.3482 105.926 94.3763 106.011 94.4257C106.096 94.475 106.167 94.5441 106.219 94.6271L108.649 97.7128C109.03 98.1988 109.459 98.0287 109.402 97.4132L108.941 93.5661C108.92 93.4725 108.924 93.3753 108.951 93.2833C108.978 93.1914 109.027 93.1076 109.094 93.0396L111.046 91.6304C111.354 91.4036 111.184 90.6018 110.755 90.2779L108.058 88.1964C107.869 88.0386 107.733 87.8265 107.669 87.589L106.462 83.6366C106.26 83.0049 105.709 82.689 105.515 83.094Z" fill="#7209B7" fill-opacity="0.7"/>
<path d="M91.8677 75.2784L90.6609 77.8458C90.6469 77.8826 90.6254 77.916 90.5977 77.944C90.5701 77.9719 90.537 77.9939 90.5004 78.0083C90.4638 78.0228 90.4247 78.0295 90.3854 78.028C90.3461 78.0265 90.3075 78.0169 90.2721 77.9997L87.5751 76.963C87.1459 76.801 86.9758 77.4004 87.2836 77.9835L89.2355 81.6443C89.3537 81.8594 89.4071 82.1041 89.3893 82.3489L88.9277 85.6615C88.8548 86.1879 89.3003 86.8763 89.6809 86.8358L92.1106 86.5362C92.2084 86.537 92.3043 86.5627 92.3893 86.6109C92.4743 86.6591 92.5456 86.7281 92.5966 86.8115L95.0263 89.8973C95.407 90.3832 95.8362 90.2131 95.7795 89.5976L95.3179 85.7505C95.2984 85.6569 95.3022 85.5599 95.3291 85.4681C95.3559 85.3763 95.4049 85.2925 95.4718 85.2241L97.4236 83.8149C97.7314 83.5962 97.5613 82.7944 97.1321 82.4623L94.4351 80.3808C94.2462 80.2231 94.1105 80.011 94.0463 79.7734L92.8396 75.821C92.6128 75.1974 92.062 74.8735 91.8677 75.2784Z" fill="#7209B7" fill-opacity="0.7"/>
<path d="M78.2206 67.4706L77.0138 70.0299C76.9998 70.0666 76.9783 70.1 76.9507 70.128C76.923 70.156 76.8899 70.1779 76.8533 70.1924C76.8167 70.2069 76.7776 70.2136 76.7383 70.2121C76.699 70.2106 76.6604 70.201 76.625 70.1838L73.9281 69.1471C73.4988 68.9851 73.3287 69.5844 73.6365 70.1676L75.5884 73.8284C75.7057 74.0438 75.7591 74.2882 75.7422 74.533L75.2806 77.8455C75.2077 78.3719 75.6532 79.0685 76.0338 79.0199L78.4636 78.7202C78.5614 78.7248 78.6567 78.7529 78.7413 78.8023C78.8259 78.8517 78.8974 78.9207 78.9495 79.0037L81.3792 82.0813C81.7599 82.5754 82.1891 82.3972 82.1324 81.7898L81.6708 77.9427C81.6432 77.8462 81.6406 77.7443 81.6633 77.6465C81.6859 77.5487 81.7331 77.4584 81.8004 77.3839L83.7523 75.9746C84.06 75.7559 83.8899 74.9541 83.4607 74.6221L80.7637 72.5487C80.5765 72.3861 80.4413 72.172 80.3749 71.9332L79.1682 67.9808C78.9657 67.3815 78.4149 67.0575 78.2206 67.4706Z" fill="#7209B7" fill-opacity="0.7"/>
<path d="M64.5737 59.655L63.3669 62.2143C63.3529 62.2511 63.3314 62.2845 63.3038 62.3125C63.2762 62.3405 63.243 62.3624 63.2064 62.3769C63.1699 62.3913 63.1307 62.398 63.0914 62.3966C63.0521 62.3951 63.0136 62.3854 62.9782 62.3682L60.2812 61.3316C59.8519 61.1696 59.6819 61.777 59.9896 62.352L61.9415 66.0452C62.0589 66.2606 62.1123 66.5051 62.0954 66.7498L61.6338 70.0624C61.5609 70.5888 62.0063 71.2853 62.387 71.2367L64.8167 70.9371C64.9145 70.9416 65.0098 70.9698 65.0945 71.0192C65.1791 71.0685 65.2505 71.1376 65.3026 71.2205L67.7324 74.2982C68.113 74.7922 68.5423 74.6141 68.4856 74.0066L68.0239 70.1596C68.0037 70.0659 68.0072 69.9688 68.0341 69.8768C68.0609 69.7849 68.1103 69.7011 68.1778 69.6331L70.1297 68.2239C70.4375 67.9971 70.2674 67.1953 69.8381 66.8632L67.1411 64.7899C66.9523 64.6321 66.8165 64.42 66.7524 64.1824L65.5456 60.2301C65.3188 59.5659 64.7924 59.2501 64.5737 59.655Z" fill="#455A64"/>
<path d="M121.195 77.4324L125.244 75.0999C125.325 75.0641 125.392 75.0048 125.439 74.9298L126.184 73.634L123.754 72.249L123.827 72.4596L121.195 77.4324Z" fill="#7209B7" fill-opacity="0.7"/>
<path opacity="0.2" d="M121.195 77.4324L125.244 75.0999C125.325 75.0641 125.392 75.0048 125.439 74.9298L126.184 73.634L123.754 72.249L123.827 72.4596L121.195 77.4324Z" fill="black"/>
<path d="M124.135 72.4434L121.332 77.3029C121.293 77.373 121.235 77.4302 121.163 77.4674C121.092 77.5047 121.012 77.5204 120.932 77.5127C120.852 77.5049 120.776 77.4741 120.713 77.4239C120.651 77.3737 120.604 77.3063 120.579 77.23L117.623 68.7017L124.135 72.4434Z" fill="#7209B7" fill-opacity="0.7"/>
<path d="M53.454 4.72691C53.4908 4.04902 53.6866 3.38932 54.0257 2.80118C54.3648 2.21304 54.8376 1.71299 55.4058 1.34149C56.0106 1.03419 56.6794 0.874023 57.3577 0.874023C58.0361 0.874023 58.7049 1.03419 59.3096 1.34149L134.388 44.6474C134.956 45.0189 135.429 45.5189 135.768 46.107C136.107 46.6952 136.303 47.3549 136.34 48.0328V72.735C136.303 73.4129 136.107 74.0726 135.768 74.6607C135.429 75.2489 134.956 75.7489 134.388 76.1204C133.783 76.4277 133.115 76.5879 132.436 76.5879C131.758 76.5879 131.089 76.4277 130.484 76.1204L55.252 32.685C53.4945 31.6888 53.4783 30.6845 53.4783 29.4453L53.454 4.72691Z" fill="#7209B7" fill-opacity="0.7"/>
<path opacity="0.2" d="M136.34 72.7348C136.303 73.4127 136.107 74.0724 135.768 74.6605C135.429 75.2487 134.956 75.7487 134.388 76.1202C133.839 76.4008 133.236 76.5604 132.62 76.5884C132.004 76.6163 131.389 76.5119 130.816 76.2822C131.731 76.6305 132.436 76.1121 132.436 74.9945V50.2841C132.412 49.603 132.214 48.9393 131.861 48.3565L135.773 46.105C136.121 46.6897 136.316 47.3526 136.34 48.0326V72.7348Z" fill="black"/>
<path opacity="0.4" d="M53.5427 4.1762C53.7695 3.36629 54.5308 3.08282 55.4298 3.60116L130.484 46.907C131.063 47.2633 131.538 47.7662 131.861 48.3649L135.765 46.1052C135.435 45.5115 134.962 45.0102 134.388 44.6474L59.3417 1.34152C58.7358 1.03795 58.0675 0.879883 57.3898 0.879883C56.7121 0.879883 56.0438 1.03795 55.438 1.34152C54.9452 1.65948 54.5227 2.07506 54.1968 2.5626C53.8708 3.05014 53.6482 3.5993 53.5427 4.1762Z" fill="white"/>
<path d="M127.156 50.7136L59.763 11.7327C59.107 11.3601 58.5724 11.5302 58.5724 12.1215C58.6208 12.4857 58.7536 12.8336 58.9603 13.1373C59.167 13.441 59.4419 13.6923 59.763 13.8709L127.156 52.8518C127.803 53.2325 128.338 53.0624 128.338 52.4711C128.286 52.1079 128.153 51.7611 127.948 51.4568C127.744 51.1524 127.473 50.8983 127.156 50.7136Z" fill="white"/>
<path d="M127.156 61.7363L69.3523 28.3681C68.6963 27.9874 68.1699 28.1575 68.1699 28.7487C68.2167 29.1124 68.3481 29.46 68.5534 29.7638C68.7587 30.0676 69.0323 30.3191 69.3523 30.4981L127.156 63.8745C127.803 64.2471 128.338 64.077 128.338 63.4857C128.289 63.1228 128.156 62.7762 127.951 62.4728C127.746 62.1694 127.474 61.9174 127.156 61.7363Z" fill="white"/>
<path d="M127.156 67.098L61.1398 28.9432C60.4919 28.5625 59.9574 28.7407 59.9574 29.3239C60.009 29.6871 60.1422 30.0339 60.347 30.3383C60.5518 30.6426 60.8228 30.8967 61.1398 31.0814L127.156 69.2362C127.803 69.6169 128.338 69.4468 128.338 68.8555C128.286 68.4923 128.153 68.1455 127.948 67.8412C127.744 67.5368 127.473 67.2827 127.156 67.098Z" fill="white"/>
<path d="M127.156 56.1077L61.1398 17.9448C60.4919 17.5641 59.9574 17.7423 59.9574 18.3335C60.0101 18.6953 60.1439 19.0405 60.3486 19.3434C60.5534 19.6463 60.8238 19.8991 61.1398 20.0829L127.156 58.2378C127.803 58.6184 128.338 58.4484 128.338 57.8571C128.289 57.494 128.157 57.1472 127.952 56.8437C127.747 56.5402 127.474 56.2883 127.156 56.1077Z" fill="white"/>
<path d="M99.1494 204.944L70.7621 199.38C70.5829 199.351 70.3991 199.377 70.2355 199.456C70.072 199.535 69.9367 199.662 69.8482 199.821C69.7597 199.979 69.7221 200.161 69.7407 200.342C69.7593 200.523 69.8332 200.693 69.9522 200.83L89.2037 222.633L99.1494 204.944Z" fill="#FFA8A7"/>
<path d="M69.9359 200.83C69.8169 200.693 69.7431 200.523 69.7245 200.342C69.7059 200.161 69.7434 199.979 69.8319 199.821C69.9205 199.662 70.0557 199.535 70.2193 199.456C70.3828 199.377 70.5666 199.351 70.7458 199.38L76.3018 200.49C75.5412 200.961 74.9254 201.633 74.5224 202.432C74.1194 203.231 73.9448 204.126 74.0178 205.017V205.519L69.9359 200.83Z" fill="#7209B7" fill-opacity="0.3"/>
<path d="M195.035 283.336L192.718 281.999L189.908 280.379L89.1957 222.609C88.2719 219.481 88.5611 216.121 90.0056 213.197C92.0222 208.694 95.926 205.098 99.1656 204.928L199.797 262.691L205.15 265.761C201.571 263.963 191.471 281.481 195.035 283.336Z" fill="#37474F"/>
<path d="M186.182 278.29L180.999 275.309C179.468 274.499 180.343 270.733 182.133 266.846C184.506 261.679 189.163 256.673 191.196 257.751L195.018 259.945L196.371 260.755C194.338 259.678 189.673 264.675 187.308 269.851C185.599 273.576 184.724 277.196 186.028 278.185C186.069 278.233 186.122 278.269 186.182 278.29Z" fill="#EBEBEB"/>
<path d="M184.894 277.537C181.339 275.65 191.52 258.099 195.083 259.994L200.275 262.958C196.719 261.079 186.506 278.614 190.094 280.501L184.894 277.537Z" fill="#7209B7" fill-opacity="0.3"/>
<path d="M195.035 283.336L189.908 280.404C186.401 278.574 196.088 261.565 199.797 262.691C199.871 262.705 199.943 262.733 200.007 262.772L205.15 265.761C201.571 263.963 191.471 281.481 195.035 283.336Z" fill="#EBEBEB"/>
<path opacity="0.15" d="M69.8063 199.874L70.762 199.38L91.358 210.646L197.861 271.762C198.064 271.446 198.226 271.422 198.355 271.64C195.326 276.362 193.042 282.307 195.034 283.344L192.718 282.007L189.908 280.388L89.1955 222.617L69.944 200.814C69.825 200.692 69.7477 200.535 69.723 200.366C69.6983 200.198 69.7274 200.026 69.8063 199.874Z" fill="black"/>
<path d="M216.797 295.784L195.035 283.335C193.512 282.525 194.354 278.816 196.112 274.953C198.469 269.777 203.109 264.724 205.15 265.76L227.002 278.241C231.343 280.744 227.35 290.155 222.515 294.366C220.717 295.978 218.676 296.683 216.797 295.784Z" fill="#F28F8F"/>
<path opacity="0.1" d="M215.501 289.037C216.748 284.129 220.717 279.319 224.369 278.29C224.906 278.1 225.48 278.042 226.043 278.119C226.607 278.197 227.144 278.408 227.609 278.735C230.849 281.773 227.066 290.406 222.49 294.391C220.733 295.946 218.765 296.643 216.886 295.825C215.282 294.869 214.626 292.358 215.501 289.037Z" fill="black"/>
</svg>
