<svg width="201" height="48" viewBox="0 0 201 48" fill="none" xmlns="http://www.w3.org/2000/svg">
<path d="M20.0002 14C14.4801 14 10 18.4798 10 23.9997C10 29.5195 14.4801 33.9993 20.0002 33.9993C25.5203 33.9993 30.0004 29.5195 30.0004 23.9997C30.0004 18.4798 25.5203 14 20.0002 14ZM20.0002 31.9994C15.5801 31.9994 12 28.4195 12 23.9997C12 19.5798 15.5801 15.9999 20.0002 15.9999C24.4203 15.9999 28.0003 19.5798 28.0003 23.9997C28.0003 28.4195 24.4203 31.9994 20.0002 31.9994Z" fill="#797979"/>
<path d="M20.0002 28.9995C22.7617 28.9995 25.0003 26.761 25.0003 23.9997C25.0003 21.2383 22.7617 18.9998 20.0002 18.9998C17.2387 18.9998 15.0001 21.2383 15.0001 23.9997C15.0001 26.761 17.2387 28.9995 20.0002 28.9995Z" fill="#797979"/>
<path d="M41.76 29C41.6533 29 41.5627 28.968 41.488 28.904C41.424 28.8293 41.392 28.7387 41.392 28.632V18.184C41.392 18.0667 41.424 17.976 41.488 17.912C41.5627 17.8373 41.6533 17.8 41.76 17.8H42.56C42.688 17.8 42.784 17.832 42.848 17.896C42.912 17.96 42.9493 18.0133 42.96 18.056L46.352 24.52L49.76 18.056C49.7813 18.0133 49.8187 17.96 49.872 17.896C49.936 17.832 50.032 17.8 50.16 17.8H50.944C51.0613 17.8 51.152 17.8373 51.216 17.912C51.2907 17.976 51.328 18.0667 51.328 18.184V28.632C51.328 28.7387 51.2907 28.8293 51.216 28.904C51.152 28.968 51.0613 29 50.944 29H50.16C50.0533 29 49.9627 28.968 49.888 28.904C49.824 28.8293 49.792 28.7387 49.792 28.632V20.76L47.12 25.976C47.0773 26.0827 47.0133 26.168 46.928 26.232C46.8427 26.2853 46.736 26.312 46.608 26.312H46.112C45.9733 26.312 45.8613 26.2853 45.776 26.232C45.7013 26.168 45.6373 26.0827 45.584 25.976L42.912 20.76V28.632C42.912 28.7387 42.8747 28.8293 42.8 28.904C42.736 28.968 42.6507 29 42.544 29H41.76ZM56.9911 29.16C56.3085 29.16 55.7271 29.0107 55.2471 28.712C54.7778 28.4027 54.4205 27.976 54.1751 27.432C53.9298 26.888 53.8071 26.264 53.8071 25.56V21.048C53.8071 20.9413 53.8391 20.856 53.9031 20.792C53.9778 20.7173 54.0685 20.68 54.1751 20.68H54.9751C55.0818 20.68 55.1671 20.7173 55.2311 20.792C55.3058 20.856 55.3431 20.9413 55.3431 21.048V25.48C55.3431 27.0693 56.0365 27.864 57.4231 27.864C58.0845 27.864 58.6125 27.656 59.0071 27.24C59.4125 26.8133 59.6151 26.2267 59.6151 25.48V21.048C59.6151 20.9413 59.6471 20.856 59.7111 20.792C59.7858 20.7173 59.8765 20.68 59.9831 20.68H60.7671C60.8845 20.68 60.9751 20.7173 61.0391 20.792C61.1031 20.856 61.1351 20.9413 61.1351 21.048V28.632C61.1351 28.7387 61.1031 28.8293 61.0391 28.904C60.9751 28.968 60.8845 29 60.7671 29H60.0311C59.9245 29 59.8338 28.968 59.7591 28.904C59.6951 28.8293 59.6631 28.7387 59.6631 28.632V27.928C59.3751 28.3013 59.0231 28.6 58.6071 28.824C58.2018 29.048 57.6631 29.16 56.9911 29.16ZM63.8961 29C63.7895 29 63.6988 28.968 63.6241 28.904C63.5601 28.8293 63.5281 28.7387 63.5281 28.632V18.008C63.5281 17.9013 63.5601 17.816 63.6241 17.752C63.6988 17.6773 63.7895 17.64 63.8961 17.64H64.6481C64.7655 17.64 64.8561 17.6773 64.9201 17.752C64.9841 17.816 65.0161 17.9013 65.0161 18.008V28.632C65.0161 28.7387 64.9841 28.8293 64.9201 28.904C64.8561 28.968 64.7655 29 64.6481 29H63.8961ZM70.6508 29C70.0534 29 69.5681 28.888 69.1948 28.664C68.8214 28.4293 68.5494 28.104 68.3788 27.688C68.2081 27.2613 68.1228 26.76 68.1228 26.184V21.96H66.8748C66.7681 21.96 66.6774 21.928 66.6028 21.864C66.5388 21.7893 66.5068 21.6987 66.5068 21.592V21.048C66.5068 20.9413 66.5388 20.856 66.6028 20.792C66.6774 20.7173 66.7681 20.68 66.8748 20.68H68.1228V18.008C68.1228 17.9013 68.1548 17.816 68.2188 17.752C68.2934 17.6773 68.3841 17.64 68.4908 17.64H69.2428C69.3494 17.64 69.4348 17.6773 69.4988 17.752C69.5734 17.816 69.6108 17.9013 69.6108 18.008V20.68H71.5948C71.7014 20.68 71.7868 20.7173 71.8508 20.792C71.9254 20.856 71.9628 20.9413 71.9628 21.048V21.592C71.9628 21.6987 71.9254 21.7893 71.8508 21.864C71.7868 21.928 71.7014 21.96 71.5948 21.96H69.6108V26.072C69.6108 26.5733 69.6961 26.968 69.8668 27.256C70.0374 27.544 70.3414 27.688 70.7788 27.688H71.7548C71.8614 27.688 71.9468 27.7253 72.0108 27.8C72.0854 27.864 72.1228 27.9493 72.1228 28.056V28.632C72.1228 28.7387 72.0854 28.8293 72.0108 28.904C71.9468 28.968 71.8614 29 71.7548 29H70.6508ZM74.0208 29C73.9141 29 73.8234 28.968 73.7488 28.904C73.6848 28.8293 73.6528 28.7387 73.6528 28.632V21.048C73.6528 20.9413 73.6848 20.856 73.7488 20.792C73.8234 20.7173 73.9141 20.68 74.0208 20.68H74.7888C74.8954 20.68 74.9808 20.7173 75.0448 20.792C75.1088 20.856 75.1408 20.9413 75.1408 21.048V28.632C75.1408 28.7387 75.1088 28.8293 75.0448 28.904C74.9808 28.968 74.8954 29 74.7888 29H74.0208ZM73.8928 19.128C73.7861 19.128 73.6954 19.096 73.6208 19.032C73.5568 18.9573 73.5247 18.8667 73.5247 18.76V17.896C73.5247 17.7893 73.5568 17.704 73.6208 17.64C73.6954 17.5653 73.7861 17.528 73.8928 17.528H74.9008C75.0074 17.528 75.0928 17.5653 75.1568 17.64C75.2314 17.704 75.2688 17.7893 75.2688 17.896V18.76C75.2688 18.8667 75.2314 18.9573 75.1568 19.032C75.0928 19.096 75.0074 19.128 74.9008 19.128H73.8928ZM78.068 32.04C77.9613 32.04 77.8707 32.0027 77.796 31.928C77.732 31.864 77.7 31.7787 77.7 31.672V21.048C77.7 20.9413 77.732 20.856 77.796 20.792C77.8707 20.7173 77.9613 20.68 78.068 20.68H78.804C78.9107 20.68 78.996 20.7173 79.06 20.792C79.1347 20.856 79.172 20.9413 79.172 21.048V21.752C79.428 21.4 79.7693 21.1067 80.196 20.872C80.6227 20.6373 81.156 20.52 81.796 20.52C82.3933 20.52 82.9 20.6213 83.316 20.824C83.7427 21.0267 84.0893 21.304 84.356 21.656C84.6333 22.008 84.8413 22.408 84.98 22.856C85.1187 23.304 85.1933 23.784 85.204 24.296C85.2147 24.4667 85.22 24.648 85.22 24.84C85.22 25.032 85.2147 25.2133 85.204 25.384C85.1933 25.8853 85.1187 26.3653 84.98 26.824C84.8413 27.272 84.6333 27.672 84.356 28.024C84.0893 28.3653 83.7427 28.6427 83.316 28.856C82.9 29.0587 82.3933 29.16 81.796 29.16C81.1773 29.16 80.6547 29.048 80.228 28.824C79.812 28.5893 79.4707 28.3013 79.204 27.96V31.672C79.204 31.7787 79.172 31.864 79.108 31.928C79.044 32.0027 78.9533 32.04 78.836 32.04H78.068ZM81.46 27.864C82.0147 27.864 82.4467 27.7467 82.756 27.512C83.076 27.2667 83.3053 26.952 83.444 26.568C83.5827 26.1733 83.6627 25.752 83.684 25.304C83.6947 24.9947 83.6947 24.6853 83.684 24.376C83.6627 23.928 83.5827 23.512 83.444 23.128C83.3053 22.7333 83.076 22.4187 82.756 22.184C82.4467 21.9387 82.0147 21.816 81.46 21.816C80.9373 21.816 80.5107 21.9387 80.18 22.184C79.86 22.4293 79.62 22.744 79.46 23.128C79.3107 23.5013 79.2253 23.8853 79.204 24.28C79.1933 24.4507 79.188 24.6533 79.188 24.888C79.188 25.1227 79.1933 25.3307 79.204 25.512C79.2147 25.8853 79.3 26.2533 79.46 26.616C79.6307 26.9787 79.8813 27.2773 80.212 27.512C80.5427 27.7467 80.9587 27.864 81.46 27.864ZM87.5993 29C87.4926 29 87.4019 28.968 87.3273 28.904C87.2633 28.8293 87.2313 28.7387 87.2313 28.632V18.008C87.2313 17.9013 87.2633 17.816 87.3273 17.752C87.4019 17.6773 87.4926 17.64 87.5993 17.64H88.3513C88.4686 17.64 88.5593 17.6773 88.6233 17.752C88.6873 17.816 88.7193 17.9013 88.7193 18.008V28.632C88.7193 28.7387 88.6873 28.8293 88.6233 28.904C88.5593 28.968 88.4686 29 88.3513 29H87.5993ZM94.4179 29.16C93.3192 29.16 92.4445 28.824 91.7939 28.152C91.1432 27.4693 90.7859 26.5413 90.7219 25.368C90.7112 25.2293 90.7059 25.0533 90.7059 24.84C90.7059 24.616 90.7112 24.4347 90.7219 24.296C90.7645 23.5387 90.9405 22.8773 91.2499 22.312C91.5592 21.736 91.9805 21.2933 92.5139 20.984C93.0579 20.6747 93.6925 20.52 94.4179 20.52C95.2285 20.52 95.9059 20.6907 96.4499 21.032C97.0045 21.3733 97.4259 21.8587 97.7139 22.488C98.0019 23.1173 98.1459 23.8533 98.1459 24.696V24.968C98.1459 25.0853 98.1085 25.176 98.0339 25.24C97.9699 25.304 97.8845 25.336 97.7779 25.336H92.2419C92.2419 25.3467 92.2419 25.368 92.2419 25.4C92.2419 25.432 92.2419 25.4587 92.2419 25.48C92.2632 25.9173 92.3592 26.328 92.5299 26.712C92.7005 27.0853 92.9459 27.3893 93.2659 27.624C93.5859 27.8587 93.9699 27.976 94.4179 27.976C94.8019 27.976 95.1219 27.9173 95.3779 27.8C95.6339 27.6827 95.8419 27.5547 96.0019 27.416C96.1619 27.2667 96.2685 27.1547 96.3219 27.08C96.4179 26.9413 96.4925 26.8613 96.5459 26.84C96.5992 26.808 96.6845 26.792 96.8019 26.792H97.5699C97.6765 26.792 97.7619 26.824 97.8259 26.888C97.9005 26.9413 97.9325 27.0213 97.9219 27.128C97.9112 27.288 97.8259 27.4853 97.6659 27.72C97.5059 27.944 97.2765 28.168 96.9779 28.392C96.6792 28.616 96.3165 28.8027 95.8899 28.952C95.4632 29.0907 94.9725 29.16 94.4179 29.16ZM92.2419 24.232H96.6259V24.184C96.6259 23.704 96.5352 23.2773 96.3539 22.904C96.1832 22.5307 95.9325 22.2373 95.6019 22.024C95.2712 21.8 94.8765 21.688 94.4179 21.688C93.9592 21.688 93.5645 21.8 93.2339 22.024C92.9139 22.2373 92.6685 22.5307 92.4979 22.904C92.3272 23.2773 92.2419 23.704 92.2419 24.184V24.232ZM107.341 29.16C106.584 29.16 105.928 29.016 105.373 28.728C104.829 28.4293 104.408 28.008 104.109 27.464C103.81 26.9093 103.65 26.248 103.629 25.48C103.618 25.32 103.613 25.1067 103.613 24.84C103.613 24.5733 103.618 24.36 103.629 24.2C103.65 23.432 103.81 22.776 104.109 22.232C104.408 21.6773 104.829 21.256 105.373 20.968C105.928 20.6693 106.584 20.52 107.341 20.52C107.96 20.52 108.488 20.6053 108.925 20.776C109.373 20.9467 109.741 21.1653 110.029 21.432C110.317 21.6987 110.53 21.9867 110.669 22.296C110.818 22.6053 110.898 22.8987 110.909 23.176C110.92 23.2827 110.888 23.368 110.813 23.432C110.738 23.496 110.648 23.528 110.541 23.528H109.773C109.666 23.528 109.586 23.5067 109.533 23.464C109.48 23.4107 109.426 23.3253 109.373 23.208C109.181 22.6853 108.92 22.3173 108.589 22.104C108.258 21.8907 107.848 21.784 107.357 21.784C106.717 21.784 106.194 21.9813 105.789 22.376C105.394 22.7707 105.181 23.4053 105.149 24.28C105.138 24.664 105.138 25.0373 105.149 25.4C105.181 26.2853 105.394 26.9253 105.789 27.32C106.194 27.704 106.717 27.896 107.357 27.896C107.848 27.896 108.258 27.7893 108.589 27.576C108.92 27.3627 109.181 26.9947 109.373 26.472C109.426 26.3547 109.48 26.2747 109.533 26.232C109.586 26.1787 109.666 26.152 109.773 26.152H110.541C110.648 26.152 110.738 26.184 110.813 26.248C110.888 26.312 110.92 26.3973 110.909 26.504C110.898 26.728 110.85 26.9573 110.765 27.192C110.68 27.4267 110.541 27.6667 110.349 27.912C110.168 28.1467 109.938 28.36 109.661 28.552C109.384 28.7333 109.048 28.8827 108.653 29C108.269 29.1067 107.832 29.16 107.341 29.16ZM113.193 29C113.086 29 112.996 28.968 112.921 28.904C112.857 28.8293 112.825 28.7387 112.825 28.632V18.008C112.825 17.9013 112.857 17.816 112.921 17.752C112.996 17.6773 113.086 17.64 113.193 17.64H113.993C114.11 17.64 114.201 17.6773 114.265 17.752C114.329 17.816 114.361 17.9013 114.361 18.008V21.736C114.649 21.3733 115.001 21.08 115.417 20.856C115.833 20.632 116.361 20.52 117.001 20.52C117.694 20.52 118.281 20.6747 118.761 20.984C119.252 21.2827 119.62 21.704 119.865 22.248C120.121 22.7813 120.249 23.4053 120.249 24.12V28.632C120.249 28.7387 120.217 28.8293 120.153 28.904C120.089 28.968 119.998 29 119.881 29H119.081C118.974 29 118.884 28.968 118.809 28.904C118.745 28.8293 118.713 28.7387 118.713 28.632V24.2C118.713 23.4533 118.532 22.872 118.169 22.456C117.806 22.0293 117.273 21.816 116.569 21.816C115.908 21.816 115.374 22.0293 114.969 22.456C114.564 22.872 114.361 23.4533 114.361 24.2V28.632C114.361 28.7387 114.329 28.8293 114.265 28.904C114.201 28.968 114.11 29 113.993 29H113.193ZM125.967 29.16C125.156 29.16 124.479 29.0053 123.935 28.696C123.391 28.3867 122.975 27.96 122.687 27.416C122.399 26.8613 122.239 26.232 122.207 25.528C122.196 25.3467 122.191 25.1173 122.191 24.84C122.191 24.552 122.196 24.3227 122.207 24.152C122.239 23.4373 122.399 22.808 122.687 22.264C122.986 21.72 123.407 21.2933 123.951 20.984C124.495 20.6747 125.167 20.52 125.967 20.52C126.767 20.52 127.439 20.6747 127.983 20.984C128.527 21.2933 128.943 21.72 129.231 22.264C129.53 22.808 129.695 23.4373 129.727 24.152C129.738 24.3227 129.743 24.552 129.743 24.84C129.743 25.1173 129.738 25.3467 129.727 25.528C129.695 26.232 129.535 26.8613 129.247 27.416C128.959 27.96 128.543 28.3867 127.999 28.696C127.455 29.0053 126.778 29.16 125.967 29.16ZM125.967 27.928C126.628 27.928 127.156 27.72 127.551 27.304C127.946 26.8773 128.159 26.2587 128.191 25.448C128.202 25.288 128.207 25.0853 128.207 24.84C128.207 24.5947 128.202 24.392 128.191 24.232C128.159 23.4213 127.946 22.808 127.551 22.392C127.156 21.9653 126.628 21.752 125.967 21.752C125.306 21.752 124.772 21.9653 124.367 22.392C123.972 22.808 123.764 23.4213 123.743 24.232C123.732 24.392 123.727 24.5947 123.727 24.84C123.727 25.0853 123.732 25.288 123.743 25.448C123.764 26.2587 123.972 26.8773 124.367 27.304C124.772 27.72 125.306 27.928 125.967 27.928ZM132.115 29C132.008 29 131.917 28.968 131.843 28.904C131.779 28.8293 131.747 28.7387 131.747 28.632V21.048C131.747 20.9413 131.779 20.856 131.843 20.792C131.917 20.7173 132.008 20.68 132.115 20.68H132.883C132.989 20.68 133.075 20.7173 133.139 20.792C133.203 20.856 133.235 20.9413 133.235 21.048V28.632C133.235 28.7387 133.203 28.8293 133.139 28.904C133.075 28.968 132.989 29 132.883 29H132.115ZM131.987 19.128C131.88 19.128 131.789 19.096 131.715 19.032C131.651 18.9573 131.618 18.8667 131.618 18.76V17.896C131.618 17.7893 131.651 17.704 131.715 17.64C131.789 17.5653 131.88 17.528 131.987 17.528H132.995C133.101 17.528 133.187 17.5653 133.251 17.64C133.325 17.704 133.363 17.7893 133.363 17.896V18.76C133.363 18.8667 133.325 18.9573 133.251 19.032C133.187 19.096 133.101 19.128 132.995 19.128H131.987ZM139.013 29.16C138.255 29.16 137.599 29.016 137.045 28.728C136.501 28.4293 136.079 28.008 135.781 27.464C135.482 26.9093 135.322 26.248 135.301 25.48C135.29 25.32 135.285 25.1067 135.285 24.84C135.285 24.5733 135.29 24.36 135.301 24.2C135.322 23.432 135.482 22.776 135.781 22.232C136.079 21.6773 136.501 21.256 137.045 20.968C137.599 20.6693 138.255 20.52 139.013 20.52C139.631 20.52 140.159 20.6053 140.597 20.776C141.045 20.9467 141.413 21.1653 141.701 21.432C141.989 21.6987 142.202 21.9867 142.341 22.296C142.49 22.6053 142.57 22.8987 142.581 23.176C142.591 23.2827 142.559 23.368 142.485 23.432C142.41 23.496 142.319 23.528 142.213 23.528H141.445C141.338 23.528 141.258 23.5067 141.205 23.464C141.151 23.4107 141.098 23.3253 141.045 23.208C140.853 22.6853 140.591 22.3173 140.261 22.104C139.93 21.8907 139.519 21.784 139.029 21.784C138.389 21.784 137.866 21.9813 137.461 22.376C137.066 22.7707 136.853 23.4053 136.821 24.28C136.81 24.664 136.81 25.0373 136.821 25.4C136.853 26.2853 137.066 26.9253 137.461 27.32C137.866 27.704 138.389 27.896 139.029 27.896C139.519 27.896 139.93 27.7893 140.261 27.576C140.591 27.3627 140.853 26.9947 141.045 26.472C141.098 26.3547 141.151 26.2747 141.205 26.232C141.258 26.1787 141.338 26.152 141.445 26.152H142.213C142.319 26.152 142.41 26.184 142.485 26.248C142.559 26.312 142.591 26.3973 142.581 26.504C142.57 26.728 142.522 26.9573 142.437 27.192C142.351 27.4267 142.213 27.6667 142.021 27.912C141.839 28.1467 141.61 28.36 141.333 28.552C141.055 28.7333 140.719 28.8827 140.325 29C139.941 29.1067 139.503 29.16 139.013 29.16ZM147.793 29.16C146.694 29.16 145.82 28.824 145.169 28.152C144.518 27.4693 144.161 26.5413 144.097 25.368C144.086 25.2293 144.081 25.0533 144.081 24.84C144.081 24.616 144.086 24.4347 144.097 24.296C144.14 23.5387 144.316 22.8773 144.625 22.312C144.934 21.736 145.356 21.2933 145.889 20.984C146.433 20.6747 147.068 20.52 147.793 20.52C148.604 20.52 149.281 20.6907 149.825 21.032C150.38 21.3733 150.801 21.8587 151.089 22.488C151.377 23.1173 151.521 23.8533 151.521 24.696V24.968C151.521 25.0853 151.484 25.176 151.409 25.24C151.345 25.304 151.26 25.336 151.153 25.336H145.617C145.617 25.3467 145.617 25.368 145.617 25.4C145.617 25.432 145.617 25.4587 145.617 25.48C145.638 25.9173 145.734 26.328 145.905 26.712C146.076 27.0853 146.321 27.3893 146.641 27.624C146.961 27.8587 147.345 27.976 147.793 27.976C148.177 27.976 148.497 27.9173 148.753 27.8C149.009 27.6827 149.217 27.5547 149.377 27.416C149.537 27.2667 149.644 27.1547 149.697 27.08C149.793 26.9413 149.868 26.8613 149.921 26.84C149.974 26.808 150.06 26.792 150.177 26.792H150.945C151.052 26.792 151.137 26.824 151.201 26.888C151.276 26.9413 151.308 27.0213 151.297 27.128C151.286 27.288 151.201 27.4853 151.041 27.72C150.881 27.944 150.652 28.168 150.353 28.392C150.054 28.616 149.692 28.8027 149.265 28.952C148.838 29.0907 148.348 29.16 147.793 29.16ZM145.617 24.232H150.001V24.184C150.001 23.704 149.91 23.2773 149.729 22.904C149.558 22.5307 149.308 22.2373 148.977 22.024C148.646 21.8 148.252 21.688 147.793 21.688C147.334 21.688 146.94 21.8 146.609 22.024C146.289 22.2373 146.044 22.5307 145.873 22.904C145.702 23.2773 145.617 23.704 145.617 24.184V24.232Z" fill="black" fill-opacity="0.87"/>
<path d="M176 22L181 27L186 22H176Z" fill="#797979"/>
<rect x="0.5" y="0.5" width="200" height="47" rx="3.5" stroke="#DFDFDF"/>
</svg>
