<svg width="48" height="48" viewBox="0 0 48 48" fill="none" xmlns="http://www.w3.org/2000/svg">
<path fill-rule="evenodd" clip-rule="evenodd" d="M16.0934 20.4563C16.0934 19.6409 16.7337 18.9567 17.6178 18.9552C18.502 18.9537 19.0731 18.9567 19.0731 18.9567C19.0731 18.9567 19.0351 18.0853 19.0351 17.3922C19.0351 16.6989 19.6448 16.0052 20.5295 16.0052C21.4142 16.0052 29.6164 15.9797 30.4482 16.0414C31.28 16.1031 31.942 16.6263 31.942 17.4678C31.942 18.3093 31.9367 26.6531 31.9367 27.4259C31.9367 28.1987 31.2435 28.9008 30.384 28.9105C29.5245 28.9203 28.942 28.9007 28.942 28.9007C28.942 28.9007 28.9736 29.877 28.9736 30.4766C28.9736 31.0762 28.2764 31.9469 27.4584 31.9469C26.6404 31.9469 18.3407 32 17.5487 32C16.7568 32 16.0259 31.3032 16.0597 30.4346C16.0935 29.566 16.0934 21.2716 16.0934 20.4563ZM20.6035 17.6669L20.5968 27.2788C20.5968 27.3862 20.6843 27.4737 20.7925 27.4731L30.149 27.4232C30.201 27.4229 30.2508 27.4021 30.2875 27.3652C30.3241 27.3283 30.3447 27.2784 30.3446 27.2264L30.3383 17.7007C30.3383 17.6486 30.3175 17.5986 30.2806 17.5618C30.2437 17.5249 30.1937 17.5042 30.1415 17.5042L20.8003 17.4723C20.7745 17.472 20.749 17.4769 20.7251 17.4865C20.7013 17.4962 20.6796 17.5105 20.6613 17.5286C20.643 17.5467 20.6285 17.5682 20.6185 17.592C20.6086 17.6157 20.6035 17.6412 20.6035 17.6669ZM17.607 20.8548L17.6967 30.2789C17.6973 30.3308 17.7185 30.3804 17.7556 30.4167C17.7926 30.4531 17.8426 30.4733 17.8945 30.473L27.1109 30.403C27.1623 30.4027 27.213 30.3922 27.2603 30.3722C27.3076 30.3522 27.3505 30.3231 27.3865 30.2864C27.4225 30.2498 27.4508 30.2064 27.47 30.1587C27.4891 30.1111 27.4986 30.0601 27.498 30.0088L27.4846 28.9183C27.4846 28.9183 21.3278 28.9749 20.5272 28.9749C19.7265 28.9749 19.0155 28.217 19.0155 27.3641C19.0155 26.5113 19.0731 20.6373 19.0731 20.6373C19.0741 20.5295 18.9875 20.4424 18.8796 20.4439L17.9957 20.4566C17.8914 20.458 17.7919 20.5007 17.7191 20.5754C17.6462 20.65 17.6059 20.7505 17.607 20.8548Z" fill="#545454"/>
</svg>
