<svg width="1240" height="100" viewBox="0 0 1240 100" fill="none" xmlns="http://www.w3.org/2000/svg">
<rect width="1240" height="100" rx="5" fill="#10B981"/>
<g clip-path="url(#clip0_1029_15767)">
<path d="M33.9998 58.3332C38.6022 58.3332 42.3332 54.6022 42.3332 49.9998C42.3332 45.3975 38.6022 41.6665 33.9998 41.6665C29.3975 41.6665 25.6665 45.3975 25.6665 49.9998C25.6665 54.6022 29.3975 58.3332 33.9998 58.3332Z" stroke="white" stroke-width="2" stroke-linecap="round" stroke-linejoin="round"/>
<path d="M34 53.3333V50" stroke="white" stroke-width="2" stroke-linecap="round" stroke-linejoin="round"/>
<path d="M34 46.6665H34.0083" stroke="white" stroke-width="2" stroke-linecap="round" stroke-linejoin="round"/>
</g>
<path d="M62.24 57.2C61.08 57.2 60.1067 57.0267 59.32 56.68C58.5333 56.32 57.9267 55.86 57.5 55.3C57.0867 54.7267 56.8667 54.12 56.84 53.48C56.84 53.3733 56.88 53.28 56.96 53.2C57.0533 53.1067 57.16 53.06 57.28 53.06H58.3C58.46 53.06 58.58 53.1 58.66 53.18C58.74 53.26 58.7933 53.3533 58.82 53.46C58.8867 53.78 59.0467 54.1 59.3 54.42C59.5667 54.7267 59.9333 54.9867 60.4 55.2C60.88 55.4 61.4933 55.5 62.24 55.5C63.3867 55.5 64.2267 55.3 64.76 54.9C65.3067 54.4867 65.58 53.94 65.58 53.26C65.58 52.7933 65.4333 52.42 65.14 52.14C64.86 51.8467 64.4267 51.5867 63.84 51.36C63.2533 51.1333 62.4933 50.8867 61.56 50.62C60.5867 50.34 59.78 50.0333 59.14 49.7C58.5 49.3667 58.02 48.9533 57.7 48.46C57.3933 47.9667 57.24 47.34 57.24 46.58C57.24 45.86 57.4333 45.22 57.82 44.66C58.2067 44.0867 58.76 43.6333 59.48 43.3C60.2133 42.9667 61.1 42.8 62.14 42.8C62.9667 42.8 63.6867 42.9133 64.3 43.14C64.9267 43.3533 65.4467 43.6467 65.86 44.02C66.2733 44.38 66.5867 44.7733 66.8 45.2C67.0133 45.6133 67.1267 46.02 67.14 46.42C67.14 46.5133 67.1067 46.6067 67.04 46.7C66.9733 46.78 66.8667 46.82 66.72 46.82H65.66C65.5667 46.82 65.4667 46.7933 65.36 46.74C65.2667 46.6867 65.1933 46.5867 65.14 46.44C65.06 45.8933 64.7533 45.4333 64.22 45.06C63.6867 44.6867 62.9933 44.5 62.14 44.5C61.2733 44.5 60.5667 44.6667 60.02 45C59.4867 45.3333 59.22 45.8533 59.22 46.56C59.22 47.0133 59.3467 47.3933 59.6 47.7C59.8533 47.9933 60.2533 48.2533 60.8 48.48C61.3467 48.7067 62.06 48.9467 62.94 49.2C64.0067 49.4933 64.88 49.8067 65.56 50.14C66.24 50.46 66.74 50.8667 67.06 51.36C67.3933 51.84 67.56 52.46 67.56 53.22C67.56 54.06 67.34 54.78 66.9 55.38C66.46 55.9667 65.84 56.42 65.04 56.74C64.2533 57.0467 63.32 57.2 62.24 57.2ZM74.1014 57.2C73.2481 57.2 72.5214 57.0133 71.9214 56.64C71.3347 56.2533 70.8881 55.72 70.5814 55.04C70.2747 54.36 70.1214 53.58 70.1214 52.7V47.06C70.1214 46.9267 70.1614 46.82 70.2414 46.74C70.3347 46.6467 70.4481 46.6 70.5814 46.6H71.5814C71.7147 46.6 71.8214 46.6467 71.9014 46.74C71.9947 46.82 72.0414 46.9267 72.0414 47.06V52.6C72.0414 54.5867 72.9081 55.58 74.6414 55.58C75.4681 55.58 76.1281 55.32 76.6214 54.8C77.1281 54.2667 77.3814 53.5333 77.3814 52.6V47.06C77.3814 46.9267 77.4214 46.82 77.5014 46.74C77.5947 46.6467 77.7081 46.6 77.8414 46.6H78.8214C78.9681 46.6 79.0814 46.6467 79.1614 46.74C79.2414 46.82 79.2814 46.9267 79.2814 47.06V56.54C79.2814 56.6733 79.2414 56.7867 79.1614 56.88C79.0814 56.96 78.9681 57 78.8214 57H77.9014C77.7681 57 77.6547 56.96 77.5614 56.88C77.4814 56.7867 77.4414 56.6733 77.4414 56.54V55.66C77.0814 56.1267 76.6414 56.5 76.1214 56.78C75.6147 57.06 74.9414 57.2 74.1014 57.2ZM86.7527 57.2C85.806 57.2 84.986 57.02 84.2927 56.66C83.6127 56.2867 83.086 55.76 82.7127 55.08C82.3393 54.3867 82.1393 53.56 82.1127 52.6C82.0993 52.4 82.0927 52.1333 82.0927 51.8C82.0927 51.4667 82.0993 51.2 82.1127 51C82.1393 50.04 82.3393 49.22 82.7127 48.54C83.086 47.8467 83.6127 47.32 84.2927 46.96C84.986 46.5867 85.806 46.4 86.7527 46.4C87.526 46.4 88.186 46.5067 88.7327 46.72C89.2927 46.9333 89.7527 47.2067 90.1127 47.54C90.4727 47.8733 90.7393 48.2333 90.9127 48.62C91.0993 49.0067 91.1993 49.3733 91.2127 49.72C91.226 49.8533 91.186 49.96 91.0927 50.04C90.9993 50.12 90.886 50.16 90.7527 50.16H89.7927C89.6593 50.16 89.5593 50.1333 89.4927 50.08C89.426 50.0133 89.3593 49.9067 89.2927 49.76C89.0527 49.1067 88.726 48.6467 88.3127 48.38C87.8993 48.1133 87.386 47.98 86.7727 47.98C85.9727 47.98 85.3193 48.2267 84.8127 48.72C84.3193 49.2133 84.0527 50.0067 84.0127 51.1C83.9993 51.58 83.9993 52.0467 84.0127 52.5C84.0527 53.6067 84.3193 54.4067 84.8127 54.9C85.3193 55.38 85.9727 55.62 86.7727 55.62C87.386 55.62 87.8993 55.4867 88.3127 55.22C88.726 54.9533 89.0527 54.4933 89.2927 53.84C89.3593 53.6933 89.426 53.5933 89.4927 53.54C89.5593 53.4733 89.6593 53.44 89.7927 53.44H90.7527C90.886 53.44 90.9993 53.48 91.0927 53.56C91.186 53.64 91.226 53.7467 91.2127 53.88C91.1993 54.16 91.1393 54.4467 91.0327 54.74C90.926 55.0333 90.7527 55.3333 90.5127 55.64C90.286 55.9333 89.9993 56.2 89.6527 56.44C89.306 56.6667 88.886 56.8533 88.3927 57C87.9127 57.1333 87.366 57.2 86.7527 57.2ZM98.0878 57.2C97.1411 57.2 96.3211 57.02 95.6278 56.66C94.9478 56.2867 94.4211 55.76 94.0478 55.08C93.6745 54.3867 93.4745 53.56 93.4478 52.6C93.4345 52.4 93.4278 52.1333 93.4278 51.8C93.4278 51.4667 93.4345 51.2 93.4478 51C93.4745 50.04 93.6745 49.22 94.0478 48.54C94.4211 47.8467 94.9478 47.32 95.6278 46.96C96.3211 46.5867 97.1411 46.4 98.0878 46.4C98.8611 46.4 99.5211 46.5067 100.068 46.72C100.628 46.9333 101.088 47.2067 101.448 47.54C101.808 47.8733 102.074 48.2333 102.248 48.62C102.434 49.0067 102.534 49.3733 102.548 49.72C102.561 49.8533 102.521 49.96 102.428 50.04C102.334 50.12 102.221 50.16 102.088 50.16H101.128C100.994 50.16 100.894 50.1333 100.828 50.08C100.761 50.0133 100.694 49.9067 100.628 49.76C100.388 49.1067 100.061 48.6467 99.6478 48.38C99.2345 48.1133 98.7211 47.98 98.1078 47.98C97.3078 47.98 96.6545 48.2267 96.1478 48.72C95.6545 49.2133 95.3878 50.0067 95.3478 51.1C95.3345 51.58 95.3345 52.0467 95.3478 52.5C95.3878 53.6067 95.6545 54.4067 96.1478 54.9C96.6545 55.38 97.3078 55.62 98.1078 55.62C98.7211 55.62 99.2345 55.4867 99.6478 55.22C100.061 54.9533 100.388 54.4933 100.628 53.84C100.694 53.6933 100.761 53.5933 100.828 53.54C100.894 53.4733 100.994 53.44 101.128 53.44H102.088C102.221 53.44 102.334 53.48 102.428 53.56C102.521 53.64 102.561 53.7467 102.548 53.88C102.534 54.16 102.474 54.4467 102.368 54.74C102.261 55.0333 102.088 55.3333 101.848 55.64C101.621 55.9333 101.334 56.2 100.988 56.44C100.641 56.6667 100.221 56.8533 99.7278 57C99.2478 57.1333 98.7011 57.2 98.0878 57.2ZM109.363 57.2C107.99 57.2 106.896 56.78 106.083 55.94C105.27 55.0867 104.823 53.9267 104.743 52.46C104.73 52.2867 104.723 52.0667 104.723 51.8C104.723 51.52 104.73 51.2933 104.743 51.12C104.796 50.1733 105.016 49.3467 105.403 48.64C105.79 47.92 106.316 47.3667 106.983 46.98C107.663 46.5933 108.456 46.4 109.363 46.4C110.376 46.4 111.223 46.6133 111.903 47.04C112.596 47.4667 113.123 48.0733 113.483 48.86C113.843 49.6467 114.023 50.5667 114.023 51.62V51.96C114.023 52.1067 113.976 52.22 113.883 52.3C113.803 52.38 113.696 52.42 113.563 52.42H106.643C106.643 52.4333 106.643 52.46 106.643 52.5C106.643 52.54 106.643 52.5733 106.643 52.6C106.67 53.1467 106.79 53.66 107.003 54.14C107.216 54.6067 107.523 54.9867 107.923 55.28C108.323 55.5733 108.803 55.72 109.363 55.72C109.843 55.72 110.243 55.6467 110.563 55.5C110.883 55.3533 111.143 55.1933 111.343 55.02C111.543 54.8333 111.676 54.6933 111.743 54.6C111.863 54.4267 111.956 54.3267 112.023 54.3C112.09 54.26 112.196 54.24 112.343 54.24H113.303C113.436 54.24 113.543 54.28 113.623 54.36C113.716 54.4267 113.756 54.5267 113.743 54.66C113.73 54.86 113.623 55.1067 113.423 55.4C113.223 55.68 112.936 55.96 112.563 56.24C112.19 56.52 111.736 56.7533 111.203 56.94C110.67 57.1133 110.056 57.2 109.363 57.2ZM106.643 51.04H112.123V50.98C112.123 50.38 112.01 49.8467 111.783 49.38C111.57 48.9133 111.256 48.5467 110.843 48.28C110.43 48 109.936 47.86 109.363 47.86C108.79 47.86 108.296 48 107.883 48.28C107.483 48.5467 107.176 48.9133 106.963 49.38C106.75 49.8467 106.643 50.38 106.643 50.98V51.04ZM120.314 57.2C119.568 57.2 118.928 57.1067 118.394 56.92C117.861 56.7333 117.428 56.5067 117.094 56.24C116.761 55.9733 116.508 55.7067 116.334 55.44C116.174 55.1733 116.088 54.96 116.074 54.8C116.061 54.6533 116.108 54.54 116.214 54.46C116.321 54.38 116.428 54.34 116.534 54.34H117.414C117.494 54.34 117.554 54.3533 117.594 54.38C117.648 54.3933 117.714 54.4467 117.794 54.54C117.968 54.7267 118.161 54.9133 118.374 55.1C118.588 55.2867 118.848 55.44 119.154 55.56C119.474 55.68 119.868 55.74 120.334 55.74C121.014 55.74 121.574 55.6133 122.014 55.36C122.454 55.0933 122.674 54.7067 122.674 54.2C122.674 53.8667 122.581 53.6 122.394 53.4C122.221 53.2 121.901 53.02 121.434 52.86C120.981 52.7 120.354 52.5333 119.554 52.36C118.754 52.1733 118.121 51.9467 117.654 51.68C117.188 51.4 116.854 51.0733 116.654 50.7C116.454 50.3133 116.354 49.88 116.354 49.4C116.354 48.9067 116.501 48.4333 116.794 47.98C117.088 47.5133 117.514 47.1333 118.074 46.84C118.648 46.5467 119.361 46.4 120.214 46.4C120.908 46.4 121.501 46.4867 121.994 46.66C122.488 46.8333 122.894 47.0533 123.214 47.32C123.534 47.5733 123.774 47.8267 123.934 48.08C124.094 48.3333 124.181 48.5467 124.194 48.72C124.208 48.8533 124.168 48.9667 124.074 49.06C123.981 49.14 123.874 49.18 123.754 49.18H122.914C122.821 49.18 122.741 49.16 122.674 49.12C122.621 49.08 122.568 49.0333 122.514 48.98C122.381 48.8067 122.221 48.6333 122.034 48.46C121.861 48.2867 121.628 48.1467 121.334 48.04C121.054 47.92 120.681 47.86 120.214 47.86C119.548 47.86 119.048 48 118.714 48.28C118.381 48.56 118.214 48.9133 118.214 49.34C118.214 49.5933 118.288 49.82 118.434 50.02C118.581 50.22 118.861 50.4 119.274 50.56C119.688 50.72 120.301 50.8933 121.114 51.08C121.994 51.2533 122.688 51.4867 123.194 51.78C123.701 52.0733 124.061 52.4133 124.274 52.8C124.488 53.1867 124.594 53.6333 124.594 54.14C124.594 54.7 124.428 55.2133 124.094 55.68C123.774 56.1467 123.294 56.52 122.654 56.8C122.028 57.0667 121.248 57.2 120.314 57.2ZM130.81 57.2C130.063 57.2 129.423 57.1067 128.89 56.92C128.356 56.7333 127.923 56.5067 127.59 56.24C127.256 55.9733 127.003 55.7067 126.83 55.44C126.67 55.1733 126.583 54.96 126.57 54.8C126.556 54.6533 126.603 54.54 126.71 54.46C126.816 54.38 126.923 54.34 127.03 54.34H127.91C127.99 54.34 128.05 54.3533 128.09 54.38C128.143 54.3933 128.21 54.4467 128.29 54.54C128.463 54.7267 128.656 54.9133 128.87 55.1C129.083 55.2867 129.343 55.44 129.65 55.56C129.97 55.68 130.363 55.74 130.83 55.74C131.51 55.74 132.07 55.6133 132.51 55.36C132.95 55.0933 133.17 54.7067 133.17 54.2C133.17 53.8667 133.076 53.6 132.89 53.4C132.716 53.2 132.396 53.02 131.93 52.86C131.476 52.7 130.85 52.5333 130.05 52.36C129.25 52.1733 128.616 51.9467 128.15 51.68C127.683 51.4 127.35 51.0733 127.15 50.7C126.95 50.3133 126.85 49.88 126.85 49.4C126.85 48.9067 126.996 48.4333 127.29 47.98C127.583 47.5133 128.01 47.1333 128.57 46.84C129.143 46.5467 129.856 46.4 130.71 46.4C131.403 46.4 131.996 46.4867 132.49 46.66C132.983 46.8333 133.39 47.0533 133.71 47.32C134.03 47.5733 134.27 47.8267 134.43 48.08C134.59 48.3333 134.676 48.5467 134.69 48.72C134.703 48.8533 134.663 48.9667 134.57 49.06C134.476 49.14 134.37 49.18 134.25 49.18H133.41C133.316 49.18 133.236 49.16 133.17 49.12C133.116 49.08 133.063 49.0333 133.01 48.98C132.876 48.8067 132.716 48.6333 132.53 48.46C132.356 48.2867 132.123 48.1467 131.83 48.04C131.55 47.92 131.176 47.86 130.71 47.86C130.043 47.86 129.543 48 129.21 48.28C128.876 48.56 128.71 48.9133 128.71 49.34C128.71 49.5933 128.783 49.82 128.93 50.02C129.076 50.22 129.356 50.4 129.77 50.56C130.183 50.72 130.796 50.8933 131.61 51.08C132.49 51.2533 133.183 51.4867 133.69 51.78C134.196 52.0733 134.556 52.4133 134.77 52.8C134.983 53.1867 135.09 53.6333 135.09 54.14C135.09 54.7 134.923 55.2133 134.59 55.68C134.27 56.1467 133.79 56.52 133.15 56.8C132.523 57.0667 131.743 57.2 130.81 57.2ZM139.185 57C139.052 57 138.939 56.96 138.845 56.88C138.765 56.7867 138.725 56.6733 138.725 56.54V48.2H137.025C136.892 48.2 136.779 48.16 136.685 48.08C136.605 47.9867 136.565 47.8733 136.565 47.74V47.06C136.565 46.9267 136.605 46.82 136.685 46.74C136.779 46.6467 136.892 46.6 137.025 46.6H138.725V45.6C138.725 44.92 138.839 44.3267 139.065 43.82C139.292 43.3 139.652 42.9 140.145 42.62C140.652 42.34 141.325 42.2 142.165 42.2H143.365C143.499 42.2 143.605 42.2467 143.685 42.34C143.765 42.42 143.805 42.5267 143.805 42.66V43.34C143.805 43.4733 143.765 43.5867 143.685 43.68C143.605 43.76 143.499 43.8 143.365 43.8H142.205C141.579 43.8 141.152 43.9667 140.925 44.3C140.699 44.62 140.585 45.0867 140.585 45.7V46.6H143.165C143.299 46.6 143.405 46.6467 143.485 46.74C143.565 46.82 143.605 46.9267 143.605 47.06V47.74C143.605 47.8733 143.565 47.9867 143.485 48.08C143.405 48.16 143.299 48.2 143.165 48.2H140.585V56.54C140.585 56.6733 140.539 56.7867 140.445 56.88C140.365 56.96 140.259 57 140.125 57H139.185ZM149.561 57.2C148.707 57.2 147.981 57.0133 147.381 56.64C146.794 56.2533 146.347 55.72 146.041 55.04C145.734 54.36 145.581 53.58 145.581 52.7V47.06C145.581 46.9267 145.621 46.82 145.701 46.74C145.794 46.6467 145.907 46.6 146.041 46.6H147.041C147.174 46.6 147.281 46.6467 147.361 46.74C147.454 46.82 147.501 46.9267 147.501 47.06V52.6C147.501 54.5867 148.367 55.58 150.101 55.58C150.927 55.58 151.587 55.32 152.081 54.8C152.587 54.2667 152.841 53.5333 152.841 52.6V47.06C152.841 46.9267 152.881 46.82 152.961 46.74C153.054 46.6467 153.167 46.6 153.301 46.6H154.281C154.427 46.6 154.541 46.6467 154.621 46.74C154.701 46.82 154.741 46.9267 154.741 47.06V56.54C154.741 56.6733 154.701 56.7867 154.621 56.88C154.541 56.96 154.427 57 154.281 57H153.361C153.227 57 153.114 56.96 153.021 56.88C152.941 56.7867 152.901 56.6733 152.901 56.54V55.66C152.541 56.1267 152.101 56.5 151.581 56.78C151.074 57.06 150.401 57.2 149.561 57.2ZM158.492 57C158.359 57 158.245 56.96 158.152 56.88C158.072 56.7867 158.032 56.6733 158.032 56.54V43.26C158.032 43.1267 158.072 43.02 158.152 42.94C158.245 42.8467 158.359 42.8 158.492 42.8H159.432C159.579 42.8 159.692 42.8467 159.772 42.94C159.852 43.02 159.892 43.1267 159.892 43.26V56.54C159.892 56.6733 159.852 56.7867 159.772 56.88C159.692 56.96 159.579 57 159.432 57H158.492ZM163.655 57C163.522 57 163.409 56.96 163.315 56.88C163.235 56.7867 163.195 56.6733 163.195 56.54V43.26C163.195 43.1267 163.235 43.02 163.315 42.94C163.409 42.8467 163.522 42.8 163.655 42.8H164.595C164.742 42.8 164.855 42.8467 164.935 42.94C165.015 43.02 165.055 43.1267 165.055 43.26V56.54C165.055 56.6733 165.015 56.7867 164.935 56.88C164.855 56.96 164.742 57 164.595 57H163.655ZM170.159 60.8C170.052 60.8 169.959 60.76 169.879 60.68C169.799 60.6 169.759 60.5067 169.759 60.4C169.759 60.3467 169.765 60.2933 169.779 60.24C169.792 60.1867 169.819 60.12 169.859 60.04L171.399 56.38L167.579 47.36C167.512 47.2 167.479 47.0867 167.479 47.02C167.479 46.9 167.519 46.8 167.599 46.72C167.679 46.64 167.779 46.6 167.899 46.6H168.879C169.012 46.6 169.119 46.6333 169.199 46.7C169.279 46.7667 169.332 46.8467 169.359 46.94L172.399 54.22L175.519 46.94C175.559 46.8467 175.612 46.7667 175.679 46.7C175.759 46.6333 175.872 46.6 176.019 46.6H176.959C177.079 46.6 177.179 46.64 177.259 46.72C177.339 46.8 177.379 46.8933 177.379 47C177.379 47.0667 177.345 47.1867 177.279 47.36L171.599 60.46C171.559 60.5533 171.499 60.6333 171.419 60.7C171.352 60.7667 171.245 60.8 171.099 60.8H170.159ZM184.649 57C184.516 57 184.403 56.96 184.309 56.88C184.229 56.7867 184.189 56.6733 184.189 56.54V55.1C184.189 54.9667 184.229 54.86 184.309 54.78C184.403 54.6867 184.516 54.64 184.649 54.64H186.089C186.223 54.64 186.329 54.6867 186.409 54.78C186.503 54.86 186.549 54.9667 186.549 55.1V56.54C186.549 56.6733 186.503 56.7867 186.409 56.88C186.329 56.96 186.223 57 186.089 57H184.649ZM198.745 57C198.611 57 198.498 56.96 198.405 56.88C198.325 56.7867 198.285 56.6733 198.285 56.54V51.82L193.465 43.66C193.451 43.62 193.438 43.58 193.425 43.54C193.411 43.5 193.405 43.4533 193.405 43.4C193.405 43.2933 193.445 43.2 193.525 43.12C193.605 43.04 193.698 43 193.805 43H194.845C194.965 43 195.071 43.0333 195.165 43.1C195.258 43.1533 195.325 43.2333 195.365 43.34L199.265 49.82L203.165 43.34C203.231 43.2333 203.305 43.1533 203.385 43.1C203.478 43.0333 203.585 43 203.705 43H204.725C204.845 43 204.945 43.04 205.025 43.12C205.105 43.2 205.145 43.2933 205.145 43.4C205.145 43.4533 205.138 43.5 205.125 43.54C205.111 43.58 205.091 43.62 205.065 43.66L200.265 51.82V56.54C200.265 56.6733 200.218 56.7867 200.125 56.88C200.045 56.96 199.931 57 199.785 57H198.745ZM210.114 57.2C209.101 57.2 208.254 57.0067 207.574 56.62C206.894 56.2333 206.374 55.7 206.014 55.02C205.654 54.3267 205.454 53.54 205.414 52.66C205.401 52.4333 205.394 52.1467 205.394 51.8C205.394 51.44 205.401 51.1533 205.414 50.94C205.454 50.0467 205.654 49.26 206.014 48.58C206.388 47.9 206.914 47.3667 207.594 46.98C208.274 46.5933 209.114 46.4 210.114 46.4C211.114 46.4 211.954 46.5933 212.634 46.98C213.314 47.3667 213.834 47.9 214.194 48.58C214.568 49.26 214.774 50.0467 214.814 50.94C214.828 51.1533 214.834 51.44 214.834 51.8C214.834 52.1467 214.828 52.4333 214.814 52.66C214.774 53.54 214.574 54.3267 214.214 55.02C213.854 55.7 213.334 56.2333 212.654 56.62C211.974 57.0067 211.128 57.2 210.114 57.2ZM210.114 55.66C210.941 55.66 211.601 55.4 212.094 54.88C212.588 54.3467 212.854 53.5733 212.894 52.56C212.908 52.36 212.914 52.1067 212.914 51.8C212.914 51.4933 212.908 51.24 212.894 51.04C212.854 50.0267 212.588 49.26 212.094 48.74C211.601 48.2067 210.941 47.94 210.114 47.94C209.288 47.94 208.621 48.2067 208.114 48.74C207.621 49.26 207.361 50.0267 207.334 51.04C207.321 51.24 207.314 51.4933 207.314 51.8C207.314 52.1067 207.321 52.36 207.334 52.56C207.361 53.5733 207.621 54.3467 208.114 54.88C208.621 55.4 209.288 55.66 210.114 55.66ZM221.519 57.2C220.665 57.2 219.939 57.0133 219.339 56.64C218.752 56.2533 218.305 55.72 217.999 55.04C217.692 54.36 217.539 53.58 217.539 52.7V47.06C217.539 46.9267 217.579 46.82 217.659 46.74C217.752 46.6467 217.865 46.6 217.999 46.6H218.999C219.132 46.6 219.239 46.6467 219.319 46.74C219.412 46.82 219.459 46.9267 219.459 47.06V52.6C219.459 54.5867 220.325 55.58 222.059 55.58C222.885 55.58 223.545 55.32 224.039 54.8C224.545 54.2667 224.799 53.5333 224.799 52.6V47.06C224.799 46.9267 224.839 46.82 224.919 46.74C225.012 46.6467 225.125 46.6 225.259 46.6H226.239C226.385 46.6 226.499 46.6467 226.579 46.74C226.659 46.82 226.699 46.9267 226.699 47.06V56.54C226.699 56.6733 226.659 56.7867 226.579 56.88C226.499 56.96 226.385 57 226.239 57H225.319C225.185 57 225.072 56.96 224.979 56.88C224.899 56.7867 224.859 56.6733 224.859 56.54V55.66C224.499 56.1267 224.059 56.5 223.539 56.78C223.032 57.06 222.359 57.2 221.519 57.2ZM238.072 57.2C237.406 57.2 236.799 57.0667 236.252 56.8C235.706 56.5333 235.266 56.1733 234.932 55.72C234.599 55.2667 234.432 54.7533 234.432 54.18C234.432 53.26 234.806 52.5267 235.552 51.98C236.299 51.4333 237.272 51.0733 238.472 50.9L241.452 50.48V49.9C241.452 49.26 241.266 48.76 240.892 48.4C240.532 48.04 239.939 47.86 239.112 47.86C238.512 47.86 238.026 47.98 237.652 48.22C237.292 48.46 237.039 48.7667 236.892 49.14C236.812 49.34 236.672 49.44 236.472 49.44H235.572C235.426 49.44 235.312 49.4 235.232 49.32C235.166 49.2267 235.132 49.12 235.132 49C235.132 48.8 235.206 48.5533 235.352 48.26C235.512 47.9667 235.752 47.68 236.072 47.4C236.392 47.12 236.799 46.8867 237.292 46.7C237.799 46.5 238.412 46.4 239.132 46.4C239.932 46.4 240.606 46.5067 241.152 46.72C241.699 46.92 242.126 47.1933 242.432 47.54C242.752 47.8867 242.979 48.28 243.112 48.72C243.259 49.16 243.332 49.6067 243.332 50.06V56.54C243.332 56.6733 243.286 56.7867 243.192 56.88C243.112 56.96 243.006 57 242.872 57H241.952C241.806 57 241.692 56.96 241.612 56.88C241.532 56.7867 241.492 56.6733 241.492 56.54V55.68C241.319 55.92 241.086 56.16 240.792 56.4C240.499 56.6267 240.132 56.82 239.692 56.98C239.252 57.1267 238.712 57.2 238.072 57.2ZM238.492 55.7C239.039 55.7 239.539 55.5867 239.992 55.36C240.446 55.12 240.799 54.7533 241.052 54.26C241.319 53.7667 241.452 53.1467 241.452 52.4V51.84L239.132 52.18C238.186 52.3133 237.472 52.54 236.992 52.86C236.512 53.1667 236.272 53.56 236.272 54.04C236.272 54.4133 236.379 54.7267 236.592 54.98C236.819 55.22 237.099 55.4 237.432 55.52C237.779 55.64 238.132 55.7 238.492 55.7ZM246.967 57C246.834 57 246.721 56.96 246.627 56.88C246.547 56.7867 246.507 56.6733 246.507 56.54V47.08C246.507 46.9467 246.547 46.8333 246.627 46.74C246.721 46.6467 246.834 46.6 246.967 46.6H247.887C248.021 46.6 248.134 46.6467 248.227 46.74C248.321 46.8333 248.367 46.9467 248.367 47.08V47.96C248.634 47.5067 249.001 47.1667 249.467 46.94C249.934 46.7133 250.494 46.6 251.147 46.6H251.947C252.081 46.6 252.187 46.6467 252.267 46.74C252.347 46.82 252.387 46.9267 252.387 47.06V47.88C252.387 48.0133 252.347 48.12 252.267 48.2C252.187 48.28 252.081 48.32 251.947 48.32H250.747C250.027 48.32 249.461 48.5333 249.047 48.96C248.634 49.3733 248.427 49.94 248.427 50.66V56.54C248.427 56.6733 248.381 56.7867 248.287 56.88C248.194 56.96 248.081 57 247.947 57H246.967ZM258.35 57.2C256.976 57.2 255.883 56.78 255.07 55.94C254.256 55.0867 253.81 53.9267 253.73 52.46C253.716 52.2867 253.71 52.0667 253.71 51.8C253.71 51.52 253.716 51.2933 253.73 51.12C253.783 50.1733 254.003 49.3467 254.39 48.64C254.776 47.92 255.303 47.3667 255.97 46.98C256.65 46.5933 257.443 46.4 258.35 46.4C259.363 46.4 260.21 46.6133 260.89 47.04C261.583 47.4667 262.11 48.0733 262.47 48.86C262.83 49.6467 263.01 50.5667 263.01 51.62V51.96C263.01 52.1067 262.963 52.22 262.87 52.3C262.79 52.38 262.683 52.42 262.55 52.42H255.63C255.63 52.4333 255.63 52.46 255.63 52.5C255.63 52.54 255.63 52.5733 255.63 52.6C255.656 53.1467 255.776 53.66 255.99 54.14C256.203 54.6067 256.51 54.9867 256.91 55.28C257.31 55.5733 257.79 55.72 258.35 55.72C258.83 55.72 259.23 55.6467 259.55 55.5C259.87 55.3533 260.13 55.1933 260.33 55.02C260.53 54.8333 260.663 54.6933 260.73 54.6C260.85 54.4267 260.943 54.3267 261.01 54.3C261.076 54.26 261.183 54.24 261.33 54.24H262.29C262.423 54.24 262.53 54.28 262.61 54.36C262.703 54.4267 262.743 54.5267 262.73 54.66C262.716 54.86 262.61 55.1067 262.41 55.4C262.21 55.68 261.923 55.96 261.55 56.24C261.176 56.52 260.723 56.7533 260.19 56.94C259.656 57.1133 259.043 57.2 258.35 57.2ZM255.63 51.04H261.11V50.98C261.11 50.38 260.996 49.8467 260.77 49.38C260.556 48.9133 260.243 48.5467 259.83 48.28C259.416 48 258.923 47.86 258.35 47.86C257.776 47.86 257.283 48 256.87 48.28C256.47 48.5467 256.163 48.9133 255.95 49.38C255.736 49.8467 255.63 50.38 255.63 50.98V51.04ZM276.043 57.2C275.243 57.2 274.577 57.06 274.043 56.78C273.51 56.4867 273.083 56.1267 272.763 55.7V56.54C272.763 56.6733 272.717 56.7867 272.623 56.88C272.543 56.96 272.437 57 272.303 57H271.383C271.25 57 271.137 56.96 271.043 56.88C270.963 56.7867 270.923 56.6733 270.923 56.54V43.26C270.923 43.1267 270.963 43.02 271.043 42.94C271.137 42.8467 271.25 42.8 271.383 42.8H272.343C272.49 42.8 272.603 42.8467 272.683 42.94C272.763 43.02 272.803 43.1267 272.803 43.26V47.86C273.137 47.4467 273.563 47.1 274.083 46.82C274.617 46.54 275.27 46.4 276.043 46.4C276.79 46.4 277.423 46.5333 277.943 46.8C278.477 47.0533 278.91 47.4067 279.243 47.86C279.59 48.3133 279.85 48.8267 280.023 49.4C280.197 49.9733 280.29 50.5733 280.303 51.2C280.317 51.4133 280.323 51.6133 280.323 51.8C280.323 51.9867 280.317 52.1867 280.303 52.4C280.29 53.04 280.197 53.6467 280.023 54.22C279.85 54.7933 279.59 55.3067 279.243 55.76C278.91 56.2 278.477 56.5533 277.943 56.82C277.423 57.0733 276.79 57.2 276.043 57.2ZM275.623 55.58C276.317 55.58 276.857 55.4333 277.243 55.14C277.643 54.8333 277.93 54.44 278.103 53.96C278.277 53.4667 278.377 52.94 278.403 52.38C278.417 51.9933 278.417 51.6067 278.403 51.22C278.377 50.66 278.277 50.14 278.103 49.66C277.93 49.1667 277.643 48.7733 277.243 48.48C276.857 48.1733 276.317 48.02 275.623 48.02C274.997 48.02 274.477 48.1667 274.063 48.46C273.65 48.7533 273.337 49.1267 273.123 49.58C272.923 50.0333 272.817 50.4933 272.803 50.96C272.79 51.1733 272.783 51.4333 272.783 51.74C272.783 52.0333 272.79 52.2867 272.803 52.5C272.83 52.9933 272.937 53.48 273.123 53.96C273.323 54.4267 273.623 54.8133 274.023 55.12C274.437 55.4267 274.97 55.58 275.623 55.58ZM287.238 57.2C285.865 57.2 284.771 56.78 283.958 55.94C283.145 55.0867 282.698 53.9267 282.618 52.46C282.605 52.2867 282.598 52.0667 282.598 51.8C282.598 51.52 282.605 51.2933 282.618 51.12C282.671 50.1733 282.891 49.3467 283.278 48.64C283.665 47.92 284.191 47.3667 284.858 46.98C285.538 46.5933 286.331 46.4 287.238 46.4C288.251 46.4 289.098 46.6133 289.778 47.04C290.471 47.4667 290.998 48.0733 291.358 48.86C291.718 49.6467 291.898 50.5667 291.898 51.62V51.96C291.898 52.1067 291.851 52.22 291.758 52.3C291.678 52.38 291.571 52.42 291.438 52.42H284.518C284.518 52.4333 284.518 52.46 284.518 52.5C284.518 52.54 284.518 52.5733 284.518 52.6C284.545 53.1467 284.665 53.66 284.878 54.14C285.091 54.6067 285.398 54.9867 285.798 55.28C286.198 55.5733 286.678 55.72 287.238 55.72C287.718 55.72 288.118 55.6467 288.438 55.5C288.758 55.3533 289.018 55.1933 289.218 55.02C289.418 54.8333 289.551 54.6933 289.618 54.6C289.738 54.4267 289.831 54.3267 289.898 54.3C289.965 54.26 290.071 54.24 290.218 54.24H291.178C291.311 54.24 291.418 54.28 291.498 54.36C291.591 54.4267 291.631 54.5267 291.618 54.66C291.605 54.86 291.498 55.1067 291.298 55.4C291.098 55.68 290.811 55.96 290.438 56.24C290.065 56.52 289.611 56.7533 289.078 56.94C288.545 57.1133 287.931 57.2 287.238 57.2ZM284.518 51.04H289.998V50.98C289.998 50.38 289.885 49.8467 289.658 49.38C289.445 48.9133 289.131 48.5467 288.718 48.28C288.305 48 287.811 47.86 287.238 47.86C286.665 47.86 286.171 48 285.758 48.28C285.358 48.5467 285.051 48.9133 284.838 49.38C284.625 49.8467 284.518 50.38 284.518 50.98V51.04ZM295.049 57C294.916 57 294.803 56.96 294.709 56.88C294.629 56.7867 294.589 56.6733 294.589 56.54V47.06C294.589 46.9267 294.629 46.82 294.709 46.74C294.803 46.6467 294.916 46.6 295.049 46.6H296.009C296.143 46.6 296.249 46.6467 296.329 46.74C296.409 46.82 296.449 46.9267 296.449 47.06V56.54C296.449 56.6733 296.409 56.7867 296.329 56.88C296.249 56.96 296.143 57 296.009 57H295.049ZM294.889 44.66C294.756 44.66 294.643 44.62 294.549 44.54C294.469 44.4467 294.429 44.3333 294.429 44.2V43.12C294.429 42.9867 294.469 42.88 294.549 42.8C294.643 42.7067 294.756 42.66 294.889 42.66H296.149C296.283 42.66 296.389 42.7067 296.469 42.8C296.563 42.88 296.609 42.9867 296.609 43.12V44.2C296.609 44.3333 296.563 44.4467 296.469 44.54C296.389 44.62 296.283 44.66 296.149 44.66H294.889ZM300.388 57C300.255 57 300.142 56.96 300.048 56.88C299.968 56.7867 299.928 56.6733 299.928 56.54V47.06C299.928 46.9267 299.968 46.82 300.048 46.74C300.142 46.6467 300.255 46.6 300.388 46.6H301.328C301.462 46.6 301.568 46.6467 301.648 46.74C301.742 46.82 301.788 46.9267 301.788 47.06V47.94C302.135 47.4867 302.568 47.12 303.088 46.84C303.622 46.5467 304.302 46.4 305.128 46.4C305.995 46.4 306.728 46.5933 307.328 46.98C307.942 47.3533 308.402 47.88 308.708 48.56C309.015 49.2267 309.168 50.0067 309.168 50.9V56.54C309.168 56.6733 309.128 56.7867 309.048 56.88C308.968 56.96 308.862 57 308.728 57H307.728C307.595 57 307.482 56.96 307.388 56.88C307.308 56.7867 307.268 56.6733 307.268 56.54V51C307.268 50.0667 307.042 49.34 306.588 48.82C306.135 48.2867 305.468 48.02 304.588 48.02C303.762 48.02 303.095 48.2867 302.588 48.82C302.095 49.34 301.848 50.0667 301.848 51V56.54C301.848 56.6733 301.802 56.7867 301.708 56.88C301.628 56.96 301.522 57 301.388 57H300.388ZM316.617 61.4C315.711 61.4 314.964 61.28 314.377 61.04C313.804 60.8 313.351 60.5067 313.017 60.16C312.697 59.8267 312.464 59.4867 312.317 59.14C312.184 58.8067 312.111 58.54 312.097 58.34C312.084 58.2067 312.124 58.0933 312.217 58C312.324 57.9067 312.437 57.86 312.557 57.86H313.517C313.637 57.86 313.737 57.8867 313.817 57.94C313.897 57.9933 313.964 58.1067 314.017 58.28C314.097 58.48 314.217 58.7 314.377 58.94C314.537 59.1933 314.784 59.4067 315.117 59.58C315.451 59.7667 315.917 59.86 316.517 59.86C317.144 59.86 317.671 59.7733 318.097 59.6C318.524 59.44 318.844 59.1467 319.057 58.72C319.284 58.3067 319.397 57.7333 319.397 57V55.64C319.077 56.0533 318.657 56.4 318.137 56.68C317.617 56.9467 316.964 57.08 316.177 57.08C315.431 57.08 314.791 56.9533 314.257 56.7C313.724 56.4333 313.284 56.08 312.937 55.64C312.604 55.1867 312.351 54.6733 312.177 54.1C312.017 53.5267 311.924 52.9267 311.897 52.3C311.884 51.9267 311.884 51.56 311.897 51.2C311.924 50.5733 312.017 49.9733 312.177 49.4C312.351 48.8267 312.604 48.3133 312.937 47.86C313.284 47.4067 313.724 47.0533 314.257 46.8C314.791 46.5333 315.431 46.4 316.177 46.4C316.977 46.4 317.637 46.5533 318.157 46.86C318.691 47.1533 319.124 47.5133 319.457 47.94V47.08C319.457 46.9467 319.497 46.8333 319.577 46.74C319.671 46.6467 319.784 46.6 319.917 46.6H320.837C320.971 46.6 321.084 46.6467 321.177 46.74C321.271 46.8333 321.317 46.9467 321.317 47.08V56.78C321.317 57.6733 321.164 58.4667 320.857 59.16C320.564 59.8533 320.071 60.4 319.377 60.8C318.697 61.2 317.777 61.4 316.617 61.4ZM316.577 55.48C317.244 55.48 317.777 55.3267 318.177 55.02C318.591 54.7133 318.891 54.3267 319.077 53.86C319.277 53.3933 319.384 52.92 319.397 52.44C319.411 52.2533 319.417 52.0267 319.417 51.76C319.417 51.48 319.411 51.2467 319.397 51.06C319.384 50.58 319.277 50.1067 319.077 49.64C318.891 49.1733 318.591 48.7867 318.177 48.48C317.777 48.1733 317.244 48.02 316.577 48.02C315.911 48.02 315.377 48.1733 314.977 48.48C314.577 48.7733 314.291 49.1667 314.117 49.66C313.944 50.14 313.844 50.66 313.817 51.22C313.804 51.5667 313.804 51.92 313.817 52.28C313.844 52.84 313.944 53.3667 314.117 53.86C314.291 54.34 314.577 54.7333 314.977 55.04C315.377 55.3333 315.911 55.48 316.577 55.48ZM330.253 57C330.12 57 330.007 56.96 329.913 56.88C329.833 56.7867 329.793 56.6733 329.793 56.54V47.08C329.793 46.9467 329.833 46.8333 329.913 46.74C330.007 46.6467 330.12 46.6 330.253 46.6H331.173C331.307 46.6 331.42 46.6467 331.513 46.74C331.607 46.8333 331.653 46.9467 331.653 47.08V47.96C331.92 47.5067 332.287 47.1667 332.753 46.94C333.22 46.7133 333.78 46.6 334.433 46.6H335.233C335.367 46.6 335.473 46.6467 335.553 46.74C335.633 46.82 335.673 46.9267 335.673 47.06V47.88C335.673 48.0133 335.633 48.12 335.553 48.2C335.473 48.28 335.367 48.32 335.233 48.32H334.033C333.313 48.32 332.747 48.5333 332.333 48.96C331.92 49.3733 331.713 49.94 331.713 50.66V56.54C331.713 56.6733 331.667 56.7867 331.573 56.88C331.48 56.96 331.367 57 331.233 57H330.253ZM341.636 57.2C340.262 57.2 339.169 56.78 338.356 55.94C337.542 55.0867 337.096 53.9267 337.016 52.46C337.002 52.2867 336.996 52.0667 336.996 51.8C336.996 51.52 337.002 51.2933 337.016 51.12C337.069 50.1733 337.289 49.3467 337.676 48.64C338.062 47.92 338.589 47.3667 339.256 46.98C339.936 46.5933 340.729 46.4 341.636 46.4C342.649 46.4 343.496 46.6133 344.176 47.04C344.869 47.4667 345.396 48.0733 345.756 48.86C346.116 49.6467 346.296 50.5667 346.296 51.62V51.96C346.296 52.1067 346.249 52.22 346.156 52.3C346.076 52.38 345.969 52.42 345.836 52.42H338.916C338.916 52.4333 338.916 52.46 338.916 52.5C338.916 52.54 338.916 52.5733 338.916 52.6C338.942 53.1467 339.062 53.66 339.276 54.14C339.489 54.6067 339.796 54.9867 340.196 55.28C340.596 55.5733 341.076 55.72 341.636 55.72C342.116 55.72 342.516 55.6467 342.836 55.5C343.156 55.3533 343.416 55.1933 343.616 55.02C343.816 54.8333 343.949 54.6933 344.016 54.6C344.136 54.4267 344.229 54.3267 344.296 54.3C344.362 54.26 344.469 54.24 344.616 54.24H345.576C345.709 54.24 345.816 54.28 345.896 54.36C345.989 54.4267 346.029 54.5267 346.016 54.66C346.002 54.86 345.896 55.1067 345.696 55.4C345.496 55.68 345.209 55.96 344.836 56.24C344.462 56.52 344.009 56.7533 343.476 56.94C342.942 57.1133 342.329 57.2 341.636 57.2ZM338.916 51.04H344.396V50.98C344.396 50.38 344.282 49.8467 344.056 49.38C343.842 48.9133 343.529 48.5467 343.116 48.28C342.702 48 342.209 47.86 341.636 47.86C341.062 47.86 340.569 48 340.156 48.28C339.756 48.5467 339.449 48.9133 339.236 49.38C339.022 49.8467 338.916 50.38 338.916 50.98V51.04ZM352.787 57.2C352.054 57.2 351.42 57.0733 350.887 56.82C350.354 56.5533 349.914 56.2 349.567 55.76C349.234 55.3067 348.98 54.7933 348.807 54.22C348.647 53.6467 348.554 53.04 348.527 52.4C348.514 52.1867 348.507 51.9867 348.507 51.8C348.507 51.6133 348.514 51.4133 348.527 51.2C348.554 50.5733 348.647 49.9733 348.807 49.4C348.98 48.8267 349.234 48.3133 349.567 47.86C349.914 47.4067 350.354 47.0533 350.887 46.8C351.42 46.5333 352.054 46.4 352.787 46.4C353.574 46.4 354.227 46.54 354.747 46.82C355.267 47.1 355.694 47.4467 356.027 47.86V43.26C356.027 43.1267 356.067 43.02 356.147 42.94C356.24 42.8467 356.354 42.8 356.487 42.8H357.447C357.58 42.8 357.687 42.8467 357.767 42.94C357.86 43.02 357.907 43.1267 357.907 43.26V56.54C357.907 56.6733 357.86 56.7867 357.767 56.88C357.687 56.96 357.58 57 357.447 57H356.547C356.4 57 356.287 56.96 356.207 56.88C356.127 56.7867 356.087 56.6733 356.087 56.54V55.7C355.754 56.1267 355.32 56.4867 354.787 56.78C354.254 57.06 353.587 57.2 352.787 57.2ZM353.207 55.58C353.874 55.58 354.407 55.4267 354.807 55.12C355.207 54.8133 355.507 54.4267 355.707 53.96C355.907 53.48 356.014 52.9933 356.027 52.5C356.04 52.2867 356.047 52.0333 356.047 51.74C356.047 51.4333 356.04 51.1733 356.027 50.96C356.014 50.4933 355.9 50.0333 355.687 49.58C355.487 49.1267 355.18 48.7533 354.767 48.46C354.367 48.1667 353.847 48.02 353.207 48.02C352.527 48.02 351.987 48.1733 351.587 48.48C351.187 48.7733 350.9 49.1667 350.727 49.66C350.554 50.14 350.454 50.66 350.427 51.22C350.414 51.6067 350.414 51.9933 350.427 52.38C350.454 52.94 350.554 53.4667 350.727 53.96C350.9 54.44 351.187 54.8333 351.587 55.14C351.987 55.4333 352.527 55.58 353.207 55.58ZM361.642 57C361.508 57 361.395 56.96 361.302 56.88C361.222 56.7867 361.182 56.6733 361.182 56.54V47.06C361.182 46.9267 361.222 46.82 361.302 46.74C361.395 46.6467 361.508 46.6 361.642 46.6H362.602C362.735 46.6 362.842 46.6467 362.922 46.74C363.002 46.82 363.042 46.9267 363.042 47.06V56.54C363.042 56.6733 363.002 56.7867 362.922 56.88C362.842 56.96 362.735 57 362.602 57H361.642ZM361.482 44.66C361.348 44.66 361.235 44.62 361.142 44.54C361.062 44.4467 361.022 44.3333 361.022 44.2V43.12C361.022 42.9867 361.062 42.88 361.142 42.8C361.235 42.7067 361.348 42.66 361.482 42.66H362.742C362.875 42.66 362.982 42.7067 363.062 42.8C363.155 42.88 363.202 42.9867 363.202 43.12V44.2C363.202 44.3333 363.155 44.4467 363.062 44.54C362.982 44.62 362.875 44.66 362.742 44.66H361.482ZM366.981 57C366.847 57 366.734 56.96 366.641 56.88C366.561 56.7867 366.521 56.6733 366.521 56.54V47.08C366.521 46.9467 366.561 46.8333 366.641 46.74C366.734 46.6467 366.847 46.6 366.981 46.6H367.901C368.034 46.6 368.147 46.6467 368.241 46.74C368.334 46.8333 368.381 46.9467 368.381 47.08V47.96C368.647 47.5067 369.014 47.1667 369.481 46.94C369.947 46.7133 370.507 46.6 371.161 46.6H371.961C372.094 46.6 372.201 46.6467 372.281 46.74C372.361 46.82 372.401 46.9267 372.401 47.06V47.88C372.401 48.0133 372.361 48.12 372.281 48.2C372.201 48.28 372.094 48.32 371.961 48.32H370.761C370.041 48.32 369.474 48.5333 369.061 48.96C368.647 49.3733 368.441 49.94 368.441 50.66V56.54C368.441 56.6733 368.394 56.7867 368.301 56.88C368.207 56.96 368.094 57 367.961 57H366.981ZM378.363 57.2C376.99 57.2 375.896 56.78 375.083 55.94C374.27 55.0867 373.823 53.9267 373.743 52.46C373.73 52.2867 373.723 52.0667 373.723 51.8C373.723 51.52 373.73 51.2933 373.743 51.12C373.796 50.1733 374.016 49.3467 374.403 48.64C374.79 47.92 375.316 47.3667 375.983 46.98C376.663 46.5933 377.456 46.4 378.363 46.4C379.376 46.4 380.223 46.6133 380.903 47.04C381.596 47.4667 382.123 48.0733 382.483 48.86C382.843 49.6467 383.023 50.5667 383.023 51.62V51.96C383.023 52.1067 382.976 52.22 382.883 52.3C382.803 52.38 382.696 52.42 382.563 52.42H375.643C375.643 52.4333 375.643 52.46 375.643 52.5C375.643 52.54 375.643 52.5733 375.643 52.6C375.67 53.1467 375.79 53.66 376.003 54.14C376.216 54.6067 376.523 54.9867 376.923 55.28C377.323 55.5733 377.803 55.72 378.363 55.72C378.843 55.72 379.243 55.6467 379.563 55.5C379.883 55.3533 380.143 55.1933 380.343 55.02C380.543 54.8333 380.676 54.6933 380.743 54.6C380.863 54.4267 380.956 54.3267 381.023 54.3C381.09 54.26 381.196 54.24 381.343 54.24H382.303C382.436 54.24 382.543 54.28 382.623 54.36C382.716 54.4267 382.756 54.5267 382.743 54.66C382.73 54.86 382.623 55.1067 382.423 55.4C382.223 55.68 381.936 55.96 381.563 56.24C381.19 56.52 380.736 56.7533 380.203 56.94C379.67 57.1133 379.056 57.2 378.363 57.2ZM375.643 51.04H381.123V50.98C381.123 50.38 381.01 49.8467 380.783 49.38C380.57 48.9133 380.256 48.5467 379.843 48.28C379.43 48 378.936 47.86 378.363 47.86C377.79 47.86 377.296 48 376.883 48.28C376.483 48.5467 376.176 48.9133 375.963 49.38C375.75 49.8467 375.643 50.38 375.643 50.98V51.04ZM389.914 57.2C388.968 57.2 388.148 57.02 387.454 56.66C386.774 56.2867 386.248 55.76 385.874 55.08C385.501 54.3867 385.301 53.56 385.274 52.6C385.261 52.4 385.254 52.1333 385.254 51.8C385.254 51.4667 385.261 51.2 385.274 51C385.301 50.04 385.501 49.22 385.874 48.54C386.248 47.8467 386.774 47.32 387.454 46.96C388.148 46.5867 388.968 46.4 389.914 46.4C390.688 46.4 391.348 46.5067 391.894 46.72C392.454 46.9333 392.914 47.2067 393.274 47.54C393.634 47.8733 393.901 48.2333 394.074 48.62C394.261 49.0067 394.361 49.3733 394.374 49.72C394.388 49.8533 394.348 49.96 394.254 50.04C394.161 50.12 394.048 50.16 393.914 50.16H392.954C392.821 50.16 392.721 50.1333 392.654 50.08C392.588 50.0133 392.521 49.9067 392.454 49.76C392.214 49.1067 391.888 48.6467 391.474 48.38C391.061 48.1133 390.548 47.98 389.934 47.98C389.134 47.98 388.481 48.2267 387.974 48.72C387.481 49.2133 387.214 50.0067 387.174 51.1C387.161 51.58 387.161 52.0467 387.174 52.5C387.214 53.6067 387.481 54.4067 387.974 54.9C388.481 55.38 389.134 55.62 389.934 55.62C390.548 55.62 391.061 55.4867 391.474 55.22C391.888 54.9533 392.214 54.4933 392.454 53.84C392.521 53.6933 392.588 53.5933 392.654 53.54C392.721 53.4733 392.821 53.44 392.954 53.44H393.914C394.048 53.44 394.161 53.48 394.254 53.56C394.348 53.64 394.388 53.7467 394.374 53.88C394.361 54.16 394.301 54.4467 394.194 54.74C394.088 55.0333 393.914 55.3333 393.674 55.64C393.448 55.9333 393.161 56.2 392.814 56.44C392.468 56.6667 392.048 56.8533 391.554 57C391.074 57.1333 390.528 57.2 389.914 57.2ZM401.11 57C400.363 57 399.756 56.86 399.29 56.58C398.823 56.2867 398.483 55.88 398.27 55.36C398.056 54.8267 397.95 54.2 397.95 53.48V48.2H396.39C396.256 48.2 396.143 48.16 396.05 48.08C395.97 47.9867 395.93 47.8733 395.93 47.74V47.06C395.93 46.9267 395.97 46.82 396.05 46.74C396.143 46.6467 396.256 46.6 396.39 46.6H397.95V43.26C397.95 43.1267 397.99 43.02 398.07 42.94C398.163 42.8467 398.276 42.8 398.41 42.8H399.35C399.483 42.8 399.59 42.8467 399.67 42.94C399.763 43.02 399.81 43.1267 399.81 43.26V46.6H402.29C402.423 46.6 402.53 46.6467 402.61 46.74C402.703 46.82 402.75 46.9267 402.75 47.06V47.74C402.75 47.8733 402.703 47.9867 402.61 48.08C402.53 48.16 402.423 48.2 402.29 48.2H399.81V53.34C399.81 53.9667 399.916 54.46 400.13 54.82C400.343 55.18 400.723 55.36 401.27 55.36H402.49C402.623 55.36 402.73 55.4067 402.81 55.5C402.903 55.58 402.95 55.6867 402.95 55.82V56.54C402.95 56.6733 402.903 56.7867 402.81 56.88C402.73 56.96 402.623 57 402.49 57H401.11ZM409.302 57.2C407.929 57.2 406.835 56.78 406.022 55.94C405.209 55.0867 404.762 53.9267 404.682 52.46C404.669 52.2867 404.662 52.0667 404.662 51.8C404.662 51.52 404.669 51.2933 404.682 51.12C404.735 50.1733 404.955 49.3467 405.342 48.64C405.729 47.92 406.255 47.3667 406.922 46.98C407.602 46.5933 408.395 46.4 409.302 46.4C410.315 46.4 411.162 46.6133 411.842 47.04C412.535 47.4667 413.062 48.0733 413.422 48.86C413.782 49.6467 413.962 50.5667 413.962 51.62V51.96C413.962 52.1067 413.915 52.22 413.822 52.3C413.742 52.38 413.635 52.42 413.502 52.42H406.582C406.582 52.4333 406.582 52.46 406.582 52.5C406.582 52.54 406.582 52.5733 406.582 52.6C406.609 53.1467 406.729 53.66 406.942 54.14C407.155 54.6067 407.462 54.9867 407.862 55.28C408.262 55.5733 408.742 55.72 409.302 55.72C409.782 55.72 410.182 55.6467 410.502 55.5C410.822 55.3533 411.082 55.1933 411.282 55.02C411.482 54.8333 411.615 54.6933 411.682 54.6C411.802 54.4267 411.895 54.3267 411.962 54.3C412.029 54.26 412.135 54.24 412.282 54.24H413.242C413.375 54.24 413.482 54.28 413.562 54.36C413.655 54.4267 413.695 54.5267 413.682 54.66C413.669 54.86 413.562 55.1067 413.362 55.4C413.162 55.68 412.875 55.96 412.502 56.24C412.129 56.52 411.675 56.7533 411.142 56.94C410.609 57.1133 409.995 57.2 409.302 57.2ZM406.582 51.04H412.062V50.98C412.062 50.38 411.949 49.8467 411.722 49.38C411.509 48.9133 411.195 48.5467 410.782 48.28C410.369 48 409.875 47.86 409.302 47.86C408.729 47.86 408.235 48 407.822 48.28C407.422 48.5467 407.115 48.9133 406.902 49.38C406.689 49.8467 406.582 50.38 406.582 50.98V51.04ZM420.453 57.2C419.72 57.2 419.087 57.0733 418.553 56.82C418.02 56.5533 417.58 56.2 417.233 55.76C416.9 55.3067 416.647 54.7933 416.473 54.22C416.313 53.6467 416.22 53.04 416.193 52.4C416.18 52.1867 416.173 51.9867 416.173 51.8C416.173 51.6133 416.18 51.4133 416.193 51.2C416.22 50.5733 416.313 49.9733 416.473 49.4C416.647 48.8267 416.9 48.3133 417.233 47.86C417.58 47.4067 418.02 47.0533 418.553 46.8C419.087 46.5333 419.72 46.4 420.453 46.4C421.24 46.4 421.893 46.54 422.413 46.82C422.933 47.1 423.36 47.4467 423.693 47.86V43.26C423.693 43.1267 423.733 43.02 423.813 42.94C423.907 42.8467 424.02 42.8 424.153 42.8H425.113C425.247 42.8 425.353 42.8467 425.433 42.94C425.527 43.02 425.573 43.1267 425.573 43.26V56.54C425.573 56.6733 425.527 56.7867 425.433 56.88C425.353 56.96 425.247 57 425.113 57H424.213C424.067 57 423.953 56.96 423.873 56.88C423.793 56.7867 423.753 56.6733 423.753 56.54V55.7C423.42 56.1267 422.987 56.4867 422.453 56.78C421.92 57.06 421.253 57.2 420.453 57.2ZM420.873 55.58C421.54 55.58 422.073 55.4267 422.473 55.12C422.873 54.8133 423.173 54.4267 423.373 53.96C423.573 53.48 423.68 52.9933 423.693 52.5C423.707 52.2867 423.713 52.0333 423.713 51.74C423.713 51.4333 423.707 51.1733 423.693 50.96C423.68 50.4933 423.567 50.0333 423.353 49.58C423.153 49.1267 422.847 48.7533 422.433 48.46C422.033 48.1667 421.513 48.02 420.873 48.02C420.193 48.02 419.653 48.1733 419.253 48.48C418.853 48.7733 418.567 49.1667 418.393 49.66C418.22 50.14 418.12 50.66 418.093 51.22C418.08 51.6067 418.08 51.9933 418.093 52.38C418.12 52.94 418.22 53.4667 418.393 53.96C418.567 54.44 418.853 54.8333 419.253 55.14C419.653 55.4333 420.193 55.58 420.873 55.58ZM437.681 57C436.934 57 436.327 56.86 435.861 56.58C435.394 56.2867 435.054 55.88 434.841 55.36C434.627 54.8267 434.521 54.2 434.521 53.48V48.2H432.961C432.827 48.2 432.714 48.16 432.621 48.08C432.541 47.9867 432.501 47.8733 432.501 47.74V47.06C432.501 46.9267 432.541 46.82 432.621 46.74C432.714 46.6467 432.827 46.6 432.961 46.6H434.521V43.26C434.521 43.1267 434.561 43.02 434.641 42.94C434.734 42.8467 434.847 42.8 434.981 42.8H435.921C436.054 42.8 436.161 42.8467 436.241 42.94C436.334 43.02 436.381 43.1267 436.381 43.26V46.6H438.861C438.994 46.6 439.101 46.6467 439.181 46.74C439.274 46.82 439.321 46.9267 439.321 47.06V47.74C439.321 47.8733 439.274 47.9867 439.181 48.08C439.101 48.16 438.994 48.2 438.861 48.2H436.381V53.34C436.381 53.9667 436.487 54.46 436.701 54.82C436.914 55.18 437.294 55.36 437.841 55.36H439.061C439.194 55.36 439.301 55.4067 439.381 55.5C439.474 55.58 439.521 55.6867 439.521 55.82V56.54C439.521 56.6733 439.474 56.7867 439.381 56.88C439.301 56.96 439.194 57 439.061 57H437.681ZM445.993 57.2C444.98 57.2 444.133 57.0067 443.453 56.62C442.773 56.2333 442.253 55.7 441.893 55.02C441.533 54.3267 441.333 53.54 441.293 52.66C441.28 52.4333 441.273 52.1467 441.273 51.8C441.273 51.44 441.28 51.1533 441.293 50.94C441.333 50.0467 441.533 49.26 441.893 48.58C442.266 47.9 442.793 47.3667 443.473 46.98C444.153 46.5933 444.993 46.4 445.993 46.4C446.993 46.4 447.833 46.5933 448.513 46.98C449.193 47.3667 449.713 47.9 450.073 48.58C450.446 49.26 450.653 50.0467 450.693 50.94C450.706 51.1533 450.713 51.44 450.713 51.8C450.713 52.1467 450.706 52.4333 450.693 52.66C450.653 53.54 450.453 54.3267 450.093 55.02C449.733 55.7 449.213 56.2333 448.533 56.62C447.853 57.0067 447.006 57.2 445.993 57.2ZM445.993 55.66C446.82 55.66 447.48 55.4 447.973 54.88C448.466 54.3467 448.733 53.5733 448.773 52.56C448.786 52.36 448.793 52.1067 448.793 51.8C448.793 51.4933 448.786 51.24 448.773 51.04C448.733 50.0267 448.466 49.26 447.973 48.74C447.48 48.2067 446.82 47.94 445.993 47.94C445.166 47.94 444.5 48.2067 443.993 48.74C443.5 49.26 443.24 50.0267 443.213 51.04C443.2 51.24 443.193 51.4933 443.193 51.8C443.193 52.1067 443.2 52.36 443.213 52.56C443.24 53.5733 443.5 54.3467 443.993 54.88C444.5 55.4 445.166 55.66 445.993 55.66ZM459.993 60.8C459.886 60.8 459.793 60.76 459.713 60.68C459.633 60.6 459.593 60.5067 459.593 60.4C459.593 60.3467 459.6 60.2933 459.613 60.24C459.626 60.1867 459.653 60.12 459.693 60.04L461.233 56.38L457.413 47.36C457.346 47.2 457.313 47.0867 457.313 47.02C457.313 46.9 457.353 46.8 457.433 46.72C457.513 46.64 457.613 46.6 457.733 46.6H458.713C458.846 46.6 458.953 46.6333 459.033 46.7C459.113 46.7667 459.166 46.8467 459.193 46.94L462.233 54.22L465.353 46.94C465.393 46.8467 465.446 46.7667 465.513 46.7C465.593 46.6333 465.706 46.6 465.853 46.6H466.793C466.913 46.6 467.013 46.64 467.093 46.72C467.173 46.8 467.213 46.8933 467.213 47C467.213 47.0667 467.18 47.1867 467.113 47.36L461.433 60.46C461.393 60.5533 461.333 60.6333 461.253 60.7C461.186 60.7667 461.08 60.8 460.933 60.8H459.993ZM473.397 57.2C472.384 57.2 471.537 57.0067 470.857 56.62C470.177 56.2333 469.657 55.7 469.297 55.02C468.937 54.3267 468.737 53.54 468.697 52.66C468.684 52.4333 468.677 52.1467 468.677 51.8C468.677 51.44 468.684 51.1533 468.697 50.94C468.737 50.0467 468.937 49.26 469.297 48.58C469.67 47.9 470.197 47.3667 470.877 46.98C471.557 46.5933 472.397 46.4 473.397 46.4C474.397 46.4 475.237 46.5933 475.917 46.98C476.597 47.3667 477.117 47.9 477.477 48.58C477.85 49.26 478.057 50.0467 478.097 50.94C478.11 51.1533 478.117 51.44 478.117 51.8C478.117 52.1467 478.11 52.4333 478.097 52.66C478.057 53.54 477.857 54.3267 477.497 55.02C477.137 55.7 476.617 56.2333 475.937 56.62C475.257 57.0067 474.41 57.2 473.397 57.2ZM473.397 55.66C474.224 55.66 474.884 55.4 475.377 54.88C475.87 54.3467 476.137 53.5733 476.177 52.56C476.19 52.36 476.197 52.1067 476.197 51.8C476.197 51.4933 476.19 51.24 476.177 51.04C476.137 50.0267 475.87 49.26 475.377 48.74C474.884 48.2067 474.224 47.94 473.397 47.94C472.57 47.94 471.904 48.2067 471.397 48.74C470.904 49.26 470.644 50.0267 470.617 51.04C470.604 51.24 470.597 51.4933 470.597 51.8C470.597 52.1067 470.604 52.36 470.617 52.56C470.644 53.5733 470.904 54.3467 471.397 54.88C471.904 55.4 472.57 55.66 473.397 55.66ZM484.801 57.2C483.948 57.2 483.221 57.0133 482.621 56.64C482.035 56.2533 481.588 55.72 481.281 55.04C480.975 54.36 480.821 53.58 480.821 52.7V47.06C480.821 46.9267 480.861 46.82 480.941 46.74C481.035 46.6467 481.148 46.6 481.281 46.6H482.281C482.415 46.6 482.521 46.6467 482.601 46.74C482.695 46.82 482.741 46.9267 482.741 47.06V52.6C482.741 54.5867 483.608 55.58 485.341 55.58C486.168 55.58 486.828 55.32 487.321 54.8C487.828 54.2667 488.081 53.5333 488.081 52.6V47.06C488.081 46.9267 488.121 46.82 488.201 46.74C488.295 46.6467 488.408 46.6 488.541 46.6H489.521C489.668 46.6 489.781 46.6467 489.861 46.74C489.941 46.82 489.981 46.9267 489.981 47.06V56.54C489.981 56.6733 489.941 56.7867 489.861 56.88C489.781 56.96 489.668 57 489.521 57H488.601C488.468 57 488.355 56.96 488.261 56.88C488.181 56.7867 488.141 56.6733 488.141 56.54V55.66C487.781 56.1267 487.341 56.5 486.821 56.78C486.315 57.06 485.641 57.2 484.801 57.2ZM493.713 57C493.579 57 493.466 56.96 493.373 56.88C493.293 56.7867 493.253 56.6733 493.253 56.54V47.08C493.253 46.9467 493.293 46.8333 493.373 46.74C493.466 46.6467 493.579 46.6 493.713 46.6H494.633C494.766 46.6 494.879 46.6467 494.973 46.74C495.066 46.8333 495.113 46.9467 495.113 47.08V47.96C495.379 47.5067 495.746 47.1667 496.213 46.94C496.679 46.7133 497.239 46.6 497.893 46.6H498.693C498.826 46.6 498.933 46.6467 499.013 46.74C499.093 46.82 499.133 46.9267 499.133 47.06V47.88C499.133 48.0133 499.093 48.12 499.013 48.2C498.933 48.28 498.826 48.32 498.693 48.32H497.493C496.773 48.32 496.206 48.5333 495.793 48.96C495.379 49.3733 495.173 49.94 495.173 50.66V56.54C495.173 56.6733 495.126 56.7867 495.033 56.88C494.939 56.96 494.826 57 494.693 57H493.713ZM509.684 57.2C508.951 57.2 508.317 57.0733 507.784 56.82C507.251 56.5533 506.811 56.2 506.464 55.76C506.131 55.3067 505.877 54.7933 505.704 54.22C505.544 53.6467 505.451 53.04 505.424 52.4C505.411 52.1867 505.404 51.9867 505.404 51.8C505.404 51.6133 505.411 51.4133 505.424 51.2C505.451 50.5733 505.544 49.9733 505.704 49.4C505.877 48.8267 506.131 48.3133 506.464 47.86C506.811 47.4067 507.251 47.0533 507.784 46.8C508.317 46.5333 508.951 46.4 509.684 46.4C510.471 46.4 511.124 46.54 511.644 46.82C512.164 47.1 512.591 47.4467 512.924 47.86V43.26C512.924 43.1267 512.964 43.02 513.044 42.94C513.137 42.8467 513.251 42.8 513.384 42.8H514.344C514.477 42.8 514.584 42.8467 514.664 42.94C514.757 43.02 514.804 43.1267 514.804 43.26V56.54C514.804 56.6733 514.757 56.7867 514.664 56.88C514.584 56.96 514.477 57 514.344 57H513.444C513.297 57 513.184 56.96 513.104 56.88C513.024 56.7867 512.984 56.6733 512.984 56.54V55.7C512.651 56.1267 512.217 56.4867 511.684 56.78C511.151 57.06 510.484 57.2 509.684 57.2ZM510.104 55.58C510.771 55.58 511.304 55.4267 511.704 55.12C512.104 54.8133 512.404 54.4267 512.604 53.96C512.804 53.48 512.911 52.9933 512.924 52.5C512.937 52.2867 512.944 52.0333 512.944 51.74C512.944 51.4333 512.937 51.1733 512.924 50.96C512.911 50.4933 512.797 50.0333 512.584 49.58C512.384 49.1267 512.077 48.7533 511.664 48.46C511.264 48.1667 510.744 48.02 510.104 48.02C509.424 48.02 508.884 48.1733 508.484 48.48C508.084 48.7733 507.797 49.1667 507.624 49.66C507.451 50.14 507.351 50.66 507.324 51.22C507.311 51.6067 507.311 51.9933 507.324 52.38C507.351 52.94 507.451 53.4667 507.624 53.96C507.797 54.44 508.084 54.8333 508.484 55.14C508.884 55.4333 509.424 55.58 510.104 55.58ZM520.978 57.2C520.312 57.2 519.705 57.0667 519.158 56.8C518.612 56.5333 518.172 56.1733 517.838 55.72C517.505 55.2667 517.338 54.7533 517.338 54.18C517.338 53.26 517.712 52.5267 518.458 51.98C519.205 51.4333 520.178 51.0733 521.378 50.9L524.358 50.48V49.9C524.358 49.26 524.172 48.76 523.798 48.4C523.438 48.04 522.845 47.86 522.018 47.86C521.418 47.86 520.932 47.98 520.558 48.22C520.198 48.46 519.945 48.7667 519.798 49.14C519.718 49.34 519.578 49.44 519.378 49.44H518.478C518.332 49.44 518.218 49.4 518.138 49.32C518.072 49.2267 518.038 49.12 518.038 49C518.038 48.8 518.112 48.5533 518.258 48.26C518.418 47.9667 518.658 47.68 518.978 47.4C519.298 47.12 519.705 46.8867 520.198 46.7C520.705 46.5 521.318 46.4 522.038 46.4C522.838 46.4 523.512 46.5067 524.058 46.72C524.605 46.92 525.032 47.1933 525.338 47.54C525.658 47.8867 525.885 48.28 526.018 48.72C526.165 49.16 526.238 49.6067 526.238 50.06V56.54C526.238 56.6733 526.192 56.7867 526.098 56.88C526.018 56.96 525.912 57 525.778 57H524.858C524.712 57 524.598 56.96 524.518 56.88C524.438 56.7867 524.398 56.6733 524.398 56.54V55.68C524.225 55.92 523.992 56.16 523.698 56.4C523.405 56.6267 523.038 56.82 522.598 56.98C522.158 57.1267 521.618 57.2 520.978 57.2ZM521.398 55.7C521.945 55.7 522.445 55.5867 522.898 55.36C523.352 55.12 523.705 54.7533 523.958 54.26C524.225 53.7667 524.358 53.1467 524.358 52.4V51.84L522.038 52.18C521.092 52.3133 520.378 52.54 519.898 52.86C519.418 53.1667 519.178 53.56 519.178 54.04C519.178 54.4133 519.285 54.7267 519.498 54.98C519.725 55.22 520.005 55.4 520.338 55.52C520.685 55.64 521.038 55.7 521.398 55.7ZM533.014 57.2C532.267 57.2 531.627 57.1067 531.094 56.92C530.56 56.7333 530.127 56.5067 529.794 56.24C529.46 55.9733 529.207 55.7067 529.034 55.44C528.874 55.1733 528.787 54.96 528.774 54.8C528.76 54.6533 528.807 54.54 528.914 54.46C529.02 54.38 529.127 54.34 529.234 54.34H530.114C530.194 54.34 530.254 54.3533 530.294 54.38C530.347 54.3933 530.414 54.4467 530.494 54.54C530.667 54.7267 530.86 54.9133 531.074 55.1C531.287 55.2867 531.547 55.44 531.854 55.56C532.174 55.68 532.567 55.74 533.034 55.74C533.714 55.74 534.274 55.6133 534.714 55.36C535.154 55.0933 535.374 54.7067 535.374 54.2C535.374 53.8667 535.28 53.6 535.094 53.4C534.92 53.2 534.6 53.02 534.134 52.86C533.68 52.7 533.054 52.5333 532.254 52.36C531.454 52.1733 530.82 51.9467 530.354 51.68C529.887 51.4 529.554 51.0733 529.354 50.7C529.154 50.3133 529.054 49.88 529.054 49.4C529.054 48.9067 529.2 48.4333 529.494 47.98C529.787 47.5133 530.214 47.1333 530.774 46.84C531.347 46.5467 532.06 46.4 532.914 46.4C533.607 46.4 534.2 46.4867 534.694 46.66C535.187 46.8333 535.594 47.0533 535.914 47.32C536.234 47.5733 536.474 47.8267 536.634 48.08C536.794 48.3333 536.88 48.5467 536.894 48.72C536.907 48.8533 536.867 48.9667 536.774 49.06C536.68 49.14 536.574 49.18 536.454 49.18H535.614C535.52 49.18 535.44 49.16 535.374 49.12C535.32 49.08 535.267 49.0333 535.214 48.98C535.08 48.8067 534.92 48.6333 534.734 48.46C534.56 48.2867 534.327 48.1467 534.034 48.04C533.754 47.92 533.38 47.86 532.914 47.86C532.247 47.86 531.747 48 531.414 48.28C531.08 48.56 530.914 48.9133 530.914 49.34C530.914 49.5933 530.987 49.82 531.134 50.02C531.28 50.22 531.56 50.4 531.974 50.56C532.387 50.72 533 50.8933 533.814 51.08C534.694 51.2533 535.387 51.4867 535.894 51.78C536.4 52.0733 536.76 52.4133 536.974 52.8C537.187 53.1867 537.294 53.6333 537.294 54.14C537.294 54.7 537.127 55.2133 536.794 55.68C536.474 56.1467 535.994 56.52 535.354 56.8C534.727 57.0667 533.947 57.2 533.014 57.2ZM540.389 57C540.256 57 540.142 56.96 540.049 56.88C539.969 56.7867 539.929 56.6733 539.929 56.54V43.26C539.929 43.1267 539.969 43.02 540.049 42.94C540.142 42.8467 540.256 42.8 540.389 42.8H541.389C541.536 42.8 541.649 42.8467 541.729 42.94C541.809 43.02 541.849 43.1267 541.849 43.26V47.92C542.209 47.4667 542.649 47.1 543.169 46.82C543.689 46.54 544.349 46.4 545.149 46.4C546.016 46.4 546.749 46.5933 547.349 46.98C547.962 47.3533 548.422 47.88 548.729 48.56C549.049 49.2267 549.209 50.0067 549.209 50.9V56.54C549.209 56.6733 549.169 56.7867 549.089 56.88C549.009 56.96 548.896 57 548.749 57H547.749C547.616 57 547.502 56.96 547.409 56.88C547.329 56.7867 547.289 56.6733 547.289 56.54V51C547.289 50.0667 547.062 49.34 546.609 48.82C546.156 48.2867 545.489 48.02 544.609 48.02C543.782 48.02 543.116 48.2867 542.609 48.82C542.102 49.34 541.849 50.0667 541.849 51V56.54C541.849 56.6733 541.809 56.7867 541.729 56.88C541.649 56.96 541.536 57 541.389 57H540.389ZM557.536 57.2C556.736 57.2 556.07 57.06 555.536 56.78C555.003 56.4867 554.576 56.1267 554.256 55.7V56.54C554.256 56.6733 554.21 56.7867 554.116 56.88C554.036 56.96 553.93 57 553.796 57H552.876C552.743 57 552.63 56.96 552.536 56.88C552.456 56.7867 552.416 56.6733 552.416 56.54V43.26C552.416 43.1267 552.456 43.02 552.536 42.94C552.63 42.8467 552.743 42.8 552.876 42.8H553.836C553.983 42.8 554.096 42.8467 554.176 42.94C554.256 43.02 554.296 43.1267 554.296 43.26V47.86C554.63 47.4467 555.056 47.1 555.576 46.82C556.11 46.54 556.763 46.4 557.536 46.4C558.283 46.4 558.916 46.5333 559.436 46.8C559.97 47.0533 560.403 47.4067 560.736 47.86C561.083 48.3133 561.343 48.8267 561.516 49.4C561.69 49.9733 561.783 50.5733 561.796 51.2C561.81 51.4133 561.816 51.6133 561.816 51.8C561.816 51.9867 561.81 52.1867 561.796 52.4C561.783 53.04 561.69 53.6467 561.516 54.22C561.343 54.7933 561.083 55.3067 560.736 55.76C560.403 56.2 559.97 56.5533 559.436 56.82C558.916 57.0733 558.283 57.2 557.536 57.2ZM557.116 55.58C557.81 55.58 558.35 55.4333 558.736 55.14C559.136 54.8333 559.423 54.44 559.596 53.96C559.77 53.4667 559.87 52.94 559.896 52.38C559.91 51.9933 559.91 51.6067 559.896 51.22C559.87 50.66 559.77 50.14 559.596 49.66C559.423 49.1667 559.136 48.7733 558.736 48.48C558.35 48.1733 557.81 48.02 557.116 48.02C556.49 48.02 555.97 48.1667 555.556 48.46C555.143 48.7533 554.83 49.1267 554.616 49.58C554.416 50.0333 554.31 50.4933 554.296 50.96C554.283 51.1733 554.276 51.4333 554.276 51.74C554.276 52.0333 554.283 52.2867 554.296 52.5C554.323 52.9933 554.43 53.48 554.616 53.96C554.816 54.4267 555.116 54.8133 555.516 55.12C555.93 55.4267 556.463 55.58 557.116 55.58ZM568.851 57.2C567.838 57.2 566.991 57.0067 566.311 56.62C565.631 56.2333 565.111 55.7 564.751 55.02C564.391 54.3267 564.191 53.54 564.151 52.66C564.138 52.4333 564.131 52.1467 564.131 51.8C564.131 51.44 564.138 51.1533 564.151 50.94C564.191 50.0467 564.391 49.26 564.751 48.58C565.124 47.9 565.651 47.3667 566.331 46.98C567.011 46.5933 567.851 46.4 568.851 46.4C569.851 46.4 570.691 46.5933 571.371 46.98C572.051 47.3667 572.571 47.9 572.931 48.58C573.304 49.26 573.511 50.0467 573.551 50.94C573.564 51.1533 573.571 51.44 573.571 51.8C573.571 52.1467 573.564 52.4333 573.551 52.66C573.511 53.54 573.311 54.3267 572.951 55.02C572.591 55.7 572.071 56.2333 571.391 56.62C570.711 57.0067 569.864 57.2 568.851 57.2ZM568.851 55.66C569.678 55.66 570.338 55.4 570.831 54.88C571.324 54.3467 571.591 53.5733 571.631 52.56C571.644 52.36 571.651 52.1067 571.651 51.8C571.651 51.4933 571.644 51.24 571.631 51.04C571.591 50.0267 571.324 49.26 570.831 48.74C570.338 48.2067 569.678 47.94 568.851 47.94C568.024 47.94 567.358 48.2067 566.851 48.74C566.358 49.26 566.098 50.0267 566.071 51.04C566.058 51.24 566.051 51.4933 566.051 51.8C566.051 52.1067 566.058 52.36 566.071 52.56C566.098 53.5733 566.358 54.3467 566.851 54.88C567.358 55.4 568.024 55.66 568.851 55.66ZM579.275 57.2C578.609 57.2 578.002 57.0667 577.455 56.8C576.909 56.5333 576.469 56.1733 576.135 55.72C575.802 55.2667 575.635 54.7533 575.635 54.18C575.635 53.26 576.009 52.5267 576.755 51.98C577.502 51.4333 578.475 51.0733 579.675 50.9L582.655 50.48V49.9C582.655 49.26 582.469 48.76 582.095 48.4C581.735 48.04 581.142 47.86 580.315 47.86C579.715 47.86 579.229 47.98 578.855 48.22C578.495 48.46 578.242 48.7667 578.095 49.14C578.015 49.34 577.875 49.44 577.675 49.44H576.775C576.629 49.44 576.515 49.4 576.435 49.32C576.369 49.2267 576.335 49.12 576.335 49C576.335 48.8 576.409 48.5533 576.555 48.26C576.715 47.9667 576.955 47.68 577.275 47.4C577.595 47.12 578.002 46.8867 578.495 46.7C579.002 46.5 579.615 46.4 580.335 46.4C581.135 46.4 581.809 46.5067 582.355 46.72C582.902 46.92 583.329 47.1933 583.635 47.54C583.955 47.8867 584.182 48.28 584.315 48.72C584.462 49.16 584.535 49.6067 584.535 50.06V56.54C584.535 56.6733 584.489 56.7867 584.395 56.88C584.315 56.96 584.209 57 584.075 57H583.155C583.009 57 582.895 56.96 582.815 56.88C582.735 56.7867 582.695 56.6733 582.695 56.54V55.68C582.522 55.92 582.289 56.16 581.995 56.4C581.702 56.6267 581.335 56.82 580.895 56.98C580.455 57.1267 579.915 57.2 579.275 57.2ZM579.695 55.7C580.242 55.7 580.742 55.5867 581.195 55.36C581.649 55.12 582.002 54.7533 582.255 54.26C582.522 53.7667 582.655 53.1467 582.655 52.4V51.84L580.335 52.18C579.389 52.3133 578.675 52.54 578.195 52.86C577.715 53.1667 577.475 53.56 577.475 54.04C577.475 54.4133 577.582 54.7267 577.795 54.98C578.022 55.22 578.302 55.4 578.635 55.52C578.982 55.64 579.335 55.7 579.695 55.7ZM588.17 57C588.037 57 587.924 56.96 587.83 56.88C587.75 56.7867 587.71 56.6733 587.71 56.54V47.08C587.71 46.9467 587.75 46.8333 587.83 46.74C587.924 46.6467 588.037 46.6 588.17 46.6H589.09C589.224 46.6 589.337 46.6467 589.43 46.74C589.524 46.8333 589.57 46.9467 589.57 47.08V47.96C589.837 47.5067 590.204 47.1667 590.67 46.94C591.137 46.7133 591.697 46.6 592.35 46.6H593.15C593.284 46.6 593.39 46.6467 593.47 46.74C593.55 46.82 593.59 46.9267 593.59 47.06V47.88C593.59 48.0133 593.55 48.12 593.47 48.2C593.39 48.28 593.284 48.32 593.15 48.32H591.95C591.23 48.32 590.664 48.5333 590.25 48.96C589.837 49.3733 589.63 49.94 589.63 50.66V56.54C589.63 56.6733 589.584 56.7867 589.49 56.88C589.397 56.96 589.284 57 589.15 57H588.17ZM599.193 57.2C598.46 57.2 597.827 57.0733 597.293 56.82C596.76 56.5533 596.32 56.2 595.973 55.76C595.64 55.3067 595.387 54.7933 595.213 54.22C595.053 53.6467 594.96 53.04 594.933 52.4C594.92 52.1867 594.913 51.9867 594.913 51.8C594.913 51.6133 594.92 51.4133 594.933 51.2C594.96 50.5733 595.053 49.9733 595.213 49.4C595.387 48.8267 595.64 48.3133 595.973 47.86C596.32 47.4067 596.76 47.0533 597.293 46.8C597.827 46.5333 598.46 46.4 599.193 46.4C599.98 46.4 600.633 46.54 601.153 46.82C601.673 47.1 602.1 47.4467 602.433 47.86V43.26C602.433 43.1267 602.473 43.02 602.553 42.94C602.647 42.8467 602.76 42.8 602.893 42.8H603.853C603.987 42.8 604.093 42.8467 604.173 42.94C604.267 43.02 604.313 43.1267 604.313 43.26V56.54C604.313 56.6733 604.267 56.7867 604.173 56.88C604.093 56.96 603.987 57 603.853 57H602.953C602.807 57 602.693 56.96 602.613 56.88C602.533 56.7867 602.493 56.6733 602.493 56.54V55.7C602.16 56.1267 601.727 56.4867 601.193 56.78C600.66 57.06 599.993 57.2 599.193 57.2ZM599.613 55.58C600.28 55.58 600.813 55.4267 601.213 55.12C601.613 54.8133 601.913 54.4267 602.113 53.96C602.313 53.48 602.42 52.9933 602.433 52.5C602.447 52.2867 602.453 52.0333 602.453 51.74C602.453 51.4333 602.447 51.1733 602.433 50.96C602.42 50.4933 602.307 50.0333 602.093 49.58C601.893 49.1267 601.587 48.7533 601.173 48.46C600.773 48.1667 600.253 48.02 599.613 48.02C598.933 48.02 598.393 48.1733 597.993 48.48C597.593 48.7733 597.307 49.1667 597.133 49.66C596.96 50.14 596.86 50.66 596.833 51.22C596.82 51.6067 596.82 51.9933 596.833 52.38C596.86 52.94 596.96 53.4667 597.133 53.96C597.307 54.44 597.593 54.8333 597.993 55.14C598.393 55.4333 598.933 55.58 599.613 55.58Z" fill="white"/>
<defs>
<clipPath id="clip0_1029_15767">
<rect width="20" height="20" fill="white" transform="translate(24 40)"/>
</clipPath>
</defs>
</svg>
