<svg width="1240" height="100" viewBox="0 0 1240 100" fill="none" xmlns="http://www.w3.org/2000/svg">
<rect width="1240" height="100" rx="5" fill="#10B981"/>
<g clip-path="url(#clip0_1029_15768)">
<path d="M34.0003 58.3332C38.6027 58.3332 42.3337 54.6022 42.3337 49.9998C42.3337 45.3975 38.6027 41.6665 34.0003 41.6665C29.398 41.6665 25.667 45.3975 25.667 49.9998C25.667 54.6022 29.398 58.3332 34.0003 58.3332Z" stroke="white" stroke-width="2" stroke-linecap="round" stroke-linejoin="round"/>
<path d="M34 53.3333V50" stroke="white" stroke-width="2" stroke-linecap="round" stroke-linejoin="round"/>
<path d="M34 46.6665H34.0083" stroke="white" stroke-width="2" stroke-linecap="round" stroke-linejoin="round"/>
</g>
<path d="M61.94 57C61.8067 57 61.6933 56.96 61.6 56.88C61.52 56.7867 61.48 56.6733 61.48 56.54V51.82L56.66 43.66C56.6467 43.62 56.6333 43.58 56.62 43.54C56.6067 43.5 56.6 43.4533 56.6 43.4C56.6 43.2933 56.64 43.2 56.72 43.12C56.8 43.04 56.8933 43 57 43H58.04C58.16 43 58.2667 43.0333 58.36 43.1C58.4533 43.1533 58.52 43.2333 58.56 43.34L62.46 49.82L66.36 43.34C66.4267 43.2333 66.5 43.1533 66.58 43.1C66.6733 43.0333 66.78 43 66.9 43H67.92C68.04 43 68.14 43.04 68.22 43.12C68.3 43.2 68.34 43.2933 68.34 43.4C68.34 43.4533 68.3333 43.5 68.32 43.54C68.3067 43.58 68.2867 43.62 68.26 43.66L63.46 51.82V56.54C63.46 56.6733 63.4133 56.7867 63.32 56.88C63.24 56.96 63.1267 57 62.98 57H61.94ZM73.3095 57.2C72.2962 57.2 71.4495 57.0067 70.7695 56.62C70.0895 56.2333 69.5695 55.7 69.2095 55.02C68.8495 54.3267 68.6495 53.54 68.6095 52.66C68.5962 52.4333 68.5895 52.1467 68.5895 51.8C68.5895 51.44 68.5962 51.1533 68.6095 50.94C68.6495 50.0467 68.8495 49.26 69.2095 48.58C69.5829 47.9 70.1095 47.3667 70.7895 46.98C71.4695 46.5933 72.3095 46.4 73.3095 46.4C74.3095 46.4 75.1495 46.5933 75.8295 46.98C76.5095 47.3667 77.0295 47.9 77.3895 48.58C77.7629 49.26 77.9695 50.0467 78.0095 50.94C78.0229 51.1533 78.0295 51.44 78.0295 51.8C78.0295 52.1467 78.0229 52.4333 78.0095 52.66C77.9695 53.54 77.7695 54.3267 77.4095 55.02C77.0495 55.7 76.5295 56.2333 75.8495 56.62C75.1695 57.0067 74.3229 57.2 73.3095 57.2ZM73.3095 55.66C74.1362 55.66 74.7962 55.4 75.2895 54.88C75.7829 54.3467 76.0495 53.5733 76.0895 52.56C76.1029 52.36 76.1095 52.1067 76.1095 51.8C76.1095 51.4933 76.1029 51.24 76.0895 51.04C76.0495 50.0267 75.7829 49.26 75.2895 48.74C74.7962 48.2067 74.1362 47.94 73.3095 47.94C72.4829 47.94 71.8162 48.2067 71.3095 48.74C70.8162 49.26 70.5562 50.0267 70.5295 51.04C70.5162 51.24 70.5095 51.4933 70.5095 51.8C70.5095 52.1067 70.5162 52.36 70.5295 52.56C70.5562 53.5733 70.8162 54.3467 71.3095 54.88C71.8162 55.4 72.4829 55.66 73.3095 55.66ZM84.7139 57.2C83.8606 57.2 83.1339 57.0133 82.5339 56.64C81.9472 56.2533 81.5006 55.72 81.1939 55.04C80.8872 54.36 80.7339 53.58 80.7339 52.7V47.06C80.7339 46.9267 80.7739 46.82 80.8539 46.74C80.9472 46.6467 81.0606 46.6 81.1939 46.6H82.1939C82.3272 46.6 82.4339 46.6467 82.5139 46.74C82.6072 46.82 82.6539 46.9267 82.6539 47.06V52.6C82.6539 54.5867 83.5206 55.58 85.2539 55.58C86.0806 55.58 86.7406 55.32 87.2339 54.8C87.7406 54.2667 87.9939 53.5333 87.9939 52.6V47.06C87.9939 46.9267 88.0339 46.82 88.1139 46.74C88.2072 46.6467 88.3206 46.6 88.4539 46.6H89.4339C89.5806 46.6 89.6939 46.6467 89.7739 46.74C89.8539 46.82 89.8939 46.9267 89.8939 47.06V56.54C89.8939 56.6733 89.8539 56.7867 89.7739 56.88C89.6939 56.96 89.5806 57 89.4339 57H88.5139C88.3806 57 88.2672 56.96 88.1739 56.88C88.0939 56.7867 88.0539 56.6733 88.0539 56.54V55.66C87.6939 56.1267 87.2539 56.5 86.7339 56.78C86.2272 57.06 85.5539 57.2 84.7139 57.2ZM93.6252 57C93.4918 57 93.3785 56.96 93.2852 56.88C93.2052 56.7867 93.1652 56.6733 93.1652 56.54V47.08C93.1652 46.9467 93.2052 46.8333 93.2852 46.74C93.3785 46.6467 93.4918 46.6 93.6252 46.6H94.5452C94.6785 46.6 94.7918 46.6467 94.8852 46.74C94.9785 46.8333 95.0252 46.9467 95.0252 47.08V47.96C95.2918 47.5067 95.6585 47.1667 96.1252 46.94C96.5918 46.7133 97.1518 46.6 97.8052 46.6H98.6052C98.7385 46.6 98.8452 46.6467 98.9252 46.74C99.0052 46.82 99.0452 46.9267 99.0452 47.06V47.88C99.0452 48.0133 99.0052 48.12 98.9252 48.2C98.8452 48.28 98.7385 48.32 98.6052 48.32H97.4052C96.6852 48.32 96.1185 48.5333 95.7052 48.96C95.2918 49.3733 95.0852 49.94 95.0852 50.66V56.54C95.0852 56.6733 95.0385 56.7867 94.9452 56.88C94.8518 56.96 94.7385 57 94.6052 57H93.6252ZM108.696 57.2C108.03 57.2 107.423 57.0667 106.876 56.8C106.33 56.5333 105.89 56.1733 105.556 55.72C105.223 55.2667 105.056 54.7533 105.056 54.18C105.056 53.26 105.43 52.5267 106.176 51.98C106.923 51.4333 107.896 51.0733 109.096 50.9L112.076 50.48V49.9C112.076 49.26 111.89 48.76 111.516 48.4C111.156 48.04 110.563 47.86 109.736 47.86C109.136 47.86 108.65 47.98 108.276 48.22C107.916 48.46 107.663 48.7667 107.516 49.14C107.436 49.34 107.296 49.44 107.096 49.44H106.196C106.05 49.44 105.936 49.4 105.856 49.32C105.79 49.2267 105.756 49.12 105.756 49C105.756 48.8 105.83 48.5533 105.976 48.26C106.136 47.9667 106.376 47.68 106.696 47.4C107.016 47.12 107.423 46.8867 107.916 46.7C108.423 46.5 109.036 46.4 109.756 46.4C110.556 46.4 111.23 46.5067 111.776 46.72C112.323 46.92 112.75 47.1933 113.056 47.54C113.376 47.8867 113.603 48.28 113.736 48.72C113.883 49.16 113.956 49.6067 113.956 50.06V56.54C113.956 56.6733 113.91 56.7867 113.816 56.88C113.736 56.96 113.63 57 113.496 57H112.576C112.43 57 112.316 56.96 112.236 56.88C112.156 56.7867 112.116 56.6733 112.116 56.54V55.68C111.943 55.92 111.71 56.16 111.416 56.4C111.123 56.6267 110.756 56.82 110.316 56.98C109.876 57.1267 109.336 57.2 108.696 57.2ZM109.116 55.7C109.663 55.7 110.163 55.5867 110.616 55.36C111.07 55.12 111.423 54.7533 111.676 54.26C111.943 53.7667 112.076 53.1467 112.076 52.4V51.84L109.756 52.18C108.81 52.3133 108.096 52.54 107.616 52.86C107.136 53.1667 106.896 53.56 106.896 54.04C106.896 54.4133 107.003 54.7267 107.216 54.98C107.443 55.22 107.723 55.4 108.056 55.52C108.403 55.64 108.756 55.7 109.116 55.7ZM121.332 57.2C120.385 57.2 119.565 57.02 118.872 56.66C118.192 56.2867 117.665 55.76 117.292 55.08C116.918 54.3867 116.718 53.56 116.692 52.6C116.678 52.4 116.672 52.1333 116.672 51.8C116.672 51.4667 116.678 51.2 116.692 51C116.718 50.04 116.918 49.22 117.292 48.54C117.665 47.8467 118.192 47.32 118.872 46.96C119.565 46.5867 120.385 46.4 121.332 46.4C122.105 46.4 122.765 46.5067 123.312 46.72C123.872 46.9333 124.332 47.2067 124.692 47.54C125.052 47.8733 125.318 48.2333 125.492 48.62C125.678 49.0067 125.778 49.3733 125.792 49.72C125.805 49.8533 125.765 49.96 125.672 50.04C125.578 50.12 125.465 50.16 125.332 50.16H124.372C124.238 50.16 124.138 50.1333 124.072 50.08C124.005 50.0133 123.938 49.9067 123.872 49.76C123.632 49.1067 123.305 48.6467 122.892 48.38C122.478 48.1133 121.965 47.98 121.352 47.98C120.552 47.98 119.898 48.2267 119.392 48.72C118.898 49.2133 118.632 50.0067 118.592 51.1C118.578 51.58 118.578 52.0467 118.592 52.5C118.632 53.6067 118.898 54.4067 119.392 54.9C119.898 55.38 120.552 55.62 121.352 55.62C121.965 55.62 122.478 55.4867 122.892 55.22C123.305 54.9533 123.632 54.4933 123.872 53.84C123.938 53.6933 124.005 53.5933 124.072 53.54C124.138 53.4733 124.238 53.44 124.372 53.44H125.332C125.465 53.44 125.578 53.48 125.672 53.56C125.765 53.64 125.805 53.7467 125.792 53.88C125.778 54.16 125.718 54.4467 125.612 54.74C125.505 55.0333 125.332 55.3333 125.092 55.64C124.865 55.9333 124.578 56.2 124.232 56.44C123.885 56.6667 123.465 56.8533 122.972 57C122.492 57.1333 121.945 57.2 121.332 57.2ZM132.667 57.2C131.72 57.2 130.9 57.02 130.207 56.66C129.527 56.2867 129 55.76 128.627 55.08C128.253 54.3867 128.053 53.56 128.027 52.6C128.013 52.4 128.007 52.1333 128.007 51.8C128.007 51.4667 128.013 51.2 128.027 51C128.053 50.04 128.253 49.22 128.627 48.54C129 47.8467 129.527 47.32 130.207 46.96C130.9 46.5867 131.72 46.4 132.667 46.4C133.44 46.4 134.1 46.5067 134.647 46.72C135.207 46.9333 135.667 47.2067 136.027 47.54C136.387 47.8733 136.653 48.2333 136.827 48.62C137.013 49.0067 137.113 49.3733 137.127 49.72C137.14 49.8533 137.1 49.96 137.007 50.04C136.913 50.12 136.8 50.16 136.667 50.16H135.707C135.573 50.16 135.473 50.1333 135.407 50.08C135.34 50.0133 135.273 49.9067 135.207 49.76C134.967 49.1067 134.64 48.6467 134.227 48.38C133.813 48.1133 133.3 47.98 132.687 47.98C131.887 47.98 131.233 48.2267 130.727 48.72C130.233 49.2133 129.967 50.0067 129.927 51.1C129.913 51.58 129.913 52.0467 129.927 52.5C129.967 53.6067 130.233 54.4067 130.727 54.9C131.233 55.38 131.887 55.62 132.687 55.62C133.3 55.62 133.813 55.4867 134.227 55.22C134.64 54.9533 134.967 54.4933 135.207 53.84C135.273 53.6933 135.34 53.5933 135.407 53.54C135.473 53.4733 135.573 53.44 135.707 53.44H136.667C136.8 53.44 136.913 53.48 137.007 53.56C137.1 53.64 137.14 53.7467 137.127 53.88C137.113 54.16 137.053 54.4467 136.947 54.74C136.84 55.0333 136.667 55.3333 136.427 55.64C136.2 55.9333 135.913 56.2 135.567 56.44C135.22 56.6667 134.8 56.8533 134.307 57C133.827 57.1333 133.28 57.2 132.667 57.2ZM144.062 57.2C143.049 57.2 142.202 57.0067 141.522 56.62C140.842 56.2333 140.322 55.7 139.962 55.02C139.602 54.3267 139.402 53.54 139.362 52.66C139.349 52.4333 139.342 52.1467 139.342 51.8C139.342 51.44 139.349 51.1533 139.362 50.94C139.402 50.0467 139.602 49.26 139.962 48.58C140.335 47.9 140.862 47.3667 141.542 46.98C142.222 46.5933 143.062 46.4 144.062 46.4C145.062 46.4 145.902 46.5933 146.582 46.98C147.262 47.3667 147.782 47.9 148.142 48.58C148.515 49.26 148.722 50.0467 148.762 50.94C148.775 51.1533 148.782 51.44 148.782 51.8C148.782 52.1467 148.775 52.4333 148.762 52.66C148.722 53.54 148.522 54.3267 148.162 55.02C147.802 55.7 147.282 56.2333 146.602 56.62C145.922 57.0067 145.075 57.2 144.062 57.2ZM144.062 55.66C144.889 55.66 145.549 55.4 146.042 54.88C146.535 54.3467 146.802 53.5733 146.842 52.56C146.855 52.36 146.862 52.1067 146.862 51.8C146.862 51.4933 146.855 51.24 146.842 51.04C146.802 50.0267 146.535 49.26 146.042 48.74C145.549 48.2067 144.889 47.94 144.062 47.94C143.235 47.94 142.569 48.2067 142.062 48.74C141.569 49.26 141.309 50.0267 141.282 51.04C141.269 51.24 141.262 51.4933 141.262 51.8C141.262 52.1067 141.269 52.36 141.282 52.56C141.309 53.5733 141.569 54.3467 142.062 54.88C142.569 55.4 143.235 55.66 144.062 55.66ZM155.466 57.2C154.613 57.2 153.886 57.0133 153.286 56.64C152.7 56.2533 152.253 55.72 151.946 55.04C151.64 54.36 151.486 53.58 151.486 52.7V47.06C151.486 46.9267 151.526 46.82 151.606 46.74C151.7 46.6467 151.813 46.6 151.946 46.6H152.946C153.08 46.6 153.186 46.6467 153.266 46.74C153.36 46.82 153.406 46.9267 153.406 47.06V52.6C153.406 54.5867 154.273 55.58 156.006 55.58C156.833 55.58 157.493 55.32 157.986 54.8C158.493 54.2667 158.746 53.5333 158.746 52.6V47.06C158.746 46.9267 158.786 46.82 158.866 46.74C158.96 46.6467 159.073 46.6 159.206 46.6H160.186C160.333 46.6 160.446 46.6467 160.526 46.74C160.606 46.82 160.646 46.9267 160.646 47.06V56.54C160.646 56.6733 160.606 56.7867 160.526 56.88C160.446 56.96 160.333 57 160.186 57H159.266C159.133 57 159.02 56.96 158.926 56.88C158.846 56.7867 158.806 56.6733 158.806 56.54V55.66C158.446 56.1267 158.006 56.5 157.486 56.78C156.98 57.06 156.306 57.2 155.466 57.2ZM164.378 57C164.244 57 164.131 56.96 164.038 56.88C163.958 56.7867 163.918 56.6733 163.918 56.54V47.06C163.918 46.9267 163.958 46.82 164.038 46.74C164.131 46.6467 164.244 46.6 164.378 46.6H165.318C165.451 46.6 165.558 46.6467 165.638 46.74C165.731 46.82 165.778 46.9267 165.778 47.06V47.94C166.124 47.4867 166.558 47.12 167.078 46.84C167.611 46.5467 168.291 46.4 169.118 46.4C169.984 46.4 170.718 46.5933 171.318 46.98C171.931 47.3533 172.391 47.88 172.698 48.56C173.004 49.2267 173.158 50.0067 173.158 50.9V56.54C173.158 56.6733 173.118 56.7867 173.038 56.88C172.958 56.96 172.851 57 172.717 57H171.718C171.584 57 171.471 56.96 171.378 56.88C171.298 56.7867 171.258 56.6733 171.258 56.54V51C171.258 50.0667 171.031 49.34 170.578 48.82C170.124 48.2867 169.458 48.02 168.578 48.02C167.751 48.02 167.084 48.2867 166.578 48.82C166.084 49.34 165.838 50.0667 165.838 51V56.54C165.838 56.6733 165.791 56.7867 165.698 56.88C165.618 56.96 165.511 57 165.377 57H164.378ZM180.27 57C179.523 57 178.916 56.86 178.45 56.58C177.983 56.2867 177.643 55.88 177.43 55.36C177.216 54.8267 177.11 54.2 177.11 53.48V48.2H175.55C175.416 48.2 175.303 48.16 175.21 48.08C175.13 47.9867 175.09 47.8733 175.09 47.74V47.06C175.09 46.9267 175.13 46.82 175.21 46.74C175.303 46.6467 175.416 46.6 175.55 46.6H177.11V43.26C177.11 43.1267 177.15 43.02 177.23 42.94C177.323 42.8467 177.436 42.8 177.57 42.8H178.51C178.643 42.8 178.75 42.8467 178.83 42.94C178.923 43.02 178.97 43.1267 178.97 43.26V46.6H181.45C181.583 46.6 181.69 46.6467 181.77 46.74C181.863 46.82 181.91 46.9267 181.91 47.06V47.74C181.91 47.8733 181.863 47.9867 181.77 48.08C181.69 48.16 181.583 48.2 181.45 48.2H178.97V53.34C178.97 53.9667 179.076 54.46 179.29 54.82C179.503 55.18 179.883 55.36 180.43 55.36H181.65C181.783 55.36 181.89 55.4067 181.97 55.5C182.063 55.58 182.11 55.6867 182.11 55.82V56.54C182.11 56.6733 182.063 56.7867 181.97 56.88C181.89 56.96 181.783 57 181.65 57H180.27ZM190.005 57C189.871 57 189.758 56.96 189.665 56.88C189.585 56.7867 189.545 56.6733 189.545 56.54V43.26C189.545 43.1267 189.585 43.02 189.665 42.94C189.758 42.8467 189.871 42.8 190.005 42.8H191.005C191.151 42.8 191.265 42.8467 191.345 42.94C191.425 43.02 191.465 43.1267 191.465 43.26V47.92C191.825 47.4667 192.265 47.1 192.785 46.82C193.305 46.54 193.965 46.4 194.765 46.4C195.631 46.4 196.365 46.5933 196.965 46.98C197.578 47.3533 198.038 47.88 198.345 48.56C198.665 49.2267 198.825 50.0067 198.825 50.9V56.54C198.825 56.6733 198.785 56.7867 198.705 56.88C198.625 56.96 198.511 57 198.365 57H197.365C197.231 57 197.118 56.96 197.025 56.88C196.945 56.7867 196.905 56.6733 196.905 56.54V51C196.905 50.0667 196.678 49.34 196.225 48.82C195.771 48.2867 195.105 48.02 194.225 48.02C193.398 48.02 192.731 48.2867 192.225 48.82C191.718 49.34 191.465 50.0667 191.465 51V56.54C191.465 56.6733 191.425 56.7867 191.345 56.88C191.265 56.96 191.151 57 191.005 57H190.005ZM204.912 57.2C204.245 57.2 203.639 57.0667 203.092 56.8C202.545 56.5333 202.105 56.1733 201.772 55.72C201.439 55.2667 201.272 54.7533 201.272 54.18C201.272 53.26 201.645 52.5267 202.392 51.98C203.139 51.4333 204.112 51.0733 205.312 50.9L208.292 50.48V49.9C208.292 49.26 208.105 48.76 207.732 48.4C207.372 48.04 206.779 47.86 205.952 47.86C205.352 47.86 204.865 47.98 204.492 48.22C204.132 48.46 203.879 48.7667 203.732 49.14C203.652 49.34 203.512 49.44 203.312 49.44H202.412C202.265 49.44 202.152 49.4 202.072 49.32C202.005 49.2267 201.972 49.12 201.972 49C201.972 48.8 202.045 48.5533 202.192 48.26C202.352 47.9667 202.592 47.68 202.912 47.4C203.232 47.12 203.639 46.8867 204.132 46.7C204.639 46.5 205.252 46.4 205.972 46.4C206.772 46.4 207.445 46.5067 207.992 46.72C208.539 46.92 208.965 47.1933 209.272 47.54C209.592 47.8867 209.819 48.28 209.952 48.72C210.099 49.16 210.172 49.6067 210.172 50.06V56.54C210.172 56.6733 210.125 56.7867 210.032 56.88C209.952 56.96 209.845 57 209.712 57H208.792C208.645 57 208.532 56.96 208.452 56.88C208.372 56.7867 208.332 56.6733 208.332 56.54V55.68C208.159 55.92 207.925 56.16 207.632 56.4C207.339 56.6267 206.972 56.82 206.532 56.98C206.092 57.1267 205.552 57.2 204.912 57.2ZM205.332 55.7C205.879 55.7 206.379 55.5867 206.832 55.36C207.285 55.12 207.639 54.7533 207.892 54.26C208.159 53.7667 208.292 53.1467 208.292 52.4V51.84L205.972 52.18C205.025 52.3133 204.312 52.54 203.832 52.86C203.352 53.1667 203.112 53.56 203.112 54.04C203.112 54.4133 203.219 54.7267 203.432 54.98C203.659 55.22 203.939 55.4 204.272 55.52C204.619 55.64 204.972 55.7 205.332 55.7ZM216.947 57.2C216.201 57.2 215.561 57.1067 215.027 56.92C214.494 56.7333 214.061 56.5067 213.727 56.24C213.394 55.9733 213.141 55.7067 212.967 55.44C212.807 55.1733 212.721 54.96 212.707 54.8C212.694 54.6533 212.741 54.54 212.847 54.46C212.954 54.38 213.061 54.34 213.167 54.34H214.047C214.127 54.34 214.187 54.3533 214.227 54.38C214.281 54.3933 214.347 54.4467 214.427 54.54C214.601 54.7267 214.794 54.9133 215.007 55.1C215.221 55.2867 215.481 55.44 215.787 55.56C216.107 55.68 216.501 55.74 216.967 55.74C217.647 55.74 218.207 55.6133 218.647 55.36C219.087 55.0933 219.307 54.7067 219.307 54.2C219.307 53.8667 219.214 53.6 219.027 53.4C218.854 53.2 218.534 53.02 218.067 52.86C217.614 52.7 216.987 52.5333 216.187 52.36C215.387 52.1733 214.754 51.9467 214.287 51.68C213.821 51.4 213.487 51.0733 213.287 50.7C213.087 50.3133 212.987 49.88 212.987 49.4C212.987 48.9067 213.134 48.4333 213.427 47.98C213.721 47.5133 214.147 47.1333 214.707 46.84C215.281 46.5467 215.994 46.4 216.847 46.4C217.541 46.4 218.134 46.4867 218.627 46.66C219.121 46.8333 219.527 47.0533 219.847 47.32C220.167 47.5733 220.407 47.8267 220.567 48.08C220.727 48.3333 220.814 48.5467 220.827 48.72C220.841 48.8533 220.801 48.9667 220.707 49.06C220.614 49.14 220.507 49.18 220.387 49.18H219.547C219.454 49.18 219.374 49.16 219.307 49.12C219.254 49.08 219.201 49.0333 219.147 48.98C219.014 48.8067 218.854 48.6333 218.667 48.46C218.494 48.2867 218.261 48.1467 217.967 48.04C217.687 47.92 217.314 47.86 216.847 47.86C216.181 47.86 215.681 48 215.347 48.28C215.014 48.56 214.847 48.9133 214.847 49.34C214.847 49.5933 214.921 49.82 215.067 50.02C215.214 50.22 215.494 50.4 215.907 50.56C216.321 50.72 216.934 50.8933 217.747 51.08C218.627 51.2533 219.321 51.4867 219.827 51.78C220.334 52.0733 220.694 52.4133 220.907 52.8C221.121 53.1867 221.227 53.6333 221.227 54.14C221.227 54.7 221.061 55.2133 220.727 55.68C220.407 56.1467 219.927 56.52 219.287 56.8C218.661 57.0667 217.881 57.2 216.947 57.2ZM234.185 57.2C233.385 57.2 232.718 57.06 232.185 56.78C231.652 56.4867 231.225 56.1267 230.905 55.7V56.54C230.905 56.6733 230.858 56.7867 230.765 56.88C230.685 56.96 230.578 57 230.445 57H229.525C229.392 57 229.278 56.96 229.185 56.88C229.105 56.7867 229.065 56.6733 229.065 56.54V43.26C229.065 43.1267 229.105 43.02 229.185 42.94C229.278 42.8467 229.392 42.8 229.525 42.8H230.485C230.632 42.8 230.745 42.8467 230.825 42.94C230.905 43.02 230.945 43.1267 230.945 43.26V47.86C231.278 47.4467 231.705 47.1 232.225 46.82C232.758 46.54 233.412 46.4 234.185 46.4C234.932 46.4 235.565 46.5333 236.085 46.8C236.618 47.0533 237.052 47.4067 237.385 47.86C237.732 48.3133 237.992 48.8267 238.165 49.4C238.338 49.9733 238.432 50.5733 238.445 51.2C238.458 51.4133 238.465 51.6133 238.465 51.8C238.465 51.9867 238.458 52.1867 238.445 52.4C238.432 53.04 238.338 53.6467 238.165 54.22C237.992 54.7933 237.732 55.3067 237.385 55.76C237.052 56.2 236.618 56.5533 236.085 56.82C235.565 57.0733 234.932 57.2 234.185 57.2ZM233.765 55.58C234.458 55.58 234.998 55.4333 235.385 55.14C235.785 54.8333 236.072 54.44 236.245 53.96C236.418 53.4667 236.518 52.94 236.545 52.38C236.558 51.9933 236.558 51.6067 236.545 51.22C236.518 50.66 236.418 50.14 236.245 49.66C236.072 49.1667 235.785 48.7733 235.385 48.48C234.998 48.1733 234.458 48.02 233.765 48.02C233.138 48.02 232.618 48.1667 232.205 48.46C231.792 48.7533 231.478 49.1267 231.265 49.58C231.065 50.0333 230.958 50.4933 230.945 50.96C230.932 51.1733 230.925 51.4333 230.925 51.74C230.925 52.0333 230.932 52.2867 230.945 52.5C230.972 52.9933 231.078 53.48 231.265 53.96C231.465 54.4267 231.765 54.8133 232.165 55.12C232.578 55.4267 233.112 55.58 233.765 55.58ZM245.379 57.2C244.006 57.2 242.913 56.78 242.099 55.94C241.286 55.0867 240.839 53.9267 240.759 52.46C240.746 52.2867 240.739 52.0667 240.739 51.8C240.739 51.52 240.746 51.2933 240.759 51.12C240.813 50.1733 241.033 49.3467 241.419 48.64C241.806 47.92 242.333 47.3667 242.999 46.98C243.679 46.5933 244.473 46.4 245.379 46.4C246.393 46.4 247.239 46.6133 247.919 47.04C248.613 47.4667 249.139 48.0733 249.499 48.86C249.859 49.6467 250.039 50.5667 250.039 51.62V51.96C250.039 52.1067 249.993 52.22 249.899 52.3C249.819 52.38 249.713 52.42 249.579 52.42H242.659C242.659 52.4333 242.659 52.46 242.659 52.5C242.659 52.54 242.659 52.5733 242.659 52.6C242.686 53.1467 242.806 53.66 243.019 54.14C243.233 54.6067 243.539 54.9867 243.939 55.28C244.339 55.5733 244.819 55.72 245.379 55.72C245.859 55.72 246.259 55.6467 246.579 55.5C246.899 55.3533 247.159 55.1933 247.359 55.02C247.559 54.8333 247.693 54.6933 247.759 54.6C247.879 54.4267 247.973 54.3267 248.039 54.3C248.106 54.26 248.213 54.24 248.359 54.24H249.319C249.453 54.24 249.559 54.28 249.639 54.36C249.733 54.4267 249.773 54.5267 249.759 54.66C249.746 54.86 249.639 55.1067 249.439 55.4C249.239 55.68 248.953 55.96 248.579 56.24C248.206 56.52 247.753 56.7533 247.219 56.94C246.686 57.1133 246.073 57.2 245.379 57.2ZM242.659 51.04H248.139V50.98C248.139 50.38 248.026 49.8467 247.799 49.38C247.586 48.9133 247.273 48.5467 246.859 48.28C246.446 48 245.953 47.86 245.379 47.86C244.806 47.86 244.313 48 243.899 48.28C243.499 48.5467 243.193 48.9133 242.979 49.38C242.766 49.8467 242.659 50.38 242.659 50.98V51.04ZM256.871 57.2C255.497 57.2 254.404 56.78 253.591 55.94C252.777 55.0867 252.331 53.9267 252.251 52.46C252.237 52.2867 252.231 52.0667 252.231 51.8C252.231 51.52 252.237 51.2933 252.251 51.12C252.304 50.1733 252.524 49.3467 252.911 48.64C253.297 47.92 253.824 47.3667 254.491 46.98C255.171 46.5933 255.964 46.4 256.871 46.4C257.884 46.4 258.731 46.6133 259.411 47.04C260.104 47.4667 260.631 48.0733 260.991 48.86C261.351 49.6467 261.531 50.5667 261.531 51.62V51.96C261.531 52.1067 261.484 52.22 261.391 52.3C261.311 52.38 261.204 52.42 261.071 52.42H254.151C254.151 52.4333 254.151 52.46 254.151 52.5C254.151 52.54 254.151 52.5733 254.151 52.6C254.177 53.1467 254.297 53.66 254.511 54.14C254.724 54.6067 255.031 54.9867 255.431 55.28C255.831 55.5733 256.311 55.72 256.871 55.72C257.351 55.72 257.751 55.6467 258.071 55.5C258.391 55.3533 258.651 55.1933 258.851 55.02C259.051 54.8333 259.184 54.6933 259.251 54.6C259.371 54.4267 259.464 54.3267 259.531 54.3C259.597 54.26 259.704 54.24 259.851 54.24H260.811C260.944 54.24 261.051 54.28 261.131 54.36C261.224 54.4267 261.264 54.5267 261.251 54.66C261.237 54.86 261.131 55.1067 260.931 55.4C260.731 55.68 260.444 55.96 260.071 56.24C259.697 56.52 259.244 56.7533 258.711 56.94C258.177 57.1133 257.564 57.2 256.871 57.2ZM254.151 51.04H259.631V50.98C259.631 50.38 259.517 49.8467 259.291 49.38C259.077 48.9133 258.764 48.5467 258.351 48.28C257.937 48 257.444 47.86 256.871 47.86C256.297 47.86 255.804 48 255.391 48.28C254.991 48.5467 254.684 48.9133 254.471 49.38C254.257 49.8467 254.151 50.38 254.151 50.98V51.04ZM264.682 57C264.549 57 264.436 56.96 264.342 56.88C264.262 56.7867 264.222 56.6733 264.222 56.54V47.06C264.222 46.9267 264.262 46.82 264.342 46.74C264.436 46.6467 264.549 46.6 264.682 46.6H265.622C265.756 46.6 265.862 46.6467 265.942 46.74C266.036 46.82 266.082 46.9267 266.082 47.06V47.94C266.429 47.4867 266.862 47.12 267.382 46.84C267.916 46.5467 268.596 46.4 269.422 46.4C270.289 46.4 271.022 46.5933 271.622 46.98C272.236 47.3533 272.696 47.88 273.002 48.56C273.309 49.2267 273.462 50.0067 273.462 50.9V56.54C273.462 56.6733 273.422 56.7867 273.342 56.88C273.262 56.96 273.156 57 273.022 57H272.022C271.889 57 271.776 56.96 271.682 56.88C271.602 56.7867 271.562 56.6733 271.562 56.54V51C271.562 50.0667 271.336 49.34 270.882 48.82C270.429 48.2867 269.762 48.02 268.882 48.02C268.056 48.02 267.389 48.2867 266.882 48.82C266.389 49.34 266.142 50.0667 266.142 51V56.54C266.142 56.6733 266.096 56.7867 266.002 56.88C265.922 56.96 265.816 57 265.682 57H264.682ZM285.453 57.2C284.707 57.2 284.067 57.1067 283.533 56.92C283 56.7333 282.567 56.5067 282.233 56.24C281.9 55.9733 281.647 55.7067 281.473 55.44C281.313 55.1733 281.227 54.96 281.213 54.8C281.2 54.6533 281.247 54.54 281.353 54.46C281.46 54.38 281.567 54.34 281.673 54.34H282.553C282.633 54.34 282.693 54.3533 282.733 54.38C282.787 54.3933 282.853 54.4467 282.933 54.54C283.107 54.7267 283.3 54.9133 283.513 55.1C283.727 55.2867 283.987 55.44 284.293 55.56C284.613 55.68 285.007 55.74 285.473 55.74C286.153 55.74 286.713 55.6133 287.153 55.36C287.593 55.0933 287.813 54.7067 287.813 54.2C287.813 53.8667 287.72 53.6 287.533 53.4C287.36 53.2 287.04 53.02 286.573 52.86C286.12 52.7 285.493 52.5333 284.693 52.36C283.893 52.1733 283.26 51.9467 282.793 51.68C282.327 51.4 281.993 51.0733 281.793 50.7C281.593 50.3133 281.493 49.88 281.493 49.4C281.493 48.9067 281.64 48.4333 281.933 47.98C282.227 47.5133 282.653 47.1333 283.213 46.84C283.787 46.5467 284.5 46.4 285.353 46.4C286.047 46.4 286.64 46.4867 287.133 46.66C287.627 46.8333 288.033 47.0533 288.353 47.32C288.673 47.5733 288.913 47.8267 289.073 48.08C289.233 48.3333 289.32 48.5467 289.333 48.72C289.347 48.8533 289.307 48.9667 289.213 49.06C289.12 49.14 289.013 49.18 288.893 49.18H288.053C287.96 49.18 287.88 49.16 287.813 49.12C287.76 49.08 287.707 49.0333 287.653 48.98C287.52 48.8067 287.36 48.6333 287.173 48.46C287 48.2867 286.767 48.1467 286.473 48.04C286.193 47.92 285.82 47.86 285.353 47.86C284.687 47.86 284.187 48 283.853 48.28C283.52 48.56 283.353 48.9133 283.353 49.34C283.353 49.5933 283.427 49.82 283.573 50.02C283.72 50.22 284 50.4 284.413 50.56C284.827 50.72 285.44 50.8933 286.253 51.08C287.133 51.2533 287.827 51.4867 288.333 51.78C288.84 52.0733 289.2 52.4133 289.413 52.8C289.627 53.1867 289.733 53.6333 289.733 54.14C289.733 54.7 289.567 55.2133 289.233 55.68C288.913 56.1467 288.433 56.52 287.793 56.8C287.167 57.0667 286.387 57.2 285.453 57.2ZM296.229 57.2C295.375 57.2 294.649 57.0133 294.049 56.64C293.462 56.2533 293.015 55.72 292.709 55.04C292.402 54.36 292.249 53.58 292.249 52.7V47.06C292.249 46.9267 292.289 46.82 292.369 46.74C292.462 46.6467 292.575 46.6 292.709 46.6H293.709C293.842 46.6 293.949 46.6467 294.029 46.74C294.122 46.82 294.169 46.9267 294.169 47.06V52.6C294.169 54.5867 295.035 55.58 296.769 55.58C297.595 55.58 298.255 55.32 298.749 54.8C299.255 54.2667 299.509 53.5333 299.509 52.6V47.06C299.509 46.9267 299.549 46.82 299.629 46.74C299.722 46.6467 299.835 46.6 299.969 46.6H300.949C301.095 46.6 301.209 46.6467 301.289 46.74C301.369 46.82 301.409 46.9267 301.409 47.06V56.54C301.409 56.6733 301.369 56.7867 301.289 56.88C301.209 56.96 301.095 57 300.949 57H300.029C299.895 57 299.782 56.96 299.689 56.88C299.609 56.7867 299.569 56.6733 299.569 56.54V55.66C299.209 56.1267 298.769 56.5 298.249 56.78C297.742 57.06 297.069 57.2 296.229 57.2ZM308.88 57.2C307.933 57.2 307.113 57.02 306.42 56.66C305.74 56.2867 305.213 55.76 304.84 55.08C304.467 54.3867 304.267 53.56 304.24 52.6C304.227 52.4 304.22 52.1333 304.22 51.8C304.22 51.4667 304.227 51.2 304.24 51C304.267 50.04 304.467 49.22 304.84 48.54C305.213 47.8467 305.74 47.32 306.42 46.96C307.113 46.5867 307.933 46.4 308.88 46.4C309.653 46.4 310.313 46.5067 310.86 46.72C311.42 46.9333 311.88 47.2067 312.24 47.54C312.6 47.8733 312.867 48.2333 313.04 48.62C313.227 49.0067 313.327 49.3733 313.34 49.72C313.353 49.8533 313.313 49.96 313.22 50.04C313.127 50.12 313.013 50.16 312.88 50.16H311.92C311.787 50.16 311.687 50.1333 311.62 50.08C311.553 50.0133 311.487 49.9067 311.42 49.76C311.18 49.1067 310.853 48.6467 310.44 48.38C310.027 48.1133 309.513 47.98 308.9 47.98C308.1 47.98 307.447 48.2267 306.94 48.72C306.447 49.2133 306.18 50.0067 306.14 51.1C306.127 51.58 306.127 52.0467 306.14 52.5C306.18 53.6067 306.447 54.4067 306.94 54.9C307.447 55.38 308.1 55.62 308.9 55.62C309.513 55.62 310.027 55.4867 310.44 55.22C310.853 54.9533 311.18 54.4933 311.42 53.84C311.487 53.6933 311.553 53.5933 311.62 53.54C311.687 53.4733 311.787 53.44 311.92 53.44H312.88C313.013 53.44 313.127 53.48 313.22 53.56C313.313 53.64 313.353 53.7467 313.34 53.88C313.327 54.16 313.267 54.4467 313.16 54.74C313.053 55.0333 312.88 55.3333 312.64 55.64C312.413 55.9333 312.127 56.2 311.78 56.44C311.433 56.6667 311.013 56.8533 310.52 57C310.04 57.1333 309.493 57.2 308.88 57.2ZM320.215 57.2C319.268 57.2 318.448 57.02 317.755 56.66C317.075 56.2867 316.548 55.76 316.175 55.08C315.802 54.3867 315.602 53.56 315.575 52.6C315.562 52.4 315.555 52.1333 315.555 51.8C315.555 51.4667 315.562 51.2 315.575 51C315.602 50.04 315.802 49.22 316.175 48.54C316.548 47.8467 317.075 47.32 317.755 46.96C318.448 46.5867 319.268 46.4 320.215 46.4C320.988 46.4 321.648 46.5067 322.195 46.72C322.755 46.9333 323.215 47.2067 323.575 47.54C323.935 47.8733 324.202 48.2333 324.375 48.62C324.562 49.0067 324.662 49.3733 324.675 49.72C324.688 49.8533 324.648 49.96 324.555 50.04C324.462 50.12 324.348 50.16 324.215 50.16H323.255C323.122 50.16 323.022 50.1333 322.955 50.08C322.888 50.0133 322.822 49.9067 322.755 49.76C322.515 49.1067 322.188 48.6467 321.775 48.38C321.362 48.1133 320.848 47.98 320.235 47.98C319.435 47.98 318.782 48.2267 318.275 48.72C317.782 49.2133 317.515 50.0067 317.475 51.1C317.462 51.58 317.462 52.0467 317.475 52.5C317.515 53.6067 317.782 54.4067 318.275 54.9C318.782 55.38 319.435 55.62 320.235 55.62C320.848 55.62 321.362 55.4867 321.775 55.22C322.188 54.9533 322.515 54.4933 322.755 53.84C322.822 53.6933 322.888 53.5933 322.955 53.54C323.022 53.4733 323.122 53.44 323.255 53.44H324.215C324.348 53.44 324.462 53.48 324.555 53.56C324.648 53.64 324.688 53.7467 324.675 53.88C324.662 54.16 324.602 54.4467 324.495 54.74C324.388 55.0333 324.215 55.3333 323.975 55.64C323.748 55.9333 323.462 56.2 323.115 56.44C322.768 56.6667 322.348 56.8533 321.855 57C321.375 57.1333 320.828 57.2 320.215 57.2ZM331.49 57.2C330.117 57.2 329.024 56.78 328.21 55.94C327.397 55.0867 326.95 53.9267 326.87 52.46C326.857 52.2867 326.85 52.0667 326.85 51.8C326.85 51.52 326.857 51.2933 326.87 51.12C326.924 50.1733 327.144 49.3467 327.53 48.64C327.917 47.92 328.444 47.3667 329.11 46.98C329.79 46.5933 330.584 46.4 331.49 46.4C332.504 46.4 333.35 46.6133 334.03 47.04C334.724 47.4667 335.25 48.0733 335.61 48.86C335.97 49.6467 336.15 50.5667 336.15 51.62V51.96C336.15 52.1067 336.104 52.22 336.01 52.3C335.93 52.38 335.824 52.42 335.69 52.42H328.77C328.77 52.4333 328.77 52.46 328.77 52.5C328.77 52.54 328.77 52.5733 328.77 52.6C328.797 53.1467 328.917 53.66 329.13 54.14C329.344 54.6067 329.65 54.9867 330.05 55.28C330.45 55.5733 330.93 55.72 331.49 55.72C331.97 55.72 332.37 55.6467 332.69 55.5C333.01 55.3533 333.27 55.1933 333.47 55.02C333.67 54.8333 333.804 54.6933 333.87 54.6C333.99 54.4267 334.084 54.3267 334.15 54.3C334.217 54.26 334.324 54.24 334.47 54.24H335.43C335.564 54.24 335.67 54.28 335.75 54.36C335.844 54.4267 335.884 54.5267 335.87 54.66C335.857 54.86 335.75 55.1067 335.55 55.4C335.35 55.68 335.064 55.96 334.69 56.24C334.317 56.52 333.864 56.7533 333.33 56.94C332.797 57.1133 332.184 57.2 331.49 57.2ZM328.77 51.04H334.25V50.98C334.25 50.38 334.137 49.8467 333.91 49.38C333.697 48.9133 333.384 48.5467 332.97 48.28C332.557 48 332.064 47.86 331.49 47.86C330.917 47.86 330.424 48 330.01 48.28C329.61 48.5467 329.304 48.9133 329.09 49.38C328.877 49.8467 328.77 50.38 328.77 50.98V51.04ZM342.442 57.2C341.695 57.2 341.055 57.1067 340.522 56.92C339.988 56.7333 339.555 56.5067 339.222 56.24C338.888 55.9733 338.635 55.7067 338.462 55.44C338.302 55.1733 338.215 54.96 338.202 54.8C338.188 54.6533 338.235 54.54 338.342 54.46C338.448 54.38 338.555 54.34 338.662 54.34H339.542C339.622 54.34 339.682 54.3533 339.722 54.38C339.775 54.3933 339.842 54.4467 339.922 54.54C340.095 54.7267 340.288 54.9133 340.502 55.1C340.715 55.2867 340.975 55.44 341.282 55.56C341.602 55.68 341.995 55.74 342.462 55.74C343.142 55.74 343.702 55.6133 344.142 55.36C344.582 55.0933 344.802 54.7067 344.802 54.2C344.802 53.8667 344.708 53.6 344.522 53.4C344.348 53.2 344.028 53.02 343.562 52.86C343.108 52.7 342.482 52.5333 341.682 52.36C340.882 52.1733 340.248 51.9467 339.782 51.68C339.315 51.4 338.982 51.0733 338.782 50.7C338.582 50.3133 338.482 49.88 338.482 49.4C338.482 48.9067 338.628 48.4333 338.922 47.98C339.215 47.5133 339.642 47.1333 340.202 46.84C340.775 46.5467 341.488 46.4 342.342 46.4C343.035 46.4 343.628 46.4867 344.122 46.66C344.615 46.8333 345.022 47.0533 345.342 47.32C345.662 47.5733 345.902 47.8267 346.062 48.08C346.222 48.3333 346.308 48.5467 346.322 48.72C346.335 48.8533 346.295 48.9667 346.202 49.06C346.108 49.14 346.002 49.18 345.882 49.18H345.042C344.948 49.18 344.868 49.16 344.802 49.12C344.748 49.08 344.695 49.0333 344.642 48.98C344.508 48.8067 344.348 48.6333 344.162 48.46C343.988 48.2867 343.755 48.1467 343.462 48.04C343.182 47.92 342.808 47.86 342.342 47.86C341.675 47.86 341.175 48 340.842 48.28C340.508 48.56 340.342 48.9133 340.342 49.34C340.342 49.5933 340.415 49.82 340.562 50.02C340.708 50.22 340.988 50.4 341.402 50.56C341.815 50.72 342.428 50.8933 343.242 51.08C344.122 51.2533 344.815 51.4867 345.322 51.78C345.828 52.0733 346.188 52.4133 346.402 52.8C346.615 53.1867 346.722 53.6333 346.722 54.14C346.722 54.7 346.555 55.2133 346.222 55.68C345.902 56.1467 345.422 56.52 344.782 56.8C344.155 57.0667 343.375 57.2 342.442 57.2ZM352.937 57.2C352.19 57.2 351.55 57.1067 351.017 56.92C350.484 56.7333 350.05 56.5067 349.717 56.24C349.384 55.9733 349.13 55.7067 348.957 55.44C348.797 55.1733 348.71 54.96 348.697 54.8C348.684 54.6533 348.73 54.54 348.837 54.46C348.944 54.38 349.05 54.34 349.157 54.34H350.037C350.117 54.34 350.177 54.3533 350.217 54.38C350.27 54.3933 350.337 54.4467 350.417 54.54C350.59 54.7267 350.784 54.9133 350.997 55.1C351.21 55.2867 351.47 55.44 351.777 55.56C352.097 55.68 352.49 55.74 352.957 55.74C353.637 55.74 354.197 55.6133 354.637 55.36C355.077 55.0933 355.297 54.7067 355.297 54.2C355.297 53.8667 355.204 53.6 355.017 53.4C354.844 53.2 354.524 53.02 354.057 52.86C353.604 52.7 352.977 52.5333 352.177 52.36C351.377 52.1733 350.744 51.9467 350.277 51.68C349.81 51.4 349.477 51.0733 349.277 50.7C349.077 50.3133 348.977 49.88 348.977 49.4C348.977 48.9067 349.124 48.4333 349.417 47.98C349.71 47.5133 350.137 47.1333 350.697 46.84C351.27 46.5467 351.984 46.4 352.837 46.4C353.53 46.4 354.124 46.4867 354.617 46.66C355.11 46.8333 355.517 47.0533 355.837 47.32C356.157 47.5733 356.397 47.8267 356.557 48.08C356.717 48.3333 356.804 48.5467 356.817 48.72C356.83 48.8533 356.79 48.9667 356.697 49.06C356.604 49.14 356.497 49.18 356.377 49.18H355.537C355.444 49.18 355.364 49.16 355.297 49.12C355.244 49.08 355.19 49.0333 355.137 48.98C355.004 48.8067 354.844 48.6333 354.657 48.46C354.484 48.2867 354.25 48.1467 353.957 48.04C353.677 47.92 353.304 47.86 352.837 47.86C352.17 47.86 351.67 48 351.337 48.28C351.004 48.56 350.837 48.9133 350.837 49.34C350.837 49.5933 350.91 49.82 351.057 50.02C351.204 50.22 351.484 50.4 351.897 50.56C352.31 50.72 352.924 50.8933 353.737 51.08C354.617 51.2533 355.31 51.4867 355.817 51.78C356.324 52.0733 356.684 52.4133 356.897 52.8C357.11 53.1867 357.217 53.6333 357.217 54.14C357.217 54.7 357.05 55.2133 356.717 55.68C356.397 56.1467 355.917 56.52 355.277 56.8C354.65 57.0667 353.87 57.2 352.937 57.2ZM361.313 57C361.179 57 361.066 56.96 360.973 56.88C360.893 56.7867 360.853 56.6733 360.853 56.54V48.2H359.153C359.019 48.2 358.906 48.16 358.813 48.08C358.733 47.9867 358.693 47.8733 358.693 47.74V47.06C358.693 46.9267 358.733 46.82 358.813 46.74C358.906 46.6467 359.019 46.6 359.153 46.6H360.853V45.6C360.853 44.92 360.966 44.3267 361.193 43.82C361.419 43.3 361.779 42.9 362.273 42.62C362.779 42.34 363.453 42.2 364.293 42.2H365.493C365.626 42.2 365.733 42.2467 365.813 42.34C365.893 42.42 365.933 42.5267 365.933 42.66V43.34C365.933 43.4733 365.893 43.5867 365.813 43.68C365.733 43.76 365.626 43.8 365.493 43.8H364.333C363.706 43.8 363.279 43.9667 363.053 44.3C362.826 44.62 362.713 45.0867 362.713 45.7V46.6H365.293C365.426 46.6 365.533 46.6467 365.613 46.74C365.693 46.82 365.733 46.9267 365.733 47.06V47.74C365.733 47.8733 365.693 47.9867 365.613 48.08C365.533 48.16 365.426 48.2 365.293 48.2H362.713V56.54C362.713 56.6733 362.666 56.7867 362.573 56.88C362.493 56.96 362.386 57 362.253 57H361.313ZM371.688 57.2C370.835 57.2 370.108 57.0133 369.508 56.64C368.921 56.2533 368.475 55.72 368.168 55.04C367.861 54.36 367.708 53.58 367.708 52.7V47.06C367.708 46.9267 367.748 46.82 367.828 46.74C367.921 46.6467 368.035 46.6 368.168 46.6H369.168C369.301 46.6 369.408 46.6467 369.488 46.74C369.581 46.82 369.628 46.9267 369.628 47.06V52.6C369.628 54.5867 370.495 55.58 372.228 55.58C373.055 55.58 373.715 55.32 374.208 54.8C374.715 54.2667 374.968 53.5333 374.968 52.6V47.06C374.968 46.9267 375.008 46.82 375.088 46.74C375.181 46.6467 375.295 46.6 375.428 46.6H376.408C376.555 46.6 376.668 46.6467 376.748 46.74C376.828 46.82 376.868 46.9267 376.868 47.06V56.54C376.868 56.6733 376.828 56.7867 376.748 56.88C376.668 56.96 376.555 57 376.408 57H375.488C375.355 57 375.241 56.96 375.148 56.88C375.068 56.7867 375.028 56.6733 375.028 56.54V55.66C374.668 56.1267 374.228 56.5 373.708 56.78C373.201 57.06 372.528 57.2 371.688 57.2ZM380.619 57C380.486 57 380.373 56.96 380.279 56.88C380.199 56.7867 380.159 56.6733 380.159 56.54V43.26C380.159 43.1267 380.199 43.02 380.279 42.94C380.373 42.8467 380.486 42.8 380.619 42.8H381.559C381.706 42.8 381.819 42.8467 381.899 42.94C381.979 43.02 382.019 43.1267 382.019 43.26V56.54C382.019 56.6733 381.979 56.7867 381.899 56.88C381.819 56.96 381.706 57 381.559 57H380.619ZM385.783 57C385.649 57 385.536 56.96 385.443 56.88C385.363 56.7867 385.323 56.6733 385.323 56.54V43.26C385.323 43.1267 385.363 43.02 385.443 42.94C385.536 42.8467 385.649 42.8 385.783 42.8H386.723C386.869 42.8 386.983 42.8467 387.063 42.94C387.143 43.02 387.183 43.1267 387.183 43.26V56.54C387.183 56.6733 387.143 56.7867 387.063 56.88C386.983 56.96 386.869 57 386.723 57H385.783ZM392.286 60.8C392.179 60.8 392.086 60.76 392.006 60.68C391.926 60.6 391.886 60.5067 391.886 60.4C391.886 60.3467 391.893 60.2933 391.906 60.24C391.919 60.1867 391.946 60.12 391.986 60.04L393.526 56.38L389.706 47.36C389.639 47.2 389.606 47.0867 389.606 47.02C389.606 46.9 389.646 46.8 389.726 46.72C389.806 46.64 389.906 46.6 390.026 46.6H391.006C391.139 46.6 391.246 46.6333 391.326 46.7C391.406 46.7667 391.459 46.8467 391.486 46.94L394.526 54.22L397.646 46.94C397.686 46.8467 397.739 46.7667 397.806 46.7C397.886 46.6333 397.999 46.6 398.146 46.6H399.086C399.206 46.6 399.306 46.64 399.386 46.72C399.466 46.8 399.506 46.8933 399.506 47C399.506 47.0667 399.473 47.1867 399.406 47.36L393.726 60.46C393.686 60.5533 393.626 60.6333 393.546 60.7C393.479 60.7667 393.373 60.8 393.226 60.8H392.286ZM410.657 57.2C409.71 57.2 408.89 57.02 408.197 56.66C407.517 56.2867 406.99 55.76 406.617 55.08C406.243 54.3867 406.043 53.56 406.017 52.6C406.003 52.4 405.997 52.1333 405.997 51.8C405.997 51.4667 406.003 51.2 406.017 51C406.043 50.04 406.243 49.22 406.617 48.54C406.99 47.8467 407.517 47.32 408.197 46.96C408.89 46.5867 409.71 46.4 410.657 46.4C411.43 46.4 412.09 46.5067 412.637 46.72C413.197 46.9333 413.657 47.2067 414.017 47.54C414.377 47.8733 414.643 48.2333 414.817 48.62C415.003 49.0067 415.103 49.3733 415.117 49.72C415.13 49.8533 415.09 49.96 414.997 50.04C414.903 50.12 414.79 50.16 414.657 50.16H413.697C413.563 50.16 413.463 50.1333 413.397 50.08C413.33 50.0133 413.263 49.9067 413.197 49.76C412.957 49.1067 412.63 48.6467 412.217 48.38C411.803 48.1133 411.29 47.98 410.677 47.98C409.877 47.98 409.223 48.2267 408.717 48.72C408.223 49.2133 407.957 50.0067 407.917 51.1C407.903 51.58 407.903 52.0467 407.917 52.5C407.957 53.6067 408.223 54.4067 408.717 54.9C409.223 55.38 409.877 55.62 410.677 55.62C411.29 55.62 411.803 55.4867 412.217 55.22C412.63 54.9533 412.957 54.4933 413.197 53.84C413.263 53.6933 413.33 53.5933 413.397 53.54C413.463 53.4733 413.563 53.44 413.697 53.44H414.657C414.79 53.44 414.903 53.48 414.997 53.56C415.09 53.64 415.13 53.7467 415.117 53.88C415.103 54.16 415.043 54.4467 414.937 54.74C414.83 55.0333 414.657 55.3333 414.417 55.64C414.19 55.9333 413.903 56.2 413.557 56.44C413.21 56.6667 412.79 56.8533 412.297 57C411.817 57.1333 411.27 57.2 410.657 57.2ZM418.252 57C418.118 57 418.005 56.96 417.912 56.88C417.832 56.7867 417.792 56.6733 417.792 56.54V47.08C417.792 46.9467 417.832 46.8333 417.912 46.74C418.005 46.6467 418.118 46.6 418.252 46.6H419.172C419.305 46.6 419.418 46.6467 419.512 46.74C419.605 46.8333 419.652 46.9467 419.652 47.08V47.96C419.918 47.5067 420.285 47.1667 420.752 46.94C421.218 46.7133 421.778 46.6 422.432 46.6H423.232C423.365 46.6 423.472 46.6467 423.552 46.74C423.632 46.82 423.672 46.9267 423.672 47.06V47.88C423.672 48.0133 423.632 48.12 423.552 48.2C423.472 48.28 423.365 48.32 423.232 48.32H422.032C421.312 48.32 420.745 48.5333 420.332 48.96C419.918 49.3733 419.712 49.94 419.712 50.66V56.54C419.712 56.6733 419.665 56.7867 419.572 56.88C419.478 56.96 419.365 57 419.232 57H418.252ZM429.634 57.2C428.261 57.2 427.167 56.78 426.354 55.94C425.541 55.0867 425.094 53.9267 425.014 52.46C425.001 52.2867 424.994 52.0667 424.994 51.8C424.994 51.52 425.001 51.2933 425.014 51.12C425.067 50.1733 425.287 49.3467 425.674 48.64C426.061 47.92 426.587 47.3667 427.254 46.98C427.934 46.5933 428.727 46.4 429.634 46.4C430.647 46.4 431.494 46.6133 432.174 47.04C432.867 47.4667 433.394 48.0733 433.754 48.86C434.114 49.6467 434.294 50.5667 434.294 51.62V51.96C434.294 52.1067 434.247 52.22 434.154 52.3C434.074 52.38 433.967 52.42 433.834 52.42H426.914C426.914 52.4333 426.914 52.46 426.914 52.5C426.914 52.54 426.914 52.5733 426.914 52.6C426.941 53.1467 427.061 53.66 427.274 54.14C427.487 54.6067 427.794 54.9867 428.194 55.28C428.594 55.5733 429.074 55.72 429.634 55.72C430.114 55.72 430.514 55.6467 430.834 55.5C431.154 55.3533 431.414 55.1933 431.614 55.02C431.814 54.8333 431.947 54.6933 432.014 54.6C432.134 54.4267 432.227 54.3267 432.294 54.3C432.361 54.26 432.467 54.24 432.614 54.24H433.574C433.707 54.24 433.814 54.28 433.894 54.36C433.987 54.4267 434.027 54.5267 434.014 54.66C434.001 54.86 433.894 55.1067 433.694 55.4C433.494 55.68 433.207 55.96 432.834 56.24C432.461 56.52 432.007 56.7533 431.474 56.94C430.941 57.1133 430.327 57.2 429.634 57.2ZM426.914 51.04H432.394V50.98C432.394 50.38 432.281 49.8467 432.054 49.38C431.841 48.9133 431.527 48.5467 431.114 48.28C430.701 48 430.207 47.86 429.634 47.86C429.061 47.86 428.567 48 428.154 48.28C427.754 48.5467 427.447 48.9133 427.234 49.38C427.021 49.8467 426.914 50.38 426.914 50.98V51.04ZM439.885 57.2C439.219 57.2 438.612 57.0667 438.065 56.8C437.519 56.5333 437.079 56.1733 436.745 55.72C436.412 55.2667 436.245 54.7533 436.245 54.18C436.245 53.26 436.619 52.5267 437.365 51.98C438.112 51.4333 439.085 51.0733 440.285 50.9L443.265 50.48V49.9C443.265 49.26 443.079 48.76 442.705 48.4C442.345 48.04 441.752 47.86 440.925 47.86C440.325 47.86 439.839 47.98 439.465 48.22C439.105 48.46 438.852 48.7667 438.705 49.14C438.625 49.34 438.485 49.44 438.285 49.44H437.385C437.239 49.44 437.125 49.4 437.045 49.32C436.979 49.2267 436.945 49.12 436.945 49C436.945 48.8 437.019 48.5533 437.165 48.26C437.325 47.9667 437.565 47.68 437.885 47.4C438.205 47.12 438.612 46.8867 439.105 46.7C439.612 46.5 440.225 46.4 440.945 46.4C441.745 46.4 442.419 46.5067 442.965 46.72C443.512 46.92 443.939 47.1933 444.245 47.54C444.565 47.8867 444.792 48.28 444.925 48.72C445.072 49.16 445.145 49.6067 445.145 50.06V56.54C445.145 56.6733 445.099 56.7867 445.005 56.88C444.925 56.96 444.819 57 444.685 57H443.765C443.619 57 443.505 56.96 443.425 56.88C443.345 56.7867 443.305 56.6733 443.305 56.54V55.68C443.132 55.92 442.899 56.16 442.605 56.4C442.312 56.6267 441.945 56.82 441.505 56.98C441.065 57.1267 440.525 57.2 439.885 57.2ZM440.305 55.7C440.852 55.7 441.352 55.5867 441.805 55.36C442.259 55.12 442.612 54.7533 442.865 54.26C443.132 53.7667 443.265 53.1467 443.265 52.4V51.84L440.945 52.18C439.999 52.3133 439.285 52.54 438.805 52.86C438.325 53.1667 438.085 53.56 438.085 54.04C438.085 54.4133 438.192 54.7267 438.405 54.98C438.632 55.22 438.912 55.4 439.245 55.52C439.592 55.64 439.945 55.7 440.305 55.7ZM452.283 57C451.536 57 450.93 56.86 450.463 56.58C449.996 56.2867 449.656 55.88 449.443 55.36C449.23 54.8267 449.123 54.2 449.123 53.48V48.2H447.563C447.43 48.2 447.316 48.16 447.223 48.08C447.143 47.9867 447.103 47.8733 447.103 47.74V47.06C447.103 46.9267 447.143 46.82 447.223 46.74C447.316 46.6467 447.43 46.6 447.563 46.6H449.123V43.26C449.123 43.1267 449.163 43.02 449.243 42.94C449.336 42.8467 449.45 42.8 449.583 42.8H450.523C450.656 42.8 450.763 42.8467 450.843 42.94C450.936 43.02 450.983 43.1267 450.983 43.26V46.6H453.463C453.596 46.6 453.703 46.6467 453.783 46.74C453.876 46.82 453.923 46.9267 453.923 47.06V47.74C453.923 47.8733 453.876 47.9867 453.783 48.08C453.703 48.16 453.596 48.2 453.463 48.2H450.983V53.34C450.983 53.9667 451.09 54.46 451.303 54.82C451.516 55.18 451.896 55.36 452.443 55.36H453.663C453.796 55.36 453.903 55.4067 453.983 55.5C454.076 55.58 454.123 55.6867 454.123 55.82V56.54C454.123 56.6733 454.076 56.7867 453.983 56.88C453.903 56.96 453.796 57 453.663 57H452.283ZM460.475 57.2C459.102 57.2 458.009 56.78 457.195 55.94C456.382 55.0867 455.935 53.9267 455.855 52.46C455.842 52.2867 455.835 52.0667 455.835 51.8C455.835 51.52 455.842 51.2933 455.855 51.12C455.909 50.1733 456.129 49.3467 456.515 48.64C456.902 47.92 457.429 47.3667 458.095 46.98C458.775 46.5933 459.569 46.4 460.475 46.4C461.489 46.4 462.335 46.6133 463.015 47.04C463.709 47.4667 464.235 48.0733 464.595 48.86C464.955 49.6467 465.135 50.5667 465.135 51.62V51.96C465.135 52.1067 465.089 52.22 464.995 52.3C464.915 52.38 464.809 52.42 464.675 52.42H457.755C457.755 52.4333 457.755 52.46 457.755 52.5C457.755 52.54 457.755 52.5733 457.755 52.6C457.782 53.1467 457.902 53.66 458.115 54.14C458.329 54.6067 458.635 54.9867 459.035 55.28C459.435 55.5733 459.915 55.72 460.475 55.72C460.955 55.72 461.355 55.6467 461.675 55.5C461.995 55.3533 462.255 55.1933 462.455 55.02C462.655 54.8333 462.789 54.6933 462.855 54.6C462.975 54.4267 463.069 54.3267 463.135 54.3C463.202 54.26 463.309 54.24 463.455 54.24H464.415C464.549 54.24 464.655 54.28 464.735 54.36C464.829 54.4267 464.869 54.5267 464.855 54.66C464.842 54.86 464.735 55.1067 464.535 55.4C464.335 55.68 464.049 55.96 463.675 56.24C463.302 56.52 462.849 56.7533 462.315 56.94C461.782 57.1133 461.169 57.2 460.475 57.2ZM457.755 51.04H463.235V50.98C463.235 50.38 463.122 49.8467 462.895 49.38C462.682 48.9133 462.369 48.5467 461.955 48.28C461.542 48 461.049 47.86 460.475 47.86C459.902 47.86 459.409 48 458.995 48.28C458.595 48.5467 458.289 48.9133 458.075 49.38C457.862 49.8467 457.755 50.38 457.755 50.98V51.04ZM471.627 57.2C470.894 57.2 470.26 57.0733 469.727 56.82C469.194 56.5533 468.754 56.2 468.407 55.76C468.074 55.3067 467.82 54.7933 467.647 54.22C467.487 53.6467 467.394 53.04 467.367 52.4C467.354 52.1867 467.347 51.9867 467.347 51.8C467.347 51.6133 467.354 51.4133 467.367 51.2C467.394 50.5733 467.487 49.9733 467.647 49.4C467.82 48.8267 468.074 48.3133 468.407 47.86C468.754 47.4067 469.194 47.0533 469.727 46.8C470.26 46.5333 470.894 46.4 471.627 46.4C472.414 46.4 473.067 46.54 473.587 46.82C474.107 47.1 474.534 47.4467 474.867 47.86V43.26C474.867 43.1267 474.907 43.02 474.987 42.94C475.08 42.8467 475.194 42.8 475.327 42.8H476.287C476.42 42.8 476.527 42.8467 476.607 42.94C476.7 43.02 476.747 43.1267 476.747 43.26V56.54C476.747 56.6733 476.7 56.7867 476.607 56.88C476.527 56.96 476.42 57 476.287 57H475.387C475.24 57 475.127 56.96 475.047 56.88C474.967 56.7867 474.927 56.6733 474.927 56.54V55.7C474.594 56.1267 474.16 56.4867 473.627 56.78C473.094 57.06 472.427 57.2 471.627 57.2ZM472.047 55.58C472.714 55.58 473.247 55.4267 473.647 55.12C474.047 54.8133 474.347 54.4267 474.547 53.96C474.747 53.48 474.854 52.9933 474.867 52.5C474.88 52.2867 474.887 52.0333 474.887 51.74C474.887 51.4333 474.88 51.1733 474.867 50.96C474.854 50.4933 474.74 50.0333 474.527 49.58C474.327 49.1267 474.02 48.7533 473.607 48.46C473.207 48.1667 472.687 48.02 472.047 48.02C471.367 48.02 470.827 48.1733 470.427 48.48C470.027 48.7733 469.74 49.1667 469.567 49.66C469.394 50.14 469.294 50.66 469.267 51.22C469.254 51.6067 469.254 51.9933 469.267 52.38C469.294 52.94 469.394 53.4667 469.567 53.96C469.74 54.44 470.027 54.8333 470.427 55.14C470.827 55.4333 471.367 55.58 472.047 55.58ZM480.341 57C480.208 57 480.095 56.96 480.001 56.88C479.921 56.7867 479.881 56.6733 479.881 56.54V55.1C479.881 54.9667 479.921 54.86 480.001 54.78C480.095 54.6867 480.208 54.64 480.341 54.64H481.781C481.915 54.64 482.021 54.6867 482.101 54.78C482.195 54.86 482.241 54.9667 482.241 55.1V56.54C482.241 56.6733 482.195 56.7867 482.101 56.88C482.021 56.96 481.915 57 481.781 57H480.341ZM494.437 57C494.304 57 494.19 56.96 494.097 56.88C494.017 56.7867 493.977 56.6733 493.977 56.54V51.82L489.157 43.66C489.144 43.62 489.13 43.58 489.117 43.54C489.104 43.5 489.097 43.4533 489.097 43.4C489.097 43.2933 489.137 43.2 489.217 43.12C489.297 43.04 489.39 43 489.497 43H490.537C490.657 43 490.764 43.0333 490.857 43.1C490.95 43.1533 491.017 43.2333 491.057 43.34L494.957 49.82L498.857 43.34C498.924 43.2333 498.997 43.1533 499.077 43.1C499.17 43.0333 499.277 43 499.397 43H500.417C500.537 43 500.637 43.04 500.717 43.12C500.797 43.2 500.837 43.2933 500.837 43.4C500.837 43.4533 500.83 43.5 500.817 43.54C500.804 43.58 500.784 43.62 500.757 43.66L495.957 51.82V56.54C495.957 56.6733 495.91 56.7867 495.817 56.88C495.737 56.96 495.624 57 495.477 57H494.437ZM505.806 57.2C504.793 57.2 503.946 57.0067 503.266 56.62C502.586 56.2333 502.066 55.7 501.706 55.02C501.346 54.3267 501.146 53.54 501.106 52.66C501.093 52.4333 501.086 52.1467 501.086 51.8C501.086 51.44 501.093 51.1533 501.106 50.94C501.146 50.0467 501.346 49.26 501.706 48.58C502.08 47.9 502.606 47.3667 503.286 46.98C503.966 46.5933 504.806 46.4 505.806 46.4C506.806 46.4 507.646 46.5933 508.326 46.98C509.006 47.3667 509.526 47.9 509.886 48.58C510.26 49.26 510.466 50.0467 510.506 50.94C510.52 51.1533 510.526 51.44 510.526 51.8C510.526 52.1467 510.52 52.4333 510.506 52.66C510.466 53.54 510.266 54.3267 509.906 55.02C509.546 55.7 509.026 56.2333 508.346 56.62C507.666 57.0067 506.82 57.2 505.806 57.2ZM505.806 55.66C506.633 55.66 507.293 55.4 507.786 54.88C508.28 54.3467 508.546 53.5733 508.586 52.56C508.6 52.36 508.606 52.1067 508.606 51.8C508.606 51.4933 508.6 51.24 508.586 51.04C508.546 50.0267 508.28 49.26 507.786 48.74C507.293 48.2067 506.633 47.94 505.806 47.94C504.98 47.94 504.313 48.2067 503.806 48.74C503.313 49.26 503.053 50.0267 503.026 51.04C503.013 51.24 503.006 51.4933 503.006 51.8C503.006 52.1067 503.013 52.36 503.026 52.56C503.053 53.5733 503.313 54.3467 503.806 54.88C504.313 55.4 504.98 55.66 505.806 55.66ZM517.211 57.2C516.357 57.2 515.631 57.0133 515.031 56.64C514.444 56.2533 513.997 55.72 513.691 55.04C513.384 54.36 513.231 53.58 513.231 52.7V47.06C513.231 46.9267 513.271 46.82 513.351 46.74C513.444 46.6467 513.557 46.6 513.691 46.6H514.691C514.824 46.6 514.931 46.6467 515.011 46.74C515.104 46.82 515.151 46.9267 515.151 47.06V52.6C515.151 54.5867 516.017 55.58 517.751 55.58C518.577 55.58 519.237 55.32 519.731 54.8C520.237 54.2667 520.491 53.5333 520.491 52.6V47.06C520.491 46.9267 520.531 46.82 520.611 46.74C520.704 46.6467 520.817 46.6 520.951 46.6H521.931C522.077 46.6 522.191 46.6467 522.271 46.74C522.351 46.82 522.391 46.9267 522.391 47.06V56.54C522.391 56.6733 522.351 56.7867 522.271 56.88C522.191 56.96 522.077 57 521.931 57H521.011C520.877 57 520.764 56.96 520.671 56.88C520.591 56.7867 520.551 56.6733 520.551 56.54V55.66C520.191 56.1267 519.751 56.5 519.231 56.78C518.724 57.06 518.051 57.2 517.211 57.2ZM533.764 57.2C533.098 57.2 532.491 57.0667 531.944 56.8C531.398 56.5333 530.958 56.1733 530.624 55.72C530.291 55.2667 530.124 54.7533 530.124 54.18C530.124 53.26 530.498 52.5267 531.244 51.98C531.991 51.4333 532.964 51.0733 534.164 50.9L537.144 50.48V49.9C537.144 49.26 536.958 48.76 536.584 48.4C536.224 48.04 535.631 47.86 534.804 47.86C534.204 47.86 533.718 47.98 533.344 48.22C532.984 48.46 532.731 48.7667 532.584 49.14C532.504 49.34 532.364 49.44 532.164 49.44H531.264C531.118 49.44 531.004 49.4 530.924 49.32C530.858 49.2267 530.824 49.12 530.824 49C530.824 48.8 530.898 48.5533 531.044 48.26C531.204 47.9667 531.444 47.68 531.764 47.4C532.084 47.12 532.491 46.8867 532.984 46.7C533.491 46.5 534.104 46.4 534.824 46.4C535.624 46.4 536.298 46.5067 536.844 46.72C537.391 46.92 537.818 47.1933 538.124 47.54C538.444 47.8867 538.671 48.28 538.804 48.72C538.951 49.16 539.024 49.6067 539.024 50.06V56.54C539.024 56.6733 538.978 56.7867 538.884 56.88C538.804 56.96 538.698 57 538.564 57H537.644C537.498 57 537.384 56.96 537.304 56.88C537.224 56.7867 537.184 56.6733 537.184 56.54V55.68C537.011 55.92 536.778 56.16 536.484 56.4C536.191 56.6267 535.824 56.82 535.384 56.98C534.944 57.1267 534.404 57.2 533.764 57.2ZM534.184 55.7C534.731 55.7 535.231 55.5867 535.684 55.36C536.138 55.12 536.491 54.7533 536.744 54.26C537.011 53.7667 537.144 53.1467 537.144 52.4V51.84L534.824 52.18C533.878 52.3133 533.164 52.54 532.684 52.86C532.204 53.1667 531.964 53.56 531.964 54.04C531.964 54.4133 532.071 54.7267 532.284 54.98C532.511 55.22 532.791 55.4 533.124 55.52C533.471 55.64 533.824 55.7 534.184 55.7ZM542.66 57C542.526 57 542.413 56.96 542.32 56.88C542.24 56.7867 542.2 56.6733 542.2 56.54V47.08C542.2 46.9467 542.24 46.8333 542.32 46.74C542.413 46.6467 542.526 46.6 542.66 46.6H543.58C543.713 46.6 543.826 46.6467 543.92 46.74C544.013 46.8333 544.06 46.9467 544.06 47.08V47.96C544.326 47.5067 544.693 47.1667 545.16 46.94C545.626 46.7133 546.186 46.6 546.84 46.6H547.64C547.773 46.6 547.88 46.6467 547.96 46.74C548.04 46.82 548.08 46.9267 548.08 47.06V47.88C548.08 48.0133 548.04 48.12 547.96 48.2C547.88 48.28 547.773 48.32 547.64 48.32H546.44C545.72 48.32 545.153 48.5333 544.74 48.96C544.326 49.3733 544.12 49.94 544.12 50.66V56.54C544.12 56.6733 544.073 56.7867 543.98 56.88C543.886 56.96 543.773 57 543.64 57H542.66ZM554.042 57.2C552.669 57.2 551.575 56.78 550.762 55.94C549.949 55.0867 549.502 53.9267 549.422 52.46C549.409 52.2867 549.402 52.0667 549.402 51.8C549.402 51.52 549.409 51.2933 549.422 51.12C549.475 50.1733 549.695 49.3467 550.082 48.64C550.469 47.92 550.995 47.3667 551.662 46.98C552.342 46.5933 553.135 46.4 554.042 46.4C555.055 46.4 555.902 46.6133 556.582 47.04C557.275 47.4667 557.802 48.0733 558.162 48.86C558.522 49.6467 558.702 50.5667 558.702 51.62V51.96C558.702 52.1067 558.655 52.22 558.562 52.3C558.482 52.38 558.375 52.42 558.242 52.42H551.322C551.322 52.4333 551.322 52.46 551.322 52.5C551.322 52.54 551.322 52.5733 551.322 52.6C551.349 53.1467 551.469 53.66 551.682 54.14C551.895 54.6067 552.202 54.9867 552.602 55.28C553.002 55.5733 553.482 55.72 554.042 55.72C554.522 55.72 554.922 55.6467 555.242 55.5C555.562 55.3533 555.822 55.1933 556.022 55.02C556.222 54.8333 556.355 54.6933 556.422 54.6C556.542 54.4267 556.635 54.3267 556.702 54.3C556.769 54.26 556.875 54.24 557.022 54.24H557.982C558.115 54.24 558.222 54.28 558.302 54.36C558.395 54.4267 558.435 54.5267 558.422 54.66C558.409 54.86 558.302 55.1067 558.102 55.4C557.902 55.68 557.615 55.96 557.242 56.24C556.869 56.52 556.415 56.7533 555.882 56.94C555.349 57.1133 554.735 57.2 554.042 57.2ZM551.322 51.04H556.802V50.98C556.802 50.38 556.689 49.8467 556.462 49.38C556.249 48.9133 555.935 48.5467 555.522 48.28C555.109 48 554.615 47.86 554.042 47.86C553.469 47.86 552.975 48 552.562 48.28C552.162 48.5467 551.855 48.9133 551.642 49.38C551.429 49.8467 551.322 50.38 551.322 50.98V51.04ZM571.736 57.2C570.936 57.2 570.269 57.06 569.736 56.78C569.202 56.4867 568.776 56.1267 568.456 55.7V56.54C568.456 56.6733 568.409 56.7867 568.316 56.88C568.236 56.96 568.129 57 567.996 57H567.076C566.942 57 566.829 56.96 566.736 56.88C566.656 56.7867 566.616 56.6733 566.616 56.54V43.26C566.616 43.1267 566.656 43.02 566.736 42.94C566.829 42.8467 566.942 42.8 567.076 42.8H568.036C568.182 42.8 568.296 42.8467 568.376 42.94C568.456 43.02 568.496 43.1267 568.496 43.26V47.86C568.829 47.4467 569.256 47.1 569.776 46.82C570.309 46.54 570.962 46.4 571.736 46.4C572.482 46.4 573.116 46.5333 573.636 46.8C574.169 47.0533 574.602 47.4067 574.936 47.86C575.282 48.3133 575.542 48.8267 575.716 49.4C575.889 49.9733 575.982 50.5733 575.996 51.2C576.009 51.4133 576.016 51.6133 576.016 51.8C576.016 51.9867 576.009 52.1867 575.996 52.4C575.982 53.04 575.889 53.6467 575.716 54.22C575.542 54.7933 575.282 55.3067 574.936 55.76C574.602 56.2 574.169 56.5533 573.636 56.82C573.116 57.0733 572.482 57.2 571.736 57.2ZM571.316 55.58C572.009 55.58 572.549 55.4333 572.936 55.14C573.336 54.8333 573.622 54.44 573.796 53.96C573.969 53.4667 574.069 52.94 574.096 52.38C574.109 51.9933 574.109 51.6067 574.096 51.22C574.069 50.66 573.969 50.14 573.796 49.66C573.622 49.1667 573.336 48.7733 572.936 48.48C572.549 48.1733 572.009 48.02 571.316 48.02C570.689 48.02 570.169 48.1667 569.756 48.46C569.342 48.7533 569.029 49.1267 568.816 49.58C568.616 50.0333 568.509 50.4933 568.496 50.96C568.482 51.1733 568.476 51.4333 568.476 51.74C568.476 52.0333 568.482 52.2867 568.496 52.5C568.522 52.9933 568.629 53.48 568.816 53.96C569.016 54.4267 569.316 54.8133 569.716 55.12C570.129 55.4267 570.662 55.58 571.316 55.58ZM582.93 57.2C581.557 57.2 580.464 56.78 579.65 55.94C578.837 55.0867 578.39 53.9267 578.31 52.46C578.297 52.2867 578.29 52.0667 578.29 51.8C578.29 51.52 578.297 51.2933 578.31 51.12C578.364 50.1733 578.584 49.3467 578.97 48.64C579.357 47.92 579.884 47.3667 580.55 46.98C581.23 46.5933 582.024 46.4 582.93 46.4C583.944 46.4 584.79 46.6133 585.47 47.04C586.164 47.4667 586.69 48.0733 587.05 48.86C587.41 49.6467 587.59 50.5667 587.59 51.62V51.96C587.59 52.1067 587.544 52.22 587.45 52.3C587.37 52.38 587.264 52.42 587.13 52.42H580.21C580.21 52.4333 580.21 52.46 580.21 52.5C580.21 52.54 580.21 52.5733 580.21 52.6C580.237 53.1467 580.357 53.66 580.57 54.14C580.784 54.6067 581.09 54.9867 581.49 55.28C581.89 55.5733 582.37 55.72 582.93 55.72C583.41 55.72 583.81 55.6467 584.13 55.5C584.45 55.3533 584.71 55.1933 584.91 55.02C585.11 54.8333 585.244 54.6933 585.31 54.6C585.43 54.4267 585.524 54.3267 585.59 54.3C585.657 54.26 585.764 54.24 585.91 54.24H586.87C587.004 54.24 587.11 54.28 587.19 54.36C587.284 54.4267 587.324 54.5267 587.31 54.66C587.297 54.86 587.19 55.1067 586.99 55.4C586.79 55.68 586.504 55.96 586.13 56.24C585.757 56.52 585.304 56.7533 584.77 56.94C584.237 57.1133 583.624 57.2 582.93 57.2ZM580.21 51.04H585.69V50.98C585.69 50.38 585.577 49.8467 585.35 49.38C585.137 48.9133 584.824 48.5467 584.41 48.28C583.997 48 583.504 47.86 582.93 47.86C582.357 47.86 581.864 48 581.45 48.28C581.05 48.5467 580.744 48.9133 580.53 49.38C580.317 49.8467 580.21 50.38 580.21 50.98V51.04ZM590.742 57C590.608 57 590.495 56.96 590.402 56.88C590.322 56.7867 590.282 56.6733 590.282 56.54V47.06C590.282 46.9267 590.322 46.82 590.402 46.74C590.495 46.6467 590.608 46.6 590.742 46.6H591.702C591.835 46.6 591.942 46.6467 592.022 46.74C592.102 46.82 592.142 46.9267 592.142 47.06V56.54C592.142 56.6733 592.102 56.7867 592.022 56.88C591.942 56.96 591.835 57 591.702 57H590.742ZM590.582 44.66C590.448 44.66 590.335 44.62 590.242 44.54C590.162 44.4467 590.122 44.3333 590.122 44.2V43.12C590.122 42.9867 590.162 42.88 590.242 42.8C590.335 42.7067 590.448 42.66 590.582 42.66H591.842C591.975 42.66 592.082 42.7067 592.162 42.8C592.255 42.88 592.302 42.9867 592.302 43.12V44.2C592.302 44.3333 592.255 44.4467 592.162 44.54C592.082 44.62 591.975 44.66 591.842 44.66H590.582ZM596.081 57C595.947 57 595.834 56.96 595.741 56.88C595.661 56.7867 595.621 56.6733 595.621 56.54V47.06C595.621 46.9267 595.661 46.82 595.741 46.74C595.834 46.6467 595.947 46.6 596.081 46.6H597.021C597.154 46.6 597.261 46.6467 597.341 46.74C597.434 46.82 597.481 46.9267 597.481 47.06V47.94C597.827 47.4867 598.261 47.12 598.781 46.84C599.314 46.5467 599.994 46.4 600.821 46.4C601.687 46.4 602.421 46.5933 603.021 46.98C603.634 47.3533 604.094 47.88 604.401 48.56C604.707 49.2267 604.861 50.0067 604.861 50.9V56.54C604.861 56.6733 604.821 56.7867 604.741 56.88C604.661 56.96 604.554 57 604.421 57H603.421C603.287 57 603.174 56.96 603.081 56.88C603.001 56.7867 602.961 56.6733 602.961 56.54V51C602.961 50.0667 602.734 49.34 602.281 48.82C601.827 48.2867 601.161 48.02 600.281 48.02C599.454 48.02 598.787 48.2867 598.281 48.82C597.787 49.34 597.541 50.0667 597.541 51V56.54C597.541 56.6733 597.494 56.7867 597.401 56.88C597.321 56.96 597.214 57 597.081 57H596.081ZM612.31 61.4C611.403 61.4 610.656 61.28 610.07 61.04C609.496 60.8 609.043 60.5067 608.71 60.16C608.39 59.8267 608.156 59.4867 608.01 59.14C607.876 58.8067 607.803 58.54 607.79 58.34C607.776 58.2067 607.816 58.0933 607.91 58C608.016 57.9067 608.13 57.86 608.25 57.86H609.21C609.33 57.86 609.43 57.8867 609.51 57.94C609.59 57.9933 609.656 58.1067 609.71 58.28C609.79 58.48 609.91 58.7 610.07 58.94C610.23 59.1933 610.476 59.4067 610.81 59.58C611.143 59.7667 611.61 59.86 612.21 59.86C612.836 59.86 613.363 59.7733 613.79 59.6C614.216 59.44 614.536 59.1467 614.75 58.72C614.976 58.3067 615.09 57.7333 615.09 57V55.64C614.77 56.0533 614.35 56.4 613.83 56.68C613.31 56.9467 612.656 57.08 611.87 57.08C611.123 57.08 610.483 56.9533 609.95 56.7C609.416 56.4333 608.976 56.08 608.63 55.64C608.296 55.1867 608.043 54.6733 607.87 54.1C607.71 53.5267 607.616 52.9267 607.59 52.3C607.576 51.9267 607.576 51.56 607.59 51.2C607.616 50.5733 607.71 49.9733 607.87 49.4C608.043 48.8267 608.296 48.3133 608.63 47.86C608.976 47.4067 609.416 47.0533 609.95 46.8C610.483 46.5333 611.123 46.4 611.87 46.4C612.67 46.4 613.33 46.5533 613.85 46.86C614.383 47.1533 614.816 47.5133 615.15 47.94V47.08C615.15 46.9467 615.19 46.8333 615.27 46.74C615.363 46.6467 615.476 46.6 615.61 46.6H616.53C616.663 46.6 616.776 46.6467 616.87 46.74C616.963 46.8333 617.01 46.9467 617.01 47.08V56.78C617.01 57.6733 616.856 58.4667 616.55 59.16C616.256 59.8533 615.763 60.4 615.07 60.8C614.39 61.2 613.47 61.4 612.31 61.4ZM612.27 55.48C612.936 55.48 613.47 55.3267 613.87 55.02C614.283 54.7133 614.583 54.3267 614.77 53.86C614.97 53.3933 615.076 52.92 615.09 52.44C615.103 52.2533 615.11 52.0267 615.11 51.76C615.11 51.48 615.103 51.2467 615.09 51.06C615.076 50.58 614.97 50.1067 614.77 49.64C614.583 49.1733 614.283 48.7867 613.87 48.48C613.47 48.1733 612.936 48.02 612.27 48.02C611.603 48.02 611.07 48.1733 610.67 48.48C610.27 48.7733 609.983 49.1667 609.81 49.66C609.636 50.14 609.536 50.66 609.51 51.22C609.496 51.5667 609.496 51.92 609.51 52.28C609.536 52.84 609.636 53.3667 609.81 53.86C609.983 54.34 610.27 54.7333 610.67 55.04C611.07 55.3333 611.603 55.48 612.27 55.48ZM625.945 57C625.812 57 625.699 56.96 625.605 56.88C625.525 56.7867 625.485 56.6733 625.485 56.54V47.08C625.485 46.9467 625.525 46.8333 625.605 46.74C625.699 46.6467 625.812 46.6 625.945 46.6H626.865C626.999 46.6 627.112 46.6467 627.205 46.74C627.299 46.8333 627.345 46.9467 627.345 47.08V47.96C627.612 47.5067 627.979 47.1667 628.445 46.94C628.912 46.7133 629.472 46.6 630.125 46.6H630.925C631.059 46.6 631.165 46.6467 631.245 46.74C631.325 46.82 631.365 46.9267 631.365 47.06V47.88C631.365 48.0133 631.325 48.12 631.245 48.2C631.165 48.28 631.059 48.32 630.925 48.32H629.725C629.005 48.32 628.439 48.5333 628.025 48.96C627.612 49.3733 627.405 49.94 627.405 50.66V56.54C627.405 56.6733 627.359 56.7867 627.265 56.88C627.172 56.96 627.059 57 626.925 57H625.945ZM637.328 57.2C635.954 57.2 634.861 56.78 634.048 55.94C633.234 55.0867 632.788 53.9267 632.708 52.46C632.694 52.2867 632.688 52.0667 632.688 51.8C632.688 51.52 632.694 51.2933 632.708 51.12C632.761 50.1733 632.981 49.3467 633.368 48.64C633.754 47.92 634.281 47.3667 634.948 46.98C635.628 46.5933 636.421 46.4 637.328 46.4C638.341 46.4 639.188 46.6133 639.868 47.04C640.561 47.4667 641.088 48.0733 641.448 48.86C641.808 49.6467 641.988 50.5667 641.988 51.62V51.96C641.988 52.1067 641.941 52.22 641.848 52.3C641.768 52.38 641.661 52.42 641.528 52.42H634.608C634.608 52.4333 634.608 52.46 634.608 52.5C634.608 52.54 634.608 52.5733 634.608 52.6C634.634 53.1467 634.754 53.66 634.968 54.14C635.181 54.6067 635.488 54.9867 635.888 55.28C636.288 55.5733 636.768 55.72 637.328 55.72C637.808 55.72 638.208 55.6467 638.528 55.5C638.848 55.3533 639.108 55.1933 639.308 55.02C639.508 54.8333 639.641 54.6933 639.708 54.6C639.828 54.4267 639.921 54.3267 639.988 54.3C640.054 54.26 640.161 54.24 640.308 54.24H641.268C641.401 54.24 641.508 54.28 641.588 54.36C641.681 54.4267 641.721 54.5267 641.708 54.66C641.694 54.86 641.588 55.1067 641.388 55.4C641.188 55.68 640.901 55.96 640.528 56.24C640.154 56.52 639.701 56.7533 639.168 56.94C638.634 57.1133 638.021 57.2 637.328 57.2ZM634.608 51.04H640.088V50.98C640.088 50.38 639.974 49.8467 639.748 49.38C639.534 48.9133 639.221 48.5467 638.808 48.28C638.394 48 637.901 47.86 637.328 47.86C636.754 47.86 636.261 48 635.848 48.28C635.448 48.5467 635.141 48.9133 634.928 49.38C634.714 49.8467 634.608 50.38 634.608 50.98V51.04ZM648.479 57.2C647.746 57.2 647.113 57.0733 646.579 56.82C646.046 56.5533 645.606 56.2 645.259 55.76C644.926 55.3067 644.673 54.7933 644.499 54.22C644.339 53.6467 644.246 53.04 644.219 52.4C644.206 52.1867 644.199 51.9867 644.199 51.8C644.199 51.6133 644.206 51.4133 644.219 51.2C644.246 50.5733 644.339 49.9733 644.499 49.4C644.673 48.8267 644.926 48.3133 645.259 47.86C645.606 47.4067 646.046 47.0533 646.579 46.8C647.113 46.5333 647.746 46.4 648.479 46.4C649.266 46.4 649.919 46.54 650.439 46.82C650.959 47.1 651.386 47.4467 651.719 47.86V43.26C651.719 43.1267 651.759 43.02 651.839 42.94C651.933 42.8467 652.046 42.8 652.179 42.8H653.139C653.273 42.8 653.379 42.8467 653.459 42.94C653.553 43.02 653.599 43.1267 653.599 43.26V56.54C653.599 56.6733 653.553 56.7867 653.459 56.88C653.379 56.96 653.273 57 653.139 57H652.239C652.093 57 651.979 56.96 651.899 56.88C651.819 56.7867 651.779 56.6733 651.779 56.54V55.7C651.446 56.1267 651.013 56.4867 650.479 56.78C649.946 57.06 649.279 57.2 648.479 57.2ZM648.899 55.58C649.566 55.58 650.099 55.4267 650.499 55.12C650.899 54.8133 651.199 54.4267 651.399 53.96C651.599 53.48 651.706 52.9933 651.719 52.5C651.733 52.2867 651.739 52.0333 651.739 51.74C651.739 51.4333 651.733 51.1733 651.719 50.96C651.706 50.4933 651.593 50.0333 651.379 49.58C651.179 49.1267 650.873 48.7533 650.459 48.46C650.059 48.1667 649.539 48.02 648.899 48.02C648.219 48.02 647.679 48.1733 647.279 48.48C646.879 48.7733 646.593 49.1667 646.419 49.66C646.246 50.14 646.146 50.66 646.119 51.22C646.106 51.6067 646.106 51.9933 646.119 52.38C646.146 52.94 646.246 53.4667 646.419 53.96C646.593 54.44 646.879 54.8333 647.279 55.14C647.679 55.4333 648.219 55.58 648.899 55.58ZM657.334 57C657.2 57 657.087 56.96 656.994 56.88C656.914 56.7867 656.874 56.6733 656.874 56.54V47.06C656.874 46.9267 656.914 46.82 656.994 46.74C657.087 46.6467 657.2 46.6 657.334 46.6H658.294C658.427 46.6 658.534 46.6467 658.614 46.74C658.694 46.82 658.734 46.9267 658.734 47.06V56.54C658.734 56.6733 658.694 56.7867 658.614 56.88C658.534 56.96 658.427 57 658.294 57H657.334ZM657.174 44.66C657.04 44.66 656.927 44.62 656.834 44.54C656.754 44.4467 656.714 44.3333 656.714 44.2V43.12C656.714 42.9867 656.754 42.88 656.834 42.8C656.927 42.7067 657.04 42.66 657.174 42.66H658.434C658.567 42.66 658.674 42.7067 658.754 42.8C658.847 42.88 658.894 42.9867 658.894 43.12V44.2C658.894 44.3333 658.847 44.4467 658.754 44.54C658.674 44.62 658.567 44.66 658.434 44.66H657.174ZM662.673 57C662.539 57 662.426 56.96 662.333 56.88C662.253 56.7867 662.213 56.6733 662.213 56.54V47.08C662.213 46.9467 662.253 46.8333 662.333 46.74C662.426 46.6467 662.539 46.6 662.673 46.6H663.593C663.726 46.6 663.839 46.6467 663.933 46.74C664.026 46.8333 664.073 46.9467 664.073 47.08V47.96C664.339 47.5067 664.706 47.1667 665.173 46.94C665.639 46.7133 666.199 46.6 666.853 46.6H667.653C667.786 46.6 667.893 46.6467 667.973 46.74C668.053 46.82 668.093 46.9267 668.093 47.06V47.88C668.093 48.0133 668.053 48.12 667.973 48.2C667.893 48.28 667.786 48.32 667.653 48.32H666.453C665.733 48.32 665.166 48.5333 664.753 48.96C664.339 49.3733 664.133 49.94 664.133 50.66V56.54C664.133 56.6733 664.086 56.7867 663.993 56.88C663.899 56.96 663.786 57 663.653 57H662.673ZM674.055 57.2C672.682 57.2 671.589 56.78 670.775 55.94C669.962 55.0867 669.515 53.9267 669.435 52.46C669.422 52.2867 669.415 52.0667 669.415 51.8C669.415 51.52 669.422 51.2933 669.435 51.12C669.489 50.1733 669.709 49.3467 670.095 48.64C670.482 47.92 671.009 47.3667 671.675 46.98C672.355 46.5933 673.149 46.4 674.055 46.4C675.069 46.4 675.915 46.6133 676.595 47.04C677.289 47.4667 677.815 48.0733 678.175 48.86C678.535 49.6467 678.715 50.5667 678.715 51.62V51.96C678.715 52.1067 678.669 52.22 678.575 52.3C678.495 52.38 678.389 52.42 678.255 52.42H671.335C671.335 52.4333 671.335 52.46 671.335 52.5C671.335 52.54 671.335 52.5733 671.335 52.6C671.362 53.1467 671.482 53.66 671.695 54.14C671.909 54.6067 672.215 54.9867 672.615 55.28C673.015 55.5733 673.495 55.72 674.055 55.72C674.535 55.72 674.935 55.6467 675.255 55.5C675.575 55.3533 675.835 55.1933 676.035 55.02C676.235 54.8333 676.369 54.6933 676.435 54.6C676.555 54.4267 676.649 54.3267 676.715 54.3C676.782 54.26 676.889 54.24 677.035 54.24H677.995C678.129 54.24 678.235 54.28 678.315 54.36C678.409 54.4267 678.449 54.5267 678.435 54.66C678.422 54.86 678.315 55.1067 678.115 55.4C677.915 55.68 677.629 55.96 677.255 56.24C676.882 56.52 676.429 56.7533 675.895 56.94C675.362 57.1133 674.749 57.2 674.055 57.2ZM671.335 51.04H676.815V50.98C676.815 50.38 676.702 49.8467 676.475 49.38C676.262 48.9133 675.949 48.5467 675.535 48.28C675.122 48 674.629 47.86 674.055 47.86C673.482 47.86 672.989 48 672.575 48.28C672.175 48.5467 671.869 48.9133 671.655 49.38C671.442 49.8467 671.335 50.38 671.335 50.98V51.04ZM685.607 57.2C684.66 57.2 683.84 57.02 683.147 56.66C682.467 56.2867 681.94 55.76 681.567 55.08C681.193 54.3867 680.993 53.56 680.967 52.6C680.953 52.4 680.947 52.1333 680.947 51.8C680.947 51.4667 680.953 51.2 680.967 51C680.993 50.04 681.193 49.22 681.567 48.54C681.94 47.8467 682.467 47.32 683.147 46.96C683.84 46.5867 684.66 46.4 685.607 46.4C686.38 46.4 687.04 46.5067 687.587 46.72C688.147 46.9333 688.607 47.2067 688.967 47.54C689.327 47.8733 689.593 48.2333 689.767 48.62C689.953 49.0067 690.053 49.3733 690.067 49.72C690.08 49.8533 690.04 49.96 689.947 50.04C689.853 50.12 689.74 50.16 689.607 50.16H688.647C688.513 50.16 688.413 50.1333 688.347 50.08C688.28 50.0133 688.213 49.9067 688.147 49.76C687.907 49.1067 687.58 48.6467 687.167 48.38C686.753 48.1133 686.24 47.98 685.627 47.98C684.827 47.98 684.173 48.2267 683.667 48.72C683.173 49.2133 682.907 50.0067 682.867 51.1C682.853 51.58 682.853 52.0467 682.867 52.5C682.907 53.6067 683.173 54.4067 683.667 54.9C684.173 55.38 684.827 55.62 685.627 55.62C686.24 55.62 686.753 55.4867 687.167 55.22C687.58 54.9533 687.907 54.4933 688.147 53.84C688.213 53.6933 688.28 53.5933 688.347 53.54C688.413 53.4733 688.513 53.44 688.647 53.44H689.607C689.74 53.44 689.853 53.48 689.947 53.56C690.04 53.64 690.08 53.7467 690.067 53.88C690.053 54.16 689.993 54.4467 689.887 54.74C689.78 55.0333 689.607 55.3333 689.367 55.64C689.14 55.9333 688.853 56.2 688.507 56.44C688.16 56.6667 687.74 56.8533 687.247 57C686.767 57.1333 686.22 57.2 685.607 57.2ZM696.802 57C696.055 57 695.448 56.86 694.982 56.58C694.515 56.2867 694.175 55.88 693.962 55.36C693.748 54.8267 693.642 54.2 693.642 53.48V48.2H692.082C691.948 48.2 691.835 48.16 691.742 48.08C691.662 47.9867 691.622 47.8733 691.622 47.74V47.06C691.622 46.9267 691.662 46.82 691.742 46.74C691.835 46.6467 691.948 46.6 692.082 46.6H693.642V43.26C693.642 43.1267 693.682 43.02 693.762 42.94C693.855 42.8467 693.968 42.8 694.102 42.8H695.042C695.175 42.8 695.282 42.8467 695.362 42.94C695.455 43.02 695.502 43.1267 695.502 43.26V46.6H697.982C698.115 46.6 698.222 46.6467 698.302 46.74C698.395 46.82 698.442 46.9267 698.442 47.06V47.74C698.442 47.8733 698.395 47.9867 698.302 48.08C698.222 48.16 698.115 48.2 697.982 48.2H695.502V53.34C695.502 53.9667 695.608 54.46 695.822 54.82C696.035 55.18 696.415 55.36 696.962 55.36H698.182C698.315 55.36 698.422 55.4067 698.502 55.5C698.595 55.58 698.642 55.6867 698.642 55.82V56.54C698.642 56.6733 698.595 56.7867 698.502 56.88C698.422 56.96 698.315 57 698.182 57H696.802ZM704.994 57.2C703.621 57.2 702.528 56.78 701.714 55.94C700.901 55.0867 700.454 53.9267 700.374 52.46C700.361 52.2867 700.354 52.0667 700.354 51.8C700.354 51.52 700.361 51.2933 700.374 51.12C700.428 50.1733 700.648 49.3467 701.034 48.64C701.421 47.92 701.948 47.3667 702.614 46.98C703.294 46.5933 704.088 46.4 704.994 46.4C706.008 46.4 706.854 46.6133 707.534 47.04C708.228 47.4667 708.754 48.0733 709.114 48.86C709.474 49.6467 709.654 50.5667 709.654 51.62V51.96C709.654 52.1067 709.608 52.22 709.514 52.3C709.434 52.38 709.328 52.42 709.194 52.42H702.274C702.274 52.4333 702.274 52.46 702.274 52.5C702.274 52.54 702.274 52.5733 702.274 52.6C702.301 53.1467 702.421 53.66 702.634 54.14C702.848 54.6067 703.154 54.9867 703.554 55.28C703.954 55.5733 704.434 55.72 704.994 55.72C705.474 55.72 705.874 55.6467 706.194 55.5C706.514 55.3533 706.774 55.1933 706.974 55.02C707.174 54.8333 707.308 54.6933 707.374 54.6C707.494 54.4267 707.588 54.3267 707.654 54.3C707.721 54.26 707.828 54.24 707.974 54.24H708.934C709.068 54.24 709.174 54.28 709.254 54.36C709.348 54.4267 709.388 54.5267 709.374 54.66C709.361 54.86 709.254 55.1067 709.054 55.4C708.854 55.68 708.568 55.96 708.194 56.24C707.821 56.52 707.368 56.7533 706.834 56.94C706.301 57.1133 705.688 57.2 704.994 57.2ZM702.274 51.04H707.754V50.98C707.754 50.38 707.641 49.8467 707.414 49.38C707.201 48.9133 706.888 48.5467 706.474 48.28C706.061 48 705.568 47.86 704.994 47.86C704.421 47.86 703.928 48 703.514 48.28C703.114 48.5467 702.808 48.9133 702.594 49.38C702.381 49.8467 702.274 50.38 702.274 50.98V51.04ZM716.146 57.2C715.412 57.2 714.779 57.0733 714.246 56.82C713.712 56.5533 713.272 56.2 712.926 55.76C712.592 55.3067 712.339 54.7933 712.166 54.22C712.006 53.6467 711.912 53.04 711.886 52.4C711.872 52.1867 711.866 51.9867 711.866 51.8C711.866 51.6133 711.872 51.4133 711.886 51.2C711.912 50.5733 712.006 49.9733 712.166 49.4C712.339 48.8267 712.592 48.3133 712.926 47.86C713.272 47.4067 713.712 47.0533 714.246 46.8C714.779 46.5333 715.412 46.4 716.146 46.4C716.932 46.4 717.586 46.54 718.106 46.82C718.626 47.1 719.052 47.4467 719.386 47.86V43.26C719.386 43.1267 719.426 43.02 719.506 42.94C719.599 42.8467 719.712 42.8 719.846 42.8H720.806C720.939 42.8 721.046 42.8467 721.126 42.94C721.219 43.02 721.266 43.1267 721.266 43.26V56.54C721.266 56.6733 721.219 56.7867 721.126 56.88C721.046 56.96 720.939 57 720.806 57H719.906C719.759 57 719.646 56.96 719.566 56.88C719.486 56.7867 719.446 56.6733 719.446 56.54V55.7C719.112 56.1267 718.679 56.4867 718.146 56.78C717.612 57.06 716.946 57.2 716.146 57.2ZM716.566 55.58C717.232 55.58 717.766 55.4267 718.166 55.12C718.566 54.8133 718.866 54.4267 719.066 53.96C719.266 53.48 719.372 52.9933 719.386 52.5C719.399 52.2867 719.406 52.0333 719.406 51.74C719.406 51.4333 719.399 51.1733 719.386 50.96C719.372 50.4933 719.259 50.0333 719.046 49.58C718.846 49.1267 718.539 48.7533 718.126 48.46C717.726 48.1667 717.206 48.02 716.566 48.02C715.886 48.02 715.346 48.1733 714.946 48.48C714.546 48.7733 714.259 49.1667 714.086 49.66C713.912 50.14 713.812 50.66 713.786 51.22C713.772 51.6067 713.772 51.9933 713.786 52.38C713.812 52.94 713.912 53.4667 714.086 53.96C714.259 54.44 714.546 54.8333 714.946 55.14C715.346 55.4333 715.886 55.58 716.566 55.58ZM733.373 57C732.626 57 732.019 56.86 731.553 56.58C731.086 56.2867 730.746 55.88 730.533 55.36C730.319 54.8267 730.213 54.2 730.213 53.48V48.2H728.653C728.519 48.2 728.406 48.16 728.313 48.08C728.233 47.9867 728.193 47.8733 728.193 47.74V47.06C728.193 46.9267 728.233 46.82 728.313 46.74C728.406 46.6467 728.519 46.6 728.653 46.6H730.213V43.26C730.213 43.1267 730.253 43.02 730.333 42.94C730.426 42.8467 730.539 42.8 730.673 42.8H731.613C731.746 42.8 731.853 42.8467 731.933 42.94C732.026 43.02 732.073 43.1267 732.073 43.26V46.6H734.553C734.686 46.6 734.793 46.6467 734.873 46.74C734.966 46.82 735.013 46.9267 735.013 47.06V47.74C735.013 47.8733 734.966 47.9867 734.873 48.08C734.793 48.16 734.686 48.2 734.553 48.2H732.073V53.34C732.073 53.9667 732.179 54.46 732.393 54.82C732.606 55.18 732.986 55.36 733.533 55.36H734.753C734.886 55.36 734.993 55.4067 735.073 55.5C735.166 55.58 735.213 55.6867 735.213 55.82V56.54C735.213 56.6733 735.166 56.7867 735.073 56.88C734.993 56.96 734.886 57 734.753 57H733.373ZM741.685 57.2C740.672 57.2 739.825 57.0067 739.145 56.62C738.465 56.2333 737.945 55.7 737.585 55.02C737.225 54.3267 737.025 53.54 736.985 52.66C736.972 52.4333 736.965 52.1467 736.965 51.8C736.965 51.44 736.972 51.1533 736.985 50.94C737.025 50.0467 737.225 49.26 737.585 48.58C737.959 47.9 738.485 47.3667 739.165 46.98C739.845 46.5933 740.685 46.4 741.685 46.4C742.685 46.4 743.525 46.5933 744.205 46.98C744.885 47.3667 745.405 47.9 745.765 48.58C746.139 49.26 746.345 50.0467 746.385 50.94C746.399 51.1533 746.405 51.44 746.405 51.8C746.405 52.1467 746.399 52.4333 746.385 52.66C746.345 53.54 746.145 54.3267 745.785 55.02C745.425 55.7 744.905 56.2333 744.225 56.62C743.545 57.0067 742.699 57.2 741.685 57.2ZM741.685 55.66C742.512 55.66 743.172 55.4 743.665 54.88C744.159 54.3467 744.425 53.5733 744.465 52.56C744.479 52.36 744.485 52.1067 744.485 51.8C744.485 51.4933 744.479 51.24 744.465 51.04C744.425 50.0267 744.159 49.26 743.665 48.74C743.172 48.2067 742.512 47.94 741.685 47.94C740.859 47.94 740.192 48.2067 739.685 48.74C739.192 49.26 738.932 50.0267 738.905 51.04C738.892 51.24 738.885 51.4933 738.885 51.8C738.885 52.1067 738.892 52.36 738.905 52.56C738.932 53.5733 739.192 54.3467 739.685 54.88C740.192 55.4 740.859 55.66 741.685 55.66ZM755.685 60.8C755.578 60.8 755.485 60.76 755.405 60.68C755.325 60.6 755.285 60.5067 755.285 60.4C755.285 60.3467 755.292 60.2933 755.305 60.24C755.318 60.1867 755.345 60.12 755.385 60.04L756.925 56.38L753.105 47.36C753.038 47.2 753.005 47.0867 753.005 47.02C753.005 46.9 753.045 46.8 753.125 46.72C753.205 46.64 753.305 46.6 753.425 46.6H754.405C754.538 46.6 754.645 46.6333 754.725 46.7C754.805 46.7667 754.858 46.8467 754.885 46.94L757.925 54.22L761.045 46.94C761.085 46.8467 761.138 46.7667 761.205 46.7C761.285 46.6333 761.398 46.6 761.545 46.6H762.485C762.605 46.6 762.705 46.64 762.785 46.72C762.865 46.8 762.905 46.8933 762.905 47C762.905 47.0667 762.872 47.1867 762.805 47.36L757.125 60.46C757.085 60.5533 757.025 60.6333 756.945 60.7C756.878 60.7667 756.772 60.8 756.625 60.8H755.685ZM769.089 57.2C768.076 57.2 767.229 57.0067 766.549 56.62C765.869 56.2333 765.349 55.7 764.989 55.02C764.629 54.3267 764.429 53.54 764.389 52.66C764.376 52.4333 764.369 52.1467 764.369 51.8C764.369 51.44 764.376 51.1533 764.389 50.94C764.429 50.0467 764.629 49.26 764.989 48.58C765.363 47.9 765.889 47.3667 766.569 46.98C767.249 46.5933 768.089 46.4 769.089 46.4C770.089 46.4 770.929 46.5933 771.609 46.98C772.289 47.3667 772.809 47.9 773.169 48.58C773.543 49.26 773.749 50.0467 773.789 50.94C773.803 51.1533 773.809 51.44 773.809 51.8C773.809 52.1467 773.803 52.4333 773.789 52.66C773.749 53.54 773.549 54.3267 773.189 55.02C772.829 55.7 772.309 56.2333 771.629 56.62C770.949 57.0067 770.103 57.2 769.089 57.2ZM769.089 55.66C769.916 55.66 770.576 55.4 771.069 54.88C771.563 54.3467 771.829 53.5733 771.869 52.56C771.883 52.36 771.889 52.1067 771.889 51.8C771.889 51.4933 771.883 51.24 771.869 51.04C771.829 50.0267 771.563 49.26 771.069 48.74C770.576 48.2067 769.916 47.94 769.089 47.94C768.263 47.94 767.596 48.2067 767.089 48.74C766.596 49.26 766.336 50.0267 766.309 51.04C766.296 51.24 766.289 51.4933 766.289 51.8C766.289 52.1067 766.296 52.36 766.309 52.56C766.336 53.5733 766.596 54.3467 767.089 54.88C767.596 55.4 768.263 55.66 769.089 55.66ZM780.494 57.2C779.64 57.2 778.914 57.0133 778.314 56.64C777.727 56.2533 777.28 55.72 776.974 55.04C776.667 54.36 776.514 53.58 776.514 52.7V47.06C776.514 46.9267 776.554 46.82 776.634 46.74C776.727 46.6467 776.84 46.6 776.974 46.6H777.974C778.107 46.6 778.214 46.6467 778.294 46.74C778.387 46.82 778.434 46.9267 778.434 47.06V52.6C778.434 54.5867 779.3 55.58 781.034 55.58C781.86 55.58 782.52 55.32 783.014 54.8C783.52 54.2667 783.774 53.5333 783.774 52.6V47.06C783.774 46.9267 783.814 46.82 783.894 46.74C783.987 46.6467 784.1 46.6 784.234 46.6H785.214C785.36 46.6 785.474 46.6467 785.554 46.74C785.634 46.82 785.674 46.9267 785.674 47.06V56.54C785.674 56.6733 785.634 56.7867 785.554 56.88C785.474 56.96 785.36 57 785.214 57H784.294C784.16 57 784.047 56.96 783.954 56.88C783.874 56.7867 783.834 56.6733 783.834 56.54V55.66C783.474 56.1267 783.034 56.5 782.514 56.78C782.007 57.06 781.334 57.2 780.494 57.2ZM789.405 57C789.272 57 789.158 56.96 789.065 56.88C788.985 56.7867 788.945 56.6733 788.945 56.54V47.08C788.945 46.9467 788.985 46.8333 789.065 46.74C789.158 46.6467 789.272 46.6 789.405 46.6H790.325C790.458 46.6 790.572 46.6467 790.665 46.74C790.758 46.8333 790.805 46.9467 790.805 47.08V47.96C791.072 47.5067 791.438 47.1667 791.905 46.94C792.372 46.7133 792.932 46.6 793.585 46.6H794.385C794.518 46.6 794.625 46.6467 794.705 46.74C794.785 46.82 794.825 46.9267 794.825 47.06V47.88C794.825 48.0133 794.785 48.12 794.705 48.2C794.625 48.28 794.518 48.32 794.385 48.32H793.185C792.465 48.32 791.898 48.5333 791.485 48.96C791.072 49.3733 790.865 49.94 790.865 50.66V56.54C790.865 56.6733 790.818 56.7867 790.725 56.88C790.632 56.96 790.518 57 790.385 57H789.405ZM805.376 57.2C804.643 57.2 804.009 57.0733 803.476 56.82C802.943 56.5533 802.503 56.2 802.156 55.76C801.823 55.3067 801.569 54.7933 801.396 54.22C801.236 53.6467 801.143 53.04 801.116 52.4C801.103 52.1867 801.096 51.9867 801.096 51.8C801.096 51.6133 801.103 51.4133 801.116 51.2C801.143 50.5733 801.236 49.9733 801.396 49.4C801.569 48.8267 801.823 48.3133 802.156 47.86C802.503 47.4067 802.943 47.0533 803.476 46.8C804.009 46.5333 804.643 46.4 805.376 46.4C806.163 46.4 806.816 46.54 807.336 46.82C807.856 47.1 808.283 47.4467 808.616 47.86V43.26C808.616 43.1267 808.656 43.02 808.736 42.94C808.829 42.8467 808.943 42.8 809.076 42.8H810.036C810.169 42.8 810.276 42.8467 810.356 42.94C810.449 43.02 810.496 43.1267 810.496 43.26V56.54C810.496 56.6733 810.449 56.7867 810.356 56.88C810.276 56.96 810.169 57 810.036 57H809.136C808.989 57 808.876 56.96 808.796 56.88C808.716 56.7867 808.676 56.6733 808.676 56.54V55.7C808.343 56.1267 807.909 56.4867 807.376 56.78C806.843 57.06 806.176 57.2 805.376 57.2ZM805.796 55.58C806.463 55.58 806.996 55.4267 807.396 55.12C807.796 54.8133 808.096 54.4267 808.296 53.96C808.496 53.48 808.603 52.9933 808.616 52.5C808.629 52.2867 808.636 52.0333 808.636 51.74C808.636 51.4333 808.629 51.1733 808.616 50.96C808.603 50.4933 808.489 50.0333 808.276 49.58C808.076 49.1267 807.769 48.7533 807.356 48.46C806.956 48.1667 806.436 48.02 805.796 48.02C805.116 48.02 804.576 48.1733 804.176 48.48C803.776 48.7733 803.489 49.1667 803.316 49.66C803.143 50.14 803.043 50.66 803.016 51.22C803.003 51.6067 803.003 51.9933 803.016 52.38C803.043 52.94 803.143 53.4667 803.316 53.96C803.489 54.44 803.776 54.8333 804.176 55.14C804.576 55.4333 805.116 55.58 805.796 55.58ZM816.671 57.2C816.004 57.2 815.397 57.0667 814.851 56.8C814.304 56.5333 813.864 56.1733 813.531 55.72C813.197 55.2667 813.031 54.7533 813.031 54.18C813.031 53.26 813.404 52.5267 814.151 51.98C814.897 51.4333 815.871 51.0733 817.071 50.9L820.051 50.48V49.9C820.051 49.26 819.864 48.76 819.491 48.4C819.131 48.04 818.537 47.86 817.711 47.86C817.111 47.86 816.624 47.98 816.251 48.22C815.891 48.46 815.637 48.7667 815.491 49.14C815.411 49.34 815.271 49.44 815.071 49.44H814.171C814.024 49.44 813.911 49.4 813.831 49.32C813.764 49.2267 813.731 49.12 813.731 49C813.731 48.8 813.804 48.5533 813.951 48.26C814.111 47.9667 814.351 47.68 814.671 47.4C814.991 47.12 815.397 46.8867 815.891 46.7C816.397 46.5 817.011 46.4 817.731 46.4C818.531 46.4 819.204 46.5067 819.751 46.72C820.297 46.92 820.724 47.1933 821.031 47.54C821.351 47.8867 821.577 48.28 821.711 48.72C821.857 49.16 821.931 49.6067 821.931 50.06V56.54C821.931 56.6733 821.884 56.7867 821.791 56.88C821.711 56.96 821.604 57 821.471 57H820.551C820.404 57 820.291 56.96 820.211 56.88C820.131 56.7867 820.091 56.6733 820.091 56.54V55.68C819.917 55.92 819.684 56.16 819.391 56.4C819.097 56.6267 818.731 56.82 818.291 56.98C817.851 57.1267 817.311 57.2 816.671 57.2ZM817.091 55.7C817.637 55.7 818.137 55.5867 818.591 55.36C819.044 55.12 819.397 54.7533 819.651 54.26C819.917 53.7667 820.051 53.1467 820.051 52.4V51.84L817.731 52.18C816.784 52.3133 816.071 52.54 815.591 52.86C815.111 53.1667 814.871 53.56 814.871 54.04C814.871 54.4133 814.977 54.7267 815.191 54.98C815.417 55.22 815.697 55.4 816.031 55.52C816.377 55.64 816.731 55.7 817.091 55.7ZM828.706 57.2C827.959 57.2 827.319 57.1067 826.786 56.92C826.252 56.7333 825.819 56.5067 825.486 56.24C825.152 55.9733 824.899 55.7067 824.726 55.44C824.566 55.1733 824.479 54.96 824.466 54.8C824.452 54.6533 824.499 54.54 824.606 54.46C824.712 54.38 824.819 54.34 824.926 54.34H825.806C825.886 54.34 825.946 54.3533 825.986 54.38C826.039 54.3933 826.106 54.4467 826.186 54.54C826.359 54.7267 826.552 54.9133 826.766 55.1C826.979 55.2867 827.239 55.44 827.546 55.56C827.866 55.68 828.259 55.74 828.726 55.74C829.406 55.74 829.966 55.6133 830.406 55.36C830.846 55.0933 831.066 54.7067 831.066 54.2C831.066 53.8667 830.972 53.6 830.786 53.4C830.612 53.2 830.292 53.02 829.826 52.86C829.372 52.7 828.746 52.5333 827.946 52.36C827.146 52.1733 826.512 51.9467 826.046 51.68C825.579 51.4 825.246 51.0733 825.046 50.7C824.846 50.3133 824.746 49.88 824.746 49.4C824.746 48.9067 824.892 48.4333 825.186 47.98C825.479 47.5133 825.906 47.1333 826.466 46.84C827.039 46.5467 827.752 46.4 828.606 46.4C829.299 46.4 829.892 46.4867 830.386 46.66C830.879 46.8333 831.286 47.0533 831.606 47.32C831.926 47.5733 832.166 47.8267 832.326 48.08C832.486 48.3333 832.572 48.5467 832.586 48.72C832.599 48.8533 832.559 48.9667 832.466 49.06C832.372 49.14 832.266 49.18 832.146 49.18H831.306C831.212 49.18 831.132 49.16 831.066 49.12C831.012 49.08 830.959 49.0333 830.906 48.98C830.772 48.8067 830.612 48.6333 830.426 48.46C830.252 48.2867 830.019 48.1467 829.726 48.04C829.446 47.92 829.072 47.86 828.606 47.86C827.939 47.86 827.439 48 827.106 48.28C826.772 48.56 826.606 48.9133 826.606 49.34C826.606 49.5933 826.679 49.82 826.826 50.02C826.972 50.22 827.252 50.4 827.666 50.56C828.079 50.72 828.692 50.8933 829.506 51.08C830.386 51.2533 831.079 51.4867 831.586 51.78C832.092 52.0733 832.452 52.4133 832.666 52.8C832.879 53.1867 832.986 53.6333 832.986 54.14C832.986 54.7 832.819 55.2133 832.486 55.68C832.166 56.1467 831.686 56.52 831.046 56.8C830.419 57.0667 829.639 57.2 828.706 57.2ZM836.081 57C835.948 57 835.834 56.96 835.741 56.88C835.661 56.7867 835.621 56.6733 835.621 56.54V43.26C835.621 43.1267 835.661 43.02 835.741 42.94C835.834 42.8467 835.948 42.8 836.081 42.8H837.081C837.228 42.8 837.341 42.8467 837.421 42.94C837.501 43.02 837.541 43.1267 837.541 43.26V47.92C837.901 47.4667 838.341 47.1 838.861 46.82C839.381 46.54 840.041 46.4 840.841 46.4C841.708 46.4 842.441 46.5933 843.041 46.98C843.654 47.3533 844.114 47.88 844.421 48.56C844.741 49.2267 844.901 50.0067 844.901 50.9V56.54C844.901 56.6733 844.861 56.7867 844.781 56.88C844.701 56.96 844.588 57 844.441 57H843.441C843.308 57 843.194 56.96 843.101 56.88C843.021 56.7867 842.981 56.6733 842.981 56.54V51C842.981 50.0667 842.754 49.34 842.301 48.82C841.848 48.2867 841.181 48.02 840.301 48.02C839.474 48.02 838.808 48.2867 838.301 48.82C837.794 49.34 837.541 50.0667 837.541 51V56.54C837.541 56.6733 837.501 56.7867 837.421 56.88C837.341 56.96 837.228 57 837.081 57H836.081ZM853.229 57.2C852.429 57.2 851.762 57.06 851.229 56.78C850.695 56.4867 850.269 56.1267 849.949 55.7V56.54C849.949 56.6733 849.902 56.7867 849.809 56.88C849.729 56.96 849.622 57 849.489 57H848.569C848.435 57 848.322 56.96 848.229 56.88C848.149 56.7867 848.109 56.6733 848.109 56.54V43.26C848.109 43.1267 848.149 43.02 848.229 42.94C848.322 42.8467 848.435 42.8 848.569 42.8H849.529C849.675 42.8 849.789 42.8467 849.869 42.94C849.949 43.02 849.989 43.1267 849.989 43.26V47.86C850.322 47.4467 850.749 47.1 851.269 46.82C851.802 46.54 852.455 46.4 853.229 46.4C853.975 46.4 854.609 46.5333 855.129 46.8C855.662 47.0533 856.095 47.4067 856.429 47.86C856.775 48.3133 857.035 48.8267 857.209 49.4C857.382 49.9733 857.475 50.5733 857.489 51.2C857.502 51.4133 857.509 51.6133 857.509 51.8C857.509 51.9867 857.502 52.1867 857.489 52.4C857.475 53.04 857.382 53.6467 857.209 54.22C857.035 54.7933 856.775 55.3067 856.429 55.76C856.095 56.2 855.662 56.5533 855.129 56.82C854.609 57.0733 853.975 57.2 853.229 57.2ZM852.809 55.58C853.502 55.58 854.042 55.4333 854.429 55.14C854.829 54.8333 855.115 54.44 855.289 53.96C855.462 53.4667 855.562 52.94 855.589 52.38C855.602 51.9933 855.602 51.6067 855.589 51.22C855.562 50.66 855.462 50.14 855.289 49.66C855.115 49.1667 854.829 48.7733 854.429 48.48C854.042 48.1733 853.502 48.02 852.809 48.02C852.182 48.02 851.662 48.1667 851.249 48.46C850.835 48.7533 850.522 49.1267 850.309 49.58C850.109 50.0333 850.002 50.4933 849.989 50.96C849.975 51.1733 849.969 51.4333 849.969 51.74C849.969 52.0333 849.975 52.2867 849.989 52.5C850.015 52.9933 850.122 53.48 850.309 53.96C850.509 54.4267 850.809 54.8133 851.209 55.12C851.622 55.4267 852.155 55.58 852.809 55.58ZM864.543 57.2C863.53 57.2 862.683 57.0067 862.003 56.62C861.323 56.2333 860.803 55.7 860.443 55.02C860.083 54.3267 859.883 53.54 859.843 52.66C859.83 52.4333 859.823 52.1467 859.823 51.8C859.823 51.44 859.83 51.1533 859.843 50.94C859.883 50.0467 860.083 49.26 860.443 48.58C860.816 47.9 861.343 47.3667 862.023 46.98C862.703 46.5933 863.543 46.4 864.543 46.4C865.543 46.4 866.383 46.5933 867.063 46.98C867.743 47.3667 868.263 47.9 868.623 48.58C868.996 49.26 869.203 50.0467 869.243 50.94C869.256 51.1533 869.263 51.44 869.263 51.8C869.263 52.1467 869.256 52.4333 869.243 52.66C869.203 53.54 869.003 54.3267 868.643 55.02C868.283 55.7 867.763 56.2333 867.083 56.62C866.403 57.0067 865.556 57.2 864.543 57.2ZM864.543 55.66C865.37 55.66 866.03 55.4 866.523 54.88C867.016 54.3467 867.283 53.5733 867.323 52.56C867.336 52.36 867.343 52.1067 867.343 51.8C867.343 51.4933 867.336 51.24 867.323 51.04C867.283 50.0267 867.016 49.26 866.523 48.74C866.03 48.2067 865.37 47.94 864.543 47.94C863.716 47.94 863.05 48.2067 862.543 48.74C862.05 49.26 861.79 50.0267 861.763 51.04C861.75 51.24 861.743 51.4933 861.743 51.8C861.743 52.1067 861.75 52.36 861.763 52.56C861.79 53.5733 862.05 54.3467 862.543 54.88C863.05 55.4 863.716 55.66 864.543 55.66ZM874.968 57.2C874.301 57.2 873.694 57.0667 873.148 56.8C872.601 56.5333 872.161 56.1733 871.828 55.72C871.494 55.2667 871.328 54.7533 871.328 54.18C871.328 53.26 871.701 52.5267 872.448 51.98C873.194 51.4333 874.168 51.0733 875.368 50.9L878.348 50.48V49.9C878.348 49.26 878.161 48.76 877.788 48.4C877.428 48.04 876.834 47.86 876.008 47.86C875.408 47.86 874.921 47.98 874.548 48.22C874.188 48.46 873.934 48.7667 873.788 49.14C873.708 49.34 873.568 49.44 873.368 49.44H872.468C872.321 49.44 872.208 49.4 872.128 49.32C872.061 49.2267 872.028 49.12 872.028 49C872.028 48.8 872.101 48.5533 872.248 48.26C872.408 47.9667 872.648 47.68 872.968 47.4C873.288 47.12 873.694 46.8867 874.188 46.7C874.694 46.5 875.308 46.4 876.028 46.4C876.828 46.4 877.501 46.5067 878.048 46.72C878.594 46.92 879.021 47.1933 879.328 47.54C879.648 47.8867 879.874 48.28 880.008 48.72C880.154 49.16 880.228 49.6067 880.228 50.06V56.54C880.228 56.6733 880.181 56.7867 880.088 56.88C880.008 56.96 879.901 57 879.768 57H878.848C878.701 57 878.588 56.96 878.508 56.88C878.428 56.7867 878.388 56.6733 878.388 56.54V55.68C878.214 55.92 877.981 56.16 877.688 56.4C877.394 56.6267 877.028 56.82 876.588 56.98C876.148 57.1267 875.608 57.2 874.968 57.2ZM875.388 55.7C875.934 55.7 876.434 55.5867 876.888 55.36C877.341 55.12 877.694 54.7533 877.948 54.26C878.214 53.7667 878.348 53.1467 878.348 52.4V51.84L876.028 52.18C875.081 52.3133 874.368 52.54 873.888 52.86C873.408 53.1667 873.168 53.56 873.168 54.04C873.168 54.4133 873.274 54.7267 873.488 54.98C873.714 55.22 873.994 55.4 874.328 55.52C874.674 55.64 875.028 55.7 875.388 55.7ZM883.863 57C883.729 57 883.616 56.96 883.523 56.88C883.443 56.7867 883.403 56.6733 883.403 56.54V47.08C883.403 46.9467 883.443 46.8333 883.523 46.74C883.616 46.6467 883.729 46.6 883.863 46.6H884.783C884.916 46.6 885.029 46.6467 885.123 46.74C885.216 46.8333 885.263 46.9467 885.263 47.08V47.96C885.529 47.5067 885.896 47.1667 886.363 46.94C886.829 46.7133 887.389 46.6 888.043 46.6H888.843C888.976 46.6 889.083 46.6467 889.163 46.74C889.243 46.82 889.283 46.9267 889.283 47.06V47.88C889.283 48.0133 889.243 48.12 889.163 48.2C889.083 48.28 888.976 48.32 888.843 48.32H887.643C886.923 48.32 886.356 48.5333 885.943 48.96C885.529 49.3733 885.323 49.94 885.323 50.66V56.54C885.323 56.6733 885.276 56.7867 885.183 56.88C885.089 56.96 884.976 57 884.843 57H883.863ZM894.885 57.2C894.152 57.2 893.519 57.0733 892.985 56.82C892.452 56.5533 892.012 56.2 891.665 55.76C891.332 55.3067 891.079 54.7933 890.905 54.22C890.745 53.6467 890.652 53.04 890.625 52.4C890.612 52.1867 890.605 51.9867 890.605 51.8C890.605 51.6133 890.612 51.4133 890.625 51.2C890.652 50.5733 890.745 49.9733 890.905 49.4C891.079 48.8267 891.332 48.3133 891.665 47.86C892.012 47.4067 892.452 47.0533 892.985 46.8C893.519 46.5333 894.152 46.4 894.885 46.4C895.672 46.4 896.325 46.54 896.845 46.82C897.365 47.1 897.792 47.4467 898.125 47.86V43.26C898.125 43.1267 898.165 43.02 898.245 42.94C898.339 42.8467 898.452 42.8 898.585 42.8H899.545C899.679 42.8 899.785 42.8467 899.865 42.94C899.959 43.02 900.005 43.1267 900.005 43.26V56.54C900.005 56.6733 899.959 56.7867 899.865 56.88C899.785 56.96 899.679 57 899.545 57H898.645C898.499 57 898.385 56.96 898.305 56.88C898.225 56.7867 898.185 56.6733 898.185 56.54V55.7C897.852 56.1267 897.419 56.4867 896.885 56.78C896.352 57.06 895.685 57.2 894.885 57.2ZM895.305 55.58C895.972 55.58 896.505 55.4267 896.905 55.12C897.305 54.8133 897.605 54.4267 897.805 53.96C898.005 53.48 898.112 52.9933 898.125 52.5C898.139 52.2867 898.145 52.0333 898.145 51.74C898.145 51.4333 898.139 51.1733 898.125 50.96C898.112 50.4933 897.999 50.0333 897.785 49.58C897.585 49.1267 897.279 48.7533 896.865 48.46C896.465 48.1667 895.945 48.02 895.305 48.02C894.625 48.02 894.085 48.1733 893.685 48.48C893.285 48.7733 892.999 49.1667 892.825 49.66C892.652 50.14 892.552 50.66 892.525 51.22C892.512 51.6067 892.512 51.9933 892.525 52.38C892.552 52.94 892.652 53.4667 892.825 53.96C892.999 54.44 893.285 54.8333 893.685 55.14C894.085 55.4333 894.625 55.58 895.305 55.58Z" fill="white"/>
<defs>
<clipPath id="clip0_1029_15768">
<rect width="20" height="20" fill="white" transform="translate(24 40)"/>
</clipPath>
</defs>
</svg>
