<svg width="374" height="347" viewBox="0 0 374 347" fill="none" xmlns="http://www.w3.org/2000/svg">
<path d="M187 346.874C83.7227 346.874 0 298.534 0 238.905C0 179.275 83.7227 130.936 187 130.936C290.277 130.936 374 179.275 374 238.905C374 298.534 290.277 346.874 187 346.874Z" fill="#F5F5F5"/>
<path d="M321.898 307.213L324.441 305.714C324.862 305.436 325.212 305.064 325.464 304.627C325.716 304.189 325.862 303.699 325.891 303.196V114.705C325.861 114.203 325.714 113.715 325.462 113.279C325.211 112.843 324.861 112.472 324.441 112.195L207.49 44.6643C207.039 44.4378 206.541 44.3198 206.036 44.3198C205.531 44.3198 205.034 44.4378 204.582 44.6643L202.039 46.1384C201.618 46.4146 201.266 46.7854 201.013 47.2213C200.76 47.6571 200.612 48.146 200.581 48.6491V237.172C200.611 237.676 200.758 238.167 201.012 238.604C201.265 239.041 201.617 239.413 202.039 239.691L318.99 307.213C319.441 307.439 319.939 307.557 320.444 307.557C320.949 307.557 321.447 307.439 321.898 307.213Z" fill="#37474F"/>
<path d="M200.597 48.4142C200.702 47.6691 201.31 47.3937 202.039 47.8149L318.989 115.337C319.419 115.602 319.774 115.973 320.018 116.414L325.469 113.272C325.222 112.832 324.868 112.461 324.44 112.195L207.489 44.6643C207.038 44.4378 206.54 44.3198 206.035 44.3198C205.531 44.3198 205.033 44.4378 204.582 44.6643L202.039 46.1384C201.649 46.3921 201.319 46.7266 201.07 47.1193C200.821 47.512 200.66 47.9536 200.597 48.4142Z" fill="#455A64"/>
<path d="M319.249 307.334C319.276 307.341 319.304 307.341 319.33 307.334L319.484 307.391H319.541C319.63 307.391 319.719 307.44 319.808 307.464C320.385 307.576 320.98 307.531 321.533 307.334C321.645 307.294 321.753 307.245 321.857 307.189L324.441 305.715C324.862 305.437 325.212 305.064 325.464 304.627C325.716 304.19 325.862 303.699 325.891 303.196V114.706C325.873 114.2 325.728 113.707 325.469 113.272L320.019 116.414C320.282 116.848 320.43 117.341 320.448 117.848V306.379C320.461 306.65 320.384 306.917 320.229 307.14C320.131 307.253 320.003 307.336 319.86 307.38C319.717 307.424 319.564 307.428 319.419 307.391L319.249 307.334Z" fill="#263238"/>
<path d="M278.244 107.141C278.282 106.943 278.372 106.758 278.504 106.606L278.601 106.525C278.677 106.467 278.767 106.43 278.862 106.416C278.957 106.402 279.053 106.411 279.143 106.444C279.216 106.461 279.284 106.492 279.346 106.533C279.706 106.781 279.987 107.127 280.156 107.529C280.372 107.985 280.488 108.482 280.496 108.987C280.529 109.364 280.412 109.739 280.172 110.032C280.065 110.135 279.926 110.198 279.779 110.209C279.631 110.221 279.484 110.181 279.362 110.097C279.189 109.992 279.035 109.858 278.909 109.7C278.793 109.549 278.69 109.39 278.601 109.222C278.352 108.735 278.216 108.198 278.204 107.651C278.199 107.48 278.213 107.309 278.244 107.141ZM259.228 64.6446C259.65 64.3967 260.131 64.2679 260.621 64.2721C261.55 64.3154 262.453 64.5941 263.245 65.082C265.455 66.435 267.162 68.4746 268.104 70.889C268.258 71.2292 268.404 71.5856 268.534 71.9338C268.663 72.2821 268.801 72.6384 268.914 73.0029C269.028 73.3674 269.157 73.7318 269.263 74.0963C269.303 74.2178 269.335 74.3473 269.376 74.4607L269.587 75.1977C269.583 75.2328 269.583 75.268 269.587 75.303C269.708 75.7485 269.821 76.2101 269.951 76.6637C270.016 76.9148 270.072 77.1496 270.137 77.3926L270.324 78.1134C270.583 79.0772 270.842 80.0005 271.133 80.8833L271.32 81.4179C271.409 81.6689 271.498 81.92 271.595 82.163C271.692 82.4059 271.749 82.5355 271.822 82.7056C271.943 83.0053 272.073 83.2888 272.211 83.5641C272.348 83.8395 272.381 83.9124 272.47 84.0825C274.519 88.0186 277.021 89.5574 278.471 91.5822C279.743 93.3478 280.091 94.7571 281.808 97.5512C282.351 98.4422 283.031 99.4707 283.922 100.702C286.392 104.103 287.275 105.788 287.575 106.809C287.578 106.835 287.578 106.863 287.575 106.89C287.575 106.97 287.575 107.043 287.631 107.116C287.634 107.14 287.634 107.165 287.631 107.189C287.635 107.254 287.635 107.319 287.631 107.384C287.66 107.582 287.673 107.782 287.672 107.983V115.547L284.95 117.119V109.546C284.957 109.151 284.9 108.757 284.78 108.38C284.481 107.359 283.606 105.683 281.128 102.281C280.237 101.042 279.556 100.013 279.014 99.1225C277.313 96.3364 276.949 94.9191 275.677 93.1696C274.227 91.1368 271.725 89.606 269.676 85.6618C269.38 85.0556 269.118 84.4337 268.89 83.799C267.578 80.5594 266.987 76.1939 265.375 72.5251C264.435 70.1138 262.727 68.0789 260.516 66.7342C258.855 65.7785 257.64 65.6975 256.709 66.1349L259.228 64.6446ZM247.298 74.3149C247.524 74.186 247.766 74.088 248.019 74.0234C249.047 73.7804 250.578 74.3797 252.117 74.2016C249.954 76.9958 246.95 75.1978 245.297 75.5946C245.04 75.6561 244.794 75.7572 244.568 75.8943L247.298 74.3149ZM241.531 84.7061C241.612 84.7555 241.688 84.8125 241.758 84.8762L241.871 84.9896L241.977 85.111C242.431 85.6982 242.681 86.4177 242.689 87.1601C242.716 87.5329 242.604 87.9024 242.374 88.1968C242.343 88.2258 242.31 88.2528 242.276 88.2778C242.201 88.3354 242.113 88.3731 242.02 88.3872C241.926 88.4014 241.83 88.3916 241.742 88.3588C241.667 88.341 241.596 88.3109 241.531 88.2697C241.45 88.2211 241.377 88.1563 241.296 88.0996C241.179 87.9894 241.073 87.8673 240.98 87.7351C240.595 87.1714 240.384 86.5067 240.373 85.8238C240.373 84.8438 240.891 84.3335 241.531 84.7061ZM239.749 77.8624C240.624 77.3748 241.574 77.038 242.56 76.8662C242.981 76.769 243.37 76.6637 243.686 76.5584C242.602 77.5228 241.274 78.1701 239.847 78.4293C238.98 78.5978 238.137 78.8698 237.336 79.2392L239.749 77.8624Z" fill="#7209B7" fill-opacity="0.5"/>
<path d="M237.117 79.3771L237.336 79.2475C238.137 78.8781 238.98 78.6062 239.846 78.4376C241.274 78.18 242.603 77.5325 243.685 76.5667C243.957 76.3162 244.252 76.0936 244.568 75.9026C244.795 75.7689 245.041 75.6705 245.297 75.611C246.917 75.2142 249.954 77.0122 252.108 74.218L252.181 74.1289C253.688 72.096 254.238 67.5605 256.498 66.2323L256.725 66.1027C257.656 65.6653 258.871 65.7463 260.531 66.702C266.517 70.1603 266.719 78.3728 268.874 83.7749C271.028 89.177 274.089 90.8697 275.75 93.1942C277.41 95.5186 277.523 97.2437 281.208 102.314C284.894 107.384 285.031 108.631 285.031 109.603V117.167L236.016 88.8207V81.2561C235.986 80.868 236.076 80.4801 236.272 80.1444C236.469 79.8086 236.764 79.5409 237.117 79.3771ZM279.346 110.097C279.986 110.47 280.496 109.975 280.496 108.987C280.502 108.522 280.402 108.06 280.203 107.639C280.003 107.218 279.71 106.848 279.346 106.558C278.706 106.185 278.196 106.687 278.196 107.675C278.189 108.14 278.29 108.6 278.489 109.02C278.688 109.44 278.981 109.808 279.346 110.097ZM260.531 87.3061C260.839 87.5398 261.197 87.697 261.577 87.7647C261.956 87.8324 262.347 87.8086 262.716 87.6955C263.085 87.5823 263.421 87.3829 263.698 87.1138C263.974 86.8447 264.183 86.5136 264.306 86.148C264.729 85.1901 264.931 84.1493 264.897 83.1027C264.897 79.3852 262.945 75.2466 260.531 73.8535C260.206 73.659 259.85 73.5195 259.479 73.4405C257.567 73.0598 256.166 74.8902 256.166 78.057C256.166 81.7744 258.118 85.9131 260.531 87.3061ZM241.531 88.2618C242.171 88.6344 242.689 88.1403 242.689 87.1603C242.694 86.6939 242.592 86.2325 242.391 85.8114C242.191 85.3903 241.896 85.0206 241.531 84.7306C240.891 84.3662 240.373 84.8602 240.373 85.8483C240.368 86.3124 240.47 86.7715 240.671 87.1899C240.872 87.6084 241.166 87.9751 241.531 88.2618Z" fill="#7209B7" fill-opacity="0.5"/>
<path opacity="0.1" d="M237.117 79.3771L237.336 79.2475C238.137 78.8781 238.98 78.6062 239.846 78.4376C241.274 78.18 242.603 77.5325 243.685 76.5667C243.957 76.3162 244.252 76.0936 244.568 75.9026C244.795 75.7689 245.041 75.6705 245.297 75.611C246.917 75.2142 249.954 77.0122 252.108 74.218L252.181 74.1289C253.688 72.096 254.238 67.5605 256.498 66.2323L256.725 66.1027C257.656 65.6653 258.871 65.7463 260.531 66.702C266.517 70.1603 266.719 78.3728 268.874 83.7749C271.028 89.177 274.089 90.8697 275.75 93.1942C277.41 95.5186 277.523 97.2437 281.208 102.314C284.894 107.384 285.031 108.631 285.031 109.603V117.167L236.016 88.8207V81.2561C235.986 80.868 236.076 80.4801 236.272 80.1444C236.469 79.8086 236.764 79.5409 237.117 79.3771ZM279.346 110.097C279.986 110.47 280.496 109.975 280.496 108.987C280.502 108.522 280.402 108.06 280.203 107.639C280.003 107.218 279.71 106.848 279.346 106.558C278.706 106.185 278.196 106.687 278.196 107.675C278.189 108.14 278.29 108.6 278.489 109.02C278.688 109.44 278.981 109.808 279.346 110.097ZM260.531 87.3061C260.839 87.5398 261.197 87.697 261.577 87.7647C261.956 87.8324 262.347 87.8086 262.716 87.6955C263.085 87.5823 263.421 87.3829 263.698 87.1138C263.974 86.8447 264.183 86.5136 264.306 86.148C264.729 85.1901 264.931 84.1493 264.897 83.1027C264.897 79.3852 262.945 75.2466 260.531 73.8535C260.206 73.659 259.85 73.5195 259.479 73.4405C257.567 73.0598 256.166 74.8902 256.166 78.057C256.166 81.7744 258.118 85.9131 260.531 87.3061ZM241.531 88.2618C242.171 88.6344 242.689 88.1403 242.689 87.1603C242.694 86.6939 242.592 86.2325 242.391 85.8114C242.191 85.3903 241.896 85.0206 241.531 84.7306C240.891 84.3662 240.373 84.8602 240.373 85.8483C240.368 86.3124 240.47 86.7715 240.671 87.1899C240.872 87.6084 241.166 87.9751 241.531 88.2618Z" fill="black"/>
<path opacity="0.25" d="M284.86 108.413C284.98 108.79 285.037 109.183 285.031 109.579V117.151L287.752 115.58V108.016C287.753 107.815 287.74 107.615 287.711 107.416C287.715 107.352 287.715 107.287 287.711 107.222C287.714 107.198 287.714 107.173 287.711 107.149C287.711 107.076 287.711 107.003 287.655 106.922V106.841L284.86 108.413Z" fill="black"/>
<path opacity="0.25" d="M275.757 93.2023C277.028 94.9517 277.376 96.369 279.093 99.1551L281.807 97.5677C280.106 94.7735 279.741 93.3642 278.47 91.5986L275.757 93.2023Z" fill="black"/>
<path opacity="0.25" d="M265.358 72.4606C266.978 76.1295 267.561 80.4544 268.873 83.7345C269.128 84.3904 269.42 85.0313 269.747 85.654L272.469 84.0909C272.38 83.9208 272.291 83.7426 272.21 83.5725C272.129 83.4025 271.942 83.0137 271.821 82.714C271.748 82.544 271.667 82.3577 271.594 82.1714C271.521 81.9851 271.408 81.6774 271.319 81.4263L271.132 80.8917C270.841 80.0089 270.582 79.0856 270.322 78.1219L270.136 77.401C270.071 77.1581 270.015 76.9232 269.95 76.6721C269.82 76.2186 269.707 75.7569 269.585 75.3115C269.582 75.2765 269.582 75.2412 269.585 75.2062L269.375 74.4692C269.334 74.3558 269.302 74.2262 269.262 74.1047C269.156 73.7402 269.035 73.3758 268.913 73.0113C268.792 72.6469 268.67 72.2986 268.533 71.9422C268.395 71.5859 268.257 71.2376 268.103 70.8975L265.358 72.4606Z" fill="black"/>
<path d="M280.164 107.529C280.381 107.985 280.497 108.483 280.504 108.987C280.537 109.364 280.421 109.739 280.18 110.032C280.413 109.736 280.526 109.363 280.496 108.987C280.487 108.484 280.374 107.987 280.164 107.529ZM278.188 107.651C278.189 107.479 278.208 107.308 278.245 107.141C278.211 107.309 278.194 107.48 278.196 107.651C278.206 108.197 278.339 108.734 278.585 109.222C278.336 108.735 278.2 108.198 278.188 107.651ZM242.277 88.2778C242.202 88.3355 242.113 88.3731 242.02 88.3873C241.926 88.4014 241.831 88.3917 241.742 88.3588C241.832 88.3869 241.926 88.3942 242.019 88.3802C242.111 88.3661 242.2 88.3311 242.277 88.2778Z" fill="#7209B7" fill-opacity="0.5"/>
<path d="M256.157 78.0568C256.157 81.7743 258.117 85.913 260.531 87.306C260.84 87.5311 261.197 87.6813 261.574 87.7448C261.952 87.8083 262.338 87.7833 262.704 87.6718C263.07 87.5603 263.405 87.3653 263.683 87.1023C263.961 86.8392 264.174 86.5153 264.305 86.1559C263.93 86.0754 263.572 85.9331 263.244 85.7348C260.814 84.3336 258.878 80.2031 258.878 76.4856C258.843 75.4381 259.048 74.3963 259.478 73.4403C257.55 73.0597 256.157 74.8901 256.157 78.0568Z" fill="#7209B7" fill-opacity="0.5"/>
<path opacity="0.3" d="M256.157 78.0568C256.157 81.7743 258.117 85.913 260.531 87.306C260.84 87.5311 261.197 87.6813 261.574 87.7448C261.952 87.8083 262.338 87.7833 262.704 87.6718C263.07 87.5603 263.405 87.3653 263.683 87.1023C263.961 86.8392 264.174 86.5153 264.305 86.1559C263.93 86.0754 263.572 85.9331 263.244 85.7348C260.814 84.3336 258.878 80.2031 258.878 76.4856C258.843 75.4381 259.048 74.3963 259.478 73.4403C257.55 73.0597 256.157 74.8901 256.157 78.0568Z" fill="black"/>
<path d="M278.608 109.222C278.689 109.392 278.79 109.553 278.907 109.7C279.034 109.858 279.187 109.993 279.361 110.097C279.482 110.182 279.63 110.222 279.777 110.21C279.925 110.198 280.064 110.135 280.171 110.032C280.411 109.74 280.527 109.365 280.495 108.988C280.487 108.483 280.371 107.986 280.154 107.53C279.985 107.127 279.704 106.781 279.345 106.534C279.283 106.492 279.214 106.462 279.142 106.444C279.031 106.406 278.912 106.401 278.798 106.429C278.684 106.458 278.581 106.52 278.502 106.606C278.37 106.759 278.281 106.943 278.243 107.141C278.206 107.309 278.187 107.48 278.186 107.651C278.199 108.201 278.343 108.74 278.608 109.222Z" fill="#37474F"/>
<path d="M240.373 85.8238C240.384 86.5067 240.595 87.1714 240.981 87.7352C241.073 87.8673 241.179 87.9894 241.296 88.0996C241.377 88.1563 241.45 88.2211 241.531 88.2697C241.596 88.3109 241.667 88.3411 241.742 88.3588C241.852 88.3957 241.97 88.4 242.082 88.3713C242.194 88.3425 242.295 88.2819 242.374 88.1968C242.604 87.9024 242.716 87.5329 242.689 87.1601C242.681 86.4177 242.431 85.6983 241.977 85.1111L241.871 84.9896L241.758 84.8762C241.688 84.8125 241.612 84.7555 241.531 84.7061C240.891 84.3335 240.373 84.8438 240.373 85.8238Z" fill="#37474F"/>
<path d="M311.401 132.969L209.627 74.2098C209.357 74.0738 209.059 74.0029 208.757 74.0029C208.454 74.0029 208.156 74.0738 207.886 74.2098L206.906 74.7767C206.653 74.9438 206.442 75.1676 206.29 75.4305C206.138 75.6935 206.049 75.9882 206.031 76.2913V231.551C206.049 231.853 206.137 232.147 206.289 232.409C206.441 232.67 206.652 232.893 206.906 233.057L308.679 291.816C308.948 291.956 309.247 292.029 309.55 292.029C309.853 292.029 310.152 291.956 310.421 291.816L311.401 291.249C311.655 291.085 311.867 290.863 312.019 290.601C312.171 290.339 312.259 290.045 312.275 289.743V134.483C312.259 134.18 312.172 133.884 312.02 133.621C311.868 133.358 311.656 133.134 311.401 132.969Z" fill="#F5F5F5"/>
<path d="M206.065 76.0243C206.179 75.6679 206.511 75.5545 206.875 75.7813L308.681 134.54C308.939 134.703 309.151 134.929 309.296 135.196L312.018 133.625C311.877 133.356 311.664 133.131 311.402 132.977L209.629 74.2182C209.361 74.0784 209.064 74.0054 208.762 74.0054C208.46 74.0054 208.163 74.0784 207.896 74.2182L206.908 74.777C206.691 74.9185 206.505 75.1017 206.361 75.3158C206.216 75.53 206.116 75.7708 206.065 76.0243Z" fill="#FAFAFA"/>
<path d="M308.882 291.946C308.986 291.985 309.095 292.013 309.206 292.027H309.376C309.551 292.047 309.727 292.047 309.902 292.027C310.013 292.014 310.122 291.986 310.226 291.946L310.421 291.849L311.401 291.282C311.656 291.119 311.868 290.897 312.02 290.635C312.173 290.373 312.26 290.078 312.275 289.776V134.484C312.267 134.179 312.177 133.883 312.016 133.625L309.295 135.196C309.448 135.457 309.535 135.752 309.546 136.055V291.314C309.546 291.792 309.271 292.027 308.882 291.946Z" fill="#E0E0E0"/>
<path d="M268.678 97.3086L268.816 97.5354C269.14 98.0656 269.376 98.6457 269.512 99.2524C269.512 99.301 269.512 99.3253 269.512 99.3496C269.514 99.363 269.514 99.3766 269.512 99.3901L271.173 108.736L271.691 111.725C271.691 111.846 271.748 111.968 271.78 112.098C271.812 112.218 271.849 112.337 271.893 112.454C271.893 112.535 271.95 112.616 271.982 112.697L269.261 114.268C269.131 113.956 269.036 113.63 268.978 113.296L268.443 110.308L266.823 100.961C266.7 100.212 266.41 99.5007 265.973 98.8798L268.678 97.3086Z" fill="#7209B7" fill-opacity="0.5"/>
<path d="M287.42 127.461C287.695 127.899 287.954 128.336 288.23 128.774C288.343 128.984 288.456 129.195 288.562 129.405C288.667 129.616 288.821 129.948 288.934 130.215C289.048 130.482 289.193 130.814 289.307 131.122C289.42 131.43 289.534 131.738 289.639 132.046C289.744 132.353 289.874 132.766 289.971 133.131C290.036 133.366 290.101 133.601 290.165 133.852C290.317 134.424 290.454 135.007 290.578 135.601C290.578 135.804 290.668 136.014 290.7 136.217C290.732 136.419 290.805 136.719 290.846 136.962C290.846 136.962 290.846 136.962 290.846 137.002C290.846 137.197 290.846 137.326 290.749 137.383C290.736 137.389 290.722 137.392 290.708 137.392C290.694 137.392 290.68 137.389 290.668 137.383L288.327 135.552L287.946 135.253L287.76 135.115L287.557 134.953L287.395 134.832L287.258 134.718C286.574 132.242 285.434 129.916 283.897 127.858L286.618 126.287C286.885 126.676 287.161 127.073 287.42 127.461Z" fill="#7209B7" fill-opacity="0.5"/>
<path d="M257.971 76.7446C258.101 76.9552 258.214 77.1658 258.327 77.3764C258.402 77.4925 258.467 77.6144 258.522 77.7408C258.619 77.9109 258.7 78.0891 258.789 78.2673C258.878 78.4454 258.935 78.5507 259 78.6965C259.137 78.9719 259.259 79.2472 259.372 79.5064C259.486 79.7656 259.631 80.1058 259.745 80.4054C259.858 80.6727 259.947 80.94 260.036 81.2153C260.182 81.6203 260.304 82.0252 260.417 82.4383C260.482 82.657 260.53 82.8675 260.587 83.0781C260.586 83.0943 260.586 83.1105 260.587 83.1267C260.587 83.2401 260.644 83.3454 260.66 83.4588C260.725 83.7099 260.773 83.969 260.814 84.2201C260.854 84.4712 260.895 84.6169 260.952 84.8194C261.008 85.0219 261.057 85.2406 261.122 85.4511C261.186 85.6617 261.251 85.848 261.316 86.0505C261.316 86.0505 261.316 86.0505 261.316 86.1072C261.397 86.3259 261.486 86.5526 261.583 86.7794C261.68 87.0062 261.761 87.2249 261.875 87.4597C261.903 87.5204 261.927 87.5826 261.948 87.646C262.029 87.8161 262.118 87.9862 262.199 88.1644L262.628 88.9743C262.725 89.1686 262.822 89.3468 262.928 89.5331L260.198 91.1043C259.218 89.4494 258.502 87.6512 258.076 85.7751C257.561 83.1232 256.591 80.5803 255.209 78.2592L257.971 76.7446Z" fill="#7209B7" fill-opacity="0.5"/>
<path d="M241.781 82.803C241.917 82.7211 242.069 82.6712 242.227 82.6572C241.962 83.0791 241.607 83.4363 241.186 83.7026C240.766 83.9689 240.291 84.1375 239.797 84.1961C239.563 84.1991 239.331 84.2486 239.117 84.3418L241.781 82.803Z" fill="#7209B7" fill-opacity="0.5"/>
<path opacity="0.4" d="M241.781 82.803C241.917 82.7211 242.069 82.6712 242.227 82.6572C241.962 83.0791 241.607 83.4363 241.186 83.7026C240.766 83.9689 240.291 84.1375 239.797 84.1961C239.563 84.1991 239.331 84.2486 239.117 84.3418L241.781 82.803Z" fill="white"/>
<path d="M231.634 94.6358C232.062 94.4269 232.534 94.3251 233.009 94.3392C233.485 94.3533 233.949 94.4829 234.364 94.7168C237.53 96.1099 238.899 96.7416 240.535 97.4219C240.851 99.5277 239.612 99.7221 238.996 99.471C236.696 98.5639 235.522 98.0051 231.634 96.2961C231.224 96.0657 230.763 95.9373 230.293 95.9218C229.822 95.9063 229.354 96.0041 228.929 96.2071L231.634 94.6358Z" fill="#7209B7" fill-opacity="0.5"/>
<path opacity="0.4" d="M231.634 94.6358C232.062 94.4269 232.534 94.3251 233.009 94.3392C233.485 94.3533 233.949 94.4829 234.364 94.7168C237.53 96.1099 238.899 96.7416 240.535 97.4219C240.851 99.5277 239.612 99.7221 238.996 99.471C236.696 98.5639 235.522 98.0051 231.634 96.2961C231.224 96.0657 230.763 95.9373 230.293 95.9218C229.822 95.9063 229.354 96.0041 228.929 96.2071L231.634 94.6358Z" fill="white"/>
<path d="M269.277 114.268C269.863 115.551 270.688 116.711 271.707 117.686L280.227 124.092C281.589 125.202 282.818 126.465 283.888 127.858L286.609 126.287C285.542 124.89 284.313 123.623 282.949 122.513L274.412 116.115C273.411 115.133 272.601 113.974 272.023 112.697L269.277 114.268Z" fill="#7209B7" fill-opacity="0.5"/>
<path opacity="0.4" d="M269.277 114.268C269.863 115.551 270.688 116.711 271.707 117.686L280.227 124.092C281.589 125.202 282.818 126.465 283.888 127.858L286.609 126.287C285.542 124.89 284.313 123.623 282.949 122.513L274.412 116.115C273.411 115.133 272.601 113.974 272.023 112.697L269.277 114.268Z" fill="white"/>
<path d="M260.24 91.1694C261.416 93.3425 262.864 95.3565 264.549 97.1627C265.08 97.6822 265.552 98.2579 265.958 98.8797L268.68 97.3085C268.28 96.6818 267.807 96.1054 267.27 95.5915C265.588 93.7848 264.143 91.7707 262.97 89.5981L260.24 91.1694Z" fill="#7209B7" fill-opacity="0.5"/>
<path opacity="0.4" d="M260.24 91.1694C261.416 93.3425 262.864 95.3565 264.549 97.1627C265.08 97.6822 265.552 98.2579 265.958 98.8797L268.68 97.3085C268.28 96.6818 267.807 96.1054 267.27 95.5915C265.588 93.7848 264.143 91.7707 262.97 89.5981L260.24 91.1694Z" fill="white"/>
<path d="M244.868 71.0595C245.872 70.533 247.209 70.6221 248.78 71.4482C251.112 72.6712 253.461 75.2629 255.259 78.3244L257.98 76.7045C256.199 73.6431 253.85 71.0352 251.501 69.8284C250.738 69.3975 249.883 69.1559 249.007 69.1238C248.482 69.1171 247.966 69.2483 247.508 69.5044L244.868 71.0595Z" fill="#7209B7" fill-opacity="0.5"/>
<path opacity="0.4" d="M244.868 71.0595C245.872 70.533 247.209 70.6221 248.78 71.4482C251.112 72.6712 253.461 75.2629 255.259 78.3244L257.98 76.7045C256.199 73.6431 253.85 71.0352 251.501 69.8284C250.738 69.3975 249.883 69.1559 249.007 69.1238C248.482 69.1171 247.966 69.2483 247.508 69.5044L244.868 71.0595Z" fill="white"/>
<path opacity="0.15" d="M283.865 127.858C285.403 129.916 286.543 132.242 287.226 134.718L287.364 134.832L287.526 134.953L287.729 135.115L287.915 135.253L288.295 135.552L290.604 137.399C290.616 137.405 290.63 137.408 290.644 137.408C290.658 137.408 290.672 137.405 290.685 137.399C290.774 137.342 290.814 137.213 290.782 137.018C290.782 137.018 290.782 137.018 290.782 136.978C290.782 136.735 290.693 136.484 290.636 136.233C290.579 135.982 290.555 135.82 290.515 135.617C290.39 135.029 290.253 134.446 290.102 133.868C290.037 133.617 289.972 133.382 289.907 133.147C289.81 132.782 289.697 132.426 289.575 132.062C289.454 131.697 289.365 131.446 289.243 131.138C289.122 130.831 289.008 130.531 288.87 130.231C288.733 129.932 288.628 129.672 288.498 129.421C288.368 129.17 288.279 129 288.166 128.79C287.931 128.352 287.672 127.915 287.356 127.478C287.04 127.04 286.821 126.668 286.546 126.303L283.865 127.858Z" fill="black"/>
<path opacity="0.15" d="M265.957 98.8798C266.394 99.5007 266.685 100.212 266.808 100.961L268.427 110.308L268.962 113.296C269.02 113.63 269.116 113.956 269.246 114.268L271.967 112.697C271.967 112.616 271.902 112.535 271.878 112.454C271.834 112.337 271.796 112.218 271.764 112.098C271.764 111.968 271.7 111.846 271.675 111.725L271.157 108.736L269.497 99.3901C269.498 99.3766 269.498 99.363 269.497 99.3496C269.497 99.3496 269.497 99.301 269.497 99.2524C269.36 98.6457 269.125 98.0656 268.8 97.5354L268.662 97.3086L265.957 98.8798Z" fill="black"/>
<path opacity="0.15" d="M255.25 78.3241C256.632 80.6453 257.602 83.1881 258.117 85.8401C258.543 87.7162 259.259 89.5143 260.239 91.1693L262.969 89.598C262.863 89.4118 262.766 89.2336 262.669 89.0392L262.24 88.2293C262.159 88.0511 262.07 87.881 261.989 87.711C261.968 87.6475 261.944 87.5853 261.916 87.5247C261.811 87.2979 261.713 87.063 261.624 86.8443C261.535 86.6257 261.438 86.3908 261.357 86.1721C261.357 86.1721 261.357 86.1316 261.357 86.1154C261.292 85.913 261.219 85.7186 261.163 85.5161C261.106 85.3136 261.041 85.0949 260.993 84.8844C260.944 84.6738 260.895 84.4794 260.855 84.285C260.814 84.0907 260.766 83.7748 260.701 83.5237C260.701 83.4103 260.652 83.305 260.628 83.1917C260.627 83.1755 260.627 83.1592 260.628 83.1431C260.571 82.9325 260.523 82.7219 260.458 82.5032C260.345 82.0902 260.223 81.6933 260.077 81.2803C259.988 81.0049 259.899 80.7376 259.786 80.4704C259.672 80.1707 259.543 79.871 259.413 79.5714C259.284 79.2717 259.178 79.0206 259.041 78.7614C258.976 78.6157 258.903 78.478 258.83 78.3322C258.757 78.1864 258.66 77.9758 258.563 77.8058C258.508 77.6793 258.443 77.5574 258.368 77.4413C258.255 77.2307 258.142 77.0201 258.012 76.8096L255.25 78.3241Z" fill="black"/>
<path d="M290.627 137.399L288.327 135.552C289.242 136.289 290.489 137.253 290.627 137.399Z" fill="#7209B7" fill-opacity="0.5"/>
<path d="M228.921 96.2233C229.347 96.0204 229.816 95.9219 230.287 95.936C230.759 95.9501 231.221 96.0764 231.634 96.3043C235.514 98.0213 236.688 98.5802 238.988 99.4954C239.604 99.7383 240.843 99.544 240.527 97.4382C240.53 97.3924 240.53 97.3463 240.527 97.3005L240.001 94.3119L238.527 86.1643C238.527 86.1643 238.194 84.8765 239.045 84.3987H239.11C239.319 84.2959 239.549 84.2459 239.782 84.2529C240.277 84.1919 240.753 84.0206 241.174 83.7515C241.594 83.4824 241.949 83.1223 242.212 82.6978C242.666 82.0216 242.982 81.2613 243.139 80.4616C243.296 79.662 243.292 78.8389 243.127 78.0409C242.503 74.5421 243.184 72.0961 244.747 71.189L244.868 71.108C245.872 70.5816 247.209 70.6707 248.78 71.4968C252.919 73.6673 257.098 80.1061 258.118 85.8889C258.758 89.5335 262.427 95.1462 264.549 97.2276C266.671 99.3091 266.809 101.026 266.809 101.026L268.428 110.372L268.963 113.361C269.352 115.596 271.644 117.759 271.644 117.759L280.229 124.092C283.635 126.802 286.094 130.522 287.251 134.718C287.251 134.718 290.49 137.197 290.652 137.399L289.559 136.776L230.662 102.913C230.662 102.913 229.982 102.549 229.852 102.452C229.723 102.354 227.334 100.119 227.334 100.119C227.374 98.1914 227.933 96.8146 228.921 96.2233ZM245.929 79.0452C246.561 82.6007 249.12 86.5611 251.663 87.8975C253.421 88.8127 254.709 88.2457 255.138 86.6259C255.326 85.7177 255.326 84.7804 255.138 83.8722C254.514 80.3167 251.939 76.3562 249.396 75.028C249.16 74.8999 248.914 74.7942 248.659 74.7121C246.577 74.0804 245.403 75.8541 245.945 79.0452H245.929Z" fill="#7209B7" fill-opacity="0.5"/>
<path d="M290.62 137.407L230.622 102.921L229.812 102.459C229.666 102.37 227.293 100.119 227.293 100.119L287.226 134.718C287.226 134.718 290.855 137.536 290.62 137.407Z" fill="#7209B7" fill-opacity="0.5"/>
<path opacity="0.3" d="M290.62 137.407L230.622 102.921L229.812 102.459C229.666 102.37 227.293 100.119 227.293 100.119L287.226 134.718C287.226 134.718 290.855 137.536 290.62 137.407Z" fill="black"/>
<path d="M248.641 74.7122C248.896 74.7943 249.143 74.9 249.378 75.0281C251.921 76.3563 254.497 80.3168 255.12 83.8723C255.309 84.7805 255.309 85.7178 255.12 86.626C254.691 88.2458 253.403 88.8127 251.646 87.8975C249.103 86.5612 246.543 82.6007 245.912 79.0452C245.402 75.8542 246.576 74.0805 248.641 74.7122ZM254.958 86.5612C255.138 85.6848 255.138 84.7811 254.958 83.9047C254.335 80.3897 251.8 76.4778 249.289 75.1739C249.08 75.0636 248.864 74.9688 248.641 74.8904C248.475 75.7463 248.475 76.6262 248.641 77.4821C249.265 81.0376 251.832 84.9981 254.383 86.3344C254.569 86.4321 254.761 86.516 254.958 86.5855V86.5612Z" fill="#7209B7" fill-opacity="0.5"/>
<path opacity="0.4" d="M248.641 74.7122C248.896 74.7943 249.143 74.9 249.378 75.0281C251.921 76.3563 254.497 80.3168 255.12 83.8723C255.309 84.7805 255.309 85.7178 255.12 86.626C254.691 88.2458 253.403 88.8127 251.646 87.8975C249.103 86.5612 246.543 82.6007 245.912 79.0452C245.402 75.8542 246.576 74.0805 248.641 74.7122ZM254.958 86.5612C255.138 85.6848 255.138 84.7811 254.958 83.9047C254.335 80.3897 251.8 76.4778 249.289 75.1739C249.08 75.0636 248.864 74.9688 248.641 74.8904C248.475 75.7463 248.475 76.6262 248.641 77.4821C249.265 81.0376 251.832 84.9981 254.383 86.3344C254.569 86.4321 254.761 86.516 254.958 86.5855V86.5612Z" fill="black"/>
<path d="M295.883 183.167C296.011 183.167 296.137 183.134 296.247 183.07C296.381 182.984 296.487 182.863 296.556 182.72C296.625 182.577 296.652 182.418 296.636 182.26V178.801C296.624 178.491 296.537 178.188 296.381 177.918C296.226 177.649 296.008 177.421 295.745 177.255L292.724 175.513C292.599 175.43 292.453 175.384 292.303 175.379C292.153 175.375 292.004 175.412 291.874 175.486C291.744 175.561 291.637 175.671 291.565 175.803C291.494 175.935 291.46 176.084 291.469 176.234V179.725C291.48 180.036 291.566 180.339 291.722 180.609C291.877 180.879 292.096 181.106 292.36 181.272L295.381 183.021C295.532 183.113 295.706 183.163 295.883 183.167ZM292.222 176.088C292.27 176.102 292.316 176.121 292.36 176.145L295.381 177.886C295.532 177.989 295.659 178.124 295.75 178.283C295.841 178.441 295.895 178.619 295.907 178.801V182.292C295.921 182.34 295.921 182.39 295.907 182.438C295.859 182.43 295.812 182.413 295.769 182.389L292.748 180.64C292.597 180.538 292.47 180.402 292.379 180.243C292.288 180.085 292.234 179.907 292.222 179.725V176.234C292.218 176.199 292.218 176.164 292.222 176.129V176.088Z" fill="#455A64"/>
<path d="M288.903 175.011L276.997 168.135C276.6 167.908 276.284 168.086 276.284 168.54V169.471C276.298 169.717 276.37 169.956 276.494 170.168C276.618 170.381 276.79 170.561 276.997 170.694L288.903 177.57C289.291 177.797 289.615 177.619 289.615 177.165V176.234C289.601 175.988 289.529 175.75 289.405 175.537C289.281 175.325 289.109 175.144 288.903 175.011Z" fill="#E0E0E0"/>
<path d="M266.379 166.134C266.507 166.136 266.633 166.102 266.744 166.037C266.878 165.952 266.987 165.832 267.057 165.689C267.127 165.546 267.156 165.386 267.14 165.227V161.737C267.127 161.425 267.038 161.122 266.881 160.852C266.725 160.583 266.505 160.356 266.241 160.19L263.22 158.448C263.096 158.359 262.948 158.307 262.794 158.298C262.641 158.29 262.488 158.325 262.354 158.4C262.223 158.478 262.117 158.592 262.049 158.728C261.98 158.865 261.951 159.017 261.965 159.169V162.66C261.976 162.971 262.063 163.275 262.218 163.544C262.373 163.814 262.592 164.041 262.856 164.207L265.877 165.956C266.025 166.059 266.199 166.121 266.379 166.134ZM262.726 159.056C262.771 159.072 262.814 159.091 262.856 159.112L265.877 160.854C266.03 160.956 266.157 161.091 266.25 161.25C266.343 161.408 266.398 161.586 266.412 161.769V165.26C266.428 165.307 266.428 165.358 266.412 165.405C266.364 165.396 266.317 165.38 266.274 165.357L263.253 163.607C263.1 163.506 262.973 163.371 262.882 163.212C262.79 163.053 262.737 162.875 262.726 162.692V159.202C262.712 159.154 262.712 159.103 262.726 159.056Z" fill="#455A64"/>
<path d="M259.397 157.979L247.491 151.103C247.094 150.876 246.778 151.054 246.778 151.508V152.439C246.792 152.685 246.864 152.923 246.988 153.136C247.112 153.348 247.284 153.529 247.491 153.662L259.397 160.538C259.794 160.765 260.109 160.587 260.109 160.133V159.202C260.091 158.957 260.017 158.72 259.894 158.508C259.77 158.296 259.6 158.115 259.397 157.979Z" fill="#E0E0E0"/>
<path d="M236.882 149.102C237.01 149.103 237.136 149.069 237.246 149.005C237.378 148.918 237.484 148.796 237.553 148.654C237.621 148.511 237.649 148.353 237.635 148.195V144.704C237.622 144.394 237.535 144.091 237.379 143.822C237.224 143.552 237.006 143.324 236.744 143.158L233.723 141.416C233.597 141.331 233.45 141.282 233.297 141.276C233.145 141.271 232.995 141.308 232.863 141.384C232.731 141.46 232.623 141.572 232.552 141.707C232.48 141.841 232.448 141.993 232.46 142.145V145.628C232.472 145.939 232.56 146.243 232.717 146.513C232.874 146.783 233.094 147.01 233.359 147.175L236.38 148.924C236.528 149.028 236.701 149.09 236.882 149.102ZM236.38 143.822C236.53 143.925 236.656 144.061 236.747 144.22C236.838 144.378 236.892 144.555 236.906 144.737V148.228C236.922 148.275 236.922 148.326 236.906 148.373C236.86 148.368 236.815 148.351 236.776 148.325L233.756 146.575C233.603 146.474 233.475 146.338 233.382 146.18C233.29 146.021 233.235 145.843 233.221 145.66V142.178C233.206 142.127 233.206 142.074 233.221 142.024C233.221 142.024 233.27 142.024 233.359 142.08L236.38 143.822Z" fill="#455A64"/>
<path d="M229.893 140.947L217.987 134.07C217.598 133.844 217.274 134.022 217.274 134.475V135.407C217.293 135.651 217.367 135.888 217.49 136.1C217.614 136.312 217.783 136.493 217.987 136.63L229.893 143.506C230.29 143.733 230.605 143.555 230.605 143.101V142.17C230.591 141.924 230.519 141.685 230.395 141.473C230.272 141.26 230.099 141.08 229.893 140.947Z" fill="#E0E0E0"/>
<path d="M288.869 157.971V159.331C288.869 160.077 288.351 160.376 287.711 160.004L218.059 119.824C217.721 119.602 217.44 119.304 217.239 118.954C217.038 118.604 216.922 118.211 216.901 117.807V116.439C216.901 115.702 217.419 115.402 218.059 115.766L287.711 155.954C288.049 156.176 288.329 156.474 288.531 156.824C288.732 157.175 288.848 157.567 288.869 157.971Z" fill="#E0E0E0"/>
<path d="M294.174 147.345V148.705C294.174 149.451 293.655 149.75 293.008 149.378L223.396 109.198C223.056 108.978 222.773 108.681 222.57 108.33C222.367 107.98 222.251 107.586 222.23 107.181V105.813C222.23 105.076 222.748 104.776 223.396 105.14L293.008 145.352C293.344 145.57 293.626 145.864 293.828 146.21C294.031 146.556 294.149 146.945 294.174 147.345Z" fill="#455A64"/>
<path d="M288.869 166.207V167.576C288.869 168.313 288.351 168.613 287.711 168.248L218.059 128.069C217.721 127.847 217.44 127.549 217.239 127.198C217.038 126.848 216.922 126.455 216.901 126.052V124.683C216.901 123.946 217.419 123.647 218.059 124.011L287.711 164.199C288.048 164.42 288.328 164.716 288.529 165.065C288.73 165.414 288.847 165.805 288.869 166.207Z" fill="#E0E0E0"/>
<path d="M296.5 166.912C294.678 165.106 294.224 164.337 294.224 163.673C294.224 163.008 294.491 162.652 295.309 163.122C295.663 163.327 295.967 163.608 296.201 163.944C296.435 164.28 296.592 164.663 296.662 165.066L298.654 165.511C298.481 164.467 298.087 163.472 297.499 162.593C296.911 161.713 296.143 160.968 295.245 160.409C293.252 159.259 292.094 160.117 292.094 162.028C292.205 163.889 293.015 165.639 294.362 166.928V168.508L296.5 169.739V166.912Z" fill="#455A64"/>
<path d="M296.523 172.161C296.527 171.771 296.428 171.388 296.238 171.048C296.048 170.709 295.772 170.425 295.438 170.225C294.725 169.812 294.361 170.176 294.361 170.913C294.355 171.304 294.451 171.69 294.64 172.032C294.829 172.375 295.104 172.662 295.438 172.865C296.159 173.278 296.523 172.889 296.523 172.161Z" fill="#455A64"/>
<path d="M295.414 178.802L294.523 179.474L295.333 181.013C295.402 181.106 295.44 181.22 295.44 181.337C295.44 181.454 295.402 181.567 295.333 181.661C295.179 181.774 294.96 181.661 294.831 181.418L294.021 179.887L293.13 180.559C293 180.656 292.806 180.559 292.692 180.349C292.633 180.268 292.6 180.17 292.6 180.069C292.6 179.969 292.633 179.871 292.692 179.79L293.583 179.118L292.773 177.579C292.704 177.485 292.666 177.372 292.666 177.255C292.666 177.138 292.704 177.025 292.773 176.931C292.927 176.818 293.146 176.931 293.276 177.174L294.085 178.713L294.976 178.04C295.106 177.943 295.3 178.04 295.414 178.243C295.474 178.324 295.506 178.422 295.506 178.522C295.506 178.623 295.474 178.721 295.414 178.802Z" fill="#7209B7" fill-opacity="0.5"/>
<path d="M295.883 213.919C296.01 213.923 296.136 213.892 296.247 213.83C296.381 213.744 296.487 213.623 296.556 213.48C296.625 213.337 296.652 213.178 296.636 213.02V209.53C296.625 209.218 296.539 208.915 296.383 208.645C296.228 208.375 296.009 208.148 295.745 207.983L292.724 206.241C292.599 206.158 292.453 206.112 292.303 206.107C292.153 206.103 292.004 206.14 291.874 206.214C291.744 206.289 291.637 206.399 291.565 206.531C291.494 206.663 291.46 206.812 291.469 206.962V210.453C291.48 210.764 291.566 211.068 291.722 211.337C291.877 211.607 292.096 211.834 292.36 212L295.381 213.741C295.529 213.844 295.703 213.906 295.883 213.919ZM292.222 206.849C292.271 206.858 292.318 206.877 292.36 206.905L295.381 208.647C295.532 208.749 295.659 208.885 295.75 209.043C295.841 209.202 295.895 209.379 295.907 209.562V213.053C295.921 213.1 295.921 213.151 295.907 213.198C295.859 213.19 295.812 213.174 295.769 213.15L292.748 211.4C292.597 211.298 292.47 211.163 292.379 211.004C292.288 210.845 292.234 210.668 292.222 210.485V206.994C292.214 206.946 292.214 206.897 292.222 206.849Z" fill="#455A64"/>
<path d="M288.903 205.763L276.997 198.895C276.6 198.668 276.284 198.847 276.284 199.3V200.223C276.297 200.47 276.368 200.711 276.492 200.925C276.616 201.139 276.789 201.32 276.997 201.454L288.903 208.331C289.291 208.557 289.615 208.371 289.615 207.918V206.994C289.602 206.747 289.53 206.507 289.406 206.293C289.282 206.08 289.11 205.898 288.903 205.763Z" fill="#E0E0E0"/>
<path d="M266.379 196.887C266.506 196.891 266.633 196.86 266.744 196.798C266.878 196.713 266.987 196.592 267.057 196.449C267.127 196.306 267.156 196.147 267.14 195.988V192.497C267.128 192.186 267.04 191.882 266.883 191.612C266.726 191.343 266.506 191.115 266.241 190.95L263.22 189.209C263.096 189.12 262.948 189.067 262.794 189.059C262.641 189.05 262.488 189.086 262.354 189.16C262.223 189.239 262.117 189.353 262.049 189.489C261.98 189.625 261.951 189.778 261.965 189.93V193.421C261.976 193.732 262.063 194.035 262.218 194.305C262.373 194.575 262.592 194.802 262.856 194.968L265.877 196.709C266.025 196.812 266.199 196.874 266.379 196.887ZM262.726 189.816C262.773 189.828 262.816 189.847 262.856 189.873L265.877 191.614C266.03 191.716 266.157 191.852 266.25 192.01C266.343 192.169 266.398 192.347 266.412 192.53V196.02C266.428 196.068 266.428 196.119 266.412 196.166C266.364 196.157 266.317 196.14 266.274 196.118L263.253 194.368C263.101 194.266 262.975 194.13 262.883 193.972C262.792 193.813 262.739 193.636 262.726 193.453V189.962C262.712 189.915 262.712 189.864 262.726 189.816Z" fill="#455A64"/>
<path d="M259.397 188.731L247.491 181.863C247.094 181.636 246.778 181.814 246.778 182.268V183.191C246.791 183.438 246.863 183.679 246.986 183.893C247.11 184.107 247.283 184.288 247.491 184.422L259.397 191.298C259.794 191.525 260.109 191.298 260.109 190.885V189.962C260.092 189.716 260.019 189.477 259.895 189.264C259.772 189.051 259.601 188.868 259.397 188.731Z" fill="#E0E0E0"/>
<path d="M236.882 179.855C237.009 179.858 237.135 179.827 237.246 179.765C237.378 179.678 237.484 179.557 237.553 179.414C237.621 179.272 237.649 179.113 237.635 178.956V175.465C237.622 175.154 237.535 174.851 237.379 174.582C237.224 174.313 237.006 174.085 236.744 173.918L233.723 172.177C233.598 172.091 233.451 172.043 233.3 172.037C233.148 172.031 232.998 172.068 232.867 172.143C232.735 172.218 232.627 172.329 232.555 172.462C232.483 172.595 232.45 172.746 232.46 172.897V176.388C232.472 176.7 232.56 177.004 232.717 177.273C232.874 177.543 233.094 177.77 233.359 177.935L236.38 179.676C236.528 179.78 236.701 179.842 236.882 179.855ZM236.38 174.582C236.53 174.686 236.656 174.822 236.747 174.98C236.838 175.138 236.892 175.315 236.906 175.497V178.988C236.922 179.035 236.922 179.086 236.906 179.134C236.861 179.123 236.817 179.107 236.776 179.085L233.756 177.336C233.603 177.234 233.475 177.099 233.382 176.94C233.29 176.781 233.235 176.604 233.221 176.421V172.93C233.207 172.882 233.207 172.832 233.221 172.784C233.269 172.796 233.316 172.815 233.359 172.841L236.38 174.582Z" fill="#455A64"/>
<path d="M229.893 171.699L217.987 164.831C217.598 164.604 217.274 164.782 217.274 165.236V166.159C217.292 166.405 217.365 166.644 217.488 166.857C217.612 167.07 217.782 167.253 217.987 167.39L229.893 174.266C230.29 174.493 230.605 174.307 230.605 173.853V172.93C230.593 172.683 230.521 172.443 230.397 172.229C230.273 172.015 230.1 171.833 229.893 171.699Z" fill="#E0E0E0"/>
<path d="M288.869 188.723V190.092C288.869 190.829 288.351 191.128 287.711 190.764L218.059 150.584C217.721 150.363 217.44 150.064 217.239 149.714C217.038 149.364 216.922 148.971 216.901 148.568V147.199C216.901 146.462 217.419 146.162 218.059 146.527L287.711 186.714C288.048 186.935 288.328 187.232 288.529 187.581C288.73 187.93 288.847 188.321 288.869 188.723Z" fill="#E0E0E0"/>
<path d="M288.869 196.968V198.336C288.869 199.073 288.351 199.373 287.711 199.009L218.059 158.821C217.72 158.602 217.439 158.306 217.237 157.956C217.036 157.607 216.921 157.215 216.901 156.812V155.444C216.901 154.698 217.419 154.399 218.059 154.771L287.711 194.959C288.048 195.18 288.328 195.477 288.529 195.826C288.73 196.175 288.847 196.566 288.869 196.968Z" fill="#E0E0E0"/>
<path d="M296.5 197.672C294.678 195.866 294.224 195.097 294.224 194.433C294.224 193.768 294.491 193.412 295.309 193.882C295.663 194.087 295.967 194.368 296.201 194.704C296.435 195.04 296.592 195.423 296.662 195.826L298.654 196.271C298.481 195.227 298.087 194.232 297.499 193.353C296.911 192.473 296.143 191.728 295.245 191.169C293.252 190.019 292.094 190.877 292.094 192.829C292.205 194.69 293.015 196.44 294.362 197.729V199.308L296.5 200.539V197.672Z" fill="#455A64"/>
<path d="M296.523 202.921C296.527 202.532 296.428 202.148 296.238 201.809C296.048 201.469 295.772 201.185 295.438 200.985C294.725 200.572 294.361 200.937 294.361 201.674C294.356 202.064 294.452 202.45 294.641 202.792C294.83 203.134 295.105 203.422 295.438 203.625C296.159 204.038 296.523 203.666 296.523 202.921Z" fill="#455A64"/>
<path d="M265.909 192.497L265.019 193.169L265.828 194.708C265.898 194.802 265.936 194.915 265.936 195.032C265.936 195.149 265.898 195.262 265.828 195.356C265.683 195.469 265.456 195.356 265.326 195.113L264.516 193.582L263.626 194.255C263.496 194.352 263.302 194.255 263.196 194.044C263.136 193.963 263.104 193.865 263.104 193.765C263.104 193.664 263.136 193.566 263.196 193.485L264.087 192.813L263.277 191.274C263.212 191.177 263.181 191.06 263.188 190.943C263.195 190.826 263.241 190.715 263.318 190.626C263.464 190.521 263.69 190.626 263.82 190.869L264.63 192.408L265.521 191.736C265.642 191.639 265.837 191.736 265.95 191.938C266.005 192.023 266.032 192.123 266.024 192.224C266.017 192.325 265.977 192.421 265.909 192.497Z" fill="#7209B7" fill-opacity="0.5"/>
<path d="M295.884 244.68C296.012 244.68 296.138 244.647 296.248 244.583C296.379 244.504 296.485 244.39 296.554 244.254C296.622 244.118 296.651 243.965 296.637 243.813V240.322C296.626 240.011 296.54 239.708 296.384 239.438C296.229 239.168 296.01 238.941 295.746 238.776L292.725 237.034C292.6 236.951 292.454 236.905 292.304 236.9C292.154 236.896 292.005 236.933 291.875 237.007C291.745 237.082 291.638 237.192 291.567 237.324C291.495 237.456 291.461 237.605 291.47 237.755V241.246C291.481 241.557 291.567 241.86 291.723 242.13C291.878 242.4 292.097 242.627 292.361 242.793L295.382 244.534C295.533 244.626 295.707 244.676 295.884 244.68ZM292.223 237.609C292.272 237.618 292.319 237.638 292.361 237.666L295.382 239.407C295.534 239.51 295.66 239.645 295.751 239.804C295.842 239.962 295.896 240.14 295.908 240.322V243.813C295.921 243.861 295.921 243.911 295.908 243.959C295.859 243.95 295.812 243.931 295.77 243.902L292.75 242.161C292.598 242.059 292.471 241.923 292.38 241.764C292.289 241.606 292.235 241.428 292.223 241.246V237.755C292.215 237.707 292.215 237.658 292.223 237.609Z" fill="#455A64"/>
<path d="M288.903 236.524L276.997 229.647C276.6 229.421 276.284 229.607 276.284 230.06V230.984C276.297 231.231 276.368 231.471 276.492 231.685C276.616 231.899 276.789 232.081 276.997 232.215L288.903 239.091C289.291 239.318 289.615 239.131 289.615 238.678V237.755C289.602 237.508 289.53 237.268 289.406 237.054C289.282 236.84 289.11 236.658 288.903 236.524Z" fill="#E0E0E0"/>
<path d="M266.378 227.647C266.506 227.649 266.632 227.615 266.743 227.55C266.875 227.473 266.982 227.359 267.052 227.223C267.123 227.087 267.153 226.933 267.139 226.781V223.29C267.127 222.978 267.039 222.675 266.882 222.405C266.725 222.135 266.505 221.908 266.24 221.743L263.22 220.002C263.093 219.916 262.946 219.866 262.794 219.856C262.642 219.846 262.489 219.877 262.353 219.945C262.221 220.032 262.115 220.154 262.047 220.296C261.978 220.439 261.95 220.598 261.964 220.755V224.246C261.975 224.557 262.062 224.86 262.217 225.13C262.372 225.4 262.591 225.627 262.855 225.793L265.876 227.534C266.031 227.614 266.204 227.653 266.378 227.647ZM262.725 220.577C262.772 220.588 262.815 220.608 262.855 220.634L265.876 222.375C266.029 222.477 266.156 222.612 266.249 222.771C266.342 222.929 266.397 223.107 266.411 223.29V226.781C266.425 226.828 266.425 226.879 266.411 226.927C266.362 226.916 266.315 226.897 266.273 226.87L263.22 225.129C263.068 225.026 262.941 224.891 262.85 224.732C262.759 224.573 262.705 224.396 262.693 224.213V220.723C262.687 220.672 262.699 220.62 262.725 220.577Z" fill="#455A64"/>
<path d="M259.397 219.491L247.491 212.615C247.094 212.396 246.778 212.575 246.778 213.028V213.951C246.791 214.198 246.863 214.439 246.986 214.653C247.11 214.867 247.283 215.048 247.491 215.182L259.397 222.059C259.794 222.285 260.109 222.099 260.109 221.646V220.722C260.092 220.476 260.019 220.238 259.895 220.024C259.772 219.811 259.601 219.629 259.397 219.491Z" fill="#E0E0E0"/>
<path d="M236.882 210.615C237.01 210.615 237.136 210.582 237.246 210.517C237.377 210.439 237.483 210.325 237.552 210.189C237.62 210.053 237.649 209.9 237.635 209.748V206.257C237.624 205.946 237.538 205.643 237.382 205.373C237.227 205.103 237.008 204.876 236.744 204.71L233.723 202.969C233.6 202.881 233.454 202.829 233.302 202.82C233.15 202.811 232.999 202.844 232.865 202.917C232.732 202.99 232.622 203.098 232.547 203.231C232.472 203.363 232.437 203.514 232.444 203.666V207.156C232.456 207.468 232.544 207.772 232.701 208.041C232.858 208.311 233.078 208.538 233.343 208.703L236.364 210.445C236.517 210.548 236.697 210.607 236.882 210.615ZM236.38 205.342C236.53 205.446 236.656 205.582 236.747 205.74C236.838 205.898 236.892 206.075 236.906 206.257V209.748C236.921 209.796 236.921 209.846 236.906 209.894C236.86 209.882 236.816 209.863 236.777 209.837L233.756 208.096C233.603 207.994 233.475 207.859 233.383 207.7C233.29 207.541 233.235 207.364 233.221 207.181V203.666C233.207 203.618 233.207 203.567 233.221 203.52C233.269 203.531 233.315 203.547 233.359 203.568L236.38 205.342Z" fill="#455A64"/>
<path d="M229.893 202.459L217.987 195.583C217.598 195.364 217.274 195.583 217.274 195.996V196.919C217.292 197.165 217.365 197.404 217.488 197.617C217.612 197.83 217.782 198.013 217.987 198.15L229.893 205.026C230.29 205.253 230.605 205.067 230.605 204.613V203.666C230.589 203.423 230.516 203.188 230.392 202.978C230.268 202.769 230.097 202.591 229.893 202.459Z" fill="#E0E0E0"/>
<path d="M288.869 219.483V220.852C288.869 221.589 288.351 221.889 287.711 221.524L218.059 181.337C217.72 181.118 217.439 180.821 217.237 180.472C217.036 180.123 216.921 179.731 216.901 179.328V177.959C216.901 177.222 217.419 176.914 218.059 177.287L287.711 217.475C288.048 217.696 288.328 217.993 288.529 218.341C288.73 218.69 288.847 219.081 288.869 219.483Z" fill="#E0E0E0"/>
<path d="M288.869 227.728V229.097C288.869 229.834 288.351 230.134 287.711 229.761L218.059 189.582C217.721 189.362 217.44 189.065 217.239 188.716C217.038 188.367 216.922 187.975 216.901 187.573V186.204C216.901 185.459 217.419 185.16 218.059 185.532L287.711 225.72C288.048 225.94 288.329 226.236 288.531 226.585C288.732 226.934 288.848 227.326 288.869 227.728Z" fill="#E0E0E0"/>
<path d="M296.5 228.433C294.678 226.627 294.224 225.857 294.224 225.193C294.224 224.529 294.491 224.164 295.309 224.642C295.663 224.848 295.967 225.129 296.201 225.464C296.435 225.8 296.592 226.183 296.662 226.586L298.654 227.023C298.48 225.981 298.085 224.988 297.498 224.109C296.91 223.231 296.142 222.488 295.245 221.929C293.252 220.779 292.094 221.638 292.094 223.549C292.205 225.41 293.015 227.16 294.362 228.449V230.028L296.5 231.259V228.433Z" fill="#455A64"/>
<path d="M296.523 233.681C296.527 233.291 296.429 232.906 296.239 232.565C296.048 232.224 295.772 231.939 295.438 231.737C294.725 231.332 294.361 231.697 294.361 232.434C294.356 232.825 294.453 233.21 294.642 233.552C294.831 233.894 295.105 234.181 295.438 234.386C296.159 234.799 296.523 234.442 296.523 233.681Z" fill="#455A64"/>
<path d="M236.405 206.225L235.522 206.897L236.332 208.436C236.403 208.529 236.441 208.643 236.441 208.76C236.441 208.877 236.403 208.991 236.332 209.084C236.186 209.197 235.959 209.084 235.83 208.841L235.02 207.302L234.129 207.975C233.999 208.072 233.813 207.975 233.7 207.772C233.639 207.692 233.605 207.594 233.605 207.493C233.605 207.392 233.639 207.294 233.7 207.213L234.591 206.541L233.781 205.002C233.719 204.903 233.69 204.788 233.697 204.672C233.704 204.556 233.748 204.445 233.821 204.354C233.967 204.241 234.194 204.354 234.323 204.597L235.133 206.136L236.024 205.456C236.154 205.359 236.348 205.456 236.453 205.666C236.508 205.752 236.532 205.853 236.524 205.954C236.515 206.055 236.473 206.15 236.405 206.225Z" fill="#7209B7" fill-opacity="0.5"/>
<path d="M295.884 275.44C296.012 275.441 296.138 275.407 296.248 275.343C296.379 275.264 296.485 275.15 296.554 275.014C296.622 274.878 296.651 274.725 296.637 274.574V271.083C296.626 270.772 296.54 270.468 296.384 270.198C296.229 269.929 296.01 269.701 295.746 269.536L292.725 267.787C292.597 267.704 292.45 267.657 292.298 267.648C292.146 267.64 291.995 267.671 291.859 267.738C291.725 267.824 291.618 267.945 291.55 268.088C291.481 268.231 291.454 268.39 291.47 268.548V272.039C291.483 272.349 291.57 272.652 291.725 272.921C291.881 273.191 292.099 273.419 292.361 273.585L295.382 275.327C295.537 275.407 295.71 275.446 295.884 275.44ZM292.223 268.37C292.271 268.378 292.318 268.394 292.361 268.418L295.382 270.168C295.534 270.27 295.66 270.406 295.751 270.564C295.842 270.723 295.896 270.9 295.908 271.083V274.574C295.921 274.621 295.921 274.672 295.908 274.719C295.86 274.706 295.814 274.687 295.77 274.663L292.75 272.921C292.598 272.819 292.471 272.683 292.38 272.525C292.289 272.366 292.235 272.189 292.223 272.006V268.515C292.214 268.467 292.214 268.418 292.223 268.37Z" fill="#455A64"/>
<path d="M288.903 267.284L276.997 260.408C276.6 260.181 276.284 260.368 276.284 260.821V261.745C276.297 261.991 276.368 262.232 276.492 262.446C276.616 262.66 276.789 262.841 276.997 262.976L288.903 269.852C289.291 270.078 289.615 269.852 289.615 269.439V268.515C289.602 268.269 289.53 268.028 289.406 267.815C289.282 267.601 289.11 267.419 288.903 267.284Z" fill="#E0E0E0"/>
<path d="M266.378 258.407C266.506 258.409 266.632 258.375 266.742 258.31C266.881 258.23 266.993 258.11 267.064 257.966C267.135 257.821 267.161 257.659 267.139 257.5V254.01C267.127 253.698 267.039 253.394 266.882 253.124C266.725 252.855 266.505 252.628 266.24 252.463L263.219 250.713C263.093 250.63 262.947 250.583 262.796 250.579C262.645 250.575 262.496 250.612 262.365 250.688C262.235 250.764 262.128 250.875 262.057 251.008C261.986 251.141 261.954 251.292 261.964 251.442V254.933C261.975 255.244 262.061 255.548 262.217 255.817C262.372 256.087 262.591 256.314 262.855 256.48L265.876 258.221C266.023 258.327 266.197 258.392 266.378 258.407ZM262.725 251.337C262.77 251.347 262.814 251.364 262.855 251.386L265.876 253.135C266.029 253.237 266.156 253.372 266.249 253.531C266.341 253.689 266.397 253.867 266.41 254.05V257.541C266.425 257.588 266.425 257.639 266.41 257.687C266.363 257.672 266.317 257.653 266.273 257.63L263.252 255.889C263.1 255.786 262.973 255.651 262.882 255.492C262.791 255.333 262.737 255.156 262.725 254.973V251.45C262.716 251.413 262.716 251.374 262.725 251.337Z" fill="#455A64"/>
<path d="M259.397 250.252L247.491 243.375C247.094 243.149 246.778 243.375 246.778 243.788V244.712C246.791 244.959 246.863 245.199 246.986 245.413C247.11 245.627 247.283 245.809 247.491 245.943L259.397 252.819C259.794 253.046 260.109 252.859 260.109 252.406V251.45C260.087 251.21 260.012 250.978 259.889 250.77C259.765 250.563 259.597 250.386 259.397 250.252Z" fill="#E0E0E0"/>
<path d="M236.882 241.375C237.01 241.376 237.136 241.342 237.246 241.278C237.377 241.199 237.483 241.085 237.552 240.949C237.62 240.813 237.649 240.66 237.635 240.509V237.018C237.624 236.707 237.538 236.403 237.382 236.133C237.227 235.864 237.008 235.636 236.744 235.471L233.723 233.721C233.594 233.639 233.445 233.592 233.292 233.583C233.139 233.575 232.986 233.606 232.849 233.673C232.717 233.76 232.611 233.881 232.542 234.024C232.474 234.167 232.445 234.325 232.46 234.483V237.973C232.473 238.285 232.562 238.588 232.719 238.858C232.876 239.127 233.095 239.354 233.359 239.52L236.38 241.262C236.534 241.343 236.707 241.382 236.882 241.375ZM236.38 236.103C236.53 236.206 236.656 236.342 236.747 236.5C236.838 236.659 236.892 236.836 236.906 237.018V240.509C236.921 240.556 236.921 240.607 236.906 240.654C236.862 240.638 236.819 240.619 236.777 240.598L233.756 238.856C233.603 238.754 233.475 238.619 233.383 238.461C233.29 238.302 233.235 238.124 233.221 237.941V234.442C233.205 234.395 233.205 234.344 233.221 234.297C233.269 234.307 233.315 234.324 233.359 234.345L236.38 236.103Z" fill="#455A64"/>
<path d="M229.893 233.219L217.987 226.343C217.598 226.116 217.274 226.303 217.274 226.756V227.68C217.292 227.925 217.365 228.164 217.488 228.378C217.612 228.591 217.782 228.773 217.987 228.911L229.893 235.787C230.29 236.014 230.605 235.787 230.605 235.374V234.442C230.591 234.197 230.519 233.958 230.395 233.746C230.272 233.533 230.099 233.353 229.893 233.219Z" fill="#E0E0E0"/>
<path d="M288.869 250.244V251.612C288.869 252.349 288.351 252.649 287.711 252.276L218.059 212.097C217.721 211.877 217.44 211.58 217.239 211.231C217.038 210.882 216.922 210.491 216.901 210.088V208.719C216.901 207.974 217.419 207.675 218.059 208.047L287.711 248.235C288.048 248.455 288.329 248.752 288.531 249.101C288.732 249.45 288.848 249.841 288.869 250.244Z" fill="#E0E0E0"/>
<path d="M288.869 258.489V259.857C288.869 260.594 288.351 260.894 287.711 260.522L218.059 220.342C217.722 220.121 217.442 219.824 217.241 219.475C217.04 219.127 216.923 218.735 216.901 218.333V216.965C216.901 216.22 217.419 215.92 218.059 216.292L287.711 256.48C288.048 256.7 288.329 256.997 288.531 257.346C288.732 257.695 288.848 258.086 288.869 258.489Z" fill="#E0E0E0"/>
<path d="M296.5 259.193C294.678 257.387 294.224 256.618 294.224 255.954C294.224 255.289 294.491 254.925 295.309 255.403C295.662 255.608 295.966 255.887 296.199 256.221C296.433 256.556 296.591 256.937 296.662 257.339L298.654 257.784C298.48 256.742 298.085 255.748 297.498 254.87C296.91 253.992 296.142 253.248 295.245 252.69C293.252 251.54 292.094 252.398 292.094 254.35C292.205 256.211 293.015 257.961 294.362 259.25V260.829L296.5 262.06V259.193Z" fill="#455A64"/>
<path d="M296.523 264.409C296.527 264.019 296.429 263.634 296.239 263.293C296.048 262.952 295.772 262.667 295.438 262.465C294.725 262.06 294.361 262.417 294.361 263.162C294.355 263.552 294.452 263.936 294.641 264.277C294.83 264.618 295.105 264.904 295.438 265.106C296.159 265.559 296.523 265.219 296.523 264.409Z" fill="#455A64"/>
<path d="M236.405 237.115L235.522 237.787L236.332 239.326C236.403 239.419 236.441 239.533 236.441 239.65C236.441 239.767 236.403 239.881 236.332 239.974C236.186 240.088 235.959 239.974 235.83 239.731L235.02 238.192L234.129 238.873C233.999 238.97 233.813 238.873 233.7 238.662C233.639 238.582 233.605 238.484 233.605 238.383C233.605 238.282 233.639 238.184 233.7 238.103L234.591 237.431L233.781 235.892C233.719 235.794 233.69 235.678 233.697 235.562C233.704 235.446 233.748 235.335 233.821 235.244C233.967 235.131 234.194 235.244 234.323 235.487L235.133 237.026L236.024 236.346C236.154 236.257 236.348 236.346 236.453 236.556C236.508 236.642 236.532 236.743 236.524 236.844C236.515 236.945 236.473 237.04 236.405 237.115Z" fill="#7209B7" fill-opacity="0.5"/>
<path d="M55.2758 125.509C56.0248 125.148 56.8482 124.968 57.6797 124.983C58.5111 124.999 59.3273 125.21 60.0623 125.599L133.877 168.216C134.589 168.688 135.18 169.322 135.602 170.064C136.024 170.807 136.266 171.639 136.307 172.492V193.55C136.339 194.392 136.141 195.227 135.733 195.965C135.326 196.703 134.725 197.316 133.995 197.737C133.265 198.159 132.434 198.374 131.591 198.358C130.749 198.342 129.926 198.097 129.212 197.648L55.3972 155.031C54.6854 154.558 54.0947 153.925 53.6726 153.182C53.2506 152.439 53.009 151.608 52.9675 150.754V129.697C52.997 128.867 53.2213 128.055 53.6223 127.328C54.0233 126.6 54.5897 125.978 55.2758 125.509Z" fill="#263238"/>
<path d="M52.9922 129.251C53.1946 128.004 54.207 127.567 55.4219 128.279L86.1984 146.041L129.237 170.889C129.968 171.342 130.57 171.975 130.986 172.727L135.619 170.055C135.203 169.302 134.604 168.667 133.878 168.208L60.0627 125.599C59.3829 125.167 58.6021 124.922 57.798 124.886C56.9938 124.851 56.1944 125.026 55.4792 125.396C54.7641 125.765 54.1581 126.316 53.7218 126.992C53.2854 127.669 53.0339 128.447 52.9922 129.251Z" fill="#455A64"/>
<path d="M131.715 175.165V196.222C131.715 197.794 130.605 198.433 129.245 197.648L55.4295 155.03C54.7177 154.558 54.1269 153.925 53.7048 153.182C53.2828 152.439 53.0413 151.607 52.9997 150.754V129.696C52.9997 128.125 54.1012 127.485 55.4295 128.271L86.206 146.04L129.253 170.888C129.97 171.358 130.567 171.99 130.995 172.732C131.422 173.475 131.669 174.309 131.715 175.165Z" fill="#37474F"/>
<path d="M119.162 172.079L117.955 174.638C117.941 174.675 117.92 174.709 117.892 174.736C117.865 174.764 117.831 174.786 117.795 174.801C117.758 174.815 117.719 174.822 117.68 174.821C117.64 174.819 117.602 174.809 117.567 174.792L114.87 173.764C114.44 173.594 114.27 174.201 114.578 174.784L116.53 178.445C116.647 178.657 116.701 178.899 116.684 179.141L116.222 182.462C116.149 182.989 116.595 183.677 116.975 183.628L119.405 183.329C119.503 183.333 119.598 183.361 119.683 183.411C119.767 183.46 119.839 183.529 119.891 183.612L122.321 186.698C122.701 187.184 123.131 187.006 123.074 186.398L122.612 182.551C122.592 182.458 122.596 182.36 122.622 182.268C122.649 182.176 122.699 182.093 122.766 182.025L124.718 180.615C125.026 180.389 124.856 179.587 124.427 179.263L121.73 177.181C121.541 177.024 121.405 176.812 121.341 176.574L120.134 172.622C119.867 171.998 119.356 171.682 119.162 172.079Z" fill="#B4B4B4" fill-opacity="0.2"/>
<path d="M105.515 164.272L104.308 166.831C104.295 166.869 104.274 166.903 104.246 166.932C104.219 166.96 104.186 166.983 104.149 166.997C104.112 167.012 104.072 167.018 104.033 167.016C103.993 167.014 103.954 167.003 103.919 166.985L101.222 165.956C100.793 165.786 100.623 166.394 100.93 166.977L102.858 170.638C102.976 170.853 103.03 171.097 103.012 171.342L102.55 174.655C102.477 175.181 102.923 175.87 103.303 175.821L105.733 175.529C105.831 175.53 105.927 175.556 106.012 175.604C106.097 175.652 106.168 175.721 106.219 175.805L108.649 178.891C109.03 179.377 109.459 179.206 109.402 178.591L108.94 174.744C108.92 174.65 108.924 174.553 108.951 174.461C108.977 174.369 109.027 174.285 109.094 174.217L111.046 172.808C111.354 172.581 111.184 171.788 110.755 171.456L108.058 169.374C107.869 169.216 107.733 169.004 107.669 168.767L106.462 164.814C106.26 164.183 105.709 163.867 105.515 164.272Z" fill="#B4B4B4" fill-opacity="0.2"/>
<path d="M91.8672 156.464L90.6604 159.023C90.6464 159.06 90.6249 159.093 90.5972 159.121C90.5696 159.149 90.5365 159.171 90.4999 159.186C90.4633 159.2 90.4242 159.207 90.3849 159.206C90.3456 159.204 90.307 159.194 90.2716 159.177L87.5747 158.14C87.1454 157.979 86.9753 158.578 87.2831 159.161L89.235 162.822C89.3523 163.037 89.4057 163.282 89.3888 163.526L88.9272 166.839C88.8543 167.365 89.2998 168.062 89.6804 168.013L92.1102 167.714C92.208 167.718 92.3033 167.746 92.3879 167.796C92.4725 167.845 92.5439 167.914 92.5961 167.997L95.0258 171.075C95.4065 171.569 95.8357 171.391 95.779 170.783L95.3174 166.936C95.2972 166.841 95.3007 166.743 95.3275 166.65C95.3544 166.556 95.4037 166.471 95.4713 166.402L97.4232 164.992C97.7309 164.774 97.5608 163.972 97.1316 163.64L94.4346 161.558C94.2457 161.401 94.11 161.188 94.0458 160.951L92.8391 156.999C92.6123 156.375 92.0615 156.051 91.8672 156.464Z" fill="#B4B4B4" fill-opacity="0.2"/>
<path d="M78.2207 148.648L77.0139 151.208C76.9999 151.244 76.9784 151.278 76.9508 151.306C76.9231 151.334 76.89 151.356 76.8534 151.37C76.8169 151.385 76.7777 151.391 76.7384 151.39C76.6991 151.388 76.6605 151.379 76.6252 151.361L73.9282 150.325C73.4989 150.163 73.3289 150.762 73.6366 151.345L75.5885 155.006C75.7058 155.221 75.7592 155.466 75.7424 155.711L75.2807 159.023C75.2078 159.55 75.6533 160.246 76.0339 160.198L78.4637 159.898C78.5615 159.902 78.6568 159.931 78.7414 159.98C78.8261 160.029 78.8975 160.098 78.9496 160.181L81.3794 163.259C81.76 163.753 82.1893 163.575 82.1326 162.967L81.6709 159.12C81.6507 159.027 81.6542 158.93 81.681 158.838C81.7079 158.746 81.7573 158.662 81.8248 158.594L83.7767 157.185C84.0844 156.958 83.9143 156.156 83.4851 155.824L80.7881 153.751C80.6026 153.59 80.4676 153.379 80.3993 153.143L79.1926 149.191C78.9658 148.592 78.4151 148.243 78.2207 148.648Z" fill="#B4B4B4" fill-opacity="0.2"/>
<path d="M64.5734 140.833L63.3666 143.392C63.3526 143.429 63.3311 143.462 63.3035 143.49C63.2759 143.518 63.2427 143.54 63.2061 143.555C63.1696 143.569 63.1304 143.576 63.0911 143.574C63.0518 143.573 63.0133 143.563 62.9779 143.546L60.2809 142.517C59.8516 142.347 59.6816 142.955 59.9893 143.538L61.9412 147.199C62.0588 147.411 62.1122 147.653 62.0951 147.895L61.6334 151.216C61.5606 151.742 62.006 152.431 62.3867 152.382L64.8164 152.082C64.9142 152.087 65.0095 152.115 65.0941 152.164C65.1788 152.214 65.2502 152.283 65.3023 152.366L67.7321 155.452C68.1127 155.938 68.542 155.759 68.4853 155.152L68.0236 151.305C68.0034 151.211 68.0069 151.114 68.0337 151.022C68.0606 150.93 68.11 150.846 68.1775 150.778L70.097 149.402C70.4047 149.175 70.2347 148.373 69.8054 148.049L67.1084 145.968C66.9195 145.81 66.7838 145.598 66.7197 145.36L65.5129 141.408C65.3185 140.744 64.7921 140.428 64.5734 140.833Z" fill="#B4B4B4" fill-opacity="0.2"/>
<path d="M121.195 158.61L125.244 156.278C125.325 156.242 125.392 156.183 125.438 156.108L126.184 154.812L123.754 153.427L123.827 153.637L121.195 158.61Z" fill="#7209B7" fill-opacity="0.7"/>
<path opacity="0.2" d="M121.195 158.61L125.244 156.278C125.325 156.242 125.392 156.183 125.438 156.108L126.184 154.812L123.754 153.427L123.827 153.637L121.195 158.61Z" fill="black"/>
<path d="M124.135 153.621L121.332 158.481C121.293 158.551 121.235 158.608 121.164 158.645C121.092 158.682 121.012 158.698 120.932 158.69C120.852 158.683 120.776 158.652 120.714 158.602C120.651 158.551 120.604 158.484 120.579 158.408L117.623 149.879L124.135 153.621Z" fill="#7209B7" fill-opacity="0.7"/>
<path d="M53.4529 85.9049C53.4884 85.2278 53.6838 84.5687 54.0231 83.9817C54.3624 83.3947 54.8358 82.8963 55.4048 82.5275C56.0107 82.224 56.679 82.0659 57.3567 82.0659C58.0344 82.0659 58.7027 82.224 59.3086 82.5275L134.355 125.833C134.923 126.205 135.396 126.705 135.735 127.293C136.074 127.881 136.27 128.541 136.307 129.219V153.921C136.27 154.599 136.074 155.259 135.735 155.847C135.396 156.435 134.923 156.935 134.355 157.306C133.75 157.614 133.081 157.774 132.403 157.774C131.725 157.774 131.056 157.614 130.451 157.306L55.2185 113.879C53.461 112.875 53.4448 111.871 53.4448 110.64L53.4529 85.9049Z" fill="#7209B7" fill-opacity="0.7"/>
<path opacity="0.2" d="M136.34 153.913C136.303 154.591 136.107 155.251 135.768 155.839C135.429 156.427 134.956 156.927 134.388 157.298C133.839 157.578 133.236 157.738 132.62 157.768C132.005 157.797 131.39 157.695 130.816 157.469C131.731 157.817 132.436 157.29 132.436 156.173V131.462C132.414 130.784 132.215 130.122 131.861 129.543L135.773 127.283C136.121 127.868 136.316 128.531 136.34 129.211V153.913Z" fill="black"/>
<path opacity="0.4" d="M53.5416 85.3541C53.7684 84.5442 54.5297 84.2607 55.4287 84.7791L130.483 128.085C131.062 128.441 131.537 128.944 131.86 129.543L135.764 127.283C135.434 126.689 134.961 126.188 134.387 125.825L59.3406 82.5275C58.7358 82.2202 58.0671 82.0601 57.3887 82.0601C56.7104 82.0601 56.0416 82.2202 55.4369 82.5275C54.945 82.8446 54.5231 83.2589 54.1972 83.745C53.8713 84.2311 53.6482 84.7787 53.5416 85.3541Z" fill="white"/>
<path d="M127.155 131.899L59.7629 92.9104C59.1068 92.5379 58.5723 92.708 58.5723 93.2992C58.6207 93.6634 58.7535 94.0113 58.9602 94.315C59.1669 94.6188 59.4418 94.87 59.7629 95.0486L127.155 134.013C127.803 134.394 128.338 134.224 128.338 133.633C128.287 133.272 128.154 132.929 127.949 132.628C127.744 132.328 127.472 132.078 127.155 131.899Z" fill="white"/>
<path d="M127.155 142.922L69.3522 109.554C68.6962 109.173 68.1697 109.344 68.1697 109.935C68.2172 110.299 68.3488 110.648 68.554 110.953C68.7592 111.258 69.0324 111.511 69.3522 111.692L127.155 145.052C127.803 145.433 128.338 145.255 128.338 144.664C128.284 144.303 128.15 143.96 127.945 143.658C127.74 143.357 127.47 143.105 127.155 142.922Z" fill="white"/>
<path d="M127.155 148.284L61.1397 110.121C60.4918 109.74 59.9572 109.919 59.9572 110.51C60.01 110.872 60.1438 111.217 60.3485 111.52C60.5532 111.823 60.8237 112.075 61.1397 112.259L127.155 150.414C127.803 150.795 128.338 150.625 128.338 150.033C128.289 149.67 128.157 149.323 127.952 149.02C127.747 148.716 127.474 148.465 127.155 148.284Z" fill="white"/>
<path d="M127.155 137.253L61.1397 99.0903C60.4918 98.7096 59.9572 98.8878 59.9572 99.479C60.0065 99.8419 60.1389 100.189 60.3439 100.492C60.549 100.795 60.8213 101.047 61.1397 101.228L127.155 139.424C127.803 139.796 128.338 139.626 128.338 139.035C128.294 138.666 128.164 138.313 127.959 138.003C127.753 137.694 127.478 137.437 127.155 137.253Z" fill="white"/>
<path d="M55.2758 43.4577C56.0248 43.0963 56.8482 42.9161 57.6797 42.9316C58.5111 42.9471 59.3273 43.1578 60.0623 43.5468L133.877 86.1561C134.588 86.63 135.178 87.2636 135.6 88.0061C136.021 88.7486 136.264 89.5795 136.307 90.4324V111.49C136.339 112.332 136.141 113.167 135.733 113.905C135.326 114.643 134.725 115.256 133.995 115.678C133.265 116.099 132.434 116.314 131.591 116.298C130.749 116.282 129.926 116.037 129.212 115.588L55.3972 72.9708C54.6854 72.4983 54.0947 71.8651 53.6726 71.1223C53.2506 70.3794 53.009 69.5478 52.9675 68.6945V47.6368C52.9983 46.8082 53.2232 45.9983 53.6241 45.2724C54.025 44.5466 54.5908 43.925 55.2758 43.4577Z" fill="#263238"/>
<path d="M52.9922 47.1991C53.1946 45.9518 54.207 45.5144 55.4219 46.2191L86.1984 63.9804L129.237 88.8284C129.966 89.2872 130.568 89.9223 130.986 90.675L135.619 88.0023C135.206 87.2485 134.606 86.6128 133.878 86.1557L60.0627 43.5464C59.3829 43.1152 58.6021 42.8697 57.798 42.8341C56.9938 42.7985 56.1944 42.9742 55.4792 43.3437C54.7641 43.7131 54.1581 44.2634 53.7218 44.9399C53.2854 45.6163 53.0339 46.3952 52.9922 47.1991Z" fill="#455A64"/>
<path d="M131.715 93.113V114.171C131.715 115.742 130.605 116.382 129.245 115.596L55.4295 72.9786C54.7177 72.5061 54.1269 71.8729 53.7048 71.1301C53.2828 70.3873 53.0413 69.5556 52.9997 68.7023V47.6446C52.9997 46.0734 54.1012 45.4336 55.4295 46.2192L86.206 63.9805L129.253 88.8366C129.97 89.306 130.567 89.9378 130.995 90.6807C131.422 91.4237 131.669 92.2569 131.715 93.113Z" fill="#37474F"/>
<path d="M119.162 90.0354L117.955 92.5947C117.941 92.6314 117.92 92.6648 117.892 92.6928C117.865 92.7208 117.831 92.7427 117.795 92.7572C117.758 92.7717 117.719 92.7784 117.68 92.7769C117.64 92.7754 117.602 92.7658 117.567 92.7486L114.87 91.7119C114.44 91.5499 114.27 92.1573 114.578 92.7324L116.53 96.3932C116.647 96.6086 116.701 96.853 116.684 97.0978L116.222 100.41C116.149 100.937 116.595 101.633 116.975 101.585L119.405 101.285C119.503 101.29 119.598 101.318 119.683 101.367C119.767 101.416 119.839 101.486 119.891 101.568L122.321 104.646C122.701 105.14 123.131 104.962 123.074 104.355L122.612 100.507C122.592 100.414 122.596 100.317 122.622 100.225C122.649 100.133 122.699 100.049 122.766 99.9811L124.718 98.5718C125.026 98.345 124.856 97.5432 124.427 97.2112L121.73 95.1378C121.543 94.9783 121.407 94.7669 121.341 94.5304L120.134 90.578C119.867 89.9463 119.356 89.6304 119.162 90.0354Z" fill="white"/>
<path d="M105.515 82.2199L104.308 84.7793C104.294 84.816 104.272 84.8494 104.245 84.8774C104.217 84.9054 104.184 84.9273 104.147 84.9417C104.111 84.9562 104.072 84.9629 104.032 84.9614C103.993 84.96 103.954 84.9503 103.919 84.9331L101.222 83.9045C100.793 83.7345 100.623 84.3419 100.93 84.925L102.858 88.5858C102.976 88.7982 103.029 89.0402 103.012 89.2823L102.55 92.603C102.477 93.1294 102.923 93.8178 103.303 93.7692L105.733 93.4696C105.831 93.4741 105.926 93.5023 106.011 93.5517C106.096 93.601 106.167 93.6701 106.219 93.753L108.649 96.8388C109.03 97.3247 109.459 97.1547 109.402 96.5391L108.94 92.6921C108.92 92.5984 108.924 92.5012 108.951 92.4093C108.977 92.3174 109.027 92.2336 109.094 92.1656L111.046 90.7564C111.354 90.5296 111.184 89.7278 110.755 89.4038L108.058 87.3224C107.869 87.1646 107.733 86.9525 107.669 86.7149L106.462 82.7626C106.26 82.1308 105.709 81.815 105.515 82.2199Z" fill="white"/>
<path d="M91.8672 74.4044L90.6604 76.9718C90.6464 77.0085 90.6249 77.042 90.5972 77.0699C90.5696 77.0979 90.5365 77.1198 90.4999 77.1343C90.4633 77.1488 90.4242 77.1555 90.3849 77.154C90.3456 77.1525 90.307 77.1429 90.2716 77.1257L87.5747 76.089C87.1454 75.927 86.9753 76.5263 87.2831 77.1095L89.235 80.7703C89.3532 80.9854 89.4066 81.2301 89.3888 81.4749L88.9272 84.7874C88.8543 85.3139 89.2998 86.0023 89.6804 85.9618L92.1102 85.6621C92.2079 85.663 92.3038 85.6887 92.3888 85.7368C92.4738 85.785 92.5452 85.8541 92.5961 85.9375L95.0258 89.0233C95.4065 89.5092 95.8357 89.3391 95.779 88.7236L95.3174 84.8765C95.2979 84.7829 95.3017 84.6859 95.3286 84.5941C95.3554 84.5023 95.4044 84.4185 95.4713 84.3501L97.4232 82.9408C97.7309 82.7222 97.5608 81.9204 97.1316 81.5883L94.4346 79.5068C94.2457 79.349 94.11 79.137 94.0458 78.8994L92.8391 74.947C92.6123 74.3234 92.0615 73.9994 91.8672 74.4044Z" fill="white"/>
<path d="M78.2215 66.5965L77.0148 69.1559C77.0008 69.1926 76.9793 69.226 76.9516 69.254C76.924 69.282 76.8908 69.3039 76.8543 69.3184C76.8177 69.3328 76.7785 69.3395 76.7392 69.3381C76.7 69.3366 76.6614 69.3269 76.626 69.3097L73.929 68.2731C73.4998 68.1111 73.3297 68.7104 73.6375 69.2935L75.5893 72.9543C75.7067 73.1698 75.7601 73.4142 75.7432 73.659L75.2816 76.9715C75.2087 77.4979 75.6541 78.1945 76.0348 78.1459L78.4645 77.8462C78.5624 77.8508 78.6577 77.8789 78.7423 77.9283C78.8269 77.9776 78.8983 78.0467 78.9505 78.1297L81.3802 81.2073C81.7609 81.7014 82.1901 81.5232 82.1334 80.9157L81.6718 77.0687C81.6442 76.9722 81.6416 76.8703 81.6643 76.7725C81.6869 76.6747 81.7341 76.5843 81.8014 76.5098L83.7532 75.1006C84.061 74.8819 83.8909 74.0801 83.4617 73.748L80.7647 71.6747C80.5775 71.5121 80.4423 71.298 80.3759 71.0591L79.1691 67.1068C78.9667 66.5075 78.4159 66.1835 78.2215 66.5965Z" fill="white"/>
<path d="M64.5742 58.781L63.3674 61.3403C63.3534 61.3771 63.3319 61.4105 63.3043 61.4385C63.2767 61.4664 63.2435 61.4884 63.2069 61.5028C63.1704 61.5173 63.1312 61.524 63.0919 61.5225C63.0526 61.521 63.0141 61.5114 62.9787 61.4942L60.2817 60.4575C59.8524 60.2955 59.6824 60.903 59.9901 61.478L61.942 65.1712C62.0594 65.3866 62.1128 65.6311 62.0959 65.8758L61.6342 69.1884C61.5614 69.7148 62.0068 70.4113 62.3875 70.3627L64.8172 70.0631C64.915 70.0676 65.0103 70.0958 65.0949 70.1451C65.1796 70.1945 65.251 70.2636 65.3031 70.3465L67.7329 73.4242C68.1135 73.9182 68.5428 73.74 68.4861 73.1326L68.0244 69.2855C68.0042 69.1919 68.0077 69.0947 68.0345 69.0028C68.0614 68.9109 68.1108 68.8271 68.1783 68.7591L70.1302 67.3499C70.438 67.1231 70.2679 66.3213 69.8386 65.9892L67.1416 63.9158C66.9527 63.7581 66.817 63.546 66.7529 63.3084L65.5461 59.3561C65.3193 58.6919 64.7929 58.3761 64.5742 58.781Z" fill="#455A64"/>
<path d="M121.195 76.5584L125.244 74.2259C125.325 74.19 125.392 74.1308 125.438 74.0558L126.184 72.7599L123.754 71.375L123.827 71.5856L121.195 76.5584Z" fill="#7209B7" fill-opacity="0.7"/>
<path opacity="0.2" d="M121.195 76.5584L125.244 74.2259C125.325 74.19 125.392 74.1308 125.438 74.0558L126.184 72.7599L123.754 71.375L123.827 71.5856L121.195 76.5584Z" fill="black"/>
<path d="M124.135 71.5694L121.332 76.4289C121.293 76.499 121.235 76.5561 121.164 76.5934C121.092 76.6307 121.012 76.6464 120.932 76.6386C120.852 76.6309 120.776 76.6001 120.714 76.5499C120.651 76.4997 120.604 76.4323 120.579 76.356L117.623 67.8276L124.135 71.5694Z" fill="#7209B7" fill-opacity="0.7"/>
<path d="M53.4537 3.85289C53.4905 3.175 53.6864 2.51529 54.0255 1.92715C54.3646 1.33902 54.8374 0.838968 55.4056 0.467467C56.0104 0.160168 56.6791 0 57.3575 0C58.0358 0 58.7046 0.160168 59.3094 0.467467L134.388 43.7733C134.956 44.1448 135.429 44.6449 135.768 45.233C136.107 45.8212 136.303 46.4809 136.34 47.1588V71.861C136.303 72.5389 136.107 73.1986 135.768 73.7867C135.429 74.3749 134.956 74.8749 134.388 75.2464C133.783 75.5537 133.114 75.7139 132.436 75.7139C131.758 75.7139 131.089 75.5537 130.484 75.2464L55.2517 31.811C53.4942 30.8148 53.478 29.8105 53.478 28.5713L53.4537 3.85289Z" fill="#7209B7" fill-opacity="0.7"/>
<path opacity="0.2" d="M136.34 71.8608C136.303 72.5387 136.107 73.1984 135.768 73.7865C135.429 74.3747 134.956 74.8747 134.388 75.2462C133.839 75.5268 133.236 75.6864 132.62 75.7144C132.004 75.7423 131.389 75.6379 130.816 75.4082C131.731 75.7564 132.436 75.2381 132.436 74.1204V49.4101C132.412 48.729 132.214 48.0653 131.861 47.4825L135.773 45.231C136.121 45.8157 136.316 46.4786 136.34 47.1585V71.8608Z" fill="black"/>
<path opacity="0.4" d="M53.5416 3.30218C53.7684 2.49227 54.5297 2.2088 55.4287 2.72714L130.483 46.033C131.062 46.3893 131.537 46.8922 131.86 47.4908L135.764 45.2312C135.434 44.6375 134.961 44.1362 134.387 43.7734L59.3406 0.467492C58.7347 0.163925 58.0664 0.00585938 57.3887 0.00585938C56.711 0.00585938 56.0427 0.163925 55.4369 0.467492C54.9441 0.785461 54.5216 1.20104 54.1957 1.68858C53.8697 2.17612 53.6471 2.72528 53.5416 3.30218Z" fill="white"/>
<path d="M127.155 49.8396L59.7629 10.8587C59.1068 10.4861 58.5723 10.6562 58.5723 11.2474C58.6207 11.6117 58.7535 11.9595 58.9602 12.2633C59.1669 12.567 59.4418 12.8182 59.7629 12.9968L127.155 51.9778C127.803 52.3584 128.338 52.1884 128.338 51.5971C128.286 51.2339 128.153 50.8871 127.948 50.5827C127.743 50.2784 127.472 50.0243 127.155 49.8396Z" fill="white"/>
<path d="M127.155 60.8623L69.3522 27.494C68.6962 27.1134 68.1697 27.2835 68.1697 27.8747C68.2166 28.2384 68.3479 28.586 68.5533 28.8898C68.7586 29.1936 69.0322 29.445 69.3522 29.6241L127.155 63.0005C127.803 63.373 128.338 63.2029 128.338 62.6117C128.289 62.2488 128.156 61.9022 127.951 61.5988C127.746 61.2954 127.474 61.0433 127.155 60.8623Z" fill="white"/>
<path d="M127.155 66.224L61.1397 28.0692C60.4918 27.6885 59.9572 27.8667 59.9572 28.4498C60.0089 28.8131 60.1421 29.1599 60.3469 29.4642C60.5517 29.7686 60.8227 30.0227 61.1397 30.2073L127.155 68.3622C127.803 68.7428 128.338 68.5728 128.338 67.9815C128.286 67.6183 128.153 67.2715 127.948 66.9671C127.743 66.6627 127.472 66.4087 127.155 66.224Z" fill="white"/>
<path d="M127.155 55.2337L61.1397 17.0708C60.4918 16.6901 59.9572 16.8683 59.9572 17.4595C60.01 17.8213 60.1438 18.1665 60.3485 18.4694C60.5532 18.7723 60.8237 19.0251 61.1397 19.2089L127.155 57.3638C127.803 57.7444 128.338 57.5743 128.338 56.9831C128.289 56.62 128.157 56.2731 127.952 55.9696C127.747 55.6661 127.474 55.4142 127.155 55.2337Z" fill="white"/>
<path d="M99.1504 204.07L70.763 198.506C70.5839 198.477 70.4 198.503 70.2365 198.582C70.073 198.661 69.9377 198.788 69.8492 198.947C69.7606 199.105 69.7231 199.287 69.7417 199.468C69.7603 199.648 69.8341 199.819 69.9531 199.956L89.2047 221.759L99.1504 204.07Z" fill="#FFA8A7"/>
<path d="M69.9369 199.956C69.8179 199.819 69.744 199.648 69.7254 199.468C69.7068 199.287 69.7444 199.105 69.8329 198.947C69.9214 198.788 70.0567 198.661 70.2202 198.582C70.3838 198.503 70.5676 198.477 70.7468 198.506L76.3027 199.616C75.5421 200.087 74.9264 200.759 74.5234 201.558C74.1204 202.357 73.9458 203.252 74.0188 204.143V204.645L69.9369 199.956Z" fill="#7209B7" fill-opacity="0.3"/>
<path d="M195.035 282.462L192.718 281.125L189.908 279.505L89.1957 221.735C88.2719 218.607 88.5611 215.247 90.0056 212.323C92.0222 207.82 95.926 204.224 99.1656 204.054L199.797 261.817L205.15 264.886C201.571 263.088 191.471 280.607 195.035 282.462Z" fill="#37474F"/>
<path d="M186.182 277.416L180.999 274.435C179.468 273.625 180.343 269.859 182.133 265.972C184.506 260.805 189.163 255.799 191.196 256.876L195.019 259.071L196.371 259.881C194.338 258.804 189.673 263.801 187.308 268.977C185.599 272.702 184.725 276.322 186.029 277.31C186.069 277.359 186.123 277.395 186.182 277.416Z" fill="#EBEBEB"/>
<path d="M184.895 276.663C181.34 274.775 191.52 257.225 195.084 259.12L200.275 262.084C196.72 260.205 186.507 277.74 190.095 279.627L184.895 276.663Z" fill="#7209B7" fill-opacity="0.3"/>
<path d="M195.035 282.462L189.908 279.53C186.401 277.699 196.088 260.691 199.797 261.817C199.871 261.831 199.943 261.859 200.007 261.898L205.15 264.887C201.571 263.089 191.471 280.607 195.035 282.462Z" fill="#EBEBEB"/>
<path opacity="0.15" d="M69.8066 199L70.7623 198.506L91.3583 209.772L197.861 270.888C198.064 270.572 198.226 270.548 198.355 270.766C195.326 275.488 193.042 281.433 195.035 282.47L192.718 281.133L189.908 279.513L89.1959 221.743L69.9443 199.94C69.8254 199.818 69.7481 199.661 69.7234 199.492C69.6987 199.324 69.7278 199.152 69.8066 199Z" fill="black"/>
<path d="M216.797 294.91L195.035 282.461C193.512 281.651 194.355 277.942 196.112 274.079C198.469 268.903 203.11 263.85 205.151 264.886L227.002 277.367C231.343 279.87 227.35 289.281 222.515 293.492C220.717 295.104 218.676 295.809 216.797 294.91Z" fill="#F28F8F"/>
<path opacity="0.1" d="M215.502 288.163C216.749 283.255 220.718 278.445 224.37 277.416C224.907 277.226 225.481 277.168 226.044 277.245C226.608 277.323 227.145 277.534 227.61 277.861C230.85 280.899 227.067 289.532 222.491 293.517C220.734 295.072 218.766 295.768 216.887 294.95C215.283 293.995 214.627 291.484 215.502 288.163Z" fill="black"/>
</svg>
