<svg width="24" height="25" viewBox="0 0 24 25" fill="none" xmlns="http://www.w3.org/2000/svg">
<g id="FILL ICON" clip-path="url(#clip0_1057_18302)">
<g id="Layer 2">
<g id="arrow-ios-upward">
<path id="Vector" d="M17.9998 15.9391C17.7662 15.9396 17.5397 15.8582 17.3598 15.7091L11.9998 11.2291L6.62982 15.5491C6.52753 15.6322 6.40984 15.6942 6.2835 15.7317C6.15716 15.7691 6.02467 15.7812 5.89364 15.7672C5.76261 15.7533 5.63563 15.7136 5.51999 15.6504C5.40435 15.5873 5.30234 15.5019 5.21982 15.3991C5.13675 15.2968 5.07472 15.1791 5.03729 15.0528C4.99986 14.9265 4.98777 14.794 5.0017 14.6629C5.01564 14.5319 5.05534 14.4049 5.11852 14.2893C5.18169 14.1737 5.26709 14.0717 5.36982 13.9891L11.3698 9.15913C11.5488 9.01205 11.7732 8.93164 12.0048 8.93164C12.2364 8.93164 12.4609 9.01205 12.6398 9.15913L18.6398 14.1591C18.7411 14.2431 18.8248 14.3462 18.8861 14.4625C18.9475 14.5789 18.9853 14.7062 18.9974 14.8372C19.0094 14.9681 18.9956 15.1002 18.9565 15.2258C18.9175 15.3514 18.854 15.4681 18.7698 15.5691C18.6768 15.6838 18.5595 15.7765 18.4263 15.8405C18.2932 15.9045 18.1475 15.9382 17.9998 15.9391Z" fill="#280340"/>
</g>
</g>
</g>
<defs>
<clipPath id="clip0_1057_18302">
<rect width="24" height="24" fill="white" transform="translate(0 0.939453)"/>
</clipPath>
</defs>
</svg>
