<svg width="445" height="41" viewBox="0 0 445 41" fill="none" xmlns="http://www.w3.org/2000/svg">
<rect width="445" height="40" transform="translate(0 0.353027)" fill="#585658"/>
<path d="M17.76 25.353C17.6427 25.353 17.552 25.321 17.488 25.257C17.424 25.1824 17.392 25.0917 17.392 24.985V14.537C17.392 14.4197 17.424 14.329 17.488 14.265C17.552 14.1904 17.6427 14.153 17.76 14.153H21.824C22.6133 14.153 23.296 14.281 23.872 14.537C24.4587 14.793 24.912 15.177 25.232 15.689C25.552 16.1904 25.712 16.8197 25.712 17.577C25.712 18.3344 25.552 18.9637 25.232 19.465C24.912 19.9664 24.4587 20.345 23.872 20.601C23.296 20.857 22.6133 20.985 21.824 20.985H18.992V24.985C18.992 25.0917 18.9547 25.1824 18.88 25.257C18.816 25.321 18.7253 25.353 18.608 25.353H17.76ZM18.976 19.641H21.744C22.5333 19.641 23.1253 19.465 23.52 19.113C23.9147 18.761 24.112 18.249 24.112 17.577C24.112 16.9157 23.92 16.4037 23.536 16.041C23.152 15.6784 22.5547 15.497 21.744 15.497H18.976V19.641ZM30.5536 25.513C29.871 25.513 29.2896 25.3637 28.8096 25.065C28.3403 24.7557 27.983 24.329 27.7376 23.785C27.4923 23.241 27.3696 22.617 27.3696 21.913V17.401C27.3696 17.2944 27.4016 17.209 27.4656 17.145C27.5403 17.0704 27.631 17.033 27.7376 17.033H28.5376C28.6443 17.033 28.7296 17.0704 28.7936 17.145C28.8683 17.209 28.9056 17.2944 28.9056 17.401V21.833C28.9056 23.4224 29.599 24.217 30.9856 24.217C31.647 24.217 32.175 24.009 32.5696 23.593C32.975 23.1664 33.1776 22.5797 33.1776 21.833V17.401C33.1776 17.2944 33.2096 17.209 33.2736 17.145C33.3483 17.0704 33.439 17.033 33.5456 17.033H34.3296C34.447 17.033 34.5376 17.0704 34.6016 17.145C34.6656 17.209 34.6976 17.2944 34.6976 17.401V24.985C34.6976 25.0917 34.6656 25.1824 34.6016 25.257C34.5376 25.321 34.447 25.353 34.3296 25.353H33.5936C33.487 25.353 33.3963 25.321 33.3216 25.257C33.2576 25.1824 33.2256 25.0917 33.2256 24.985V24.281C32.9376 24.6544 32.5856 24.953 32.1696 25.177C31.7643 25.401 31.2256 25.513 30.5536 25.513ZM41.1866 25.513C40.5466 25.513 40.0133 25.401 39.5866 25.177C39.16 24.9424 38.8186 24.6544 38.5626 24.313V24.985C38.5626 25.0917 38.5253 25.1824 38.4506 25.257C38.3866 25.321 38.3013 25.353 38.1946 25.353H37.4586C37.352 25.353 37.2613 25.321 37.1866 25.257C37.1226 25.1824 37.0906 25.0917 37.0906 24.985V14.361C37.0906 14.2544 37.1226 14.169 37.1866 14.105C37.2613 14.0304 37.352 13.993 37.4586 13.993H38.2266C38.344 13.993 38.4346 14.0304 38.4986 14.105C38.5626 14.169 38.5946 14.2544 38.5946 14.361V18.041C38.8613 17.7104 39.2026 17.433 39.6186 17.209C40.0453 16.985 40.568 16.873 41.1866 16.873C41.784 16.873 42.2906 16.9797 42.7066 17.193C43.1333 17.3957 43.48 17.6784 43.7466 18.041C44.024 18.4037 44.232 18.8144 44.3706 19.273C44.5093 19.7317 44.584 20.2117 44.5946 20.713C44.6053 20.8837 44.6106 21.0437 44.6106 21.193C44.6106 21.3424 44.6053 21.5024 44.5946 21.673C44.584 22.185 44.5093 22.6704 44.3706 23.129C44.232 23.5877 44.024 23.9984 43.7466 24.361C43.48 24.713 43.1333 24.9957 42.7066 25.209C42.2906 25.4117 41.784 25.513 41.1866 25.513ZM40.8506 24.217C41.4053 24.217 41.8373 24.0997 42.1466 23.865C42.4666 23.6197 42.696 23.305 42.8346 22.921C42.9733 22.5264 43.0533 22.105 43.0746 21.657C43.0853 21.3477 43.0853 21.0384 43.0746 20.729C43.0533 20.281 42.9733 19.865 42.8346 19.481C42.696 19.0864 42.4666 18.7717 42.1466 18.537C41.8373 18.2917 41.4053 18.169 40.8506 18.169C40.3493 18.169 39.9333 18.2864 39.6026 18.521C39.272 18.7557 39.0213 19.0544 38.8506 19.417C38.6906 19.7797 38.6053 20.1477 38.5946 20.521C38.584 20.6917 38.5786 20.8997 38.5786 21.145C38.5786 21.3797 38.584 21.5824 38.5946 21.753C38.616 22.1477 38.7013 22.537 38.8506 22.921C39.0106 23.2944 39.2506 23.6037 39.5706 23.849C39.9013 24.0944 40.328 24.217 40.8506 24.217ZM46.9743 25.353C46.8676 25.353 46.7769 25.321 46.7023 25.257C46.6383 25.1824 46.6063 25.0917 46.6063 24.985V14.361C46.6063 14.2544 46.6383 14.169 46.7023 14.105C46.7769 14.0304 46.8676 13.993 46.9743 13.993H47.7263C47.8436 13.993 47.9343 14.0304 47.9983 14.105C48.0623 14.169 48.0943 14.2544 48.0943 14.361V24.985C48.0943 25.0917 48.0623 25.1824 47.9983 25.257C47.9343 25.321 47.8436 25.353 47.7263 25.353H46.9743ZM51.0051 25.353C50.8985 25.353 50.8078 25.321 50.7331 25.257C50.6691 25.1824 50.6371 25.0917 50.6371 24.985V17.401C50.6371 17.2944 50.6691 17.209 50.7331 17.145C50.8078 17.0704 50.8985 17.033 51.0051 17.033H51.7731C51.8798 17.033 51.9651 17.0704 52.0291 17.145C52.0931 17.209 52.1251 17.2944 52.1251 17.401V24.985C52.1251 25.0917 52.0931 25.1824 52.0291 25.257C51.9651 25.321 51.8798 25.353 51.7731 25.353H51.0051ZM50.8771 15.481C50.7705 15.481 50.6798 15.449 50.6051 15.385C50.5411 15.3104 50.5091 15.2197 50.5091 15.113V14.249C50.5091 14.1424 50.5411 14.057 50.6051 13.993C50.6798 13.9184 50.7705 13.881 50.8771 13.881H51.8851C51.9918 13.881 52.0771 13.9184 52.1411 13.993C52.2158 14.057 52.2531 14.1424 52.2531 14.249V15.113C52.2531 15.2197 52.2158 15.3104 52.1411 15.385C52.0771 15.449 51.9918 15.481 51.8851 15.481H50.8771ZM57.4859 25.513C56.8885 25.513 56.3765 25.4384 55.9499 25.289C55.5232 25.1397 55.1765 24.9584 54.9099 24.745C54.6432 24.5317 54.4405 24.3184 54.3019 24.105C54.1739 23.8917 54.1045 23.721 54.0939 23.593C54.0832 23.4757 54.1205 23.385 54.2059 23.321C54.2912 23.257 54.3765 23.225 54.4619 23.225H55.1659C55.2299 23.225 55.2779 23.2357 55.3099 23.257C55.3525 23.2677 55.4059 23.3104 55.4699 23.385C55.6085 23.5344 55.7632 23.6837 55.9339 23.833C56.1045 23.9824 56.3125 24.105 56.5579 24.201C56.8139 24.297 57.1285 24.345 57.5019 24.345C58.0459 24.345 58.4939 24.2437 58.8459 24.041C59.1979 23.8277 59.3739 23.5184 59.3739 23.113C59.3739 22.8464 59.2992 22.633 59.1499 22.473C59.0112 22.313 58.7552 22.169 58.3819 22.041C58.0192 21.913 57.5179 21.7797 56.8779 21.641C56.2379 21.4917 55.7312 21.3104 55.3579 21.097C54.9845 20.873 54.7179 20.6117 54.5579 20.313C54.3979 20.0037 54.3179 19.657 54.3179 19.273C54.3179 18.8784 54.4352 18.4997 54.6699 18.137C54.9045 17.7637 55.2459 17.4597 55.6939 17.225C56.1525 16.9904 56.7232 16.873 57.4059 16.873C57.9605 16.873 58.4352 16.9424 58.8299 17.081C59.2245 17.2197 59.5499 17.3957 59.8059 17.609C60.0619 17.8117 60.2539 18.0144 60.3819 18.217C60.5099 18.4197 60.5792 18.5904 60.5899 18.729C60.6005 18.8357 60.5685 18.9264 60.4939 19.001C60.4192 19.065 60.3339 19.097 60.2379 19.097H59.5659C59.4912 19.097 59.4272 19.081 59.3739 19.049C59.3312 19.017 59.2885 18.9797 59.2459 18.937C59.1392 18.7984 59.0112 18.6597 58.8619 18.521C58.7232 18.3824 58.5365 18.2704 58.3019 18.185C58.0779 18.089 57.7792 18.041 57.4059 18.041C56.8725 18.041 56.4725 18.153 56.2059 18.377C55.9392 18.601 55.8059 18.8837 55.8059 19.225C55.8059 19.4277 55.8645 19.609 55.9819 19.769C56.0992 19.929 56.3232 20.073 56.6539 20.201C56.9845 20.329 57.4752 20.4677 58.1259 20.617C58.8299 20.7557 59.3845 20.9424 59.7899 21.177C60.1952 21.4117 60.4832 21.6837 60.6539 21.993C60.8245 22.3024 60.9099 22.6597 60.9099 23.065C60.9099 23.513 60.7765 23.9237 60.5099 24.297C60.2539 24.6704 59.8699 24.969 59.3579 25.193C58.8565 25.4064 58.2325 25.513 57.4859 25.513ZM63.1461 25.353C63.0395 25.353 62.9488 25.321 62.8741 25.257C62.8101 25.1824 62.7781 25.0917 62.7781 24.985V14.361C62.7781 14.2544 62.8101 14.169 62.8741 14.105C62.9488 14.0304 63.0395 13.993 63.1461 13.993H63.9461C64.0635 13.993 64.1541 14.0304 64.2181 14.105C64.2821 14.169 64.3141 14.2544 64.3141 14.361V18.089C64.6021 17.7264 64.9541 17.433 65.3701 17.209C65.7861 16.985 66.3141 16.873 66.9541 16.873C67.6475 16.873 68.2341 17.0277 68.7141 17.337C69.2048 17.6357 69.5728 18.057 69.8181 18.601C70.0741 19.1344 70.2021 19.7584 70.2021 20.473V24.985C70.2021 25.0917 70.1701 25.1824 70.1061 25.257C70.0421 25.321 69.9515 25.353 69.8341 25.353H69.0341C68.9275 25.353 68.8368 25.321 68.7621 25.257C68.6981 25.1824 68.6661 25.0917 68.6661 24.985V20.553C68.6661 19.8064 68.4848 19.225 68.1221 18.809C67.7595 18.3824 67.2261 18.169 66.5221 18.169C65.8608 18.169 65.3275 18.3824 64.9221 18.809C64.5168 19.225 64.3141 19.8064 64.3141 20.553V24.985C64.3141 25.0917 64.2821 25.1824 64.2181 25.257C64.1541 25.321 64.0635 25.353 63.9461 25.353H63.1461Z" fill="white"/>
<path d="M92.992 25.513C92.064 25.513 91.2853 25.3744 90.656 25.097C90.0267 24.809 89.5413 24.441 89.2 23.993C88.8693 23.5344 88.6933 23.049 88.672 22.537C88.672 22.4517 88.704 22.377 88.768 22.313C88.8427 22.2384 88.928 22.201 89.024 22.201H89.84C89.968 22.201 90.064 22.233 90.128 22.297C90.192 22.361 90.2347 22.4357 90.256 22.521C90.3093 22.777 90.4373 23.033 90.64 23.289C90.8533 23.5344 91.1467 23.7424 91.52 23.913C91.904 24.073 92.3947 24.153 92.992 24.153C93.9093 24.153 94.5813 23.993 95.008 23.673C95.4453 23.3424 95.664 22.905 95.664 22.361C95.664 21.9877 95.5467 21.689 95.312 21.465C95.088 21.2304 94.7413 21.0224 94.272 20.841C93.8027 20.6597 93.1947 20.4624 92.448 20.249C91.6693 20.025 91.024 19.7797 90.512 19.513C90 19.2464 89.616 18.9157 89.36 18.521C89.1147 18.1264 88.992 17.625 88.992 17.017C88.992 16.441 89.1467 15.929 89.456 15.481C89.7653 15.0224 90.208 14.6597 90.784 14.393C91.3707 14.1264 92.08 13.993 92.912 13.993C93.5733 13.993 94.1493 14.0837 94.64 14.265C95.1413 14.4357 95.5573 14.6704 95.888 14.969C96.2187 15.257 96.4693 15.5717 96.64 15.913C96.8107 16.2437 96.9013 16.569 96.912 16.889C96.912 16.9637 96.8853 17.0384 96.832 17.113C96.7787 17.177 96.6933 17.209 96.576 17.209H95.728C95.6533 17.209 95.5733 17.1877 95.488 17.145C95.4133 17.1024 95.3547 17.0224 95.312 16.905C95.248 16.4677 95.0027 16.0997 94.576 15.801C94.1493 15.5024 93.5947 15.353 92.912 15.353C92.2187 15.353 91.6533 15.4864 91.216 15.753C90.7893 16.0197 90.576 16.4357 90.576 17.001C90.576 17.3637 90.6773 17.6677 90.88 17.913C91.0827 18.1477 91.4027 18.3557 91.84 18.537C92.2773 18.7184 92.848 18.9104 93.552 19.113C94.4053 19.3477 95.104 19.5984 95.648 19.865C96.192 20.121 96.592 20.4464 96.848 20.841C97.1147 21.225 97.248 21.721 97.248 22.329C97.248 23.001 97.072 23.577 96.72 24.057C96.368 24.5264 95.872 24.889 95.232 25.145C94.6027 25.3904 93.856 25.513 92.992 25.513ZM102.449 25.513C101.35 25.513 100.476 25.177 99.8251 24.505C99.1745 23.8224 98.8171 22.8944 98.7531 21.721C98.7425 21.5824 98.7371 21.4064 98.7371 21.193C98.7371 20.969 98.7425 20.7877 98.7531 20.649C98.7958 19.8917 98.9718 19.2304 99.2811 18.665C99.5905 18.089 100.012 17.6464 100.545 17.337C101.089 17.0277 101.724 16.873 102.449 16.873C103.26 16.873 103.937 17.0437 104.481 17.385C105.036 17.7264 105.457 18.2117 105.745 18.841C106.033 19.4704 106.177 20.2064 106.177 21.049V21.321C106.177 21.4384 106.14 21.529 106.065 21.593C106.001 21.657 105.916 21.689 105.809 21.689H100.273C100.273 21.6997 100.273 21.721 100.273 21.753C100.273 21.785 100.273 21.8117 100.273 21.833C100.294 22.2704 100.39 22.681 100.561 23.065C100.732 23.4384 100.977 23.7424 101.297 23.977C101.617 24.2117 102.001 24.329 102.449 24.329C102.833 24.329 103.153 24.2704 103.409 24.153C103.665 24.0357 103.873 23.9077 104.033 23.769C104.193 23.6197 104.3 23.5077 104.353 23.433C104.449 23.2944 104.524 23.2144 104.577 23.193C104.63 23.161 104.716 23.145 104.833 23.145H105.601C105.708 23.145 105.793 23.177 105.857 23.241C105.932 23.2944 105.964 23.3744 105.953 23.481C105.942 23.641 105.857 23.8384 105.697 24.073C105.537 24.297 105.308 24.521 105.009 24.745C104.71 24.969 104.348 25.1557 103.921 25.305C103.494 25.4437 103.004 25.513 102.449 25.513ZM100.273 20.585H104.657V20.537C104.657 20.057 104.566 19.6304 104.385 19.257C104.214 18.8837 103.964 18.5904 103.633 18.377C103.302 18.153 102.908 18.041 102.449 18.041C101.99 18.041 101.596 18.153 101.265 18.377C100.945 18.5904 100.7 18.8837 100.529 19.257C100.358 19.6304 100.273 20.057 100.273 20.537V20.585ZM108.458 25.353C108.352 25.353 108.261 25.321 108.186 25.257C108.122 25.1824 108.09 25.0917 108.09 24.985V17.401C108.09 17.2944 108.122 17.209 108.186 17.145C108.261 17.0704 108.352 17.033 108.458 17.033H109.21C109.317 17.033 109.402 17.0704 109.466 17.145C109.541 17.209 109.578 17.2944 109.578 17.401V18.105C109.856 17.7424 110.202 17.449 110.618 17.225C111.045 16.9904 111.589 16.873 112.25 16.873C112.944 16.873 113.53 17.0277 114.01 17.337C114.501 17.6357 114.869 18.057 115.114 18.601C115.36 19.1344 115.482 19.7584 115.482 20.473V24.985C115.482 25.0917 115.45 25.1824 115.386 25.257C115.322 25.321 115.237 25.353 115.13 25.353H114.33C114.224 25.353 114.133 25.321 114.058 25.257C113.994 25.1824 113.962 25.0917 113.962 24.985V20.553C113.962 19.8064 113.781 19.225 113.418 18.809C113.056 18.3824 112.522 18.169 111.818 18.169C111.157 18.169 110.624 18.3824 110.218 18.809C109.824 19.225 109.626 19.8064 109.626 20.553V24.985C109.626 25.0917 109.589 25.1824 109.514 25.257C109.45 25.321 109.365 25.353 109.258 25.353H108.458ZM120.833 25.513C120.247 25.513 119.74 25.4117 119.313 25.209C118.887 24.9957 118.535 24.713 118.257 24.361C117.991 23.9984 117.788 23.5877 117.649 23.129C117.521 22.6704 117.447 22.185 117.425 21.673C117.415 21.5024 117.409 21.3424 117.409 21.193C117.409 21.0437 117.415 20.8837 117.425 20.713C117.447 20.2117 117.521 19.7317 117.649 19.273C117.788 18.8144 117.991 18.4037 118.257 18.041C118.535 17.6784 118.887 17.3957 119.313 17.193C119.74 16.9797 120.247 16.873 120.833 16.873C121.463 16.873 121.985 16.985 122.401 17.209C122.817 17.433 123.159 17.7104 123.425 18.041V14.361C123.425 14.2544 123.457 14.169 123.521 14.105C123.596 14.0304 123.687 13.993 123.793 13.993H124.561C124.668 13.993 124.753 14.0304 124.817 14.105C124.892 14.169 124.929 14.2544 124.929 14.361V24.985C124.929 25.0917 124.892 25.1824 124.817 25.257C124.753 25.321 124.668 25.353 124.561 25.353H123.841C123.724 25.353 123.633 25.321 123.569 25.257C123.505 25.1824 123.473 25.0917 123.473 24.985V24.313C123.207 24.6544 122.86 24.9424 122.433 25.177C122.007 25.401 121.473 25.513 120.833 25.513ZM121.169 24.217C121.703 24.217 122.129 24.0944 122.449 23.849C122.769 23.6037 123.009 23.2944 123.169 22.921C123.329 22.537 123.415 22.1477 123.425 21.753C123.436 21.5824 123.441 21.3797 123.441 21.145C123.441 20.8997 123.436 20.6917 123.425 20.521C123.415 20.1477 123.324 19.7797 123.153 19.417C122.993 19.0544 122.748 18.7557 122.417 18.521C122.097 18.2864 121.681 18.169 121.169 18.169C120.625 18.169 120.193 18.2917 119.873 18.537C119.553 18.7717 119.324 19.0864 119.185 19.481C119.047 19.865 118.967 20.281 118.945 20.729C118.935 21.0384 118.935 21.3477 118.945 21.657C118.967 22.105 119.047 22.5264 119.185 22.921C119.324 23.305 119.553 23.6197 119.873 23.865C120.193 24.0997 120.625 24.217 121.169 24.217Z" fill="#969497"/>
<rect x="405" y="8.35303" width="24" height="24" rx="2" fill="white"/>
<path d="M417 13.853C413.1 13.853 410 16.953 410 20.853C410 24.753 413.1 27.853 417 27.853C420.9 27.853 424 24.753 424 20.853C424 16.953 420.9 13.853 417 13.853ZM417 26.853C413.7 26.853 411 24.153 411 20.853C411 17.553 413.7 14.853 417 14.853C420.3 14.853 423 17.553 423 20.853C423 24.153 420.3 26.853 417 26.853Z" fill="#545454"/>
<path d="M419.7 24.353L417 21.653L414.3 24.353L413.5 23.553L416.2 20.853L413.5 18.153L414.3 17.353L417 20.053L419.7 17.353L420.5 18.153L417.8 20.853L420.5 23.553L419.7 24.353Z" fill="#545454"/>
</svg>
