<svg width="445" height="42" viewBox="0 0 445 42" fill="none" xmlns="http://www.w3.org/2000/svg">
<path d="M0 0.353027H445V33.353C445 37.7713 441.418 41.353 437 41.353H8C3.58173 41.353 0 37.7713 0 33.353V0.353027Z" fill="#585658"/>
<path d="M17.43 24.853C17.3347 24.853 17.261 24.827 17.209 24.775C17.157 24.7144 17.131 24.6407 17.131 24.554V16.065C17.131 15.9697 17.157 15.896 17.209 15.844C17.261 15.7834 17.3347 15.753 17.43 15.753H22.734C22.8293 15.753 22.903 15.7834 22.955 15.844C23.007 15.896 23.033 15.9697 23.033 16.065V16.585C23.033 16.6804 23.007 16.754 22.955 16.806C22.903 16.858 22.8293 16.884 22.734 16.884H18.392V19.913H22.474C22.5693 19.913 22.643 19.9434 22.695 20.004C22.747 20.056 22.773 20.1297 22.773 20.225V20.745C22.773 20.8317 22.747 20.9054 22.695 20.966C22.643 21.018 22.5693 21.044 22.474 21.044H18.392V24.554C18.392 24.6407 18.3617 24.7144 18.301 24.775C18.249 24.827 18.1753 24.853 18.08 24.853H17.43ZM24.7893 24.853C24.7027 24.853 24.629 24.827 24.5683 24.775C24.5163 24.7144 24.4903 24.6407 24.4903 24.554V18.392C24.4903 18.3054 24.5163 18.236 24.5683 18.184C24.629 18.1234 24.7027 18.093 24.7893 18.093H25.4133C25.5 18.093 25.5693 18.1234 25.6213 18.184C25.6733 18.236 25.6993 18.3054 25.6993 18.392V24.554C25.6993 24.6407 25.6733 24.7144 25.6213 24.775C25.5693 24.827 25.5 24.853 25.4133 24.853H24.7893ZM24.6853 16.832C24.5987 16.832 24.525 16.806 24.4643 16.754C24.4123 16.6934 24.3863 16.6197 24.3863 16.533V15.831C24.3863 15.7444 24.4123 15.675 24.4643 15.623C24.525 15.5624 24.5987 15.532 24.6853 15.532H25.5043C25.591 15.532 25.6603 15.5624 25.7123 15.623C25.773 15.675 25.8033 15.7444 25.8033 15.831V16.533C25.8033 16.6197 25.773 16.6934 25.7123 16.754C25.6603 16.806 25.591 16.832 25.5043 16.832H24.6853ZM28.0647 24.853C27.978 24.853 27.9044 24.827 27.8437 24.775C27.7917 24.7144 27.7657 24.6407 27.7657 24.554V18.392C27.7657 18.3054 27.7917 18.236 27.8437 18.184C27.9044 18.1234 27.978 18.093 28.0647 18.093H28.6757C28.7624 18.093 28.8317 18.1234 28.8837 18.184C28.9444 18.236 28.9747 18.3054 28.9747 18.392V18.964C29.2 18.6694 29.4817 18.431 29.8197 18.249C30.1664 18.0584 30.6084 17.963 31.1457 17.963C31.709 17.963 32.1857 18.0887 32.5757 18.34C32.9744 18.5827 33.2734 18.925 33.4727 19.367C33.672 19.8004 33.7717 20.3074 33.7717 20.888V24.554C33.7717 24.6407 33.7457 24.7144 33.6937 24.775C33.6417 24.827 33.5724 24.853 33.4857 24.853H32.8357C32.749 24.853 32.6754 24.827 32.6147 24.775C32.5627 24.7144 32.5367 24.6407 32.5367 24.554V20.953C32.5367 20.3464 32.3894 19.874 32.0947 19.536C31.8 19.1894 31.3667 19.016 30.7947 19.016C30.2574 19.016 29.824 19.1894 29.4947 19.536C29.174 19.874 29.0137 20.3464 29.0137 20.953V24.554C29.0137 24.6407 28.9834 24.7144 28.9227 24.775C28.8707 24.827 28.8014 24.853 28.7147 24.853H28.0647ZM38.1195 24.983C37.6428 24.983 37.2312 24.9007 36.8845 24.736C36.5378 24.5627 36.2518 24.333 36.0265 24.047C35.8098 23.7524 35.6452 23.4187 35.5325 23.046C35.4285 22.6734 35.3678 22.279 35.3505 21.863C35.3418 21.7244 35.3375 21.5944 35.3375 21.473C35.3375 21.3517 35.3418 21.2217 35.3505 21.083C35.3678 20.6757 35.4285 20.2857 35.5325 19.913C35.6452 19.5404 35.8098 19.2067 36.0265 18.912C36.2518 18.6174 36.5378 18.3877 36.8845 18.223C37.2312 18.0497 37.6428 17.963 38.1195 17.963C38.6308 17.963 39.0555 18.054 39.3935 18.236C39.7315 18.418 40.0088 18.6434 40.2255 18.912V15.922C40.2255 15.8354 40.2515 15.766 40.3035 15.714C40.3642 15.6534 40.4378 15.623 40.5245 15.623H41.1485C41.2352 15.623 41.3045 15.6534 41.3565 15.714C41.4172 15.766 41.4475 15.8354 41.4475 15.922V24.554C41.4475 24.6407 41.4172 24.7144 41.3565 24.775C41.3045 24.827 41.2352 24.853 41.1485 24.853H40.5635C40.4682 24.853 40.3945 24.827 40.3425 24.775C40.2905 24.7144 40.2645 24.6407 40.2645 24.554V24.008C40.0478 24.2854 39.7662 24.5194 39.4195 24.71C39.0728 24.892 38.6395 24.983 38.1195 24.983ZM38.3925 23.93C38.8258 23.93 39.1725 23.8304 39.4325 23.631C39.6925 23.4317 39.8875 23.1804 40.0175 22.877C40.1475 22.565 40.2168 22.2487 40.2255 21.928C40.2342 21.7894 40.2385 21.6247 40.2385 21.434C40.2385 21.2347 40.2342 21.0657 40.2255 20.927C40.2168 20.6237 40.1432 20.3247 40.0045 20.03C39.8745 19.7354 39.6752 19.4927 39.4065 19.302C39.1465 19.1114 38.8085 19.016 38.3925 19.016C37.9505 19.016 37.5995 19.1157 37.3395 19.315C37.0795 19.5057 36.8932 19.7614 36.7805 20.082C36.6678 20.394 36.6028 20.732 36.5855 21.096C36.5768 21.3474 36.5768 21.5987 36.5855 21.85C36.6028 22.214 36.6678 22.5564 36.7805 22.877C36.8932 23.189 37.0795 23.4447 37.3395 23.644C37.5995 23.8347 37.9505 23.93 38.3925 23.93ZM47.395 27.323C47.3257 27.323 47.265 27.297 47.213 27.245C47.161 27.193 47.135 27.1324 47.135 27.063C47.135 27.0284 47.1393 26.9937 47.148 26.959C47.1567 26.9244 47.174 26.881 47.2 26.829L48.201 24.45L45.718 18.587C45.6747 18.483 45.653 18.4094 45.653 18.366C45.653 18.288 45.679 18.223 45.731 18.171C45.783 18.119 45.848 18.093 45.926 18.093H46.563C46.6497 18.093 46.719 18.1147 46.771 18.158C46.823 18.2014 46.8577 18.2534 46.875 18.314L48.851 23.046L50.879 18.314C50.905 18.2534 50.9397 18.2014 50.983 18.158C51.035 18.1147 51.1087 18.093 51.204 18.093H51.815C51.893 18.093 51.958 18.119 52.01 18.171C52.062 18.223 52.088 18.2837 52.088 18.353C52.088 18.3964 52.0663 18.4744 52.023 18.587L48.331 27.102C48.305 27.1627 48.266 27.2147 48.214 27.258C48.1707 27.3014 48.1013 27.323 48.006 27.323H47.395ZM55.9126 24.983C55.254 24.983 54.7036 24.8574 54.2616 24.606C53.8196 24.3547 53.4816 24.008 53.2476 23.566C53.0136 23.1154 52.8836 22.604 52.8576 22.032C52.849 21.8847 52.8446 21.6984 52.8446 21.473C52.8446 21.239 52.849 21.0527 52.8576 20.914C52.8836 20.3334 53.0136 19.822 53.2476 19.38C53.4903 18.938 53.8326 18.5914 54.2746 18.34C54.7166 18.0887 55.2626 17.963 55.9126 17.963C56.5626 17.963 57.1086 18.0887 57.5506 18.34C57.9926 18.5914 58.3306 18.938 58.5646 19.38C58.8073 19.822 58.9416 20.3334 58.9676 20.914C58.9763 21.0527 58.9806 21.239 58.9806 21.473C58.9806 21.6984 58.9763 21.8847 58.9676 22.032C58.9416 22.604 58.8116 23.1154 58.5776 23.566C58.3436 24.008 58.0056 24.3547 57.5636 24.606C57.1216 24.8574 56.5713 24.983 55.9126 24.983ZM55.9126 23.982C56.45 23.982 56.879 23.813 57.1996 23.475C57.5203 23.1284 57.6936 22.6257 57.7196 21.967C57.7283 21.837 57.7326 21.6724 57.7326 21.473C57.7326 21.2737 57.7283 21.109 57.7196 20.979C57.6936 20.3204 57.5203 19.822 57.1996 19.484C56.879 19.1374 56.45 18.964 55.9126 18.964C55.3753 18.964 54.942 19.1374 54.6126 19.484C54.292 19.822 54.123 20.3204 54.1056 20.979C54.097 21.109 54.0926 21.2737 54.0926 21.473C54.0926 21.6724 54.097 21.837 54.1056 21.967C54.123 22.6257 54.292 23.1284 54.6126 23.475C54.942 23.813 55.3753 23.982 55.9126 23.982ZM63.1305 24.983C62.5758 24.983 62.1035 24.8617 61.7135 24.619C61.3322 24.3677 61.0418 24.021 60.8425 23.579C60.6432 23.137 60.5435 22.63 60.5435 22.058V18.392C60.5435 18.3054 60.5695 18.236 60.6215 18.184C60.6822 18.1234 60.7558 18.093 60.8425 18.093H61.4925C61.5792 18.093 61.6485 18.1234 61.7005 18.184C61.7612 18.236 61.7915 18.3054 61.7915 18.392V21.993C61.7915 23.2844 62.3548 23.93 63.4815 23.93C64.0188 23.93 64.4478 23.761 64.7685 23.423C65.0978 23.0764 65.2625 22.5997 65.2625 21.993V18.392C65.2625 18.3054 65.2885 18.236 65.3405 18.184C65.4012 18.1234 65.4748 18.093 65.5615 18.093H66.1985C66.2938 18.093 66.3675 18.1234 66.4195 18.184C66.4715 18.236 66.4975 18.3054 66.4975 18.392V24.554C66.4975 24.6407 66.4715 24.7144 66.4195 24.775C66.3675 24.827 66.2938 24.853 66.1985 24.853H65.6005C65.5138 24.853 65.4402 24.827 65.3795 24.775C65.3275 24.7144 65.3015 24.6407 65.3015 24.554V23.982C65.0675 24.2854 64.7815 24.528 64.4435 24.71C64.1142 24.892 63.6765 24.983 63.1305 24.983ZM68.7278 24.853C68.6411 24.853 68.5675 24.827 68.5068 24.775C68.4548 24.7144 68.4288 24.6407 68.4288 24.554V18.405C68.4288 18.3184 68.4548 18.2447 68.5068 18.184C68.5675 18.1234 68.6411 18.093 68.7278 18.093H69.3258C69.4125 18.093 69.4861 18.1234 69.5468 18.184C69.6075 18.2447 69.6378 18.3184 69.6378 18.405V18.977C69.8111 18.6824 70.0495 18.4614 70.3528 18.314C70.6561 18.1667 71.0201 18.093 71.4448 18.093H71.9648C72.0515 18.093 72.1208 18.1234 72.1728 18.184C72.2248 18.236 72.2508 18.3054 72.2508 18.392V18.925C72.2508 19.0117 72.2248 19.081 72.1728 19.133C72.1208 19.185 72.0515 19.211 71.9648 19.211H71.1848C70.7168 19.211 70.3485 19.3497 70.0798 19.627C69.8111 19.8957 69.6768 20.264 69.6768 20.732V24.554C69.6768 24.6407 69.6465 24.7144 69.5858 24.775C69.5251 24.827 69.4515 24.853 69.3648 24.853H68.7278ZM76.5611 27.323C76.4744 27.323 76.4008 27.2927 76.3401 27.232C76.2881 27.18 76.2621 27.1107 76.2621 27.024V18.392C76.2621 18.3054 76.2881 18.236 76.3401 18.184C76.4008 18.1234 76.4744 18.093 76.5611 18.093H77.1591C77.2458 18.093 77.3151 18.1234 77.3671 18.184C77.4278 18.236 77.4581 18.3054 77.4581 18.392V18.964C77.6661 18.678 77.9434 18.4397 78.2901 18.249C78.6368 18.0584 79.0701 17.963 79.5901 17.963C80.0754 17.963 80.4871 18.0454 80.8251 18.21C81.1718 18.3747 81.4534 18.6 81.6701 18.886C81.8954 19.172 82.0644 19.497 82.1771 19.861C82.2898 20.225 82.3504 20.615 82.3591 21.031C82.3678 21.1697 82.3721 21.317 82.3721 21.473C82.3721 21.629 82.3678 21.7764 82.3591 21.915C82.3504 22.3224 82.2898 22.7124 82.1771 23.085C82.0644 23.449 81.8954 23.774 81.6701 24.06C81.4534 24.3374 81.1718 24.5627 80.8251 24.736C80.4871 24.9007 80.0754 24.983 79.5901 24.983C79.0874 24.983 78.6628 24.892 78.3161 24.71C77.9781 24.5194 77.7008 24.2854 77.4841 24.008V27.024C77.4841 27.1107 77.4581 27.18 77.4061 27.232C77.3541 27.2927 77.2804 27.323 77.1851 27.323H76.5611ZM79.3171 23.93C79.7678 23.93 80.1188 23.8347 80.3701 23.644C80.6301 23.4447 80.8164 23.189 80.9291 22.877C81.0418 22.5564 81.1068 22.214 81.1241 21.85C81.1328 21.5987 81.1328 21.3474 81.1241 21.096C81.1068 20.732 81.0418 20.394 80.9291 20.082C80.8164 19.7614 80.6301 19.5057 80.3701 19.315C80.1188 19.1157 79.7678 19.016 79.3171 19.016C78.8924 19.016 78.5458 19.1157 78.2771 19.315C78.0171 19.5144 77.8221 19.77 77.6921 20.082C77.5708 20.3854 77.5014 20.6974 77.4841 21.018C77.4754 21.1567 77.4711 21.3214 77.4711 21.512C77.4711 21.7027 77.4754 21.8717 77.4841 22.019C77.4928 22.3224 77.5621 22.6214 77.6921 22.916C77.8308 23.2107 78.0344 23.4534 78.3031 23.644C78.5718 23.8347 78.9098 23.93 79.3171 23.93ZM86.5153 24.983C85.9606 24.983 85.4883 24.8617 85.0983 24.619C84.7169 24.3677 84.4266 24.021 84.2273 23.579C84.0279 23.137 83.9283 22.63 83.9283 22.058V18.392C83.9283 18.3054 83.9543 18.236 84.0063 18.184C84.0669 18.1234 84.1406 18.093 84.2273 18.093H84.8773C84.9639 18.093 85.0333 18.1234 85.0853 18.184C85.1459 18.236 85.1763 18.3054 85.1763 18.392V21.993C85.1763 23.2844 85.7396 23.93 86.8663 23.93C87.4036 23.93 87.8326 23.761 88.1533 23.423C88.4826 23.0764 88.6473 22.5997 88.6473 21.993V18.392C88.6473 18.3054 88.6733 18.236 88.7253 18.184C88.7859 18.1234 88.8596 18.093 88.9463 18.093H89.5833C89.6786 18.093 89.7523 18.1234 89.8043 18.184C89.8563 18.236 89.8823 18.3054 89.8823 18.392V24.554C89.8823 24.6407 89.8563 24.7144 89.8043 24.775C89.7523 24.827 89.6786 24.853 89.5833 24.853H88.9853C88.8986 24.853 88.8249 24.827 88.7643 24.775C88.7123 24.7144 88.6863 24.6407 88.6863 24.554V23.982C88.4523 24.2854 88.1663 24.528 87.8283 24.71C87.4989 24.892 87.0613 24.983 86.5153 24.983ZM95.1546 24.983C94.6346 24.983 94.2012 24.892 93.8546 24.71C93.5079 24.5194 93.2306 24.2854 93.0226 24.008V24.554C93.0226 24.6407 92.9922 24.7144 92.9316 24.775C92.8796 24.827 92.8102 24.853 92.7236 24.853H92.1256C92.0389 24.853 91.9652 24.827 91.9046 24.775C91.8526 24.7144 91.8266 24.6407 91.8266 24.554V15.922C91.8266 15.8354 91.8526 15.766 91.9046 15.714C91.9652 15.6534 92.0389 15.623 92.1256 15.623H92.7496C92.8449 15.623 92.9186 15.6534 92.9706 15.714C93.0226 15.766 93.0486 15.8354 93.0486 15.922V18.912C93.2652 18.6434 93.5426 18.418 93.8806 18.236C94.2272 18.054 94.6519 17.963 95.1546 17.963C95.6399 17.963 96.0516 18.0497 96.3896 18.223C96.7362 18.3877 97.0179 18.6174 97.2346 18.912C97.4599 19.2067 97.6289 19.5404 97.7416 19.913C97.8542 20.2857 97.9149 20.6757 97.9236 21.083C97.9322 21.2217 97.9366 21.3517 97.9366 21.473C97.9366 21.5944 97.9322 21.7244 97.9236 21.863C97.9149 22.279 97.8542 22.6734 97.7416 23.046C97.6289 23.4187 97.4599 23.7524 97.2346 24.047C97.0179 24.333 96.7362 24.5627 96.3896 24.736C96.0516 24.9007 95.6399 24.983 95.1546 24.983ZM94.8816 23.93C95.3322 23.93 95.6832 23.8347 95.9346 23.644C96.1946 23.4447 96.3809 23.189 96.4936 22.877C96.6062 22.5564 96.6712 22.214 96.6886 21.85C96.6972 21.5987 96.6972 21.3474 96.6886 21.096C96.6712 20.732 96.6062 20.394 96.4936 20.082C96.3809 19.7614 96.1946 19.5057 95.9346 19.315C95.6832 19.1157 95.3322 19.016 94.8816 19.016C94.4742 19.016 94.1362 19.1114 93.8676 19.302C93.5989 19.4927 93.3952 19.7354 93.2566 20.03C93.1266 20.3247 93.0572 20.6237 93.0486 20.927C93.0399 21.0657 93.0356 21.2347 93.0356 21.434C93.0356 21.6247 93.0399 21.7894 93.0486 21.928C93.0659 22.2487 93.1352 22.565 93.2566 22.877C93.3866 23.1804 93.5816 23.4317 93.8416 23.631C94.1102 23.8304 94.4569 23.93 94.8816 23.93ZM99.857 24.853C99.7703 24.853 99.6967 24.827 99.636 24.775C99.584 24.7144 99.558 24.6407 99.558 24.554V15.922C99.558 15.8354 99.584 15.766 99.636 15.714C99.6967 15.6534 99.7703 15.623 99.857 15.623H100.468C100.563 15.623 100.637 15.6534 100.689 15.714C100.741 15.766 100.767 15.8354 100.767 15.922V24.554C100.767 24.6407 100.741 24.7144 100.689 24.775C100.637 24.827 100.563 24.853 100.468 24.853H99.857ZM103.132 24.853C103.045 24.853 102.972 24.827 102.911 24.775C102.859 24.7144 102.833 24.6407 102.833 24.554V18.392C102.833 18.3054 102.859 18.236 102.911 18.184C102.972 18.1234 103.045 18.093 103.132 18.093H103.756C103.843 18.093 103.912 18.1234 103.964 18.184C104.016 18.236 104.042 18.3054 104.042 18.392V24.554C104.042 24.6407 104.016 24.7144 103.964 24.775C103.912 24.827 103.843 24.853 103.756 24.853H103.132ZM103.028 16.832C102.941 16.832 102.868 16.806 102.807 16.754C102.755 16.6934 102.729 16.6197 102.729 16.533V15.831C102.729 15.7444 102.755 15.675 102.807 15.623C102.868 15.5624 102.941 15.532 103.028 15.532H103.847C103.934 15.532 104.003 15.5624 104.055 15.623C104.116 15.675 104.146 15.7444 104.146 15.831V16.533C104.146 16.6197 104.116 16.6934 104.055 16.754C104.003 16.806 103.934 16.832 103.847 16.832H103.028ZM108.398 24.983C107.912 24.983 107.496 24.9224 107.15 24.801C106.803 24.6797 106.521 24.5324 106.305 24.359C106.088 24.1857 105.923 24.0124 105.811 23.839C105.707 23.6657 105.65 23.527 105.642 23.423C105.633 23.3277 105.663 23.254 105.733 23.202C105.802 23.15 105.871 23.124 105.941 23.124H106.513C106.565 23.124 106.604 23.1327 106.63 23.15C106.664 23.1587 106.708 23.1934 106.76 23.254C106.872 23.3754 106.998 23.4967 107.137 23.618C107.275 23.7394 107.444 23.839 107.644 23.917C107.852 23.995 108.107 24.034 108.411 24.034C108.853 24.034 109.217 23.9517 109.503 23.787C109.789 23.6137 109.932 23.3624 109.932 23.033C109.932 22.8164 109.871 22.643 109.75 22.513C109.637 22.383 109.429 22.266 109.126 22.162C108.831 22.058 108.424 21.9497 107.904 21.837C107.384 21.7157 106.972 21.5684 106.669 21.395C106.365 21.213 106.149 21.0007 106.019 20.758C105.889 20.5067 105.824 20.225 105.824 19.913C105.824 19.5924 105.919 19.2847 106.11 18.99C106.3 18.6867 106.578 18.4397 106.942 18.249C107.314 18.0584 107.778 17.963 108.333 17.963C108.783 17.963 109.169 18.0194 109.49 18.132C109.81 18.2447 110.075 18.3877 110.283 18.561C110.491 18.7257 110.647 18.8904 110.751 19.055C110.855 19.2197 110.911 19.3584 110.92 19.471C110.928 19.5577 110.902 19.6314 110.842 19.692C110.781 19.744 110.712 19.77 110.634 19.77H110.088C110.027 19.77 109.975 19.757 109.932 19.731C109.897 19.705 109.862 19.6747 109.828 19.64C109.741 19.5274 109.637 19.4147 109.516 19.302C109.403 19.1894 109.251 19.0984 109.061 19.029C108.879 18.951 108.636 18.912 108.333 18.912C107.899 18.912 107.574 19.003 107.358 19.185C107.141 19.367 107.033 19.5967 107.033 19.874C107.033 20.0387 107.08 20.186 107.176 20.316C107.271 20.446 107.453 20.563 107.722 20.667C107.99 20.771 108.389 20.8837 108.918 21.005C109.49 21.1177 109.94 21.2694 110.27 21.46C110.599 21.6507 110.833 21.8717 110.972 22.123C111.11 22.3744 111.18 22.6647 111.18 22.994C111.18 23.358 111.071 23.6917 110.855 23.995C110.647 24.2984 110.335 24.541 109.919 24.723C109.511 24.8964 109.004 24.983 108.398 24.983ZM112.997 24.853C112.91 24.853 112.836 24.827 112.776 24.775C112.724 24.7144 112.698 24.6407 112.698 24.554V15.922C112.698 15.8354 112.724 15.766 112.776 15.714C112.836 15.6534 112.91 15.623 112.997 15.623H113.647C113.742 15.623 113.816 15.6534 113.868 15.714C113.92 15.766 113.946 15.8354 113.946 15.922V18.951C114.18 18.6564 114.466 18.418 114.804 18.236C115.142 18.054 115.571 17.963 116.091 17.963C116.654 17.963 117.131 18.0887 117.521 18.34C117.919 18.5827 118.218 18.925 118.418 19.367C118.626 19.8004 118.73 20.3074 118.73 20.888V24.554C118.73 24.6407 118.704 24.7144 118.652 24.775C118.6 24.827 118.526 24.853 118.431 24.853H117.781C117.694 24.853 117.62 24.827 117.56 24.775C117.508 24.7144 117.482 24.6407 117.482 24.554V20.953C117.482 20.3464 117.334 19.874 117.04 19.536C116.745 19.1894 116.312 19.016 115.74 19.016C115.202 19.016 114.769 19.1894 114.44 19.536C114.11 19.874 113.946 20.3464 113.946 20.953V24.554C113.946 24.6407 113.92 24.7144 113.868 24.775C113.816 24.827 113.742 24.853 113.647 24.853H112.997ZM123.298 24.983C122.405 24.983 121.694 24.71 121.166 24.164C120.637 23.6094 120.347 22.8554 120.295 21.902C120.286 21.7894 120.282 21.6464 120.282 21.473C120.282 21.291 120.286 21.1437 120.295 21.031C120.329 20.4157 120.472 19.8784 120.724 19.419C120.975 18.951 121.317 18.5914 121.751 18.34C122.193 18.0887 122.708 17.963 123.298 17.963C123.956 17.963 124.507 18.1017 124.949 18.379C125.399 18.6564 125.742 19.0507 125.976 19.562C126.21 20.0734 126.327 20.6714 126.327 21.356V21.577C126.327 21.6724 126.296 21.746 126.236 21.798C126.184 21.85 126.114 21.876 126.028 21.876H121.53C121.53 21.8847 121.53 21.902 121.53 21.928C121.53 21.954 121.53 21.9757 121.53 21.993C121.547 22.3484 121.625 22.682 121.764 22.994C121.902 23.2974 122.102 23.5444 122.362 23.735C122.622 23.9257 122.934 24.021 123.298 24.021C123.61 24.021 123.87 23.9734 124.078 23.878C124.286 23.7827 124.455 23.6787 124.585 23.566C124.715 23.4447 124.801 23.3537 124.845 23.293C124.923 23.1804 124.983 23.1154 125.027 23.098C125.07 23.072 125.139 23.059 125.235 23.059H125.859C125.945 23.059 126.015 23.085 126.067 23.137C126.127 23.1804 126.153 23.2454 126.145 23.332C126.136 23.462 126.067 23.6224 125.937 23.813C125.807 23.995 125.62 24.177 125.378 24.359C125.135 24.541 124.84 24.6927 124.494 24.814C124.147 24.9267 123.748 24.983 123.298 24.983ZM121.53 20.979H125.092V20.94C125.092 20.55 125.018 20.2034 124.871 19.9C124.732 19.5967 124.528 19.3584 124.26 19.185C123.991 19.003 123.67 18.912 123.298 18.912C122.925 18.912 122.604 19.003 122.336 19.185C122.076 19.3584 121.876 19.5967 121.738 19.9C121.599 20.2034 121.53 20.55 121.53 20.94V20.979ZM130.351 24.983C129.874 24.983 129.463 24.9007 129.116 24.736C128.769 24.5627 128.483 24.333 128.258 24.047C128.041 23.7524 127.877 23.4187 127.764 23.046C127.66 22.6734 127.599 22.279 127.582 21.863C127.573 21.7244 127.569 21.5944 127.569 21.473C127.569 21.3517 127.573 21.2217 127.582 21.083C127.599 20.6757 127.66 20.2857 127.764 19.913C127.877 19.5404 128.041 19.2067 128.258 18.912C128.483 18.6174 128.769 18.3877 129.116 18.223C129.463 18.0497 129.874 17.963 130.351 17.963C130.862 17.963 131.287 18.054 131.625 18.236C131.963 18.418 132.24 18.6434 132.457 18.912V15.922C132.457 15.8354 132.483 15.766 132.535 15.714C132.596 15.6534 132.669 15.623 132.756 15.623H133.38C133.467 15.623 133.536 15.6534 133.588 15.714C133.649 15.766 133.679 15.8354 133.679 15.922V24.554C133.679 24.6407 133.649 24.7144 133.588 24.775C133.536 24.827 133.467 24.853 133.38 24.853H132.795C132.7 24.853 132.626 24.827 132.574 24.775C132.522 24.7144 132.496 24.6407 132.496 24.554V24.008C132.279 24.2854 131.998 24.5194 131.651 24.71C131.304 24.892 130.871 24.983 130.351 24.983ZM130.624 23.93C131.057 23.93 131.404 23.8304 131.664 23.631C131.924 23.4317 132.119 23.1804 132.249 22.877C132.379 22.565 132.448 22.2487 132.457 21.928C132.466 21.7894 132.47 21.6247 132.47 21.434C132.47 21.2347 132.466 21.0657 132.457 20.927C132.448 20.6237 132.375 20.3247 132.236 20.03C132.106 19.7354 131.907 19.4927 131.638 19.302C131.378 19.1114 131.04 19.016 130.624 19.016C130.182 19.016 129.831 19.1157 129.571 19.315C129.311 19.5057 129.125 19.7614 129.012 20.082C128.899 20.394 128.834 20.732 128.817 21.096C128.808 21.3474 128.808 21.5987 128.817 21.85C128.834 22.214 128.899 22.5564 129.012 22.877C129.125 23.189 129.311 23.4447 129.571 23.644C129.831 23.8347 130.182 23.93 130.624 23.93ZM143.687 27.323C143.592 27.323 143.518 27.2927 143.466 27.232C143.414 27.18 143.388 27.1107 143.388 27.024V24.008C143.171 24.2854 142.89 24.5194 142.543 24.71C142.205 24.892 141.785 24.983 141.282 24.983C140.805 24.983 140.394 24.9007 140.047 24.736C139.7 24.5627 139.414 24.3374 139.189 24.06C138.972 23.774 138.808 23.449 138.695 23.085C138.591 22.7124 138.53 22.3224 138.513 21.915C138.504 21.7764 138.5 21.629 138.5 21.473C138.5 21.317 138.504 21.1697 138.513 21.031C138.53 20.615 138.591 20.225 138.695 19.861C138.808 19.497 138.972 19.172 139.189 18.886C139.414 18.6 139.7 18.3747 140.047 18.21C140.394 18.0454 140.805 17.963 141.282 17.963C141.802 17.963 142.235 18.0584 142.582 18.249C142.929 18.4397 143.206 18.678 143.414 18.964V18.392C143.414 18.3054 143.44 18.236 143.492 18.184C143.553 18.1234 143.626 18.093 143.713 18.093H144.311C144.398 18.093 144.467 18.1234 144.519 18.184C144.58 18.236 144.61 18.3054 144.61 18.392V27.024C144.61 27.1107 144.58 27.18 144.519 27.232C144.467 27.2927 144.398 27.323 144.311 27.323H143.687ZM141.555 23.93C141.971 23.93 142.309 23.8347 142.569 23.644C142.838 23.4534 143.037 23.2107 143.167 22.916C143.306 22.6214 143.379 22.3224 143.388 22.019C143.397 21.8717 143.401 21.7027 143.401 21.512C143.401 21.3214 143.397 21.1567 143.388 21.018C143.379 20.6974 143.31 20.3854 143.18 20.082C143.05 19.77 142.851 19.5144 142.582 19.315C142.322 19.1157 141.98 19.016 141.555 19.016C141.113 19.016 140.762 19.1157 140.502 19.315C140.242 19.5057 140.056 19.7614 139.943 20.082C139.83 20.394 139.765 20.732 139.748 21.096C139.739 21.3474 139.739 21.5987 139.748 21.85C139.765 22.214 139.83 22.5564 139.943 22.877C140.056 23.189 140.242 23.4447 140.502 23.644C140.762 23.8347 141.113 23.93 141.555 23.93ZM149.065 24.983C148.51 24.983 148.038 24.8617 147.648 24.619C147.267 24.3677 146.976 24.021 146.777 23.579C146.578 23.137 146.478 22.63 146.478 22.058V18.392C146.478 18.3054 146.504 18.236 146.556 18.184C146.617 18.1234 146.69 18.093 146.777 18.093H147.427C147.514 18.093 147.583 18.1234 147.635 18.184C147.696 18.236 147.726 18.3054 147.726 18.392V21.993C147.726 23.2844 148.289 23.93 149.416 23.93C149.953 23.93 150.382 23.761 150.703 23.423C151.032 23.0764 151.197 22.5997 151.197 21.993V18.392C151.197 18.3054 151.223 18.236 151.275 18.184C151.336 18.1234 151.409 18.093 151.496 18.093H152.133C152.228 18.093 152.302 18.1234 152.354 18.184C152.406 18.236 152.432 18.3054 152.432 18.392V24.554C152.432 24.6407 152.406 24.7144 152.354 24.775C152.302 24.827 152.228 24.853 152.133 24.853H151.535C151.448 24.853 151.375 24.827 151.314 24.775C151.262 24.7144 151.236 24.6407 151.236 24.554V23.982C151.002 24.2854 150.716 24.528 150.378 24.71C150.049 24.892 149.611 24.983 149.065 24.983ZM154.662 24.853C154.576 24.853 154.502 24.827 154.441 24.775C154.389 24.7144 154.363 24.6407 154.363 24.554V18.392C154.363 18.3054 154.389 18.236 154.441 18.184C154.502 18.1234 154.576 18.093 154.662 18.093H155.286C155.373 18.093 155.442 18.1234 155.494 18.184C155.546 18.236 155.572 18.3054 155.572 18.392V24.554C155.572 24.6407 155.546 24.7144 155.494 24.775C155.442 24.827 155.373 24.853 155.286 24.853H154.662ZM154.558 16.832C154.472 16.832 154.398 16.806 154.337 16.754C154.285 16.6934 154.259 16.6197 154.259 16.533V15.831C154.259 15.7444 154.285 15.675 154.337 15.623C154.398 15.5624 154.472 15.532 154.558 15.532H155.377C155.464 15.532 155.533 15.5624 155.585 15.623C155.646 15.675 155.676 15.7444 155.676 15.831V16.533C155.676 16.6197 155.646 16.6934 155.585 16.754C155.533 16.806 155.464 16.832 155.377 16.832H154.558ZM157.445 24.853C157.359 24.853 157.285 24.827 157.224 24.775C157.172 24.7144 157.146 24.6407 157.146 24.554V24.099C157.146 24.021 157.164 23.9474 157.198 23.878C157.242 23.8087 157.285 23.7437 157.328 23.683L160.916 19.12H157.562C157.476 19.12 157.402 19.094 157.341 19.042C157.289 18.99 157.263 18.9164 157.263 18.821V18.392C157.263 18.3054 157.289 18.236 157.341 18.184C157.402 18.1234 157.476 18.093 157.562 18.093H162.19C162.277 18.093 162.346 18.1234 162.398 18.184C162.459 18.236 162.489 18.3054 162.489 18.392V18.873C162.489 18.951 162.468 19.0204 162.424 19.081C162.39 19.1417 162.351 19.2067 162.307 19.276L158.758 23.826H162.45C162.537 23.826 162.606 23.852 162.658 23.904C162.719 23.956 162.749 24.0297 162.749 24.125V24.554C162.749 24.6407 162.719 24.7144 162.658 24.775C162.606 24.827 162.537 24.853 162.45 24.853H157.445ZM167.675 24.853C167.588 24.853 167.515 24.827 167.454 24.775C167.402 24.7144 167.376 24.6407 167.376 24.554V18.392C167.376 18.3054 167.402 18.236 167.454 18.184C167.515 18.1234 167.588 18.093 167.675 18.093H168.299C168.386 18.093 168.455 18.1234 168.507 18.184C168.559 18.236 168.585 18.3054 168.585 18.392V24.554C168.585 24.6407 168.559 24.7144 168.507 24.775C168.455 24.827 168.386 24.853 168.299 24.853H167.675ZM167.571 16.832C167.484 16.832 167.411 16.806 167.35 16.754C167.298 16.6934 167.272 16.6197 167.272 16.533V15.831C167.272 15.7444 167.298 15.675 167.35 15.623C167.411 15.5624 167.484 15.532 167.571 15.532H168.39C168.477 15.532 168.546 15.5624 168.598 15.623C168.659 15.675 168.689 15.7444 168.689 15.831V16.533C168.689 16.6197 168.659 16.6934 168.598 16.754C168.546 16.806 168.477 16.832 168.39 16.832H167.571ZM170.95 24.853C170.864 24.853 170.79 24.827 170.729 24.775C170.677 24.7144 170.651 24.6407 170.651 24.554V18.392C170.651 18.3054 170.677 18.236 170.729 18.184C170.79 18.1234 170.864 18.093 170.95 18.093H171.561C171.648 18.093 171.717 18.1234 171.769 18.184C171.83 18.236 171.86 18.3054 171.86 18.392V18.964C172.086 18.6694 172.367 18.431 172.705 18.249C173.052 18.0584 173.494 17.963 174.031 17.963C174.595 17.963 175.071 18.0887 175.461 18.34C175.86 18.5827 176.159 18.925 176.358 19.367C176.558 19.8004 176.657 20.3074 176.657 20.888V24.554C176.657 24.6407 176.631 24.7144 176.579 24.775C176.527 24.827 176.458 24.853 176.371 24.853H175.721C175.635 24.853 175.561 24.827 175.5 24.775C175.448 24.7144 175.422 24.6407 175.422 24.554V20.953C175.422 20.3464 175.275 19.874 174.98 19.536C174.686 19.1894 174.252 19.016 173.68 19.016C173.143 19.016 172.71 19.1894 172.38 19.536C172.06 19.874 171.899 20.3464 171.899 20.953V24.554C171.899 24.6407 171.869 24.7144 171.808 24.775C171.756 24.827 171.687 24.853 171.6 24.853H170.95ZM184.081 24.853C183.596 24.853 183.202 24.762 182.898 24.58C182.595 24.3894 182.374 24.125 182.235 23.787C182.097 23.4404 182.027 23.033 182.027 22.565V19.133H181.013C180.927 19.133 180.853 19.107 180.792 19.055C180.74 18.9944 180.714 18.9207 180.714 18.834V18.392C180.714 18.3054 180.74 18.236 180.792 18.184C180.853 18.1234 180.927 18.093 181.013 18.093H182.027V15.922C182.027 15.8354 182.053 15.766 182.105 15.714C182.166 15.6534 182.24 15.623 182.326 15.623H182.937C183.024 15.623 183.093 15.6534 183.145 15.714C183.206 15.766 183.236 15.8354 183.236 15.922V18.093H184.848C184.935 18.093 185.004 18.1234 185.056 18.184C185.117 18.236 185.147 18.3054 185.147 18.392V18.834C185.147 18.9207 185.117 18.9944 185.056 19.055C185.004 19.107 184.935 19.133 184.848 19.133H183.236V22.474C183.236 22.8814 183.306 23.202 183.444 23.436C183.583 23.67 183.83 23.787 184.185 23.787H184.978C185.065 23.787 185.134 23.8174 185.186 23.878C185.247 23.93 185.277 23.9994 185.277 24.086V24.554C185.277 24.6407 185.247 24.7144 185.186 24.775C185.134 24.827 185.065 24.853 184.978 24.853H184.081ZM186.833 24.853C186.746 24.853 186.672 24.827 186.612 24.775C186.56 24.7144 186.534 24.6407 186.534 24.554V15.922C186.534 15.8354 186.56 15.766 186.612 15.714C186.672 15.6534 186.746 15.623 186.833 15.623H187.483C187.578 15.623 187.652 15.6534 187.704 15.714C187.756 15.766 187.782 15.8354 187.782 15.922V18.951C188.016 18.6564 188.302 18.418 188.64 18.236C188.978 18.054 189.407 17.963 189.927 17.963C190.49 17.963 190.967 18.0887 191.357 18.34C191.755 18.5827 192.054 18.925 192.254 19.367C192.462 19.8004 192.566 20.3074 192.566 20.888V24.554C192.566 24.6407 192.54 24.7144 192.488 24.775C192.436 24.827 192.362 24.853 192.267 24.853H191.617C191.53 24.853 191.456 24.827 191.396 24.775C191.344 24.7144 191.318 24.6407 191.318 24.554V20.953C191.318 20.3464 191.17 19.874 190.876 19.536C190.581 19.1894 190.148 19.016 189.576 19.016C189.038 19.016 188.605 19.1894 188.276 19.536C187.946 19.874 187.782 20.3464 187.782 20.953V24.554C187.782 24.6407 187.756 24.7144 187.704 24.775C187.652 24.827 187.578 24.853 187.483 24.853H186.833ZM197.133 24.983C196.241 24.983 195.53 24.71 195.001 24.164C194.473 23.6094 194.182 22.8554 194.13 21.902C194.122 21.7894 194.117 21.6464 194.117 21.473C194.117 21.291 194.122 21.1437 194.13 21.031C194.165 20.4157 194.308 19.8784 194.559 19.419C194.811 18.951 195.153 18.5914 195.586 18.34C196.028 18.0887 196.544 17.963 197.133 17.963C197.792 17.963 198.342 18.1017 198.784 18.379C199.235 18.6564 199.577 19.0507 199.811 19.562C200.045 20.0734 200.162 20.6714 200.162 21.356V21.577C200.162 21.6724 200.132 21.746 200.071 21.798C200.019 21.85 199.95 21.876 199.863 21.876H195.365C195.365 21.8847 195.365 21.902 195.365 21.928C195.365 21.954 195.365 21.9757 195.365 21.993C195.383 22.3484 195.461 22.682 195.599 22.994C195.738 23.2974 195.937 23.5444 196.197 23.735C196.457 23.9257 196.769 24.021 197.133 24.021C197.445 24.021 197.705 23.9734 197.913 23.878C198.121 23.7827 198.29 23.6787 198.42 23.566C198.55 23.4447 198.637 23.3537 198.68 23.293C198.758 23.1804 198.819 23.1154 198.862 23.098C198.906 23.072 198.975 23.059 199.07 23.059H199.694C199.781 23.059 199.85 23.085 199.902 23.137C199.963 23.1804 199.989 23.2454 199.98 23.332C199.972 23.462 199.902 23.6224 199.772 23.813C199.642 23.995 199.456 24.177 199.213 24.359C198.971 24.541 198.676 24.6927 198.329 24.814C197.983 24.9267 197.584 24.983 197.133 24.983ZM195.365 20.979H198.927V20.94C198.927 20.55 198.854 20.2034 198.706 19.9C198.568 19.5967 198.364 19.3584 198.095 19.185C197.827 19.003 197.506 18.912 197.133 18.912C196.761 18.912 196.44 19.003 196.171 19.185C195.911 19.3584 195.712 19.5967 195.573 19.9C195.435 20.2034 195.365 20.55 195.365 20.94V20.979ZM209.791 27.323C209.696 27.323 209.622 27.2927 209.57 27.232C209.518 27.18 209.492 27.1107 209.492 27.024V24.008C209.276 24.2854 208.994 24.5194 208.647 24.71C208.309 24.892 207.889 24.983 207.386 24.983C206.91 24.983 206.498 24.9007 206.151 24.736C205.805 24.5627 205.519 24.3374 205.293 24.06C205.077 23.774 204.912 23.449 204.799 23.085C204.695 22.7124 204.635 22.3224 204.617 21.915C204.609 21.7764 204.604 21.629 204.604 21.473C204.604 21.317 204.609 21.1697 204.617 21.031C204.635 20.615 204.695 20.225 204.799 19.861C204.912 19.497 205.077 19.172 205.293 18.886C205.519 18.6 205.805 18.3747 206.151 18.21C206.498 18.0454 206.91 17.963 207.386 17.963C207.906 17.963 208.34 18.0584 208.686 18.249C209.033 18.4397 209.31 18.678 209.518 18.964V18.392C209.518 18.3054 209.544 18.236 209.596 18.184C209.657 18.1234 209.731 18.093 209.817 18.093H210.415C210.502 18.093 210.571 18.1234 210.623 18.184C210.684 18.236 210.714 18.3054 210.714 18.392V27.024C210.714 27.1107 210.684 27.18 210.623 27.232C210.571 27.2927 210.502 27.323 210.415 27.323H209.791ZM207.659 23.93C208.075 23.93 208.413 23.8347 208.673 23.644C208.942 23.4534 209.141 23.2107 209.271 22.916C209.41 22.6214 209.484 22.3224 209.492 22.019C209.501 21.8717 209.505 21.7027 209.505 21.512C209.505 21.3214 209.501 21.1567 209.492 21.018C209.484 20.6974 209.414 20.3854 209.284 20.082C209.154 19.77 208.955 19.5144 208.686 19.315C208.426 19.1157 208.084 19.016 207.659 19.016C207.217 19.016 206.866 19.1157 206.606 19.315C206.346 19.5057 206.16 19.7614 206.047 20.082C205.935 20.394 205.87 20.732 205.852 21.096C205.844 21.3474 205.844 21.5987 205.852 21.85C205.87 22.214 205.935 22.5564 206.047 22.877C206.16 23.189 206.346 23.4447 206.606 23.644C206.866 23.8347 207.217 23.93 207.659 23.93ZM215.17 24.983C214.615 24.983 214.143 24.8617 213.753 24.619C213.371 24.3677 213.081 24.021 212.882 23.579C212.682 23.137 212.583 22.63 212.583 22.058V18.392C212.583 18.3054 212.609 18.236 212.661 18.184C212.721 18.1234 212.795 18.093 212.882 18.093H213.532C213.618 18.093 213.688 18.1234 213.74 18.184C213.8 18.236 213.831 18.3054 213.831 18.392V21.993C213.831 23.2844 214.394 23.93 215.521 23.93C216.058 23.93 216.487 23.761 216.808 23.423C217.137 23.0764 217.302 22.5997 217.302 21.993V18.392C217.302 18.3054 217.328 18.236 217.38 18.184C217.44 18.1234 217.514 18.093 217.601 18.093H218.238C218.333 18.093 218.407 18.1234 218.459 18.184C218.511 18.236 218.537 18.3054 218.537 18.392V24.554C218.537 24.6407 218.511 24.7144 218.459 24.775C218.407 24.827 218.333 24.853 218.238 24.853H217.64C217.553 24.853 217.479 24.827 217.419 24.775C217.367 24.7144 217.341 24.6407 217.341 24.554V23.982C217.107 24.2854 216.821 24.528 216.483 24.71C216.153 24.892 215.716 24.983 215.17 24.983ZM220.767 24.853C220.68 24.853 220.607 24.827 220.546 24.775C220.494 24.7144 220.468 24.6407 220.468 24.554V18.392C220.468 18.3054 220.494 18.236 220.546 18.184C220.607 18.1234 220.68 18.093 220.767 18.093H221.391C221.478 18.093 221.547 18.1234 221.599 18.184C221.651 18.236 221.677 18.3054 221.677 18.392V24.554C221.677 24.6407 221.651 24.7144 221.599 24.775C221.547 24.827 221.478 24.853 221.391 24.853H220.767ZM220.663 16.832C220.576 16.832 220.503 16.806 220.442 16.754C220.39 16.6934 220.364 16.6197 220.364 16.533V15.831C220.364 15.7444 220.39 15.675 220.442 15.623C220.503 15.5624 220.576 15.532 220.663 15.532H221.482C221.569 15.532 221.638 15.5624 221.69 15.623C221.751 15.675 221.781 15.7444 221.781 15.831V16.533C221.781 16.6197 221.751 16.6934 221.69 16.754C221.638 16.806 221.569 16.832 221.482 16.832H220.663ZM223.55 24.853C223.463 24.853 223.389 24.827 223.329 24.775C223.277 24.7144 223.251 24.6407 223.251 24.554V24.099C223.251 24.021 223.268 23.9474 223.303 23.878C223.346 23.8087 223.389 23.7437 223.433 23.683L227.021 19.12H223.667C223.58 19.12 223.506 19.094 223.446 19.042C223.394 18.99 223.368 18.9164 223.368 18.821V18.392C223.368 18.3054 223.394 18.236 223.446 18.184C223.506 18.1234 223.58 18.093 223.667 18.093H228.295C228.381 18.093 228.451 18.1234 228.503 18.184C228.563 18.236 228.594 18.3054 228.594 18.392V18.873C228.594 18.951 228.572 19.0204 228.529 19.081C228.494 19.1417 228.455 19.2067 228.412 19.276L224.863 23.826H228.555C228.641 23.826 228.711 23.852 228.763 23.904C228.823 23.956 228.854 24.0297 228.854 24.125V24.554C228.854 24.6407 228.823 24.7144 228.763 24.775C228.711 24.827 228.641 24.853 228.555 24.853H223.55ZM230.164 24.853C230.077 24.853 230.004 24.827 229.943 24.775C229.891 24.7144 229.865 24.6407 229.865 24.554V24.099C229.865 24.021 229.882 23.9474 229.917 23.878C229.96 23.8087 230.004 23.7437 230.047 23.683L233.635 19.12H230.281C230.194 19.12 230.121 19.094 230.06 19.042C230.008 18.99 229.982 18.9164 229.982 18.821V18.392C229.982 18.3054 230.008 18.236 230.06 18.184C230.121 18.1234 230.194 18.093 230.281 18.093H234.909C234.996 18.093 235.065 18.1234 235.117 18.184C235.178 18.236 235.208 18.3054 235.208 18.392V18.873C235.208 18.951 235.186 19.0204 235.143 19.081C235.108 19.1417 235.069 19.2067 235.026 19.276L231.477 23.826H235.169C235.256 23.826 235.325 23.852 235.377 23.904C235.438 23.956 235.468 24.0297 235.468 24.125V24.554C235.468 24.6407 235.438 24.7144 235.377 24.775C235.325 24.827 235.256 24.853 235.169 24.853H230.164ZM239.523 24.983C238.63 24.983 237.92 24.71 237.391 24.164C236.862 23.6094 236.572 22.8554 236.52 21.902C236.511 21.7894 236.507 21.6464 236.507 21.473C236.507 21.291 236.511 21.1437 236.52 21.031C236.555 20.4157 236.698 19.8784 236.949 19.419C237.2 18.951 237.543 18.5914 237.976 18.34C238.418 18.0887 238.934 17.963 239.523 17.963C240.182 17.963 240.732 18.1017 241.174 18.379C241.625 18.6564 241.967 19.0507 242.201 19.562C242.435 20.0734 242.552 20.6714 242.552 21.356V21.577C242.552 21.6724 242.522 21.746 242.461 21.798C242.409 21.85 242.34 21.876 242.253 21.876H237.755C237.755 21.8847 237.755 21.902 237.755 21.928C237.755 21.954 237.755 21.9757 237.755 21.993C237.772 22.3484 237.85 22.682 237.989 22.994C238.128 23.2974 238.327 23.5444 238.587 23.735C238.847 23.9257 239.159 24.021 239.523 24.021C239.835 24.021 240.095 23.9734 240.303 23.878C240.511 23.7827 240.68 23.6787 240.81 23.566C240.94 23.4447 241.027 23.3537 241.07 23.293C241.148 23.1804 241.209 23.1154 241.252 23.098C241.295 23.072 241.365 23.059 241.46 23.059H242.084C242.171 23.059 242.24 23.085 242.292 23.137C242.353 23.1804 242.379 23.2454 242.37 23.332C242.361 23.462 242.292 23.6224 242.162 23.813C242.032 23.995 241.846 24.177 241.603 24.359C241.36 24.541 241.066 24.6927 240.719 24.814C240.372 24.9267 239.974 24.983 239.523 24.983ZM237.755 20.979H241.317V20.94C241.317 20.55 241.243 20.2034 241.096 19.9C240.957 19.5967 240.754 19.3584 240.485 19.185C240.216 19.003 239.896 18.912 239.523 18.912C239.15 18.912 238.83 19.003 238.561 19.185C238.301 19.3584 238.102 19.5967 237.963 19.9C237.824 20.2034 237.755 20.55 237.755 20.94V20.979ZM246.447 24.983C245.961 24.983 245.545 24.9224 245.199 24.801C244.852 24.6797 244.57 24.5324 244.354 24.359C244.137 24.1857 243.972 24.0124 243.86 23.839C243.756 23.6657 243.699 23.527 243.691 23.423C243.682 23.3277 243.712 23.254 243.782 23.202C243.851 23.15 243.92 23.124 243.99 23.124H244.562C244.614 23.124 244.653 23.1327 244.679 23.15C244.713 23.1587 244.757 23.1934 244.809 23.254C244.921 23.3754 245.047 23.4967 245.186 23.618C245.324 23.7394 245.493 23.839 245.693 23.917C245.901 23.995 246.156 24.034 246.46 24.034C246.902 24.034 247.266 23.9517 247.552 23.787C247.838 23.6137 247.981 23.3624 247.981 23.033C247.981 22.8164 247.92 22.643 247.799 22.513C247.686 22.383 247.478 22.266 247.175 22.162C246.88 22.058 246.473 21.9497 245.953 21.837C245.433 21.7157 245.021 21.5684 244.718 21.395C244.414 21.213 244.198 21.0007 244.068 20.758C243.938 20.5067 243.873 20.225 243.873 19.913C243.873 19.5924 243.968 19.2847 244.159 18.99C244.349 18.6867 244.627 18.4397 244.991 18.249C245.363 18.0584 245.827 17.963 246.382 17.963C246.832 17.963 247.218 18.0194 247.539 18.132C247.859 18.2447 248.124 18.3877 248.332 18.561C248.54 18.7257 248.696 18.8904 248.8 19.055C248.904 19.2197 248.96 19.3584 248.969 19.471C248.977 19.5577 248.951 19.6314 248.891 19.692C248.83 19.744 248.761 19.77 248.683 19.77H248.137C248.076 19.77 248.024 19.757 247.981 19.731C247.946 19.705 247.911 19.6747 247.877 19.64C247.79 19.5274 247.686 19.4147 247.565 19.302C247.452 19.1894 247.3 19.0984 247.11 19.029C246.928 18.951 246.685 18.912 246.382 18.912C245.948 18.912 245.623 19.003 245.407 19.185C245.19 19.367 245.082 19.5967 245.082 19.874C245.082 20.0387 245.129 20.186 245.225 20.316C245.32 20.446 245.502 20.563 245.771 20.667C246.039 20.771 246.438 20.8837 246.967 21.005C247.539 21.1177 247.989 21.2694 248.319 21.46C248.648 21.6507 248.882 21.8717 249.021 22.123C249.159 22.3744 249.229 22.6647 249.229 22.994C249.229 23.358 249.12 23.6917 248.904 23.995C248.696 24.2984 248.384 24.541 247.968 24.723C247.56 24.8964 247.053 24.983 246.447 24.983ZM256.28 24.853C255.794 24.853 255.4 24.762 255.097 24.58C254.793 24.3894 254.572 24.125 254.434 23.787C254.295 23.4404 254.226 23.033 254.226 22.565V19.133H253.212C253.125 19.133 253.051 19.107 252.991 19.055C252.939 18.9944 252.913 18.9207 252.913 18.834V18.392C252.913 18.3054 252.939 18.236 252.991 18.184C253.051 18.1234 253.125 18.093 253.212 18.093H254.226V15.922C254.226 15.8354 254.252 15.766 254.304 15.714C254.364 15.6534 254.438 15.623 254.525 15.623H255.136C255.222 15.623 255.292 15.6534 255.344 15.714C255.404 15.766 255.435 15.8354 255.435 15.922V18.093H257.047C257.133 18.093 257.203 18.1234 257.255 18.184C257.315 18.236 257.346 18.3054 257.346 18.392V18.834C257.346 18.9207 257.315 18.9944 257.255 19.055C257.203 19.107 257.133 19.133 257.047 19.133H255.435V22.474C255.435 22.8814 255.504 23.202 255.643 23.436C255.781 23.67 256.028 23.787 256.384 23.787H257.177C257.263 23.787 257.333 23.8174 257.385 23.878C257.445 23.93 257.476 23.9994 257.476 24.086V24.554C257.476 24.6407 257.445 24.7144 257.385 24.775C257.333 24.827 257.263 24.853 257.177 24.853H256.28ZM260.604 24.983C260.171 24.983 259.776 24.8964 259.421 24.723C259.066 24.5497 258.78 24.3157 258.563 24.021C258.346 23.7264 258.238 23.3927 258.238 23.02C258.238 22.422 258.481 21.9454 258.966 21.59C259.451 21.2347 260.084 21.0007 260.864 20.888L262.801 20.615V20.238C262.801 19.822 262.68 19.497 262.437 19.263C262.203 19.029 261.817 18.912 261.28 18.912C260.89 18.912 260.574 18.99 260.331 19.146C260.097 19.302 259.932 19.5014 259.837 19.744C259.785 19.874 259.694 19.939 259.564 19.939H258.979C258.884 19.939 258.81 19.913 258.758 19.861C258.715 19.8004 258.693 19.731 258.693 19.653C258.693 19.523 258.741 19.3627 258.836 19.172C258.94 18.9814 259.096 18.795 259.304 18.613C259.512 18.431 259.776 18.2794 260.097 18.158C260.426 18.028 260.825 17.963 261.293 17.963C261.813 17.963 262.251 18.0324 262.606 18.171C262.961 18.301 263.239 18.4787 263.438 18.704C263.646 18.9294 263.793 19.185 263.88 19.471C263.975 19.757 264.023 20.0474 264.023 20.342V24.554C264.023 24.6407 263.993 24.7144 263.932 24.775C263.88 24.827 263.811 24.853 263.724 24.853H263.126C263.031 24.853 262.957 24.827 262.905 24.775C262.853 24.7144 262.827 24.6407 262.827 24.554V23.995C262.714 24.151 262.563 24.307 262.372 24.463C262.181 24.6104 261.943 24.736 261.657 24.84C261.371 24.9354 261.02 24.983 260.604 24.983ZM260.877 24.008C261.232 24.008 261.557 23.9344 261.852 23.787C262.147 23.631 262.376 23.3927 262.541 23.072C262.714 22.7514 262.801 22.3484 262.801 21.863V21.499L261.293 21.72C260.678 21.8067 260.214 21.954 259.902 22.162C259.59 22.3614 259.434 22.617 259.434 22.929C259.434 23.1717 259.503 23.3754 259.642 23.54C259.789 23.696 259.971 23.813 260.188 23.891C260.413 23.969 260.643 24.008 260.877 24.008ZM269.233 24.983C268.713 24.983 268.279 24.892 267.933 24.71C267.586 24.5194 267.309 24.2854 267.101 24.008V24.554C267.101 24.6407 267.07 24.7144 267.01 24.775C266.958 24.827 266.888 24.853 266.802 24.853H266.204C266.117 24.853 266.043 24.827 265.983 24.775C265.931 24.7144 265.905 24.6407 265.905 24.554V15.922C265.905 15.8354 265.931 15.766 265.983 15.714C266.043 15.6534 266.117 15.623 266.204 15.623H266.828C266.923 15.623 266.997 15.6534 267.049 15.714C267.101 15.766 267.127 15.8354 267.127 15.922V18.912C267.343 18.6434 267.621 18.418 267.959 18.236C268.305 18.054 268.73 17.963 269.233 17.963C269.718 17.963 270.13 18.0497 270.468 18.223C270.814 18.3877 271.096 18.6174 271.313 18.912C271.538 19.2067 271.707 19.5404 271.82 19.913C271.932 20.2857 271.993 20.6757 272.002 21.083C272.01 21.2217 272.015 21.3517 272.015 21.473C272.015 21.5944 272.01 21.7244 272.002 21.863C271.993 22.279 271.932 22.6734 271.82 23.046C271.707 23.4187 271.538 23.7524 271.313 24.047C271.096 24.333 270.814 24.5627 270.468 24.736C270.13 24.9007 269.718 24.983 269.233 24.983ZM268.96 23.93C269.41 23.93 269.761 23.8347 270.013 23.644C270.273 23.4447 270.459 23.189 270.572 22.877C270.684 22.5564 270.749 22.214 270.767 21.85C270.775 21.5987 270.775 21.3474 270.767 21.096C270.749 20.732 270.684 20.394 270.572 20.082C270.459 19.7614 270.273 19.5057 270.013 19.315C269.761 19.1157 269.41 19.016 268.96 19.016C268.552 19.016 268.214 19.1114 267.946 19.302C267.677 19.4927 267.473 19.7354 267.335 20.03C267.205 20.3247 267.135 20.6237 267.127 20.927C267.118 21.0657 267.114 21.2347 267.114 21.434C267.114 21.6247 267.118 21.7894 267.127 21.928C267.144 22.2487 267.213 22.565 267.335 22.877C267.465 23.1804 267.66 23.4317 267.92 23.631C268.188 23.8304 268.535 23.93 268.96 23.93Z" fill="white"/>
</svg>
