<svg width="331" height="20" viewBox="0 0 331 20" fill="none" xmlns="http://www.w3.org/2000/svg">
<circle cx="10" cy="10" r="10" fill="#7209B7"/>
<path d="M8.36641 14.0001L4.56641 10.2001L5.51641 9.25007L8.36641 12.1001L14.4831 5.9834L15.4331 6.9334L8.36641 14.0001Z" fill="#FFFEFF"/>
<path d="M26.78 8.293C26.7887 7.80767 26.871 7.35267 27.027 6.928C27.1917 6.49467 27.4257 6.122 27.729 5.81C28.0323 5.48933 28.405 5.238 28.847 5.056C29.289 4.86533 29.796 4.77 30.368 4.77C30.94 4.77 31.447 4.86533 31.889 5.056C32.331 5.238 32.7037 5.48933 33.007 5.81C33.3103 6.122 33.54 6.49467 33.696 6.928C33.8607 7.35267 33.9473 7.80767 33.956 8.293C33.982 9.06433 33.982 9.83567 33.956 10.607C33.9387 11.101 33.8433 11.5647 33.67 11.998C33.5053 12.4313 33.267 12.8083 32.955 13.129L33.917 14.442C33.9257 14.4593 33.9343 14.4767 33.943 14.494C33.9517 14.52 33.956 14.546 33.956 14.572C33.956 14.65 33.93 14.715 33.878 14.767C33.8347 14.819 33.774 14.845 33.696 14.845H33.085C32.9203 14.845 32.799 14.806 32.721 14.728C32.643 14.6587 32.5823 14.598 32.539 14.546L31.993 13.805C31.5163 14.0217 30.9747 14.13 30.368 14.13C29.796 14.13 29.289 14.039 28.847 13.857C28.4137 13.675 28.0453 13.4237 27.742 13.103C27.4387 12.7823 27.2047 12.4097 27.04 11.985C26.884 11.5517 26.7973 11.0923 26.78 10.607C26.754 9.83567 26.754 9.06433 26.78 8.293ZM32.721 8.358C32.7037 7.95067 32.6343 7.59533 32.513 7.292C32.4003 6.98867 32.24 6.73733 32.032 6.538C31.824 6.33867 31.577 6.19133 31.291 6.096C31.0137 5.992 30.706 5.94 30.368 5.94C30.03 5.94 29.718 5.992 29.432 6.096C29.1547 6.19133 28.912 6.33867 28.704 6.538C28.496 6.73733 28.3313 6.98867 28.21 7.292C28.0887 7.59533 28.0237 7.95067 28.015 8.358C27.9977 8.748 27.989 9.112 27.989 9.45C27.989 9.788 27.9977 10.152 28.015 10.542C28.0237 10.9493 28.0887 11.3047 28.21 11.608C28.3313 11.9113 28.496 12.1627 28.704 12.362C28.912 12.5613 29.1547 12.713 29.432 12.817C29.718 12.9123 30.03 12.96 30.368 12.96C30.706 12.96 31.0137 12.9123 31.291 12.817C31.577 12.713 31.824 12.5613 32.032 12.362C32.24 12.1627 32.4003 11.9113 32.513 11.608C32.6343 11.3047 32.7037 10.9493 32.721 10.542C32.7383 10.152 32.747 9.788 32.747 9.45C32.747 9.112 32.7383 8.748 32.721 8.358ZM35.6444 7.591C35.6444 7.49567 35.679 7.41333 35.7484 7.344C35.8177 7.27467 35.9 7.24 35.9954 7.24H36.4764C36.5717 7.24 36.654 7.27467 36.7234 7.344C36.7927 7.41333 36.8274 7.49567 36.8274 7.591V11.023C36.8274 11.6903 36.9747 12.1887 37.2694 12.518C37.5727 12.8473 38.0104 13.012 38.5824 13.012C39.1284 13.012 39.5574 12.8473 39.8694 12.518C40.1814 12.1887 40.3374 11.6903 40.3374 11.023V7.591C40.3374 7.49567 40.372 7.41333 40.4414 7.344C40.5107 7.27467 40.593 7.24 40.6884 7.24H41.1694C41.2647 7.24 41.347 7.27467 41.4164 7.344C41.4857 7.41333 41.5204 7.49567 41.5204 7.591V13.649C41.5204 13.7443 41.4857 13.8267 41.4164 13.896C41.347 13.9653 41.2647 14 41.1694 14H40.6884C40.593 14 40.5107 13.9653 40.4414 13.896C40.372 13.8267 40.3374 13.7443 40.3374 13.649V13.246C40.1727 13.4627 39.9387 13.6663 39.6354 13.857C39.332 14.039 38.916 14.13 38.3874 14.13C37.98 14.13 37.6074 14.065 37.2694 13.935C36.9314 13.7963 36.641 13.6057 36.3984 13.363C36.1557 13.1117 35.9694 12.8083 35.8394 12.453C35.7094 12.089 35.6444 11.6773 35.6444 11.218V7.591ZM44.6492 13.649C44.6492 13.7443 44.6145 13.8267 44.5452 13.896C44.4759 13.9653 44.3935 14 44.2982 14H43.8172C43.7219 14 43.6395 13.9653 43.5702 13.896C43.5009 13.8267 43.4662 13.7443 43.4662 13.649V7.591C43.4662 7.49567 43.5009 7.41333 43.5702 7.344C43.6395 7.27467 43.7219 7.24 43.8172 7.24H44.2982C44.3935 7.24 44.4759 7.27467 44.5452 7.344C44.6145 7.41333 44.6492 7.49567 44.6492 7.591V13.649ZM44.7792 5.862C44.7792 5.95733 44.7445 6.03967 44.6752 6.109C44.6059 6.17833 44.5235 6.213 44.4282 6.213H43.6872C43.5919 6.213 43.5095 6.17833 43.4402 6.109C43.3709 6.03967 43.3362 5.95733 43.3362 5.862V5.121C43.3362 5.02567 43.3709 4.94333 43.4402 4.874C43.5095 4.80467 43.5919 4.77 43.6872 4.77H44.4282C44.5235 4.77 44.6059 4.80467 44.6752 4.874C44.7445 4.94333 44.7792 5.02567 44.7792 5.121V5.862ZM51.438 12.882C51.5333 12.882 51.6156 12.9167 51.685 12.986C51.7543 13.0553 51.789 13.1377 51.789 13.233V13.649C51.789 13.7443 51.7543 13.8267 51.685 13.896C51.6156 13.9653 51.5333 14 51.438 14H46.524C46.4286 14 46.3463 13.9653 46.277 13.896C46.2076 13.8267 46.173 13.7443 46.173 13.649V13.142C46.173 13.0727 46.186 13.012 46.212 12.96C46.2466 12.8993 46.2943 12.8343 46.355 12.765L49.93 8.358H46.654C46.5586 8.358 46.4763 8.32333 46.407 8.254C46.3376 8.18467 46.303 8.10233 46.303 8.007V7.591C46.303 7.49567 46.3376 7.41333 46.407 7.344C46.4763 7.27467 46.5586 7.24 46.654 7.24H51.178C51.2733 7.24 51.3556 7.27467 51.425 7.344C51.4943 7.41333 51.529 7.49567 51.529 7.591V8.098C51.529 8.176 51.5073 8.241 51.464 8.293C51.4293 8.345 51.3903 8.40567 51.347 8.475L47.746 12.882H51.438ZM61.8447 4.9C61.94 4.9 62.0223 4.93467 62.0917 5.004C62.161 5.07333 62.1957 5.15567 62.1957 5.251V5.719C62.1957 5.81433 62.161 5.89667 62.0917 5.966C62.0223 6.03533 61.94 6.07 61.8447 6.07H59.4137V13.649C59.4137 13.7443 59.379 13.8267 59.3097 13.896C59.2403 13.9653 59.158 14 59.0627 14H58.5297C58.4343 14 58.352 13.9653 58.2827 13.896C58.2133 13.8267 58.1787 13.7443 58.1787 13.649V6.07H55.7477C55.6523 6.07 55.57 6.03533 55.5007 5.966C55.4313 5.89667 55.3967 5.81433 55.3967 5.719V5.251C55.3967 5.15567 55.4313 5.07333 55.5007 5.004C55.57 4.93467 55.6523 4.9 55.7477 4.9H61.8447ZM64.2062 16.158C64.1802 16.2273 64.1369 16.2967 64.0762 16.366C64.0155 16.4353 63.9332 16.47 63.8292 16.47H63.2962C63.2095 16.47 63.1359 16.4397 63.0752 16.379C63.0145 16.3183 62.9842 16.2447 62.9842 16.158C62.9842 16.1233 62.9885 16.093 62.9972 16.067L64.2452 13.35L61.6712 7.643C61.6625 7.617 61.6582 7.58667 61.6582 7.552C61.6582 7.46533 61.6885 7.39167 61.7492 7.331C61.8099 7.27033 61.8835 7.24 61.9702 7.24H62.5032C62.6072 7.24 62.6895 7.27467 62.7502 7.344C62.8109 7.41333 62.8542 7.48267 62.8802 7.552L64.8822 11.972L66.9102 7.552C66.9362 7.48267 66.9795 7.41333 67.0402 7.344C67.1009 7.27467 67.1832 7.24 67.2872 7.24H67.8202C67.9069 7.24 67.9805 7.27033 68.0412 7.331C68.1019 7.39167 68.1322 7.46533 68.1322 7.552C68.1322 7.58667 68.1279 7.617 68.1192 7.643L64.2062 16.158ZM72.6515 14.13C72.1142 14.13 71.6852 14.039 71.3645 13.857C71.0438 13.6663 70.8012 13.4627 70.6365 13.246V16.119C70.6365 16.2143 70.6018 16.2967 70.5325 16.366C70.4632 16.4353 70.3808 16.47 70.2855 16.47H69.8045C69.7092 16.47 69.6268 16.4353 69.5575 16.366C69.4882 16.2967 69.4535 16.2143 69.4535 16.119V7.591C69.4535 7.49567 69.4882 7.41333 69.5575 7.344C69.6268 7.27467 69.7092 7.24 69.8045 7.24H70.2855C70.3808 7.24 70.4632 7.27467 70.5325 7.344C70.6018 7.41333 70.6365 7.49567 70.6365 7.591V7.994C70.8098 7.76 71.0568 7.55633 71.3775 7.383C71.6982 7.201 72.1228 7.11 72.6515 7.11C73.0588 7.11 73.4358 7.18367 73.7825 7.331C74.1378 7.46967 74.4455 7.67333 74.7055 7.942C74.9655 8.21067 75.1735 8.53567 75.3295 8.917C75.4855 9.29833 75.5765 9.72733 75.6025 10.204C75.6112 10.334 75.6155 10.477 75.6155 10.633C75.6155 10.7803 75.6112 10.919 75.6025 11.049C75.5765 11.5257 75.4855 11.9547 75.3295 12.336C75.1735 12.7173 74.9655 13.0423 74.7055 13.311C74.4455 13.571 74.1378 13.7747 73.7825 13.922C73.4358 14.0607 73.0588 14.13 72.6515 14.13ZM70.6365 10.061C70.6278 10.191 70.6235 10.3643 70.6235 10.581C70.6235 10.789 70.6278 10.958 70.6365 11.088C70.6625 11.7033 70.8445 12.18 71.1825 12.518C71.5292 12.8473 71.9755 13.012 72.5215 13.012C73.0935 13.012 73.5442 12.83 73.8735 12.466C74.2028 12.102 74.3848 11.608 74.4195 10.984C74.4282 10.7413 74.4282 10.4987 74.4195 10.256C74.3848 9.632 74.2028 9.138 73.8735 8.774C73.5442 8.41 73.0935 8.228 72.5215 8.228C71.9842 8.228 71.5422 8.39267 71.1955 8.722C70.8488 9.05133 70.6625 9.49767 70.6365 10.061ZM76.911 9.97C76.9457 9.57133 77.041 9.19867 77.197 8.852C77.353 8.50533 77.5567 8.202 77.808 7.942C78.0594 7.682 78.3584 7.47833 78.705 7.331C79.0604 7.18367 79.4547 7.11 79.888 7.11C80.356 7.11 80.772 7.188 81.136 7.344C81.5087 7.49133 81.825 7.708 82.085 7.994C82.345 8.28 82.5444 8.62667 82.683 9.034C82.8217 9.44133 82.891 9.89633 82.891 10.399V10.75C82.891 10.8453 82.8564 10.9277 82.787 10.997C82.7177 11.0663 82.6354 11.101 82.54 11.101H78.068V11.179C78.0854 11.7683 78.263 12.2233 78.601 12.544C78.9477 12.856 79.3767 13.012 79.888 13.012C80.3647 13.012 80.72 12.947 80.954 12.817C81.1967 12.6783 81.3917 12.5267 81.539 12.362C81.6084 12.2927 81.669 12.245 81.721 12.219C81.773 12.193 81.851 12.18 81.955 12.18H82.345C82.4404 12.18 82.527 12.2147 82.605 12.284C82.683 12.3533 82.7134 12.4357 82.696 12.531C82.67 12.687 82.5964 12.8603 82.475 13.051C82.3537 13.233 82.176 13.4063 81.942 13.571C81.7167 13.727 81.4307 13.8613 81.084 13.974C80.746 14.078 80.3474 14.13 79.888 14.13C79.4547 14.13 79.0647 14.0563 78.718 13.909C78.3714 13.753 78.068 13.545 77.808 13.285C77.5567 13.0163 77.353 12.7043 77.197 12.349C77.041 11.985 76.9457 11.5907 76.911 11.166C76.8677 10.7673 76.8677 10.3687 76.911 9.97ZM78.068 10.009H81.721V9.97C81.721 9.44133 81.552 9.021 81.214 8.709C80.8847 8.38833 80.4427 8.228 79.888 8.228C79.6367 8.228 79.4027 8.27133 79.186 8.358C78.9694 8.436 78.7787 8.553 78.614 8.709C78.4494 8.85633 78.3194 9.03833 78.224 9.255C78.1287 9.47167 78.0767 9.71 78.068 9.97V10.009Z" fill="black"/>
<circle cx="126" cy="10" r="10" fill="#7209B7"/>
<path d="M124.366 14.0001L120.566 10.2001L121.516 9.25007L124.366 12.1001L130.483 5.9834L131.433 6.9334L124.366 14.0001Z" fill="#FFFEFF"/>
<path d="M150.177 8.423C150.186 8.813 150.19 9.15533 150.19 9.45C150.19 9.74467 150.186 10.087 150.177 10.477C150.168 11.023 150.073 11.517 149.891 11.959C149.709 12.3923 149.458 12.7607 149.137 13.064C148.816 13.3673 148.435 13.6013 147.993 13.766C147.551 13.922 147.061 14 146.524 14H143.469C143.374 14 143.291 13.9653 143.222 13.896C143.153 13.8267 143.118 13.7443 143.118 13.649V5.251C143.118 5.15567 143.153 5.07333 143.222 5.004C143.291 4.93467 143.374 4.9 143.469 4.9H146.446C146.983 4.9 147.477 4.98233 147.928 5.147C148.387 5.303 148.782 5.53267 149.111 5.836C149.44 6.13933 149.696 6.512 149.878 6.954C150.069 7.38733 150.168 7.877 150.177 8.423ZM148.942 8.488C148.933 8.176 148.881 7.877 148.786 7.591C148.699 7.29633 148.556 7.03633 148.357 6.811C148.158 6.58567 147.898 6.408 147.577 6.278C147.256 6.13933 146.862 6.07 146.394 6.07H144.353V12.83H146.459C146.927 12.83 147.317 12.765 147.629 12.635C147.95 12.4963 148.205 12.3143 148.396 12.089C148.587 11.8637 148.721 11.608 148.799 11.322C148.886 11.0273 148.933 10.724 148.942 10.412C148.942 10.2213 148.942 10.0523 148.942 9.905C148.951 9.749 148.955 9.60167 148.955 9.463C148.955 9.31567 148.951 9.16833 148.942 9.021C148.942 8.865 148.942 8.68733 148.942 8.488ZM151.613 9.97C151.648 9.57133 151.743 9.19867 151.899 8.852C152.055 8.50533 152.259 8.202 152.51 7.942C152.762 7.682 153.061 7.47833 153.407 7.331C153.763 7.18367 154.157 7.11 154.59 7.11C155.058 7.11 155.474 7.188 155.838 7.344C156.211 7.49133 156.527 7.708 156.787 7.994C157.047 8.28 157.247 8.62667 157.385 9.034C157.524 9.44133 157.593 9.89633 157.593 10.399V10.75C157.593 10.8453 157.559 10.9277 157.489 10.997C157.42 11.0663 157.338 11.101 157.242 11.101H152.77V11.179C152.788 11.7683 152.965 12.2233 153.303 12.544C153.65 12.856 154.079 13.012 154.59 13.012C155.067 13.012 155.422 12.947 155.656 12.817C155.899 12.6783 156.094 12.5267 156.241 12.362C156.311 12.2927 156.371 12.245 156.423 12.219C156.475 12.193 156.553 12.18 156.657 12.18H157.047C157.143 12.18 157.229 12.2147 157.307 12.284C157.385 12.3533 157.416 12.4357 157.398 12.531C157.372 12.687 157.299 12.8603 157.177 13.051C157.056 13.233 156.878 13.4063 156.644 13.571C156.419 13.727 156.133 13.8613 155.786 13.974C155.448 14.078 155.05 14.13 154.59 14.13C154.157 14.13 153.767 14.0563 153.42 13.909C153.074 13.753 152.77 13.545 152.51 13.285C152.259 13.0163 152.055 12.7043 151.899 12.349C151.743 11.985 151.648 11.5907 151.613 11.166C151.57 10.7673 151.57 10.3687 151.613 9.97ZM152.77 10.009H156.423V9.97C156.423 9.44133 156.254 9.021 155.916 8.709C155.587 8.38833 155.145 8.228 154.59 8.228C154.339 8.228 154.105 8.27133 153.888 8.358C153.672 8.436 153.481 8.553 153.316 8.709C153.152 8.85633 153.022 9.03833 152.926 9.255C152.831 9.47167 152.779 9.71 152.77 9.97V10.009ZM163.01 12.128C163.01 11.9633 162.962 11.829 162.867 11.725C162.78 11.6123 162.646 11.517 162.464 11.439C162.282 11.361 162.048 11.2873 161.762 11.218C161.484 11.1487 161.159 11.075 160.787 10.997C160.085 10.8497 159.591 10.607 159.305 10.269C159.027 9.92233 158.889 9.51933 158.889 9.06C158.889 8.8 158.941 8.553 159.045 8.319C159.149 8.085 159.305 7.877 159.513 7.695C159.721 7.513 159.981 7.37 160.293 7.266C160.613 7.162 160.986 7.11 161.411 7.11C161.835 7.11 162.204 7.15767 162.516 7.253C162.836 7.34833 163.105 7.46967 163.322 7.617C163.538 7.76433 163.703 7.92467 163.816 8.098C163.928 8.26267 163.989 8.423 163.998 8.579C164.006 8.67433 163.972 8.75667 163.894 8.826C163.824 8.89533 163.742 8.93 163.647 8.93H163.218C163.166 8.93 163.101 8.92133 163.023 8.904C162.953 8.878 162.888 8.826 162.828 8.748C162.715 8.60067 162.546 8.47933 162.321 8.384C162.104 8.28 161.801 8.228 161.411 8.228C161.012 8.228 160.687 8.30167 160.436 8.449C160.193 8.59633 160.072 8.8 160.072 9.06C160.072 9.22467 160.106 9.359 160.176 9.463C160.245 9.55833 160.358 9.645 160.514 9.723C160.67 9.79233 160.873 9.85733 161.125 9.918C161.385 9.97867 161.705 10.0523 162.087 10.139C162.485 10.2257 162.819 10.3383 163.088 10.477C163.356 10.607 163.573 10.7587 163.738 10.932C163.902 11.0967 164.019 11.283 164.089 11.491C164.158 11.6903 164.193 11.9027 164.193 12.128C164.193 12.388 164.128 12.6393 163.998 12.882C163.876 13.1247 163.699 13.337 163.465 13.519C163.231 13.701 162.945 13.8483 162.607 13.961C162.277 14.0737 161.9 14.13 161.476 14.13C161.051 14.13 160.674 14.078 160.345 13.974C160.015 13.87 159.734 13.7443 159.5 13.597C159.266 13.441 159.084 13.2763 158.954 13.103C158.832 12.921 158.767 12.752 158.759 12.596C158.75 12.5007 158.78 12.4183 158.85 12.349C158.919 12.2797 159.006 12.245 159.11 12.245H159.578C159.63 12.245 159.69 12.2537 159.76 12.271C159.829 12.2797 159.894 12.3273 159.955 12.414C160.093 12.6047 160.284 12.752 160.527 12.856C160.769 12.96 161.086 13.012 161.476 13.012C161.666 13.012 161.853 12.9903 162.035 12.947C162.225 12.9037 162.39 12.843 162.529 12.765C162.676 12.687 162.793 12.596 162.88 12.492C162.966 12.3793 163.01 12.258 163.01 12.128ZM166.609 11.075C166.643 11.4217 166.717 11.7163 166.83 11.959C166.951 12.2017 167.094 12.401 167.259 12.557C167.432 12.713 167.623 12.83 167.831 12.908C168.039 12.9773 168.251 13.012 168.468 13.012C168.884 13.012 169.239 12.934 169.534 12.778C169.828 12.622 170.058 12.362 170.223 11.998C170.283 11.8593 170.344 11.7683 170.405 11.725C170.474 11.673 170.556 11.647 170.652 11.647H171.042C171.137 11.647 171.219 11.6817 171.289 11.751C171.367 11.8203 171.401 11.9027 171.393 11.998C171.384 12.206 171.315 12.4357 171.185 12.687C171.063 12.9297 170.877 13.1593 170.626 13.376C170.383 13.584 170.08 13.7617 169.716 13.909C169.36 14.0563 168.944 14.13 168.468 14.13C167.991 14.13 167.566 14.052 167.194 13.896C166.83 13.74 166.518 13.5277 166.258 13.259C166.006 12.9903 165.807 12.674 165.66 12.31C165.521 11.946 165.443 11.556 165.426 11.14C165.417 11.0013 165.408 10.8323 165.4 10.633C165.4 10.425 165.408 10.2473 165.426 10.1C165.46 9.684 165.547 9.294 165.686 8.93C165.833 8.566 166.032 8.24967 166.284 7.981C166.535 7.71233 166.843 7.5 167.207 7.344C167.571 7.188 167.991 7.11 168.468 7.11C168.944 7.11 169.36 7.18367 169.716 7.331C170.08 7.47833 170.383 7.66033 170.626 7.877C170.877 8.085 171.063 8.31467 171.185 8.566C171.315 8.80867 171.384 9.034 171.393 9.242C171.401 9.33733 171.367 9.41967 171.289 9.489C171.219 9.55833 171.137 9.593 171.042 9.593H170.652C170.556 9.593 170.474 9.57133 170.405 9.528C170.344 9.476 170.283 9.38067 170.223 9.242C170.058 8.878 169.828 8.618 169.534 8.462C169.239 8.306 168.884 8.228 168.468 8.228C168.251 8.228 168.034 8.267 167.818 8.345C167.61 8.41433 167.419 8.527 167.246 8.683C167.081 8.839 166.938 9.03833 166.817 9.281C166.704 9.52367 166.635 9.81833 166.609 10.165C166.583 10.4857 166.583 10.789 166.609 11.075ZM176.381 7.24C176.476 7.24 176.558 7.27467 176.628 7.344C176.697 7.41333 176.732 7.49567 176.732 7.591V8.007C176.732 8.10233 176.697 8.18467 176.628 8.254C176.558 8.32333 176.476 8.358 176.381 8.358H175.627C174.63 8.358 174.132 8.85633 174.132 9.853V13.649C174.132 13.7443 174.097 13.8267 174.028 13.896C173.958 13.9653 173.876 14 173.781 14H173.3C173.204 14 173.122 13.9653 173.053 13.896C172.983 13.8267 172.949 13.7443 172.949 13.649V7.591C172.949 7.49567 172.983 7.41333 173.053 7.344C173.122 7.27467 173.204 7.24 173.3 7.24H173.781C173.876 7.24 173.958 7.27467 174.028 7.344C174.097 7.41333 174.132 7.49567 174.132 7.591V7.994C174.305 7.734 174.513 7.54333 174.756 7.422C174.998 7.30067 175.315 7.24 175.705 7.24H176.381ZM179.045 13.649C179.045 13.7443 179.01 13.8267 178.941 13.896C178.871 13.9653 178.789 14 178.694 14H178.213C178.117 14 178.035 13.9653 177.966 13.896C177.896 13.8267 177.862 13.7443 177.862 13.649V7.591C177.862 7.49567 177.896 7.41333 177.966 7.344C178.035 7.27467 178.117 7.24 178.213 7.24H178.694C178.789 7.24 178.871 7.27467 178.941 7.344C179.01 7.41333 179.045 7.49567 179.045 7.591V13.649ZM179.175 5.862C179.175 5.95733 179.14 6.03967 179.071 6.109C179.001 6.17833 178.919 6.213 178.824 6.213H178.083C177.987 6.213 177.905 6.17833 177.836 6.109C177.766 6.03967 177.732 5.95733 177.732 5.862V5.121C177.732 5.02567 177.766 4.94333 177.836 4.874C177.905 4.80467 177.987 4.77 178.083 4.77H178.824C178.919 4.77 179.001 4.80467 179.071 4.874C179.14 4.94333 179.175 5.02567 179.175 5.121V5.862ZM184.195 14.13C183.658 14.13 183.229 14.039 182.908 13.857C182.588 13.6663 182.345 13.4627 182.18 13.246V16.119C182.18 16.2143 182.146 16.2967 182.076 16.366C182.007 16.4353 181.925 16.47 181.829 16.47H181.348C181.253 16.47 181.171 16.4353 181.101 16.366C181.032 16.2967 180.997 16.2143 180.997 16.119V7.591C180.997 7.49567 181.032 7.41333 181.101 7.344C181.171 7.27467 181.253 7.24 181.348 7.24H181.829C181.925 7.24 182.007 7.27467 182.076 7.344C182.146 7.41333 182.18 7.49567 182.18 7.591V7.994C182.354 7.76 182.601 7.55633 182.921 7.383C183.242 7.201 183.667 7.11 184.195 7.11C184.603 7.11 184.98 7.18367 185.326 7.331C185.682 7.46967 185.989 7.67333 186.249 7.942C186.509 8.21067 186.717 8.53567 186.873 8.917C187.029 9.29833 187.12 9.72733 187.146 10.204C187.155 10.334 187.159 10.477 187.159 10.633C187.159 10.7803 187.155 10.919 187.146 11.049C187.12 11.5257 187.029 11.9547 186.873 12.336C186.717 12.7173 186.509 13.0423 186.249 13.311C185.989 13.571 185.682 13.7747 185.326 13.922C184.98 14.0607 184.603 14.13 184.195 14.13ZM182.18 10.061C182.172 10.191 182.167 10.3643 182.167 10.581C182.167 10.789 182.172 10.958 182.18 11.088C182.206 11.7033 182.388 12.18 182.726 12.518C183.073 12.8473 183.519 13.012 184.065 13.012C184.637 13.012 185.088 12.83 185.417 12.466C185.747 12.102 185.929 11.608 185.963 10.984C185.972 10.7413 185.972 10.4987 185.963 10.256C185.929 9.632 185.747 9.138 185.417 8.774C185.088 8.41 184.637 8.228 184.065 8.228C183.528 8.228 183.086 8.39267 182.739 8.722C182.393 9.05133 182.206 9.49767 182.18 10.061ZM190.446 11.725C190.446 11.8897 190.459 12.0457 190.485 12.193C190.52 12.3317 190.576 12.453 190.654 12.557C190.732 12.661 190.84 12.7433 190.979 12.804C191.126 12.856 191.313 12.882 191.538 12.882H192.227C192.322 12.882 192.405 12.9167 192.474 12.986C192.543 13.0553 192.578 13.1377 192.578 13.233V13.649C192.578 13.7443 192.543 13.8267 192.474 13.896C192.405 13.9653 192.322 14 192.227 14H191.408C190.654 14 190.108 13.805 189.77 13.415C189.432 13.025 189.263 12.4617 189.263 11.725V8.358H188.301C188.206 8.358 188.123 8.32333 188.054 8.254C187.985 8.18467 187.95 8.10233 187.95 8.007V7.591C187.95 7.49567 187.985 7.41333 188.054 7.344C188.123 7.27467 188.206 7.24 188.301 7.24H189.263V5.121C189.263 5.02567 189.298 4.94333 189.367 4.874C189.436 4.80467 189.519 4.77 189.614 4.77H190.095C190.19 4.77 190.273 4.80467 190.342 4.874C190.411 4.94333 190.446 5.02567 190.446 5.121V7.24H192.097C192.192 7.24 192.275 7.27467 192.344 7.344C192.413 7.41333 192.448 7.49567 192.448 7.591V8.007C192.448 8.10233 192.413 8.18467 192.344 8.254C192.275 8.32333 192.192 8.358 192.097 8.358H190.446V11.725ZM195.066 13.649C195.066 13.7443 195.032 13.8267 194.962 13.896C194.893 13.9653 194.811 14 194.715 14H194.234C194.139 14 194.057 13.9653 193.987 13.896C193.918 13.8267 193.883 13.7443 193.883 13.649V7.591C193.883 7.49567 193.918 7.41333 193.987 7.344C194.057 7.27467 194.139 7.24 194.234 7.24H194.715C194.811 7.24 194.893 7.27467 194.962 7.344C195.032 7.41333 195.066 7.49567 195.066 7.591V13.649ZM195.196 5.862C195.196 5.95733 195.162 6.03967 195.092 6.109C195.023 6.17833 194.941 6.213 194.845 6.213H194.104C194.009 6.213 193.927 6.17833 193.857 6.109C193.788 6.03967 193.753 5.95733 193.753 5.862V5.121C193.753 5.02567 193.788 4.94333 193.857 4.874C193.927 4.80467 194.009 4.77 194.104 4.77H194.845C194.941 4.77 195.023 4.80467 195.092 4.874C195.162 4.94333 195.196 5.02567 195.196 5.121V5.862ZM199.788 7.11C200.256 7.11 200.672 7.18367 201.036 7.331C201.4 7.46967 201.712 7.66467 201.972 7.916C202.232 8.16733 202.436 8.475 202.583 8.839C202.739 9.19433 202.834 9.58433 202.869 10.009C202.878 10.087 202.882 10.1823 202.882 10.295C202.882 10.399 202.882 10.5117 202.882 10.633C202.882 10.7457 202.882 10.8583 202.882 10.971C202.882 11.075 202.878 11.1617 202.869 11.231C202.826 11.6643 202.73 12.0587 202.583 12.414C202.436 12.7693 202.232 13.0727 201.972 13.324C201.712 13.5753 201.4 13.7747 201.036 13.922C200.672 14.0607 200.256 14.13 199.788 14.13C199.32 14.13 198.904 14.0607 198.54 13.922C198.176 13.7747 197.864 13.5753 197.604 13.324C197.344 13.0727 197.136 12.7693 196.98 12.414C196.833 12.0587 196.742 11.6643 196.707 11.231C196.698 11.1617 196.69 11.075 196.681 10.971C196.681 10.8583 196.681 10.7457 196.681 10.633C196.681 10.5117 196.681 10.399 196.681 10.295C196.69 10.1823 196.698 10.087 196.707 10.009C196.742 9.58433 196.833 9.19433 196.98 8.839C197.136 8.475 197.344 8.16733 197.604 7.916C197.864 7.66467 198.176 7.46967 198.54 7.331C198.904 7.18367 199.32 7.11 199.788 7.11ZM201.686 11.166C201.703 11.0187 201.712 10.841 201.712 10.633C201.712 10.4163 201.703 10.23 201.686 10.074C201.66 9.814 201.604 9.57133 201.517 9.346C201.43 9.12067 201.309 8.92567 201.153 8.761C200.997 8.59633 200.806 8.46633 200.581 8.371C200.356 8.27567 200.091 8.228 199.788 8.228C199.485 8.228 199.22 8.27567 198.995 8.371C198.77 8.46633 198.579 8.59633 198.423 8.761C198.267 8.92567 198.146 9.12067 198.059 9.346C197.972 9.57133 197.916 9.814 197.89 10.074C197.873 10.23 197.864 10.4163 197.864 10.633C197.864 10.841 197.873 11.0187 197.89 11.166C197.916 11.426 197.972 11.6687 198.059 11.894C198.146 12.1193 198.267 12.3143 198.423 12.479C198.579 12.6437 198.77 12.7737 198.995 12.869C199.22 12.9643 199.485 13.012 199.788 13.012C200.091 13.012 200.356 12.9643 200.581 12.869C200.806 12.7737 200.997 12.6437 201.153 12.479C201.309 12.3143 201.43 12.1193 201.517 11.894C201.604 11.6687 201.66 11.426 201.686 11.166ZM210.528 13.649C210.528 13.7443 210.493 13.8267 210.424 13.896C210.355 13.9653 210.272 14 210.177 14H209.696C209.601 14 209.518 13.9653 209.449 13.896C209.38 13.8267 209.345 13.7443 209.345 13.649V10.217C209.345 9.54967 209.185 9.05133 208.864 8.722C208.543 8.39267 208.097 8.228 207.525 8.228C206.979 8.228 206.537 8.39267 206.199 8.722C205.87 9.05133 205.705 9.54967 205.705 10.217V13.649C205.705 13.7443 205.67 13.8267 205.601 13.896C205.532 13.9653 205.449 14 205.354 14H204.873C204.778 14 204.695 13.9653 204.626 13.896C204.557 13.8267 204.522 13.7443 204.522 13.649V7.591C204.522 7.49567 204.557 7.41333 204.626 7.344C204.695 7.27467 204.778 7.24 204.873 7.24H205.354C205.449 7.24 205.532 7.27467 205.601 7.344C205.67 7.41333 205.705 7.49567 205.705 7.591V7.994C205.87 7.77733 206.112 7.578 206.433 7.396C206.762 7.20533 207.191 7.11 207.72 7.11C208.127 7.11 208.504 7.17933 208.851 7.318C209.198 7.448 209.492 7.63867 209.735 7.89C209.986 8.13267 210.181 8.436 210.32 8.8C210.459 9.164 210.528 9.57133 210.528 10.022V13.649Z" fill="black"/>
<circle cx="254" cy="10" r="10" fill="#7209B7"/>
<path d="M251.755 11.803C251.798 11.9417 251.859 12.0803 251.937 12.219C252.015 12.3577 252.132 12.4833 252.288 12.596C252.444 12.7 252.648 12.7867 252.899 12.856C253.159 12.9253 253.493 12.96 253.9 12.96C254.169 12.96 254.424 12.9297 254.667 12.869C254.91 12.7997 255.122 12.6957 255.304 12.557C255.486 12.4183 255.629 12.2493 255.733 12.05C255.846 11.842 255.902 11.595 255.902 11.309C255.902 11.0317 255.85 10.7977 255.746 10.607C255.642 10.4077 255.499 10.2517 255.317 10.139C255.144 10.0177 254.936 9.931 254.693 9.879C254.45 9.827 254.186 9.801 253.9 9.801H252.821C252.726 9.801 252.643 9.76633 252.574 9.697C252.505 9.62767 252.47 9.54533 252.47 9.45V8.982C252.47 8.904 252.492 8.83467 252.535 8.774C252.587 8.70467 252.635 8.644 252.678 8.592L255.018 6.07H251.274C251.179 6.07 251.096 6.03533 251.027 5.966C250.958 5.89667 250.923 5.81433 250.923 5.719V5.251C250.923 5.15567 250.958 5.07333 251.027 5.004C251.096 4.93467 251.179 4.9 251.274 4.9H256.396C256.491 4.9 256.574 4.93467 256.643 5.004C256.712 5.07333 256.747 5.15567 256.747 5.251V5.719C256.747 5.797 256.725 5.875 256.682 5.953C256.639 6.02233 256.582 6.09167 256.513 6.161L254.212 8.644C254.645 8.65267 255.04 8.722 255.395 8.852C255.759 8.97333 256.067 9.151 256.318 9.385C256.578 9.61033 256.777 9.88767 256.916 10.217C257.063 10.5377 257.137 10.9017 257.137 11.309C257.137 11.751 257.05 12.1497 256.877 12.505C256.704 12.8517 256.47 13.1463 256.175 13.389C255.889 13.623 255.547 13.805 255.148 13.935C254.758 14.065 254.342 14.13 253.9 14.13C253.319 14.13 252.817 14.065 252.392 13.935C251.976 13.7963 251.629 13.6187 251.352 13.402C251.083 13.1767 250.88 12.9297 250.741 12.661C250.611 12.3837 250.542 12.102 250.533 11.816C250.533 11.738 250.559 11.673 250.611 11.621C250.672 11.5603 250.741 11.53 250.819 11.53H251.417C251.512 11.53 251.586 11.5603 251.638 11.621C251.699 11.673 251.738 11.7337 251.755 11.803Z" fill="white"/>
<path d="M270.78 8.293C270.789 7.80767 270.871 7.35267 271.027 6.928C271.192 6.49467 271.426 6.122 271.729 5.81C272.032 5.48933 272.405 5.238 272.847 5.056C273.289 4.86533 273.796 4.77 274.368 4.77C274.94 4.77 275.447 4.86533 275.889 5.056C276.331 5.238 276.704 5.48933 277.007 5.81C277.31 6.122 277.54 6.49467 277.696 6.928C277.861 7.35267 277.947 7.80767 277.956 8.293C277.982 9.06433 277.982 9.83567 277.956 10.607C277.939 11.101 277.843 11.5647 277.67 11.998C277.505 12.4313 277.267 12.8083 276.955 13.129L277.917 14.442C277.926 14.4593 277.934 14.4767 277.943 14.494C277.952 14.52 277.956 14.546 277.956 14.572C277.956 14.65 277.93 14.715 277.878 14.767C277.835 14.819 277.774 14.845 277.696 14.845H277.085C276.92 14.845 276.799 14.806 276.721 14.728C276.643 14.6587 276.582 14.598 276.539 14.546L275.993 13.805C275.516 14.0217 274.975 14.13 274.368 14.13C273.796 14.13 273.289 14.039 272.847 13.857C272.414 13.675 272.045 13.4237 271.742 13.103C271.439 12.7823 271.205 12.4097 271.04 11.985C270.884 11.5517 270.797 11.0923 270.78 10.607C270.754 9.83567 270.754 9.06433 270.78 8.293ZM276.721 8.358C276.704 7.95067 276.634 7.59533 276.513 7.292C276.4 6.98867 276.24 6.73733 276.032 6.538C275.824 6.33867 275.577 6.19133 275.291 6.096C275.014 5.992 274.706 5.94 274.368 5.94C274.03 5.94 273.718 5.992 273.432 6.096C273.155 6.19133 272.912 6.33867 272.704 6.538C272.496 6.73733 272.331 6.98867 272.21 7.292C272.089 7.59533 272.024 7.95067 272.015 8.358C271.998 8.748 271.989 9.112 271.989 9.45C271.989 9.788 271.998 10.152 272.015 10.542C272.024 10.9493 272.089 11.3047 272.21 11.608C272.331 11.9113 272.496 12.1627 272.704 12.362C272.912 12.5613 273.155 12.713 273.432 12.817C273.718 12.9123 274.03 12.96 274.368 12.96C274.706 12.96 275.014 12.9123 275.291 12.817C275.577 12.713 275.824 12.5613 276.032 12.362C276.24 12.1627 276.4 11.9113 276.513 11.608C276.634 11.3047 276.704 10.9493 276.721 10.542C276.738 10.152 276.747 9.788 276.747 9.45C276.747 9.112 276.738 8.748 276.721 8.358ZM279.644 7.591C279.644 7.49567 279.679 7.41333 279.748 7.344C279.818 7.27467 279.9 7.24 279.995 7.24H280.476C280.572 7.24 280.654 7.27467 280.723 7.344C280.793 7.41333 280.827 7.49567 280.827 7.591V11.023C280.827 11.6903 280.975 12.1887 281.269 12.518C281.573 12.8473 282.01 13.012 282.582 13.012C283.128 13.012 283.557 12.8473 283.869 12.518C284.181 12.1887 284.337 11.6903 284.337 11.023V7.591C284.337 7.49567 284.372 7.41333 284.441 7.344C284.511 7.27467 284.593 7.24 284.688 7.24H285.169C285.265 7.24 285.347 7.27467 285.416 7.344C285.486 7.41333 285.52 7.49567 285.52 7.591V13.649C285.52 13.7443 285.486 13.8267 285.416 13.896C285.347 13.9653 285.265 14 285.169 14H284.688C284.593 14 284.511 13.9653 284.441 13.896C284.372 13.8267 284.337 13.7443 284.337 13.649V13.246C284.173 13.4627 283.939 13.6663 283.635 13.857C283.332 14.039 282.916 14.13 282.387 14.13C281.98 14.13 281.607 14.065 281.269 13.935C280.931 13.7963 280.641 13.6057 280.398 13.363C280.156 13.1117 279.969 12.8083 279.839 12.453C279.709 12.089 279.644 11.6773 279.644 11.218V7.591ZM287.154 9.97C287.189 9.57133 287.284 9.19867 287.44 8.852C287.596 8.50533 287.8 8.202 288.051 7.942C288.303 7.682 288.602 7.47833 288.948 7.331C289.304 7.18367 289.698 7.11 290.131 7.11C290.599 7.11 291.015 7.188 291.379 7.344C291.752 7.49133 292.068 7.708 292.328 7.994C292.588 8.28 292.788 8.62667 292.926 9.034C293.065 9.44133 293.134 9.89633 293.134 10.399V10.75C293.134 10.8453 293.1 10.9277 293.03 10.997C292.961 11.0663 292.879 11.101 292.783 11.101H288.311V11.179C288.329 11.7683 288.506 12.2233 288.844 12.544C289.191 12.856 289.62 13.012 290.131 13.012C290.608 13.012 290.963 12.947 291.197 12.817C291.44 12.6783 291.635 12.5267 291.782 12.362C291.852 12.2927 291.912 12.245 291.964 12.219C292.016 12.193 292.094 12.18 292.198 12.18H292.588C292.684 12.18 292.77 12.2147 292.848 12.284C292.926 12.3533 292.957 12.4357 292.939 12.531C292.913 12.687 292.84 12.8603 292.718 13.051C292.597 13.233 292.419 13.4063 292.185 13.571C291.96 13.727 291.674 13.8613 291.327 13.974C290.989 14.078 290.591 14.13 290.131 14.13C289.698 14.13 289.308 14.0563 288.961 13.909C288.615 13.753 288.311 13.545 288.051 13.285C287.8 13.0163 287.596 12.7043 287.44 12.349C287.284 11.985 287.189 11.5907 287.154 11.166C287.111 10.7673 287.111 10.3687 287.154 9.97ZM288.311 10.009H291.964V9.97C291.964 9.44133 291.795 9.021 291.457 8.709C291.128 8.38833 290.686 8.228 290.131 8.228C289.88 8.228 289.646 8.27133 289.429 8.358C289.213 8.436 289.022 8.553 288.857 8.709C288.693 8.85633 288.563 9.03833 288.467 9.255C288.372 9.47167 288.32 9.71 288.311 9.97V10.009ZM298.551 12.128C298.551 11.9633 298.503 11.829 298.408 11.725C298.321 11.6123 298.187 11.517 298.005 11.439C297.823 11.361 297.589 11.2873 297.303 11.218C297.025 11.1487 296.7 11.075 296.328 10.997C295.626 10.8497 295.132 10.607 294.846 10.269C294.568 9.92233 294.43 9.51933 294.43 9.06C294.43 8.8 294.482 8.553 294.586 8.319C294.69 8.085 294.846 7.877 295.054 7.695C295.262 7.513 295.522 7.37 295.834 7.266C296.154 7.162 296.527 7.11 296.952 7.11C297.376 7.11 297.745 7.15767 298.057 7.253C298.377 7.34833 298.646 7.46967 298.863 7.617C299.079 7.76433 299.244 7.92467 299.357 8.098C299.469 8.26267 299.53 8.423 299.539 8.579C299.547 8.67433 299.513 8.75667 299.435 8.826C299.365 8.89533 299.283 8.93 299.188 8.93H298.759C298.707 8.93 298.642 8.92133 298.564 8.904C298.494 8.878 298.429 8.826 298.369 8.748C298.256 8.60067 298.087 8.47933 297.862 8.384C297.645 8.28 297.342 8.228 296.952 8.228C296.553 8.228 296.228 8.30167 295.977 8.449C295.734 8.59633 295.613 8.8 295.613 9.06C295.613 9.22467 295.647 9.359 295.717 9.463C295.786 9.55833 295.899 9.645 296.055 9.723C296.211 9.79233 296.414 9.85733 296.666 9.918C296.926 9.97867 297.246 10.0523 297.628 10.139C298.026 10.2257 298.36 10.3383 298.629 10.477C298.897 10.607 299.114 10.7587 299.279 10.932C299.443 11.0967 299.56 11.283 299.63 11.491C299.699 11.6903 299.734 11.9027 299.734 12.128C299.734 12.388 299.669 12.6393 299.539 12.882C299.417 13.1247 299.24 13.337 299.006 13.519C298.772 13.701 298.486 13.8483 298.148 13.961C297.818 14.0737 297.441 14.13 297.017 14.13C296.592 14.13 296.215 14.078 295.886 13.974C295.556 13.87 295.275 13.7443 295.041 13.597C294.807 13.441 294.625 13.2763 294.495 13.103C294.373 12.921 294.308 12.752 294.3 12.596C294.291 12.5007 294.321 12.4183 294.391 12.349C294.46 12.2797 294.547 12.245 294.651 12.245H295.119C295.171 12.245 295.231 12.2537 295.301 12.271C295.37 12.2797 295.435 12.3273 295.496 12.414C295.634 12.6047 295.825 12.752 296.068 12.856C296.31 12.96 296.627 13.012 297.017 13.012C297.207 13.012 297.394 12.9903 297.576 12.947C297.766 12.9037 297.931 12.843 298.07 12.765C298.217 12.687 298.334 12.596 298.421 12.492C298.507 12.3793 298.551 12.258 298.551 12.128ZM303.047 11.725C303.047 11.8897 303.06 12.0457 303.086 12.193C303.12 12.3317 303.177 12.453 303.255 12.557C303.333 12.661 303.441 12.7433 303.58 12.804C303.727 12.856 303.913 12.882 304.139 12.882H304.828C304.923 12.882 305.005 12.9167 305.075 12.986C305.144 13.0553 305.179 13.1377 305.179 13.233V13.649C305.179 13.7443 305.144 13.8267 305.075 13.896C305.005 13.9653 304.923 14 304.828 14H304.009C303.255 14 302.709 13.805 302.371 13.415C302.033 13.025 301.864 12.4617 301.864 11.725V8.358H300.902C300.806 8.358 300.724 8.32333 300.655 8.254C300.585 8.18467 300.551 8.10233 300.551 8.007V7.591C300.551 7.49567 300.585 7.41333 300.655 7.344C300.724 7.27467 300.806 7.24 300.902 7.24H301.864V5.121C301.864 5.02567 301.898 4.94333 301.968 4.874C302.037 4.80467 302.119 4.77 302.215 4.77H302.696C302.791 4.77 302.873 4.80467 302.943 4.874C303.012 4.94333 303.047 5.02567 303.047 5.121V7.24H304.698C304.793 7.24 304.875 7.27467 304.945 7.344C305.014 7.41333 305.049 7.49567 305.049 7.591V8.007C305.049 8.10233 305.014 8.18467 304.945 8.254C304.875 8.32333 304.793 8.358 304.698 8.358H303.047V11.725ZM307.667 13.649C307.667 13.7443 307.632 13.8267 307.563 13.896C307.493 13.9653 307.411 14 307.316 14H306.835C306.739 14 306.657 13.9653 306.588 13.896C306.518 13.8267 306.484 13.7443 306.484 13.649V7.591C306.484 7.49567 306.518 7.41333 306.588 7.344C306.657 7.27467 306.739 7.24 306.835 7.24H307.316C307.411 7.24 307.493 7.27467 307.563 7.344C307.632 7.41333 307.667 7.49567 307.667 7.591V13.649ZM307.797 5.862C307.797 5.95733 307.762 6.03967 307.693 6.109C307.623 6.17833 307.541 6.213 307.446 6.213H306.705C306.609 6.213 306.527 6.17833 306.458 6.109C306.388 6.03967 306.354 5.95733 306.354 5.862V5.121C306.354 5.02567 306.388 4.94333 306.458 4.874C306.527 4.80467 306.609 4.77 306.705 4.77H307.446C307.541 4.77 307.623 4.80467 307.693 4.874C307.762 4.94333 307.797 5.02567 307.797 5.121V5.862ZM312.389 7.11C312.857 7.11 313.273 7.18367 313.637 7.331C314.001 7.46967 314.313 7.66467 314.573 7.916C314.833 8.16733 315.036 8.475 315.184 8.839C315.34 9.19433 315.435 9.58433 315.47 10.009C315.478 10.087 315.483 10.1823 315.483 10.295C315.483 10.399 315.483 10.5117 315.483 10.633C315.483 10.7457 315.483 10.8583 315.483 10.971C315.483 11.075 315.478 11.1617 315.47 11.231C315.426 11.6643 315.331 12.0587 315.184 12.414C315.036 12.7693 314.833 13.0727 314.573 13.324C314.313 13.5753 314.001 13.7747 313.637 13.922C313.273 14.0607 312.857 14.13 312.389 14.13C311.921 14.13 311.505 14.0607 311.141 13.922C310.777 13.7747 310.465 13.5753 310.205 13.324C309.945 13.0727 309.737 12.7693 309.581 12.414C309.433 12.0587 309.342 11.6643 309.308 11.231C309.299 11.1617 309.29 11.075 309.282 10.971C309.282 10.8583 309.282 10.7457 309.282 10.633C309.282 10.5117 309.282 10.399 309.282 10.295C309.29 10.1823 309.299 10.087 309.308 10.009C309.342 9.58433 309.433 9.19433 309.581 8.839C309.737 8.475 309.945 8.16733 310.205 7.916C310.465 7.66467 310.777 7.46967 311.141 7.331C311.505 7.18367 311.921 7.11 312.389 7.11ZM314.287 11.166C314.304 11.0187 314.313 10.841 314.313 10.633C314.313 10.4163 314.304 10.23 314.287 10.074C314.261 9.814 314.204 9.57133 314.118 9.346C314.031 9.12067 313.91 8.92567 313.754 8.761C313.598 8.59633 313.407 8.46633 313.182 8.371C312.956 8.27567 312.692 8.228 312.389 8.228C312.085 8.228 311.821 8.27567 311.596 8.371C311.37 8.46633 311.18 8.59633 311.024 8.761C310.868 8.92567 310.746 9.12067 310.66 9.346C310.573 9.57133 310.517 9.814 310.491 10.074C310.473 10.23 310.465 10.4163 310.465 10.633C310.465 10.841 310.473 11.0187 310.491 11.166C310.517 11.426 310.573 11.6687 310.66 11.894C310.746 12.1193 310.868 12.3143 311.024 12.479C311.18 12.6437 311.37 12.7737 311.596 12.869C311.821 12.9643 312.085 13.012 312.389 13.012C312.692 13.012 312.956 12.9643 313.182 12.869C313.407 12.7737 313.598 12.6437 313.754 12.479C313.91 12.3143 314.031 12.1193 314.118 11.894C314.204 11.6687 314.261 11.426 314.287 11.166ZM323.128 13.649C323.128 13.7443 323.094 13.8267 323.024 13.896C322.955 13.9653 322.873 14 322.777 14H322.296C322.201 14 322.119 13.9653 322.049 13.896C321.98 13.8267 321.945 13.7443 321.945 13.649V10.217C321.945 9.54967 321.785 9.05133 321.464 8.722C321.144 8.39267 320.697 8.228 320.125 8.228C319.579 8.228 319.137 8.39267 318.799 8.722C318.47 9.05133 318.305 9.54967 318.305 10.217V13.649C318.305 13.7443 318.271 13.8267 318.201 13.896C318.132 13.9653 318.05 14 317.954 14H317.473C317.378 14 317.296 13.9653 317.226 13.896C317.157 13.8267 317.122 13.7443 317.122 13.649V7.591C317.122 7.49567 317.157 7.41333 317.226 7.344C317.296 7.27467 317.378 7.24 317.473 7.24H317.954C318.05 7.24 318.132 7.27467 318.201 7.344C318.271 7.41333 318.305 7.49567 318.305 7.591V7.994C318.47 7.77733 318.713 7.578 319.033 7.396C319.363 7.20533 319.792 7.11 320.32 7.11C320.728 7.11 321.105 7.17933 321.451 7.318C321.798 7.448 322.093 7.63867 322.335 7.89C322.587 8.13267 322.782 8.436 322.92 8.8C323.059 9.164 323.128 9.57133 323.128 10.022V13.649ZM328.867 12.128C328.867 11.9633 328.819 11.829 328.724 11.725C328.637 11.6123 328.503 11.517 328.321 11.439C328.139 11.361 327.905 11.2873 327.619 11.218C327.342 11.1487 327.017 11.075 326.644 10.997C325.942 10.8497 325.448 10.607 325.162 10.269C324.885 9.92233 324.746 9.51933 324.746 9.06C324.746 8.8 324.798 8.553 324.902 8.319C325.006 8.085 325.162 7.877 325.37 7.695C325.578 7.513 325.838 7.37 326.15 7.266C326.471 7.162 326.843 7.11 327.268 7.11C327.693 7.11 328.061 7.15767 328.373 7.253C328.694 7.34833 328.962 7.46967 329.179 7.617C329.396 7.76433 329.56 7.92467 329.673 8.098C329.786 8.26267 329.846 8.423 329.855 8.579C329.864 8.67433 329.829 8.75667 329.751 8.826C329.682 8.89533 329.599 8.93 329.504 8.93H329.075C329.023 8.93 328.958 8.92133 328.88 8.904C328.811 8.878 328.746 8.826 328.685 8.748C328.572 8.60067 328.403 8.47933 328.178 8.384C327.961 8.28 327.658 8.228 327.268 8.228C326.869 8.228 326.544 8.30167 326.293 8.449C326.05 8.59633 325.929 8.8 325.929 9.06C325.929 9.22467 325.964 9.359 326.033 9.463C326.102 9.55833 326.215 9.645 326.371 9.723C326.527 9.79233 326.731 9.85733 326.982 9.918C327.242 9.97867 327.563 10.0523 327.944 10.139C328.343 10.2257 328.676 10.3383 328.945 10.477C329.214 10.607 329.43 10.7587 329.595 10.932C329.76 11.0967 329.877 11.283 329.946 11.491C330.015 11.6903 330.05 11.9027 330.05 12.128C330.05 12.388 329.985 12.6393 329.855 12.882C329.734 13.1247 329.556 13.337 329.322 13.519C329.088 13.701 328.802 13.8483 328.464 13.961C328.135 14.0737 327.758 14.13 327.333 14.13C326.908 14.13 326.531 14.078 326.202 13.974C325.873 13.87 325.591 13.7443 325.357 13.597C325.123 13.441 324.941 13.2763 324.811 13.103C324.69 12.921 324.625 12.752 324.616 12.596C324.607 12.5007 324.638 12.4183 324.707 12.349C324.776 12.2797 324.863 12.245 324.967 12.245H325.435C325.487 12.245 325.548 12.2537 325.617 12.271C325.686 12.2797 325.751 12.3273 325.812 12.414C325.951 12.6047 326.141 12.752 326.384 12.856C326.627 12.96 326.943 13.012 327.333 13.012C327.524 13.012 327.71 12.9903 327.892 12.947C328.083 12.9037 328.247 12.843 328.386 12.765C328.533 12.687 328.65 12.596 328.737 12.492C328.824 12.3793 328.867 12.258 328.867 12.128Z" fill="black"/>
</svg>
