<svg width="413" height="33" viewBox="0 0 413 33" fill="none" xmlns="http://www.w3.org/2000/svg">
<path d="M4.407 20.483C3.60967 20.483 2.94667 20.3357 2.418 20.041C1.898 19.7464 1.50367 19.3347 1.235 18.806C0.966333 18.2774 0.819 17.662 0.793 16.96C0.784333 16.6047 0.78 16.2234 0.78 15.816C0.78 15.4087 0.784333 15.0187 0.793 14.646C0.819 13.944 0.966333 13.3287 1.235 12.8C1.50367 12.2714 1.898 11.8597 2.418 11.565C2.94667 11.2704 3.60967 11.123 4.407 11.123C5.005 11.123 5.52933 11.2054 5.98 11.37C6.43067 11.5347 6.80333 11.7557 7.098 12.033C7.40133 12.3104 7.631 12.6224 7.787 12.969C7.943 13.307 8.02967 13.658 8.047 14.022C8.05567 14.1 8.02967 14.165 7.969 14.217C7.917 14.269 7.852 14.295 7.774 14.295H7.059C6.981 14.295 6.91167 14.2734 6.851 14.23C6.799 14.1867 6.76 14.1087 6.734 13.996C6.58667 13.32 6.30933 12.8564 5.902 12.605C5.50333 12.3537 5.00067 12.228 4.394 12.228C3.70067 12.228 3.15033 12.4274 2.743 12.826C2.33567 13.216 2.11467 13.8444 2.08 14.711C2.054 15.4217 2.054 16.1497 2.08 16.895C2.11467 17.7617 2.33567 18.3944 2.743 18.793C3.15033 19.183 3.70067 19.378 4.394 19.378C5.00067 19.378 5.50333 19.2524 5.902 19.001C6.30933 18.7497 6.58667 18.286 6.734 17.61C6.76 17.4974 6.799 17.4194 6.851 17.376C6.91167 17.3327 6.981 17.311 7.059 17.311H7.774C7.852 17.311 7.917 17.337 7.969 17.389C8.02967 17.441 8.05567 17.506 8.047 17.584C8.02967 17.948 7.943 18.3034 7.787 18.65C7.631 18.988 7.40133 19.2957 7.098 19.573C6.80333 19.8504 6.43067 20.0714 5.98 20.236C5.52933 20.4007 5.005 20.483 4.407 20.483ZM12.3892 20.483C11.7305 20.483 11.1802 20.3574 10.7382 20.106C10.2962 19.8547 9.9582 19.508 9.7242 19.066C9.4902 18.6154 9.3602 18.104 9.3342 17.532C9.32554 17.3847 9.3212 17.1984 9.3212 16.973C9.3212 16.739 9.32554 16.5527 9.3342 16.414C9.3602 15.8334 9.4902 15.322 9.7242 14.88C9.96687 14.438 10.3092 14.0914 10.7512 13.84C11.1932 13.5887 11.7392 13.463 12.3892 13.463C13.0392 13.463 13.5852 13.5887 14.0272 13.84C14.4692 14.0914 14.8072 14.438 15.0412 14.88C15.2839 15.322 15.4182 15.8334 15.4442 16.414C15.4529 16.5527 15.4572 16.739 15.4572 16.973C15.4572 17.1984 15.4529 17.3847 15.4442 17.532C15.4182 18.104 15.2882 18.6154 15.0542 19.066C14.8202 19.508 14.4822 19.8547 14.0402 20.106C13.5982 20.3574 13.0479 20.483 12.3892 20.483ZM12.3892 19.482C12.9265 19.482 13.3555 19.313 13.6762 18.975C13.9969 18.6284 14.1702 18.1257 14.1962 17.467C14.2049 17.337 14.2092 17.1724 14.2092 16.973C14.2092 16.7737 14.2049 16.609 14.1962 16.479C14.1702 15.8204 13.9969 15.322 13.6762 14.984C13.3555 14.6374 12.9265 14.464 12.3892 14.464C11.8519 14.464 11.4185 14.6374 11.0892 14.984C10.7685 15.322 10.5995 15.8204 10.5822 16.479C10.5735 16.609 10.5692 16.7737 10.5692 16.973C10.5692 17.1724 10.5735 17.337 10.5822 17.467C10.5995 18.1257 10.7685 18.6284 11.0892 18.975C11.4185 19.313 11.8519 19.482 12.3892 19.482ZM17.397 22.823C17.3104 22.823 17.2367 22.7927 17.176 22.732C17.124 22.68 17.098 22.6107 17.098 22.524V13.892C17.098 13.8054 17.124 13.736 17.176 13.684C17.2367 13.6234 17.3104 13.593 17.397 13.593H17.995C18.0817 13.593 18.151 13.6234 18.203 13.684C18.2637 13.736 18.294 13.8054 18.294 13.892V14.464C18.502 14.178 18.7794 13.9397 19.126 13.749C19.4727 13.5584 19.906 13.463 20.426 13.463C20.9114 13.463 21.323 13.5454 21.661 13.71C22.0077 13.8747 22.2894 14.1 22.506 14.386C22.7314 14.672 22.9004 14.997 23.013 15.361C23.1257 15.725 23.1864 16.115 23.195 16.531C23.2037 16.6697 23.208 16.817 23.208 16.973C23.208 17.129 23.2037 17.2764 23.195 17.415C23.1864 17.8224 23.1257 18.2124 23.013 18.585C22.9004 18.949 22.7314 19.274 22.506 19.56C22.2894 19.8374 22.0077 20.0627 21.661 20.236C21.323 20.4007 20.9114 20.483 20.426 20.483C19.9234 20.483 19.4987 20.392 19.152 20.21C18.814 20.0194 18.5367 19.7854 18.32 19.508V22.524C18.32 22.6107 18.294 22.68 18.242 22.732C18.19 22.7927 18.1164 22.823 18.021 22.823H17.397ZM20.153 19.43C20.6037 19.43 20.9547 19.3347 21.206 19.144C21.466 18.9447 21.6524 18.689 21.765 18.377C21.8777 18.0564 21.9427 17.714 21.96 17.35C21.9687 17.0987 21.9687 16.8474 21.96 16.596C21.9427 16.232 21.8777 15.894 21.765 15.582C21.6524 15.2614 21.466 15.0057 21.206 14.815C20.9547 14.6157 20.6037 14.516 20.153 14.516C19.7284 14.516 19.3817 14.6157 19.113 14.815C18.853 15.0144 18.658 15.27 18.528 15.582C18.4067 15.8854 18.3374 16.1974 18.32 16.518C18.3114 16.6567 18.307 16.8214 18.307 17.012C18.307 17.2027 18.3114 17.3717 18.32 17.519C18.3287 17.8224 18.398 18.1214 18.528 18.416C18.6667 18.7107 18.8704 18.9534 19.139 19.144C19.4077 19.3347 19.7457 19.43 20.153 19.43ZM25.7583 22.823C25.6889 22.823 25.6283 22.797 25.5763 22.745C25.5243 22.693 25.4983 22.6324 25.4983 22.563C25.4983 22.5284 25.5026 22.4937 25.5113 22.459C25.5199 22.4244 25.5373 22.381 25.5633 22.329L26.5643 19.95L24.0813 14.087C24.0379 13.983 24.0163 13.9094 24.0163 13.866C24.0163 13.788 24.0423 13.723 24.0943 13.671C24.1463 13.619 24.2113 13.593 24.2893 13.593H24.9263C25.0129 13.593 25.0823 13.6147 25.1343 13.658C25.1863 13.7014 25.2209 13.7534 25.2383 13.814L27.2143 18.546L29.2423 13.814C29.2683 13.7534 29.3029 13.7014 29.3463 13.658C29.3983 13.6147 29.4719 13.593 29.5673 13.593H30.1783C30.2563 13.593 30.3213 13.619 30.3733 13.671C30.4253 13.723 30.4513 13.7837 30.4513 13.853C30.4513 13.8964 30.4296 13.9744 30.3863 14.087L26.6943 22.602C26.6683 22.6627 26.6293 22.7147 26.5773 22.758C26.5339 22.8014 26.4646 22.823 26.3693 22.823H25.7583ZM34.8912 20.353C34.8045 20.353 34.7309 20.327 34.6702 20.275C34.6182 20.2144 34.5922 20.1407 34.5922 20.054V11.422C34.5922 11.3354 34.6182 11.266 34.6702 11.214C34.7309 11.1534 34.8045 11.123 34.8912 11.123H35.5022C35.5975 11.123 35.6712 11.1534 35.7232 11.214C35.7752 11.266 35.8012 11.3354 35.8012 11.422V20.054C35.8012 20.1407 35.7752 20.2144 35.7232 20.275C35.6712 20.327 35.5975 20.353 35.5022 20.353H34.8912ZM38.1663 20.353C38.0796 20.353 38.0059 20.327 37.9453 20.275C37.8933 20.2144 37.8673 20.1407 37.8673 20.054V13.892C37.8673 13.8054 37.8933 13.736 37.9453 13.684C38.0059 13.6234 38.0796 13.593 38.1663 13.593H38.7903C38.8769 13.593 38.9463 13.6234 38.9983 13.684C39.0503 13.736 39.0763 13.8054 39.0763 13.892V20.054C39.0763 20.1407 39.0503 20.2144 38.9983 20.275C38.9463 20.327 38.8769 20.353 38.7903 20.353H38.1663ZM38.0623 12.332C37.9756 12.332 37.9019 12.306 37.8413 12.254C37.7893 12.1934 37.7633 12.1197 37.7633 12.033V11.331C37.7633 11.2444 37.7893 11.175 37.8413 11.123C37.9019 11.0624 37.9756 11.032 38.0623 11.032H38.8813C38.9679 11.032 39.0373 11.0624 39.0893 11.123C39.1499 11.175 39.1803 11.2444 39.1803 11.331V12.033C39.1803 12.1197 39.1499 12.1934 39.0893 12.254C39.0373 12.306 38.9679 12.332 38.8813 12.332H38.0623ZM41.4417 20.353C41.355 20.353 41.2813 20.327 41.2207 20.275C41.1687 20.2144 41.1427 20.1407 41.1427 20.054V13.892C41.1427 13.8054 41.1687 13.736 41.2207 13.684C41.2813 13.6234 41.355 13.593 41.4417 13.593H42.0527C42.1393 13.593 42.2087 13.6234 42.2607 13.684C42.3213 13.736 42.3517 13.8054 42.3517 13.892V14.464C42.577 14.1694 42.8587 13.931 43.1967 13.749C43.5433 13.5584 43.9853 13.463 44.5227 13.463C45.086 13.463 45.5627 13.5887 45.9527 13.84C46.3513 14.0827 46.6503 14.425 46.8497 14.867C47.049 15.3004 47.1487 15.8074 47.1487 16.388V20.054C47.1487 20.1407 47.1227 20.2144 47.0707 20.275C47.0187 20.327 46.9493 20.353 46.8627 20.353H46.2127C46.126 20.353 46.0523 20.327 45.9917 20.275C45.9397 20.2144 45.9137 20.1407 45.9137 20.054V16.453C45.9137 15.8464 45.7663 15.374 45.4717 15.036C45.177 14.6894 44.7437 14.516 44.1717 14.516C43.6343 14.516 43.201 14.6894 42.8717 15.036C42.551 15.374 42.3907 15.8464 42.3907 16.453V20.054C42.3907 20.1407 42.3603 20.2144 42.2997 20.275C42.2477 20.327 42.1783 20.353 42.0917 20.353H41.4417ZM49.3385 20.353C49.2518 20.353 49.1781 20.327 49.1175 20.275C49.0655 20.2144 49.0395 20.1407 49.0395 20.054V11.422C49.0395 11.3354 49.0655 11.266 49.1175 11.214C49.1781 11.1534 49.2518 11.123 49.3385 11.123H49.9495C50.0361 11.123 50.1055 11.1534 50.1575 11.214C50.2181 11.266 50.2485 11.3354 50.2485 11.422V15.946L52.8095 13.814C52.9135 13.7274 52.9915 13.671 53.0435 13.645C53.1041 13.6104 53.1995 13.593 53.3295 13.593H54.0185C54.0965 13.593 54.1615 13.619 54.2135 13.671C54.2655 13.723 54.2915 13.788 54.2915 13.866C54.2915 13.9007 54.2785 13.9397 54.2525 13.983C54.2351 14.0264 54.1961 14.0697 54.1355 14.113L51.1325 16.609L54.4605 19.846C54.5645 19.9327 54.6165 20.0107 54.6165 20.08C54.6165 20.158 54.5905 20.223 54.5385 20.275C54.4865 20.327 54.4215 20.353 54.3435 20.353H53.6675C53.5375 20.353 53.4421 20.34 53.3815 20.314C53.3208 20.2794 53.2428 20.2187 53.1475 20.132L50.2485 17.363V20.054C50.2485 20.1407 50.2181 20.2144 50.1575 20.275C50.1055 20.327 50.0361 20.353 49.9495 20.353H49.3385Z" fill="white"/>
</svg>
