<svg width="48" height="48" viewBox="0 0 48 48" fill="none" xmlns="http://www.w3.org/2000/svg">
<g clip-path="url(#clip0_1546_21798)">
<path d="M44.5714 0H3.42857C1.53502 0 0 1.53502 0 3.42857V44.5714C0 46.465 1.53502 48 3.42857 48H44.5714C46.465 48 48 46.465 48 44.5714V3.42857C48 1.53502 46.465 0 44.5714 0Z" fill="#6D1FD9" fill-opacity="0.1"/>
<path d="M20.6672 24.6932C20.5579 24.6137 20.469 24.5094 20.4077 24.389C20.3464 24.2686 20.3145 24.1354 20.3145 24.0002C20.3145 23.8651 20.3464 23.7319 20.4077 23.6114C20.469 23.491 20.5579 23.3867 20.6672 23.3072L27.7815 18.1335C27.9093 18.0406 28.0603 17.9848 28.2179 17.9723C28.3754 17.9599 28.5333 17.9912 28.6742 18.0629C28.815 18.1345 28.9333 18.2437 29.016 18.3784C29.0986 18.5131 29.1425 18.668 29.1426 18.8261V29.1735C29.1426 29.3316 29.0989 29.4866 29.0163 29.6214C28.9337 29.7563 28.8154 29.8656 28.6745 29.9374C28.5337 30.0091 28.3757 30.0405 28.2181 30.0281C28.0604 30.0157 27.9093 29.9599 27.7815 29.8669L20.6672 24.6932Z" fill="#000921" fill-opacity="0.87"/>
</g>
<defs>
<clipPath id="clip0_1546_21798">
<rect width="48" height="48" fill="white"/>
</clipPath>
</defs>
</svg>
