<svg width="160" height="36" viewBox="0 0 160 36" fill="none" xmlns="http://www.w3.org/2000/svg">
<path d="M21.6346 31.4244C21.9946 32.5693 21.3589 33.804 20.1777 34.0164C16.835 34.6175 13.371 34.2147 10.233 32.8325C6.42863 31.1568 3.36276 28.1558 1.60602 24.3882C-0.150715 20.6206 -0.478628 16.3431 0.683316 12.3517C1.84526 8.36037 4.4179 4.92719 7.92238 2.6912C11.4269 0.455215 15.6244 -0.431235 19.7337 0.196848C23.843 0.824932 27.5842 2.92476 30.2607 6.10547C32.9373 9.28619 34.367 13.3311 34.2836 17.4873C34.2148 20.9155 33.1205 24.2268 31.1669 27.0049C30.4765 27.9866 29.0889 28.0429 28.2023 27.234C27.3157 26.425 27.2714 25.0581 27.9188 24.0476C29.1846 22.0721 29.8907 19.7737 29.9383 17.4001C30.0005 14.2976 28.9333 11.2782 26.9353 8.9038C24.9373 6.52944 22.1446 4.96195 19.0771 4.4931C16.0095 4.02425 12.8761 4.68597 10.2601 6.35509C7.64405 8.02422 5.72361 10.587 4.85624 13.5665C3.98887 16.546 4.23365 19.7391 5.54503 22.5516C6.8564 25.364 9.14503 27.6042 11.9849 28.8551C14.1575 29.812 16.5395 30.1401 18.8643 29.8247C20.0536 29.6633 21.2745 30.2795 21.6346 31.4244Z" fill="#5B0792"/>
<path d="M32.0345 34.1779C31.7341 35.183 30.6689 35.7651 29.7098 35.34C27.4755 34.3496 25.508 32.8233 23.9885 30.8846C22.469 28.9459 21.457 26.6707 21.029 24.2645C20.8453 23.2317 21.6651 22.3364 22.7129 22.2848C23.7606 22.2331 24.6358 23.0475 24.8638 24.0714C25.2247 25.6927 25.9441 27.2214 26.9785 28.5411C28.0129 29.8608 29.3254 30.9246 30.8135 31.6624C31.7533 32.1285 32.335 33.1728 32.0345 34.1779Z" fill="#280340"/>
<path d="M47.1577 28.4321C45.839 28.4321 44.7161 28.1436 43.7889 27.5667C42.8823 26.9692 42.1921 26.145 41.7182 25.0942C41.2443 24.0433 41.0073 22.838 41.0073 21.4781V12.7624C41.0073 12.5564 41.0691 12.3916 41.1927 12.2679C41.337 12.1237 41.5121 12.0516 41.7182 12.0516H43.2635C43.4695 12.0516 43.6344 12.1237 43.758 12.2679C43.9022 12.3916 43.9743 12.5564 43.9743 12.7624V21.3236C43.9743 24.3936 45.3136 25.9286 47.9922 25.9286C49.2697 25.9286 50.2896 25.5269 51.052 24.7233C51.8349 23.8991 52.2264 22.7659 52.2264 21.3236V12.7624C52.2264 12.5564 52.2882 12.3916 52.4118 12.2679C52.5561 12.1237 52.7312 12.0516 52.9373 12.0516H54.4826C54.6886 12.0516 54.8535 12.1237 54.9771 12.2679C55.1007 12.3916 55.1625 12.5564 55.1625 12.7624V27.4122C55.1625 27.6182 55.1007 27.7933 54.9771 27.9376C54.8535 28.0612 54.6886 28.123 54.4826 28.123H53.03C52.8239 28.123 52.6488 28.0612 52.5046 27.9376C52.3809 27.7933 52.3191 27.6182 52.3191 27.4122V26.0523C51.7628 26.7734 51.0829 27.3503 50.2793 27.783C49.4963 28.2157 48.4558 28.4321 47.1577 28.4321Z" fill="#5B0792"/>
<path d="M62.783 28.123C62.5769 28.123 62.4018 28.0612 62.2575 27.9376C62.1339 27.7933 62.0721 27.6182 62.0721 27.4122V12.7624C62.0721 12.5564 62.1339 12.3916 62.2575 12.2679C62.4018 12.1237 62.5769 12.0516 62.783 12.0516H64.2665C64.4725 12.0516 64.6374 12.1237 64.761 12.2679C64.9052 12.3916 64.9773 12.5564 64.9773 12.7624V27.4122C64.9773 27.6182 64.9052 27.7933 64.761 27.9376C64.6374 28.0612 64.4725 28.123 64.2665 28.123H62.783ZM62.5357 9.05365C62.3297 9.05365 62.1545 8.99184 62.0103 8.86821C61.8867 8.72398 61.8249 8.54884 61.8249 8.3428V6.67384C61.8249 6.4678 61.8867 6.29266 62.0103 6.14843C62.1545 6.0042 62.3297 5.93209 62.5357 5.93209H64.4828C64.6889 5.93209 64.864 6.0042 65.0082 6.14843C65.1525 6.29266 65.2246 6.4678 65.2246 6.67384V8.3428C65.2246 8.54884 65.1525 8.72398 65.0082 8.86821C64.864 8.99184 64.6889 9.05365 64.4828 9.05365H62.5357Z" fill="#5B0792"/>
<path d="M71.5662 28.123C71.3602 28.123 71.185 28.0612 71.0408 27.9376C70.9172 27.7933 70.8554 27.6182 70.8554 27.4122V26.3304C70.8554 26.145 70.8966 25.9698 70.979 25.805C71.082 25.6402 71.185 25.4856 71.2881 25.3414L79.8183 14.4932H71.8444C71.6383 14.4932 71.4632 14.4314 71.319 14.3078C71.1954 14.1841 71.1335 14.009 71.1335 13.7824V12.7624C71.1335 12.5564 71.1954 12.3916 71.319 12.2679C71.4632 12.1237 71.6383 12.0516 71.8444 12.0516H82.8472C83.0532 12.0516 83.218 12.1237 83.3417 12.2679C83.4859 12.3916 83.558 12.5564 83.558 12.7624V13.906C83.558 14.0914 83.5065 14.2563 83.4035 14.4005C83.3211 14.5447 83.2283 14.6993 83.1253 14.8641L74.6878 25.6814H83.4653C83.6919 25.6814 83.8671 25.7432 83.9907 25.8668C84.1143 25.9904 84.1761 26.1656 84.1761 26.3922V27.4122C84.1761 27.6182 84.1143 27.7933 83.9907 27.9376C83.8671 28.0612 83.6919 28.123 83.4653 28.123H71.5662Z" fill="#5B0792"/>
<path d="M93.7256 28.123C93.4577 28.123 93.2414 28.0509 93.0765 27.9067C92.9323 27.7624 92.8293 27.5564 92.7675 27.2885L88.7805 7.44651C88.7599 7.36409 88.7496 7.29197 88.7496 7.23016C88.7496 7.16835 88.7496 7.12714 88.7496 7.10654C88.7496 6.9417 88.8114 6.79747 88.935 6.67384C89.0587 6.55022 89.2029 6.4884 89.3677 6.4884H90.9749C91.4076 6.4884 91.6548 6.66354 91.7166 7.01382L94.8691 22.9616L98.207 12.0207C98.2688 11.8352 98.3719 11.6704 98.5161 11.5262C98.6809 11.3613 98.9076 11.2789 99.196 11.2789H100.34C100.649 11.2789 100.875 11.3613 101.02 11.5262C101.164 11.6704 101.256 11.8352 101.298 12.0207L104.667 22.9616L107.788 7.01382C107.85 6.66354 108.107 6.4884 108.561 6.4884H110.168C110.333 6.4884 110.477 6.55022 110.601 6.67384C110.724 6.79747 110.786 6.9417 110.786 7.10654C110.786 7.12714 110.776 7.16835 110.755 7.23016C110.755 7.29197 110.755 7.36409 110.755 7.44651L106.768 27.2885C106.706 27.5564 106.593 27.7624 106.428 27.9067C106.284 28.0509 106.078 28.123 105.81 28.123H104.605C104.316 28.123 104.09 28.0509 103.925 27.9067C103.76 27.7624 103.647 27.577 103.585 27.3503L99.7524 15.5749L95.9508 27.3503C95.8684 27.577 95.7448 27.7624 95.58 27.9067C95.4357 28.0509 95.2194 28.123 94.9309 28.123H93.7256Z" fill="#5B0792"/>
<path d="M117.486 28.123C117.28 28.123 117.105 28.0612 116.961 27.9376C116.837 27.7933 116.775 27.6182 116.775 27.4122V6.89019C116.775 6.68415 116.837 6.51931 116.961 6.39569C117.105 6.25145 117.28 6.17934 117.486 6.17934H119.031C119.258 6.17934 119.433 6.25145 119.557 6.39569C119.68 6.51931 119.742 6.68415 119.742 6.89019V14.0914C120.298 13.3909 120.978 12.8243 121.782 12.3916C122.586 11.9589 123.606 11.7425 124.842 11.7425C126.181 11.7425 127.314 12.0413 128.242 12.6388C129.189 13.2157 129.9 14.0296 130.374 15.0804C130.869 16.1107 131.116 17.316 131.116 18.6965V27.4122C131.116 27.6182 131.054 27.7933 130.93 27.9376C130.807 28.0612 130.632 28.123 130.405 28.123H128.86C128.654 28.123 128.478 28.0612 128.334 27.9376C128.211 27.7933 128.149 27.6182 128.149 27.4122V18.851C128.149 17.4087 127.799 16.2858 127.098 15.4822C126.397 14.658 125.367 14.246 124.007 14.246C122.73 14.246 121.7 14.658 120.917 15.4822C120.134 16.2858 119.742 17.4087 119.742 18.851V27.4122C119.742 27.6182 119.68 27.7933 119.557 27.9376C119.433 28.0612 119.258 28.123 119.031 28.123H117.486Z" fill="#5B0792"/>
<path d="M138.607 28.123C138.401 28.123 138.226 28.0612 138.081 27.9376C137.958 27.7933 137.896 27.6182 137.896 27.4122V12.7624C137.896 12.5564 137.958 12.3916 138.081 12.2679C138.226 12.1237 138.401 12.0516 138.607 12.0516H140.09C140.296 12.0516 140.461 12.1237 140.585 12.2679C140.729 12.3916 140.801 12.5564 140.801 12.7624V27.4122C140.801 27.6182 140.729 27.7933 140.585 27.9376C140.461 28.0612 140.296 28.123 140.09 28.123H138.607ZM138.36 9.05365C138.154 9.05365 137.978 8.99184 137.834 8.86821C137.711 8.72398 137.649 8.54884 137.649 8.3428V6.67384C137.649 6.4678 137.711 6.29266 137.834 6.14843C137.978 6.0042 138.154 5.93209 138.36 5.93209H140.307C140.513 5.93209 140.688 6.0042 140.832 6.14843C140.976 6.29266 141.048 6.4678 141.048 6.67384V8.3428C141.048 8.54884 140.976 8.72398 140.832 8.86821C140.688 8.99184 140.513 9.05365 140.307 9.05365H138.36Z" fill="#5B0792"/>
<path d="M147.39 28.123C147.184 28.123 147.009 28.0612 146.865 27.9376C146.741 27.7933 146.679 27.6182 146.679 27.4122V26.3304C146.679 26.145 146.72 25.9698 146.803 25.805C146.906 25.6402 147.009 25.4856 147.112 25.3414L155.642 14.4932H147.668C147.462 14.4932 147.287 14.4314 147.143 14.3078C147.019 14.1841 146.957 14.009 146.957 13.7824V12.7624C146.957 12.5564 147.019 12.3916 147.143 12.2679C147.287 12.1237 147.462 12.0516 147.668 12.0516H158.671C158.877 12.0516 159.042 12.1237 159.166 12.2679C159.31 12.3916 159.382 12.5564 159.382 12.7624V13.906C159.382 14.0914 159.33 14.2563 159.227 14.4005C159.145 14.5447 159.052 14.6993 158.949 14.8641L150.512 25.6814H159.289C159.516 25.6814 159.691 25.7432 159.815 25.8668C159.938 25.9904 160 26.1656 160 26.3922V27.4122C160 27.6182 159.938 27.7933 159.815 27.9376C159.691 28.0612 159.516 28.123 159.289 28.123H147.39Z" fill="#5B0792"/>
</svg>
