<svg width="60" height="63" viewBox="0 0 60 63" fill="none" xmlns="http://www.w3.org/2000/svg">
<path d="M37.731 54.9147C38.3504 56.9124 37.2339 59.0597 35.174 59.4217C29.3444 60.4459 23.3104 59.7197 17.8514 57.289C11.2333 54.3422 5.91131 49.091 2.87614 42.5129C-0.159041 35.9348 -0.700639 28.4779 1.35215 21.5302C3.40495 14.5826 7.91227 8.61751 14.0352 4.74529C20.1581 0.873077 27.4794 -0.642449 34.6363 0.480806C41.7933 1.60406 48.2983 5.28957 52.9406 10.8513C57.5828 16.4131 60.0461 23.4722 59.8718 30.7147C59.728 36.6886 57.7979 42.4515 54.3738 47.2794C53.1638 48.9854 50.7452 49.0738 49.2058 47.6578C47.6665 46.2419 47.5987 43.8594 48.7341 42.1029C50.9536 38.6691 52.2003 34.6685 52.2998 30.5324C52.4299 25.126 50.5912 19.8566 47.1258 15.7048C43.6604 11.553 38.8045 8.80185 33.462 7.96335C28.1194 7.12486 22.6542 8.25618 18.0835 11.1467C13.5129 14.0373 10.1482 18.4901 8.61587 23.6764C7.08349 28.8627 7.48778 34.4292 9.75349 39.3396C12.0192 44.2501 15.992 48.17 20.9323 50.3698C24.7118 52.0526 28.8606 52.641 32.9144 52.1075C34.9881 51.8346 37.1115 52.917 37.731 54.9147Z" fill="#560789"/>
<path d="M55.8358 59.7859C55.3052 61.5354 53.4448 62.5425 51.7764 61.7949C47.8896 60.0532 44.4714 57.3796 41.8369 53.9904C39.2024 50.6013 37.4546 46.6292 36.7256 42.4328C36.4127 40.6316 37.8476 39.0772 39.6739 38.9945C41.5002 38.9118 43.0197 40.3371 43.4098 42.1232C44.0275 44.9511 45.2705 47.6201 47.064 49.9273C48.8574 52.2344 51.1373 54.0974 53.7254 55.3936C55.3601 56.2123 56.3665 58.0364 55.8358 59.7859Z" fill="#280340"/>
</svg>
