<svg width="100" height="101" viewBox="0 0 100 101" fill="none" xmlns="http://www.w3.org/2000/svg">
<g clip-path="url(#clip0_1482_13889)">
<path d="M96.4812 50.3508C98.0256 48.5524 99.1078 46.4043 99.6341 44.0929C100.16 41.7815 100.115 39.3766 99.5011 37.0869C98.8875 34.7971 97.7245 32.6917 96.113 30.9532C94.5015 29.2146 92.4902 27.8956 90.2534 27.1103C90.6917 24.7806 90.5549 22.3791 89.8548 20.1142C89.1548 17.8492 87.9127 15.7893 86.2363 14.1131C84.5599 12.437 82.4999 11.1951 80.2349 10.4954C77.9699 9.79566 75.5683 9.65914 73.2386 10.0977C72.454 7.86047 71.1352 5.84857 69.3966 4.23667C67.6581 2.62477 65.5524 1.4616 63.2623 0.848134C60.9722 0.234672 58.567 0.189465 56.2555 0.71644C53.944 1.24341 51.7961 2.32664 49.9982 3.87207C48.1997 2.3277 46.0517 1.24545 43.7403 0.719207C41.4289 0.192961 39.024 0.238613 36.7342 0.852201C34.4445 1.46579 32.339 2.62878 30.6005 4.24029C28.862 5.8518 27.5429 7.86315 26.7577 10.0999C24.4281 9.66201 22.0268 9.79914 19.7622 10.4994C17.4976 11.1996 15.438 12.4417 13.7621 14.118C12.0862 15.7944 10.8446 17.8543 10.1449 20.1191C9.44529 22.3839 9.30878 24.7852 9.74722 27.1147C7.51051 27.8999 5.49915 29.219 3.88765 30.9575C2.27614 32.696 1.11314 34.8015 0.499551 37.0912C-0.114037 39.381 -0.159696 41.7859 0.36655 44.0972C0.892796 46.4086 1.97507 48.5567 3.51943 50.3551C1.9746 52.1535 0.891994 54.3017 0.365598 56.6134C-0.160798 58.925 -0.115099 61.3302 0.498757 63.6201C1.11261 65.91 2.27606 68.0156 3.88812 69.754C5.50018 71.4923 7.51216 72.811 9.74939 73.5956C9.31057 75.9251 9.44693 78.3266 10.1466 80.5915C10.8464 82.8564 12.0883 84.9164 13.7646 86.5925C15.441 88.2686 17.501 89.5102 19.766 90.2097C22.0311 90.9091 24.4325 91.0452 26.7621 90.6061C27.5473 92.8428 28.8663 94.8541 30.6049 96.4656C32.3434 98.0771 34.4488 99.2401 36.7386 99.8537C39.0283 100.467 41.4332 100.513 43.7446 99.9867C46.056 99.4605 48.2041 98.3782 50.0025 96.8338C51.8009 98.3787 53.9491 99.4613 56.2607 99.9877C58.5724 100.514 60.9775 100.468 63.2675 99.8545C65.5574 99.2407 67.663 98.0772 69.4013 96.4651C71.1397 94.8531 72.4584 92.8411 73.243 90.6039C75.5726 91.0426 77.9741 90.9061 80.239 90.2064C82.504 89.5067 84.564 88.2648 86.2402 86.5885C87.9165 84.9123 89.1584 82.8523 89.8581 80.5873C90.5579 78.3224 90.6943 75.9209 90.2556 73.5912C92.4925 72.8062 94.504 71.4872 96.1156 69.7486C97.7272 68.01 98.8901 65.9044 99.5035 63.6145C100.117 61.3246 100.162 58.9196 99.6356 56.6082C99.1089 54.2968 98.0262 52.1489 96.4812 50.3508Z" fill="#27AE60"/>
<path d="M41.0246 69.4373L27.1301 55.5516C26.6028 55.0234 26.3066 54.3076 26.3066 53.5612C26.3066 52.8149 26.6028 52.0991 27.1301 51.5709L28.8182 49.8807C29.3464 49.3534 30.0622 49.0572 30.8085 49.0572C31.5549 49.0572 32.2707 49.3534 32.7989 49.8807L42.899 59.9743L66.6855 34.6969C67.1973 34.1539 67.9037 33.8361 68.6496 33.8133C69.3956 33.7906 70.12 34.0647 70.664 34.5756L72.3976 36.2116C72.9413 36.7235 73.2595 37.4304 73.2822 38.1769C73.305 38.9233 73.0304 39.6482 72.5189 40.1923L45.0724 69.3745C44.814 69.6499 44.5028 69.8706 44.1574 70.0233C43.812 70.1761 43.4394 70.2578 43.0618 70.2637C42.6842 70.2695 42.3092 70.1994 41.9593 70.0574C41.6093 69.9155 41.2914 69.7046 41.0246 69.4373Z" fill="white"/>
</g>
<defs>
<clipPath id="clip0_1482_13889">
<rect width="100" height="100" fill="white" transform="translate(0 0.353027)"/>
</clipPath>
</defs>
</svg>
