<svg width="49" height="47" viewBox="0 0 49 47" fill="none" xmlns="http://www.w3.org/2000/svg">
<path d="M11.4297 36.8899C11.0244 36.8088 10.7001 36.7277 10.2948 36.5656C9.88952 36.4035 9.56527 36.3224 9.24102 36.1603C8.51147 35.8361 7.86298 35.4308 7.21448 34.9444C5.9175 34.0527 4.8637 32.8368 4.05308 31.3777C3.24247 29.9996 2.7561 28.3784 2.67503 26.8382C2.59397 26.0276 2.67503 25.2981 2.7561 24.4874C2.83716 24.0821 2.91822 23.7579 2.99928 23.3526C3.08034 22.9473 3.24247 22.623 3.32353 22.2177L3.40459 23.3526C3.40459 23.7579 3.48565 24.0821 3.56671 24.4874C3.64777 25.217 3.8099 25.9466 3.97202 26.595C4.29627 27.9731 4.78264 29.2701 5.51219 30.486C6.24175 31.7019 7.05236 32.8368 8.10616 33.8906C8.59253 34.377 9.15996 34.8633 9.7274 35.3497C9.97058 35.5929 10.2948 35.8361 10.6191 36.0793L11.4297 36.8899ZM11.1865 39.8081C10.9433 39.9702 10.6191 40.0513 10.2948 40.1323C9.97058 40.2134 9.7274 40.2945 9.40315 40.2945C8.83572 40.3755 8.18722 40.4566 7.53873 40.3755C6.32281 40.2945 5.02582 39.9702 3.97202 39.4028C2.83716 38.8353 1.86442 37.9437 1.21592 36.8899C0.891678 36.4035 0.567431 35.8361 0.324247 35.2686C0.243185 35.0255 0.162123 34.7012 0.0810615 34.377C0.0810615 34.1338 0 33.8906 0 33.5663C0.243185 33.8095 0.405308 34.0527 0.567431 34.2148C0.810616 34.458 0.97274 34.7012 1.13486 34.8633C1.54017 35.2686 1.86442 35.6739 2.26973 35.9982C3.08034 36.7277 3.89096 37.3762 4.8637 37.8626C5.75538 38.349 6.80918 38.7543 7.78192 39.0785C8.26829 39.2407 8.83572 39.3217 9.40315 39.4838C9.64633 39.5649 9.97058 39.5649 10.2138 39.646C10.6191 39.727 10.8623 39.727 11.1865 39.8081ZM29.5064 0.412137C29.9117 0.493199 30.236 0.655322 30.6413 0.817445C31.0466 0.979569 31.3708 1.14169 31.6951 1.30382C32.4246 1.70912 33.0731 2.11443 33.7216 2.6008C35.0186 3.57354 36.0724 4.87053 36.802 6.32964C37.5315 7.78875 37.9368 9.40998 37.9368 10.9501C37.9368 11.7608 37.8558 12.4903 37.6937 13.3009C37.6126 13.7062 37.5315 14.0305 37.3694 14.4358C37.2073 14.8411 37.1262 15.1654 36.9641 15.4896L36.883 14.3547C36.883 13.9494 36.883 13.6252 36.802 13.2199L36.5588 11.0312C36.3156 9.65316 35.8292 8.27512 35.1807 6.97813C34.5323 5.68114 33.7216 4.54628 32.7489 3.49248C32.2625 2.92505 31.6951 2.43868 31.2087 1.87125C30.9655 1.62806 30.6413 1.38488 30.317 1.14169L29.5064 0.412137ZM36.5588 0.0878906C36.883 0.168952 37.1262 0.250014 37.3694 0.412137C37.6126 0.493199 37.9368 0.655322 38.18 0.817445C38.6664 1.14169 39.1528 1.46594 39.6391 1.87125C40.5308 2.68186 41.2604 3.6546 41.6657 4.78946C42.152 5.92433 42.3142 7.14025 42.152 8.35618C42.071 8.92361 41.9089 9.49104 41.7467 10.0585C41.6657 10.3017 41.5036 10.6259 41.4225 10.8691C41.2604 11.1123 41.1793 11.3555 40.9361 11.5986V10.788V9.97741C40.9361 9.40998 40.8551 8.92361 40.8551 8.43724C40.6929 7.38344 40.5308 6.4107 40.1255 5.51902C39.7202 4.54628 39.2338 3.73566 38.6664 2.84399C38.3421 2.43868 38.0179 1.95231 37.6937 1.547C37.5315 1.30382 37.3694 1.14169 37.1262 0.898507C36.9641 0.493199 36.7209 0.250014 36.5588 0.0878906Z" fill="#280340"/>
<path d="M6.48493 12.1659C4.8637 12.8955 4.29626 14.841 5.02582 16.4622L15.2396 37.7814L20.9139 35.1064L10.7001 13.7061C9.97058 12.0849 8.10616 11.3553 6.48493 12.1659ZM33.3163 29.1078L39.3149 26.2707L27.642 1.95218C26.8314 0.330946 24.8859 -0.398609 23.1836 0.412007C21.5624 1.22262 20.8328 3.1681 21.6435 4.8704L33.3163 29.1078Z" fill="#FFDD67"/>
<path d="M23.2647 0.331155C23.1026 0.412217 22.9404 0.493278 22.7783 0.655402C24.3185 0.250094 25.9397 0.979648 26.6693 2.43876L38.3422 26.7572L39.396 26.2709L27.7231 1.95239C26.9125 0.250094 24.967 -0.479461 23.2647 0.331155Z" fill="#EBA352"/>
<path d="M20.9137 35.0255L27.1555 32.0263L15.2394 7.2214C14.4288 5.5191 12.3212 4.70849 10.6189 5.5191C8.9166 6.32972 8.18704 8.43732 8.99766 10.1396L20.9137 35.0255Z" fill="#FFDD67"/>
<path d="M10.6192 5.59995C10.4571 5.68102 10.2949 5.76208 10.1328 5.9242C11.673 5.51889 13.4563 6.24845 14.1859 7.78862L21.5625 23.2714L23.3459 24.3252L15.2397 7.30225C14.4291 5.51889 12.4025 4.78934 10.6192 5.59995Z" fill="#EBA352"/>
<path d="M26.1828 30.0809L32.4245 27.0816L20.5084 2.27672C19.6978 0.574427 17.5902 -0.236189 15.8879 0.655489C14.1856 1.46611 13.4561 3.57371 14.2667 5.276L26.1828 30.0809Z" fill="#FFDD67"/>
<path d="M15.8881 0.574564C15.7259 0.655626 15.5638 0.817749 15.4017 0.898811C16.9419 0.493503 18.7252 1.22306 19.4548 2.76323L27.8041 20.2725L29.5875 21.3263L20.5086 2.27686C19.6979 0.493503 17.5903 -0.236052 15.8881 0.574564ZM6.48491 12.1664C6.32278 12.2474 6.16066 12.3285 5.99854 12.4906C7.45764 12.0853 8.99782 12.8149 9.64631 14.274L15.7259 27.0007L17.5093 28.0545L10.7001 13.7876C9.97056 12.0853 8.10614 11.3558 6.48491 12.1664Z" fill="#EBA352"/>
<path d="M47.664 9.73432C45.4753 8.03202 41.9086 9.89644 40.1253 15.7329C38.9093 19.786 38.7472 21.0019 36.1532 22.2178L34.6941 19.2185C34.6941 19.2185 11.6726 30.324 12.5643 32.1073C12.5643 32.1073 15.3204 40.6999 20.022 44.6719C26.9933 50.6704 43.2867 44.2666 44.0162 28.7838C44.4215 19.786 50.0148 11.5987 47.664 9.73432Z" fill="#FFDD67"/>
<path d="M47.6638 9.73442C47.2585 9.41018 46.7721 9.24805 46.2858 9.16699C46.3668 9.24805 46.5289 9.24805 46.61 9.32912C49.0418 11.1935 46.5289 15.4898 45.1509 19.3808C44.016 22.4611 43.0433 25.6225 43.2054 28.7028C43.8539 42.1591 30.3166 48.5629 22.2104 46.1311C30.1545 49.4546 44.9077 43.1318 44.2592 29.1082C44.0971 26.0278 44.9888 23.0285 46.2047 19.7861C47.5017 15.8951 50.0146 11.5988 47.6638 9.73442Z" fill="#EBA352"/>
<path d="M36.8828 21.8936C31.857 22.461 24.4804 29.6755 29.6683 37.5384C25.8584 29.5944 32.1002 24.2443 36.0722 22.3799C36.4775 22.0557 36.8828 21.8936 36.8828 21.8936Z" fill="#EBA352"/>
</svg>
