<svg width="374" height="348" viewBox="0 0 374 348" fill="none" xmlns="http://www.w3.org/2000/svg">
<path d="M187 347.37C83.7227 347.37 0 299.03 0 239.401C0 179.771 83.7227 131.432 187 131.432C290.277 131.432 374 179.771 374 239.401C374 299.03 290.277 347.37 187 347.37Z" fill="#F5F5F5"/>
<path d="M321.899 307.709L324.442 306.21C324.863 305.932 325.213 305.56 325.465 305.123C325.716 304.685 325.863 304.195 325.891 303.692V115.201C325.861 114.699 325.715 114.211 325.463 113.775C325.211 113.339 324.862 112.968 324.442 112.691L207.491 45.1604C207.04 44.9339 206.542 44.8159 206.037 44.8159C205.532 44.8159 205.034 44.9339 204.583 45.1604L202.04 46.6345C201.618 46.9107 201.267 47.2815 201.014 47.7174C200.761 48.1532 200.613 48.6421 200.582 49.1452V237.668C200.612 238.172 200.759 238.663 201.012 239.1C201.265 239.537 201.617 239.91 202.04 240.187L318.991 307.709C319.442 307.935 319.94 308.053 320.445 308.053C320.95 308.053 321.447 307.935 321.899 307.709Z" fill="#37474F"/>
<path d="M200.599 48.9103C200.704 48.1652 201.311 47.8898 202.04 48.311L318.991 115.833C319.421 116.098 319.775 116.469 320.02 116.91L325.47 113.768C325.224 113.328 324.87 112.957 324.442 112.691L207.491 45.1604C207.04 44.9339 206.542 44.8159 206.037 44.8159C205.532 44.8159 205.035 44.9339 204.583 45.1604L202.04 46.6345C201.651 46.8882 201.32 47.2227 201.072 47.6154C200.823 48.0081 200.662 48.4497 200.599 48.9103Z" fill="#455A64"/>
<path d="M319.25 307.83C319.277 307.837 319.305 307.837 319.331 307.83L319.485 307.887H319.542C319.631 307.887 319.72 307.936 319.809 307.96C320.385 308.072 320.981 308.027 321.534 307.83C321.646 307.79 321.754 307.741 321.858 307.685L324.442 306.211C324.863 305.933 325.213 305.56 325.465 305.123C325.717 304.686 325.863 304.196 325.892 303.692V115.202C325.874 114.696 325.729 114.203 325.47 113.768L320.02 116.911C320.283 117.344 320.431 117.837 320.449 118.344V306.875C320.462 307.146 320.385 307.413 320.23 307.636C320.132 307.749 320.004 307.832 319.861 307.876C319.718 307.92 319.565 307.924 319.42 307.887L319.25 307.83Z" fill="#263238"/>
<path d="M278.245 107.637C278.282 107.439 278.372 107.254 278.504 107.102L278.601 107.021C278.678 106.964 278.767 106.926 278.862 106.912C278.957 106.898 279.054 106.907 279.144 106.94C279.216 106.958 279.285 106.988 279.346 107.029C279.706 107.277 279.987 107.623 280.156 108.025C280.373 108.481 280.489 108.979 280.496 109.483C280.529 109.86 280.413 110.235 280.172 110.528C280.066 110.631 279.927 110.694 279.779 110.706C279.631 110.717 279.484 110.678 279.362 110.593C279.189 110.488 279.035 110.354 278.909 110.196C278.793 110.045 278.69 109.886 278.601 109.718C278.352 109.231 278.217 108.694 278.204 108.147C278.2 107.976 278.213 107.805 278.245 107.637ZM259.228 65.1407C259.65 64.8928 260.132 64.764 260.621 64.7682C261.55 64.8115 262.453 65.0902 263.245 65.5781C265.456 66.9311 267.162 68.9707 268.105 71.3851C268.258 71.7253 268.404 72.0816 268.534 72.4299C268.663 72.7782 268.801 73.1345 268.915 73.499C269.028 73.8634 269.157 74.2279 269.263 74.5924C269.303 74.7139 269.336 74.8434 269.376 74.9568L269.587 75.6938C269.583 75.7288 269.583 75.7641 269.587 75.7991C269.708 76.2446 269.822 76.7062 269.951 77.1598C270.016 77.4109 270.073 77.6457 270.137 77.8887L270.324 78.6095C270.583 79.5733 270.842 80.4966 271.134 81.3794L271.32 81.9139C271.409 82.165 271.498 82.4161 271.595 82.6591C271.693 82.902 271.749 83.0316 271.822 83.2017C271.944 83.5014 272.073 83.7848 272.211 84.0602C272.349 84.3356 272.381 84.4085 272.47 84.5786C274.519 88.5147 277.022 90.0535 278.471 92.0783C279.743 93.8439 280.091 95.2532 281.808 98.0473C282.351 98.9382 283.031 99.9668 283.922 101.198C286.392 104.6 287.275 106.284 287.575 107.305C287.578 107.332 287.578 107.359 287.575 107.386C287.575 107.467 287.575 107.539 287.632 107.612C287.634 107.637 287.634 107.661 287.632 107.685C287.635 107.75 287.635 107.815 287.632 107.88C287.66 108.078 287.673 108.278 287.672 108.479V116.044L284.951 117.615V110.042C284.958 109.647 284.9 109.253 284.781 108.876C284.481 107.855 283.606 106.179 281.128 102.777C280.237 101.538 279.557 100.509 279.014 99.6186C277.313 96.8325 276.949 95.4151 275.677 93.6657C274.228 91.6329 271.725 90.1021 269.676 86.1579C269.38 85.5517 269.118 84.9298 268.89 84.2951C267.578 81.0554 266.987 76.69 265.375 73.0211C264.435 70.6099 262.727 68.575 260.516 67.2303C258.855 66.2746 257.641 66.1936 256.709 66.631L259.228 65.1407ZM247.298 74.811C247.524 74.6821 247.767 74.584 248.019 74.5195C249.047 74.2765 250.578 74.8758 252.117 74.6977C249.955 77.4918 246.95 75.6938 245.298 76.0907C245.041 76.1522 244.795 76.2533 244.569 76.3904L247.298 74.811ZM241.531 85.2022C241.612 85.2516 241.688 85.3086 241.758 85.3723L241.872 85.4857L241.977 85.6071C242.431 86.1943 242.681 86.9138 242.69 87.6562C242.717 88.029 242.604 88.3985 242.374 88.6929C242.343 88.7219 242.311 88.7489 242.277 88.7739C242.202 88.8315 242.113 88.8692 242.02 88.8833C241.926 88.8975 241.831 88.8877 241.742 88.8549C241.667 88.8371 241.596 88.807 241.531 88.7658C241.45 88.7172 241.378 88.6524 241.297 88.5957C241.179 88.4855 241.073 88.3634 240.981 88.2312C240.595 87.6675 240.384 87.0028 240.373 86.3199C240.373 85.3399 240.892 84.8296 241.531 85.2022ZM239.75 78.3584C240.624 77.8709 241.574 77.5341 242.56 77.3623C242.981 77.2651 243.37 77.1598 243.686 77.0545C242.602 78.0189 241.274 78.6662 239.847 78.9254C238.981 79.0939 238.138 79.3659 237.336 79.7353L239.75 78.3584Z" fill="#7209B7" fill-opacity="0.5"/>
<path d="M237.117 79.8732L237.336 79.7436C238.138 79.3742 238.98 79.1023 239.847 78.9337C241.274 78.6761 242.603 78.0286 243.686 77.0628C243.957 76.8122 244.253 76.5897 244.569 76.3987C244.795 76.2649 245.041 76.1666 245.297 76.1071C246.917 75.7103 249.954 77.5083 252.109 74.7141L252.182 74.625C253.688 72.5921 254.239 68.0566 256.499 66.7284L256.725 66.5988C257.657 66.1614 258.872 66.2424 260.532 67.1981C266.517 70.6564 266.72 78.8689 268.874 84.271C271.028 89.6731 274.09 91.3658 275.75 93.6903C277.41 96.0147 277.524 97.7398 281.209 102.81C284.894 107.88 285.032 109.127 285.032 110.099V117.664L236.016 89.3167V81.7522C235.986 81.3641 236.076 80.9762 236.273 80.6405C236.47 80.3047 236.764 80.037 237.117 79.8732ZM279.346 110.593C279.986 110.966 280.496 110.472 280.496 109.484C280.503 109.018 280.402 108.556 280.203 108.135C280.004 107.714 279.71 107.344 279.346 107.054C278.706 106.681 278.196 107.183 278.196 108.171C278.19 108.636 278.29 109.096 278.489 109.516C278.689 109.936 278.982 110.304 279.346 110.593ZM260.532 87.8022C260.839 88.0359 261.197 88.1931 261.577 88.2608C261.957 88.3285 262.347 88.3047 262.716 88.1916C263.085 88.0784 263.422 87.879 263.698 87.6099C263.975 87.3408 264.183 87.0097 264.306 86.644C264.729 85.6862 264.931 84.6454 264.897 83.5988C264.897 79.8813 262.945 75.7427 260.532 74.3496C260.206 74.1551 259.85 74.0155 259.479 73.9366C257.568 73.5559 256.166 75.3863 256.166 78.5531C256.166 82.2705 258.118 86.4092 260.532 87.8022ZM241.531 88.7579C242.171 89.1305 242.69 88.6364 242.69 87.6564C242.694 87.19 242.593 86.7286 242.392 86.3075C242.191 85.8864 241.897 85.5167 241.531 85.2267C240.892 84.8622 240.373 85.3563 240.373 86.3444C240.368 86.8085 240.47 87.2676 240.671 87.686C240.872 88.1045 241.166 88.4712 241.531 88.7579Z" fill="#7209B7" fill-opacity="0.5"/>
<path opacity="0.1" d="M237.117 79.8732L237.336 79.7436C238.138 79.3742 238.98 79.1023 239.847 78.9337C241.274 78.6761 242.603 78.0286 243.686 77.0628C243.957 76.8122 244.253 76.5897 244.569 76.3987C244.795 76.2649 245.041 76.1666 245.297 76.1071C246.917 75.7103 249.954 77.5083 252.109 74.7141L252.182 74.625C253.688 72.5921 254.239 68.0566 256.499 66.7284L256.725 66.5988C257.657 66.1614 258.872 66.2424 260.532 67.1981C266.517 70.6564 266.72 78.8689 268.874 84.271C271.028 89.6731 274.09 91.3658 275.75 93.6903C277.41 96.0147 277.524 97.7398 281.209 102.81C284.894 107.88 285.032 109.127 285.032 110.099V117.664L236.016 89.3167V81.7522C235.986 81.3641 236.076 80.9762 236.273 80.6405C236.47 80.3047 236.764 80.037 237.117 79.8732ZM279.346 110.593C279.986 110.966 280.496 110.472 280.496 109.484C280.503 109.018 280.402 108.556 280.203 108.135C280.004 107.714 279.71 107.344 279.346 107.054C278.706 106.681 278.196 107.183 278.196 108.171C278.19 108.636 278.29 109.096 278.489 109.516C278.689 109.936 278.982 110.304 279.346 110.593ZM260.532 87.8022C260.839 88.0359 261.197 88.1931 261.577 88.2608C261.957 88.3285 262.347 88.3047 262.716 88.1916C263.085 88.0784 263.422 87.879 263.698 87.6099C263.975 87.3408 264.183 87.0097 264.306 86.644C264.729 85.6862 264.931 84.6454 264.897 83.5988C264.897 79.8813 262.945 75.7427 260.532 74.3496C260.206 74.1551 259.85 74.0155 259.479 73.9366C257.568 73.5559 256.166 75.3863 256.166 78.5531C256.166 82.2705 258.118 86.4092 260.532 87.8022ZM241.531 88.7579C242.171 89.1305 242.69 88.6364 242.69 87.6564C242.694 87.19 242.593 86.7286 242.392 86.3075C242.191 85.8864 241.897 85.5167 241.531 85.2267C240.892 84.8622 240.373 85.3563 240.373 86.3444C240.368 86.8085 240.47 87.2676 240.671 87.686C240.872 88.1045 241.166 88.4712 241.531 88.7579Z" fill="black"/>
<path opacity="0.25" d="M284.862 108.909C284.981 109.286 285.038 109.679 285.032 110.075V117.648L287.753 116.076V108.512C287.754 108.311 287.741 108.111 287.712 107.912C287.716 107.848 287.716 107.783 287.712 107.718C287.715 107.694 287.715 107.669 287.712 107.645C287.712 107.572 287.712 107.499 287.656 107.418V107.337L284.862 108.909Z" fill="black"/>
<path opacity="0.25" d="M275.758 93.6983C277.03 95.4477 277.378 96.8651 279.095 99.6512L281.808 98.0638C280.107 95.2696 279.743 93.8603 278.471 92.0947L275.758 93.6983Z" fill="black"/>
<path opacity="0.25" d="M265.359 72.9567C266.979 76.6256 267.562 80.9505 268.874 84.2306C269.129 84.8865 269.421 85.5274 269.749 86.1501L272.47 84.587C272.381 84.4169 272.292 84.2387 272.211 84.0686C272.13 83.8986 271.944 83.5098 271.822 83.2101C271.749 83.0401 271.668 82.8538 271.595 82.6675C271.522 82.4812 271.409 82.1735 271.32 81.9224L271.134 81.3878C270.842 80.505 270.583 79.5817 270.324 78.6179L270.137 77.8971C270.073 77.6542 270.016 77.4193 269.951 77.1682C269.822 76.7147 269.708 76.253 269.587 75.8076C269.583 75.7726 269.583 75.7373 269.587 75.7023L269.376 74.9653C269.336 74.8519 269.303 74.7223 269.263 74.6008C269.157 74.2363 269.036 73.8719 268.914 73.5074C268.793 73.143 268.671 72.7947 268.534 72.4383C268.396 72.082 268.258 71.7337 268.105 71.3936L265.359 72.9567Z" fill="black"/>
<path d="M280.164 108.025C280.38 108.481 280.496 108.979 280.504 109.483C280.537 109.861 280.42 110.235 280.18 110.528C280.413 110.232 280.526 109.859 280.496 109.483C280.487 108.98 280.374 108.483 280.164 108.025ZM278.188 108.147C278.189 107.975 278.208 107.804 278.244 107.637C278.21 107.805 278.194 107.976 278.196 108.147C278.206 108.693 278.338 109.23 278.585 109.718C278.336 109.231 278.2 108.694 278.188 108.147ZM242.276 88.7739C242.201 88.8315 242.113 88.8692 242.02 88.8834C241.926 88.8975 241.831 88.8877 241.742 88.8549C241.831 88.883 241.926 88.8903 242.019 88.8763C242.111 88.8622 242.199 88.8272 242.276 88.7739Z" fill="#7209B7" fill-opacity="0.5"/>
<path d="M256.158 78.5529C256.158 82.2704 258.118 86.409 260.532 87.8021C260.841 88.0272 261.198 88.1774 261.576 88.2409C261.953 88.3044 262.34 88.2794 262.706 88.1679C263.072 88.0564 263.407 87.8614 263.684 87.5984C263.962 87.3353 264.175 87.0114 264.306 86.652C263.931 86.5715 263.573 86.4292 263.245 86.2309C260.815 84.8297 258.88 80.6992 258.88 76.9817C258.844 75.9342 259.049 74.8924 259.479 73.9364C257.551 73.5558 256.158 75.3862 256.158 78.5529Z" fill="#7209B7" fill-opacity="0.5"/>
<path opacity="0.3" d="M256.158 78.5529C256.158 82.2704 258.118 86.409 260.532 87.8021C260.841 88.0272 261.198 88.1774 261.576 88.2409C261.953 88.3044 262.34 88.2794 262.706 88.1679C263.072 88.0564 263.407 87.8614 263.684 87.5984C263.962 87.3353 264.175 87.0114 264.306 86.652C263.931 86.5715 263.573 86.4292 263.245 86.2309C260.815 84.8297 258.88 80.6992 258.88 76.9817C258.844 75.9342 259.049 74.8924 259.479 73.9364C257.551 73.5558 256.158 75.3862 256.158 78.5529Z" fill="black"/>
<path d="M278.609 109.719C278.691 109.889 278.791 110.049 278.909 110.196C279.035 110.354 279.189 110.489 279.362 110.593C279.484 110.678 279.631 110.718 279.779 110.706C279.926 110.694 280.066 110.631 280.172 110.528C280.412 110.236 280.529 109.861 280.496 109.484C280.488 108.979 280.372 108.482 280.156 108.026C279.987 107.623 279.706 107.277 279.346 107.03C279.284 106.988 279.216 106.958 279.144 106.941C279.033 106.902 278.913 106.897 278.799 106.926C278.686 106.954 278.583 107.016 278.504 107.103C278.372 107.255 278.282 107.439 278.245 107.637C278.208 107.805 278.189 107.976 278.188 108.147C278.2 108.697 278.345 109.236 278.609 109.719Z" fill="#37474F"/>
<path d="M240.373 86.3199C240.384 87.0028 240.595 87.6675 240.981 88.2313C241.073 88.3634 241.179 88.4855 241.297 88.5957C241.378 88.6524 241.45 88.7172 241.531 88.7658C241.596 88.807 241.667 88.8371 241.742 88.8549C241.852 88.8918 241.97 88.8961 242.082 88.8674C242.194 88.8386 242.295 88.778 242.374 88.6929C242.604 88.3985 242.717 88.029 242.69 87.6562C242.681 86.9138 242.431 86.1944 241.977 85.6072L241.872 85.4857L241.758 85.3723C241.688 85.3086 241.612 85.2516 241.531 85.2022C240.892 84.8296 240.373 85.3399 240.373 86.3199Z" fill="#37474F"/>
<path d="M311.402 133.465L209.629 74.7059C209.359 74.5699 209.061 74.499 208.758 74.499C208.456 74.499 208.158 74.5699 207.888 74.7059L206.908 75.2728C206.654 75.4398 206.443 75.6637 206.291 75.9266C206.139 76.1896 206.051 76.4843 206.033 76.7874V232.047C206.05 232.349 206.139 232.643 206.291 232.905C206.442 233.166 206.654 233.389 206.908 233.553L308.681 292.312C308.95 292.452 309.249 292.525 309.552 292.525C309.855 292.525 310.153 292.452 310.422 292.312L311.402 291.745C311.657 291.581 311.868 291.359 312.02 291.097C312.172 290.835 312.26 290.541 312.277 290.239V134.979C312.261 134.676 312.173 134.38 312.021 134.117C311.869 133.854 311.657 133.63 311.402 133.465Z" fill="#F5F5F5"/>
<path d="M206.065 76.5204C206.179 76.164 206.511 76.0506 206.875 76.2774L308.681 135.036C308.939 135.199 309.151 135.425 309.297 135.692L312.018 134.121C311.877 133.852 311.664 133.627 311.402 133.473L209.629 74.7143C209.362 74.5745 209.064 74.5015 208.762 74.5015C208.461 74.5015 208.163 74.5745 207.896 74.7143L206.908 75.2731C206.692 75.4146 206.506 75.5978 206.361 75.8119C206.216 76.0261 206.116 76.2669 206.065 76.5204Z" fill="#FAFAFA"/>
<path d="M308.883 292.442C308.988 292.482 309.097 292.509 309.207 292.523H309.378C309.552 292.543 309.729 292.543 309.904 292.523C310.015 292.51 310.124 292.482 310.228 292.442L310.422 292.345L311.402 291.778C311.657 291.615 311.87 291.393 312.022 291.131C312.174 290.869 312.262 290.574 312.277 290.272V134.98C312.269 134.675 312.179 134.379 312.018 134.121L309.297 135.692C309.45 135.953 309.536 136.248 309.548 136.551V291.81C309.548 292.288 309.272 292.523 308.883 292.442Z" fill="#E0E0E0"/>
<path d="M268.68 97.8047L268.817 98.0315C269.142 98.5617 269.377 99.1418 269.514 99.7485C269.514 99.7971 269.514 99.8214 269.514 99.8457C269.516 99.8591 269.516 99.8727 269.514 99.8862L271.174 109.233L271.692 112.221C271.692 112.343 271.749 112.464 271.782 112.594C271.813 112.714 271.851 112.833 271.895 112.95C271.895 113.031 271.952 113.112 271.984 113.193L269.263 114.764C269.133 114.452 269.038 114.126 268.979 113.792L268.445 110.804L266.825 101.457C266.702 100.708 266.411 99.9968 265.974 99.3759L268.68 97.8047Z" fill="#7209B7" fill-opacity="0.5"/>
<path d="M287.421 127.958C287.696 128.395 287.955 128.832 288.231 129.27C288.344 129.48 288.458 129.691 288.563 129.901C288.668 130.112 288.822 130.444 288.935 130.711C289.049 130.979 289.195 131.311 289.308 131.618C289.421 131.926 289.535 132.234 289.64 132.542C289.745 132.849 289.875 133.262 289.972 133.627C290.037 133.862 290.102 134.097 290.166 134.348C290.318 134.92 290.455 135.503 290.58 136.097C290.58 136.3 290.669 136.51 290.701 136.713C290.733 136.915 290.806 137.215 290.847 137.458C290.847 137.458 290.847 137.458 290.847 137.498C290.847 137.693 290.847 137.822 290.75 137.879C290.737 137.885 290.723 137.888 290.709 137.888C290.695 137.888 290.681 137.885 290.669 137.879L288.328 136.049L287.947 135.749L287.761 135.611L287.559 135.449L287.397 135.328L287.259 135.214C286.575 132.738 285.435 130.412 283.898 128.354L286.619 126.783C286.886 127.172 287.162 127.569 287.421 127.958Z" fill="#7209B7" fill-opacity="0.5"/>
<path d="M257.973 77.2407C258.102 77.4513 258.216 77.6619 258.329 77.8725C258.403 77.9886 258.468 78.1105 258.523 78.2369C258.62 78.407 258.701 78.5852 258.791 78.7634C258.88 78.9415 258.936 79.0468 259.001 79.1926C259.139 79.468 259.26 79.7433 259.374 80.0025C259.487 80.2617 259.633 80.6018 259.746 80.9015C259.86 81.1688 259.949 81.4361 260.038 81.7114C260.184 82.1164 260.305 82.5213 260.418 82.9344C260.483 83.1531 260.532 83.3636 260.589 83.5742C260.587 83.5904 260.587 83.6066 260.589 83.6228C260.589 83.7362 260.645 83.8415 260.661 83.9549C260.726 84.2059 260.775 84.4651 260.815 84.7162C260.856 84.9673 260.896 85.113 260.953 85.3155C261.01 85.518 261.058 85.7367 261.123 85.9472C261.188 86.1578 261.253 86.3441 261.317 86.5466C261.317 86.5466 261.317 86.5466 261.317 86.6033C261.398 86.822 261.488 87.0487 261.585 87.2755C261.682 87.5023 261.763 87.721 261.876 87.9558C261.904 88.0165 261.928 88.0787 261.949 88.1421C262.03 88.3122 262.119 88.4823 262.2 88.6604L262.63 89.4704C262.727 89.6647 262.824 89.8429 262.929 90.0292L260.2 91.6004C259.219 89.9455 258.503 88.1473 258.078 86.2712C257.563 83.6193 256.593 81.0764 255.211 78.7553L257.973 77.2407Z" fill="#7209B7" fill-opacity="0.5"/>
<path d="M241.782 83.2991C241.918 83.2171 242.07 83.1673 242.228 83.1533C241.964 83.5752 241.608 83.9324 241.188 84.1987C240.767 84.465 240.292 84.6336 239.798 84.6922C239.564 84.6951 239.333 84.7447 239.118 84.8379L241.782 83.2991Z" fill="#7209B7" fill-opacity="0.5"/>
<path opacity="0.4" d="M241.782 83.2991C241.918 83.2171 242.07 83.1673 242.228 83.1533C241.964 83.5752 241.608 83.9324 241.188 84.1987C240.767 84.465 240.292 84.6336 239.798 84.6922C239.564 84.6951 239.333 84.7447 239.118 84.8379L241.782 83.2991Z" fill="white"/>
<path d="M231.634 95.1319C232.062 94.923 232.534 94.8212 233.009 94.8353C233.485 94.8494 233.949 94.979 234.364 95.2129C237.53 96.606 238.899 97.2377 240.535 97.918C240.851 100.024 239.612 100.218 238.996 99.9671C236.696 99.06 235.522 98.5011 231.634 96.7922C231.224 96.5618 230.763 96.4334 230.293 96.4179C229.822 96.4024 229.354 96.5002 228.929 96.7032L231.634 95.1319Z" fill="#7209B7" fill-opacity="0.5"/>
<path opacity="0.4" d="M231.634 95.1319C232.062 94.923 232.534 94.8212 233.009 94.8353C233.485 94.8494 233.949 94.979 234.364 95.2129C237.53 96.606 238.899 97.2377 240.535 97.918C240.851 100.024 239.612 100.218 238.996 99.9671C236.696 99.06 235.522 98.5011 231.634 96.7922C231.224 96.5618 230.763 96.4334 230.293 96.4179C229.822 96.4024 229.354 96.5002 228.929 96.7032L231.634 95.1319Z" fill="white"/>
<path d="M269.279 114.764C269.865 116.047 270.69 117.207 271.709 118.182L280.229 124.588C281.591 125.698 282.819 126.961 283.89 128.354L286.611 126.783C285.543 125.386 284.314 124.119 282.95 123.009L274.414 116.611C273.413 115.629 272.603 114.47 272.024 113.193L269.279 114.764Z" fill="#7209B7" fill-opacity="0.5"/>
<path opacity="0.4" d="M269.279 114.764C269.865 116.047 270.69 117.207 271.709 118.182L280.229 124.588C281.591 125.698 282.819 126.961 283.89 128.354L286.611 126.783C285.543 125.386 284.314 124.119 282.95 123.009L274.414 116.611C273.413 115.629 272.603 114.47 272.024 113.193L269.279 114.764Z" fill="white"/>
<path d="M260.24 91.6655C261.416 93.8386 262.863 95.8526 264.549 97.6588C265.08 98.1783 265.552 98.754 265.958 99.3758L268.68 97.8046C268.28 97.1779 267.807 96.6015 267.27 96.0876C265.588 94.2809 264.142 92.2668 262.97 90.0942L260.24 91.6655Z" fill="#7209B7" fill-opacity="0.5"/>
<path opacity="0.4" d="M260.24 91.6655C261.416 93.8386 262.863 95.8526 264.549 97.6588C265.08 98.1783 265.552 98.754 265.958 99.3758L268.68 97.8046C268.28 97.1779 267.807 96.6015 267.27 96.0876C265.588 94.2809 264.142 92.2668 262.97 90.0942L260.24 91.6655Z" fill="white"/>
<path d="M244.868 71.5556C245.873 71.0291 247.209 71.1182 248.78 71.9443C251.113 73.1673 253.461 75.759 255.259 78.8205L257.981 77.2006C256.199 74.1392 253.85 71.5313 251.501 70.3245C250.738 69.8936 249.883 69.652 249.007 69.6199C248.483 69.6132 247.966 69.7444 247.509 70.0005L244.868 71.5556Z" fill="#7209B7" fill-opacity="0.5"/>
<path opacity="0.4" d="M244.868 71.5556C245.873 71.0291 247.209 71.1182 248.78 71.9443C251.113 73.1673 253.461 75.759 255.259 78.8205L257.981 77.2006C256.199 74.1392 253.85 71.5313 251.501 70.3245C250.738 69.8936 249.883 69.652 249.007 69.6199C248.483 69.6132 247.966 69.7444 247.509 70.0005L244.868 71.5556Z" fill="white"/>
<path opacity="0.15" d="M283.865 128.354C285.403 130.412 286.543 132.738 287.227 135.214L287.364 135.328L287.526 135.449L287.729 135.611L287.915 135.749L288.296 136.048L290.604 137.895C290.617 137.901 290.63 137.904 290.644 137.904C290.658 137.904 290.672 137.901 290.685 137.895C290.774 137.838 290.814 137.709 290.782 137.514C290.782 137.514 290.782 137.514 290.782 137.474C290.782 137.231 290.693 136.98 290.636 136.729C290.58 136.478 290.555 136.316 290.515 136.113C290.391 135.525 290.253 134.942 290.102 134.364C290.037 134.113 289.972 133.878 289.907 133.643C289.81 133.279 289.697 132.922 289.575 132.558C289.454 132.193 289.365 131.942 289.243 131.634C289.122 131.327 289.008 131.027 288.871 130.727C288.733 130.428 288.628 130.169 288.498 129.917C288.368 129.666 288.279 129.496 288.166 129.286C287.931 128.848 287.672 128.411 287.356 127.974C287.04 127.536 286.822 127.164 286.546 126.799L283.865 128.354Z" fill="black"/>
<path opacity="0.15" d="M265.958 99.3759C266.395 99.9968 266.686 100.708 266.809 101.457L268.429 110.804L268.963 113.792C269.022 114.126 269.117 114.452 269.247 114.764L271.968 113.193C271.968 113.112 271.903 113.031 271.879 112.95C271.835 112.833 271.797 112.714 271.765 112.594C271.765 112.464 271.701 112.343 271.676 112.221L271.158 109.233L269.498 99.8862C269.5 99.8727 269.5 99.8591 269.498 99.8457C269.498 99.8457 269.498 99.7971 269.498 99.7485C269.361 99.1418 269.126 98.5617 268.801 98.0315L268.663 97.8047L265.958 99.3759Z" fill="black"/>
<path opacity="0.15" d="M255.251 78.8202C256.633 81.1414 257.603 83.6842 258.118 86.3362C258.544 88.2123 259.26 90.0104 260.24 91.6654L262.97 90.0941C262.864 89.9079 262.767 89.7297 262.67 89.5353L262.241 88.7254C262.16 88.5472 262.071 88.3771 261.99 88.207C261.969 88.1436 261.945 88.0814 261.917 88.0208C261.812 87.794 261.714 87.5591 261.625 87.3404C261.536 87.1218 261.439 86.8869 261.358 86.6682C261.358 86.6682 261.358 86.6277 261.358 86.6115C261.293 86.409 261.22 86.2147 261.164 86.0122C261.107 85.8097 261.042 85.591 260.994 85.3805C260.945 85.1699 260.896 84.9755 260.856 84.7811C260.815 84.5868 260.767 84.2709 260.702 84.0198C260.702 83.9064 260.653 83.8011 260.629 83.6877C260.628 83.6716 260.628 83.6553 260.629 83.6392C260.572 83.4286 260.524 83.218 260.459 82.9993C260.346 82.5863 260.224 82.1894 260.078 81.7764C259.989 81.501 259.9 81.2337 259.787 80.9665C259.673 80.6668 259.544 80.3671 259.414 80.0675C259.285 79.7678 259.179 79.5167 259.042 79.2575C258.977 79.1118 258.904 78.9741 258.831 78.8283C258.758 78.6825 258.661 78.4719 258.564 78.3018C258.509 78.1754 258.444 78.0535 258.369 77.9374C258.256 77.7268 258.143 77.5162 258.013 77.3057L255.251 78.8202Z" fill="black"/>
<path d="M290.628 137.895L288.328 136.048C289.243 136.785 290.49 137.749 290.628 137.895Z" fill="#7209B7" fill-opacity="0.5"/>
<path d="M228.921 96.7194C229.347 96.5165 229.816 96.418 230.288 96.4321C230.759 96.4462 231.221 96.5725 231.634 96.8004C235.514 98.5174 236.688 99.0763 238.988 99.9915C239.604 100.234 240.843 100.04 240.527 97.9343C240.53 97.8884 240.53 97.8424 240.527 97.7966L240.001 94.808L238.527 86.6603C238.527 86.6603 238.195 85.3726 239.045 84.8947H239.11C239.319 84.792 239.549 84.742 239.782 84.749C240.278 84.688 240.753 84.5167 241.174 84.2476C241.594 83.9785 241.949 83.6184 242.212 83.1939C242.667 82.5177 242.982 81.7574 243.139 80.9577C243.296 80.158 243.292 79.335 243.127 78.537C242.503 75.0381 243.184 72.5922 244.747 71.6851L244.868 71.6041C245.873 71.0777 247.209 71.1668 248.78 71.9929C252.919 74.1634 257.098 80.6022 258.118 86.385C258.758 90.0296 262.427 95.6422 264.549 97.7237C266.671 99.8052 266.809 101.522 266.809 101.522L268.429 110.869L268.963 113.857C269.352 116.092 271.644 118.255 271.644 118.255L280.229 124.588C283.635 127.298 286.094 131.019 287.251 135.214C287.251 135.214 290.49 137.693 290.652 137.895L289.559 137.272L230.662 103.409C230.662 103.409 229.982 103.045 229.853 102.948C229.723 102.85 227.334 100.615 227.334 100.615C227.374 98.6875 227.933 97.3107 228.921 96.7194ZM245.929 79.5412C246.561 83.0968 249.12 87.0572 251.663 88.3936C253.421 89.3088 254.709 88.7418 255.138 87.122C255.326 86.2138 255.326 85.2765 255.138 84.3683C254.514 80.8128 251.939 76.8523 249.396 75.5241C249.16 75.396 248.914 75.2903 248.659 75.2082C246.577 74.5765 245.403 76.3502 245.945 79.5412H245.929Z" fill="#7209B7" fill-opacity="0.5"/>
<path d="M290.62 137.903L230.622 103.417L229.812 102.955C229.666 102.866 227.293 100.615 227.293 100.615L287.226 135.214C287.226 135.214 290.855 138.033 290.62 137.903Z" fill="#7209B7" fill-opacity="0.5"/>
<path opacity="0.3" d="M290.62 137.903L230.622 103.417L229.812 102.955C229.666 102.866 227.293 100.615 227.293 100.615L287.226 135.214C287.226 135.214 290.855 138.033 290.62 137.903Z" fill="black"/>
<path d="M248.642 75.2083C248.897 75.2904 249.144 75.3961 249.379 75.5242C251.923 76.8524 254.498 80.8129 255.122 84.3684C255.31 85.2766 255.31 86.2139 255.122 87.1221C254.692 88.7419 253.405 89.3088 251.647 88.3936C249.104 87.0573 246.545 83.0968 245.913 79.5413C245.403 76.3503 246.577 74.5766 248.642 75.2083ZM254.96 87.0573C255.139 86.1808 255.139 85.2772 254.96 84.4008C254.336 80.8858 251.801 76.9739 249.29 75.67C249.082 75.5597 248.865 75.4649 248.642 75.3865C248.476 76.2424 248.476 77.1223 248.642 77.9782C249.266 81.5337 251.833 85.4942 254.385 86.8305C254.57 86.9281 254.762 87.0121 254.96 87.0816V87.0573Z" fill="#7209B7" fill-opacity="0.5"/>
<path opacity="0.4" d="M248.642 75.2083C248.897 75.2904 249.144 75.3961 249.379 75.5242C251.923 76.8524 254.498 80.8129 255.122 84.3684C255.31 85.2766 255.31 86.2139 255.122 87.1221C254.692 88.7419 253.405 89.3088 251.647 88.3936C249.104 87.0573 246.545 83.0968 245.913 79.5413C245.403 76.3503 246.577 74.5766 248.642 75.2083ZM254.96 87.0573C255.139 86.1808 255.139 85.2772 254.96 84.4008C254.336 80.8858 251.801 76.9739 249.29 75.67C249.082 75.5597 248.865 75.4649 248.642 75.3865C248.476 76.2424 248.476 77.1223 248.642 77.9782C249.266 81.5337 251.833 85.4942 254.385 86.8305C254.57 86.9281 254.762 87.0121 254.96 87.0816V87.0573Z" fill="black"/>
<path d="M295.884 183.663C296.012 183.664 296.138 183.63 296.249 183.566C296.382 183.48 296.489 183.359 296.558 183.216C296.626 183.073 296.654 182.914 296.638 182.756V179.298C296.626 178.987 296.538 178.684 296.383 178.414C296.228 178.145 296.009 177.917 295.747 177.751L292.726 176.009C292.601 175.927 292.455 175.88 292.305 175.875C292.154 175.871 292.006 175.908 291.876 175.983C291.746 176.057 291.639 176.167 291.567 176.299C291.496 176.431 291.462 176.58 291.47 176.73V180.221C291.481 180.532 291.568 180.836 291.723 181.105C291.879 181.375 292.098 181.602 292.361 181.768L295.382 183.517C295.534 183.609 295.707 183.659 295.884 183.663ZM292.224 176.584C292.272 176.598 292.318 176.617 292.361 176.641L295.382 178.382C295.534 178.485 295.66 178.62 295.752 178.779C295.843 178.938 295.897 179.115 295.909 179.298V182.788C295.922 182.836 295.922 182.886 295.909 182.934C295.86 182.926 295.814 182.91 295.771 182.885L292.75 181.136C292.598 181.034 292.472 180.898 292.381 180.74C292.289 180.581 292.236 180.403 292.224 180.221V176.73C292.22 176.695 292.22 176.66 292.224 176.625V176.584Z" fill="#455A64"/>
<path d="M288.903 175.507L276.997 168.631C276.6 168.404 276.285 168.582 276.285 169.036V169.967C276.299 170.213 276.371 170.452 276.495 170.664C276.618 170.877 276.791 171.057 276.997 171.19L288.903 178.066C289.292 178.293 289.616 178.115 289.616 177.662V176.73C289.602 176.485 289.53 176.246 289.406 176.033C289.282 175.821 289.11 175.641 288.903 175.507Z" fill="#E0E0E0"/>
<path d="M266.379 166.63C266.507 166.632 266.633 166.598 266.744 166.533C266.879 166.448 266.987 166.328 267.057 166.185C267.127 166.042 267.156 165.882 267.141 165.723V162.233C267.127 161.921 267.038 161.618 266.882 161.349C266.725 161.079 266.505 160.852 266.242 160.686L263.221 158.944C263.096 158.855 262.948 158.803 262.794 158.794C262.641 158.786 262.488 158.821 262.354 158.896C262.223 158.974 262.118 159.088 262.049 159.225C261.98 159.361 261.951 159.513 261.965 159.665V163.156C261.976 163.467 262.063 163.771 262.218 164.04C262.374 164.31 262.593 164.538 262.856 164.703L265.877 166.452C266.026 166.555 266.199 166.617 266.379 166.63ZM262.727 159.552C262.771 159.568 262.814 159.587 262.856 159.609L265.877 161.35C266.03 161.452 266.158 161.587 266.25 161.746C266.343 161.904 266.398 162.082 266.412 162.265V165.756C266.428 165.803 266.428 165.854 266.412 165.902C266.364 165.892 266.317 165.876 266.274 165.853L263.253 164.104C263.1 164.002 262.973 163.867 262.882 163.708C262.791 163.549 262.738 163.371 262.727 163.188V159.698C262.712 159.65 262.712 159.599 262.727 159.552Z" fill="#455A64"/>
<path d="M259.398 158.475L247.492 151.599C247.095 151.372 246.78 151.55 246.78 152.004V152.935C246.794 153.181 246.866 153.419 246.99 153.632C247.113 153.844 247.286 154.025 247.492 154.158L259.398 161.034C259.795 161.261 260.111 161.083 260.111 160.629V159.698C260.092 159.453 260.018 159.216 259.895 159.004C259.772 158.793 259.602 158.612 259.398 158.475Z" fill="#E0E0E0"/>
<path d="M236.883 149.598C237.01 149.599 237.136 149.565 237.247 149.501C237.379 149.414 237.485 149.293 237.553 149.15C237.622 149.007 237.65 148.849 237.636 148.691V145.201C237.623 144.89 237.535 144.587 237.38 144.318C237.225 144.048 237.007 143.821 236.745 143.654L233.724 141.912C233.598 141.827 233.45 141.778 233.298 141.773C233.146 141.767 232.995 141.804 232.863 141.88C232.731 141.956 232.624 142.068 232.552 142.203C232.481 142.337 232.449 142.489 232.46 142.641V146.124C232.473 146.436 232.561 146.739 232.718 147.009C232.874 147.279 233.095 147.506 233.359 147.671L236.38 149.42C236.528 149.524 236.702 149.586 236.883 149.598ZM236.38 144.318C236.531 144.421 236.656 144.557 236.747 144.716C236.839 144.874 236.893 145.051 236.907 145.233V148.724C236.923 148.771 236.923 148.822 236.907 148.869C236.86 148.864 236.816 148.848 236.777 148.821L233.756 147.071C233.603 146.97 233.476 146.834 233.383 146.676C233.29 146.517 233.235 146.339 233.222 146.156V142.674C233.207 142.623 233.207 142.57 233.222 142.52C233.222 142.52 233.27 142.52 233.359 142.576L236.38 144.318Z" fill="#455A64"/>
<path d="M229.893 141.443L217.987 134.567C217.599 134.34 217.275 134.518 217.275 134.972V135.903C217.293 136.147 217.367 136.385 217.49 136.596C217.614 136.808 217.784 136.989 217.987 137.126L229.893 144.002C230.29 144.229 230.606 144.051 230.606 143.597V142.666C230.592 142.42 230.52 142.181 230.396 141.969C230.272 141.756 230.1 141.576 229.893 141.443Z" fill="#E0E0E0"/>
<path d="M288.871 158.467V159.828C288.871 160.573 288.352 160.872 287.712 160.5L218.06 120.32C217.723 120.098 217.442 119.8 217.241 119.45C217.039 119.1 216.923 118.707 216.902 118.303V116.935C216.902 116.198 217.42 115.898 218.06 116.262L287.712 156.45C288.05 156.672 288.331 156.97 288.532 157.32C288.733 157.671 288.849 158.063 288.871 158.467Z" fill="#E0E0E0"/>
<path d="M294.175 147.841V149.202C294.175 149.947 293.657 150.246 293.009 149.874L223.397 109.694C223.057 109.474 222.774 109.177 222.572 108.826C222.369 108.476 222.252 108.082 222.231 107.677V106.309C222.231 105.572 222.749 105.272 223.397 105.637L293.009 145.849C293.346 146.066 293.627 146.36 293.83 146.706C294.032 147.052 294.151 147.441 294.175 147.841Z" fill="#455A64"/>
<path d="M288.871 166.703V168.072C288.871 168.809 288.352 169.109 287.712 168.744L218.06 128.565C217.723 128.343 217.442 128.045 217.241 127.695C217.039 127.344 216.923 126.952 216.902 126.548V125.179C216.902 124.442 217.42 124.143 218.06 124.507L287.712 164.695C288.049 164.916 288.329 165.213 288.53 165.561C288.731 165.91 288.848 166.301 288.871 166.703Z" fill="#E0E0E0"/>
<path d="M296.5 167.408C294.678 165.602 294.224 164.833 294.224 164.169C294.224 163.505 294.491 163.148 295.309 163.618C295.663 163.824 295.967 164.104 296.201 164.44C296.435 164.776 296.592 165.159 296.662 165.562L298.654 166.007C298.481 164.963 298.087 163.968 297.499 163.089C296.911 162.209 296.143 161.464 295.245 160.905C293.252 159.755 292.094 160.613 292.094 162.525C292.205 164.385 293.015 166.135 294.362 167.424V169.004L296.5 170.235V167.408Z" fill="#455A64"/>
<path d="M296.524 172.657C296.527 172.267 296.429 171.884 296.239 171.545C296.048 171.205 295.773 170.921 295.439 170.721C294.726 170.308 294.362 170.672 294.362 171.409C294.356 171.8 294.452 172.186 294.641 172.529C294.83 172.871 295.105 173.158 295.439 173.361C296.16 173.774 296.524 173.386 296.524 172.657Z" fill="#455A64"/>
<path d="M295.415 179.298L294.524 179.97L295.334 181.509C295.403 181.603 295.441 181.716 295.441 181.833C295.441 181.95 295.403 182.063 295.334 182.157C295.18 182.27 294.961 182.157 294.832 181.914L294.022 180.383L293.131 181.055C293.001 181.153 292.807 181.055 292.693 180.845C292.634 180.764 292.601 180.666 292.601 180.565C292.601 180.465 292.634 180.367 292.693 180.286L293.584 179.614L292.774 178.075C292.705 177.981 292.667 177.868 292.667 177.751C292.667 177.634 292.705 177.521 292.774 177.427C292.928 177.314 293.147 177.427 293.277 177.67L294.086 179.209L294.977 178.537C295.107 178.439 295.301 178.537 295.415 178.739C295.475 178.82 295.507 178.918 295.507 179.018C295.507 179.119 295.475 179.217 295.415 179.298Z" fill="#7209B7" fill-opacity="0.5"/>
<path d="M295.884 214.415C296.012 214.419 296.138 214.388 296.249 214.326C296.382 214.24 296.489 214.119 296.558 213.976C296.626 213.833 296.654 213.674 296.638 213.516V210.026C296.627 209.715 296.54 209.411 296.385 209.141C296.229 208.872 296.01 208.644 295.747 208.479L292.726 206.737C292.601 206.655 292.455 206.608 292.305 206.603C292.154 206.599 292.006 206.636 291.876 206.711C291.746 206.785 291.639 206.895 291.567 207.027C291.496 207.159 291.462 207.308 291.47 207.458V210.949C291.481 211.26 291.568 211.564 291.723 211.833C291.879 212.103 292.098 212.33 292.361 212.496L295.382 214.237C295.531 214.34 295.704 214.402 295.884 214.415ZM292.224 207.345C292.273 207.354 292.32 207.373 292.361 207.401L295.382 209.143C295.534 209.245 295.66 209.381 295.752 209.539C295.843 209.698 295.897 209.875 295.909 210.058V213.549C295.922 213.596 295.922 213.647 295.909 213.694C295.86 213.686 295.814 213.67 295.771 213.646L292.75 211.896C292.598 211.794 292.472 211.659 292.381 211.5C292.289 211.341 292.236 211.164 292.224 210.981V207.491C292.216 207.442 292.216 207.393 292.224 207.345Z" fill="#455A64"/>
<path d="M288.903 206.259L276.997 199.391C276.6 199.164 276.285 199.343 276.285 199.796V200.72C276.298 200.966 276.369 201.207 276.493 201.421C276.617 201.635 276.79 201.816 276.997 201.951L288.903 208.827C289.292 209.054 289.616 208.867 289.616 208.414V207.49C289.602 207.244 289.53 207.003 289.407 206.79C289.283 206.576 289.11 206.394 288.903 206.259Z" fill="#E0E0E0"/>
<path d="M266.379 197.383C266.507 197.387 266.633 197.356 266.744 197.294C266.879 197.209 266.987 197.088 267.057 196.945C267.127 196.802 267.156 196.643 267.141 196.484V192.993C267.128 192.682 267.04 192.378 266.883 192.108C266.727 191.839 266.506 191.611 266.242 191.446L263.221 189.705C263.096 189.616 262.948 189.564 262.794 189.555C262.641 189.546 262.488 189.582 262.354 189.657C262.223 189.735 262.118 189.849 262.049 189.985C261.98 190.121 261.951 190.274 261.965 190.426V193.917C261.976 194.228 262.063 194.531 262.218 194.801C262.374 195.071 262.593 195.298 262.856 195.464L265.877 197.205C266.026 197.308 266.199 197.37 266.379 197.383ZM262.727 190.313C262.773 190.324 262.817 190.343 262.856 190.369L265.877 192.111C266.03 192.212 266.158 192.348 266.25 192.506C266.343 192.665 266.398 192.843 266.412 193.026V196.517C266.428 196.564 266.428 196.615 266.412 196.662C266.364 196.653 266.317 196.637 266.274 196.614L263.253 194.864C263.101 194.762 262.975 194.626 262.884 194.468C262.792 194.309 262.739 194.132 262.727 193.949V190.458C262.712 190.411 262.712 190.36 262.727 190.313Z" fill="#455A64"/>
<path d="M259.398 189.227L247.492 182.359C247.095 182.132 246.78 182.31 246.78 182.764V183.687C246.793 183.934 246.864 184.175 246.988 184.389C247.112 184.603 247.285 184.784 247.492 184.918L259.398 191.795C259.795 192.021 260.111 191.795 260.111 191.381V190.458C260.093 190.212 260.02 189.974 259.897 189.76C259.773 189.547 259.603 189.365 259.398 189.227Z" fill="#E0E0E0"/>
<path d="M236.883 180.351C237.01 180.354 237.136 180.323 237.247 180.262C237.379 180.174 237.485 180.053 237.553 179.91C237.622 179.768 237.65 179.609 237.636 179.452V175.961C237.623 175.65 237.535 175.347 237.38 175.078C237.225 174.809 237.007 174.581 236.745 174.414L233.724 172.673C233.599 172.588 233.452 172.539 233.3 172.533C233.149 172.527 232.999 172.564 232.867 172.639C232.736 172.714 232.628 172.825 232.556 172.958C232.484 173.091 232.451 173.242 232.46 173.394V176.884C232.473 177.196 232.561 177.5 232.718 177.769C232.874 178.039 233.095 178.266 233.359 178.431L236.38 180.172C236.528 180.276 236.702 180.338 236.883 180.351ZM236.38 175.078C236.531 175.182 236.656 175.318 236.747 175.476C236.839 175.634 236.893 175.811 236.907 175.993V179.484C236.923 179.531 236.923 179.583 236.907 179.63C236.862 179.619 236.818 179.603 236.777 179.581L233.756 177.832C233.603 177.73 233.476 177.595 233.383 177.436C233.29 177.277 233.235 177.1 233.222 176.917V173.426C233.207 173.378 233.207 173.328 233.222 173.28C233.27 173.292 233.317 173.311 233.359 173.337L236.38 175.078Z" fill="#455A64"/>
<path d="M229.893 172.195L217.987 165.327C217.599 165.1 217.275 165.278 217.275 165.732V166.655C217.292 166.901 217.365 167.14 217.489 167.353C217.612 167.566 217.783 167.749 217.987 167.886L229.893 174.762C230.29 174.989 230.606 174.803 230.606 174.349V173.426C230.593 173.179 230.521 172.939 230.398 172.725C230.274 172.511 230.101 172.329 229.893 172.195Z" fill="#E0E0E0"/>
<path d="M288.871 189.219V190.588C288.871 191.325 288.352 191.624 287.712 191.26L218.06 151.08C217.723 150.859 217.442 150.561 217.241 150.21C217.039 149.86 216.923 149.467 216.902 149.064V147.695C216.902 146.958 217.42 146.658 218.06 147.023L287.712 187.21C288.049 187.431 288.329 187.728 288.53 188.077C288.731 188.426 288.848 188.817 288.871 189.219Z" fill="#E0E0E0"/>
<path d="M288.871 197.464V198.833C288.871 199.57 288.352 199.869 287.712 199.505L218.06 159.317C217.722 159.098 217.44 158.802 217.239 158.452C217.038 158.103 216.922 157.711 216.902 157.308V155.94C216.902 155.195 217.42 154.895 218.06 155.267L287.712 195.455C288.049 195.676 288.329 195.973 288.53 196.322C288.731 196.671 288.848 197.062 288.871 197.464Z" fill="#E0E0E0"/>
<path d="M296.5 198.168C294.678 196.362 294.224 195.593 294.224 194.929C294.224 194.265 294.491 193.908 295.309 194.378C295.663 194.584 295.967 194.864 296.201 195.2C296.435 195.536 296.592 195.919 296.662 196.322L298.654 196.767C298.481 195.723 298.087 194.728 297.499 193.849C296.911 192.969 296.143 192.224 295.245 191.665C293.252 190.515 292.094 191.373 292.094 193.325C292.205 195.186 293.015 196.936 294.362 198.225V199.804L296.5 201.035V198.168Z" fill="#455A64"/>
<path d="M296.524 203.417C296.527 203.028 296.429 202.644 296.239 202.305C296.048 201.965 295.773 201.681 295.439 201.481C294.726 201.068 294.362 201.433 294.362 202.17C294.356 202.56 294.453 202.946 294.642 203.288C294.831 203.63 295.105 203.918 295.439 204.122C296.16 204.535 296.524 204.162 296.524 203.417Z" fill="#455A64"/>
<path d="M265.91 192.993L265.019 193.665L265.829 195.204C265.898 195.298 265.936 195.411 265.936 195.528C265.936 195.645 265.898 195.758 265.829 195.852C265.683 195.965 265.456 195.852 265.327 195.609L264.517 194.078L263.626 194.751C263.496 194.848 263.302 194.751 263.197 194.54C263.137 194.459 263.104 194.361 263.104 194.261C263.104 194.16 263.137 194.062 263.197 193.981L264.087 193.309L263.278 191.77C263.212 191.673 263.181 191.556 263.188 191.439C263.195 191.322 263.241 191.211 263.318 191.122C263.464 191.017 263.691 191.122 263.82 191.365L264.63 192.904L265.521 192.232C265.642 192.135 265.837 192.232 265.95 192.434C266.006 192.519 266.032 192.62 266.024 192.721C266.017 192.822 265.977 192.917 265.91 192.993Z" fill="#7209B7" fill-opacity="0.5"/>
<path d="M295.884 245.176C296.012 245.176 296.138 245.143 296.249 245.079C296.38 245 296.485 244.886 296.554 244.75C296.623 244.614 296.652 244.461 296.638 244.309V240.819C296.627 240.508 296.54 240.204 296.385 239.934C296.23 239.664 296.01 239.437 295.747 239.272L292.726 237.53C292.601 237.448 292.455 237.401 292.305 237.396C292.155 237.392 292.006 237.429 291.876 237.504C291.746 237.578 291.639 237.688 291.567 237.82C291.496 237.952 291.462 238.101 291.47 238.251V241.742C291.481 242.053 291.568 242.357 291.723 242.626C291.879 242.896 292.098 243.123 292.361 243.289L295.382 245.03C295.534 245.122 295.707 245.172 295.884 245.176ZM292.224 238.105C292.273 238.114 292.32 238.134 292.361 238.162L295.382 239.903C295.534 240.006 295.661 240.141 295.752 240.3C295.843 240.459 295.897 240.636 295.909 240.819V244.309C295.921 244.357 295.921 244.407 295.909 244.455C295.859 244.446 295.812 244.427 295.771 244.398L292.75 242.657C292.598 242.555 292.472 242.419 292.381 242.261C292.289 242.102 292.236 241.924 292.224 241.742V238.251C292.216 238.203 292.216 238.154 292.224 238.105Z" fill="#455A64"/>
<path d="M288.903 237.02L276.997 230.144C276.6 229.917 276.285 230.103 276.285 230.557V231.48C276.298 231.727 276.369 231.967 276.493 232.181C276.617 232.395 276.79 232.577 276.997 232.711L288.903 239.587C289.292 239.814 289.616 239.628 289.616 239.174V238.251C289.602 238.004 289.53 237.764 289.407 237.55C289.283 237.336 289.11 237.154 288.903 237.02Z" fill="#E0E0E0"/>
<path d="M266.379 228.143C266.507 228.145 266.633 228.111 266.744 228.046C266.876 227.969 266.983 227.855 267.054 227.719C267.124 227.583 267.154 227.43 267.141 227.277V223.786C267.128 223.475 267.04 223.171 266.883 222.901C266.727 222.631 266.506 222.404 266.242 222.239L263.221 220.498C263.094 220.412 262.947 220.362 262.795 220.352C262.643 220.342 262.491 220.373 262.354 220.441C262.222 220.528 262.116 220.65 262.048 220.792C261.979 220.935 261.951 221.094 261.965 221.251V224.742C261.976 225.053 262.063 225.357 262.218 225.626C262.374 225.896 262.593 226.123 262.856 226.289L265.877 228.03C266.032 228.111 266.205 228.15 266.379 228.143ZM262.727 221.073C262.773 221.084 262.817 221.104 262.856 221.13L265.877 222.871C266.03 222.973 266.158 223.108 266.25 223.267C266.343 223.425 266.398 223.603 266.412 223.786V227.277C266.426 227.324 266.426 227.375 266.412 227.423C266.363 227.412 266.316 227.393 266.274 227.366L263.221 225.625C263.069 225.522 262.943 225.387 262.851 225.228C262.76 225.07 262.706 224.892 262.694 224.709V221.219C262.688 221.168 262.7 221.117 262.727 221.073Z" fill="#455A64"/>
<path d="M259.398 219.987L247.492 213.111C247.095 212.892 246.78 213.071 246.78 213.524V214.448C246.793 214.694 246.864 214.935 246.988 215.149C247.112 215.363 247.285 215.544 247.492 215.679L259.398 222.555C259.795 222.781 260.111 222.595 260.111 222.142V221.218C260.093 220.972 260.02 220.734 259.897 220.52C259.773 220.307 259.603 220.125 259.398 219.987Z" fill="#E0E0E0"/>
<path d="M236.883 211.111C237.01 211.111 237.136 211.078 237.247 211.014C237.378 210.935 237.483 210.821 237.552 210.685C237.621 210.549 237.65 210.396 237.636 210.244V206.753C237.625 206.442 237.538 206.139 237.383 205.869C237.228 205.599 237.009 205.372 236.745 205.207L233.724 203.465C233.6 203.377 233.454 203.325 233.302 203.316C233.151 203.307 233 203.34 232.866 203.413C232.733 203.486 232.622 203.594 232.548 203.727C232.473 203.859 232.437 204.01 232.444 204.162V207.652C232.457 207.964 232.545 208.268 232.702 208.538C232.858 208.807 233.079 209.034 233.343 209.199L236.364 210.941C236.518 211.044 236.697 211.103 236.883 211.111ZM236.38 205.838C236.531 205.942 236.656 206.078 236.747 206.236C236.839 206.394 236.893 206.571 236.907 206.753V210.244C236.921 210.292 236.921 210.342 236.907 210.39C236.861 210.378 236.817 210.359 236.777 210.333L233.756 208.592C233.603 208.49 233.476 208.355 233.383 208.196C233.291 208.038 233.235 207.86 233.222 207.677V204.162C233.207 204.114 233.207 204.063 233.222 204.016C233.269 204.027 233.316 204.043 233.359 204.065L236.38 205.838Z" fill="#455A64"/>
<path d="M229.893 202.955L217.987 196.079C217.599 195.86 217.275 196.079 217.275 196.492V197.415C217.292 197.661 217.365 197.9 217.489 198.113C217.612 198.327 217.783 198.509 217.987 198.646L229.893 205.522C230.29 205.749 230.606 205.563 230.606 205.109V204.162C230.589 203.919 230.516 203.684 230.392 203.474C230.268 203.265 230.098 203.087 229.893 202.955Z" fill="#E0E0E0"/>
<path d="M288.871 219.979V221.348C288.871 222.085 288.352 222.385 287.712 222.02L218.06 181.833C217.722 181.614 217.44 181.317 217.239 180.968C217.038 180.619 216.922 180.227 216.902 179.824V178.455C216.902 177.718 217.42 177.411 218.06 177.783L287.712 217.971C288.049 218.192 288.329 218.489 288.53 218.837C288.731 219.186 288.848 219.577 288.871 219.979Z" fill="#E0E0E0"/>
<path d="M288.871 228.225V229.593C288.871 230.33 288.352 230.63 287.712 230.257L218.06 190.078C217.723 189.858 217.442 189.561 217.241 189.212C217.039 188.863 216.923 188.472 216.902 188.069V186.7C216.902 185.955 217.42 185.656 218.06 186.028L287.712 226.216C288.05 226.436 288.331 226.733 288.532 227.082C288.733 227.431 288.849 227.822 288.871 228.225Z" fill="#E0E0E0"/>
<path d="M296.5 228.929C294.678 227.123 294.224 226.353 294.224 225.689C294.224 225.025 294.491 224.661 295.309 225.138C295.663 225.344 295.967 225.625 296.201 225.96C296.435 226.296 296.592 226.679 296.662 227.082L298.654 227.52C298.48 226.477 298.085 225.484 297.498 224.606C296.91 223.727 296.142 222.984 295.245 222.425C293.252 221.275 292.094 222.134 292.094 224.045C292.205 225.906 293.015 227.656 294.362 228.945V230.524L296.5 231.755V228.929Z" fill="#455A64"/>
<path d="M296.524 234.177C296.528 233.787 296.43 233.402 296.24 233.061C296.049 232.72 295.773 232.435 295.439 232.233C294.726 231.828 294.362 232.193 294.362 232.93C294.357 233.321 294.454 233.706 294.643 234.048C294.832 234.39 295.106 234.677 295.439 234.882C296.16 235.295 296.524 234.938 296.524 234.177Z" fill="#455A64"/>
<path d="M236.405 206.721L235.522 207.393L236.332 208.932C236.403 209.025 236.441 209.139 236.441 209.256C236.441 209.373 236.403 209.487 236.332 209.58C236.186 209.694 235.959 209.58 235.83 209.337L235.02 207.798L234.129 208.471C233.999 208.568 233.813 208.471 233.7 208.268C233.639 208.188 233.605 208.09 233.605 207.989C233.605 207.888 233.639 207.79 233.7 207.709L234.591 207.037L233.781 205.498C233.719 205.399 233.69 205.284 233.697 205.168C233.704 205.052 233.748 204.941 233.821 204.85C233.967 204.737 234.194 204.85 234.323 205.093L235.133 206.632L236.024 205.952C236.154 205.855 236.348 205.952 236.453 206.162C236.508 206.248 236.532 206.349 236.524 206.45C236.515 206.551 236.473 206.646 236.405 206.721Z" fill="#7209B7" fill-opacity="0.5"/>
<path d="M295.884 275.936C296.012 275.937 296.138 275.903 296.249 275.839C296.38 275.76 296.485 275.646 296.554 275.51C296.623 275.374 296.652 275.221 296.638 275.07V271.579C296.627 271.268 296.54 270.964 296.385 270.695C296.23 270.425 296.01 270.197 295.747 270.032L292.726 268.283C292.598 268.201 292.451 268.153 292.299 268.144C292.147 268.136 291.996 268.167 291.859 268.234C291.726 268.32 291.619 268.441 291.55 268.584C291.482 268.727 291.454 268.886 291.47 269.044V272.535C291.483 272.845 291.571 273.148 291.726 273.417C291.881 273.687 292.099 273.915 292.361 274.082L295.382 275.823C295.537 275.903 295.71 275.942 295.884 275.936ZM292.224 268.866C292.272 268.874 292.319 268.89 292.361 268.914L295.382 270.664C295.534 270.766 295.661 270.902 295.752 271.06C295.843 271.219 295.897 271.396 295.909 271.579V275.07C295.921 275.117 295.921 275.168 295.909 275.215C295.861 275.202 295.815 275.183 295.771 275.159L292.75 273.417C292.598 273.315 292.472 273.18 292.381 273.021C292.289 272.862 292.236 272.685 292.224 272.502V269.012C292.215 268.963 292.215 268.914 292.224 268.866Z" fill="#455A64"/>
<path d="M288.903 267.78L276.997 260.904C276.6 260.677 276.285 260.864 276.285 261.317V262.241C276.298 262.488 276.369 262.728 276.493 262.942C276.617 263.156 276.79 263.337 276.997 263.472L288.903 270.348C289.292 270.575 289.616 270.348 289.616 269.935V269.011C289.602 268.765 289.53 268.525 289.407 268.311C289.283 268.097 289.11 267.915 288.903 267.78Z" fill="#E0E0E0"/>
<path d="M266.38 258.904C266.508 258.905 266.634 258.871 266.744 258.806C266.883 258.726 266.995 258.606 267.066 258.462C267.136 258.318 267.162 258.156 267.141 257.996V254.506C267.129 254.194 267.04 253.89 266.884 253.621C266.727 253.351 266.507 253.124 266.242 252.959L263.221 251.209C263.095 251.126 262.948 251.08 262.798 251.075C262.647 251.071 262.497 251.108 262.367 251.184C262.236 251.26 262.13 251.371 262.059 251.504C261.988 251.637 261.956 251.788 261.966 251.938V255.429C261.976 255.74 262.063 256.044 262.218 256.313C262.374 256.583 262.593 256.811 262.856 256.976L265.877 258.717C266.025 258.823 266.198 258.888 266.38 258.904ZM262.727 251.833C262.772 251.843 262.816 251.86 262.856 251.882L265.877 253.631C266.03 253.733 266.158 253.868 266.25 254.027C266.343 254.185 266.398 254.363 266.412 254.546V258.037C266.426 258.084 266.426 258.135 266.412 258.183C266.365 258.168 266.318 258.149 266.274 258.126L263.253 256.385C263.101 256.282 262.975 256.147 262.884 255.988C262.793 255.83 262.739 255.652 262.727 255.47V251.946C262.717 251.909 262.717 251.87 262.727 251.833Z" fill="#455A64"/>
<path d="M259.398 250.748L247.492 243.871C247.095 243.645 246.78 243.872 246.78 244.285V245.208C246.793 245.455 246.864 245.695 246.988 245.909C247.112 246.123 247.285 246.305 247.492 246.439L259.398 253.315C259.795 253.542 260.111 253.356 260.111 252.902V251.946C260.089 251.706 260.013 251.474 259.89 251.266C259.767 251.059 259.599 250.882 259.398 250.748Z" fill="#E0E0E0"/>
<path d="M236.883 241.871C237.01 241.872 237.136 241.838 237.247 241.774C237.378 241.695 237.483 241.581 237.552 241.445C237.621 241.309 237.65 241.156 237.636 241.005V237.514C237.625 237.203 237.538 236.899 237.383 236.63C237.228 236.36 237.009 236.132 236.745 235.967L233.724 234.218C233.594 234.136 233.446 234.088 233.293 234.08C233.14 234.071 232.987 234.102 232.849 234.169C232.717 234.256 232.611 234.378 232.543 234.52C232.474 234.663 232.446 234.821 232.46 234.979V238.47C232.474 238.781 232.563 239.084 232.72 239.354C232.876 239.623 233.096 239.851 233.359 240.017L236.38 241.758C236.535 241.839 236.708 241.878 236.883 241.871ZM236.38 236.599C236.531 236.702 236.656 236.838 236.747 236.997C236.839 237.155 236.893 237.332 236.907 237.514V241.005C236.921 241.052 236.921 241.103 236.907 241.15C236.862 241.134 236.819 241.115 236.777 241.094L233.756 239.352C233.603 239.251 233.476 239.115 233.383 238.957C233.291 238.798 233.235 238.62 233.222 238.437V234.938C233.206 234.891 233.206 234.84 233.222 234.793C233.269 234.803 233.316 234.82 233.359 234.841L236.38 236.599Z" fill="#455A64"/>
<path d="M229.893 233.715L217.987 226.839C217.599 226.613 217.275 226.799 217.275 227.252V228.176C217.292 228.422 217.365 228.66 217.489 228.874C217.612 229.087 217.783 229.269 217.987 229.407L229.893 236.283C230.29 236.51 230.606 236.283 230.606 235.87V234.938C230.592 234.693 230.52 234.454 230.396 234.242C230.272 234.029 230.1 233.849 229.893 233.715Z" fill="#E0E0E0"/>
<path d="M288.871 250.74V252.108C288.871 252.845 288.352 253.145 287.712 252.773L218.06 212.593C217.723 212.373 217.442 212.076 217.241 211.727C217.039 211.378 216.923 210.987 216.902 210.584V209.216C216.902 208.47 217.42 208.171 218.06 208.543L287.712 248.731C288.05 248.951 288.331 249.248 288.532 249.597C288.733 249.946 288.849 250.337 288.871 250.74Z" fill="#E0E0E0"/>
<path d="M288.871 258.985V260.354C288.871 261.091 288.352 261.39 287.712 261.018L218.06 220.838C217.724 220.617 217.443 220.32 217.242 219.971C217.041 219.623 216.925 219.231 216.902 218.829V217.461C216.902 216.716 217.42 216.416 218.06 216.788L287.712 256.976C288.05 257.196 288.331 257.493 288.532 257.842C288.733 258.191 288.849 258.582 288.871 258.985Z" fill="#E0E0E0"/>
<path d="M296.5 259.689C294.678 257.883 294.224 257.114 294.224 256.45C294.224 255.786 294.491 255.421 295.309 255.899C295.662 256.104 295.966 256.383 296.199 256.717C296.433 257.052 296.591 257.433 296.662 257.835L298.654 258.28C298.48 257.238 298.085 256.244 297.498 255.366C296.91 254.488 296.142 253.744 295.245 253.186C293.252 252.036 292.094 252.894 292.094 254.846C292.205 256.707 293.015 258.457 294.362 259.746V261.325L296.5 262.556V259.689Z" fill="#455A64"/>
<path d="M296.524 264.905C296.528 264.515 296.43 264.13 296.24 263.789C296.049 263.448 295.773 263.163 295.439 262.961C294.726 262.556 294.362 262.913 294.362 263.658C294.356 264.048 294.453 264.432 294.642 264.773C294.831 265.114 295.105 265.4 295.439 265.602C296.16 266.055 296.524 265.715 296.524 264.905Z" fill="#455A64"/>
<path d="M236.405 237.611L235.522 238.284L236.332 239.822C236.403 239.916 236.441 240.029 236.441 240.146C236.441 240.263 236.403 240.377 236.332 240.47C236.186 240.584 235.959 240.47 235.83 240.227L235.02 238.689L234.129 239.369C233.999 239.466 233.813 239.369 233.7 239.158C233.639 239.078 233.605 238.98 233.605 238.879C233.605 238.778 233.639 238.68 233.7 238.599L234.591 237.927L233.781 236.388C233.719 236.29 233.69 236.174 233.697 236.058C233.704 235.942 233.748 235.831 233.821 235.74C233.967 235.627 234.194 235.74 234.323 235.983L235.133 237.522L236.024 236.842C236.154 236.753 236.348 236.842 236.453 237.053C236.508 237.138 236.532 237.239 236.524 237.34C236.515 237.441 236.473 237.536 236.405 237.611Z" fill="#7209B7" fill-opacity="0.5"/>
<path d="M157.503 106.535L163.456 103.101L163.512 103.061C166.477 101.384 170.534 101.635 175.029 104.235C179.241 106.665 183.08 110.714 185.971 115.388C189.316 120.782 191.414 127.018 191.414 132.614C191.414 137.838 189.592 141.523 186.635 143.216L180.585 146.674C177.605 148.578 173.385 148.408 168.712 145.711C159.657 140.479 152.319 127.771 152.319 117.323C152.328 111.905 154.32 108.155 157.503 106.535Z" fill="#7209B7" fill-opacity="0.4"/>
<path opacity="0.1" d="M180.715 146.658L186.643 143.265C189.6 141.548 191.422 137.879 191.422 132.663C191.422 127.066 189.324 120.83 185.979 115.436L179.654 119.089C182.999 124.475 185.096 130.711 185.096 136.299C185.113 141.256 183.444 144.828 180.715 146.658Z" fill="black"/>
<path opacity="0.4" d="M157.624 106.47C160.54 105.053 164.436 105.409 168.72 107.88C173.005 110.35 176.771 114.359 179.67 119.056L185.995 115.404C183.104 110.714 179.257 106.673 175.054 104.251C170.559 101.651 166.501 101.408 163.537 103.077L163.48 103.117L157.624 106.47Z" fill="white"/>
<path d="M172.34 121.923C172.329 122.554 172.463 123.179 172.733 123.75C173.003 124.32 173.401 124.82 173.895 125.212C174.754 125.706 175.45 125.042 175.45 123.721C175.462 123.091 175.327 122.466 175.058 121.895C174.788 121.325 174.39 120.825 173.895 120.433C173.037 119.931 172.34 120.603 172.34 121.923Z" fill="#455A64"/>
<path d="M163.488 116.813C163.477 117.444 163.611 118.069 163.881 118.639C164.15 119.21 164.548 119.71 165.043 120.101C165.902 120.595 166.598 119.931 166.598 118.611C166.609 117.98 166.475 117.355 166.205 116.785C165.936 116.215 165.538 115.714 165.043 115.323C164.185 114.829 163.488 115.493 163.488 116.813Z" fill="#455A64"/>
<path d="M177.629 141.669C177.691 141.677 177.754 141.677 177.815 141.669C177.93 141.646 178.039 141.6 178.136 141.535C178.233 141.469 178.316 141.385 178.38 141.287C178.444 141.189 178.488 141.079 178.509 140.964C178.531 140.849 178.529 140.73 178.504 140.616C177.095 133.918 173.507 128.054 169.368 125.665C168.525 125.106 167.563 124.751 166.559 124.63C165.555 124.51 164.537 124.625 163.585 124.969C161.633 125.779 160.127 127.73 159.349 130.5C159.31 130.721 159.355 130.948 159.474 131.137C159.593 131.327 159.779 131.465 159.995 131.524C160.21 131.584 160.44 131.561 160.64 131.46C160.84 131.359 160.995 131.187 161.075 130.978C161.69 128.759 162.824 127.212 164.257 126.621C164.957 126.391 165.7 126.326 166.429 126.43C167.158 126.534 167.853 126.804 168.461 127.22C172.122 129.334 175.45 134.866 176.738 140.989C176.788 141.186 176.903 141.361 177.065 141.485C177.226 141.608 177.426 141.673 177.629 141.669Z" fill="#455A64"/>
<path d="M157.503 54.7174L163.456 51.2834H163.512C166.477 49.6069 170.534 49.858 175.029 52.4578C179.241 54.8875 183.08 58.937 185.971 63.6102C189.316 69.0042 191.414 75.2405 191.414 80.837C191.414 86.0609 189.592 89.746 186.635 91.4387L180.585 94.897C177.605 96.8003 173.385 96.6302 168.712 93.9332C159.657 88.7012 152.319 75.9937 152.319 65.5864C152.328 60.0871 154.32 56.3372 157.503 54.7174Z" fill="#7209B7" fill-opacity="0.4"/>
<path opacity="0.1" d="M180.715 94.8241L186.643 91.4305C189.6 89.7135 191.422 86.0446 191.422 80.8288C191.422 75.2324 189.324 68.996 185.979 63.6021L179.654 67.2547C182.999 72.6406 185.096 78.877 185.096 84.4653C185.113 89.4382 183.444 93.0099 180.715 94.8241Z" fill="black"/>
<path opacity="0.4" d="M157.624 54.6525C160.54 53.2351 164.436 53.5915 168.72 56.0617C173.005 58.5319 176.771 62.541 179.67 67.2385L185.995 63.5858C183.104 58.8964 179.257 54.855 175.054 52.4333C170.559 49.8335 166.501 49.5905 163.537 51.259H163.48L157.624 54.6525Z" fill="white"/>
<path d="M172.438 87.2835C173.207 87.2857 173.969 87.1371 174.681 86.8462C176.795 85.9796 178.415 83.8657 179.249 80.8771C179.305 80.6353 179.266 80.381 179.14 80.1673C179.013 79.9536 178.809 79.7969 178.57 79.7301C178.33 79.6632 178.075 79.6913 177.856 79.8085C177.637 79.9256 177.471 80.1227 177.394 80.3588C176.722 82.7885 175.499 84.4084 173.952 85.0644C173.196 85.3168 172.391 85.3904 171.601 85.2794C170.811 85.1684 170.058 84.8758 169.4 84.4246C165.456 82.1487 161.86 76.1716 160.491 69.5627C160.437 69.3135 160.287 69.0957 160.073 68.9563C159.859 68.8169 159.599 68.7671 159.349 68.8176C159.225 68.8436 159.108 68.8938 159.003 68.9653C158.899 69.0367 158.809 69.1281 158.74 69.2342C158.671 69.3402 158.623 69.4589 158.6 69.5834C158.577 69.7078 158.578 69.8357 158.604 69.9596C160.127 77.184 163.998 83.5175 168.461 86.1011C169.661 86.8338 171.032 87.2413 172.438 87.2835Z" fill="#455A64"/>
<path d="M172.616 71.2476C172.604 71.9291 172.749 72.6042 173.04 73.2207C173.33 73.8372 173.759 74.3786 174.292 74.8031C175.224 75.3377 175.969 74.6168 175.969 73.1833C175.982 72.5027 175.838 71.8282 175.547 71.2127C175.256 70.5972 174.827 70.0575 174.292 69.6359C173.369 69.1014 172.616 69.8222 172.616 71.2476Z" fill="#455A64"/>
<path d="M163.059 65.7322C163.047 66.4126 163.192 67.0865 163.483 67.7017C163.774 68.3168 164.202 68.8568 164.735 69.2796C165.659 69.8142 166.412 69.0934 166.412 67.6598C166.424 66.9795 166.278 66.3056 165.988 65.6904C165.697 65.0752 165.268 64.5353 164.735 64.1124C163.812 63.5779 163.059 64.3068 163.059 65.7322Z" fill="#455A64"/>
<path d="M145.322 200.566L188.247 225.349C188.679 225.569 189.156 225.683 189.64 225.683C190.125 225.683 190.602 225.569 191.033 225.349L193.309 224.029C193.717 223.763 194.056 223.404 194.298 222.981C194.54 222.559 194.679 222.085 194.702 221.599V172.033C194.679 171.546 194.54 171.072 194.298 170.65C194.056 170.228 193.717 169.869 193.309 169.603L150.384 144.82C149.954 144.6 149.478 144.485 148.995 144.485C148.512 144.485 148.036 144.6 147.606 144.82L145.33 146.148C144.921 146.413 144.582 146.771 144.34 147.194C144.097 147.617 143.959 148.091 143.937 148.578V198.152C143.962 198.635 144.101 199.105 144.341 199.524C144.582 199.944 144.918 200.3 145.322 200.566Z" fill="#455A64"/>
<path d="M188.482 225.454C188.891 225.618 189.329 225.693 189.769 225.675C190.209 225.657 190.64 225.546 191.034 225.349L193.309 224.02C193.717 223.755 194.055 223.396 194.296 222.974C194.537 222.551 194.674 222.077 194.694 221.591V172.024C194.682 171.538 194.543 171.063 194.289 170.647L189.236 173.587C189.485 174.002 189.624 174.473 189.64 174.956V224.523C189.64 225.341 189.146 225.713 188.482 225.454Z" fill="#263238"/>
<path d="M145.322 200.565L188.247 225.349C189.017 225.794 189.641 225.438 189.641 224.539V175.005C189.617 174.518 189.479 174.045 189.236 173.622C188.994 173.2 188.655 172.841 188.247 172.575L145.322 147.792C144.553 147.346 143.929 147.711 143.929 148.602V198.176C143.959 198.655 144.1 199.121 144.342 199.536C144.584 199.951 144.92 200.303 145.322 200.565Z" fill="#37474F"/>
<path fill-rule="evenodd" clip-rule="evenodd" d="M167.959 188.215L179.622 204.737C174.471 209.944 164.558 206.033 157.479 195.998C153.227 189.98 150.943 183.485 150.943 177.418L165.06 185.534C166.18 186.245 167.162 187.153 167.959 188.215Z" fill="#7209B7" fill-opacity="0.3"/>
<path opacity="0.3" fill-rule="evenodd" clip-rule="evenodd" d="M167.959 188.215L179.622 204.737C174.471 209.944 164.558 206.033 157.479 195.998C153.227 189.98 150.943 183.485 150.943 177.418L165.06 185.534C166.18 186.245 167.162 187.153 167.959 188.215Z" fill="black"/>
<path d="M180.213 204.315L168.55 187.793C167.693 186.656 166.634 185.687 165.424 184.934L151.308 176.787C151.197 176.723 151.071 176.689 150.943 176.689C150.815 176.689 150.689 176.723 150.578 176.787C150.468 176.851 150.376 176.943 150.312 177.054C150.248 177.165 150.214 177.29 150.214 177.418C150.214 183.671 152.522 190.247 156.88 196.419C161.569 203.06 167.595 207.288 172.997 207.758C174.298 207.908 175.616 207.763 176.853 207.332C178.09 206.902 179.214 206.197 180.14 205.271C180.252 205.158 180.324 205.011 180.344 204.853C180.365 204.695 180.333 204.535 180.254 204.396C180.249 204.366 180.235 204.337 180.213 204.315ZM151.704 178.698L164.663 186.198C165.693 186.84 166.598 187.664 167.336 188.628L178.634 204.623C177.867 205.252 176.981 205.719 176.029 205.997C175.077 206.276 174.079 206.359 173.094 206.243C168.186 205.838 162.419 201.74 158.054 195.544C157.309 194.499 156.637 193.438 156.021 192.377C153.527 188.22 152.048 183.534 151.704 178.698Z" fill="white"/>
<path fill-rule="evenodd" clip-rule="evenodd" d="M167.433 184.667L171.701 171.992C180.027 179.921 184.587 192.88 181.881 200.93C181.447 202.361 180.674 203.667 179.63 204.737L167.967 188.215C167.637 187.693 167.418 187.108 167.326 186.497C167.234 185.887 167.27 185.263 167.433 184.667Z" fill="#7209B7" fill-opacity="0.3"/>
<path d="M172.195 171.466C172.108 171.38 172 171.319 171.883 171.286C171.765 171.253 171.641 171.251 171.523 171.28C171.404 171.311 171.295 171.371 171.204 171.454C171.114 171.537 171.045 171.641 171.004 171.757L166.744 184.432C166.547 185.137 166.499 185.875 166.605 186.6C166.711 187.324 166.968 188.017 167.36 188.636L178.99 205.158C179.053 205.243 179.133 205.313 179.225 205.365C179.318 205.416 179.419 205.448 179.525 205.458C179.631 205.469 179.739 205.456 179.84 205.419C179.941 205.383 180.033 205.324 180.108 205.247C181.227 204.109 182.06 202.721 182.537 201.198C184.506 195.342 182.756 186.967 178.561 179.703C176.844 176.667 174.7 173.893 172.195 171.466ZM168.55 187.794C168.287 187.364 168.114 186.886 168.042 186.387C167.97 185.889 167.999 185.381 168.129 184.894L172.017 173.329C179.614 181.12 183.712 193.171 181.185 200.704C180.862 201.739 180.354 202.708 179.687 203.563L168.55 187.794Z" fill="white"/>
<path fill-rule="evenodd" clip-rule="evenodd" d="M165.635 184.926L153.972 168.404C158.086 164.241 165.035 165.642 171.693 171.992L167.433 184.667C167.084 185.72 166.274 185.833 165.635 184.926Z" fill="#7209B7" fill-opacity="0.3"/>
<path opacity="0.1" fill-rule="evenodd" clip-rule="evenodd" d="M165.635 184.926L153.972 168.404C158.086 164.241 165.035 165.642 171.693 171.992L167.433 184.667C167.084 185.72 166.274 185.833 165.635 184.926Z" fill="black"/>
<path d="M172.195 171.466C165.23 164.825 157.868 163.423 153.454 167.894C153.333 168.015 153.259 168.175 153.244 168.345C153.229 168.515 153.275 168.685 153.373 168.825L165.043 185.348C165.187 185.67 165.433 185.937 165.742 186.107C166.052 186.277 166.409 186.341 166.758 186.29C167.108 186.239 167.431 186.074 167.678 185.822C167.926 185.57 168.084 185.244 168.129 184.894L172.389 172.219C172.421 172.121 172.432 172.018 172.421 171.916C172.41 171.814 172.377 171.716 172.325 171.628C172.293 171.565 172.249 171.51 172.195 171.466ZM154.936 168.526C158.718 165.286 164.857 166.671 170.859 172.219L166.744 184.449C166.7 184.585 166.634 184.713 166.55 184.829C166.418 184.758 166.309 184.651 166.234 184.522L154.936 168.526Z" fill="white"/>
<path fill-rule="evenodd" clip-rule="evenodd" d="M165.06 185.534L150.943 177.435C150.943 173.385 151.915 170.51 153.972 168.42L165.635 184.943C166.275 185.833 166.032 186.117 165.06 185.534Z" fill="#7209B7" fill-opacity="0.3"/>
<path opacity="0.2" fill-rule="evenodd" clip-rule="evenodd" d="M165.06 185.534L150.943 177.435C150.943 173.385 151.915 170.51 153.972 168.42L165.635 184.943C166.275 185.833 166.032 186.117 165.06 185.534Z" fill="black"/>
<path d="M166.234 184.505L154.563 167.983C154.502 167.897 154.422 167.825 154.33 167.773C154.237 167.722 154.134 167.691 154.029 167.683C153.923 167.673 153.817 167.686 153.717 167.723C153.618 167.759 153.528 167.818 153.454 167.894C151.243 170.129 150.214 173.158 150.214 177.418C150.214 177.546 150.248 177.672 150.312 177.783C150.376 177.894 150.468 177.986 150.579 178.05L164.687 186.198C164.995 186.376 165.918 186.91 166.485 186.287C166.644 186.078 166.729 185.824 166.729 185.562C166.729 185.3 166.644 185.045 166.485 184.837L166.234 184.505ZM153.883 169.578L164.258 184.278L151.656 176.989C151.737 173.774 152.449 171.384 153.883 169.578Z" fill="white"/>
<path d="M55.276 126.006C56.025 125.644 56.8484 125.464 57.6799 125.479C58.5114 125.495 59.3276 125.706 60.0626 126.095L133.878 168.712C134.59 169.185 135.18 169.818 135.602 170.561C136.024 171.303 136.266 172.135 136.307 172.988V194.046C136.339 194.888 136.141 195.723 135.734 196.461C135.326 197.199 134.725 197.812 133.995 198.234C133.265 198.655 132.434 198.87 131.592 198.854C130.749 198.838 129.926 198.593 129.213 198.144L55.3975 155.527C54.6857 155.054 54.0949 154.421 53.6729 153.678C53.2508 152.935 53.0093 152.104 52.9678 151.25V130.193C52.9973 129.363 53.2216 128.551 53.6226 127.824C54.0235 127.097 54.5899 126.474 55.276 126.006Z" fill="#263238"/>
<path d="M52.9922 129.747C53.1946 128.5 54.207 128.063 55.4219 128.776L86.1984 146.537L129.237 171.385C129.968 171.838 130.57 172.471 130.986 173.223L135.619 170.551C135.203 169.798 134.604 169.163 133.878 168.704L60.0627 126.095C59.3829 125.664 58.6021 125.418 57.798 125.382C56.9938 125.347 56.1944 125.523 55.4792 125.892C54.7641 126.261 54.1581 126.812 53.7218 127.488C53.2854 128.165 53.0339 128.944 52.9922 129.747Z" fill="#455A64"/>
<path d="M131.715 175.661V196.718C131.715 198.29 130.606 198.93 129.245 198.144L55.43 155.526C54.7182 155.054 54.1274 154.421 53.7053 153.678C53.2833 152.935 53.0417 152.103 53.0002 151.25V130.192C53.0002 128.621 54.1017 127.981 55.43 128.767L86.2065 146.536L129.253 171.384C129.971 171.854 130.567 172.486 130.995 173.229C131.423 173.972 131.67 174.805 131.715 175.661Z" fill="#37474F"/>
<path d="M119.162 172.575L117.955 175.134C117.941 175.171 117.919 175.205 117.892 175.233C117.864 175.261 117.831 175.282 117.794 175.297C117.758 175.311 117.719 175.318 117.679 175.317C117.64 175.315 117.601 175.306 117.566 175.288L114.869 174.26C114.44 174.09 114.27 174.697 114.578 175.28L116.529 178.941C116.647 179.153 116.7 179.395 116.683 179.638L116.222 182.958C116.149 183.485 116.594 184.173 116.975 184.124L119.405 183.825C119.502 183.829 119.598 183.858 119.682 183.907C119.767 183.956 119.838 184.025 119.891 184.108L122.32 187.194C122.701 187.68 123.13 187.502 123.073 186.894L122.612 183.047C122.592 182.954 122.595 182.856 122.622 182.765C122.649 182.673 122.698 182.589 122.766 182.521L124.718 181.112C125.025 180.885 124.855 180.083 124.426 179.759L121.729 177.678C121.54 177.52 121.404 177.308 121.34 177.07L120.133 173.118C119.866 172.494 119.356 172.178 119.162 172.575Z" fill="white"/>
<path d="M105.515 164.768L104.308 167.327C104.295 167.365 104.274 167.399 104.247 167.428C104.219 167.456 104.186 167.479 104.149 167.493C104.112 167.508 104.072 167.515 104.033 167.512C103.993 167.51 103.954 167.5 103.919 167.481L101.222 166.452C100.793 166.282 100.623 166.89 100.931 167.473L102.858 171.134C102.976 171.349 103.03 171.593 103.012 171.838L102.55 175.151C102.477 175.677 102.923 176.366 103.304 176.317L105.733 176.026C105.831 176.026 105.927 176.052 106.012 176.1C106.097 176.148 106.168 176.217 106.219 176.301L108.649 179.387C109.03 179.873 109.459 179.703 109.402 179.087L108.941 175.24C108.92 175.146 108.924 175.049 108.951 174.957C108.978 174.865 109.027 174.781 109.094 174.713L111.046 173.304C111.354 173.077 111.184 172.284 110.755 171.952L108.058 169.87C107.869 169.712 107.733 169.5 107.669 169.263L106.462 165.31C106.26 164.679 105.709 164.363 105.515 164.768Z" fill="white"/>
<path d="M91.8677 156.96L90.6609 159.519C90.6469 159.556 90.6254 159.59 90.5977 159.618C90.5701 159.645 90.537 159.667 90.5004 159.682C90.4638 159.696 90.4247 159.703 90.3854 159.702C90.3461 159.7 90.3075 159.69 90.2721 159.673L87.5751 158.637C87.1459 158.475 86.9758 159.074 87.2836 159.657L89.2355 163.318C89.3528 163.533 89.4062 163.778 89.3893 164.022L88.9277 167.335C88.8548 167.861 89.3003 168.558 89.6809 168.509L92.1106 168.21C92.2085 168.214 92.3038 168.242 92.3884 168.292C92.473 168.341 92.5444 168.41 92.5966 168.493L95.0263 171.571C95.407 172.065 95.8362 171.887 95.7795 171.279L95.3179 167.432C95.2977 167.337 95.3012 167.239 95.328 167.146C95.3549 167.052 95.4042 166.967 95.4718 166.898L97.4236 165.488C97.7314 165.27 97.5613 164.468 97.1321 164.136L94.4351 162.054C94.2462 161.897 94.1105 161.685 94.0463 161.447L92.8396 157.495C92.6128 156.871 92.062 156.547 91.8677 156.96Z" fill="white"/>
<path d="M78.2206 149.144L77.0138 151.704C76.9998 151.74 76.9783 151.774 76.9507 151.802C76.923 151.83 76.8899 151.852 76.8533 151.866C76.8167 151.881 76.7776 151.887 76.7383 151.886C76.699 151.884 76.6604 151.875 76.625 151.858L73.9281 150.821C73.4988 150.659 73.3287 151.258 73.6365 151.841L75.5884 155.502C75.7057 155.718 75.7591 155.962 75.7422 156.207L75.2806 159.519C75.2077 160.046 75.6532 160.742 76.0338 160.694L78.4636 160.394C78.5614 160.399 78.6567 160.427 78.7413 160.476C78.8259 160.525 78.8974 160.595 78.9495 160.677L81.3792 163.755C81.7599 164.249 82.1891 164.071 82.1324 163.464L81.6708 159.617C81.6506 159.523 81.654 159.426 81.6809 159.334C81.7078 159.242 81.7572 159.158 81.8247 159.09L83.7766 157.681C84.0843 157.454 83.9142 156.652 83.485 156.32L80.788 154.247C80.6025 154.086 80.4675 153.875 80.3992 153.639L79.1925 149.687C78.9657 149.088 78.4149 148.739 78.2206 149.144Z" fill="white"/>
<path d="M64.5737 141.329L63.3669 143.888C63.3529 143.925 63.3314 143.958 63.3037 143.986C63.2761 144.014 63.2429 144.036 63.2064 144.051C63.1698 144.065 63.1306 144.072 63.0913 144.07C63.052 144.069 63.0135 144.059 62.9781 144.042L60.2811 143.013C59.8519 142.843 59.6818 143.451 59.9896 144.034L61.9415 147.695C62.059 147.907 62.1125 148.149 62.0953 148.391L61.6337 151.712C61.5608 152.238 62.0062 152.927 62.3869 152.878L64.8166 152.579C64.9145 152.583 65.0098 152.611 65.0944 152.661C65.179 152.71 65.2504 152.779 65.3026 152.862L67.7323 155.948C68.113 156.434 68.5422 156.256 68.4855 155.648L68.0239 151.801C68.0036 151.707 68.0071 151.61 68.034 151.518C68.0609 151.426 68.1103 151.343 68.1777 151.275L70.0972 149.898C70.405 149.671 70.2349 148.869 69.8057 148.545L67.1087 146.464C66.9198 146.306 66.7841 146.094 66.7199 145.856L65.5132 141.904C65.3188 141.24 64.7923 140.924 64.5737 141.329Z" fill="white"/>
<path d="M121.195 159.106L125.244 156.774C125.325 156.738 125.392 156.679 125.439 156.604L126.184 155.308L123.754 153.923L123.827 154.133L121.195 159.106Z" fill="#7209B7" fill-opacity="0.7"/>
<path opacity="0.2" d="M121.195 159.106L125.244 156.774C125.325 156.738 125.392 156.679 125.439 156.604L126.184 155.308L123.754 153.923L123.827 154.133L121.195 159.106Z" fill="black"/>
<path d="M124.135 154.117L121.332 158.977C121.293 159.047 121.235 159.104 121.163 159.141C121.092 159.179 121.012 159.194 120.932 159.187C120.852 159.179 120.776 159.148 120.713 159.098C120.651 159.048 120.604 158.98 120.579 158.904L117.623 150.375L124.135 154.117Z" fill="#7209B7" fill-opacity="0.7"/>
<path d="M53.4538 86.401C53.4893 85.7239 53.6847 85.0648 54.0239 84.4778C54.3632 83.8907 54.8367 83.3924 55.4057 83.0236C56.0115 82.7201 56.6799 82.562 57.3575 82.562C58.0352 82.562 58.7036 82.7201 59.3094 83.0236L134.356 126.33C134.924 126.701 135.397 127.201 135.736 127.789C136.075 128.377 136.271 129.037 136.307 129.715V154.417C136.271 155.095 136.075 155.755 135.736 156.343C135.397 156.931 134.924 157.431 134.356 157.803C133.751 158.11 133.082 158.27 132.404 158.27C131.725 158.27 131.057 158.11 130.452 157.803L55.2194 114.375C53.4619 113.371 53.4457 112.367 53.4457 111.136L53.4538 86.401Z" fill="#7209B7" fill-opacity="0.7"/>
<path opacity="0.2" d="M136.34 154.409C136.303 155.087 136.107 155.747 135.768 156.335C135.429 156.923 134.956 157.423 134.388 157.795C133.839 158.074 133.236 158.234 132.62 158.264C132.005 158.293 131.39 158.191 130.816 157.965C131.731 158.313 132.436 157.786 132.436 156.669V131.958C132.414 131.28 132.215 130.618 131.861 130.039L135.773 127.779C136.121 128.364 136.316 129.027 136.34 129.707V154.409Z" fill="black"/>
<path opacity="0.4" d="M53.5427 85.8502C53.7695 85.0403 54.5308 84.7568 55.4298 85.2752L130.484 128.581C131.063 128.937 131.538 129.44 131.861 130.039L135.765 127.779C135.435 127.186 134.962 126.684 134.388 126.321L59.3417 83.0236C58.7369 82.7163 58.0682 82.5562 57.3898 82.5562C56.7115 82.5562 56.0427 82.7163 55.438 83.0236C54.9461 83.3407 54.5242 83.755 54.1983 84.2411C53.8724 84.7272 53.6493 85.2748 53.5427 85.8502Z" fill="white"/>
<path d="M127.156 132.396L59.763 93.4065C59.107 93.034 58.5724 93.2041 58.5724 93.7953C58.6208 94.1595 58.7536 94.5074 58.9603 94.8111C59.167 95.1149 59.4419 95.3661 59.763 95.5447L127.156 134.509C127.803 134.89 128.338 134.72 128.338 134.129C128.287 133.769 128.154 133.425 127.949 133.124C127.744 132.824 127.472 132.575 127.156 132.396Z" fill="white"/>
<path d="M127.156 143.418L69.3523 110.05C68.6963 109.67 68.1699 109.84 68.1699 110.431C68.2174 110.795 68.3489 111.144 68.5541 111.449C68.7593 111.754 69.0326 112.007 69.3523 112.188L127.156 145.549C127.803 145.929 128.338 145.751 128.338 145.16C128.284 144.799 128.15 144.456 127.945 144.154C127.74 143.853 127.471 143.601 127.156 143.418Z" fill="white"/>
<path d="M127.156 148.78L61.1398 110.617C60.4919 110.236 59.9574 110.415 59.9574 111.006C60.0101 111.368 60.1439 111.713 60.3486 112.016C60.5534 112.319 60.8238 112.571 61.1398 112.755L127.156 150.91C127.803 151.291 128.338 151.121 128.338 150.529C128.289 150.166 128.157 149.82 127.952 149.516C127.747 149.213 127.474 148.961 127.156 148.78Z" fill="white"/>
<path d="M127.156 137.749L61.1398 99.5864C60.4919 99.2057 59.9574 99.3839 59.9574 99.9751C60.0067 100.338 60.139 100.685 60.3441 100.988C60.5492 101.292 60.8215 101.544 61.1398 101.725L127.156 139.92C127.803 140.292 128.338 140.122 128.338 139.531C128.294 139.162 128.164 138.809 127.959 138.499C127.753 138.19 127.478 137.933 127.156 137.749Z" fill="white"/>
<path d="M55.276 43.9538C56.025 43.5924 56.8484 43.4122 57.6799 43.4277C58.5114 43.4432 59.3276 43.6539 60.0626 44.0429L133.878 86.6522C134.588 87.1261 135.178 87.7597 135.6 88.5022C136.022 89.2447 136.264 90.0756 136.307 90.9285V111.986C136.339 112.828 136.141 113.664 135.734 114.401C135.326 115.139 134.725 115.752 133.995 116.174C133.265 116.595 132.434 116.81 131.592 116.794C130.749 116.778 129.926 116.533 129.213 116.084L55.3975 73.4669C54.6857 72.9944 54.0949 72.3612 53.6729 71.6184C53.2508 70.8755 53.0093 70.0439 52.9678 69.1906V48.1329C52.9985 47.3043 53.2234 46.4944 53.6243 45.7685C54.0252 45.0427 54.591 44.4211 55.276 43.9538Z" fill="#263238"/>
<path d="M52.9922 47.6952C53.1946 46.4479 54.207 46.0105 55.4219 46.7152L86.1984 64.4765L129.237 89.3245C129.966 89.7833 130.568 90.4184 130.986 91.1711L135.619 88.4984C135.206 87.7445 134.606 87.1089 133.878 86.6518L60.0627 44.0425C59.3829 43.6113 58.6021 43.3657 57.798 43.3302C56.9938 43.2946 56.1944 43.4703 55.4792 43.8398C54.7641 44.2092 54.1581 44.7595 53.7218 45.436C53.2854 46.1124 53.0339 46.8913 52.9922 47.6952Z" fill="#455A64"/>
<path d="M131.715 93.609V114.667C131.715 116.238 130.606 116.878 129.245 116.092L55.43 73.4747C54.7182 73.0022 54.1274 72.369 53.7053 71.6262C53.2833 70.8833 53.0417 70.0517 53.0002 69.1984V48.1407C53.0002 46.5695 54.1017 45.9297 55.43 46.7153L86.2065 64.4766L129.253 89.3327C129.971 89.8021 130.567 90.4339 130.995 91.1768C131.423 91.9198 131.67 92.753 131.715 93.609Z" fill="#37474F"/>
<path d="M119.162 90.5315L117.955 93.0908C117.941 93.1275 117.919 93.1609 117.892 93.1889C117.864 93.2169 117.831 93.2388 117.794 93.2533C117.758 93.2677 117.719 93.2745 117.679 93.273C117.64 93.2715 117.601 93.2618 117.566 93.2447L114.869 92.208C114.44 92.046 114.27 92.6534 114.578 93.2285L116.529 96.8893C116.647 97.1047 116.7 97.3491 116.683 97.5939L116.222 100.906C116.149 101.433 116.594 102.129 116.975 102.081L119.405 101.781C119.502 101.786 119.598 101.814 119.682 101.863C119.767 101.913 119.838 101.982 119.891 102.065L122.32 105.142C122.701 105.636 123.13 105.458 123.073 104.851L122.612 101.004C122.592 100.91 122.595 100.813 122.622 100.721C122.649 100.629 122.698 100.545 122.766 100.477L124.718 99.0679C125.025 98.8411 124.855 98.0393 124.426 97.7073L121.729 95.6339C121.542 95.4744 121.407 95.263 121.34 95.0265L120.133 91.0741C119.866 90.4424 119.356 90.1265 119.162 90.5315Z" fill="white"/>
<path d="M105.515 82.716L104.308 85.2753C104.294 85.3121 104.272 85.3455 104.245 85.3735C104.217 85.4014 104.184 85.4234 104.147 85.4378C104.111 85.4523 104.072 85.459 104.032 85.4575C103.993 85.4561 103.954 85.4464 103.919 85.4292L101.222 84.4006C100.793 84.2306 100.623 84.838 100.931 85.4211L102.858 89.0819C102.976 89.2943 103.029 89.5363 103.012 89.7784L102.55 93.0991C102.477 93.6255 102.923 94.3139 103.304 94.2653L105.733 93.9657C105.831 93.9702 105.926 93.9984 106.011 94.0478C106.096 94.0971 106.167 94.1662 106.219 94.2491L108.649 97.3349C109.03 97.8208 109.459 97.6508 109.402 97.0352L108.941 93.1882C108.92 93.0945 108.924 92.9973 108.951 92.9054C108.978 92.8135 109.027 92.7297 109.094 92.6617L111.046 91.2525C111.354 91.0257 111.184 90.2239 110.755 89.8999L108.058 87.8185C107.869 87.6607 107.733 87.4486 107.669 87.211L106.462 83.2587C106.26 82.6269 105.709 82.3111 105.515 82.716Z" fill="white"/>
<path d="M91.8677 74.9005L90.6609 77.4679C90.6469 77.5046 90.6254 77.5381 90.5977 77.566C90.5701 77.594 90.537 77.6159 90.5004 77.6304C90.4638 77.6449 90.4247 77.6516 90.3854 77.6501C90.3461 77.6486 90.3075 77.639 90.2721 77.6218L87.5751 76.5851C87.1459 76.4231 86.9758 77.0224 87.2836 77.6056L89.2355 81.2664C89.3537 81.4815 89.4071 81.7262 89.3893 81.971L88.9277 85.2835C88.8548 85.81 89.3003 86.4984 89.6809 86.4579L92.1106 86.1582C92.2084 86.159 92.3043 86.1848 92.3893 86.2329C92.4743 86.2811 92.5456 86.3502 92.5966 86.4336L95.0263 89.5193C95.407 90.0053 95.8362 89.8352 95.7795 89.2197L95.3179 85.3726C95.2984 85.279 95.3022 85.182 95.3291 85.0902C95.3559 84.9984 95.4049 84.9146 95.4718 84.8462L97.4236 83.4369C97.7314 83.2183 97.5613 82.4164 97.1321 82.0844L94.4351 80.0029C94.2462 79.8451 94.1105 79.6331 94.0463 79.3955L92.8396 75.4431C92.6128 74.8195 92.062 74.4955 91.8677 74.9005Z" fill="white"/>
<path d="M78.2206 67.0926L77.0138 69.6519C76.9998 69.6887 76.9783 69.7221 76.9507 69.7501C76.923 69.7781 76.8899 69.8 76.8533 69.8145C76.8167 69.8289 76.7776 69.8356 76.7383 69.8342C76.699 69.8327 76.6604 69.823 76.625 69.8058L73.9281 68.7692C73.4988 68.6072 73.3287 69.2065 73.6365 69.7896L75.5884 73.4504C75.7057 73.6658 75.7591 73.9103 75.7422 74.155L75.2806 77.4676C75.2077 77.994 75.6532 78.6905 76.0338 78.6419L78.4636 78.3423C78.5614 78.3468 78.6567 78.375 78.7413 78.4244C78.8259 78.4737 78.8974 78.5428 78.9495 78.6257L81.3792 81.7034C81.7599 82.1975 82.1891 82.0193 82.1324 81.4118L81.6708 77.5648C81.6432 77.4683 81.6406 77.3663 81.6633 77.2686C81.6859 77.1708 81.7331 77.0804 81.8004 77.0059L83.7523 75.5967C84.06 75.378 83.8899 74.5762 83.4607 74.2441L80.7637 72.1708C80.5765 72.0082 80.4413 71.7941 80.3749 71.5552L79.1682 67.6029C78.9657 67.0035 78.4149 66.6796 78.2206 67.0926Z" fill="white"/>
<path d="M64.5737 59.2771L63.3669 61.8364C63.3529 61.8732 63.3314 61.9066 63.3038 61.9346C63.2762 61.9625 63.243 61.9845 63.2064 61.9989C63.1699 62.0134 63.1307 62.0201 63.0914 62.0186C63.0521 62.0171 63.0136 62.0075 62.9782 61.9903L60.2812 60.9536C59.8519 60.7916 59.6819 61.3991 59.9896 61.9741L61.9415 65.6673C62.0589 65.8827 62.1123 66.1272 62.0954 66.3719L61.6338 69.6844C61.5609 70.2109 62.0063 70.9074 62.387 70.8588L64.8167 70.5591C64.9145 70.5637 65.0098 70.5919 65.0945 70.6412C65.1791 70.6906 65.2505 70.7597 65.3026 70.8426L67.7324 73.9203C68.113 74.4143 68.5423 74.2361 68.4856 73.6287L68.0239 69.7816C68.0037 69.688 68.0072 69.5908 68.0341 69.4989C68.0609 69.407 68.1103 69.3232 68.1778 69.2552L70.1297 67.846C70.4375 67.6192 70.2674 66.8174 69.8381 66.4853L67.1411 64.4119C66.9523 64.2542 66.8165 64.0421 66.7524 63.8045L65.5456 59.8521C65.3188 59.188 64.7924 58.8722 64.5737 59.2771Z" fill="white"/>
<path d="M121.195 77.0545L125.244 74.722C125.325 74.6861 125.392 74.6269 125.439 74.5519L126.184 73.256L123.754 71.8711L123.827 72.0817L121.195 77.0545Z" fill="#7209B7" fill-opacity="0.7"/>
<path opacity="0.2" d="M121.195 77.0545L125.244 74.722C125.325 74.6861 125.392 74.6269 125.439 74.5519L126.184 73.256L123.754 71.8711L123.827 72.0817L121.195 77.0545Z" fill="black"/>
<path d="M124.135 72.0655L121.332 76.925C121.293 76.9951 121.235 77.0522 121.163 77.0895C121.092 77.1268 121.012 77.1425 120.932 77.1347C120.852 77.127 120.776 77.0962 120.713 77.046C120.651 76.9958 120.604 76.9284 120.579 76.8521L117.623 68.3237L124.135 72.0655Z" fill="#7209B7" fill-opacity="0.7"/>
<path d="M53.454 4.34898C53.4908 3.67109 53.6866 3.01139 54.0257 2.42325C54.3648 1.83511 54.8376 1.33506 55.4058 0.963561C56.0106 0.656261 56.6794 0.496094 57.3577 0.496094C58.0361 0.496094 58.7049 0.656261 59.3096 0.963561L134.388 44.2694C134.956 44.6409 135.429 45.141 135.768 45.7291C136.107 46.3172 136.303 46.977 136.34 47.6548V72.3571C136.303 73.035 136.107 73.6947 135.768 74.2828C135.429 74.8709 134.956 75.371 134.388 75.7425C133.783 76.0498 133.115 76.21 132.436 76.21C131.758 76.21 131.089 76.0498 130.484 75.7425L55.252 32.3071C53.4945 31.3109 53.4783 30.3066 53.4783 29.0674L53.454 4.34898Z" fill="#7209B7" fill-opacity="0.7"/>
<path opacity="0.2" d="M136.34 72.3569C136.303 73.0348 136.107 73.6945 135.768 74.2826C135.429 74.8707 134.956 75.3708 134.388 75.7423C133.839 76.0229 133.236 76.1825 132.62 76.2105C132.004 76.2384 131.389 76.134 130.816 75.9043C131.731 76.2525 132.436 75.7342 132.436 74.6165V49.9062C132.412 49.2251 132.214 48.5614 131.861 47.9786L135.773 45.7271C136.121 46.3118 136.316 46.9747 136.34 47.6546V72.3569Z" fill="black"/>
<path opacity="0.4" d="M53.5427 3.79827C53.7695 2.98836 54.5308 2.70489 55.4298 3.22323L130.484 46.5291C131.063 46.8854 131.538 47.3883 131.861 47.9869L135.765 45.7273C135.435 45.1336 134.962 44.6323 134.388 44.2694L59.3417 0.963586C58.7358 0.660019 58.0675 0.501953 57.3898 0.501953C56.7121 0.501953 56.0438 0.660019 55.438 0.963586C54.9452 1.28155 54.5227 1.69713 54.1968 2.18467C53.8708 2.67221 53.6482 3.22137 53.5427 3.79827Z" fill="white"/>
<path d="M127.156 50.3357L59.763 11.3548C59.107 10.9822 58.5724 11.1523 58.5724 11.7435C58.6208 12.1078 58.7536 12.4556 58.9603 12.7594C59.167 13.0631 59.4419 13.3143 59.763 13.4929L127.156 52.4739C127.803 52.8545 128.338 52.6845 128.338 52.0932C128.286 51.73 128.153 51.3832 127.948 51.0788C127.744 50.7744 127.473 50.5204 127.156 50.3357Z" fill="white"/>
<path d="M127.156 61.3584L69.3523 27.9901C68.6963 27.6095 68.1699 27.7796 68.1699 28.3708C68.2167 28.7345 68.3481 29.0821 68.5534 29.3859C68.7587 29.6896 69.0323 29.9411 69.3523 30.1202L127.156 63.4966C127.803 63.8691 128.338 63.699 128.338 63.1078C128.289 62.7449 128.156 62.3983 127.951 62.0949C127.746 61.7915 127.474 61.5394 127.156 61.3584Z" fill="white"/>
<path d="M127.156 66.7201L61.1398 28.5653C60.4919 28.1846 59.9574 28.3628 59.9574 28.9459C60.009 29.3091 60.1422 29.6559 60.347 29.9603C60.5518 30.2647 60.8228 30.5188 61.1398 30.7034L127.156 68.8583C127.803 69.2389 128.338 69.0689 128.338 68.4776C128.286 68.1144 128.153 67.7676 127.948 67.4632C127.744 67.1588 127.473 66.9048 127.156 66.7201Z" fill="white"/>
<path d="M127.156 55.7298L61.1398 17.5669C60.4919 17.1862 59.9574 17.3644 59.9574 17.9556C60.0101 18.3174 60.1439 18.6626 60.3486 18.9655C60.5534 19.2684 60.8238 19.5212 61.1398 19.705L127.156 57.8599C127.803 58.2405 128.338 58.0704 128.338 57.4792C128.289 57.1161 128.157 56.7692 127.952 56.4657C127.747 56.1622 127.474 55.9103 127.156 55.7298Z" fill="white"/>
<path d="M99.1494 204.566L70.7621 199.002C70.5829 198.973 70.3991 198.999 70.2355 199.078C70.072 199.157 69.9367 199.284 69.8482 199.443C69.7597 199.601 69.7221 199.783 69.7407 199.964C69.7593 200.145 69.8332 200.315 69.9522 200.452L89.2037 222.255L99.1494 204.566Z" fill="#FFA8A7"/>
<path d="M69.9359 200.452C69.8169 200.315 69.7431 200.145 69.7245 199.964C69.7059 199.783 69.7434 199.601 69.8319 199.443C69.9205 199.284 70.0557 199.157 70.2193 199.078C70.3828 198.999 70.5666 198.973 70.7458 199.002L76.3018 200.112C75.5412 200.583 74.9254 201.255 74.5224 202.054C74.1194 202.853 73.9448 203.748 74.0178 204.639V205.142L69.9359 200.452Z" fill="#7209B7" fill-opacity="0.3"/>
<path d="M195.035 282.958L192.718 281.621L189.908 280.001L89.1957 222.231C88.2719 219.103 88.5611 215.743 90.0056 212.819C92.0222 208.316 95.926 204.72 99.1656 204.55L199.797 262.313L205.15 265.383C201.571 263.585 191.471 281.103 195.035 282.958Z" fill="#37474F"/>
<path d="M186.182 277.912L180.999 274.931C179.468 274.121 180.343 270.355 182.133 266.468C184.506 261.301 189.163 256.295 191.196 257.373L195.018 259.567L196.371 260.377C194.338 259.3 189.673 264.297 187.308 269.473C185.599 273.198 184.724 276.818 186.028 277.807C186.069 277.855 186.122 277.891 186.182 277.912Z" fill="#EBEBEB"/>
<path d="M184.894 277.159C181.339 275.272 191.52 257.721 195.083 259.616L200.275 262.58C196.719 260.701 186.506 278.236 190.094 280.123L184.894 277.159Z" fill="#7209B7" fill-opacity="0.3"/>
<path d="M195.035 282.958L189.908 280.026C186.401 278.196 196.088 261.187 199.797 262.313C199.871 262.327 199.943 262.355 200.007 262.394L205.15 265.383C201.571 263.585 191.471 281.103 195.035 282.958Z" fill="#EBEBEB"/>
<path opacity="0.15" d="M69.8063 199.496L70.762 199.002L91.358 210.268L197.861 271.384C198.064 271.068 198.226 271.044 198.355 271.263C195.326 275.984 193.042 281.929 195.034 282.966L192.718 281.629L189.908 280.01L89.1955 222.239L69.944 200.436C69.825 200.314 69.7477 200.157 69.723 199.989C69.6983 199.82 69.7274 199.648 69.8063 199.496Z" fill="black"/>
<path d="M216.797 295.406L195.035 282.957C193.512 282.148 194.354 278.438 196.112 274.575C198.469 269.4 203.109 264.346 205.15 265.382L227.002 277.863C231.343 280.366 227.35 289.777 222.515 293.988C220.717 295.6 218.676 296.305 216.797 295.406Z" fill="#F28F8F"/>
<path opacity="0.1" d="M215.501 288.66C216.748 283.751 220.717 278.941 224.369 277.912C224.906 277.722 225.48 277.664 226.043 277.741C226.607 277.819 227.144 278.03 227.609 278.357C230.849 281.395 227.066 290.028 222.49 294.013C220.733 295.568 218.765 296.265 216.886 295.447C215.282 294.491 214.626 291.98 215.501 288.66Z" fill="black"/>
</svg>
