<svg width="253" height="59" viewBox="0 0 253 59" fill="none" xmlns="http://www.w3.org/2000/svg">
<path d="M34.1464 51.6209C34.7147 53.5016 33.7113 55.5298 31.847 55.8788C26.5711 56.8663 21.1037 56.2045 16.151 53.9339C10.1465 51.1813 5.30752 46.2516 2.53482 40.0626C-0.237877 33.8735 -0.755431 26.8468 1.07849 20.2902C2.91242 13.7336 6.97288 8.09389 12.5041 4.42084C18.0353 0.747782 24.6604 -0.708391 31.1462 0.323363C37.6321 1.35512 43.5368 4.8045 47.7613 10.0295C51.9858 15.2544 54.2422 21.899 54.1106 28.7264C54.0021 34.3579 52.275 39.7973 49.1914 44.361C48.1018 45.9737 45.9117 46.0661 44.5124 44.7372C43.1131 43.4084 43.0431 41.163 44.065 39.503C46.0627 36.2579 47.1772 32.4822 47.2524 28.5832C47.3506 23.4867 45.6662 18.5266 42.5127 14.6263C39.3592 10.7259 34.9514 8.15101 30.1098 7.38082C25.2682 6.61063 20.3227 7.69764 16.1937 10.4395C12.0648 13.1814 9.03372 17.3913 7.66473 22.2857C6.29573 27.1801 6.68208 32.4255 8.75185 37.0455C10.8216 41.6655 14.4338 45.3454 18.9161 47.4003C22.3451 48.9723 26.1047 49.5112 29.7741 48.993C31.6511 48.7279 33.5781 49.7402 34.1464 51.6209Z" fill="white"/>
<path d="M50.5609 56.1441C50.0867 57.7952 48.4054 58.7514 46.8918 58.0531C43.3653 56.4261 40.2599 53.9188 37.8616 50.7342C35.4634 47.5495 33.8661 43.812 33.1906 39.8593C32.9007 38.1627 34.1945 36.692 35.8483 36.6072C37.502 36.5224 38.8833 37.8601 39.2431 39.5422C39.8128 42.2054 40.9482 44.7166 42.5808 46.8845C44.2134 49.0524 46.285 50.7999 48.6337 52.0119C50.1171 52.7774 51.0352 54.493 50.5609 56.1441Z" fill="#E1DDE3"/>
<path d="M74.4302 46.7054C72.3489 46.7054 70.5765 46.2315 69.1131 45.2838C67.6822 44.3023 66.5928 42.9484 65.8448 41.2222C65.0968 39.496 64.7228 37.516 64.7228 35.2821V20.9649C64.7228 20.6264 64.8204 20.3556 65.0155 20.1525C65.2432 19.9156 65.5196 19.7972 65.8448 19.7972H68.2838C68.609 19.7972 68.8692 19.9156 69.0643 20.1525C69.292 20.3556 69.4058 20.6264 69.4058 20.9649V35.0282C69.4058 40.0714 71.5196 42.593 75.7473 42.593C77.7636 42.593 79.3733 41.933 80.5766 40.613C81.8124 39.2591 82.4302 37.3975 82.4302 35.0282V20.9649C82.4302 20.6264 82.5278 20.3556 82.7229 20.1525C82.9506 19.9156 83.227 19.7972 83.5522 19.7972H85.9912C86.3164 19.7972 86.5766 19.9156 86.7717 20.1525C86.9668 20.3556 87.0644 20.6264 87.0644 20.9649V45.03C87.0644 45.3684 86.9668 45.6561 86.7717 45.8931C86.5766 46.0961 86.3164 46.1977 85.9912 46.1977H83.6985C83.3733 46.1977 83.0969 46.0961 82.8693 45.8931C82.6741 45.6561 82.5766 45.3684 82.5766 45.03V42.7961C81.6985 43.9807 80.6254 44.9284 79.3571 45.6392C78.1213 46.35 76.479 46.7054 74.4302 46.7054Z" fill="white"/>
<path d="M99.0919 46.1977C98.7667 46.1977 98.4903 46.0961 98.2626 45.8931C98.0675 45.6561 97.9699 45.3684 97.9699 45.03V20.9649C97.9699 20.6264 98.0675 20.3556 98.2626 20.1525C98.4903 19.9156 98.7667 19.7972 99.0919 19.7972H101.433C101.759 19.7972 102.019 19.9156 102.214 20.1525C102.442 20.3556 102.555 20.6264 102.555 20.9649V45.03C102.555 45.3684 102.442 45.6561 102.214 45.8931C102.019 46.0961 101.759 46.1977 101.433 46.1977H99.0919ZM98.7016 14.8724C98.3764 14.8724 98.1 14.7709 97.8724 14.5678C97.6773 14.3309 97.5797 14.0432 97.5797 13.7047V10.9631C97.5797 10.6247 97.6773 10.337 97.8724 10.1C98.1 9.86311 98.3764 9.74464 98.7016 9.74464H101.775C102.1 9.74464 102.376 9.86311 102.604 10.1C102.832 10.337 102.946 10.6247 102.946 10.9631V13.7047C102.946 14.0432 102.832 14.3309 102.604 14.5678C102.376 14.7709 102.1 14.8724 101.775 14.8724H98.7016Z" fill="white"/>
<path d="M112.955 46.1977C112.63 46.1977 112.353 46.0961 112.125 45.8931C111.93 45.6561 111.833 45.3684 111.833 45.03V43.253C111.833 42.9484 111.898 42.6607 112.028 42.3899C112.191 42.1191 112.353 41.8653 112.516 41.6284L125.979 23.808H113.394C113.069 23.808 112.792 23.7065 112.565 23.5034C112.369 23.3003 112.272 23.0126 112.272 22.6403V20.9649C112.272 20.6264 112.369 20.3556 112.565 20.1525C112.792 19.9156 113.069 19.7972 113.394 19.7972H130.76C131.085 19.7972 131.345 19.9156 131.54 20.1525C131.768 20.3556 131.882 20.6264 131.882 20.9649V22.8434C131.882 23.148 131.8 23.4188 131.638 23.6557C131.508 23.8926 131.361 24.1465 131.199 24.4172L117.882 42.1868H131.735C132.093 42.1868 132.369 42.2884 132.565 42.4915C132.76 42.6945 132.857 42.9822 132.857 43.3545V45.03C132.857 45.3684 132.76 45.6561 132.565 45.8931C132.369 46.0961 132.093 46.1977 131.735 46.1977H112.955Z" fill="white"/>
<path d="M147.929 46.1977C147.507 46.1977 147.165 46.0792 146.905 45.8423C146.677 45.6054 146.515 45.2669 146.417 44.8269L140.124 12.2324C140.092 12.097 140.076 11.9785 140.076 11.877C140.076 11.7755 140.076 11.7078 140.076 11.6739C140.076 11.4031 140.173 11.1662 140.368 10.9631C140.563 10.76 140.791 10.6585 141.051 10.6585H143.588C144.271 10.6585 144.661 10.9462 144.759 11.5216L149.734 37.7191L155.003 19.7464C155.1 19.4418 155.263 19.171 155.49 18.9341C155.751 18.6633 156.108 18.5279 156.564 18.5279H158.368C158.856 18.5279 159.214 18.6633 159.442 18.9341C159.669 19.171 159.816 19.4418 159.881 19.7464L165.198 37.7191L170.125 11.5216C170.222 10.9462 170.629 10.6585 171.344 10.6585H173.881C174.141 10.6585 174.369 10.76 174.564 10.9631C174.759 11.1662 174.856 11.4031 174.856 11.6739C174.856 11.7078 174.84 11.7755 174.808 11.877C174.808 11.9785 174.808 12.097 174.808 12.2324L168.515 44.8269C168.417 45.2669 168.238 45.6054 167.978 45.8423C167.751 46.0792 167.425 46.1977 167.003 46.1977H165.1C164.645 46.1977 164.287 46.0792 164.027 45.8423C163.767 45.6054 163.588 45.3007 163.49 44.9284L157.442 25.585L151.442 44.9284C151.312 45.3007 151.116 45.6054 150.856 45.8423C150.629 46.0792 150.287 46.1977 149.832 46.1977H147.929Z" fill="white"/>
<path d="M185.431 46.1977C185.106 46.1977 184.829 46.0961 184.602 45.8931C184.407 45.6561 184.309 45.3684 184.309 45.03V11.3185C184.309 10.9801 184.407 10.7093 184.602 10.5062C184.829 10.2693 185.106 10.1508 185.431 10.1508H187.87C188.228 10.1508 188.504 10.2693 188.699 10.5062C188.894 10.7093 188.992 10.9801 188.992 11.3185V23.148C189.87 21.9972 190.943 21.0664 192.212 20.3556C193.48 19.6448 195.09 19.2895 197.041 19.2895C199.155 19.2895 200.943 19.7802 202.407 20.7618C203.903 21.7095 205.025 23.0464 205.773 24.7726C206.553 26.465 206.943 28.445 206.943 30.7128V45.03C206.943 45.3684 206.846 45.6561 206.651 45.8931C206.456 46.0961 206.179 46.1977 205.821 46.1977H203.382C203.057 46.1977 202.781 46.0961 202.553 45.8931C202.358 45.6561 202.26 45.3684 202.26 45.03V30.9666C202.26 28.5973 201.708 26.7527 200.602 25.4327C199.496 24.0788 197.87 23.4018 195.724 23.4018C193.708 23.4018 192.081 24.0788 190.846 25.4327C189.61 26.7527 188.992 28.5973 188.992 30.9666V45.03C188.992 45.3684 188.894 45.6561 188.699 45.8931C188.504 46.0961 188.228 46.1977 187.87 46.1977H185.431Z" fill="white"/>
<path d="M218.767 46.1977C218.441 46.1977 218.165 46.0961 217.937 45.8931C217.742 45.6561 217.645 45.3684 217.645 45.03V20.9649C217.645 20.6264 217.742 20.3556 217.937 20.1525C218.165 19.9156 218.441 19.7972 218.767 19.7972H221.108C221.433 19.7972 221.693 19.9156 221.889 20.1525C222.116 20.3556 222.23 20.6264 222.23 20.9649V45.03C222.23 45.3684 222.116 45.6561 221.889 45.8931C221.693 46.0961 221.433 46.1977 221.108 46.1977H218.767ZM218.376 14.8724C218.051 14.8724 217.775 14.7709 217.547 14.5678C217.352 14.3309 217.254 14.0432 217.254 13.7047V10.9631C217.254 10.6247 217.352 10.337 217.547 10.1C217.775 9.86311 218.051 9.74464 218.376 9.74464H221.45C221.775 9.74464 222.051 9.86311 222.279 10.1C222.506 10.337 222.62 10.6247 222.62 10.9631V13.7047C222.62 14.0432 222.506 14.3309 222.279 14.5678C222.051 14.7709 221.775 14.8724 221.45 14.8724H218.376Z" fill="white"/>
<path d="M232.629 46.1977C232.304 46.1977 232.028 46.0961 231.8 45.8931C231.605 45.6561 231.507 45.3684 231.507 45.03V43.253C231.507 42.9484 231.573 42.6607 231.703 42.3899C231.865 42.1191 232.028 41.8653 232.19 41.6284L245.654 23.808H233.068C232.743 23.808 232.467 23.7065 232.239 23.5034C232.044 23.3003 231.947 23.0126 231.947 22.6403V20.9649C231.947 20.6264 232.044 20.3556 232.239 20.1525C232.467 19.9156 232.743 19.7972 233.068 19.7972H250.434C250.76 19.7972 251.02 19.9156 251.215 20.1525C251.443 20.3556 251.556 20.6264 251.556 20.9649V22.8434C251.556 23.148 251.475 23.4188 251.312 23.6557C251.182 23.8926 251.036 24.1465 250.873 24.4172L237.556 42.1868H251.41C251.768 42.1868 252.044 42.2884 252.239 42.4915C252.434 42.6945 252.532 42.9822 252.532 43.3545V45.03C252.532 45.3684 252.434 45.6561 252.239 45.8931C252.044 46.0961 251.768 46.1977 251.41 46.1977H232.629Z" fill="white"/>
</svg>
