<svg width="105" height="103" viewBox="0 0 105 103" fill="none" xmlns="http://www.w3.org/2000/svg">
<rect width="105" height="103" rx="4" fill="#D9D9D9"/>
<path d="M60.2315 75.3786C60.8509 77.3763 59.7344 79.5236 57.6744 79.8855C51.8449 80.9098 45.8109 80.1835 40.3519 77.7529C33.7338 74.806 28.4118 69.5549 25.3766 62.9768C22.3414 56.3986 21.7998 48.9418 23.8526 41.9941C25.9054 35.0465 30.4128 29.0814 36.5357 25.2092C42.6585 21.3369 49.9798 19.8214 57.1368 20.9447C64.2938 22.0679 70.7988 25.7534 75.4411 31.3152C80.0833 36.877 82.5466 43.936 82.3723 51.1785C82.2285 57.1524 80.2984 62.9154 76.8743 67.7432C75.6643 69.4493 73.2457 69.5376 71.7063 68.1217C70.167 66.7058 70.0991 64.3233 71.2345 62.5668C73.4541 59.1329 74.7008 55.1323 74.8003 50.9963C74.9304 45.5899 73.0917 40.3204 69.6263 36.1687C66.1609 32.0169 61.305 29.2657 55.9625 28.4272C50.6199 27.5887 45.1547 28.72 40.584 31.6106C36.0134 34.5011 32.6487 38.954 31.1164 44.1403C29.584 49.3266 29.9883 54.893 32.254 59.8035C34.5197 64.714 38.4925 68.6339 43.4328 70.8336C47.2123 72.5165 51.3611 73.1049 55.4149 72.5714C57.4886 72.2984 59.612 73.3809 60.2315 75.3786Z" fill="white"/>
<path d="M78.3363 80.2498C77.8057 81.9993 75.9453 83.0063 74.2769 82.2587C70.3901 80.5171 66.9719 77.8434 64.3374 74.4543C61.7029 71.0652 59.9551 67.0931 59.2261 62.8967C58.9132 61.0955 60.348 59.541 62.1744 59.4583C64.0007 59.3757 65.5202 60.8009 65.9103 62.587C66.528 65.4149 67.771 68.084 69.5644 70.3911C71.3579 72.6983 73.6378 74.5613 76.2259 75.8575C77.8606 76.6762 78.867 78.5003 78.3363 80.2498Z" fill="#330452"/>
</svg>
